<?xml version="1.0" standalone="no"?>
<!DOCTYPE svg PUBLIC "-//W3C//DTD SVG 1.1//EN" "http://www.w3.org/Graphics/SVG/1.1/DTD/svg11.dtd" >
<svg xmlns="http://www.w3.org/2000/svg">
<metadata></metadata>
<defs>
<font id="comexlight_condensed_italic" horiz-adv-x="886" >
<font-face units-per-em="2048" ascent="1536" descent="-512" />
<missing-glyph horiz-adv-x="471" />
<glyph unicode="&#xfb01;" horiz-adv-x="903" d="M-174 -346q0 8 8 27l27 59q9 18 24 18q9 0 47.5 -13t63.5 -13q45 0 69.5 43t47.5 172l178 991h-88q-33 0 -33 31l14 67q9 39 41 39h90l25 125q32 176 105.5 259t197.5 85q40 0 81 -12t54 -23q13 -10 13 -22q0 -9 -7 -23l-26 -53q-12 -20 -31 -20q-4 0 -22 6 q-21 10 -54 10q-60 0 -94.5 -42.5t-60.5 -174.5l-23 -115h131q33 0 33 -31l-12 -69q-5 -37 -45 -37h-131l-185 -1028q-31 -174 -89.5 -246.5t-172.5 -73.5q-45 0 -96 11.5t-72 29.5q-8 8 -8 23zM586 31q0 6 2 16l178 989q6 39 51 39h76q14 0 22.5 -9.5t8.5 -23.5q0 -1 -1 -8 t-1 -8l-179 -989q-8 -37 -47 -37h-75q-15 0 -25 8t-10 23zM786 1292q0 42 30.5 69.5t72.5 27.5q49 0 77.5 -27t28.5 -70q0 -42 -28.5 -69t-77.5 -27q-42 0 -72.5 27.5t-30.5 68.5z" />
<glyph unicode="&#xfb02;" horiz-adv-x="907" d="M-174 -346q0 8 8 27l27 59q9 18 24 18q9 0 47.5 -13t63.5 -13q45 0 69.5 43t47.5 172l178 991h-88q-33 0 -33 31l14 67q9 39 41 39h90l25 125q32 176 105.5 259t197.5 85q40 0 81 -12t54 -23q13 -10 13 -22q0 -9 -7 -23l-26 -53q-12 -20 -31 -20q-4 0 -22 6 q-21 10 -54 10q-60 0 -94.5 -42.5t-60.5 -174.5l-23 -115h131q33 0 33 -31l-12 -69q-5 -37 -45 -37h-131l-185 -1028q-31 -174 -89.5 -246.5t-172.5 -73.5q-45 0 -96 11.5t-72 29.5q-8 8 -8 23zM586 31l2 14l258 1436q5 22 13.5 32t27.5 13l84 16l10 2q29 0 29 -28 l-267 -1479q-8 -37 -47 -37h-75q-15 0 -25 8t-10 23z" />
<glyph horiz-adv-x="0" />
<glyph horiz-adv-x="682" />
<glyph unicode=" "  horiz-adv-x="471" />
<glyph unicode="&#x09;" horiz-adv-x="471" />
<glyph unicode="&#xa0;" horiz-adv-x="471" />
<glyph unicode="!" horiz-adv-x="546" d="M182 80q0 53 30 90t85 37q44 0 69 -27.5t27 -77.5q0 -59 -34 -94t-83 -35q-44 0 -69 27t-25 80zM254 362q0 11 2 23l168 1092q6 41 41 41h119q24 0 24 -25q0 -15 -4 -27l-215 -1095q-5 -37 -41 -37h-67q-27 0 -27 28z" />
<glyph unicode="&#x22;" horiz-adv-x="454" d="M272 1202l41 326q6 35 37 35h76q17 0 24 -7.5t7 -27.5l-74 -318q-9 -41 -39 -41h-43q-29 0 -29 33zM500 1202l41 326q6 35 37 35h75q17 0 24 -7.5t7 -27.5l-74 -318q-9 -41 -39 -41h-43q-28 0 -28 33z" />
<glyph unicode="#" horiz-adv-x="1236" d="M170 506q0 8 2 12l18 45q16 41 50 41h217l110 320h-219q-26 0 -26 18q0 7 4 23l14 39q11 25 20 32.5t31 7.5h215l150 439q10 29 21.5 37t39.5 8h49q25 0 25 -23q0 -16 -6 -28l-148 -437h236l149 443q10 29 22 37t40 8h49q24 0 24 -23q0 -16 -6 -28l-147 -433h223 q31 0 31 -22q0 -6 -4 -18l-19 -48q-7 -16 -16.5 -24t-30.5 -8h-223l-111 -320h230q24 0 24 -20q0 -9 -4 -21l-18 -47q-11 -33 -49 -33h-224l-149 -438q-10 -30 -21 -37.5t-38 -7.5h-50q-24 0 -24 23q0 16 6 28l145 434h-235l-150 -446q-7 -23 -19.5 -31t-39.5 -8h-47 q-25 0 -25 25q0 4 4 24l146 434h-217q-29 0 -29 23zM586 602h235l113 322h-236z" />
<glyph unicode="$" horiz-adv-x="956" d="M123 111q6 23 10 30l29 60q11 20 28 20q21 0 29 -8q67 -43 136 -62.5t120 -19.5q139 0 199.5 67t60.5 189q0 133 -112 223l-138 109q-182 145 -182 338q0 191 103.5 294t293.5 103q68 0 124 -21t92.5 -55.5t59.5 -71.5t36 -77q6 -18 6 -35q0 -22 -33 -33l-47 -20 q-15 -6 -29 -6q-24 0 -35 28q-24 61 -71.5 101.5t-114.5 40.5q-101 0 -157 -60t-56 -172q0 -117 119 -213l133 -108q82 -66 130 -156t48 -193q0 -217 -112.5 -321.5t-335.5 -104.5q-169 0 -316 99q-18 10 -18 35zM373 -188q0 8 2 14l31 176l122 -2l-30 -174 q-5 -22 -14 -31.5t-27 -9.5h-54q-30 0 -30 27zM674 1434l31 163q3 22 12 31.5t28 9.5h56q28 0 28 -28v-13l-32 -172z" />
<glyph unicode="%" horiz-adv-x="1202" d="M186 18q0 17 17 41l889 1356q18 27 30.5 36t36.5 9h68q22 0 22 -18t-16 -41l-891 -1356q-18 -28 -30 -36.5t-36 -8.5h-67q-23 0 -23 18zM215 1018q0 58 10 116t34 116t59 102.5t89 72t121 27.5q94 0 143.5 -70.5t49.5 -181.5q0 -70 -17 -140t-51.5 -136.5t-97.5 -108 t-145 -41.5q-89 0 -142 66t-53 178zM350 1032q0 -27 3.5 -51t11.5 -46.5t24.5 -36t38.5 -13.5q42 0 74.5 34.5t49.5 86.5t25.5 101.5t8.5 90.5q0 62 -19 102.5t-59 40.5q-42 0 -74.5 -33.5t-49.5 -84.5t-25.5 -100t-8.5 -91zM680 221q0 58 10 116t34 116t59 102.5t89 72 t121 27.5q94 0 143.5 -70.5t49.5 -181.5q0 -54 -10 -110.5t-33.5 -114t-58.5 -101.5t-89.5 -72t-120.5 -28q-89 0 -141.5 66t-52.5 178zM815 236q0 -27 3.5 -51t11.5 -47t24.5 -36.5t38.5 -13.5q42 0 74.5 34.5t49.5 86.5t25.5 101.5t8.5 90.5q0 62 -19 103t-59 41 q-42 0 -74.5 -33.5t-49.5 -84.5t-25.5 -100t-8.5 -91z" />
<glyph unicode="&#x26;" horiz-adv-x="1067" d="M123 293q0 158 80 287t241 251l-18 41q-51 111 -51 226q0 143 85 234t236 91q105 0 173.5 -68.5t68.5 -180.5q0 -92 -42.5 -181t-117.5 -143q-32 -21 -49 -21q-13 0 -27 17l-28 43q-6 18 -6 22q0 17 18 33q107 86 107 213q0 65 -27.5 100t-71.5 35q-81 0 -125.5 -54 t-44.5 -138q0 -71 35 -154l244 -575q80 146 129 360q6 25 15 34t24 9h76q24 0 24 -26v-13q-26 -131 -81 -261t-126 -232l39 -78q15 -29 37 -29q12 0 31.5 5t27.5 5q18 0 23 -24l12 -55q9 -39 -24 -54q-45 -20 -105 -20q-79 0 -135 98l-18 37q-147 -147 -336 -147 q-127 0 -210 84t-83 229zM274 315q0 -104 46 -154t124 -50q68 0 134.5 34.5t121.5 98.5l-202 475q-96 -74 -160 -180.5t-64 -223.5z" />
<glyph unicode="'" horiz-adv-x="227" d="M272 1202l41 326q6 35 37 35h76q17 0 24 -7.5t7 -27.5l-74 -318q-9 -41 -39 -41h-43q-29 0 -29 33z" />
<glyph unicode="(" horiz-adv-x="610" d="M215 326q0 67 6 143.5t22.5 174t41.5 192.5t67 196t95.5 187t129.5 163t166 127q15 9 29 9q17 0 25 -13l30 -67q4 -8 4 -15q0 -20 -28 -37q-91 -54 -166 -150.5t-123 -208.5t-80.5 -242t-46.5 -249t-14 -231q0 -331 153 -444q19 -14 19 -31q0 -12 -13 -25l-38 -53 q-10 -12 -29 -12q-9 0 -25 8q-63 37 -109 103.5t-70 147.5t-35 161.5t-11 165.5z" />
<glyph unicode=")" horiz-adv-x="610" d="M-2 -166q0 19 29 37q91 54 166 150.5t123 208.5t80.5 242t46.5 249t14 231q0 139 -34.5 260.5t-119.5 184.5q-18 13 -18 30q0 13 12 25l39 53q10 13 29 13q6 0 24 -9q63 -37 109 -103t70 -147.5t35 -161.5t11 -165q0 -80 -9.5 -172t-30.5 -208t-61 -230t-95.5 -222 t-141.5 -201t-190 -151q-13 -8 -29 -8q-17 0 -24 12l-31 68q-4 8 -4 14z" />
<glyph unicode="*" horiz-adv-x="598" d="M254 1315q0 2 2 5.5t2 4.5l37 80q10 20 29 20q11 0 20 -6l150 -98v217q1 3 1 8t1 8q4 29 34 29h78q31 0 27 -29q-1 -3 -3 -8t-3 -8l-74 -215l180 96q20 8 27 8q15 0 18 -22l8 -80v-10q-3 -27 -34 -31l-185 -18l109 -154q9 -17 6 -31q-3 -17 -18 -24l-70 -41 q-12 -6 -21 -6q-21 0 -24 24l-43 203l-115 -203q-10 -24 -28 -24q-9 0 -21 6l-57 41q-14 11 -11 24q3 15 19 31l162 154l-176 18q-30 3 -27 31z" />
<glyph unicode="+" horiz-adv-x="901" d="M211 553v53q0 21 6.5 30t26.5 9h250v340q0 41 30 41h58q18 0 25 -9.5t7 -31.5v-340h248q20 0 26.5 -9t6.5 -30v-53q0 -19 -7 -27t-28 -8h-246v-342q0 -22 -7 -31.5t-25 -9.5h-58q-30 0 -30 41v342h-248q-21 0 -28 8t-7 27z" />
<glyph unicode="," horiz-adv-x="292" d="M31 -166q0 15 2 19l98 299q6 17 16 25.5t16 9.5t17 1h90q31 0 31 -26q0 -17 -6 -29l-141 -287q-19 -39 -62 -39h-35q-26 0 -26 27z" />
<glyph unicode="-" horiz-adv-x="692" d="M201 545q0 8 2 20l8 49q3 16 12.5 25t18.5 9l8 1h420q26 0 26 -24l-2 -27l-6 -41q-6 -35 -41 -35h-416q-30 0 -30 23z" />
<glyph unicode="." horiz-adv-x="372" d="M100 76q-1 55 30.5 88t80.5 33q43 0 67.5 -30.5t24.5 -84.5q0 -53 -31.5 -83t-76.5 -30q-42 0 -67.5 29.5t-27.5 77.5z" />
<glyph unicode="/" horiz-adv-x="329" d="M123 4q0 13 2 19l342 1486q6 29 14 37t29 8h65q25 0 25 -24q0 -13 -2 -19l-340 -1486q-7 -29 -15.5 -37t-29.5 -8h-66q-11 0 -17.5 7t-6.5 17z" />
<glyph unicode="0" horiz-adv-x="1005" d="M211 467q0 119 17.5 245.5t59 256.5t100.5 232t151.5 166.5t203.5 64.5q83 0 143 -36.5t93 -102t48 -144.5t15 -176q0 -108 -13 -219t-38.5 -224t-69 -211.5t-100 -175.5t-136 -121.5t-171.5 -44.5q-159 0 -231 126.5t-72 363.5zM371 457q0 -76 5 -129.5t20 -104.5 t46.5 -77.5t79.5 -26.5q85 0 156 79t114.5 204.5t67 272.5t23.5 292q0 79 -7 135.5t-23.5 100.5t-46 65.5t-73.5 21.5q-84 0 -150.5 -69t-105 -168t-63.5 -220.5t-34 -214t-9 -161.5z" />
<glyph unicode="1" horiz-adv-x="808" d="M168 23q0 2 1 6t1 6l14 76q3 21 11 30t30 9h148l194 1107h-161q-33 0 -33 25v10l12 78q7 39 43 39h188q20 0 33 -1t30 -5.5t26.5 -13t16.5 -25t7 -39.5q0 -11 -4 -43l-199 -1132h150q31 0 31 -23q0 -2 -1 -7.5t-1 -8.5l-15 -76q-3 -19 -12 -27t-31 -8h-446q-33 0 -33 23z " />
<glyph unicode="2" horiz-adv-x="915" d="M121 104q10 56 67 113q365 398 373 408q14 16 49 54.5t50 56t44 53t42.5 57t33 56.5t28.5 63.5t16 65t7 73.5q0 182 -147 182q-67 0 -120 -43t-105 -131q-16 -25 -37 -25q-1 0 -21 5l-57 22q-22 9 -22 35q0 13 8 29q126 254 372 254q78 0 135.5 -26t90 -71t48 -100 t15.5 -119q0 -42 -5 -81.5t-18 -78t-25 -68.5t-36 -68t-39.5 -61.5t-48 -62.5t-49 -58t-55 -61.5t-53.5 -60.5l-224 -240l-129 -129l162 3l338 2q27 0 27 -23q0 -10 -2 -16l-17 -78q-6 -35 -39 -35h-569q-40 0 -68 27t-20 77z" />
<glyph unicode="3" horiz-adv-x="917" d="M137 98q0 14 6 29l27 59q8 21 29 21q8 0 20 -6q130 -76 258 -76q126 0 194 79.5t68 207.5q0 124 -77.5 190t-186.5 68h-76q-35 0 -32 35l8 73q6 38 37 41h86q134 0 223.5 77.5t89.5 217.5q0 82 -37 127t-102 45q-74 0 -129 -45t-105 -135q-11 -16 -26 -16q-21 0 -29 4 l-51 22q-17 8 -17 33q0 11 9 29q120 254 362 254q132 0 209.5 -79.5t77.5 -230.5q0 -290 -297 -385q39 -13 76.5 -38.5t71.5 -64t54.5 -95t20.5 -121.5q0 -195 -116.5 -318t-327.5 -123q-68 0 -155.5 26.5t-145.5 68.5q-17 13 -17 26z" />
<glyph unicode="4" horiz-adv-x="921" d="M82 467q0 53 61 127l641 784q14 20 29 25.5t41 5.5h92q23 0 23 -18q0 -19 -15 -39l-487 -592l-203 -240h195h205l65 365q6 39 39 39h88q27 0 27 -27v-12l-64 -359h121q29 0 29 -22v-8l-17 -80q-3 -15 -13.5 -25t-25.5 -10h-118l-60 -342q-5 -39 -39 -39h-86q-28 0 -28 31 v8l59 342h-471q-48 0 -68 25.5t-20 60.5z" />
<glyph unicode="5" horiz-adv-x="921" d="M141 100q0 8 11 35l22 51q9 21 27 21q10 0 22 -6q122 -76 254 -76q126 0 196 78t70 219q0 154 -78.5 212t-244.5 58h-105q-7 0 -14.5 6t-7.5 19q0 8 2 12l94 547q8 44 22.5 72t36.5 40.5t42 16.5t51 4h426q22 0 22 -25q0 -2 -1 -7t-1 -7l-12 -78q-3 -18 -11 -26.5 t-26 -8.5h-397l-74 -415h35q401 -9 401 -414q0 -204 -121 -327.5t-331 -123.5q-58 0 -146.5 26t-150.5 71q-13 10 -13 26z" />
<glyph unicode="6" horiz-adv-x="987" d="M209 487q0 89 12 186.5t36.5 206.5t68.5 205.5t102 175t143 125t185 46.5q99 0 177 -58.5t99 -169.5q4 -16 4 -22q0 -19 -24 -33l-54 -25q-12 -6 -28 -6q-20 0 -29 31q-22 75 -62 106t-98 31q-54 0 -103 -34.5t-85 -88t-67 -126.5t-50.5 -142.5t-34.5 -142.5 q64 73 129 107t146 34q130 0 210.5 -94.5t80.5 -282.5q0 -74 -17 -149t-53.5 -145.5t-88 -124.5t-126 -87t-162.5 -33q-145 0 -228 142.5t-83 367.5zM371 469q0 -60 8 -117.5t26 -112t51.5 -87.5t78.5 -33q69 0 122.5 38.5t83.5 99.5t45 127t15 130q0 98 -41 164.5 t-127 66.5q-152 0 -254 -157q-8 -54 -8 -119z" />
<glyph unicode="7" horiz-adv-x="798" d="M111 20q0 15 16 43l543 926l164 277l-312 -2h-246q-26 0 -26 24v10l14 76q2 15 12 25t25 10h623q45 0 66.5 -21.5t21.5 -50.5q0 -15 -2.5 -29t-10 -30.5t-11.5 -26t-16 -31t-16 -28.5l-651 -1151q-13 -24 -26 -32.5t-37 -8.5h-105q-26 0 -26 20z" />
<glyph unicode="8" horiz-adv-x="901" d="M168 319q0 159 83.5 279t244.5 164q-16 3 -39.5 18t-53.5 44t-50.5 83t-20.5 121q0 106 46 196.5t140.5 149t220.5 58.5q129 0 208 -90t79 -222q0 -148 -69.5 -236.5t-204.5 -138.5q28 -6 57.5 -23t62.5 -47.5t54.5 -85.5t21.5 -124q0 -225 -117 -356.5t-335 -131.5 q-144 2 -236 93.5t-92 248.5zM332 346q0 -100 46.5 -162.5t129.5 -62.5q135 0 207.5 93t72.5 259q0 86 -47 142.5t-131 56.5q-68 0 -122.5 -28.5t-87.5 -76t-50.5 -104.5t-17.5 -117zM489 1020q0 -87 39.5 -145t110.5 -58t124.5 45.5t78 106.5t24.5 123q0 90 -37.5 145 t-109.5 55q-74 0 -128 -42.5t-78 -102.5t-24 -127z" />
<glyph unicode="9" horiz-adv-x="966" d="M199 227q0 19 24 33l58 25q12 6 28 6q20 0 29 -31q22 -75 62 -106t98 -31q67 0 124.5 50t98 134.5t67.5 169.5t46 180q-65 -74 -127 -107.5t-142 -33.5q-131 0 -214 95t-83 282q0 75 15.5 149t50 145t84 125t123 87t161.5 33q158 0 241 -141t83 -369q0 -89 -12 -186.5 t-36.5 -206.5t-68.5 -205.5t-102 -175t-143 -125t-185 -46.5q-101 0 -180 61t-98 175q0 2 -1 7t-1 7zM434 895q0 -63 14 -112t52 -83.5t96 -35.5q77 0 145 42t115 115q8 54 8 119q0 71 -9.5 131.5t-29 110.5t-53.5 79t-80 29q-69 0 -121.5 -38.5t-80.5 -100t-42 -126.5 t-14 -130z" />
<glyph unicode=":" horiz-adv-x="342" d="M123 76q-1 56 30 88.5t80 32.5q43 0 68 -30.5t25 -84.5q0 -53 -32 -83t-77 -30q-42 0 -67 29.5t-27 77.5zM186 866q-1 55 30.5 88t80.5 33q43 0 67.5 -30.5t24.5 -84.5q0 -53 -31.5 -82.5t-76.5 -29.5q-42 0 -67.5 29t-27.5 77z" />
<glyph unicode=";" horiz-adv-x="311" d="M10 -166q0 15 2 19l99 299q6 17 16 25.5t16 9.5t17 1h90q31 0 31 -26q0 -15 -7 -29l-141 -287q-19 -39 -61 -39h-35q-27 0 -27 27zM158 866q-1 56 30 88.5t80 32.5q43 0 67.5 -30.5t24.5 -84.5q0 -53 -31.5 -82.5t-76.5 -29.5q-42 0 -67 29t-27 77z" />
<glyph unicode="&#x3c;" horiz-adv-x="823" d="M240 737v37q0 44 30 66l463 383q12 8 21 8q22 0 22 -27v-49q0 -55 -37 -84l-348 -311l348 -314q37 -29 37 -84v-49q0 -24 -24 -24q-10 0 -19 6l-461 383q-32 21 -32 59z" />
<glyph unicode="=" horiz-adv-x="821" d="M242 389v53q0 20 6 29.5t22 9.5h488q16 0 22 -9.5t6 -29.5v-53q0 -19 -6 -27t-24 -8h-484q-18 0 -24 8t-6 27zM242 727v53q0 20 6 29.5t22 9.5h488q16 0 22 -9.5t6 -29.5v-53q0 -19 -6 -27t-24 -8h-484q-18 0 -24 8t-6 27z" />
<glyph unicode="&#x3e;" horiz-adv-x="825" d="M315 313v49q0 55 37 84l348 314l-348 311q-37 29 -37 84v49q0 27 23 27q8 0 20 -8l463 -383q31 -22 31 -66v-37q0 -37 -33 -59l-461 -383q-9 -6 -18 -6q-25 0 -25 24z" />
<glyph unicode="?" horiz-adv-x="712" d="M197 80q0 53 29.5 90t84.5 37q44 0 69.5 -27.5t27.5 -77.5q0 -59 -34 -94t-83 -35q-44 0 -69 27t-25 80zM201 1237q0 15 10 35q58 129 144 189.5t218 60.5q134 0 209.5 -73t75.5 -206q0 -66 -18 -131t-42 -114.5t-69.5 -111.5t-78.5 -100.5t-91 -101.5 q-64 -78 -89 -121.5t-36 -103.5l-16 -84q-5 -37 -35 -37h-96q-27 0 -27 27v10q8 51 14 90q14 78 53.5 150.5t121.5 160.5q43 45 69.5 74.5t64 79t58.5 90.5t37 94t16 105q0 79 -32 118t-109 39q-70 0 -123.5 -39.5t-95.5 -126.5q-14 -30 -39 -30q-8 0 -16 4l-56 24 q-9 3 -15.5 11.5t-6.5 17.5z" />
<glyph unicode="@" horiz-adv-x="1441" d="M227 762q0 219 44.5 374t132.5 246.5t207.5 132.5t281.5 41q106 0 195.5 -23.5t167 -76.5t131 -133t84 -198.5t30.5 -268.5q0 -242 -87 -373t-230 -131q-151 0 -168 115q-28 -45 -82.5 -80t-116.5 -35q-136 0 -210.5 106.5t-74.5 319.5q0 110 26.5 194.5t71 132.5 t96.5 71.5t108 23.5q119 0 182 -104l12 61q5 27 31 27h69q9 0 15 -8t6 -15v-629q0 -65 59 -65q81 0 125.5 97t44.5 292q0 106 -14.5 192.5t-50 163t-90.5 128.5t-140.5 82t-195.5 30q-100 0 -178 -18.5t-147.5 -65.5t-115 -124t-72 -198.5t-26.5 -283.5q0 -346 144.5 -512 t416.5 -166q222 0 439 152q12 12 26 12q10 0 19 -12l30 -43q9 -18 9 -23q0 -15 -15 -27q-93 -78 -231.5 -122t-278.5 -44q-335 0 -507.5 199t-172.5 586zM672 776q0 -313 168 -313q59 0 105.5 41t68.5 108v344l-13.5 27t-21 32.5t-32 36t-42 24t-55.5 11.5 q-48 0 -83.5 -25.5t-55.5 -70t-29.5 -98t-9.5 -117.5z" />
<glyph unicode="A" horiz-adv-x="1046" d="M29 29q0 8 6 20l561 1323q24 56 55 84.5t90 28.5h11q61 0 92.5 -31.5t36.5 -75.5l149 -1327v-22q-7 -29 -31 -29h-90q-22 0 -31 9.5t-12 35.5l-35 361h-485l-149 -363q-12 -26 -23.5 -34.5t-34.5 -8.5h-88q-13 0 -19 8q-4 6 -4 14q0 3 1 7zM410 549h403l-59 627l-15 170 l-67 -172z" />
<glyph unicode="B" horiz-adv-x="1017" d="M176 31q0 2 1 6.5t1 7.5l244 1380q4 27 13 37t28 13q61 10 262 10q377 0 377 -320q-3 -131 -70.5 -227.5t-197.5 -146.5q93 -27 141.5 -106.5t48.5 -192.5q0 -493 -571 -500q-15 0 -46.5 -1t-48.5 -1q-113 0 -157 8q-25 4 -25 33zM354 139q41 -4 138 -4q168 0 266 97.5 t98 275.5q0 207 -246 207h-153zM481 854h148q134 2 218.5 83t84.5 226q0 174 -232 174q-82 0 -137 -6z" />
<glyph unicode="C" horiz-adv-x="1013" d="M199 522q0 82 9 169t31 183.5t54.5 184.5t83.5 169t114.5 140t151 94t188.5 35q275 0 332 -272q0 -2 1 -8.5t1 -8.5q0 -25 -30 -34l-56 -19q-21 -6 -35 -6q-19 0 -28 29q-17 54 -41 90t-54 52.5t-55 22t-57 5.5q-91 0 -168 -59.5t-126.5 -150.5t-84.5 -203.5t-50 -214.5 t-15 -188q0 -83 13.5 -152t43.5 -126.5t83 -90t126 -32.5q136 0 284 76q10 6 25 6q22 0 29 -25l20 -63q4 -16 4 -25q0 -26 -32 -43q-140 -80 -357 -80q-87 0 -156 28.5t-115 77.5t-76.5 119t-44 149t-13.5 171z" />
<glyph unicode="D" horiz-adv-x="1157" d="M172 31q0 2 1 7.5t1 8.5l244 1378q7 44 61 50q57 8 221 8q259 -3 388 -133.5t129 -413.5q0 -139 -14.5 -255.5t-49 -227.5t-97.5 -200t-153 -149q-173 -114 -444 -114q-213 0 -260 8q-9 3 -13.5 5t-9 9t-4.5 19zM348 141q45 -4 146 -4q189 0 319 99q238 183 238 690 q0 201 -83 304t-274 107q-67 0 -137 -6z" />
<glyph unicode="E" d="M188 125q0 7 3 26t4 23l200 1137q9 52 27 86.5t43 50.5t47.5 21.5t52.5 5.5h457q35 0 35 -33v-10l-15 -74q-6 -35 -45 -35h-442l-80 -459h359q34 0 34 -26l-2 -13l-14 -71q-7 -39 -47 -39h-356l-101 -563h473q35 0 35 -27q0 -7 -2 -21l-12 -65q-7 -39 -43 -39h-473 q-24 0 -45.5 5t-43.5 17.5t-35.5 38.5t-13.5 64z" />
<glyph unicode="F" horiz-adv-x="815" d="M170 25q0 10 2 16l223 1270q28 164 170 164h436q35 0 35 -37l-2 -19l-12 -61q-6 -35 -45 -35h-422l-80 -459h359q34 0 34 -26q0 -2 -1 -6.5t-1 -6.5l-14 -71q-7 -39 -47 -39h-356l-119 -674q-6 -41 -43 -41h-88q-29 0 -29 25z" />
<glyph unicode="G" horiz-adv-x="1095" d="M201 522q0 85 9.5 174t32.5 185.5t57 184.5t86 167.5t116.5 137.5t152.5 92t189 34q283 0 340 -272q0 -2 1 -8.5t1 -8.5q0 -25 -31 -34l-55 -19q-21 -6 -35 -6q-20 0 -29 29q-17 54 -41 90t-54 52.5t-55 22t-57 5.5q-80 0 -149.5 -40.5t-117.5 -108.5t-85.5 -153 t-59.5 -178.5t-33 -179t-11 -160.5q0 -83 14.5 -152.5t45.5 -127.5t85 -90.5t127 -32.5q118 0 219 37l80 442h-194q-27 0 -27 25v10l14 82q7 39 37 39h260q40 0 58 -11.5t18 -46.5q0 -8 -4 -40l-80 -502q-7 -44 -25.5 -74t-64.5 -53q-62 -29 -150 -43q-80 -13 -176 -13 q-108 0 -188.5 43.5t-127.5 120.5t-70 172.5t-23 208.5z" />
<glyph unicode="H" horiz-adv-x="1177" d="M172 31q0 6 2 16l244 1389q6 39 51 39h78q14 0 22.5 -9.5t8.5 -23.5q0 -1 -1.5 -8.5t-1.5 -8.5l-98 -557h531l100 568q6 39 51 39h78q14 0 22.5 -9.5t8.5 -23.5q0 -1 -1 -8.5t-1 -8.5l-244 -1388q-8 -37 -47 -37h-78q-15 0 -25 8t-10 23q0 6 2 16l117 670h-530l-119 -680 q-8 -37 -47 -37h-78q-15 0 -25 8t-10 23z" />
<glyph unicode="I" horiz-adv-x="487" d="M172 31q0 6 2 16l244 1389q6 39 51 39h78q14 0 22.5 -9.5t8.5 -23.5q0 -1 -1.5 -8.5t-1.5 -8.5l-243 -1388q-8 -37 -47 -37h-78q-15 0 -25 8t-10 23z" />
<glyph unicode="J" horiz-adv-x="698" d="M55 72q0 14 8 30l29 58q13 22 31 22q10 0 22 -6q68 -32 97.5 -41.5t60.5 -9.5q28 0 47.5 8.5t31.5 20t22 39.5t14.5 49.5t13.5 68.5l176 1012h-147q-33 0 -33 25v10l14 78q7 39 43 39h267q32 0 32 -33v-10l-196 -1129q-26 -144 -50 -197q-45 -100 -155 -122 q-37 -7 -82 -7q-53 0 -115 17t-112 49q-19 13 -19 29z" />
<glyph unicode="K" horiz-adv-x="989" d="M170 25q0 10 2 16l246 1393q8 41 41 41h90q29 0 29 -27q0 -8 -3 -14l-98 -562h131l418 576q19 27 57 27h97q11 0 17.5 -7.5t6.5 -17.5q0 -11 -16 -35l-461 -631l262 -731q4 -12 4 -26q-6 -27 -32 -27h-87q-38 0 -47 27l-239 694h-137l-119 -680q-8 -41 -35 -41h-102 q-25 0 -25 25z" />
<glyph unicode="L" horiz-adv-x="827" d="M188 121q0 5 5 45l223 1268q8 41 43 41h88q18 0 23.5 -9.5t2.5 -31.5l-225 -1282h447q32 0 32 -27q0 -11 -2 -19l-12 -67q-7 -39 -43 -39h-442q-140 0 -140 121z" />
<glyph unicode="M" horiz-adv-x="1413" d="M147 29v8l246 1257q17 94 52.5 141.5t113.5 47.5q65 0 98 -28.5t39 -106.5l47 -936l7 -193l69 191l348 940q30 81 68 107t104 26q117 0 117 -133q0 -29 -2 -45l-151 -1268q-3 -18 -13.5 -27.5t-23.5 -9.5h-90q-29 0 -29 31v6l135 1038l35 287l-105 -289l-313 -842 q-25 -65 -58.5 -96t-92.5 -31h-9q-117 0 -123 127l-49 850l-10 281l-55 -281l-197 -1044q-6 -37 -39 -37h-92q-11 0 -19 8t-8 21z" />
<glyph unicode="N" horiz-adv-x="1247" d="M172 41l221 1255q7 41 16.5 70.5t26.5 58t46 43.5t69 15q68 0 104.5 -29t53.5 -106l186 -934l59 -303l56 372l168 951q5 22 13.5 31.5t25.5 9.5h92q28 0 28 -27q0 -6 -2 -14l-221 -1266q-12 -89 -51.5 -132.5t-114.5 -43.5q-114 0 -143 121l-199 979l-51 264l-55 -346 l-172 -969q-8 -41 -41 -41h-86q-30 0 -30 28q0 6 1 13z" />
<glyph unicode="O" horiz-adv-x="1157" d="M199 498q0 95 9 189.5t30.5 194.5t53.5 188t82.5 167.5t113.5 136.5t149.5 90t187.5 33q83 0 152 -29.5t124.5 -89.5t86.5 -163t31 -240q0 -98 -9 -194t-30.5 -196t-54 -187.5t-83 -166t-114 -134t-149.5 -88t-187 -32.5q-83 0 -152 29t-124 89t-86 162.5t-31 240.5z M365 500q0 -184 61.5 -278.5t181.5 -94.5q134 0 236.5 116.5t155.5 308t53 423.5q0 184 -63.5 278.5t-186.5 94.5q-84 0 -153.5 -44.5t-116 -119t-80.5 -163.5t-52.5 -187.5t-27 -180.5t-8.5 -153z" />
<glyph unicode="P" horiz-adv-x="954" d="M170 27q0 2 1 8.5t1 9.5l242 1382q4 41 35 46q66 12 239 12q194 0 301 -96.5t107 -280.5q0 -263 -147.5 -412t-422.5 -149q-9 0 -54 1t-54 1l-88 -508q-6 -41 -39 -41h-94q-11 0 -19 7t-8 20zM442 694q45 -2 121 -2q181 0 273 113t92 305q0 117 -63.5 172t-190.5 55 q-32 0 -119 -6z" />
<glyph unicode="Q" horiz-adv-x="1155" d="M199 498q0 82 9 170.5t30.5 187t53.5 189t82.5 174t113 144.5t149.5 97.5t188 36.5q83 0 152 -29t123.5 -89.5t85.5 -163t31 -238.5q0 -102 -13.5 -211.5t-48 -231.5t-85 -224.5t-132 -186t-182.5 -119.5l135 -180q8 -16 8 -29q-3 -20 -27 -20h-102q-27 0 -42 7.5 t-34 35.5l-102 159q-84 0 -153 29t-124 89t-85.5 162.5t-30.5 240.5zM362 494q0 -183 63.5 -275t184.5 -92q134 0 236.5 119t154.5 311.5t52 423.5q0 181 -63.5 274t-186.5 93q-74 0 -137 -34t-107 -90t-79.5 -131.5t-57 -154t-35.5 -162.5t-19.5 -153t-5.5 -129z" />
<glyph unicode="R" horiz-adv-x="1009" d="M170 23q0 2 1 6.5t1 7.5l242 1386q3 20 16 32.5t27 14.5q61 13 239 13q184 0 290 -88t106 -262q0 -321 -295 -437l184 -651q4 -12 4 -22q-3 -23 -29 -23h-100q-22 0 -32.5 7.5t-16.5 31.5l-166 614h-205l-106 -612q-3 -19 -14 -30t-25 -11h-96q-25 0 -25 23zM461 797 q49 -4 102 -4q165 0 267 83t102 242q0 115 -68.5 168t-183.5 53q-21 0 -50.5 -1.5t-51.5 -3t-23 -1.5z" />
<glyph unicode="S" horiz-adv-x="956" d="M123 111q6 23 10 30l29 60q11 20 28 20q21 0 29 -8q67 -43 136 -62.5t120 -19.5q71 0 123 22.5t81.5 62.5t43.5 89t14 109q0 133 -112 223l-138 108q-182 145 -182 336q0 193 104.5 304.5t292.5 111.5q68 0 124 -21t92.5 -55.5t59.5 -71.5t36 -77q6 -18 6 -35 q0 -22 -33 -33l-47 -20q-15 -6 -29 -6q-23 0 -34 28q-24 61 -72 101.5t-115 40.5q-100 0 -156.5 -64t-56.5 -176q0 -125 119 -221l133 -109q82 -66 130 -155.5t48 -192.5q0 -220 -115.5 -336.5t-334.5 -116.5q-169 0 -316 99q-18 10 -18 35z" />
<glyph unicode="T" horiz-adv-x="856" d="M240 1358l14 78q3 20 11.5 29.5t29.5 9.5h786q21 1 27 -9q4 -6 3 -17q0 -6 -1 -13l-14 -78q-6 -35 -43 -35h-314l-225 -1282q-9 -41 -41 -41h-92q-34 0 -25 41l226 1282h-312q-21 1 -27 9q-4 6 -4 15q0 5 1 11z" />
<glyph unicode="U" horiz-adv-x="1200" d="M248 365q0 71 12 139l162 930q8 41 39 41h94q27 0 27 -27q0 -12 -2 -18l-158 -912q-14 -82 -14 -141q0 -250 219 -250q139 0 222.5 91t119.5 300l159 916q8 41 41 41h93q26 0 26 -27q0 -13 -2 -21l-166 -948q-20 -113 -55.5 -199.5t-93 -157t-147 -108t-206.5 -37.5 q-181 0 -275.5 107.5t-94.5 280.5z" />
<glyph unicode="V" horiz-adv-x="1007" d="M274 1432v6q0 37 35 37h88q20 0 30 -7.5t11 -29.5l66 -1096l14 -236l98 236l451 1090q10 25 24 34t37 9h86q11 0 19 -8t8 -21q0 -12 -6 -27l-567 -1310q-21 -47 -60 -78t-94 -31h-14q-58 0 -89 29.5t-36 79.5z" />
<glyph unicode="W" horiz-adv-x="1466" d="M287 111v10l69 1280q0 23 4 43q3 31 37 31h95q19 0 28 -8t8 -31l-90 -1088l-20 -250l88 242l321 881q25 62 57.5 83t90.5 21h10q50 0 86.5 -23t40.5 -81l6 -951v-164l47 166l322 1164q9 39 55 39h86q31 0 31 -29q-3 -25 -8 -37l-381 -1288q-37 -121 -150 -121h-14 q-124 0 -127 113l-12 934l8 176l-74 -203l-336 -914q-39 -106 -151 -106h-15q-53 0 -82.5 28t-29.5 83z" />
<glyph unicode="X" horiz-adv-x="942" d="M4 23q0 14 8 26l482 733l-189 650q0 2 -1 7.5t-1 8.5q8 27 31 27h94q11 0 16.5 -1t13 -9.5t11.5 -24.5l125 -467l27 -119l73 127l279 459q9 16 22 24.5t21.5 9.5t23.5 1h86q10 0 17.5 -8t7.5 -17q0 -14 -8 -25l-418 -651l221 -725q4 -14 4 -26q0 -8 -8.5 -15.5 t-19.5 -7.5h-97q-16 0 -22.5 1.5t-13 9t-11.5 24.5l-139 500l-41 165l-84 -149l-328 -516q-8 -16 -21.5 -24.5t-23.5 -9.5t-28 -1h-82q-11 0 -19 7.5t-8 15.5z" />
<glyph unicode="Y" d="M274 1448q2 11 10 19t19 8h94q12 0 17.5 -1t12.5 -9.5t11 -24.5l123 -492l23 -100l59 104l301 488q20 35 62 35h92q24 0 24 -27q0 -7 -10 -27l-469 -725l-117 -655q-6 -41 -32 -41h-101q-22 0 -22 25q0 2 1 8.5t1 7.5l116 653l-210 727q-5 10 -5 27z" />
<glyph unicode="Z" horiz-adv-x="978" d="M76 74q0 13 3 26t12 29.5t12.5 23t18.5 28t17 24.5l590 837l203 283l-264 -2h-283q-31 0 -31 29q0 10 6 34l9 50q7 39 39 39h661q36 0 56 -18.5t20 -49.5q0 -32 -10 -54t-39 -63l-625 -891l-184 -252l270 5h348q15 0 24 -7.5t9 -19.5q0 -3 -4 -19l-14 -67q-7 -39 -39 -39 h-725q-34 0 -57 19.5t-23 54.5z" />
<glyph unicode="[" horiz-adv-x="499" d="M119 -160q0 13 4 45l274 1504q7 35 19.5 60t26 38t34.5 19.5t35.5 8t38.5 1.5h158q32 0 32 -23q0 -12 -2 -18l-10 -54q-3 -17 -12.5 -22.5t-32.5 -5.5h-137l-275 -1526h138q18 0 25 -5.5t7 -17.5q0 -16 -2 -22l-8 -45q-3 -18 -12.5 -25.5t-30.5 -7.5h-158 q-51 0 -81.5 19.5t-30.5 76.5z" />
<glyph unicode="\" horiz-adv-x="835" d="M268 1530q0 24 23 24h59q21 0 29 -8t14 -37l338 -1486q2 -6 2 -19q0 -24 -24 -24h-58q-22 0 -30.5 8t-12.5 37l-338 1486q-2 6 -2 19z" />
<glyph unicode="]" horiz-adv-x="499" d="M-18 -233q0 12 2 18l10 53q3 17 13 23t32 6h137l275 1526h-138q-18 0 -25 5t-7 17q0 17 2 23l8 45q3 18 12.5 25.5t30.5 7.5h158q51 0 81.5 -20t30.5 -77q0 -13 -4 -45l-274 -1503q-7 -35 -19.5 -60t-26 -38t-34.5 -19.5t-35.5 -8t-38.5 -1.5h-158q-32 0 -32 23z" />
<glyph unicode="^" horiz-adv-x="968" d="M258 887q0 12 8 28l297 580q17 33 62 33h34q41 0 58 -33l299 -586q6 -9 6 -22q0 -9 -5.5 -17t-12.5 -8h-52q-45 0 -67 41l-244 455l-246 -455q-13 -24 -27 -32.5t-38 -8.5h-51q-10 0 -15.5 7.5t-5.5 17.5z" />
<glyph unicode="_" horiz-adv-x="1089" d="M53 -287q0 9 2 21l8 49q3 16 12.5 25t18.5 10h8h818q26 0 26 -25l-2 -26l-6 -41q-6 -35 -41 -35h-813q-31 0 -31 22z" />
<glyph unicode="`" horiz-adv-x="516" d="M381 1571q0 9 6.5 16.5t20.5 7.5h100q31 0 39 -28l88 -289q2 -8 2 -18q0 -9 -8 -15t-17 -6h-43q-21 0 -31.5 9t-21.5 32l-131 272q-4 8 -4 19z" />
<glyph unicode="a" horiz-adv-x="962" d="M174 379q0 99 14.5 197.5t47.5 193.5t81.5 167t122 116.5t162.5 44.5q73 0 132 -34.5t89 -102.5l27 75q12 39 45 39h61q10 0 19.5 -6.5t9.5 -17.5v-9l-151 -841q-7 -28 -7 -49q0 -41 31 -41h8q30 0 27 -31l-6 -47q-5 -47 -82 -47q-53 2 -90.5 33t-44.5 100 q-90 -142 -234 -142q-262 0 -262 402zM332 401q0 -288 143 -288q53 0 113.5 43.5t105.5 140.5l94 516q-18 75 -60 112.5t-101 37.5q-67 0 -121 -42.5t-85.5 -106t-52.5 -143t-28.5 -146.5t-7.5 -124z" />
<glyph unicode="b" horiz-adv-x="964" d="M170 31q0 6 2 14l258 1436q5 23 13 32.5t26 12.5l76 14l10 2t7 1.5t3 0.5q29 0 29 -28l-98 -545q85 127 231 127q254 0 254 -400q0 -100 -14.5 -198.5t-47.5 -194t-81.5 -167.5t-122 -116.5t-162.5 -44.5q-150 0 -221 136l-27 -76q-16 -37 -47 -37h-55q-12 0 -22.5 7 t-10.5 24zM367 262q18 -74 62 -111.5t103 -37.5q65 0 117.5 42.5t84 107.5t52.5 147.5t29 155.5t8 139q0 46 -5.5 86t-20 81.5t-44.5 66t-73 24.5q-53 0 -113.5 -44t-105.5 -141z" />
<glyph unicode="c" horiz-adv-x="837" d="M174 377q0 110 15.5 211t51.5 195t89 163t134 110.5t181 41.5q230 0 275 -221v-13q-1 -13 -6 -18t-19 -12l-57 -23q-11 -2 -23 -2q-17 0 -24 20q-24 73 -60 103.5t-94 30.5q-66 0 -120 -40.5t-87.5 -103t-56.5 -142t-32 -152.5t-9 -140q0 -128 47 -196t153 -68 q98 0 209 47q12 6 23 6q17 0 24 -24l19 -66q2 -10 2 -18q0 -19 -25 -33q-102 -56 -272 -56q-71 0 -128.5 19.5t-106.5 63t-76 124.5t-27 193z" />
<glyph unicode="d" horiz-adv-x="964" d="M172 379q0 99 14.5 197.5t47.5 193.5t81.5 167t122 116.5t162.5 44.5q68 0 126 -31.5t89 -93.5l90 508q5 22 13.5 32t27.5 13l84 16l10 2q29 0 29 -28l-238 -1315q-6 -24 -6 -49q0 -41 31 -41h8q27 0 27 -31l-6 -47q-5 -47 -82 -47q-53 2 -90.5 33t-44.5 100 q-90 -142 -234 -142q-262 0 -262 402zM330 401q0 -288 143 -288q53 0 113.5 43.5t105.5 140.5l94 516q-18 75 -60 112.5t-101 37.5q-67 0 -121 -42.5t-85.5 -106t-52.5 -143t-28.5 -146.5t-7.5 -124z" />
<glyph unicode="e" horiz-adv-x="888" d="M172 371q0 145 27.5 272t82.5 230.5t148.5 164t214.5 60.5q122 0 202.5 -75.5t80.5 -234.5q0 -97 -35 -245q-8 -30 -18.5 -39.5t-38.5 -9.5h-502q0 -14 -2 -50t-2 -63q0 -125 50 -192.5t132 -67.5q127 0 233 49q8 4 17 4q16 0 22 -18l21 -72q2 -8 2 -21q-2 -17 -25 -30 q-33 -20 -119 -38t-169 -18q-141 0 -231.5 103.5t-90.5 290.5zM356 627h402q22 71 22 159q0 177 -147 177q-193 0 -277 -336z" />
<glyph unicode="f" horiz-adv-x="438" d="M-174 -346q0 8 8 27l27 59q9 18 24 18q9 0 47.5 -13t63.5 -13q45 0 69.5 43t47.5 172l178 991h-88q-33 0 -33 31l14 67q9 39 41 39h90l25 125q32 176 105.5 259t197.5 85q40 0 81 -12t54 -23q13 -10 13 -22q0 -9 -7 -23l-26 -53q-12 -20 -31 -20q-4 0 -22 6 q-21 10 -54 10q-60 0 -94.5 -42.5t-60.5 -174.5l-23 -115h131q33 0 33 -31l-12 -69q-5 -37 -45 -37h-131l-185 -1028q-31 -174 -89.5 -246.5t-172.5 -73.5q-45 0 -96 11.5t-72 29.5q-8 8 -8 23z" />
<glyph unicode="g" horiz-adv-x="962" d="M92 -311l6 20l29 64q7 20 29 20q6 0 18 -6q2 -1 16.5 -8.5t18.5 -9t17.5 -7.5t20 -8t20 -7t24 -6.5t24.5 -4t28 -3.5t30 -1q78 0 126.5 27t84 96.5t59.5 197.5l10 43q-86 -119 -219 -119q-262 0 -262 402q0 99 14.5 197.5t47.5 193.5t81.5 167t122 116.5t162.5 44.5 q73 0 132 -34.5t89 -102.5l27 75q12 39 45 39h61q10 0 19.5 -6.5t9.5 -17.5v-9l-180 -999q-21 -107 -52.5 -186t-69.5 -130t-88.5 -81.5t-105.5 -43t-125 -12.5q-141 0 -251 68q-19 13 -19 31zM330 401q0 -288 143 -288q53 0 113.5 43.5t105.5 140.5l94 516 q-18 75 -60 112.5t-101 37.5q-67 0 -121 -42.5t-85.5 -106t-52.5 -143t-28.5 -146.5t-7.5 -124z" />
<glyph unicode="h" horiz-adv-x="1030" d="M170 31l2 14l258 1436q5 22 13.5 32t27.5 13l84 16l10 2q29 0 29 -28l-98 -545q31 41 70 69t76 39t61.5 15t46.5 4q113 0 177 -77t64 -235q0 -60 -12 -124l-113 -625q-8 -37 -47 -37h-76q-34 0 -34 31q0 6 2 16l116 643q11 57 11 92q0 99 -34.5 141t-98.5 42 q-147 0 -242 -181l-135 -747q-8 -37 -47 -37h-76q-15 0 -25 8t-10 23z" />
<glyph unicode="i" horiz-adv-x="487" d="M170 31q0 6 2 16l178 989q6 39 51 39h76q14 0 22.5 -9.5t8.5 -23.5q0 -1 -1 -8t-1 -8l-178 -989q-8 -37 -47 -37h-76q-15 0 -25 8t-10 23zM371 1292q0 42 30 69.5t72 27.5q49 0 78 -27t29 -70q0 -42 -29 -69t-78 -27q-42 0 -72 27.5t-30 68.5z" />
<glyph unicode="j" horiz-adv-x="428" d="M-180 -350q0 12 8 28l22 54q11 22 31 22q6 0 35 -11t61 -11q42 0 67 36.5t42 129.5l207 1140q6 37 45 37h80q33 0 33 -33l-2 -14l-203 -1132q-11 -59 -23.5 -102t-33.5 -83.5t-49 -65.5t-69.5 -40t-95.5 -15q-65 0 -127 29q-28 14 -28 31zM305 1292q0 42 30.5 69.5 t72.5 27.5q49 0 77.5 -27t28.5 -70q0 -42 -28.5 -69t-77.5 -27q-42 0 -72.5 27.5t-30.5 68.5z" />
<glyph unicode="k" horiz-adv-x="872" d="M170 31l2 14l258 1436q5 22 13.5 32t27.5 13l84 16l10 2q29 0 29 -28l-150 -824h127l250 350q23 33 51 33h107q11 0 19 -6t8 -16q0 -17 -9 -31l-311 -412l166 -563q4 -8 4 -18q0 -12 -9 -20.5t-22 -8.5h-94q-34 0 -43 29l-143 528h-125l-92 -520q-8 -37 -47 -37h-76 q-15 0 -25 8t-10 23z" />
<glyph unicode="l" horiz-adv-x="491" d="M170 31l2 14l258 1436q5 22 13.5 32t27.5 13l84 16l10 2q29 0 29 -28l-266 -1479q-8 -37 -47 -37h-76q-15 0 -25 8t-10 23z" />
<glyph unicode="m" horiz-adv-x="1523" d="M170 31q0 6 2 16l178 989q3 18 14.5 28.5t26.5 10.5h62q26 0 26 -45v-82q31 49 71.5 81.5t80 46t65 18t49.5 4.5q78 0 134 -43t82 -125q33 52 73.5 88t79 52t67.5 22t56 6q130 0 190 -86t60 -226q0 -60 -12 -124l-113 -625q-8 -37 -47 -37h-76q-15 0 -25 8t-10 23 q0 6 2 16l117 643q10 52 10 96q0 89 -37 134t-96 45q-132 0 -221 -146q2 -10 2 -33q0 -60 -12 -124l-113 -625q-8 -37 -47 -37h-76q-15 0 -25 8t-10 23q0 6 2 16l117 643q10 52 10 94q0 181 -133 181q-140 0 -233 -185l-133 -743q-7 -37 -41 -37h-86q-11 0 -21 7.5t-10 23.5 z" />
<glyph unicode="n" horiz-adv-x="1028" d="M170 31q0 6 2 16l178 989q3 18 14.5 28.5t26.5 10.5h62q26 0 26 -45v-82q31 49 71.5 81.5t80 46t65 18t49.5 4.5q114 0 180 -76.5t66 -233.5q0 -62 -12 -126l-113 -625q-8 -37 -47 -37h-76q-34 0 -34 31q0 6 2 16l116 643q11 57 11 92q0 183 -136 183q-148 0 -241 -185 l-133 -743q-7 -37 -41 -37h-86q-11 0 -21 7.5t-10 23.5z" />
<glyph unicode="o" horiz-adv-x="915" d="M168 369q0 159 29.5 290.5t87.5 230.5t152 153.5t216 54.5q136 0 210.5 -101.5t74.5 -289.5q0 -344 -126 -537t-359 -193q-136 0 -210.5 102t-74.5 290zM326 401q0 -40 1 -67t5.5 -64.5t14.5 -62.5t25.5 -48.5t41.5 -35.5t61 -12q73 0 132.5 49t96.5 129.5t56.5 178 t19.5 200.5q0 70 -5 117t-20 91.5t-47 66.5t-81 22q-64 0 -116.5 -38.5t-86 -99t-56.5 -137t-32.5 -149.5t-9.5 -140z" />
<glyph unicode="p" horiz-adv-x="966" d="M98 -381q0 6 2 16l254 1401q8 39 43 39h47q18 0 26.5 -12t8.5 -25l6 -92q56 88 115.5 120t134.5 32q250 0 250 -410q0 -197 -52 -359t-148 -257t-216 -95q-161 0 -225 134l-88 -484q-3 -18 -15.5 -27.5t-27.5 -9.5h-80q-17 0 -26 8.5t-9 20.5zM371 262q41 -149 166 -149 q92 0 160 88t99 214t31 265q0 281 -137 281q-139 0 -225 -185z" />
<glyph unicode="q" horiz-adv-x="960" d="M172 379q0 99 14.5 197.5t47.5 193.5t81.5 167t122 116.5t162.5 44.5q71 0 123 -26.5t96 -102.5l25 63q15 43 51 43h55q13 0 22 -9.5t9 -21.5q0 -1 -1 -7t-1 -7l-254 -1403q-3 -17 -15.5 -27t-29.5 -10h-82q-12 0 -21.5 9t-9.5 22v6l88 473q-87 -123 -221 -123 q-262 0 -262 402zM330 401q0 -288 143 -288q53 0 113.5 43.5t105.5 140.5l94 516q-18 75 -60 112.5t-101 37.5q-67 0 -121 -42.5t-85.5 -106t-52.5 -143t-28.5 -146.5t-7.5 -124z" />
<glyph unicode="r" horiz-adv-x="614" d="M170 29q0 6 2 18l178 989q3 20 15 29.5t26 9.5h47q39 0 39 -49l4 -100q94 155 211 155q52 0 84 -14q21 -11 21 -29q0 -12 -9 -30l-26 -64q-12 -26 -35 -26q-6 0 -26.5 6t-36.5 6q-130 0 -209 -174l-127 -719q-7 -37 -43 -37h-84q-11 0 -21 8t-10 21z" />
<glyph unicode="s" horiz-adv-x="804" d="M123 78q0 6 4 22l29 66q5 11 10.5 16t9 5.5t10.5 0.5t19 -6q120 -63 215 -63q78 0 133 45t55 139q0 48 -25.5 83.5t-80.5 70.5l-103 65q-72 47 -117.5 108t-45.5 150q0 69 19.5 124.5t51.5 91t75.5 59t89 33.5t93.5 10q94 0 165.5 -46.5t100.5 -144.5q3 -12 3 -18 q0 -18 -23 -31l-53 -27q-9 -6 -25 -6q-17 0 -31 27q-27 52 -59.5 80.5t-83.5 28.5q-65 0 -113.5 -40.5t-48.5 -123.5q0 -52 20 -80t70 -64l95 -67q82 -56 131 -120.5t49 -156.5q0 -88 -30 -154t-82 -104t-114 -56t-133 -18q-55 0 -135 21t-125 51q-20 11 -20 29z" />
<glyph unicode="t" horiz-adv-x="589" d="M190 188q0 39 7 86l118 664h-71q-33 0 -33 31l14 67q9 39 41 39h74l33 187q5 24 11 32t30 15l80 24q8 4 16 4q12 0 19.5 -8.5t7.5 -21.5l-41 -232h155q33 0 33 -31l-12 -69q-5 -37 -45 -37h-156l-115 -659q-6 -41 -6 -74q0 -37 13 -56.5t47 -19.5q40 0 100 25q12 4 20 4 q20 0 25 -21l20 -65q3 -9 3 -17q0 -24 -29 -37q-80 -41 -178 -41q-81 0 -131 55t-50 156z" />
<glyph unicode="u" horiz-adv-x="1005" d="M203 287q0 61 10 116l115 635q7 37 47 37h78q32 0 32 -37l-114 -630q-13 -73 -13 -132q0 -42 8.5 -75.5t37 -60.5t75.5 -27q77 0 139.5 41.5t114.5 146.5l133 737q8 37 45 37h84q29 0 29 -28v-9l-180 -1001q-8 -37 -45 -37h-47q-16 0 -24.5 10.5t-8.5 22.5l-4 96 q-37 -58 -109 -105t-164 -47q-239 0 -239 310z" />
<glyph unicode="v" horiz-adv-x="733" d="M184 1040q3 35 27 35h98q29 0 29 -39l16 -655v-270l123 260l117 237q80 159 106.5 229t26.5 136q0 15 -1 36t-1 29q0 37 29 37h82q30 0 36 -39q5 -35 5 -63q0 -79 -27 -162.5t-94 -212.5l-258 -502q-58 -96 -154 -96h-12q-17 0 -33 4t-35.5 14.5t-32.5 35t-14 59.5z" />
<glyph unicode="w" horiz-adv-x="1179" d="M205 1040q3 35 26 35h99q28 0 28 -39v-655v-270l123 260l191 344l-4 325q3 35 26 35h99q28 0 28 -39l-8 -655v-270l109 260l110 237q71 148 95 221.5t24 143.5q0 15 -1 36t-1 29q0 37 29 37h82q30 0 36 -39q4 -28 4 -63q0 -81 -25.5 -165.5t-90.5 -209.5l-234 -502 q-58 -96 -147 -96h-12q-16 0 -32 4t-34.5 14.5t-31 35t-13.5 59.5l-4 336l-68 -134l-110 -219q-31 -51 -65.5 -73.5t-80.5 -22.5h-12q-17 0 -33.5 4t-37 14.5t-34 35t-14.5 59.5z" />
<glyph unicode="x" horiz-adv-x="774" d="M78 78q0 90 43.5 174t134.5 188l127 146l-145 434q-7 18 -7 24q0 13 9.5 22t21.5 9h82q22 0 34 -10.5t21 -36.5l84 -246l47 -139l103 154q57 85 57 180q0 13 -2 35t-2 28q0 35 31 35h90q14 0 21.5 -7.5t11.5 -25.5q6 -21 6 -51q0 -87 -25 -152.5t-88 -150.5l-151 -201 l149 -436q6 -12 6 -24q0 -13 -10.5 -20t-24.5 -7h-73q-27 0 -39.5 7.5t-18.5 25.5l-96 282l-41 123l-86 -102q-72 -85 -96.5 -140.5t-24.5 -111.5q0 -7 2 -25t2 -24q0 -35 -30 -35h-76q-37 0 -43 29q-4 16 -4 49z" />
<glyph unicode="y" horiz-adv-x="669" d="M-102 -354q0 14 6 26l28 62q10 24 33 24q4 0 38.5 -12t70.5 -12q92 0 164 164l45 102q-91 9 -103 113l-108 927q3 35 26 35h101q15 0 22 -7t10 -30l68 -657l20 -270l107 260l94 239q61 158 81 227.5t20 135.5q0 15 -1.5 36t-1.5 29q0 37 29 37h84q31 0 37 -39 q4 -28 4 -63q0 -79 -17.5 -144.5t-82.5 -230.5l-277 -707q-66 -170 -144 -235.5t-190 -65.5q-95 0 -149 33q-14 8 -14 23z" />
<glyph unicode="z" horiz-adv-x="780" d="M92 78q0 58 51 127l449 629l76 104h-107h-274q-11 0 -18 7.5t-7 19.5v8l10 69q6 33 37 33h467q80 0 80 -71q0 -27 -11 -55.5t-22.5 -46t-34.5 -50.5l-413 -582l-94 -133h118h310q20 0 20 -20q0 -2 -1 -7t-1 -8l-10 -67q-3 -35 -27 -35h-512q-37 0 -61.5 20.5t-24.5 57.5z " />
<glyph unicode="{" horiz-adv-x="534" d="M166 586v10l12 57q6 39 47 39q17 0 30.5 2.5t23 5.5t16.5 11t11 12.5t7 17t4.5 18.5t3.5 23t3 23l61 356q16 92 38.5 156.5t49 103.5t66 60.5t80.5 29t100 7.5h31q26 0 26 -25q0 -2 -1 -5t-1 -5l-10 -53q-3 -18 -11.5 -26.5t-27.5 -8.5h-14q-40 0 -67.5 -9.5t-45 -24.5 t-30.5 -47.5t-20.5 -63t-17.5 -87.5l-63 -368q-25 -152 -160 -181q103 -23 103 -131q0 -17 -4 -49l-66 -368q-12 -66 -12 -107q0 -23 3 -38t13 -32.5t34 -26.5t62 -9h15q28 0 28 -23q0 -2 -1 -6t-1 -6l-10 -54q-7 -34 -37 -34h-31q-115 0 -169 60t-54 163q0 50 13 117 l67 374q6 36 6 45q0 38 -11.5 52t-55.5 14q-33 0 -33 31z" />
<glyph unicode="|" horiz-adv-x="641" d="M354 0v1536q0 41 33 41h55q18 0 25.5 -9.5t7.5 -31.5v-1536q0 -22 -7.5 -31.5t-25.5 -9.5h-55q-33 0 -33 41z" />
<glyph unicode="}" horiz-adv-x="534" d="M-23 -246q0 2 1.5 5t1.5 5l10 54q3 18 11.5 26.5t27.5 8.5h14q28 0 50 5t38.5 12t29 23t21 31.5t16.5 43.5t13 51.5t12 64.5l64 369q25 152 159 180q-102 23 -102 131q0 17 4 49l66 369q12 66 12 106q0 23 -3 38.5t-13.5 33t-34.5 26.5t-62 9h-14q-29 0 -29 22q0 2 1 6.5 t1 6.5l11 53q7 35 36 35h31q114 0 168.5 -60.5t54.5 -163.5q0 -54 -12 -116l-67 -375q-7 -42 -7 -45q0 -38 12 -52t56 -14q33 0 33 -30v-11l-13 -57q-6 -39 -47 -39q-20 0 -34.5 -2t-24.5 -9.5t-16 -11.5t-10 -18.5t-5.5 -19.5t-4 -25.5t-3.5 -26.5l-61 -356 q-20 -115 -48 -186.5t-71.5 -108.5t-91.5 -49t-123 -12h-31q-27 0 -27 24z" />
<glyph unicode="~" horiz-adv-x="837" d="M203 555q0 92 57.5 149.5t142.5 57.5q43 0 97.5 -24.5t102.5 -49t75 -24.5q58 0 78 77q8 31 35 31h53q20 0 20 -31q0 -94 -59 -150t-137 -56q-49 0 -150.5 49t-128.5 49q-59 0 -78 -80q-3 -12 -13.5 -20.5t-21.5 -8.5h-51q-9 0 -15.5 9t-6.5 22z" />
<glyph unicode="&#xa1;" horiz-adv-x="546" d="M129 -416q0 15 4 27l215 1096q5 36 41 36h68q26 0 26 -28q0 -11 -2 -23l-168 -1091q-6 -41 -41 -41h-118q-25 0 -25 24zM344 975q0 59 34 94t83 35q44 0 69 -27t25 -80t-30 -90t-85 -37q-44 0 -69 27.5t-27 77.5z" />
<glyph unicode="&#xa2;" horiz-adv-x="794" d="M129 377q0 107 14.5 205.5t48 190.5t83 160.5t125 112.5t169.5 50l35 182q6 41 41 41h55q29 0 29 -29v-12l-37 -193q146 -38 182 -208v-13q-1 -13 -6 -18t-18 -12l-57 -23q-11 -2 -23 -2q-18 0 -25 20q-25 73 -60 103.5t-93 30.5q-66 0 -120 -40.5t-87.5 -103t-56.5 -142 t-32 -152.5t-9 -140q0 -128 47 -196t153 -68q98 0 209 47q12 6 23 6q17 0 24 -24l19 -66q2 -10 2 -18q0 -19 -25 -33q-84 -45 -225 -53l-27 -154q-5 -22 -14 -31.5t-27 -9.5h-53q-31 0 -31 27q0 5 3 14l26 158q-262 42 -262 393z" />
<glyph unicode="&#xa3;" horiz-adv-x="813" d="M47 29q0 8 2 16l10 55q6 39 45 60q131 84 175 321l8 49h-86q-25 0 -25 21q0 2 1 7t1 7l6 47q6 39 37 39h84l25 140h-86q-25 0 -25 20q0 8 2 14l8 47q2 20 8.5 29.5t24.5 9.5h86l35 201q40 234 133.5 338t249.5 104q118 0 184 -59q13 -10 13 -22l-9 -23l-32 -61 q-13 -23 -25 -23q-13 0 -27 8q-63 35 -108 35q-92 0 -142.5 -79.5t-84.5 -252.5l-33 -166h258q20 0 20 -20q0 -2 -1 -9t-1 -10l-8 -47q-3 -19 -9.5 -26.5t-23.5 -7.5h-254l-24 -140h260q18 0 18 -14q0 -15 -2 -25l-8 -47q-6 -35 -31 -35h-260l-18 -96q-34 -176 -178 -282 h538q25 0 25 -25q0 -6 -2 -10l-13 -78q-2 -20 -7 -29.5t-21 -9.5h-684q-13 0 -21 9t-8 20z" />
<glyph unicode="&#xa5;" horiz-adv-x="894" d="M238 432q0 2 1 7t1 7l6 48q6 38 37 38h186l25 140h-189q-24 0 -24 20q0 9 2 15l8 47q2 20 8.5 29.5t24.5 9.5h145l-182 628q-4 8 -4 27q4 27 28 27h95q12 0 17.5 -1t12 -9t10.5 -25l123 -492l23 -100l59 104l301 488q20 35 62 35h92q24 0 24 -27q0 -7 -10 -27l-407 -628 h139q20 0 20 -21q0 -2 -1 -8.5t-1 -9.5l-8 -47q-3 -19 -9.5 -27t-23.5 -8h-182l-26 -140h190q18 0 18 -20q0 -10 -2 -18l-8 -48q-3 -18 -10 -26t-21 -8h-188l-65 -371q-6 -41 -33 -41h-101q-22 0 -22 25q0 2 1 8.5t1 7.5l65 371h-184q-24 0 -24 20z" />
<glyph unicode="&#xa6;" horiz-adv-x="641" d="M354 0v510q0 41 33 41h55q18 0 25.5 -9.5t7.5 -31.5v-510q0 -22 -7.5 -31.5t-25.5 -9.5h-55q-33 0 -33 41zM354 1026v510q0 41 33 41h55q18 0 25.5 -9.5t7.5 -31.5v-510q0 -22 -7.5 -31.5t-25.5 -9.5h-55q-33 0 -33 41z" />
<glyph unicode="&#xa7;" horiz-adv-x="759" d="M78 80q0 11 8 31l25 57q8 20 24 20q11 0 19 -4q6 -3 28 -13t31 -13.5t29.5 -11.5t34.5 -12t33 -8.5t37.5 -6.5t37.5 -2q201 0 201 190q0 91 -127 158l-82 43q-79 36 -125.5 97.5t-46.5 146.5q0 99 54.5 166t143.5 102q-31 24 -51.5 47t-39.5 66t-19 94q0 160 91.5 241.5 t254.5 81.5q96 0 171.5 -53t98.5 -156v-8q-2 -10 -24 -24l-60 -25q-15 -6 -22 -6q-23 0 -35 29q-47 110 -145 110q-75 0 -121.5 -47t-46.5 -123q0 -91 106 -147l80 -45q91 -52 140.5 -111t49.5 -147t-45 -149.5t-139 -110.5q96 -85 96 -209q0 -166 -93.5 -258.5 t-274.5 -92.5q-166 0 -285 80q-12 6 -12 23zM365 778q0 -83 102 -137q74 -37 76 -37q57 18 93 64.5t36 95.5q0 98 -119 158l-66 32q-57 -22 -89.5 -69.5t-32.5 -106.5z" />
<glyph unicode="&#xa8;" horiz-adv-x="735" d="M338 1327q0 40 32 67t76 27q37 0 64 -24t27 -62q0 -48 -31.5 -73t-75.5 -25q-40 0 -66 24t-26 66zM668 1327q0 40 32 67t76 27q37 0 63.5 -24t26.5 -62q0 -48 -31 -73t-75 -25q-40 0 -66 24t-26 66z" />
<glyph unicode="&#xa9;" horiz-adv-x="1454" d="M231 772q0 173 33.5 309t90.5 224t139 145.5t173.5 81.5t198.5 24q108 0 200 -25.5t172 -84.5t135.5 -148t87.5 -222.5t32 -301.5q0 -176 -32 -313t-87 -227t-135 -148.5t-171 -83.5t-200 -25t-200.5 23.5t-174 80.5t-139 146t-90 227.5t-33.5 317.5zM352 770 q0 -187 35.5 -321.5t104 -214t160.5 -116t214 -36.5q95 0 171.5 22.5t140.5 74t106.5 130.5t66 196.5t23.5 268.5q0 343 -126.5 510.5t-383.5 167.5q-512 0 -512 -682zM539 780q0 86 11 157.5t35 132t61.5 102t92.5 65t125 23.5q95 0 155 -40t93 -130q2 -4 2 -13 q0 -17 -22 -28l-29 -13q-15 -6 -27 -6q-18 0 -26 14q-35 59 -65.5 83t-90.5 24q-56 0 -95.5 -35t-58.5 -94.5t-26.5 -118t-7.5 -125.5q0 -375 219 -375q70 0 166 46q12 4 16 4q16 0 23 -17l20 -53q2 -4 2 -12q0 -14 -16 -25q-85 -55 -224 -55q-90 0 -157 42.5t-104 114.5 t-54.5 155t-17.5 177z" />
<glyph unicode="&#xaa;" horiz-adv-x="606" d="M233 1126q0 76 16 151t47.5 140t85 105.5t120.5 40.5q44 0 82.5 -21.5t56.5 -62.5l16 47q6 22 27 22h45q19 0 19 -14v-6l-93 -510q-4 -8 -4 -29q0 -26 19 -26h6q16 0 16 -19l-4 -29q-4 -28 -51 -28q-33 2 -59.5 21t-30.5 61q-55 -86 -146 -86q-85 0 -126.5 65.5 t-41.5 177.5zM342 1141q0 -164 88 -164q33 0 69.5 28.5t63.5 88.5l51 274q-11 48 -35 74t-59 26q-50 0 -87 -35.5t-55.5 -90t-27 -105.5t-8.5 -96z" />
<glyph unicode="&#xab;" horiz-adv-x="841" d="M190 508q0 30 29 67l199 267q16 23 28.5 32t34.5 9h62q7 0 12.5 -5.5t5.5 -13.5q0 -12 -8 -26l-213 -328l96 -334q4 -16 4 -24q0 -19 -22 -19h-51q-20 0 -29 8.5t-19 32.5l-120 299q-9 21 -9 35zM518 508q0 30 29 67l198 267q16 23 29 32t35 9h61q8 0 13.5 -5.5 t5.5 -13.5q0 -12 -8 -26l-213 -328l96 -334q4 -16 4 -24q0 -19 -23 -19h-51q-20 0 -28.5 8.5t-18.5 32.5l-121 299q-8 19 -8 35z" />
<glyph unicode="&#xac;" horiz-adv-x="991" d="M258 821v58q0 39 27 39h559q70 0 99.5 -32t29.5 -98v-301q0 -41 -29 -41h-70q-26 0 -26 41v299h-561q-17 0 -23 8.5t-6 26.5z" />
<glyph unicode="&#xad;" horiz-adv-x="692" d="M201 545q0 8 2 20l8 49q3 16 12.5 25t18.5 9l8 1h420q26 0 26 -24l-2 -27l-6 -41q-6 -35 -41 -35h-416q-30 0 -30 23z" />
<glyph unicode="&#xae;" horiz-adv-x="1454" d="M231 772q0 173 33.5 309t90.5 224t139 145.5t173.5 81.5t198.5 24q108 0 200 -25.5t172 -84.5t135.5 -148t87.5 -222.5t32 -301.5q0 -176 -32 -313t-87 -227t-135 -148.5t-171 -83.5t-200 -25t-200.5 23.5t-174 80.5t-139 146t-90 227.5t-33.5 317.5zM352 770 q0 -187 35.5 -321.5t104 -214t160.5 -116t214 -36.5q95 0 172 23t140.5 74.5t106 131t66 196.5t23.5 267q0 332 -128 505t-382 173q-512 0 -512 -682zM588 324v893q0 27 20 30q43 8 170 8q78 0 136.5 -12.5t106 -42t74.5 -82.5t33 -129q4 -58 -8 -102t-40.5 -73t-61 -47.5 t-78.5 -33.5l248 -401q6 -9 6 -19q0 -16 -18 -16h-76q-18 0 -26 4t-17 18l-234 390h-121v-385q0 -27 -22 -27h-72q-20 0 -20 27zM702 815q20 -2 93 -2q102 0 155.5 44t53.5 130q0 89 -55.5 125.5t-166.5 36.5l-80 -4v-330z" />
<glyph unicode="&#xaf;" horiz-adv-x="694" d="M328 1272q0 2 1 6.5t1 7.5l8 49q3 26 14 35.5t41 9.5h391q27 0 36 -5.5t9 -22.5q0 -2 -1 -8t-1 -9l-8 -49q-4 -27 -18.5 -37t-46.5 -10h-379q-47 0 -47 33z" />
<glyph unicode="&#xb0;" horiz-adv-x="555" d="M344 1348q0 95 48.5 150.5t121.5 55.5q75 0 123.5 -54t48.5 -152t-48.5 -152.5t-123.5 -54.5q-74 0 -122 54.5t-48 152.5zM442 1346q0 -101 74 -101q72 0 72 101q0 104 -72 104q-74 0 -74 -104z" />
<glyph unicode="&#xb1;" horiz-adv-x="1017" d="M244 76v53q0 21 5.5 30t22.5 9h627q29 0 29 -39v-53q0 -18 -6.5 -26.5t-24.5 -8.5h-625q-16 0 -22 8.5t-6 26.5zM244 737v54q0 21 6 29.5t26 8.5h250v340q0 41 31 41h57q18 0 25.5 -9.5t7.5 -31.5v-340h248q20 0 26.5 -8.5t6.5 -29.5v-54q0 -19 -7 -27t-28 -8h-246v-342 q0 -22 -7.5 -31.5t-25.5 -9.5h-57q-31 0 -31 41v342h-247q-21 0 -28 8t-7 27z" />
<glyph unicode="&#xb4;" horiz-adv-x="536" d="M328 1260q0 9 10 22l186 285q17 28 49 28h111q27 0 27 -24q0 -13 -11 -27l-225 -264q-21 -24 -33 -32.5t-32 -8.5h-66q-20 0 -16 21z" />
<glyph unicode="&#xb5;" horiz-adv-x="1026" d="M104 -342q0 10 2 14l242 1366q7 37 47 37h78q33 0 33 -28v-9l-115 -630q-12 -68 -12 -132q0 -42 8.5 -75.5t37 -60.5t75.5 -27q77 0 139.5 41.5t114.5 146.5l133 737q8 37 45 37h84q28 0 28 -28v-9l-180 -1001q-8 -37 -45 -37h-47q-16 0 -24.5 10.5t-8.5 22.5l-4 96 q-37 -58 -108.5 -105t-163.5 -47q-103 0 -144 78l-67 -393q-2 -10 -11.5 -20.5t-21.5 -10.5h-90q-25 0 -25 27z" />
<glyph unicode="&#xb6;" horiz-adv-x="915" d="M135 1120q0 172 104.5 284t290.5 112h316q14 0 23.5 -0.5t23 -2t21.5 -5t18 -9.5t15 -15.5t8.5 -22.5t3 -31t-4.5 -41l-284 -1620q-8 -41 -43 -41h-80q-35 0 -27 41l283 1609h-158l-283 -1609q-8 -41 -43 -41h-77q-35 0 -27 41l184 1052q-126 0 -195 79.5t-69 219.5z" />
<glyph unicode="&#xb7;" horiz-adv-x="409" d="M219 641q-1 55 30.5 88t80.5 33q43 0 67.5 -30.5t24.5 -84.5q0 -53 -31.5 -82.5t-77.5 -29.5q-42 0 -67 29t-27 77z" />
<glyph unicode="&#xb8;" horiz-adv-x="548" d="M29 -422q0 12 4 16l14 33q9 19 23 19q2 0 38 -10.5t64 -10.5q40 0 67 21.5t27 62.5q0 64 -98 80q-22 5 -31.5 14t-9.5 27l2 12l43 158h113l-29 -106q63 -18 100 -62.5t37 -112.5q0 -91 -65 -140.5t-170 -49.5q-48 0 -109 22q-18 7 -20 27z" />
<glyph unicode="&#xba;" horiz-adv-x="534" d="M233 1139q3 199 80 311.5t215 112.5q89 0 137 -72t46 -180q-2 -90 -18 -164.5t-48 -135.5t-88 -95.5t-131 -34.5q-95 0 -145 72t-48 186zM342 1149q-3 -176 88 -176q45 0 78.5 28t52.5 77t29 104.5t12 120.5q5 167 -90 167q-74 0 -120.5 -87t-49.5 -234z" />
<glyph unicode="&#xbb;" horiz-adv-x="841" d="M131 152q0 12 8 26l213 328l-96 334q-4 16 -4 24q0 19 22 19h52q20 0 28.5 -8.5t18.5 -32.5l121 -299q8 -19 8 -35q0 -31 -29 -68l-199 -266q-16 -23 -28.5 -32t-34.5 -9h-61q-8 0 -13.5 5.5t-5.5 13.5zM459 152q0 12 8 26l213 328l-96 334q-4 16 -4 24q0 19 22 19h51 q20 0 28.5 -8.5t18.5 -32.5l121 -299q8 -19 8 -35q0 -32 -28 -68l-199 -266q-16 -23 -28.5 -32t-34.5 -9h-62q-7 0 -12.5 5.5t-5.5 13.5z" />
<glyph unicode="&#xbf;" horiz-adv-x="651" d="M25 -162q0 66 18 131t42 114.5t69.5 111.5t78.5 100.5t91 101.5q63 77 88 121.5t37 104.5l16 84q5 36 35 36h96q27 0 27 -26v-10q-9 -52 -15 -91q-14 -79 -53 -151t-121 -160q-55 -58 -87.5 -96t-75 -98.5t-63 -122t-20.5 -125.5q0 -79 32.5 -118.5t109.5 -39.5 q70 0 123.5 39.5t95.5 126.5q15 31 39 31q8 0 16 -4l55 -25q23 -8 23 -29q0 -14 -10 -34q-58 -129 -144.5 -189.5t-218.5 -60.5q-134 0 -209 72.5t-75 205.5zM475 979q0 59 34 94t83 35q44 0 69 -27t25 -80t-30 -90t-85 -37q-44 0 -69 27.5t-27 77.5z" />
<glyph unicode="&#xc0;" horiz-adv-x="1046" d="M29 29q0 8 6 20l561 1323q24 56 55 84.5t90 28.5h11q61 0 92.5 -31.5t36.5 -75.5l149 -1327v-22q-7 -29 -31 -29h-90q-22 0 -31 9.5t-12 35.5l-35 361h-485l-149 -363q-12 -26 -23.5 -34.5t-34.5 -8.5h-88q-12 0 -18.5 8.5t-3.5 20.5zM410 549h403l-59 627l-15 170 l-67 -172zM528 1970q0 9 6.5 17t20.5 8h100q31 0 39 -29l88 -289q2 -8 2 -18q0 -9 -7.5 -15t-16.5 -6h-43q-21 0 -31.5 9t-21.5 32l-132 273q-4 8 -4 18z" />
<glyph unicode="&#xc1;" horiz-adv-x="1087" d="M29 29q0 8 6 20l561 1323q24 56 55 84.5t90 28.5h11q61 0 92.5 -31.5t36.5 -75.5l149 -1327v-22q-7 -29 -31 -29h-90q-22 0 -31 9.5t-12 35.5l-35 361h-485l-149 -363q-12 -26 -23.5 -34.5t-34.5 -8.5h-88q-12 0 -18.5 8.5t-3.5 20.5zM410 549h403l-59 627l-15 170 l-67 -172zM729 1659q0 9 10 22l187 285q18 29 49 29h110q27 0 27 -25q0 -14 -10 -26l-225 -265q-21 -24 -33.5 -32.5t-32.5 -8.5h-66q-19 0 -16 21z" />
<glyph unicode="&#xc2;" horiz-adv-x="1046" d="M29 29q0 8 6 20l561 1323q24 56 55 84.5t90 28.5h11q61 0 92.5 -31.5t36.5 -75.5l149 -1327v-22q-7 -29 -31 -29h-90q-22 0 -31 9.5t-12 35.5l-35 361h-485l-149 -363q-12 -26 -23.5 -34.5t-34.5 -8.5h-88q-12 0 -18.5 8.5t-3.5 20.5zM410 549h403l-59 627l-15 170 l-67 -172zM477 1655q0 14 10 26l226 285q23 29 55 29h78q31 0 41 -29l127 -287q2 -8 2 -20q-4 -21 -25 -21h-35q-21 0 -32.5 6.5t-22.5 24.5l-108 191l-177 -191q-18 -19 -33 -25t-38 -6h-49q-8 0 -13.5 5t-5.5 12z" />
<glyph unicode="&#xc3;" horiz-adv-x="1038" d="M29 29q0 8 6 20l561 1323q24 56 55 84.5t90 28.5h11q61 0 92.5 -31.5t36.5 -75.5l149 -1327v-22q-7 -29 -31 -29h-90q-22 0 -31 9.5t-12 35.5l-35 361h-485l-149 -363q-12 -26 -23.5 -34.5t-34.5 -8.5h-88q-12 0 -18.5 8.5t-3.5 20.5zM410 549h403l-59 627l-15 170 l-67 -172zM444 1665q0 82 51.5 146.5t141.5 64.5q44 0 85.5 -23t75 -46t58.5 -23q51 0 74 71q10 31 31 31h57q26 0 26 -31q0 -80 -54.5 -141t-131.5 -61q-45 0 -91 23.5t-82.5 47t-59.5 23.5q-25 0 -42 -17.5t-30 -62.5q-10 -29 -35 -29h-49q-9 0 -17 8t-8 19z" />
<glyph unicode="&#xc4;" horiz-adv-x="1046" d="M29 29q0 8 6 20l561 1323q24 56 55 84.5t90 28.5h11q61 0 92.5 -31.5t36.5 -75.5l149 -1327v-22q-7 -29 -31 -29h-90q-22 0 -31 9.5t-12 35.5l-35 361h-485l-149 -363q-12 -26 -23.5 -34.5t-34.5 -8.5h-88q-12 0 -18.5 8.5t-3.5 20.5zM410 549h403l-59 627l-15 170 l-67 -172zM498 1726q0 40 32 67.5t76 27.5q37 0 63.5 -24t26.5 -62q0 -48 -31 -73.5t-75 -25.5q-40 0 -66 24t-26 66zM827 1726q0 40 32.5 67.5t76.5 27.5q37 0 63.5 -24t26.5 -62q0 -48 -31 -73.5t-75 -25.5q-40 0 -66.5 24.5t-26.5 65.5z" />
<glyph unicode="&#xc5;" horiz-adv-x="1046" d="M29 29q0 8 6 20l561 1323q24 56 55 84.5t90 28.5h11q61 0 92.5 -31.5t36.5 -75.5l149 -1327v-22q-7 -29 -31 -29h-90q-22 0 -31 9.5t-12 35.5l-35 361h-485l-149 -363q-12 -26 -23.5 -34.5t-34.5 -8.5h-88q-12 0 -18.5 8.5t-3.5 20.5zM410 549h403l-59 627l-15 170 l-67 -172zM635 1794q0 92 52 156.5t142 64.5q60 0 99 -43t39 -117q0 -84 -50.5 -150.5t-140.5 -66.5q-60 0 -100.5 42.5t-40.5 113.5zM733 1798q0 -65 53 -65q37 0 59.5 30.5t22.5 81.5q0 41 -12.5 58.5t-38.5 17.5q-40 0 -62 -35t-22 -88z" />
<glyph unicode="&#xc6;" horiz-adv-x="1464" d="M25 20q0 15 12 35l831 1334q28 44 56.5 65t76.5 21h598q35 0 35 -33v-10l-14 -74q-6 -35 -45 -35h-442l-80 -459h358q35 0 35 -20v-6l-16 -84q-7 -39 -48 -39h-356l-100 -563h473q35 0 35 -27q0 -7 -2 -21l-13 -65q-7 -39 -43 -39h-473q-33 0 -61 8t-52 38t-24 79 q0 1 6 49l41 232h-373l-221 -365q-16 -26 -30.5 -33.5t-38.5 -7.5h-101q-24 0 -24 20zM528 549h312l82 477l51 260l-129 -221z" />
<glyph unicode="&#xc7;" horiz-adv-x="1013" d="M199 522q0 82 9 169t31 183.5t54.5 184.5t83.5 169t114.5 140t151 94t188.5 35q275 0 332 -272q0 -2 1 -8.5t1 -8.5q0 -25 -30 -34l-56 -19q-21 -6 -35 -6q-19 0 -28 29q-17 54 -41 90t-54 52.5t-55 22t-57 5.5q-91 0 -168 -59.5t-126.5 -150.5t-84.5 -203.5t-50 -214.5 t-15 -188q0 -83 13.5 -152t43.5 -126.5t83 -90t126 -32.5q136 0 284 76q10 6 25 6q22 0 29 -25l20 -63q4 -16 4 -25q0 -26 -32 -43q-117 -69 -314 -77l-22 -86q63 -18 100 -62.5t37 -112.5q0 -91 -65.5 -140.5t-170.5 -49.5q-47 0 -108 22q-19 8 -21 27q0 12 4 16l15 33 q10 19 22 19q2 0 38.5 -10.5t64.5 -10.5q40 0 67 21.5t27 62.5q0 64 -98 80q-41 9 -41 39q0 6 2 14l37 142q-89 13 -155 60t-105 120.5t-57.5 163t-18.5 194.5z" />
<glyph unicode="&#xc8;" d="M188 125q0 7 3 26t4 23l200 1137q9 52 27 86.5t43 50.5t47.5 21.5t52.5 5.5h457q35 0 35 -33v-10l-15 -74q-6 -35 -45 -35h-442l-80 -459h359q34 0 34 -26l-2 -13l-14 -71q-7 -39 -47 -39h-356l-101 -563h473q35 0 35 -27q0 -7 -2 -21l-12 -65q-7 -39 -43 -39h-473 q-24 0 -45.5 5t-43.5 17.5t-35.5 38.5t-13.5 64zM563 1970q0 9 6.5 17t20.5 8h100q31 0 39 -29l88 -289q2 -8 2 -18q0 -9 -7.5 -15t-16.5 -6h-43q-21 0 -32 9t-22 32l-131 273q-4 8 -4 18z" />
<glyph unicode="&#xc9;" horiz-adv-x="933" d="M188 125q0 7 3 26t4 23l200 1137q9 52 27 86.5t43 50.5t47.5 21.5t52.5 5.5h457q35 0 35 -33v-10l-15 -74q-6 -35 -45 -35h-442l-80 -459h359q34 0 34 -26l-2 -13l-14 -71q-7 -39 -47 -39h-356l-101 -563h473q35 0 35 -27q0 -7 -2 -21l-12 -65q-7 -39 -43 -39h-473 q-24 0 -45.5 5t-43.5 17.5t-35.5 38.5t-13.5 64zM731 1659q0 9 10 22l187 285q18 29 49 29h110q27 0 27 -25q0 -14 -10 -26l-225 -265q-21 -24 -33.5 -32.5t-32.5 -8.5h-65q-20 0 -17 21z" />
<glyph unicode="&#xca;" d="M188 125q0 7 3 26t4 23l200 1137q9 52 27 86.5t43 50.5t47.5 21.5t52.5 5.5h457q35 0 35 -33v-10l-15 -74q-6 -35 -45 -35h-442l-80 -459h359q34 0 34 -26l-2 -13l-14 -71q-7 -39 -47 -39h-356l-101 -563h473q35 0 35 -27q0 -7 -2 -21l-12 -65q-7 -39 -43 -39h-473 q-24 0 -45.5 5t-43.5 17.5t-35.5 38.5t-13.5 64zM504 1655q0 14 10 26l225 285q23 29 56 29h77q31 0 41 -29l127 -287q2 -8 2 -20q-4 -21 -24 -21h-35q-21 0 -32.5 6.5t-22.5 24.5l-109 191l-176 -191q-18 -19 -33 -25t-39 -6h-49q-18 0 -18 17z" />
<glyph unicode="&#xcb;" d="M188 125q0 7 3 26t4 23l200 1137q9 52 27 86.5t43 50.5t47.5 21.5t52.5 5.5h457q35 0 35 -33v-10l-15 -74q-6 -35 -45 -35h-442l-80 -459h359q34 0 34 -26l-2 -13l-14 -71q-7 -39 -47 -39h-356l-101 -563h473q35 0 35 -27q0 -7 -2 -21l-12 -65q-7 -39 -43 -39h-473 q-24 0 -45.5 5t-43.5 17.5t-35.5 38.5t-13.5 64zM524 1726q0 40 32.5 67.5t76.5 27.5q37 0 63.5 -24t26.5 -62q0 -48 -31.5 -73.5t-75.5 -25.5q-40 0 -66 24t-26 66zM854 1726q0 40 32.5 67.5t76.5 27.5q37 0 63.5 -24t26.5 -62q0 -48 -31.5 -73.5t-75.5 -25.5q-40 0 -66 24 t-26 66z" />
<glyph unicode="&#xcc;" horiz-adv-x="342" d="M172 31q0 6 2 16l244 1389q6 39 51 39h78q14 0 22.5 -9.5t8.5 -23.5q0 -1 -1.5 -8.5t-1.5 -8.5l-243 -1388q-8 -37 -47 -37h-78q-15 0 -25 8t-10 23zM315 1970q0 9 6.5 17t20.5 8h100q31 0 39 -29l88 -289q2 -8 2 -18q0 -9 -7.5 -15t-16.5 -6h-43q-21 0 -31.5 9t-21.5 32 l-132 273q-4 8 -4 18z" />
<glyph unicode="&#xcd;" horiz-adv-x="305" d="M172 31q0 6 2 16l244 1389q6 39 51 39h78q14 0 22.5 -9.5t8.5 -23.5q0 -1 -1.5 -8.5t-1.5 -8.5l-243 -1388q-8 -37 -47 -37h-78q-15 0 -25 8t-10 23zM483 1659q0 7 11 22l186 285q18 29 49 29h111q26 0 26 -25q0 -14 -10 -26l-225 -265q-21 -24 -33.5 -32.5t-32.5 -8.5 h-65q-20 0 -17 21z" />
<glyph unicode="&#xce;" horiz-adv-x="413" d="M172 31q0 6 2 16l244 1389q6 39 51 39h78q14 0 22.5 -9.5t8.5 -23.5q0 -1 -1.5 -8.5t-1.5 -8.5l-243 -1388q-8 -37 -47 -37h-78q-15 0 -25 8t-10 23zM248 1655q0 14 10 26l225 285q23 29 56 29h77q31 0 41 -29l127 -287q2 -8 2 -20q-4 -21 -24 -21h-35q-21 0 -32.5 6.5 t-22.5 24.5l-109 191l-176 -191q-18 -19 -33 -25t-39 -6h-49q-18 0 -18 17z" />
<glyph unicode="&#xcf;" horiz-adv-x="471" d="M172 31q0 6 2 16l244 1389q6 39 51 39h78q14 0 22.5 -9.5t8.5 -23.5q0 -1 -1.5 -8.5t-1.5 -8.5l-243 -1388q-8 -37 -47 -37h-78q-15 0 -25 8t-10 23zM268 1726q0 40 32.5 67.5t76.5 27.5q37 0 63.5 -24t26.5 -62q0 -48 -31.5 -73.5t-75.5 -25.5q-40 0 -66 24t-26 66z M598 1726q0 40 32.5 67.5t76.5 27.5q37 0 63.5 -24t26.5 -62q0 -48 -31.5 -73.5t-75.5 -25.5q-40 0 -66 24t-26 66z" />
<glyph unicode="&#xd0;" horiz-adv-x="1114" d="M123 717q0 8 2 16l10 53q5 35 41 35h90l107 604q7 44 61 50q57 8 221 8q259 -3 387.5 -133.5t128.5 -413.5q0 -119 -10 -221.5t-36.5 -204t-68.5 -182.5t-108.5 -149t-154.5 -111q-159 -78 -379 -78q-213 0 -260 8q-27 4 -27 33q0 2 1 7.5t1 8.5l115 647h-90 q-31 0 -31 23zM303 141q45 -4 146 -4q144 0 247 53q310 156 310 736q0 201 -83 304t-274 107q-67 0 -137 -6l-90 -510h170q29 0 29 -22q0 -2 -1 -6.5t-2 -11.5t-2 -11l-8 -41q-6 -35 -41 -35h-168z" />
<glyph unicode="&#xd1;" horiz-adv-x="1245" d="M172 41l221 1255q7 41 16.5 70.5t26.5 58t46 43.5t69 15q68 0 104.5 -29t53.5 -106l186 -934l59 -303l56 372l168 951q5 22 13.5 31.5t25.5 9.5h92q34 0 26 -41l-221 -1266q-12 -89 -51.5 -132.5t-114.5 -43.5q-114 0 -143 121l-199 979l-51 264l-55 -346l-172 -969 q-8 -41 -41 -41h-86q-37 0 -29 41zM639 1665q0 82 51 146.5t141 64.5q35 0 69 -14.5t56.5 -31.5t48 -31.5t46.5 -14.5q50 0 73 71q10 31 31 31h57q27 0 27 -31q0 -80 -54.5 -141t-131.5 -61q-45 0 -91 23.5t-83 47t-60 23.5q-25 0 -41.5 -17.5t-29.5 -62.5q-10 -29 -35 -29 h-49q-10 0 -17.5 8t-7.5 19z" />
<glyph unicode="&#xd2;" horiz-adv-x="1165" d="M195 498q0 95 9 189.5t30.5 194.5t53.5 188t82.5 167.5t113.5 136.5t149.5 90t187.5 33q83 0 152 -29.5t124 -89.5t86 -163t31 -240q0 -98 -9 -194t-30.5 -196t-54 -187.5t-82.5 -166t-113.5 -134t-149.5 -88t-187 -32.5q-83 0 -152 29t-124 89t-86 162.5t-31 240.5z M360 500q0 -184 62 -278.5t182 -94.5q134 0 236.5 116.5t155.5 308t53 423.5q0 184 -63.5 278.5t-186.5 94.5q-100 0 -179.5 -64t-126.5 -159.5t-78.5 -215.5t-43 -221t-11.5 -188zM578 1970q0 9 6 17t20 8h101q30 0 38 -29l88 -289q3 -12 3 -18q0 -9 -8 -15t-17 -6h-43 q-21 0 -31.5 9t-21.5 32l-131 273q-4 8 -4 18z" />
<glyph unicode="&#xd3;" horiz-adv-x="1165" d="M195 498q0 95 9 189.5t30.5 194.5t53.5 188t82.5 167.5t113.5 136.5t149.5 90t187.5 33q83 0 152 -29.5t124 -89.5t86 -163t31 -240q0 -98 -9 -194t-30.5 -196t-54 -187.5t-82.5 -166t-113.5 -134t-149.5 -88t-187 -32.5q-83 0 -152 29t-124 89t-86 162.5t-31 240.5z M360 500q0 -184 62 -278.5t182 -94.5q134 0 236.5 116.5t155.5 308t53 423.5q0 184 -63.5 278.5t-186.5 94.5q-100 0 -179.5 -64t-126.5 -159.5t-78.5 -215.5t-43 -221t-11.5 -188zM791 1659q0 9 10 22l186 285q18 29 49 29h111q27 0 27 -25q0 -12 -11 -26l-225 -265 q-21 -24 -33.5 -32.5t-32.5 -8.5h-65q-19 0 -16 21z" />
<glyph unicode="&#xd4;" horiz-adv-x="1165" d="M195 498q0 95 9 189.5t30.5 194.5t53.5 188t82.5 167.5t113.5 136.5t149.5 90t187.5 33q83 0 152 -29.5t124 -89.5t86 -163t31 -240q0 -98 -9 -194t-30.5 -196t-54 -187.5t-82.5 -166t-113.5 -134t-149.5 -88t-187 -32.5q-83 0 -152 29t-124 89t-86 162.5t-31 240.5z M360 500q0 -184 62 -278.5t182 -94.5q134 0 236.5 116.5t155.5 308t53 423.5q0 184 -63.5 278.5t-186.5 94.5q-100 0 -179.5 -64t-126.5 -159.5t-78.5 -215.5t-43 -221t-11.5 -188zM598 1655q0 14 10 26l226 285q23 29 55 29h78q31 0 41 -29l127 -287q2 -8 2 -20 q-1 -9 -8.5 -15t-16.5 -6h-35q-21 0 -32.5 6.5t-22.5 24.5l-109 191l-176 -191q-18 -19 -33 -25t-38 -6h-50q-18 0 -18 17z" />
<glyph unicode="&#xd5;" horiz-adv-x="1165" d="M195 498q0 95 9 189.5t30.5 194.5t53.5 188t82.5 167.5t113.5 136.5t149.5 90t187.5 33q83 0 152 -29.5t124 -89.5t86 -163t31 -240q0 -98 -9 -194t-30.5 -196t-54 -187.5t-82.5 -166t-113.5 -134t-149.5 -88t-187 -32.5q-83 0 -152 29t-124 89t-86 162.5t-31 240.5z M360 500q0 -184 62 -278.5t182 -94.5q134 0 236.5 116.5t155.5 308t53 423.5q0 184 -63.5 278.5t-186.5 94.5q-100 0 -179.5 -64t-126.5 -159.5t-78.5 -215.5t-43 -221t-11.5 -188zM563 1665q0 82 51.5 146.5t141.5 64.5q44 0 85.5 -23t75 -46t58.5 -23q51 0 74 71 q10 31 30 31h58q26 0 26 -31q0 -80 -54.5 -141t-131.5 -61q-45 0 -91 23.5t-83 47t-60 23.5q-25 0 -41.5 -17.5t-29.5 -62.5q-10 -29 -35 -29h-49q-10 0 -17.5 8t-7.5 19z" />
<glyph unicode="&#xd6;" horiz-adv-x="1165" d="M195 498q0 95 9 189.5t30.5 194.5t53.5 188t82.5 167.5t113.5 136.5t149.5 90t187.5 33q83 0 152 -29.5t124 -89.5t86 -163t31 -240q0 -98 -9 -194t-30.5 -196t-54 -187.5t-82.5 -166t-113.5 -134t-149.5 -88t-187 -32.5q-83 0 -152 29t-124 89t-86 162.5t-31 240.5z M360 500q0 -184 62 -278.5t182 -94.5q134 0 236.5 116.5t155.5 308t53 423.5q0 184 -63.5 278.5t-186.5 94.5q-100 0 -179.5 -64t-126.5 -159.5t-78.5 -215.5t-43 -221t-11.5 -188zM563 1726q0 40 32.5 67.5t76.5 27.5q37 0 63.5 -24t26.5 -62q0 -48 -31.5 -73.5 t-75.5 -25.5q-40 0 -66 24t-26 66zM893 1726q0 40 32 67.5t76 27.5q37 0 64 -24t27 -62q0 -48 -31.5 -73.5t-75.5 -25.5q-40 0 -66 24t-26 66z" />
<glyph unicode="&#xd7;" horiz-adv-x="903" d="M266 270q-19 19 4 49l207 259l-211 264q-22 29 0 51l41 35q26 20 51 -10l195 -248l197 248q25 30 51 10l41 -35q22 -22 0 -51l-211 -264l207 -259q23 -30 4 -49l-41 -34q-31 -23 -56 8l-192 245l-191 -245q-25 -30 -55 -8z" />
<glyph unicode="&#xd8;" horiz-adv-x="1144" d="M188 498q0 82 9 170.5t30.5 187t53.5 189t83 174t113.5 144.5t149.5 97.5t188 36.5q119 0 207 -59l41 73q12 21 22.5 29t30.5 8h53q9 0 16 -8t7 -18q0 -9 -6 -21l-80 -143q100 -138 100 -381q0 -82 -9 -170.5t-30.5 -187.5t-54 -189.5t-83 -174t-113 -144.5t-149.5 -97.5 t-187 -36.5q-124 0 -215 64l-43 -76q-11 -20 -22 -28.5t-32 -8.5h-53q-9 0 -15.5 8t-6.5 19q0 8 6 20l84 148q-95 135 -95 375zM352 494q0 -120 27 -199l563 1001q-58 52 -149 52q-74 0 -137 -34t-107 -90t-79.5 -131.5t-57 -154t-35.5 -162.5t-19.5 -153t-5.5 -129z M444 184q60 -57 156 -57q134 0 236 119t154 311.5t52 423.5q0 127 -30 209z" />
<glyph unicode="&#xd9;" horiz-adv-x="1200" d="M248 365q0 71 12 139l162 930q8 41 39 41h94q27 0 27 -27q0 -12 -2 -18l-158 -912q-14 -82 -14 -141q0 -250 219 -250q139 0 222.5 91t119.5 300l159 916q8 41 41 41h93q26 0 26 -27q0 -13 -2 -21l-166 -948q-20 -113 -55.5 -199.5t-93 -157t-147 -108t-206.5 -37.5 q-181 0 -275.5 107.5t-94.5 280.5zM672 1970q0 9 6 17t20 8h101q31 0 39 -29l88 -289q2 -8 2 -18q0 -9 -8 -15t-17 -6h-43q-21 0 -31.5 9t-21.5 32l-131 273q-4 8 -4 18z" />
<glyph unicode="&#xda;" horiz-adv-x="1200" d="M248 365q0 71 12 139l162 930q8 41 39 41h94q27 0 27 -27q0 -12 -2 -18l-158 -912q-14 -82 -14 -141q0 -250 219 -250q139 0 222.5 91t119.5 300l159 916q8 41 41 41h93q26 0 26 -27q0 -13 -2 -21l-166 -948q-20 -113 -55.5 -199.5t-93 -157t-147 -108t-206.5 -37.5 q-181 0 -275.5 107.5t-94.5 280.5zM831 1659q0 7 11 22l186 285q18 29 49 29h111q26 0 26 -25q0 -14 -10 -26l-225 -265q-21 -24 -33.5 -32.5t-32.5 -8.5h-65q-20 0 -17 21z" />
<glyph unicode="&#xdb;" horiz-adv-x="1200" d="M248 365q0 71 12 139l162 930q8 41 39 41h94q27 0 27 -27q0 -12 -2 -18l-158 -912q-14 -82 -14 -141q0 -250 219 -250q139 0 222.5 91t119.5 300l159 916q8 41 41 41h93q26 0 26 -27q0 -13 -2 -21l-166 -948q-20 -113 -55.5 -199.5t-93 -157t-147 -108t-206.5 -37.5 q-181 0 -275.5 107.5t-94.5 280.5zM596 1655q0 14 10 26l225 285q23 29 56 29h78q31 0 41 -29l127 -287q2 -8 2 -20q-1 -9 -8.5 -15t-16.5 -6h-35q-21 0 -32.5 6.5t-22.5 24.5l-109 191l-176 -191q-18 -19 -33 -25t-38 -6h-50q-18 0 -18 17z" />
<glyph unicode="&#xdc;" horiz-adv-x="1200" d="M248 365q0 71 12 139l162 930q8 41 39 41h94q27 0 27 -27q0 -12 -2 -18l-158 -912q-14 -82 -14 -141q0 -250 219 -250q139 0 222.5 91t119.5 300l159 916q8 41 41 41h93q26 0 26 -27q0 -13 -2 -21l-166 -948q-20 -113 -55.5 -199.5t-93 -157t-147 -108t-206.5 -37.5 q-181 0 -275.5 107.5t-94.5 280.5zM625 1726q0 40 32 67.5t76 27.5q37 0 63.5 -24t26.5 -62q0 -48 -31 -73.5t-75 -25.5q-40 0 -66 24t-26 66zM954 1726q0 40 32.5 67.5t76.5 27.5q37 0 63.5 -24t26.5 -62q0 -48 -31 -73.5t-75 -25.5q-40 0 -66.5 24.5t-26.5 65.5z" />
<glyph unicode="&#xdd;" d="M274 1448q2 11 10 19t19 8h94q12 0 17.5 -1t12.5 -9.5t11 -24.5l123 -492l23 -100l59 104l301 488q20 35 62 35h92q24 0 24 -27q0 -7 -10 -27l-469 -725l-117 -655q-6 -41 -32 -41h-101q-22 0 -22 25q0 2 1 8.5t1 7.5l116 653l-210 727q-5 10 -5 27zM651 1659q0 7 11 22 l186 285q18 29 49 29h111q26 0 26 -25q0 -14 -10 -26l-225 -265q-21 -24 -33.5 -32.5t-32.5 -8.5h-65q-20 0 -17 21z" />
<glyph unicode="&#xde;" horiz-adv-x="927" d="M172 27q0 2 1 6.5t1 7.5l240 1395q6 39 51 39h78q30 0 30 -33q0 -1 -1 -8.5t-1 -8.5l-41 -235h103q197 0 302 -87.5t105 -266.5q0 -278 -146.5 -430t-422.5 -152q-8 0 -49.5 1t-54.5 1l-35 -215q-6 -41 -35 -41h-102q-23 0 -23 27zM393 399q6 -1 48.5 -0.5t45.5 0.5 q385 0 385 435q0 115 -62 162.5t-192 47.5q-27 0 -114 -6z" />
<glyph unicode="&#xdf;" horiz-adv-x="1034" d="M190 27q0 2 1.5 6.5t1.5 7.5l141 893h-101q-24 0 -24 29v6l12 69q6 37 35 37h100l6 49q16 126 56.5 219.5t99.5 147.5t128.5 80t150.5 26q134 0 217.5 -62.5t83.5 -182.5q0 -89 -34 -170t-82 -139.5t-96 -109.5t-82 -101.5t-34 -94.5q0 -18 5 -33.5t10 -25.5t21.5 -25 t23 -20.5t33 -25t34.5 -25.5q79 -60 117.5 -124.5t38.5 -144.5q0 -164 -98.5 -250t-270.5 -86q-55 0 -124 19t-114 45q-14 8 -14 20l6 27l29 66q10 22 27 22q16 0 28 -6q97 -51 185 -51q192 0 192 186q0 51 -28.5 86.5t-90.5 75.5q-42 27 -67.5 47t-51.5 49.5t-38.5 64.5 t-12.5 79q0 72 33 139.5t80 121.5t94 107.5t80 121t33 138.5q0 59 -36 92t-106 33q-109 0 -175.5 -82.5t-96.5 -271.5l-168 -1065q-8 -41 -35 -41h-96q-27 0 -27 27z" />
<glyph unicode="&#xe0;" horiz-adv-x="962" d="M174 379q0 99 14.5 197.5t47.5 193.5t81.5 167t122 116.5t162.5 44.5q73 0 132 -34.5t89 -102.5l27 75q12 39 45 39h61q10 0 19.5 -6.5t9.5 -17.5v-9l-151 -841q-7 -28 -7 -49q0 -41 31 -41h8q30 0 27 -31l-6 -47q-5 -47 -82 -47q-53 2 -90.5 33t-44.5 100 q-90 -142 -234 -142q-262 0 -262 402zM332 401q0 -288 143 -288q53 0 113.5 43.5t105.5 140.5l94 516q-18 75 -60 112.5t-101 37.5q-67 0 -121 -42.5t-85.5 -106t-52.5 -143t-28.5 -146.5t-7.5 -124zM453 1571q0 24 26 24h101q30 0 38 -28l89 -289q2 -8 2 -18q0 -9 -8 -15 t-17 -6h-43q-21 0 -31.5 9t-21.5 32l-131 272q-4 8 -4 19z" />
<glyph unicode="&#xe1;" horiz-adv-x="1011" d="M174 379q0 99 14.5 197.5t47.5 193.5t81.5 167t122 116.5t162.5 44.5q73 0 132 -34.5t89 -102.5l27 75q12 39 45 39h61q10 0 19.5 -6.5t9.5 -17.5v-9l-151 -841q-7 -28 -7 -49q0 -41 31 -41h8q30 0 27 -31l-6 -47q-5 -47 -82 -47q-53 2 -90.5 33t-44.5 100 q-90 -142 -234 -142q-262 0 -262 402zM332 401q0 -288 143 -288q53 0 113.5 43.5t105.5 140.5l94 516q-18 75 -60 112.5t-101 37.5q-67 0 -121 -42.5t-85.5 -106t-52.5 -143t-28.5 -146.5t-7.5 -124zM651 1260q0 7 11 22l186 285q17 28 49 28h111q26 0 26 -24q0 -15 -10 -27 l-225 -264q-21 -24 -33.5 -32.5t-32.5 -8.5h-65q-20 0 -17 21z" />
<glyph unicode="&#xe2;" horiz-adv-x="962" d="M174 379q0 99 14.5 197.5t47.5 193.5t81.5 167t122 116.5t162.5 44.5q73 0 132 -34.5t89 -102.5l27 75q12 39 45 39h61q10 0 19.5 -6.5t9.5 -17.5v-9l-151 -841q-7 -28 -7 -49q0 -41 31 -41h8q30 0 27 -31l-6 -47q-5 -47 -82 -47q-53 2 -90.5 33t-44.5 100 q-90 -142 -234 -142q-262 0 -262 402zM332 401q0 -288 143 -288q53 0 113.5 43.5t105.5 140.5l94 516q-18 75 -60 112.5t-101 37.5q-67 0 -121 -42.5t-85.5 -106t-52.5 -143t-28.5 -146.5t-7.5 -124zM399 1255q0 13 11 27l225 285q22 28 55 28h78q31 0 41 -28l127 -287 q2 -8 2 -20q-4 -21 -25 -21h-34q-21 0 -33 7t-23 24l-108 190l-176 -190q-18 -19 -33 -25t-39 -6h-49q-19 0 -19 16z" />
<glyph unicode="&#xe3;" horiz-adv-x="970" d="M174 379q0 99 14.5 197.5t47.5 193.5t81.5 167t122 116.5t162.5 44.5q73 0 132 -34.5t89 -102.5l27 75q12 39 45 39h61q10 0 19.5 -6.5t9.5 -17.5v-9l-151 -841q-7 -28 -7 -49q0 -41 31 -41h8q30 0 27 -31l-6 -47q-5 -47 -82 -47q-53 2 -90.5 33t-44.5 100 q-90 -142 -234 -142q-262 0 -262 402zM332 401q0 -288 143 -288q53 0 113.5 43.5t105.5 140.5l94 516q-18 75 -60 112.5t-101 37.5q-67 0 -121 -42.5t-85.5 -106t-52.5 -143t-28.5 -146.5t-7.5 -124zM393 1266q0 82 51.5 146.5t141.5 64.5q44 0 85.5 -23.5t75 -46.5 t58.5 -23q50 0 74 72q10 31 30 31h58q26 0 26 -31q0 -80 -54.5 -141.5t-131.5 -61.5q-36 0 -73 15t-62 32.5t-52.5 32.5t-46.5 15q-25 0 -41.5 -17.5t-29.5 -62.5q-10 -29 -35 -29h-49q-10 0 -17.5 7.5t-7.5 19.5z" />
<glyph unicode="&#xe4;" horiz-adv-x="962" d="M174 379q0 99 14.5 197.5t47.5 193.5t81.5 167t122 116.5t162.5 44.5q73 0 132 -34.5t89 -102.5l27 75q12 39 45 39h61q10 0 19.5 -6.5t9.5 -17.5v-9l-151 -841q-7 -28 -7 -49q0 -41 31 -41h8q30 0 27 -31l-6 -47q-5 -47 -82 -47q-53 2 -90.5 33t-44.5 100 q-90 -142 -234 -142q-262 0 -262 402zM332 401q0 -288 143 -288q53 0 113.5 43.5t105.5 140.5l94 516q-18 75 -60 112.5t-101 37.5q-67 0 -121 -42.5t-85.5 -106t-52.5 -143t-28.5 -146.5t-7.5 -124zM446 1327q0 40 32.5 67t76.5 27q37 0 63.5 -24t26.5 -62q0 -48 -31 -73 t-75 -25q-40 0 -66.5 24.5t-26.5 65.5zM776 1327q0 40 32.5 67t76.5 27q37 0 63.5 -24t26.5 -62q0 -48 -31.5 -73t-75.5 -25q-40 0 -66 24t-26 66z" />
<glyph unicode="&#xe5;" horiz-adv-x="966" d="M174 379q0 99 14.5 197.5t47.5 193.5t81.5 167t122 116.5t162.5 44.5q73 0 132 -34.5t89 -102.5l27 75q12 39 45 39h61q10 0 19.5 -6.5t9.5 -17.5v-9l-151 -841q-7 -28 -7 -49q0 -41 31 -41h8q30 0 27 -31l-6 -47q-5 -47 -82 -47q-53 2 -90.5 33t-44.5 100 q-90 -142 -234 -142q-262 0 -262 402zM332 401q0 -288 143 -288q53 0 113.5 43.5t105.5 140.5l94 516q-18 75 -60 112.5t-101 37.5q-67 0 -121 -42.5t-85.5 -106t-52.5 -143t-28.5 -146.5t-7.5 -124zM537 1395q0 92 52 156.5t142 64.5q60 0 98.5 -42.5t38.5 -117.5 q0 -84 -50 -150.5t-140 -66.5q-60 0 -100.5 42.5t-40.5 113.5zM635 1399q0 -66 53 -66q37 0 59.5 31t22.5 82q0 41 -12.5 58.5t-38.5 17.5q-40 0 -62 -35t-22 -88z" />
<glyph unicode="&#xe6;" horiz-adv-x="1396" d="M121 248q0 193 115.5 284t326.5 91h142l10 82q8 74 8 88q0 157 -150 157q-59 0 -108.5 -9.5t-120.5 -39.5q-9 -6 -22 -6q-16 0 -19 14l-27 76q-2 6 -2 14q0 19 23 31q66 36 148 52t149 16q38 0 72.5 -6t72.5 -20.5t68 -44.5t45 -73q115 144 299 144q122 0 202.5 -75.5 t80.5 -234.5q0 -97 -35 -245q-8 -30 -18.5 -39.5t-39.5 -9.5h-501q0 -14 -2 -50t-2 -63q0 -124 53 -192t133 -68q123 0 229 49q8 4 17 4q16 0 22 -18l21 -72q2 -8 2 -21q-2 -17 -25 -30q-33 -20 -117 -38t-167 -18q-95 0 -166 48t-107 139q-60 -96 -156 -141.5t-198 -45.5 q-109 0 -182.5 71.5t-73.5 199.5zM270 254q0 -67 37.5 -104t91.5 -37q77 0 133.5 31.5t110.5 99.5l41 250h-102q-56 0 -98.5 -5t-84.5 -20t-69 -41t-43.5 -70t-16.5 -104zM862 627h402q22 71 22 159q0 177 -147 177q-193 0 -277 -336z" />
<glyph unicode="&#xe7;" horiz-adv-x="837" d="M174 377q0 110 15.5 211t51.5 195t89 163t134 110.5t181 41.5q230 0 275 -221v-13q-1 -13 -6 -18t-19 -12l-57 -23q-11 -2 -23 -2q-17 0 -24 20q-24 73 -60 103.5t-94 30.5q-66 0 -120 -40.5t-87.5 -103t-56.5 -142t-32 -152.5t-9 -140q0 -128 47 -196t153 -68 q98 0 209 47q12 6 23 6q17 0 24 -24l19 -66q2 -10 2 -18q0 -19 -25 -33q-81 -44 -229 -53l-23 -86q63 -18 100.5 -62.5t37.5 -112.5q0 -91 -65.5 -140.5t-170.5 -49.5q-47 0 -108 22q-19 8 -21 27q0 12 4 16l15 33q10 19 22 19q2 0 38.5 -10.5t64.5 -10.5q40 0 67 21.5 t27 62.5q0 64 -99 80q-22 5 -31.5 14t-9.5 27l3 12l36 140q-121 16 -194.5 110.5t-73.5 284.5z" />
<glyph unicode="&#xe8;" horiz-adv-x="888" d="M172 371q0 145 27.5 272t82.5 230.5t148.5 164t214.5 60.5q122 0 202.5 -75.5t80.5 -234.5q0 -97 -35 -245q-8 -30 -18.5 -39.5t-38.5 -9.5h-502q0 -14 -2 -50t-2 -63q0 -125 50 -192.5t132 -67.5q127 0 233 49q8 4 17 4q16 0 22 -18l21 -72q2 -8 2 -21q-2 -17 -25 -30 q-33 -20 -119 -38t-169 -18q-141 0 -231.5 103.5t-90.5 290.5zM356 627h402q22 71 22 159q0 177 -147 177q-193 0 -277 -336zM418 1571q0 24 26 24h101q31 0 39 -28l88 -289q2 -8 2 -18q0 -9 -8 -15t-17 -6h-43q-21 0 -31.5 9t-21.5 32l-131 272q-4 8 -4 19z" />
<glyph unicode="&#xe9;" horiz-adv-x="966" d="M172 371q0 145 27.5 272t82.5 230.5t148.5 164t214.5 60.5q122 0 202.5 -75.5t80.5 -234.5q0 -97 -35 -245q-8 -30 -18.5 -39.5t-38.5 -9.5h-502q0 -14 -2 -50t-2 -63q0 -125 50 -192.5t132 -67.5q127 0 233 49q8 4 17 4q16 0 22 -18l21 -72q2 -8 2 -21q-2 -17 -25 -30 q-33 -20 -119 -38t-169 -18q-141 0 -231.5 103.5t-90.5 290.5zM356 627h402q22 71 22 159q0 177 -147 177q-193 0 -277 -336zM631 1260q0 9 10 22l186 285q17 28 50 28h110q27 0 27 -24q0 -15 -10 -27l-226 -264q-21 -24 -33 -32.5t-32 -8.5h-66q-19 0 -16 21z" />
<glyph unicode="&#xea;" horiz-adv-x="876" d="M172 371q0 145 27.5 272t82.5 230.5t148.5 164t214.5 60.5q122 0 202.5 -75.5t80.5 -234.5q0 -97 -35 -245q-8 -30 -18.5 -39.5t-38.5 -9.5h-502q0 -14 -2 -50t-2 -63q0 -125 50 -192.5t132 -67.5q127 0 233 49q8 4 17 4q16 0 22 -18l21 -72q2 -8 2 -21q-2 -17 -25 -30 q-33 -20 -119 -38t-169 -18q-141 0 -231.5 103.5t-90.5 290.5zM356 627h402q22 71 22 159q0 177 -147 177q-193 0 -277 -336zM381 1255q0 15 10 27l225 285q22 28 56 28h78q31 0 41 -28l127 -287q2 -8 2 -20q-4 -21 -25 -21h-35q-21 0 -32.5 6.5t-22.5 24.5l-109 190 l-176 -190q-18 -19 -33 -25t-38 -6h-50q-18 0 -18 16z" />
<glyph unicode="&#xeb;" horiz-adv-x="897" d="M172 371q0 145 27.5 272t82.5 230.5t148.5 164t214.5 60.5q122 0 202.5 -75.5t80.5 -234.5q0 -97 -35 -245q-8 -30 -18.5 -39.5t-38.5 -9.5h-502q0 -14 -2 -50t-2 -63q0 -125 50 -192.5t132 -67.5q127 0 233 49q8 4 17 4q16 0 22 -18l21 -72q2 -8 2 -21q-2 -17 -25 -30 q-33 -20 -119 -38t-169 -18q-141 0 -231.5 103.5t-90.5 290.5zM356 627h402q22 71 22 159q0 177 -147 177q-193 0 -277 -336zM408 1327q0 40 32 67t76 27q37 0 63.5 -24t26.5 -62q0 -48 -31 -73t-75 -25q-40 0 -66 24t-26 66zM737 1327q0 40 32.5 67t76.5 27q37 0 63.5 -24 t26.5 -62q0 -48 -31.5 -73t-75.5 -25q-40 0 -66 24t-26 66z" />
<glyph unicode="&#xec;" horiz-adv-x="430" d="M115 31q0 6 2 16l178 989q6 39 51 39h76q14 0 22.5 -9.5t8.5 -23.5q0 -1 -1 -8t-1 -8l-179 -989q-8 -37 -47 -37h-75q-15 0 -25 8t-10 23zM186 1571q0 9 6.5 16.5t20.5 7.5h100q31 0 39 -28l88 -289q2 -8 2 -18q0 -9 -7.5 -15t-16.5 -6h-43q-21 0 -31.5 9t-21.5 32 l-132 272q-4 8 -4 19z" />
<glyph unicode="&#xed;" horiz-adv-x="438" d="M170 31q0 6 2 16l178 989q6 39 51 39h76q14 0 22.5 -9.5t8.5 -23.5q0 -1 -1 -8t-1 -8l-178 -989q-8 -37 -47 -37h-76q-15 0 -25 8t-10 23zM403 1260q0 7 11 22l186 285q17 28 49 28h111q26 0 26 -24q0 -15 -10 -27l-225 -264q-21 -24 -33.5 -32.5t-32.5 -8.5h-65 q-20 0 -17 21z" />
<glyph unicode="&#xee;" horiz-adv-x="380" d="M147 31q0 1 3 16l178 989q6 39 51 39h76q30 0 30 -33q0 -1 -1 -8t-1 -8l-178 -989q-8 -37 -47 -37h-76q-15 0 -25 8t-10 23zM158 1255q0 15 10 27l225 285q22 28 56 28h77q31 0 41 -28l127 -287q2 -8 2 -20q-4 -21 -24 -21h-35q-21 0 -32.5 6.5t-22.5 24.5l-109 190 l-176 -190q-18 -19 -33 -25t-39 -6h-49q-18 0 -18 16z" />
<glyph unicode="&#xef;" horiz-adv-x="475" d="M170 31q0 6 2 16l178 989q6 39 51 39h76q14 0 22.5 -9.5t8.5 -23.5q0 -1 -1 -8t-1 -8l-178 -989q-8 -37 -47 -37h-76q-15 0 -25 8t-10 23zM211 1327q0 40 32 67t76 27q37 0 64 -24t27 -62q0 -48 -31.5 -73t-75.5 -25q-40 0 -66 24t-26 66zM541 1327q0 40 32 67t76 27 q37 0 63.5 -24t26.5 -62q0 -48 -31 -73t-75 -25q-40 0 -66 24t-26 66z" />
<glyph unicode="&#xf0;" horiz-adv-x="919" d="M160 375q0 79 15 157.5t48.5 155t81.5 134.5t121 94t160 36q168 0 215 -131q-2 86 -35 191.5t-98 206.5l-195 -70q-9 -6 -27 -6q-17 0 -22 16l-10 39q-2 4 -2 12q0 22 18 31l178 59l-73 80q-48 48 -48 66q0 11 6.5 20t16.5 9h92q53 0 78 -25q1 -2 12.5 -14t30.5 -34 t37 -46l158 57q9 6 24 6q18 0 23 -14l12 -39q4 -8 4 -20q-6 -19 -20 -25l-148 -49q57 -96 96 -227.5t39 -278.5q0 -95 -16.5 -197.5t-55.5 -209.5t-95.5 -191t-145 -137.5t-195.5 -53.5q-135 0 -207.5 101.5t-72.5 296.5zM315 375q0 -114 41 -189t111 -75q57 0 108.5 41 t86 102.5t61.5 137t40.5 142t16.5 119.5q-2 6 -6 17t-19.5 38t-35 48t-54 38t-75.5 17q-62 0 -111.5 -28.5t-79.5 -73t-49.5 -104t-27 -116t-7.5 -114.5z" />
<glyph unicode="&#xf1;" horiz-adv-x="1009" d="M170 31q0 6 2 16l178 989q3 18 14.5 28.5t26.5 10.5h62q26 0 26 -45v-82q31 49 71.5 81.5t80 46t65 18t49.5 4.5q114 0 180 -76.5t66 -233.5q0 -62 -12 -126l-113 -625q-8 -37 -47 -37h-76q-34 0 -34 31q0 6 2 16l116 643q11 57 11 92q0 183 -136 183q-148 0 -241 -185 l-133 -743q-7 -37 -41 -37h-86q-11 0 -21 7.5t-10 23.5zM451 1266q0 82 51 146.5t141 64.5q44 0 85.5 -23.5t75 -46.5t58.5 -23q50 0 74 72q10 31 31 31h57q27 0 27 -31q0 -80 -55 -141.5t-132 -61.5q-36 0 -73 15t-61.5 32.5t-52 32.5t-46.5 15q-25 0 -42 -17.5t-30 -62.5 q-10 -29 -35 -29h-49q-9 0 -16.5 7.5t-7.5 19.5z" />
<glyph unicode="&#xf2;" horiz-adv-x="917" d="M168 369q0 159 29.5 290.5t87.5 230.5t152 153.5t216 54.5q136 0 210.5 -101.5t74.5 -289.5q0 -344 -126 -537t-359 -193q-136 0 -210.5 102t-74.5 290zM326 401q0 -40 1 -67t5.5 -64.5t14.5 -62.5t25.5 -48.5t41.5 -35.5t61 -12q73 0 132.5 49t96.5 129.5t56.5 178 t19.5 200.5q0 70 -5 117t-20 91.5t-47 66.5t-81 22q-64 0 -116.5 -38.5t-86 -99t-56.5 -137t-32.5 -149.5t-9.5 -140zM432 1571q0 9 6.5 16.5t20.5 7.5h100q31 0 39 -28l88 -289q2 -8 2 -18q0 -9 -7.5 -15t-16.5 -6h-43q-21 0 -32 9t-22 32l-131 272q-4 8 -4 19z" />
<glyph unicode="&#xf3;" horiz-adv-x="905" d="M168 369q0 159 29.5 290.5t87.5 230.5t152 153.5t216 54.5q136 0 210.5 -101.5t74.5 -289.5q0 -344 -126 -537t-359 -193q-136 0 -210.5 102t-74.5 290zM326 401q0 -40 1 -67t5.5 -64.5t14.5 -62.5t25.5 -48.5t41.5 -35.5t61 -12q73 0 132.5 49t96.5 129.5t56.5 178 t19.5 200.5q0 70 -5 117t-20 91.5t-47 66.5t-81 22q-64 0 -116.5 -38.5t-86 -99t-56.5 -137t-32.5 -149.5t-9.5 -140zM596 1260q0 9 10 22l187 285q17 28 49 28h110q27 0 27 -24q0 -15 -10 -27l-226 -264q-21 -24 -33 -32.5t-32 -8.5h-66q-20 0 -16 21z" />
<glyph unicode="&#xf4;" horiz-adv-x="917" d="M168 369q0 159 29.5 290.5t87.5 230.5t152 153.5t216 54.5q136 0 210.5 -101.5t74.5 -289.5q0 -344 -126 -537t-359 -193q-136 0 -210.5 102t-74.5 290zM326 401q0 -40 1 -67t5.5 -64.5t14.5 -62.5t25.5 -48.5t41.5 -35.5t61 -12q73 0 132.5 49t96.5 129.5t56.5 178 t19.5 200.5q0 70 -5 117t-20 91.5t-47 66.5t-81 22q-64 0 -116.5 -38.5t-86 -99t-56.5 -137t-32.5 -149.5t-9.5 -140zM375 1255q0 15 10 27l225 285q22 28 56 28h77q31 0 41 -28l127 -287q2 -8 2 -20q-2 -9 -8.5 -15t-15.5 -6h-35q-21 0 -32.5 6.5t-22.5 24.5l-109 190 l-176 -190q-18 -19 -33 -25t-39 -6h-49q-18 0 -18 16z" />
<glyph unicode="&#xf5;" horiz-adv-x="901" d="M168 369q0 159 29.5 290.5t87.5 230.5t152 153.5t216 54.5q136 0 210.5 -101.5t74.5 -289.5q0 -344 -126 -537t-359 -193q-136 0 -210.5 102t-74.5 290zM326 401q0 -40 1 -67t5.5 -64.5t14.5 -62.5t25.5 -48.5t41.5 -35.5t61 -12q73 0 132.5 49t96.5 129.5t56.5 178 t19.5 200.5q0 70 -5 117t-20 91.5t-47 66.5t-81 22q-64 0 -116.5 -38.5t-86 -99t-56.5 -137t-32.5 -149.5t-9.5 -140zM336 1266q0 82 51 146.5t141 64.5q44 0 86 -23.5t75.5 -46.5t58.5 -23q49 0 73 72q10 31 31 31h57q27 0 27 -31q0 -80 -54.5 -141.5t-131.5 -61.5 q-36 0 -73 15t-62 32.5t-52.5 32.5t-46.5 15q-25 0 -42 -17.5t-30 -62.5q-10 -29 -34 -29h-50q-9 0 -16.5 7.5t-7.5 19.5z" />
<glyph unicode="&#xf6;" horiz-adv-x="917" d="M168 369q0 159 29.5 290.5t87.5 230.5t152 153.5t216 54.5q136 0 210.5 -101.5t74.5 -289.5q0 -344 -126 -537t-359 -193q-136 0 -210.5 102t-74.5 290zM326 401q0 -40 1 -67t5.5 -64.5t14.5 -62.5t25.5 -48.5t41.5 -35.5t61 -12q73 0 132.5 49t96.5 129.5t56.5 178 t19.5 200.5q0 70 -5 117t-20 91.5t-47 66.5t-81 22q-64 0 -116.5 -38.5t-86 -99t-56.5 -137t-32.5 -149.5t-9.5 -140zM397 1327q0 40 32.5 67t76.5 27q37 0 63.5 -24t26.5 -62q0 -48 -31.5 -73t-75.5 -25q-40 0 -66 24t-26 66zM727 1327q0 40 32.5 67t76.5 27q37 0 63.5 -24 t26.5 -62q0 -48 -31.5 -73t-75.5 -25q-40 0 -66 24t-26 66z" />
<glyph unicode="&#xf7;" horiz-adv-x="901" d="M211 553v53q0 21 6.5 30t26.5 9h616q21 0 28 -9.5t7 -29.5v-53q0 -19 -7 -27t-28 -8h-614q-21 0 -28 8t-7 27zM455 276q0 48 27.5 81.5t68.5 33.5q44 0 72 -33.5t28 -81.5t-28 -80t-72 -32q-41 0 -68.5 32.5t-27.5 79.5zM455 895q0 48 27.5 81.5t68.5 33.5q44 0 72 -33.5 t28 -81.5t-28 -80.5t-72 -32.5q-41 0 -68.5 32.5t-27.5 80.5z" />
<glyph unicode="&#xf8;" horiz-adv-x="862" d="M125 -45q0 8 6 20l70 125q-60 102 -60 269q0 159 29.5 290.5t88 230.5t152.5 153.5t216 54.5q61 0 116 -25l37 66q11 20 22 28.5t32 8.5h53q9 0 15.5 -8t6.5 -19q0 -9 -6 -21l-72 -127q80 -104 80 -294q0 -344 -126 -537t-359 -193q-82 0 -143 39l-29 -51 q-12 -21 -22.5 -29t-30.5 -8h-54q-9 0 -15.5 8t-6.5 19zM299 401q0 -77 4 -116l369 661q-34 19 -72 19q-64 0 -116.5 -38.5t-86 -99t-56.5 -137t-32.5 -149.5t-9.5 -140zM354 145q34 -34 95 -34q73 0 132.5 49t96.5 129.5t56.5 178t19.5 200.5q0 98 -15 168z" />
<glyph unicode="&#xf9;" horiz-adv-x="1005" d="M203 287q0 61 10 116l115 635q7 37 47 37h78q32 0 32 -37l-114 -630q-13 -73 -13 -132q0 -42 8.5 -75.5t37 -60.5t75.5 -27q77 0 139.5 41.5t114.5 146.5l133 737q8 37 45 37h84q29 0 29 -28v-9l-180 -1001q-8 -37 -45 -37h-47q-16 0 -24.5 10.5t-8.5 22.5l-4 96 q-37 -58 -109 -105t-164 -47q-239 0 -239 310zM489 1571q0 9 6.5 16.5t20.5 7.5h100q31 0 39 -28l88 -289q2 -8 2 -18q0 -9 -7.5 -15t-16.5 -6h-43q-21 0 -31.5 9t-21.5 32l-131 272q-5 10 -5 19z" />
<glyph unicode="&#xfa;" horiz-adv-x="1009" d="M203 287q0 61 10 116l115 635q7 37 47 37h78q32 0 32 -37l-114 -630q-13 -73 -13 -132q0 -42 8.5 -75.5t37 -60.5t75.5 -27q77 0 139.5 41.5t114.5 146.5l133 737q8 37 45 37h84q29 0 29 -28v-9l-180 -1001q-8 -37 -45 -37h-47q-16 0 -24.5 10.5t-8.5 22.5l-4 96 q-37 -58 -109 -105t-164 -47q-239 0 -239 310zM645 1260q0 9 10 22l187 285q17 28 49 28h110q27 0 27 -24q0 -15 -10 -27l-225 -264q-21 -24 -33.5 -32.5t-32.5 -8.5h-65q-20 0 -17 21z" />
<glyph unicode="&#xfb;" horiz-adv-x="1005" d="M203 287q0 61 10 116l115 635q7 37 47 37h78q32 0 32 -37l-114 -630q-13 -73 -13 -132q0 -42 8.5 -75.5t37 -60.5t75.5 -27q77 0 139.5 41.5t114.5 146.5l133 737q8 37 45 37h84q29 0 29 -28v-9l-180 -1001q-8 -37 -45 -37h-47q-16 0 -24.5 10.5t-8.5 22.5l-4 96 q-37 -58 -109 -105t-164 -47q-239 0 -239 310zM430 1255q0 15 10 27l226 285q22 28 55 28h78q31 0 41 -28l127 -287q2 -8 2 -20q-1 -9 -8.5 -15t-16.5 -6h-35q-21 0 -32.5 6.5t-22.5 24.5l-109 190l-176 -190q-18 -19 -33 -25t-38 -6h-49q-19 0 -19 16z" />
<glyph unicode="&#xfc;" horiz-adv-x="1005" d="M203 287q0 61 10 116l115 635q7 37 47 37h78q32 0 32 -37l-114 -630q-13 -73 -13 -132q0 -42 8.5 -75.5t37 -60.5t75.5 -27q77 0 139.5 41.5t114.5 146.5l133 737q8 37 45 37h84q29 0 29 -28v-9l-180 -1001q-8 -37 -45 -37h-47q-16 0 -24.5 10.5t-8.5 22.5l-4 96 q-37 -58 -109 -105t-164 -47q-239 0 -239 310zM442 1327q0 40 32.5 67t76.5 27q37 0 63.5 -24t26.5 -62q0 -48 -31 -73t-75 -25q-40 0 -66.5 24.5t-26.5 65.5zM772 1327q0 40 32.5 67t76.5 27q37 0 63.5 -24t26.5 -62q0 -48 -31.5 -73t-75.5 -25q-40 0 -66 24t-26 66z" />
<glyph unicode="&#xfd;" horiz-adv-x="710" d="M-82 -354q0 14 6 26l29 62q10 24 33 24q4 0 38 -12t70 -12q92 0 164 164l45 102q-90 9 -102 113l-109 927q3 35 27 35h100q15 0 22.5 -7t10.5 -30l67 -657l21 -270l106 260l95 239q61 156 80.5 226t19.5 137q0 15 -1 36t-1 29q0 37 29 37h84q30 0 36 -39q5 -35 5 -63 q0 -78 -17.5 -143t-83.5 -232l-276 -707q-66 -170 -144 -235.5t-190 -65.5q-96 0 -150 33q-14 8 -14 23zM430 1260q0 9 10 22l187 285q17 28 49 28h110q27 0 27 -24q0 -15 -10 -27l-225 -264q-21 -24 -33.5 -32.5t-32.5 -8.5h-66q-20 0 -16 21z" />
<glyph unicode="&#xfe;" horiz-adv-x="966" d="M98 -381q0 6 2 16l332 1846q5 22 13.5 32t27.5 13l84 16l10 2q29 0 29 -28l-100 -549q29 42 59.5 69.5t62 40t57.5 17t60 4.5q35 0 66 -8.5t66.5 -35t60 -70.5t41 -122t16.5 -182q0 -196 -52 -356.5t-147.5 -253.5t-216.5 -93q-161 0 -225 134l-88 -484 q-3 -18 -15.5 -27.5t-27.5 -9.5h-80q-17 0 -26 8.5t-9 20.5zM371 262q41 -149 166 -149q70 0 126.5 50t91.5 132t53.5 182t18.5 205q0 279 -137 279q-139 0 -225 -185z" />
<glyph unicode="&#xff;" horiz-adv-x="690" d="M-82 -354q0 14 6 26l29 62q10 24 33 24q4 0 38 -12t70 -12q92 0 164 164l45 102q-90 9 -102 113l-109 927q3 35 27 35h100q15 0 22.5 -7t10.5 -30l67 -657l21 -270l106 260l95 239q61 156 80.5 226t19.5 137q0 15 -1 36t-1 29q0 37 29 37h84q30 0 36 -39q5 -35 5 -63 q0 -78 -17.5 -143t-83.5 -232l-276 -707q-66 -170 -144 -235.5t-190 -65.5q-96 0 -150 33q-14 8 -14 23zM182 1327q0 40 32.5 67t76.5 27q37 0 63.5 -24t26.5 -62q0 -48 -31.5 -73t-75.5 -25q-40 0 -66 24t-26 66zM512 1327q0 40 32.5 67t76.5 27q37 0 63.5 -24t26.5 -62 q0 -48 -31.5 -73t-75.5 -25q-40 0 -66 24t-26 66z" />
<glyph unicode="&#x152;" horiz-adv-x="1505" d="M197 553q0 267 83 477.5t231.5 327.5t334.5 117h796q35 0 35 -33v-10l-14 -74q-6 -35 -45 -35h-442l-80 -459h358q35 0 35 -26l-4 -23l-12 -61q-7 -39 -48 -39h-356l-100 -563h473q35 0 35 -27q0 -7 -2 -21l-13 -65q-7 -39 -43 -39h-813q-61 0 -117 16.5t-110 57.5 t-93.5 102.5t-64 158t-24.5 218.5zM365 563q0 -199 63.5 -305t206.5 -106h176q0 2 201 1171h-160q-146 0 -256.5 -95.5t-170.5 -268t-60 -396.5z" />
<glyph unicode="&#x153;" horiz-adv-x="1474" d="M168 369q0 159 29.5 290.5t87.5 230.5t152 153.5t216 54.5q190 0 244 -205q108 205 332 205q122 0 202 -75.5t80 -234.5q0 -101 -34 -245q-8 -30 -18.5 -39.5t-39.5 -9.5h-501q0 -14 -2.5 -50t-2.5 -63q0 -125 50.5 -192.5t132.5 -67.5q127 0 233 49q8 4 17 4 q16 0 22 -18l21 -72q2 -8 2 -21q-2 -17 -25 -30q-33 -20 -119.5 -38t-169.5 -18q-101 0 -173 54t-101 157q-58 -106 -143 -158.5t-207 -52.5q-136 0 -210.5 102t-74.5 290zM326 401q0 -40 1 -67t5.5 -64.5t14.5 -62.5t25.5 -48.5t41.5 -35.5t61 -12q73 0 132.5 49 t96.5 129.5t56.5 178t19.5 200.5q0 70 -5 117t-20 91.5t-47 66.5t-81 22q-64 0 -116.5 -38.5t-86 -99t-56.5 -137t-32.5 -149.5t-9.5 -140zM940 627h401q23 74 23 159q0 177 -147 177q-193 0 -277 -336z" />
<glyph unicode="&#x178;" d="M274 1448q2 11 10 19t19 8h94q12 0 17.5 -1t12.5 -9.5t11 -24.5l123 -492l23 -100l59 104l301 488q20 35 62 35h92q24 0 24 -27q0 -7 -10 -27l-469 -725l-117 -655q-6 -41 -32 -41h-101q-22 0 -22 25q0 2 1 8.5t1 7.5l116 653l-210 727q-5 10 -5 27zM455 1726 q0 40 32 67.5t76 27.5q37 0 63.5 -24t26.5 -62q0 -48 -31 -73.5t-75 -25.5q-40 0 -66 24t-26 66zM784 1726q0 40 32.5 67.5t76.5 27.5q37 0 63.5 -24t26.5 -62q0 -48 -31 -73.5t-75 -25.5q-40 0 -66.5 24.5t-26.5 65.5z" />
<glyph unicode="&#x2c6;" horiz-adv-x="745" d="M328 1255q0 15 10 27l225 285q22 28 55 28h78q31 0 41 -28l127 -287q2 -8 2 -20q-4 -21 -24 -21h-35q-21 0 -32.5 6.5t-22.5 24.5l-109 190l-176 -190q-18 -19 -33 -25t-39 -6h-49q-18 0 -18 16z" />
<glyph unicode="&#x2dc;" horiz-adv-x="772" d="M328 1266q0 82 51 146.5t141 64.5q44 0 85.5 -23.5t75 -46.5t58.5 -23q50 0 74 72q10 31 31 31h57q27 0 27 -31q0 -80 -55 -141.5t-132 -61.5q-36 0 -73 15t-61.5 32.5t-52 32.5t-46.5 15q-25 0 -42 -17.5t-30 -62.5q-10 -29 -35 -29h-49q-9 0 -16.5 7.5t-7.5 19.5z" />
<glyph unicode="&#x2000;" horiz-adv-x="1007" />
<glyph unicode="&#x2001;" horiz-adv-x="2015" />
<glyph unicode="&#x2002;" horiz-adv-x="1007" />
<glyph unicode="&#x2003;" horiz-adv-x="2015" />
<glyph unicode="&#x2004;" horiz-adv-x="671" />
<glyph unicode="&#x2005;" horiz-adv-x="503" />
<glyph unicode="&#x2006;" horiz-adv-x="335" />
<glyph unicode="&#x2007;" horiz-adv-x="335" />
<glyph unicode="&#x2008;" horiz-adv-x="251" />
<glyph unicode="&#x2009;" horiz-adv-x="403" />
<glyph unicode="&#x200a;" horiz-adv-x="111" />
<glyph unicode="&#x2010;" horiz-adv-x="692" d="M201 545q0 8 2 20l8 49q3 16 12.5 25t18.5 9l8 1h420q26 0 26 -24l-2 -27l-6 -41q-6 -35 -41 -35h-416q-30 0 -30 23z" />
<glyph unicode="&#x2011;" horiz-adv-x="692" d="M201 545q0 8 2 20l8 49q3 16 12.5 25t18.5 9l8 1h420q26 0 26 -24l-2 -27l-6 -41q-6 -35 -41 -35h-416q-30 0 -30 23z" />
<glyph unicode="&#x2012;" horiz-adv-x="692" d="M201 545q0 8 2 20l8 49q3 16 12.5 25t18.5 9l8 1h420q26 0 26 -24l-2 -27l-6 -41q-6 -35 -41 -35h-416q-30 0 -30 23z" />
<glyph unicode="&#x2013;" horiz-adv-x="1089" d="M201 545q0 8 2 20l8 49q3 16 12.5 25t18.5 9l8 1h817q27 0 27 -24l-2 -27l-7 -41q-6 -35 -41 -35h-813q-30 0 -30 23z" />
<glyph unicode="&#x2014;" horiz-adv-x="1789" d="M201 545q0 8 2 20l8 49q3 16 12.5 25t18.5 9l8 1h1517q27 0 27 -24l-2 -27l-6 -41q-6 -35 -41 -35h-1514q-30 0 -30 23z" />
<glyph unicode="&#x2018;" horiz-adv-x="333" d="M225 1159q2 12 11 29l167 285q23 40 68 40h39q11 0 17 -7t5 -17q0 -1 -2 -9t-4 -12l-131 -299q-6 -17 -17 -25.5t-17 -9.5t-17 -1h-92q-17 0 -23 7.5t-4 18.5z" />
<glyph unicode="&#x2019;" horiz-adv-x="331" d="M225 1157q0 12 6 21l131 299q14 36 52 36h92q28 0 24 -26q0 -11 -12 -29l-166 -284q-21 -41 -65 -41h-39q-11 0 -17.5 7t-5.5 17z" />
<glyph unicode="&#x201a;" horiz-adv-x="292" d="M-10 -166q0 15 2 19l98 299q6 17 16 25.5t16 9.5t17 1h90q31 0 31 -26q0 -17 -6 -29l-141 -287q-19 -39 -62 -39h-35q-26 0 -26 27z" />
<glyph unicode="&#x201c;" horiz-adv-x="579" d="M223 1159q0 11 6 29l142 287q15 38 61 38h35q27 0 27 -26q0 -3 -1 -10t-1 -9l-99 -299q-10 -36 -49 -36h-90q-31 0 -31 26zM510 1159q0 11 6 29l141 287q15 38 62 38h35q26 0 26 -26q0 -3 -1 -10t-1 -9l-98 -299q-10 -36 -49 -36h-90q-31 0 -31 26z" />
<glyph unicode="&#x201d;" horiz-adv-x="579" d="M223 1159q0 15 2 19l99 299q6 17 16 25.5t16 9.5t17 1h90q31 0 31 -26q0 -15 -7 -29l-141 -287q-18 -38 -61 -38h-35q-27 0 -27 26zM510 1159q0 15 2 19l98 299q6 17 16 25.5t16 9.5t17 1h91q30 0 30 -26q0 -17 -6 -29l-141 -287q-18 -38 -62 -38h-34q-27 0 -27 26z" />
<glyph unicode="&#x201e;" horiz-adv-x="563" d="M-10 -166q0 15 2 19l98 299q6 17 16 25.5t16 9.5t17 1h90q31 0 31 -26q0 -17 -6 -29l-141 -287q-19 -39 -62 -39h-35q-26 0 -26 27zM260 -166q0 15 2 19l98 299q12 36 50 36h90q30 0 30 -26q0 -17 -6 -29l-141 -287q-19 -39 -61 -39h-35q-27 0 -27 27z" />
<glyph unicode="&#x2022;" horiz-adv-x="591" d="M186 598q0 98 67.5 168t164.5 70q98 0 167.5 -70t69.5 -168q0 -97 -69.5 -164t-167.5 -67q-97 0 -164.5 67t-67.5 164z" />
<glyph unicode="&#x2026;" horiz-adv-x="1228" d="M100 76q-1 55 30.5 88t80.5 33q43 0 67.5 -30.5t24.5 -84.5q0 -53 -31.5 -83t-76.5 -30q-42 0 -67.5 29.5t-27.5 77.5zM530 76q-1 55 30.5 88t80.5 33q43 0 67.5 -30.5t24.5 -84.5q0 -53 -31.5 -83t-76.5 -30q-42 0 -67.5 29.5t-27.5 77.5zM956 76q-1 55 30.5 88t80.5 33 q43 0 67.5 -30.5t24.5 -84.5q0 -53 -31.5 -83t-76.5 -30q-42 0 -67.5 29.5t-27.5 77.5z" />
<glyph unicode="&#x202f;" horiz-adv-x="403" />
<glyph unicode="&#x2039;" horiz-adv-x="512" d="M190 508q0 30 29 67l199 267q16 23 28.5 32t34.5 9h62q7 0 12.5 -5.5t5.5 -13.5q0 -12 -8 -26l-213 -328l96 -334q4 -16 4 -24q0 -19 -22 -19h-51q-20 0 -29 8.5t-19 32.5l-120 299q-9 21 -9 35z" />
<glyph unicode="&#x203a;" horiz-adv-x="512" d="M131 152q0 12 8 26l213 328l-96 334q-4 16 -4 24q0 19 22 19h52q20 0 28.5 -8.5t18.5 -32.5l121 -299q8 -19 8 -35q0 -31 -29 -68l-199 -266q-16 -23 -28.5 -32t-34.5 -9h-61q-8 0 -13.5 5.5t-5.5 13.5z" />
<glyph unicode="&#x205f;" horiz-adv-x="503" />
<glyph unicode="&#x20ac;" horiz-adv-x="1056" d="M119 553q0 2 1 6t1 6l10 47q3 21 11 30t30 9h92q7 83 17 142h-84q-33 0 -33 22q0 2 1 6t1 6l10 45q3 21 11 30t30 9h86q22 94 53.5 175.5t80.5 158.5t109.5 131.5t144 87.5t181.5 33q275 0 332 -272q0 -2 1 -8.5t1 -8.5q0 -25 -30 -34l-56 -19q-21 -6 -35 -6 q-19 0 -28 29q-17 54 -41 90t-54 52.5t-55 22t-57 5.5q-72 0 -133.5 -36t-106.5 -100t-77 -138t-56 -163h484q26 0 26 -20q0 -5 -4 -17l-25 -53q-7 -16 -15 -22t-28 -6h-464q-15 -73 -21 -142h432q27 0 27 -18q0 -11 -4 -19l-25 -55q-7 -16 -15 -22.5t-28 -6.5h-391 q0 -399 250 -399q132 0 280 76q10 6 25 6q22 0 29 -25l20 -63q4 -16 4 -25q0 -26 -33 -43q-140 -80 -356 -80q-385 0 -385 545v8h-108q-33 0 -33 23z" />
<glyph unicode="&#x2122;" horiz-adv-x="1064" d="M270 1407v4l6 43q2 8 8 14.5t13 6.5h332q6 0 11 -5t5 -12v-4l-4 -43q-3 -20 -23 -20h-122l-82 -484q-4 -22 -29 -22h-45q-18 0 -18 16v6l86 484h-117q-21 0 -21 16zM600 901v4l102 467q13 59 35 83t58 24q33 0 51.5 -17.5t21.5 -62.5l25 -395l143 399q29 76 90 76 q70 0 70 -72l-2 -35l-53 -463q-3 -24 -23 -24h-47q-14 0 -14 18v6l61 496l-155 -410q-12 -32 -33 -46.5t-56 -14.5q-26 0 -40.5 19.5t-16.5 52.5l-26 401l-101 -504q-5 -18 -26 -18h-46q-18 0 -18 16z" />
<glyph unicode="&#x25fc;" horiz-adv-x="1075" d="M0 0v1075h1075v-1075h-1075z" />
</font>
</defs>
</svg>
