<?xml version="1.0" standalone="no"?>
<!DOCTYPE svg PUBLIC "-//W3C//DTD SVG 1.1//EN" "http://www.w3.org/Graphics/SVG/1.1/DTD/svg11.dtd" >
<svg xmlns="http://www.w3.org/2000/svg">
<metadata></metadata>
<defs>
<font id="comex_boldbold" horiz-adv-x="1218" >
<font-face units-per-em="2048" ascent="1536" descent="-512" />
<missing-glyph horiz-adv-x="512" />
<glyph unicode="&#xfb01;" horiz-adv-x="1290" d="M20 915v140q0 41 41 41h125v82q0 182 93 274t276 92q63 0 122 -14t93 -31q25 -14 25 -37q0 -10 -7 -28l-47 -113q-13 -33 -41 -33q-12 0 -52.5 9.5t-74.5 9.5q-60 0 -88 -30.5t-28 -102.5v-78h186q41 0 41 -41v-135q0 -46 -41 -46h-186v-829q0 -45 -41 -45h-189 q-41 0 -41 41v833h-125q-41 0 -41 41zM854 1341q0 74 43 111t113 37t113.5 -37t43.5 -111q0 -73 -43.5 -109t-113.5 -36t-113 36t-43 109zM877 41v1014q0 41 41 41h188q41 0 41 -41v-1010q0 -45 -41 -45h-188q-41 0 -41 41z" />
<glyph unicode="&#xfb02;" horiz-adv-x="1290" d="M20 915v140q0 41 41 41h125v82q0 182 93 274t276 92q63 0 122 -14t93 -31q25 -14 25 -37q0 -10 -7 -28l-47 -113q-13 -33 -41 -33q-12 0 -52.5 9.5t-74.5 9.5q-60 0 -88 -30.5t-28 -102.5v-78h186q41 0 41 -41v-135q0 -46 -41 -46h-186v-829q0 -45 -41 -45h-189 q-41 0 -41 41v833h-125q-41 0 -41 41zM877 41v1417q0 42 30 47l170 35q20 4 35 4q13 0 24 -9.5t11 -27.5v-1462q0 -45 -41 -45h-188q-41 0 -41 41z" />
<glyph horiz-adv-x="0" />
<glyph horiz-adv-x="682" />
<glyph unicode=" "  horiz-adv-x="512" />
<glyph unicode="&#x09;" horiz-adv-x="512" />
<glyph unicode="&#xa0;" horiz-adv-x="512" />
<glyph unicode="!" horiz-adv-x="643" d="M82 150q0 72 53 123t129 51q72 0 123 -51t51 -123q0 -76 -51 -129.5t-123 -53.5q-76 0 -129 53t-53 130zM100 1550q0 52 45 52h234q43 0 43 -50l-47 -1085q-3 -49 -43 -49h-131q-45 0 -45 49z" />
<glyph unicode="&#x22;" horiz-adv-x="618" d="M20 1524q0 39 39 39h172q39 0 39 -39l-30 -310q-3 -45 -41 -45h-107q-38 0 -41 45zM348 1524q0 39 39 39h172q39 0 39 -39l-31 -310q-3 -45 -41 -45h-106q-38 0 -41 45z" />
<glyph unicode="#" horiz-adv-x="1503" d="M72 475q0 2 3.5 18.5t7.5 36.5t5 23l8 39q6 25 14.5 33t30.5 8h248l43 262h-252q-11 0 -22 6.5t-11 18.5q0 2 4 18.5t8 35.5t5 23l8 39q6 25 14.5 33t30.5 8h246l65 406q7 29 17 37t37 8h116q12 0 20.5 -7.5t8.5 -17.5q0 -14 -2 -26l-66 -400h293l66 406q7 29 17 37t36 8 h117q12 0 20.5 -7.5t8.5 -17.5q0 -8 -3 -26l-65 -400h254q35 0 35 -24q0 -7 -2 -17l-25 -108q-2 -11 -5.5 -17t-12 -11t-23.5 -5h-250l-43 -262h250q35 0 35 -25q0 -6 -2 -16l-25 -109q-2 -11 -5.5 -17t-12 -10.5t-23.5 -4.5h-247l-66 -412q-3 -23 -14.5 -31t-38.5 -8h-115 q-12 0 -21.5 8.5t-9.5 18.5t2 22l66 402h-293l-65 -412q-3 -23 -15 -31t-39 -8h-114q-12 0 -21.5 8.5t-9.5 18.5t2 22l65 402h-256q-11 0 -21.5 6t-10.5 18zM588 633h291l43 262h-291z" />
<glyph unicode="$" horiz-adv-x="1130" d="M82 109q0 6 8 34l51 140q9 26 33 26q16 0 31 -6q188 -78 342 -78q94 0 154.5 40.5t60.5 123.5q0 25 -6 47t-12.5 37t-24 31t-28 24.5t-37.5 22t-38.5 18.5t-44.5 19l-143 61q-74 32 -127.5 65t-99.5 79t-69 108t-23 139q0 161 100 269t254 127v155q0 47 41 47h119 q41 0 41 -47v-149q114 -13 204.5 -71.5t132.5 -162.5q7 -14 7 -26q0 -26 -33 -39l-133 -51q-14 -7 -29 -7q-24 0 -43 27q-67 96 -190 96q-87 0 -136 -38.5t-49 -106.5q0 -20 4.5 -38t10.5 -31t20 -26t24 -21t31 -19.5t33.5 -17t39 -18t40.5 -18.5l154 -73q167 -79 231 -171 t64 -220q0 -178 -101.5 -287t-281.5 -137v-152q0 -47 -41 -47h-119q-41 0 -41 47v148q-103 10 -208 37t-146 51q-27 14 -27 39z" />
<glyph unicode="%" horiz-adv-x="1628" d="M20 1114q0 52 12 101.5t38.5 95.5t65 80t95.5 54.5t127 20.5q88 0 156 -30t108 -80t60 -110.5t20 -127.5q0 -71 -20 -133.5t-60.5 -113t-108 -80t-155.5 -29.5q-87 0 -153.5 30t-106 80.5t-59 112t-19.5 129.5zM262 29q0 17 12 37l826 1345q15 27 32.5 38t47.5 11h114 q27 0 27 -26q0 -17 -12 -37l-826 -1346q-15 -27 -32.5 -38t-47.5 -11h-114q-27 0 -27 27zM262 1116q0 -168 96 -168q53 0 78 40t25 128q0 87 -25 125.5t-78 38.5q-96 0 -96 -164zM864 330q0 52 12 101.5t38.5 95.5t65 80t95.5 54.5t127 20.5q88 0 156 -30t108 -80t60 -110.5 t20 -127.5q0 -71 -20 -133.5t-60.5 -113.5t-108 -80.5t-155.5 -29.5q-87 0 -153.5 30t-106 81t-59 112.5t-19.5 129.5zM1106 332q0 -168 96 -168q53 0 78 40t25 128q0 87 -25 125.5t-78 38.5q-96 0 -96 -164z" />
<glyph unicode="&#x26;" horiz-adv-x="1359" d="M61 373q0 73 23.5 140t65.5 121t90.5 96t107.5 77l-18 24q-101 125 -101 267t98.5 233.5t286.5 91.5q98 0 178 -31.5t132.5 -103.5t52.5 -176q0 -151 -148 -272q-28 -21 -47 -21q-20 0 -34 17l-84 96q-17 21 -17 31q0 13 19 32q53 50 53 105q0 45 -31 72.5t-74 27.5 q-58 0 -90 -31t-32 -77q0 -34 10.5 -62t46.5 -72l381 -479q52 103 71 248q6 47 46 47h147q29 0 38 -12.5t9 -36.5q0 -84 -42.5 -226.5t-98.5 -224.5l24 -28q27 -35 68 -35q14 0 39 4t41 4q21 0 28 -31l25 -122l2 -12q2 -11 2 -17q0 -23 -24 -33q-67 -27 -168 -27 q-102 0 -166 62q-35 35 -45 47q-81 -55 -171.5 -82t-219.5 -27q-93 0 -176 23.5t-150.5 69.5t-107.5 124t-40 179zM334 377q0 -80 53.5 -133.5t151.5 -53.5q66 0 136.5 23.5t102.5 58.5l-291 353q-153 -87 -153 -248z" />
<glyph unicode="'" horiz-adv-x="290" d="M20 1524q0 39 39 39h172q39 0 39 -39l-30 -310q-3 -45 -41 -45h-107q-38 0 -41 45z" />
<glyph unicode="(" horiz-adv-x="761" d="M113 633q0 55 3 108t15.5 132.5t33 149t59 148t90 140t130 114.5t174.5 82q8 4 27 4q26 0 37 -30l51 -121q8 -20 8 -29q0 -21 -28 -37q-73 -37 -128.5 -89.5t-89 -114.5t-55 -120t-30.5 -126.5t-12 -112.5t-3 -98q0 -46 1 -81.5t8 -95.5t19 -108t35.5 -108t56 -107.5 t83.5 -94t115 -79.5q28 -16 28 -37q0 -8 -8 -28l-51 -121q-12 -31 -37 -31q-19 0 -27 4q-77 23 -142.5 61.5t-113 83.5t-86.5 102.5t-64.5 113t-44.5 120t-29 117.5t-16 112t-7.5 97.5t-1.5 79.5z" />
<glyph unicode=")" horiz-adv-x="761" d="M113 -78q0 21 28 37q64 33 115 79.5t83.5 94t56 107.5t35.5 108t19 108t8 95.5t1 81.5q0 54 -3 98t-12 112.5t-30.5 126.5t-55 120t-89 114.5t-128.5 89.5q-28 16 -28 37q0 9 8 29l51 121q11 30 37 30q19 0 27 -4q96 -29 174.5 -82t130 -114.5t90 -140t59 -148t33 -149 t15.5 -132.5t3 -108q0 -41 -1.5 -79.5t-7.5 -97.5t-16 -112t-29 -117.5t-44.5 -120t-64.5 -113t-86.5 -102.5t-113 -83.5t-142.5 -61.5q-8 -4 -27 -4q-25 0 -37 31l-51 121q-8 20 -8 28z" />
<glyph unicode="*" horiz-adv-x="686" d="M20 1294q0 6 3 15l47 131q9 26 34 26q6 0 12 -2t12 -5t7 -3l156 -110l-53 200l-1 6q-1 6 -1 11q0 39 40 39h140q37 0 37 -39q0 -9 -2 -17l-58 -200l158 110q1 0 7 3t12 5t12 2q25 0 34 -26l48 -131q2 -6 2 -15q0 -31 -29 -37q-2 0 -7 -1t-7 -1l-172 -14l141 -119 q16 -14 18 -37q0 -19 -20 -30l-121 -74q-12 -6 -25 -6q-25 0 -34 33l-68 192l-66 -192q-9 -33 -34 -33q-13 0 -25 6l-121 74q-20 11 -20 30q1 10 5.5 19.5t8.5 13.5l4 4l142 119l-173 14q-2 0 -7 1t-7 1q-29 6 -29 37z" />
<glyph unicode="+" horiz-adv-x="1071" d="M102 524v105q0 41 41 41h301v329q0 41 41 41h109q41 0 41 -41v-329h293q41 0 41 -41v-101q0 -45 -41 -45h-293v-317q0 -45 -41 -45h-109q-41 0 -41 41v321h-301q-41 0 -41 41z" />
<glyph unicode="," horiz-adv-x="468" d="M20 -176q0 4 3 16l108 383q11 51 55 51h181q41 0 41 -34q0 -19 -9 -37l-176 -367q-21 -47 -82 -47h-78q-20 0 -31.5 10t-11.5 25z" />
<glyph unicode="-" horiz-adv-x="819" d="M102 506v162q0 19 11 30t28 11h537q39 0 39 -41v-162q0 -41 -41 -41h-533q-41 0 -41 41z" />
<glyph unicode="." horiz-adv-x="520" d="M102 125q0 66 46 113t110 47q66 0 113 -47t47 -113q0 -64 -47 -110t-113 -46q-64 0 -110 45.5t-46 110.5z" />
<glyph unicode="/" horiz-adv-x="768" d="M123 12q0 13 2 19l432 1476q7 26 21 36.5t40 10.5h105q35 0 35 -32q0 -13 -2 -19l-432 -1476q-7 -26 -21.5 -36.5t-40.5 -10.5h-104q-35 0 -35 32z" />
<glyph unicode="0" horiz-adv-x="1239" d="M82 713q0 90 11.5 173.5t35.5 166t66.5 150t100 119.5t140 81t182.5 29q119 0 213.5 -41.5t154.5 -110t99.5 -163t55.5 -194t16 -210.5q0 -119 -16 -222.5t-55.5 -199.5t-99 -164.5t-152.5 -109t-211 -40.5q-119 0 -213 40t-155 107.5t-100.5 163t-56 200t-16.5 225.5z M358 711q0 -494 260 -494q263 0 263 494q0 481 -260 481q-263 0 -263 -481z" />
<glyph unicode="1" horiz-adv-x="970" d="M123 43v150q0 45 47 45h213v933h-199q-41 0 -41 46v151q0 41 41 41h295q106 0 139 -40t33 -146v-985h191q47 0 47 -48v-147q0 -43 -49 -43h-668q-27 0 -38 10.5t-11 32.5z" />
<glyph unicode="2" horiz-adv-x="1122" d="M82 143q0 89 70 156l354 344q128 125 175.5 205t47.5 174q0 82 -46 131t-136 49q-133 0 -213 -125q-13 -22 -35 -22q-19 0 -35 6l-108 43q-15 7 -22.5 14.5t-9 13t-1.5 15.5q0 16 10 39q16 36 39 68.5t60 65.5t82 57.5t108 39.5t135 15q114 0 200.5 -31.5t138.5 -87 t77.5 -126.5t25.5 -155q0 -122 -50.5 -234t-170.5 -233l-203 -190l-163 -142l184 5l379 4q45 0 45 -47v-156q0 -39 -47 -39h-731q-72 0 -116 38.5t-44 104.5z" />
<glyph unicode="3" horiz-adv-x="1085" d="M82 115q0 10 8 30l53 129q13 29 37 29q9 0 21 -4q176 -80 309 -80q103 0 162 48.5t59 148.5q0 194 -266 194h-193q-47 0 -47 39v154q0 47 45 47h195q95 0 151 48.5t56 133.5q0 26 -6 50t-22 52.5t-53 46t-91 17.5q-135 0 -215 -123q-14 -24 -39 -24q-15 0 -31 8l-104 53 q-23 13 -23 35q0 21 14 49q60 120 170.5 178t243.5 58q202 0 315 -98t113 -259q0 -112 -61.5 -200t-161.5 -132q58 -15 106.5 -41.5t89.5 -66t64 -96.5t23 -127q0 -205 -136 -320t-358 -115q-99 0 -216.5 28.5t-187.5 72.5q-24 17 -24 37z" />
<glyph unicode="4" horiz-adv-x="1165" d="M0 465q0 82 59 158l594 747q20 26 35.5 32.5t40.5 6.5h213q14 0 23.5 -9t9.5 -26q0 -19 -12 -33l-527 -612l-160 -186l226 2l215 2v336q0 41 41 41h174q41 0 41 -41v-332h104q47 0 47 -47v-139q0 -22 -11 -32.5t-38 -10.5h-102v-277q0 -45 -41 -45h-174q-41 0 -41 41v281 h-547q-85 0 -127.5 39.5t-42.5 103.5z" />
<glyph unicode="5" horiz-adv-x="1097" d="M82 113q0 14 10 37l53 131q11 22 33 22q12 0 27 -6q2 -1 20.5 -9t36.5 -15.5t48.5 -18t59.5 -17.5t66 -12.5t72 -5.5q106 0 170.5 53t64.5 144q0 57 -19 97.5t-50 64.5t-82.5 37.5t-103.5 17.5t-126 4h-167q-23 0 -40.5 12.5t-17.5 40.5v533q0 106 33 146t139 40h580 q41 0 41 -41v-151q0 -46 -41 -46h-483v-303h32q135 0 237.5 -23t166.5 -61.5t103.5 -96t55 -119.5t15.5 -138q0 -118 -39 -207t-108 -141.5t-157 -78.5t-194 -26q-212 0 -399 93q-37 18 -37 43z" />
<glyph unicode="6" horiz-adv-x="1171" d="M82 698q0 167 31 296.5t82 211t124 133.5t150.5 72.5t167.5 20.5q149 0 246 -60t141 -155q10 -20 10 -39q0 -22 -28 -39q-15 -8 -62 -31t-61 -29q-16 -8 -31 -8q-20 0 -35 21q-39 54 -84.5 77t-107.5 23q-69 0 -120.5 -32.5t-81 -90t-44.5 -123.5t-19 -145 q128 119 302 119q70 0 131 -14.5t116.5 -48t95 -84t62.5 -126.5t23 -172q0 -222 -131.5 -360t-356.5 -138q-135 0 -237 55.5t-163 155t-90.5 227.5t-29.5 283zM362 584q6 -103 31.5 -183.5t80 -134t130.5 -53.5q101 0 160 72.5t59 187.5q0 99 -48.5 159t-151.5 60 q-156 0 -261 -108z" />
<glyph unicode="7" horiz-adv-x="978" d="M0 1214v148q0 47 45 47h752q98 0 140 -40.5t42 -115.5t-43 -159l-528 -1051q-12 -24 -32.5 -33.5t-58.5 -9.5h-178q-43 0 -43 39q0 10 6 22l496 897l117 211l-307 -2h-351q-30 0 -43.5 9t-13.5 38z" />
<glyph unicode="8" horiz-adv-x="1226" d="M82 408q0 108 61.5 203.5t173.5 144.5q-91 59 -136.5 129t-45.5 176q0 164 129.5 267.5t349.5 103.5q120 0 214 -31t150.5 -83.5t85 -118t28.5 -138.5q0 -195 -187 -305q115 -47 177.5 -140.5t62.5 -216.5q0 -67 -16.5 -126.5t-56.5 -114.5t-99.5 -94.5t-151.5 -63 t-207 -23.5q-261 0 -396.5 114t-135.5 317zM362 426q0 -92 64 -152.5t186 -60.5q115 0 183.5 53.5t68.5 161.5q0 90 -59.5 151.5t-192.5 61.5q-124 0 -187 -60.5t-63 -154.5zM412 1036q0 -73 51 -128.5t151 -55.5q102 0 151.5 54.5t49.5 129.5q0 72 -51.5 126.5t-149.5 54.5 q-104 0 -153 -53t-49 -128z" />
<glyph unicode="9" horiz-adv-x="1171" d="M82 932q0 222 133.5 361t359.5 139q134 0 235 -54.5t161.5 -153t89.5 -225t29 -280.5q0 -126 -16 -231.5t-56.5 -202t-103 -163.5t-160 -106t-224.5 -39q-148 0 -243.5 60.5t-139.5 155.5q-10 20 -10 38q0 26 29 39l123 62q16 8 30 8q20 0 35 -21q40 -56 83.5 -81 t101.5 -25q69 0 122 33.5t83.5 91.5t46.5 124.5t20 143.5q-117 -114 -303 -114q-88 0 -162 23.5t-134.5 73.5t-95 137.5t-34.5 205.5zM346 938q0 -221 203 -221q155 0 260 108q-3 101 -27 181.5t-79 135t-134 54.5q-102 0 -162.5 -70.5t-60.5 -187.5z" />
<glyph unicode=":" horiz-adv-x="520" d="M102 125q0 66 46 113t110 47q66 0 113 -47t47 -113q0 -64 -47 -110t-113 -46q-64 0 -110 45.5t-46 110.5zM102 872q0 66 46 113t110 47q66 0 113 -47t47 -113q0 -64 -47 -109.5t-113 -45.5q-65 0 -110.5 45.5t-45.5 109.5z" />
<glyph unicode=";" horiz-adv-x="542" d="M20 -176q0 4 3 16l108 383q11 51 55 51h181q41 0 41 -34q0 -19 -9 -37l-176 -367q-21 -47 -82 -47h-78q-20 0 -31.5 10t-11.5 25zM125 872q0 66 46 113t110 47q66 0 112.5 -47t46.5 -113q0 -64 -46.5 -109.5t-112.5 -45.5q-65 0 -110.5 45.5t-45.5 109.5z" />
<glyph unicode="&#x3c;" horiz-adv-x="946" d="M102 725v68q0 67 58 102l608 369q21 14 41 14q35 0 35 -31v-92q0 -30 -10.5 -51t-42.5 -41l-472 -301l472 -307q32 -20 42.5 -41t10.5 -52v-90q0 -30 -35 -30q-20 0 -41 14l-602 365q-35 21 -49.5 44t-14.5 60z" />
<glyph unicode="=" horiz-adv-x="894" d="M102 354v107q0 41 41 41h609q41 0 41 -41v-103q0 -45 -41 -45h-609q-41 0 -41 41zM102 713v106q0 41 41 41h609q41 0 41 -41v-102q0 -45 -41 -45h-609q-41 0 -41 41z" />
<glyph unicode="&#x3e;" horiz-adv-x="946" d="M102 272v90q0 30 11 51.5t43 41.5l471 307l-471 301q-32 21 -43 41.5t-11 50.5v92q0 31 35 31q20 0 41 -14l608 -369q58 -35 58 -102v-68q0 -37 -14.5 -60t-49.5 -44l-602 -365q-21 -14 -41 -14q-35 0 -35 30z" />
<glyph unicode="?" horiz-adv-x="948" d="M20 1290q0 3 5 23q42 133 163.5 212t272.5 79q70 0 133.5 -13.5t123.5 -44.5t103.5 -77.5t70 -118.5t26.5 -162q0 -69 -19 -132.5t-55.5 -118.5t-67.5 -91.5t-76 -81.5t-68 -71t-43 -64t-20 -74v-88q0 -21 -10.5 -34t-30.5 -13h-206q-46 0 -46 45v96q0 103 41.5 174 t151.5 183q82 84 117 141.5t35 130.5q0 78 -47 114.5t-123 36.5q-64 0 -113.5 -32.5t-91.5 -106.5q-12 -24 -39 -24q-9 0 -21 4l-139 65q-27 11 -27 43zM248 152q0 72 53 123t129 51q72 0 123 -51t51 -123q0 -76 -51 -129.5t-123 -53.5q-76 0 -129 53t-53 130z" />
<glyph unicode="@" horiz-adv-x="1624" d="M61 772q0 380 199 582t580 202q368 0 545.5 -179.5t177.5 -542.5q0 -133 -33.5 -237t-90.5 -167t-127.5 -95t-148.5 -32q-86 0 -135 27.5t-70 99.5q-37 -64 -107 -95.5t-140 -31.5q-171 0 -258.5 120.5t-87.5 338.5q0 120 32 212.5t85.5 146.5t117.5 81t135 27 q147 0 230 -113l14 58q9 38 43 38h131q37 0 37 -49v-631q0 -55 39 -55q188 0 188 357q0 138 -26 240.5t-73.5 169.5t-121 108t-161 58t-201.5 17q-631 0 -631 -657q0 -659 620 -659q131 0 275 33.5t252 97.5q24 12 34 12q19 0 29 -16l33 -50q8 -13 8 -24q0 -20 -22 -35 q-247 -152 -609 -152q-183 0 -321 44.5t-238 138.5t-151.5 247.5t-51.5 364.5zM610 758q0 -36 2 -64t11 -68t24.5 -66t46.5 -45t74 -19q58 0 99.5 19.5t84.5 62.5v378q-33 46 -71 66t-97 20q-174 0 -174 -284z" />
<glyph unicode="A" horiz-adv-x="1419" d="M20 33q0 9 5 24l424 1209q12 32 20 52t30 55t46 56t64.5 37.5t88.5 16.5h23q48 0 88.5 -16.5t65 -37.5t46 -56t30 -55t20.5 -52l424 -1209q4 -12 4 -24q0 -13 -10.5 -23t-24.5 -10h-190q-29 0 -43 9.5t-23 35.5l-119 354h-561l-117 -354q-9 -26 -22.5 -35.5t-42.5 -9.5 h-191q-14 0 -24.5 10t-10.5 23zM504 629h409l-114 370l-90 287l-86 -287z" />
<glyph unicode="B" horiz-adv-x="1294" d="M164 45v1380q0 44 39 48q91 12 393 12q64 0 116 -3t114 -12.5t109.5 -26t94.5 -45.5t77.5 -68t49.5 -96.5t19 -129.5q0 -118 -66 -193t-166 -112q130 -36 204.5 -124.5t74.5 -232.5q0 -454 -619 -454q-323 0 -401 12q-39 4 -39 45zM451 233q66 -8 198 -8q281 0 281 228 q0 120 -75.5 176.5t-203.5 56.5h-200v-453zM451 909h196q238 0 238 176q0 44 -16.5 75t-39.5 47t-63.5 25t-73.5 11t-84 2q-84 0 -157 -8v-328z" />
<glyph unicode="C" horiz-adv-x="1288" d="M82 750q0 116 18 217.5t64 201t118.5 170.5t189 114.5t267.5 43.5q104 0 189.5 -22.5t144.5 -62t98.5 -86.5t63.5 -103q10 -23 10 -39q0 -23 -39 -39l-114 -45q-23 -10 -43 -10q-21 0 -43 28q-55 73 -117.5 102t-153.5 29q-78 0 -140 -27.5t-102.5 -74t-67.5 -111.5 t-38.5 -137t-11.5 -154q0 -77 10 -145t37 -136.5t70 -117t113 -78.5t161 -30q184 0 358 69q12 6 29 6q25 0 33 -22l57 -156q4 -12 4 -22q0 -26 -30 -41q-79 -38 -203.5 -66.5t-272.5 -28.5q-144 0 -257 39.5t-188 108.5t-123.5 167.5t-69.5 211.5t-21 246z" />
<glyph unicode="D" horiz-adv-x="1495" d="M164 51v1376q0 43 43 46q132 12 405 12q80 0 144 -3.5t148 -18t149 -39t130 -70.5t109 -109q121 -173 121 -500q0 -577 -371 -706q-148 -51 -409 -51q-328 0 -430 12q-22 3 -30.5 14.5t-8.5 36.5zM449 233q88 -8 221 -8q153 0 252 45q101 46 149.5 158.5t48.5 306.5 q0 248 -73 361q-38 60 -106 94t-141.5 44.5t-176.5 10.5q-76 0 -174 -8v-1004z" />
<glyph unicode="E" horiz-adv-x="1087" d="M143 193v1095q0 107 33 147t139 40h658q41 0 41 -41v-156q0 -45 -41 -45h-543v-320h459q41 0 41 -41v-153q0 -45 -41 -45h-459v-432h576q41 0 41 -41v-156q0 -45 -41 -45h-693q-57 0 -91.5 11t-51.5 38t-22 58.5t-5 85.5z" />
<glyph unicode="F" horiz-adv-x="1054" d="M164 41v1247q0 107 33 147t139 40h657q41 0 41 -41v-156q0 -45 -41 -45h-542v-320h479q41 0 41 -41v-153q0 -45 -41 -45h-479v-629q0 -45 -41 -45h-205q-41 0 -41 41z" />
<glyph unicode="G" horiz-adv-x="1374" d="M82 727q0 382 171.5 576t494.5 194q392 0 503 -276q9 -27 9 -35q0 -16 -7 -25t-26 -16l-133 -51q-14 -7 -25 -7q-26 0 -41 23q-33 47 -68 77t-72.5 42.5t-64.5 16t-67 3.5q-104 0 -179.5 -38.5t-118.5 -109t-63 -160t-20 -202.5q0 -88 9 -158t34 -138.5t67 -114 t111.5 -73.5t163.5 -28q141 0 239 31v299h-192q-23 0 -34 9.5t-11 33.5v150q0 47 43 47h307q86 0 123 -37t37 -131v-443q0 -66 -22.5 -94.5t-88.5 -50.5q-192 -64 -428 -64q-148 0 -263 42t-187 112t-118.5 169t-64.5 203t-18 224z" />
<glyph unicode="H" horiz-adv-x="1554" d="M164 41v1393q0 41 41 41h203q41 0 41 -41v-521h655v521q0 41 41 41h205q41 0 41 -41v-1389q0 -45 -41 -45h-205q-41 0 -41 41v633h-655v-629q0 -45 -41 -45h-203q-41 0 -41 41z" />
<glyph unicode="I" horiz-adv-x="614" d="M164 41v1393q0 41 41 41h205q41 0 41 -41v-1389q0 -45 -41 -45h-205q-41 0 -41 41z" />
<glyph unicode="J" horiz-adv-x="903" d="M20 80q0 19 7 33l53 139q11 33 39 33q16 0 28 -6q104 -39 181 -39q125 0 125 135v860h-213q-41 0 -41 45v154q0 41 41 41h438q34 0 47.5 -12.5t13.5 -41.5v-1054q0 -73 -9 -128.5t-34.5 -106.5t-68 -83.5t-112 -52t-163.5 -19.5q-182 0 -305 66q-27 15 -27 37z" />
<glyph unicode="K" horiz-adv-x="1368" d="M164 41v1393q0 41 41 41h203q41 0 41 -41v-527h178l358 533q22 35 68 35h217q37 0 37 -33q0 -11 -17 -35l-434 -612l485 -727q17 -24 17 -39q0 -10 -8.5 -19.5t-26.5 -9.5h-217q-29 0 -45.5 6.5t-32.5 30.5l-405 635h-174v-627q0 -45 -41 -45h-203q-41 0 -41 41z" />
<glyph unicode="L" horiz-adv-x="1081" d="M164 193v1241q0 41 41 41h207q41 0 41 -41v-1192h567q41 0 41 -41v-156q0 -45 -41 -45h-686q-57 0 -91.5 11t-51.5 38t-22 58.5t-5 85.5z" />
<glyph unicode="M" horiz-adv-x="1890" d="M125 39l61 1190q13 254 254 254q61 0 105.5 -14.5t74 -45t47.5 -67t33 -90.5l197 -777l47 -208l49 208l195 764q32 123 91.5 176.5t180.5 53.5q232 0 244 -258l63 -1186q0 -39 -34 -39h-199q-37 0 -37 43l-43 1044l-10 185l-45 -185l-215 -804q-21 -75 -78.5 -130 t-155.5 -55h-18q-50 0 -90 17t-66.5 46t-42.5 59.5t-26 64.5l-205 772l-56 219l-10 -236l-39 -997q0 -43 -37 -43h-200q-35 0 -35 39z" />
<glyph unicode="N" horiz-adv-x="1581" d="M164 49v1172q0 125 63.5 193.5t184.5 68.5q99 0 156.5 -52.5t121.5 -183.5l318 -672l145 -327l-12 475l-4 704q0 27 10 37.5t35 10.5h188q26 0 36.5 -9.5t10.5 -38.5v-1191q0 -112 -64 -178t-177 -66q-99 0 -165.5 56t-117.5 163l-326 688l-141 348l14 -481l4 -717 q0 -28 -10 -38.5t-37 -10.5h-190q-26 0 -34.5 12t-8.5 37z" />
<glyph unicode="O" horiz-adv-x="1484" d="M82 743q0 170 38 303.5t100 216.5t149.5 137t178 75.5t193.5 21.5t194.5 -21.5t179 -75.5t150 -137.5t100.5 -216t38 -301.5q0 -175 -38 -310.5t-100 -220.5t-149.5 -139.5t-179 -76t-195.5 -21.5q-103 0 -193.5 21t-178 75.5t-149.5 138.5t-100 220t-38 311zM375 741 q0 -107 21 -199t63.5 -166.5t114.5 -117.5t167 -43q93 0 164.5 39.5t115.5 111.5t66.5 167.5t22.5 211.5q0 114 -20 205t-62 162t-114.5 109.5t-170.5 38.5q-97 0 -168.5 -38t-114.5 -108.5t-64 -163t-21 -209.5z" />
<glyph unicode="P" horiz-adv-x="1196" d="M164 41v1386q0 38 35 46q16 4 142.5 8t207.5 4q179 0 310.5 -30.5t211.5 -111.5q105 -108 105 -327q0 -93 -22 -169.5t-58 -128.5t-88.5 -91t-105.5 -61t-117.5 -36t-117 -18t-110.5 -4h-106v-463q0 -45 -41 -45h-205q-41 0 -41 41zM451 750q57 -2 114 -2q96 0 162 21 t98.5 60t45 81.5t12.5 99.5q0 73 -20.5 120.5t-63.5 72t-95 33.5t-131 9q-64 0 -122 -8v-487z" />
<glyph unicode="Q" horiz-adv-x="1484" d="M82 743q0 170 38 303.5t100 216.5t149.5 137t178 75.5t193.5 21.5t194.5 -21.5t179 -75.5t150 -137.5t100.5 -216t38 -301.5q0 -167 -34 -297.5t-96 -216.5t-138.5 -139.5t-171.5 -81.5l194 -182q12 -12 12 -29q0 -13 -7.5 -18.5t-26.5 -5.5h-191q-40 0 -61 8t-45 33 l-140 164q-99 5 -184 30t-166.5 81.5t-139 140.5t-92 214.5t-34.5 296.5zM375 741q0 -107 21 -199t63.5 -166.5t114.5 -117.5t167 -43q93 0 164.5 39.5t115.5 111.5t66.5 167.5t22.5 211.5q0 114 -20 205t-62 162t-114.5 109.5t-170.5 38.5q-97 0 -168.5 -38t-114.5 -108.5 t-64 -163t-21 -209.5z" />
<glyph unicode="R" horiz-adv-x="1286" d="M164 41v1386q0 36 31 43q80 15 342 15q128 0 223.5 -12t175.5 -42t130 -80t77.5 -127t27.5 -182q0 -285 -262 -399l359 -588q8 -12 8 -26q0 -29 -27 -29h-229q-27 0 -41 7t-27 30l-301 536q-149 0 -200 2v-534q0 -41 -35 -41h-219q-33 0 -33 41zM451 819q70 -6 137 -6 q157 0 226 58t69 165q0 54 -16.5 93t-43 61t-69 35t-84 16.5t-99.5 3.5q-48 0 -120 -8v-418z" />
<glyph unicode="S" horiz-adv-x="1130" d="M82 111q0 6 8 34l51 140q9 26 33 26q14 0 29 -6q192 -80 358 -80q87 0 145 49.5t58 126.5q0 76 -50.5 123t-146.5 88l-139 60q-73 31 -127.5 67t-99.5 84.5t-68.5 112.5t-23.5 141q0 187 128.5 303.5t342.5 116.5q151 0 256.5 -56.5t164.5 -185.5q7 -14 7 -26 q0 -26 -33 -39l-131 -51q-12 -6 -31 -6q-23 0 -47 30q-71 92 -186 92q-86 0 -135.5 -43t-49.5 -112q0 -27 6 -49.5t22 -41.5t29 -31.5t43 -29.5t45.5 -24.5t55.5 -26.5l143 -68q169 -80 239.5 -182.5t70.5 -230.5q0 -205 -129.5 -322t-372.5 -117q-126 0 -253 31.5 t-185 63.5q-27 14 -27 39z" />
<glyph unicode="T" horiz-adv-x="1150" d="M0 1278v156q0 41 41 41h1069q41 0 41 -41v-156q0 -45 -41 -45h-391v-1188q0 -45 -41 -45h-205q-41 0 -41 41v1192h-391q-41 0 -41 45z" />
<glyph unicode="U" horiz-adv-x="1476" d="M143 586v848q0 41 41 41h203q41 0 41 -41v-859q0 -184 78 -264t233 -80q153 0 231.5 81.5t78.5 262.5v859q0 41 41 41h202q41 0 41 -41v-848q0 -141 -31 -249t-99 -190.5t-185.5 -126t-280.5 -43.5q-129 0 -229.5 28t-169 79.5t-112.5 128t-63.5 168.5t-19.5 205z" />
<glyph unicode="V" horiz-adv-x="1372" d="M20 1444q2 14 11 22.5t22 8.5h195q29 0 40 -8.5t19 -34.5l291 -943l88 -296l88 296l295 943q8 26 19 34.5t40 8.5h191q13 0 22 -8.5t11 -22.5q0 -13 -4 -25l-400 -1210q-10 -30 -19.5 -52t-30.5 -55.5t-46 -55t-65.5 -38t-88.5 -16.5h-24q-48 0 -88.5 16.5t-65.5 38 t-46 55t-30.5 55.5t-19.5 52l-399 1210q-5 15 -5 25z" />
<glyph unicode="W" horiz-adv-x="1867" d="M41 1430q0 45 45 45h188q42 0 48 -48l108 -948l37 -280l63 282l172 680q23 91 76 133.5t144 42.5h28q90 0 142 -42.5t75 -133.5l168 -676l64 -282l41 289l106 935q6 48 47 48h189q45 0 45 -45q0 -11 -4 -35l-172 -1170q-16 -105 -73.5 -171t-154.5 -66h-26 q-81 0 -144.5 47.5t-89.5 142.5l-174 707l-55 248l-55 -248l-177 -707q-25 -97 -88.5 -143.5t-146.5 -46.5h-27q-97 0 -153 66t-72 171l-170 1170q-4 24 -4 35z" />
<glyph unicode="X" horiz-adv-x="1271" d="M0 33q0 14 6 26l434 721l-374 641q-7 11 -7 23q0 11 8 21t21 10h219q14 0 21.5 -1t19 -9.5t19.5 -24.5l178 -344l90 -172l96 180l174 336q8 16 19.5 24.5t19 9.5t21.5 1h219q13 0 20.5 -9.5t7.5 -21.5q0 -14 -6 -23l-372 -641l432 -721q6 -12 6 -26q0 -11 -9 -22t-22 -11 h-207q-28 0 -44 6.5t-29 28.5l-234 416l-92 161l-96 -168l-228 -409q-13 -22 -29 -28.5t-44 -6.5h-207q-13 0 -22 11t-9 22z" />
<glyph unicode="Y" horiz-adv-x="1196" d="M20 1444q0 11 8 21t21 10h217q14 0 21.5 -1t19 -9.5t19.5 -24.5l184 -373l88 -186l94 190l180 369q8 16 19.5 24.5t19 9.5t21.5 1h215q13 0 21 -10t8 -21q0 -12 -7 -23l-434 -794v-586q0 -41 -35 -41h-204q-35 0 -35 41v573l-434 807q-7 11 -7 23z" />
<glyph unicode="Z" horiz-adv-x="1220" d="M41 152q0 76 51 141l559 717l174 225h-239l-436 -2q-41 0 -41 45v156q0 41 41 41h851q83 0 123.5 -42t40.5 -102q0 -82 -51 -147l-559 -717l-174 -227h217l541 2q41 0 41 -41v-156q0 -45 -41 -45h-940q-63 0 -110.5 37t-47.5 115z" />
<glyph unicode="[" horiz-adv-x="636" d="M123 -63v1390q0 106 33 146t139 40h280q41 0 41 -40v-136q0 -45 -41 -45h-190v-1327h190q41 0 41 -41v-135q0 -45 -41 -45h-282q-57 0 -91.5 11t-51.5 38t-22 58.5t-5 85.5z" />
<glyph unicode="\" horiz-adv-x="768" d="M10 1522q0 32 35 32h105q26 0 40 -10.5t21 -36.5l432 -1476q2 -6 2 -19q0 -32 -35 -32h-104q-26 0 -40.5 10.5t-21.5 36.5l-432 1476q-2 6 -2 19z" />
<glyph unicode="]" horiz-adv-x="636" d="M20 -76q0 41 41 41h191v1327h-191q-41 0 -41 45v136q0 40 41 40h281q106 0 139 -40t33 -146v-1390q0 -54 -5 -85.5t-22 -58.5t-51.5 -38t-91.5 -11h-283q-41 0 -41 45v135z" />
<glyph unicode="^" horiz-adv-x="1241" d="M100 897q0 18 15 41l368 578q32 57 103 57h67q38 0 62 -15t43 -49l364 -571q15 -23 15 -41q0 -35 -31 -35h-90q-31 0 -52 10.5t-40 42.5l-308 441l-301 -441q-19 -32 -40 -42.5t-52 -10.5h-92q-31 0 -31 35z" />
<glyph unicode="_" horiz-adv-x="1323" d="M102 -174q0 19 11 30t28 11h1041q39 0 39 -41v-141q0 -41 -41 -41h-1037q-41 0 -41 41v141z" />
<glyph unicode="`" horiz-adv-x="698" d="M123 1567q0 30 37 30h176q41 0 61 -36l172 -271q6 -9 6 -22q0 -11 -9 -20t-19 -9h-111q-27 0 -43.5 9t-36.5 32l-223 258q-10 13 -10 29z" />
<glyph unicode="a" d="M61 539q0 121 28 223t84 182.5t149.5 126t216.5 45.5q192 0 278 -137l23 82q8 35 49 35h143q24 0 33.5 -11t9.5 -34v-801q0 -34 12 -50t50 -16q39 0 39 -43v-88q0 -45 -28.5 -56t-117.5 -11q-33 0 -58 2.5t-53 11.5t-48.5 24t-37 41.5t-24.5 63.5q-95 -152 -324 -152 q-144 0 -240.5 71.5t-140 195t-43.5 295.5zM340 543q0 -355 225 -355q79 0 142.5 31.5t97.5 97.5v461q-51 127 -221 127q-57 0 -101 -23t-70.5 -59t-43.5 -85.5t-23 -96.5t-6 -98z" />
<glyph unicode="b" d="M143 41v1417q0 42 31 47l170 35q20 4 35 4q13 0 24 -9.5t11 -27.5v-544q104 153 321 153q108 0 190 -41.5t132 -117t75 -175t25 -221.5q0 -149 -36 -263.5t-100 -183t-146.5 -103t-180.5 -34.5q-94 0 -166.5 29.5t-126.5 106.5l-20 -74q-11 -39 -59 -39h-138 q-41 0 -41 41zM414 315q13 -34 37 -59t48 -37.5t53 -20t46.5 -9t34.5 -1.5q124 0 185 97.5t61 273.5q0 44 -3.5 80.5t-11.5 78t-25 73.5t-42 58.5t-63.5 41t-88.5 14.5q-64 0 -128 -37.5t-103 -119.5v-433z" />
<glyph unicode="c" horiz-adv-x="1032" d="M61 551q0 130 29.5 231.5t91 177.5t163 116t239.5 40q160 0 259.5 -61.5t143.5 -192.5q4 -12 4 -20q0 -27 -30 -37l-123 -45q-15 -6 -37 -6q-19 0 -33 24q-30 51 -69.5 78t-114.5 27q-119 0 -182.5 -78.5t-63.5 -253.5q0 -158 67 -244t205 -86q117 0 273 47q21 6 35 6 q24 0 30 -26l31 -131q4 -20 4 -31q0 -28 -25 -39q-163 -70 -378 -70q-244 0 -381.5 145.5t-137.5 428.5z" />
<glyph unicode="d" horiz-adv-x="1239" d="M61 528q0 127 25.5 228.5t69 168t103.5 110.5t126 62.5t141 18.5q190 0 279 -119v461q0 42 31 47l170 35q16 4 34 4q13 0 24 -9.5t11 -27.5v-1462q0 -45 -41 -45h-137q-47 0 -59 39l-31 92q-108 -154 -328 -154q-109 0 -191 43t-130.5 119.5t-72.5 174t-24 214.5z M340 541q0 -353 225 -353q75 0 141 41.5t99 114.5v434q-56 127 -215 127q-67 0 -117 -28.5t-78 -80t-41.5 -115t-13.5 -140.5z" />
<glyph unicode="e" horiz-adv-x="1110" d="M61 537q0 284 132 431.5t395 147.5q108 0 190 -32t133 -85t82.5 -130.5t43.5 -159.5t12 -181q0 -27 -11 -42t-43 -15h-657q24 -252 283 -252q118 0 284 49q12 4 27 4q25 0 31 -24l32 -142q2 -12 2 -20q0 -17 -7.5 -26t-26.5 -17q-154 -66 -388 -66q-133 0 -233.5 44 t-161 122t-90 177t-29.5 217zM340 653h432q0 47 -8 86.5t-27.5 78t-60 61t-98.5 22.5q-108 0 -168 -69.5t-70 -178.5z" />
<glyph unicode="f" horiz-adv-x="733" d="M20 915v140q0 41 41 41h125v82q0 182 93 274t276 92q63 0 122 -14t93 -31q25 -14 25 -37q0 -10 -7 -28l-47 -113q-13 -33 -41 -33q-12 0 -52.5 9.5t-74.5 9.5q-60 0 -88 -30.5t-28 -102.5v-78h186q41 0 41 -41v-135q0 -46 -41 -46h-186v-829q0 -45 -41 -45h-189 q-41 0 -41 41v833h-125q-41 0 -41 41z" />
<glyph unicode="g" d="M61 539q0 121 28 223t84 182.5t149.5 126t216.5 45.5q192 0 278 -137l21 78q9 39 51 39h143q24 0 33.5 -11t9.5 -34v-1028q0 -433 -510 -433q-115 0 -226 17.5t-185 46.5q-31 13 -31 39q0 12 8 39l35 108q12 37 37 37q15 0 33 -6q171 -51 321 -51q250 0 250 188v123 q-97 -149 -320 -149q-214 0 -320 147.5t-106 409.5zM340 543q0 -355 225 -355q79 0 142.5 31.5t97.5 97.5v461q-51 127 -221 127q-57 0 -101 -23t-70.5 -59t-43.5 -85.5t-23 -96.5t-6 -98z" />
<glyph unicode="h" horiz-adv-x="1263" d="M143 41v1417q0 42 31 47l170 35q20 4 35 4q13 0 24 -9.5t11 -27.5v-544q32 44 72.5 75t73.5 45.5t74.5 22.5t60.5 9t48 1q377 0 377 -446v-625q0 -45 -41 -45h-188q-41 0 -41 41v612q0 140 -47.5 196t-145.5 56q-25 0 -53 -6t-63.5 -21.5t-69.5 -49.5t-57 -83v-700 q0 -45 -41 -45h-189q-41 0 -41 41z" />
<glyph unicode="i" horiz-adv-x="557" d="M121 1341q0 75 42.5 111.5t112.5 36.5t114 -37t44 -111q0 -73 -44 -109t-114 -36t-112.5 36t-42.5 109zM143 41v1014q0 41 41 41h189q41 0 41 -41v-1010q0 -45 -41 -45h-189q-41 0 -41 41z" />
<glyph unicode="j" horiz-adv-x="557" d="M-182 -338q0 16 6 37l33 111q9 30 34 30q9 0 57.5 -11t86.5 -11q60 0 84 31t24 106v1100q0 41 41 41h191q41 0 41 -41l-2 -1092q0 -92 -15 -155.5t-53.5 -115t-111.5 -77t-183 -25.5q-53 0 -112.5 10t-94.5 25q-26 11 -26 37zM121 1341q0 75 42.5 111.5t112.5 36.5 t114 -37t44 -111q0 -73 -44 -109t-114 -36t-112.5 36t-42.5 109z" />
<glyph unicode="k" horiz-adv-x="1146" d="M143 41v1417q0 42 31 47l170 35q20 4 35 4q13 0 24 -9.5t11 -27.5v-770h121l241 332q20 27 66 27h219q14 0 22.5 -9t8.5 -22q0 -15 -13 -31l-336 -424l375 -555q8 -14 8 -24q0 -12 -8.5 -21.5t-25.5 -9.5h-220q-41 0 -59 27l-309 491h-90v-473q0 -45 -41 -45h-189 q-41 0 -41 41z" />
<glyph unicode="l" horiz-adv-x="557" d="M143 41v1417q0 42 31 47l170 35q20 4 35 4q13 0 24 -9.5t11 -27.5v-1462q0 -45 -41 -45h-189q-41 0 -41 41z" />
<glyph unicode="m" horiz-adv-x="1912" d="M143 41v1014q0 41 41 41h140q39 0 49 -37l33 -109q104 166 335 166q233 0 314 -182q117 182 354 182q82 0 145 -22.5t112.5 -72.5t76 -138.5t26.5 -212.5v-625q0 -45 -40 -45h-189q-41 0 -41 41v612q0 142 -42 197t-138 55q-53 0 -115 -29t-102 -92v-739q0 -45 -41 -45 h-189q-41 0 -41 41v612q0 142 -42 197t-138 55q-24 0 -51 -6t-61.5 -21.5t-68 -49.5t-56.5 -83v-700q0 -45 -41 -45h-189q-41 0 -41 41z" />
<glyph unicode="n" horiz-adv-x="1263" d="M143 41v1014q0 41 41 41h138q15 0 24.5 -3t15 -10.5t8 -13.5t5.5 -18l31 -101q104 166 337 166q377 0 377 -446v-625q0 -45 -41 -45h-188q-41 0 -41 41v612q0 140 -47.5 196t-145.5 56q-25 0 -53 -6t-63.5 -21.5t-69.5 -49.5t-57 -83v-700q0 -45 -41 -45h-189 q-41 0 -41 41z" />
<glyph unicode="o" horiz-adv-x="1169" d="M61 547q0 283 143 426t388 143q243 0 379.5 -150.5t136.5 -418.5q0 -144 -39.5 -254.5t-110 -178.5t-163.5 -102.5t-205 -34.5q-244 0 -386.5 144.5t-142.5 425.5zM338 547q0 -361 252 -361q121 0 181 94.5t60 266.5q0 178 -61 269t-180 91q-252 0 -252 -360z" />
<glyph unicode="p" d="M143 -410v1461q0 45 41 45h138q43 0 55 -39l29 -109q32 51 72 86t85 52t86 23.5t90 6.5q109 0 191 -42.5t130.5 -119t72.5 -173.5t24 -214q0 -127 -25.5 -229t-69 -168.5t-103.5 -110.5t-126 -63t-141 -19q-189 0 -278 119v-502q0 -45 -41 -45h-189q-41 0 -41 41z M414 315q56 -127 215 -127q67 0 117 29t78 81t41.5 116t13.5 141q0 350 -226 350q-75 0 -140.5 -42t-98.5 -115v-433z" />
<glyph unicode="q" horiz-adv-x="1216" d="M61 535q0 149 36 263t100 183t146.5 103t180.5 34q94 0 166.5 -29t126.5 -106l21 74q11 39 59 39h135q41 0 41 -41v-1465q0 -45 -41 -45h-188q-41 0 -41 41v543q-105 -149 -320 -149q-108 0 -190 41.5t-132 117t-75 175t-25 221.5zM340 537q0 -53 4.5 -96.5t19 -92.5 t39 -81.5t68 -54.5t102.5 -22q63 0 127 36.5t103 115.5v438q-16 42 -46.5 70t-65.5 39t-59 14.5t-46 3.5q-124 0 -185 -97t-61 -273z" />
<glyph unicode="r" horiz-adv-x="829" d="M143 41v1014q0 41 41 41h138q22 0 34.5 -7.5t18.5 -29.5l33 -129q47 81 122 127.5t168 46.5q68 0 109 -21q22 -11 22 -34q0 -9 -4 -21l-45 -166q-6 -26 -37 -26q-8 0 -44.5 5t-65.5 5q-27 0 -53 -4.5t-58.5 -16t-61 -36.5t-46.5 -62v-682q0 -45 -41 -45h-189 q-41 0 -41 41z" />
<glyph unicode="s" horiz-adv-x="917" d="M72 90q0 5 4 29l33 125q7 26 34 26q7 0 25 -6q143 -53 270 -53q144 0 144 94q0 41 -31 66t-115 59l-88 35q-140 55 -199 135t-59 186q0 144 97 237t280 93q123 0 205 -45t141 -143q10 -20 10 -35q0 -20 -24 -35l-109 -57q-20 -10 -37 -10q-21 0 -37 24q-60 78 -149 78 q-48 0 -80.5 -23.5t-32.5 -68.5q0 -21 9.5 -39t19.5 -29t35 -24.5t37.5 -19t44.5 -19.5l69 -29q149 -61 213 -135t64 -193q0 -152 -106 -244t-308 -92q-80 0 -171.5 18t-158.5 52q-30 15 -30 43z" />
<glyph unicode="t" horiz-adv-x="765" d="M20 915v140q0 41 41 41h119v149q0 39 31 45l170 35q24 4 35 4q16 0 25.5 -10.5t9.5 -30.5v-192h227q41 0 41 -41v-135q0 -46 -41 -46h-227v-565q0 -90 81 -90q44 0 101 17q27 8 39 8q25 0 30 -27l29 -121q4 -24 4 -33q0 -26 -35 -43q-26 -13 -96 -28t-137 -15 q-137 0 -212 68t-75 225v604h-119q-41 0 -41 41z" />
<glyph unicode="u" horiz-adv-x="1243" d="M123 430v621q0 45 41 45h188q41 0 41 -41v-613q0 -140 47.5 -196t145.5 -56q26 0 53 5.5t63 20t70 48t57 82.5v705q0 45 41 45h189q41 0 41 -41v-1014q0 -41 -41 -41h-141q-26 0 -37.5 11t-18.5 34l-28 88q-36 -51 -85.5 -85t-99.5 -48t-83.5 -18.5t-65.5 -4.5 q-377 0 -377 453z" />
<glyph unicode="v" horiz-adv-x="1089" d="M0 1063q0 14 11 23.5t24 9.5h192q37 0 49 -37l181 -608l78 -265l79 263l181 610q12 37 49 37h190q13 0 24 -9.5t11 -23.5q0 -16 -6 -31l-299 -897q-25 -73 -84.5 -110t-128.5 -37h-31q-72 0 -132 38.5t-85 114.5l-297 891q-6 15 -6 31z" />
<glyph unicode="w" horiz-adv-x="1593" d="M20 1059q0 37 41 37h175q24 0 35.5 -9t15.5 -34l98 -568l51 -303l58 283l67 313q11 47 35.5 81.5t57.5 53t68.5 27t74.5 8.5q88 0 148 -43.5t77 -122.5l68 -323l57 -275l49 291l100 578q4 25 16 34t36 9h174q41 0 41 -37q0 -9 -2 -15l-172 -878q-19 -95 -86.5 -136.5 t-153.5 -41.5q-185 0 -227 170l-70 299l-59 303l-62 -303l-69 -299q-38 -170 -228 -170q-40 0 -75.5 8.5t-69.5 28t-59 56t-35 87.5l-172 876q-3 9 -3 15z" />
<glyph unicode="x" horiz-adv-x="1062" d="M20 29q0 15 15 41l303 508l-272 452q-13 26 -13 35q0 31 31 31h203q19 0 32 -7t18 -14t13 -22l101 -195l77 -151l82 149l99 195q8 15 13 22t18.5 14t33.5 7l205 2q31 0 31 -31q0 -9 -13 -35l-272 -452l303 -508q14 -24 14 -41q0 -11 -8 -20t-22 -9l-215 -4q-44 0 -62 33 l-129 252l-76 149l-73 -145l-131 -252q-18 -33 -60 -33h-213q-16 0 -24.5 8.5t-8.5 20.5z" />
<glyph unicode="y" horiz-adv-x="1032" d="M0 1063q0 15 10 24t25 9h188q45 0 58 -45l178 -631l59 -221l55 219l160 635q12 43 51 43h193q35 0 35 -35q0 -11 -4 -27l-322 -1134q-47 -166 -146 -238t-245 -72q-147 0 -264 50q-27 12 -27 41q0 8 4 28l35 115q9 31 37 31q10 0 73 -17.5t117 -17.5q63 0 103 24.5 t59 83.5l25 74q-136 20 -178 156l-277 886q-2 8 -2 19z" />
<glyph unicode="z" horiz-adv-x="1032" d="M51 141q0 63 47 121l373 447l133 155h-471q-41 0 -41 41v150q0 41 41 41h682q64 0 103.5 -32t39.5 -99q0 -69 -55 -136l-356 -426l-146 -165h539q41 0 41 -41v-152q0 -45 -41 -45h-747q-58 0 -100 34.5t-42 106.5z" />
<glyph unicode="{" horiz-adv-x="776" d="M113 563v127q0 58 49 58q58 0 80 25t22 83v268q0 95 19 165.5t50 112.5t78.5 67.5t97 34.5t112.5 9h81q28 0 41 -11.5t13 -39.5v-119q0 -15 -2.5 -25t-14 -18t-32.5 -8h-58q-28 0 -50 -4.5t-36 -11t-23.5 -20.5t-14.5 -24t-7.5 -31t-3 -33.5t-0.5 -37.5v-272 q0 -109 -44.5 -163.5t-162.5 -67.5q106 -13 156.5 -70.5t50.5 -161.5v-268q0 -25 0.5 -37.5t3 -33.5t7.5 -31t14.5 -24t23.5 -20.5t36 -11t50 -4.5h58q30 0 39.5 -13.5t9.5 -37.5v-119q0 -28 -13 -39.5t-41 -11.5h-81q-63 0 -112.5 9t-97 34.5t-78.5 67.5t-50 112.5 t-19 165.5v264q0 58 -22 83.5t-80 25.5q-49 0 -49 57z" />
<glyph unicode="|" horiz-adv-x="475" d="M143 0v1536q0 41 41 41h107q41 0 41 -41v-1532q0 -45 -41 -45h-107q-41 0 -41 41z" />
<glyph unicode="}" horiz-adv-x="776" d="M18 -86q0 15 3 25t14.5 18t32.5 8h57q28 0 50 4.5t36 11t23.5 20.5t14.5 24t7.5 31t3 33.5t0.5 37.5v268q0 104 50.5 161.5t156.5 70.5q-118 13 -162.5 67.5t-44.5 163.5v272q0 25 -0.5 37.5t-3 33.5t-7.5 31t-14.5 24t-23.5 20.5t-36 11t-50 4.5h-57q-30 0 -40 14 t-10 37v119q0 28 13 39.5t41 11.5h82q63 0 112.5 -9t96.5 -34.5t78 -67.5t50 -112.5t19 -165.5v-268q0 -58 22 -83t80 -25q50 0 50 -58v-127q0 -57 -50 -57q-58 0 -80 -25.5t-22 -83.5v-264q0 -95 -19 -165.5t-50 -112.5t-78 -67.5t-96.5 -34.5t-112.5 -9h-82 q-28 0 -41 11.5t-13 39.5v119z" />
<glyph unicode="~" horiz-adv-x="1040" d="M102 563q3 107 67 166t167 59q67 0 139.5 -23t130 -46t86.5 -23q34 0 49 18.5t25 57.5q8 27 41 27h96q18 0 26.5 -10.5t8.5 -22.5q0 -112 -66.5 -171.5t-156.5 -59.5q-70 0 -148 23t-136.5 46t-82.5 23q-59 0 -74 -72q-3 -9 -6 -14.5t-14.5 -11t-30.5 -5.5h-80 q-41 0 -41 39z" />
<glyph unicode="&#xa1;" horiz-adv-x="643" d="M143 1010q0 76 51 129t123 53q77 0 130 -53t53 -129q0 -72 -53.5 -123t-129.5 -51q-72 0 -123 51t-51 123zM160 -393l47 1085q3 49 43 49h131q45 0 45 -49l55 -1083q0 -51 -45 -51h-233q-43 0 -43 49z" />
<glyph unicode="&#xa2;" horiz-adv-x="1060" d="M61 551q0 235 106.5 377t315.5 178v154q0 47 41 47h121q41 0 41 -47v-152q258 -39 330 -246q4 -12 4 -20q0 -26 -31 -37l-123 -45q-15 -6 -37 -6q-18 0 -32 24q-63 105 -205 105q-120 0 -187 -81t-67 -251q0 -330 280 -330q137 0 293 47q21 6 35 6q25 0 31 -26l31 -131 q4 -20 4 -31q0 -28 -25 -39q-116 -48 -301 -63v-152q0 -47 -41 -47h-121q-41 0 -41 47v156q-204 33 -313 173.5t-109 389.5z" />
<glyph unicode="&#xa3;" horiz-adv-x="1122" d="M102 45v154q0 36 33 47q26 8 41 16t37.5 27.5t33.5 55t11 85.5v68h-72q-15 0 -28 7.5t-13 24.5v97q0 16 10.5 27.5t28.5 11.5h74v139h-72q-15 0 -28 8t-13 25v98q0 16 10.5 27.5t28.5 11.5h74v67q0 75 8 135.5t27 121t54.5 105t88 79.5t130 53t177.5 18q171 0 275 -63 q26 -15 26 -45q0 -10 -6 -25l-53 -139q-8 -20 -37 -20q-12 0 -28 8q-84 39 -177 39q-121 0 -166 -62t-45 -205v-67h324q16 0 27.5 -10.5t11.5 -28.5v-98q0 -13 -11.5 -23t-29.5 -10h-322v-139h324q16 0 27.5 -10.5t11.5 -28.5v-97q0 -13 -11.5 -22.5t-29.5 -9.5h-322v-62 q0 -68 -38.5 -112.5t-108.5 -81.5h676q41 0 41 -41v-156q0 -45 -41 -45h-916q-22 0 -32.5 13t-10.5 32z" />
<glyph unicode="&#xa5;" horiz-adv-x="1196" d="M20 1444q0 11 8 21t21 10h221q14 0 21.5 -1t19 -9.5t19.5 -24.5l196 -393l76 -166l76 170l188 389q8 16 19.5 24.5t19 9.5t21.5 1h221q13 0 21 -10t8 -21q0 -12 -7 -23l-342 -594h152q16 0 27.5 -10.5t11.5 -28.5v-98q0 -13 -11.5 -23t-29.5 -10h-242v-137h244 q16 0 27.5 -10.5t11.5 -28.5v-100q0 -13 -11.5 -23t-29.5 -10h-242v-307q0 -41 -35 -41h-204q-35 0 -35 41v307h-234q-15 0 -28 8t-13 25v100q0 16 10.5 27.5t28.5 11.5h236v137h-234q-15 0 -28 8t-13 25v98q0 16 10.5 27.5t28.5 11.5h150l-348 594q-7 11 -7 23z" />
<glyph unicode="&#xa6;" horiz-adv-x="477" d="M143 0v512q0 41 41 41h109q41 0 41 -41v-508q0 -45 -41 -45h-109q-41 0 -41 41zM143 1024v512q0 41 41 41h109q41 0 41 -41v-508q0 -45 -41 -45h-109q-41 0 -41 41z" />
<glyph unicode="&#xa7;" horiz-adv-x="942" d="M82 84q0 15 6 33l35 123q6 26 33 26q6 0 18 -4q147 -53 246 -53q160 0 160 98q0 40 -27 61.5t-121 59.5l-94 37q-139 53 -195.5 126t-56.5 175q0 74 35.5 132.5t93.5 96.5q-123 94 -123 236q0 154 97 246t282 92q244 0 342 -195q6 -12 6 -28q0 -23 -28 -37l-101 -56 q-20 -10 -35 -10q-26 0 -41 25q-21 31 -61 55.5t-84 24.5q-47 0 -81 -22.5t-34 -68.5q0 -17 6.5 -32t14.5 -24.5t24.5 -21t26 -16.5t30.5 -15t27 -13l84 -35q154 -63 218.5 -133.5t64.5 -186.5q0 -142 -139 -213q69 -49 100 -110t31 -146q0 -151 -110 -242.5t-314 -91.5 q-186 0 -318 72q-18 10 -18 35zM340 797q0 -23 6.5 -39t26.5 -30.5t34 -21.5t50 -24q29 -15 59 -25q40 16 61 44t21 57q0 36 -29.5 61t-95.5 53l-63 27q-70 -34 -70 -102z" />
<glyph unicode="&#xa8;" horiz-adv-x="929" d="M123 1374q0 69 40 103t105 34t105.5 -34t40.5 -103q0 -67 -40.5 -101t-105.5 -34t-105 34t-40 101zM516 1374q0 69 40.5 103t105.5 34t105 -34t40 -103q0 -67 -40 -101t-105 -34t-105.5 34t-40.5 101z" />
<glyph unicode="&#xa9;" horiz-adv-x="1593" d="M61 772q0 173 39 309t105.5 224t161 145.5t200 81.5t228.5 24q126 0 233 -24t201.5 -81t160.5 -145.5t104 -223.5t38 -308q0 -181 -38.5 -320.5t-103.5 -228.5t-160.5 -145.5t-201 -79.5t-233.5 -23q-126 0 -231 23.5t-200 80.5t-160.5 146t-104 227.5t-38.5 317.5z M203 774q0 -177 42 -307t121 -208t185.5 -115.5t243.5 -37.5q109 0 197 20.5t163.5 69t126.5 124.5t80 191.5t29 266.5q0 649 -596 649q-592 0 -592 -653zM369 772q0 -238 122 -357.5t336 -119.5q164 0 312 78q18 9 18 26q0 5 -4 17l-47 129q-6 16 -25 16q-6 0 -18 -4 q-113 -49 -236 -49q-104 0 -158.5 67.5t-54.5 190.5q0 148 47 211t142 63q61 0 93.5 -23.5t64.5 -74.5q8 -14 24 -14q9 0 21 4l120 49q27 10 27 31l-4 22q-45 113 -129 164t-213 51q-94 0 -169 -25t-124.5 -68t-82.5 -104t-47.5 -130.5t-14.5 -149.5z" />
<glyph unicode="&#xaa;" horiz-adv-x="745" d="M41 1217q0 152 70.5 249t214.5 97q117 0 168 -82l14 49q7 20 29 20h102q27 0 27 -26v-482q0 -20 6.5 -29t27.5 -9q25 0 25 -25v-53q0 -28 -16.5 -34.5t-69.5 -6.5q-132 0 -150 86q-56 -90 -194 -90q-129 0 -191.5 89.5t-62.5 246.5zM225 1219q0 -201 123 -201 q42 0 80 17.5t57 54.5v264q-18 38 -54.5 54.5t-70.5 16.5q-50 0 -81.5 -32t-42.5 -75.5t-11 -98.5z" />
<glyph unicode="&#xab;" horiz-adv-x="1167" d="M102 508q0 24 23 53l215 275q22 27 38 37t44 10h149q10 0 17.5 -7t7.5 -18q0 -5 -2.5 -12t-5.5 -11l-2 -4l-193 -321l193 -326q10 -14 10 -26q0 -11 -7.5 -18t-17.5 -7h-149q-28 0 -44 10t-38 37l-215 275q-23 24 -23 53zM571 508q0 24 23 53l215 275q22 27 38 37t44 10 h149q10 0 17.5 -7t7.5 -18q0 -5 -2.5 -12t-4.5 -11l-3 -4l-193 -321l193 -326q10 -14 10 -26q0 -11 -7.5 -18t-17.5 -7h-149q-28 0 -44 10t-38 37l-215 275q-23 24 -23 53z" />
<glyph unicode="&#xac;" horiz-adv-x="1150" d="M102 813v115q0 21 6.5 30t28.5 9h684q114 0 171 -52.5t57 -166.5v-291q0 -41 -35 -41h-121q-35 0 -35 41v321h-719q-22 0 -29.5 8t-7.5 27z" />
<glyph unicode="&#xad;" horiz-adv-x="819" d="M102 506v162q0 19 11 30t28 11h537q39 0 39 -41v-162q0 -41 -41 -41h-533q-41 0 -41 41z" />
<glyph unicode="&#xae;" horiz-adv-x="1593" d="M61 772q0 173 39 309t105.5 224t161 145.5t200 81.5t228.5 24q126 0 233 -24t201.5 -81t160.5 -145.5t104 -223.5t38 -308q0 -181 -38.5 -320.5t-103.5 -228.5t-160.5 -145.5t-201 -79.5t-233.5 -23q-126 0 -231 23.5t-200 80.5t-160.5 146t-104 227.5t-38.5 317.5z M203 774q0 -177 42 -307t121 -208t185.5 -115.5t243.5 -37.5q109 0 197 20.5t163.5 69t126.5 124.5t80 191.5t29 266.5q0 649 -596 649q-592 0 -592 -653zM449 330q0 -33 32 -33h156q16 0 23.5 9.5t7.5 21.5v309q16 -2 100 -2l190 -311q15 -27 56 -27h170q24 0 24 18 q0 7 -4 15l-231 350q176 63 176 274q0 303 -387 303q-174 0 -279 -12q-34 -6 -34 -41v-874zM668 819v260q27 6 90 6q39 0 67 -4.5t55 -18t41.5 -41.5t14.5 -71q0 -62 -39 -97.5t-141 -35.5q-61 0 -88 2z" />
<glyph unicode="&#xaf;" horiz-adv-x="894" d="M123 1286v152q0 26 10.5 35.5t46.5 9.5h529q39 0 51 -9t12 -36v-152q0 -28 -12 -37.5t-51 -9.5h-529q-35 0 -46 9.5t-11 37.5z" />
<glyph unicode="&#xb0;" horiz-adv-x="724" d="M123 1346q0 100 69 170.5t168 70.5q100 0 171 -70.5t71 -170.5q0 -99 -71 -168.5t-171 -69.5t-168.5 69t-68.5 169zM279 1348q0 -35 23 -58.5t58 -23.5q36 0 61 23.5t25 58.5t-25.5 60.5t-60.5 25.5t-58 -25t-23 -61z" />
<glyph unicode="&#xb1;" horiz-adv-x="1124" d="M102 41v106q0 41 41 41h787q41 0 41 -41v-102q0 -45 -41 -45h-787q-41 0 -41 41zM102 725v104q0 41 41 41h301v330q0 41 41 41h109q41 0 41 -41v-330h293q41 0 41 -41v-100q0 -45 -41 -45h-293v-317q0 -45 -41 -45h-109q-41 0 -41 40v322h-301q-41 0 -41 41z" />
<glyph unicode="&#xb4;" horiz-adv-x="698" d="M123 1268q0 13 6 22l172 271q20 36 61 36h177q36 0 36 -30q0 -16 -10 -29l-223 -258q-20 -23 -36.5 -32t-43.5 -9h-110q-10 0 -19.5 9.5t-9.5 19.5z" />
<glyph unicode="&#xb5;" horiz-adv-x="1265" d="M143 -322v1373q0 45 41 45h191q41 0 41 -41v-613q0 -140 47.5 -196t144.5 -56q26 0 53 5.5t63.5 20t70.5 48t57 82.5v705q0 45 41 45h188q41 0 41 -41v-1014q0 -41 -41 -41h-141q-26 0 -37 11t-18 34l-29 88q-36 -51 -85.5 -85t-99.5 -48t-83.5 -18.5t-65.5 -4.5 q-54 0 -112 33v-336q0 -41 -41 -41h-185q-41 0 -41 45z" />
<glyph unicode="&#xb6;" horiz-adv-x="1216" d="M-123 1141q0 72 27 138.5t78 120.5t134 86t185 32h545q101 0 133.5 -44t32.5 -153v-1550q0 -41 -37 -41h-176q-35 0 -35 41v1523h-213v-1523q0 -41 -33 -41h-182q-35 0 -35 41v995q-102 0 -185 32t-134 85.5t-78 119.5t-27 138z" />
<glyph unicode="&#xb7;" horiz-adv-x="561" d="M123 643q0 66 46 113t110 47q66 0 112.5 -47t46.5 -113q0 -65 -46.5 -110.5t-112.5 -45.5q-65 0 -110.5 45.5t-45.5 110.5z" />
<glyph unicode="&#xb8;" horiz-adv-x="712" d="M123 -436q0 8 2 14l22 68q10 28 39 28q8 0 52.5 -10t87.5 -10q27 0 48 13t21 42q0 14 -4 24.5t-13.5 17.5t-18 11.5t-25.5 7.5t-26.5 4.5t-30.5 3.5t-29 3q-34 5 -49 17.5t-15 39.5q0 22 19 162h184l-6 -84q99 -10 154 -65.5t55 -133.5q0 -59 -21 -102.5t-58.5 -68 t-82.5 -35.5t-100 -11q-88 0 -174 27q-31 10 -31 37z" />
<glyph unicode="&#xba;" horiz-adv-x="710" d="M41 1223q0 168 86.5 254t232.5 86q145 0 227.5 -90t82.5 -250q0 -171 -86 -256.5t-226 -85.5q-146 0 -231.5 86.5t-85.5 255.5zM223 1223q0 -205 135 -205q129 0 129 205q0 202 -129 202q-135 0 -135 -202z" />
<glyph unicode="&#xbb;" horiz-adv-x="1167" d="M102 158q0 5 3 11.5t5 10.5l3 4l192 326l-192 321q-11 15 -11 27q0 11 7.5 18t17.5 7h149q28 0 44 -10t38 -37l215 -275q23 -29 23 -53q0 -13 -6 -26t-12 -20l-5 -7l-215 -275q-22 -27 -38 -37t-44 -10h-149q-10 0 -17.5 7t-7.5 18zM571 158q0 5 2.5 11.5t5.5 10.5l3 4 l192 326l-192 321q-11 15 -11 27q0 11 7.5 18t17.5 7h149q28 0 44 -10t38 -37l215 -275q23 -29 23 -53q0 -13 -5.5 -26t-11.5 -20l-6 -7l-215 -275q-22 -27 -38 -37t-44 -10h-149q-10 0 -17.5 7t-7.5 18z" />
<glyph unicode="&#xbf;" horiz-adv-x="937" d="M31 -27q0 69 19 132.5t55 118.5t67 91.5t76 81.5t68 71t43 64t20 74v88q0 21 10.5 34t30.5 13h207q45 0 45 -45v-96q0 -71 -22 -128.5t-59 -104.5t-112 -123q-81 -83 -116 -141.5t-35 -131.5q0 -78 47 -114.5t123 -36.5q64 0 113 32.5t91 106.5q12 25 39 25q9 0 21 -4 l139 -66q27 -11 27 -43q0 -7 -4 -23q-42 -132 -164 -211t-273 -79q-70 0 -133.5 13t-123 44.5t-103.5 78t-70 118t-26 161.5zM344 1010q0 76 51 129t123 53q76 0 129 -53t53 -129q0 -72 -53 -123t-129 -51q-72 0 -123 51t-51 123z" />
<glyph unicode="&#xc0;" horiz-adv-x="1419" d="M20 33q0 9 5 24l424 1209q12 32 20 52t30 55t46 56t64.5 37.5t88.5 16.5h23q48 0 88.5 -16.5t65 -37.5t46 -56t30 -55t20.5 -52l424 -1209q4 -12 4 -24q0 -13 -10.5 -23t-24.5 -10h-190q-29 0 -43 9.5t-23 35.5l-119 354h-561l-117 -354q-9 -26 -22.5 -35.5t-42.5 -9.5 h-191q-14 0 -24.5 10t-10.5 23zM332 1954q0 31 37 31h176q40 0 61 -37l172 -271q6 -9 6 -22q0 -11 -9 -20t-19 -9h-111q-27 0 -43.5 9t-36.5 32l-223 258q-10 13 -10 29zM504 629h409l-114 370l-90 287l-86 -287z" />
<glyph unicode="&#xc1;" horiz-adv-x="1419" d="M20 33q0 9 5 24l424 1209q12 32 20 52t30 55t46 56t64.5 37.5t88.5 16.5h23q48 0 88.5 -16.5t65 -37.5t46 -56t30 -55t20.5 -52l424 -1209q4 -12 4 -24q0 -13 -10.5 -23t-24.5 -10h-190q-29 0 -43 9.5t-23 35.5l-119 354h-561l-117 -354q-9 -26 -22.5 -35.5t-42.5 -9.5 h-191q-14 0 -24.5 10t-10.5 23zM504 629h409l-114 370l-90 287l-86 -287zM639 1655q0 13 6 22l172 271q21 37 62 37h176q37 0 37 -31q0 -14 -11 -29l-223 -258q-20 -23 -36.5 -32t-43.5 -9h-110q-10 0 -19.5 9t-9.5 20z" />
<glyph unicode="&#xc2;" horiz-adv-x="1419" d="M20 33q0 9 5 24l424 1209q12 32 20 52t30 55t46 56t64.5 37.5t88.5 16.5h23q48 0 88.5 -16.5t65 -37.5t46 -56t30 -55t20.5 -52l424 -1209q4 -12 4 -24q0 -13 -10.5 -23t-24.5 -10h-190q-29 0 -43 9.5t-23 35.5l-119 354h-561l-117 -354q-9 -26 -22.5 -35.5t-42.5 -9.5 h-191q-14 0 -24.5 10t-10.5 23zM340 1653q0 12 8 24l205 267q14 19 31.5 28.5t28 11t28.5 1.5h143q18 0 28.5 -1.5t28 -11t31.5 -28.5l205 -267q8 -12 8 -22q0 -13 -9.5 -21t-20.5 -8h-111q-45 0 -86 41l-145 145l-146 -145q-41 -41 -86 -41h-110q-12 0 -21.5 7t-9.5 20z M504 629h409l-114 370l-90 287l-86 -287z" />
<glyph unicode="&#xc3;" horiz-adv-x="1419" d="M20 33q0 9 5 24l424 1209q12 32 20 52t30 55t46 56t64.5 37.5t88.5 16.5h23q48 0 88.5 -16.5t65 -37.5t46 -56t30 -55t20.5 -52l424 -1209q4 -12 4 -24q0 -13 -10.5 -23t-24.5 -10h-190q-29 0 -43 9.5t-23 35.5l-119 354h-561l-117 -354q-9 -26 -22.5 -35.5t-42.5 -9.5 h-191q-14 0 -24.5 10t-10.5 23zM317 1665q0 106 61 171t161 65q67 0 131 -19.5t112.5 -39t77.5 -19.5q25 0 39.5 10t24.5 41q8 27 41 27h108q18 0 26.5 -10.5t8.5 -22.5q0 -118 -62.5 -180t-173.5 -62q-70 0 -133 19t-106.5 38t-67.5 19q-27 0 -41 -10.5t-20 -34.5 q-3 -9 -6 -14.5t-14.5 -11t-30.5 -5.5h-95q-41 0 -41 39zM504 629h409l-114 370l-90 287l-86 -287z" />
<glyph unicode="&#xc4;" horiz-adv-x="1419" d="M20 33q0 9 5 24l424 1209q12 32 20 52t30 55t46 56t64.5 37.5t88.5 16.5h23q48 0 88.5 -16.5t65 -37.5t46 -56t30 -55t20.5 -52l424 -1209q4 -12 4 -24q0 -13 -10.5 -23t-24.5 -10h-190q-29 0 -43 9.5t-23 35.5l-119 354h-561l-117 -354q-9 -26 -22.5 -35.5t-42.5 -9.5 h-191q-14 0 -24.5 10t-10.5 23zM371 1759q0 69 40 103t105 34t105.5 -34t40.5 -103q0 -67 -40.5 -101t-105.5 -34t-105 34t-40 101zM504 629h409l-114 370l-90 287l-86 -287zM764 1759q0 69 40 103t105 34t105.5 -34t40.5 -103q0 -67 -40.5 -101t-105.5 -34t-105 34t-40 101 z" />
<glyph unicode="&#xc5;" horiz-adv-x="1419" d="M20 33q0 9 5 24l424 1209q12 32 20 52t30 55t46 56t64.5 37.5t88.5 16.5h23q48 0 88.5 -16.5t65 -37.5t46 -56t30 -55t20.5 -52l424 -1209q4 -12 4 -24q0 -13 -10.5 -23t-24.5 -10h-190q-29 0 -43 9.5t-23 35.5l-119 354h-561l-117 -354q-9 -26 -22.5 -35.5t-42.5 -9.5 h-191q-14 0 -24.5 10t-10.5 23zM492 1853q0 96 66 163t161 67t162 -67.5t67 -162.5t-67 -161t-162 -66t-161 66t-66 161zM504 629h409l-114 370l-90 287l-86 -287zM643 1855q0 -32 22 -53.5t54 -21.5q33 0 55.5 21.5t22.5 53.5t-23 55t-55 23t-54 -23t-22 -55z" />
<glyph unicode="&#xc6;" horiz-adv-x="1914" d="M20 31q0 5 5 20l696 1223q25 43 47 73t56.5 62.5t80 49t101.5 16.5h794q41 0 41 -41v-156q0 -45 -41 -45h-543v-320h459q41 0 41 -41v-153q0 -45 -41 -45h-459v-432h576q41 0 41 -41v-156q0 -45 -41 -45h-692q-57 0 -91.5 11t-51.5 38t-22 58.5t-5 85.5v206h-455 l-194 -354q-25 -45 -82 -45h-187q-15 0 -24 8.5t-9 22.5zM643 629h328v381v209l-117 -209z" />
<glyph unicode="&#xc7;" horiz-adv-x="1288" d="M82 750q0 116 18 217.5t64 201t118.5 170.5t189 114.5t267.5 43.5q104 0 189.5 -22.5t144.5 -62t98.5 -86.5t63.5 -103q10 -23 10 -39q0 -23 -39 -39l-114 -45q-23 -10 -43 -10q-21 0 -43 28q-55 73 -117.5 102t-153.5 29q-78 0 -140 -27.5t-102.5 -74t-67.5 -111.5 t-38.5 -137t-11.5 -154q0 -77 10 -145t37 -136.5t70 -117t113 -78.5t161 -30q184 0 358 69q12 6 29 6q25 0 33 -22l57 -156q4 -12 4 -22q0 -26 -30 -41q-158 -77 -388 -90l-4 -66q99 -10 154 -65.5t55 -133.5q0 -59 -21 -102.5t-58.5 -68t-82.5 -35.5t-100 -11 q-88 0 -174 27q-31 10 -31 37q0 8 2 14l23 68q10 28 39 28q8 0 52 -10t87 -10q27 0 48.5 13t21.5 42q0 14 -4 24.5t-14 17.5t-18.5 11.5t-25.5 7.5t-26.5 4.5t-30.5 3.5t-29 3q-33 5 -48 17.5t-15 39.5q0 36 16 146q-123 12 -219 57t-160 114.5t-106 164t-60 200.5t-18 230z " />
<glyph unicode="&#xc8;" horiz-adv-x="1087" d="M143 193v1095q0 107 33 147t139 40h658q41 0 41 -41v-156q0 -45 -41 -45h-543v-320h459q41 0 41 -41v-153q0 -45 -41 -45h-459v-432h576q41 0 41 -41v-156q0 -45 -41 -45h-693q-57 0 -91.5 11t-51.5 38t-22 58.5t-5 85.5zM233 1954q0 31 37 31h176q41 0 62 -37l172 -271 q6 -9 6 -22q0 -11 -9 -20t-20 -9h-110q-27 0 -43.5 9t-36.5 32l-223 258q-11 15 -11 29z" />
<glyph unicode="&#xc9;" horiz-adv-x="1087" d="M143 193v1095q0 107 33 147t139 40h658q41 0 41 -41v-156q0 -45 -41 -45h-543v-320h459q41 0 41 -41v-153q0 -45 -41 -45h-459v-432h576q41 0 41 -41v-156q0 -45 -41 -45h-693q-57 0 -91.5 11t-51.5 38t-22 58.5t-5 85.5zM506 1655q0 13 6 22l172 271q21 37 61 37h177 q36 0 36 -31q0 -16 -10 -29l-223 -258q-20 -23 -36.5 -32t-43.5 -9h-110q-11 0 -20 9t-9 20z" />
<glyph unicode="&#xca;" horiz-adv-x="1087" d="M143 193v1095q0 107 33 147t139 40h658q41 0 41 -41v-156q0 -45 -41 -45h-543v-320h459q41 0 41 -41v-153q0 -45 -41 -45h-459v-432h576q41 0 41 -41v-156q0 -45 -41 -45h-693q-57 0 -91.5 11t-51.5 38t-22 58.5t-5 85.5zM217 1653q0 12 8 24l205 267q14 19 31.5 28.5 t28 11t28.5 1.5h144q18 0 28.5 -1.5t28 -11t31.5 -28.5l204 -267q9 -13 9 -22q0 -13 -10 -21t-21 -8h-111q-45 0 -86 41l-145 145l-146 -145q-41 -41 -86 -41h-110q-12 0 -21.5 7t-9.5 20z" />
<glyph unicode="&#xcb;" horiz-adv-x="1087" d="M143 193v1095q0 107 33 147t139 40h658q41 0 41 -41v-156q0 -45 -41 -45h-543v-320h459q41 0 41 -41v-153q0 -45 -41 -45h-459v-432h576q41 0 41 -41v-156q0 -45 -41 -45h-693q-57 0 -91.5 11t-51.5 38t-22 58.5t-5 85.5zM264 1759q0 69 40.5 103t105.5 34t105 -34 t40 -103q0 -67 -40 -101t-105 -34t-105.5 34t-40.5 101zM657 1759q0 69 40.5 103t105.5 34t105 -34t40 -103q0 -67 -40 -101t-105 -34t-105.5 34t-40.5 101z" />
<glyph unicode="&#xcc;" horiz-adv-x="583" d="M-72 1954q0 31 37 31h176q41 0 62 -37l172 -271q6 -9 6 -22q0 -11 -9.5 -20t-19.5 -9h-110q-27 0 -43.5 9t-36.5 32l-223 258q-11 15 -11 29zM154 41v1393q0 41 41 41h204q41 0 41 -41v-1389q0 -45 -41 -45h-204q-41 0 -41 41z" />
<glyph unicode="&#xcd;" horiz-adv-x="573" d="M143 41v1393q0 41 41 41h205q41 0 41 -41v-1389q0 -45 -41 -45h-205q-41 0 -41 41zM190 1655q0 11 7 22l172 271q21 37 61 37h176q37 0 37 -31q0 -16 -10 -29l-223 -258q-20 -23 -36.5 -32t-43.5 -9h-111q-11 0 -20 9t-9 20z" />
<glyph unicode="&#xce;" horiz-adv-x="573" d="M-80 1653q0 12 8 24l205 267q14 19 31.5 28.5t28 11t28.5 1.5h144q18 0 28.5 -1.5t28 -11t31.5 -28.5l204 -267q9 -13 9 -22q0 -13 -10 -21t-21 -8h-111q-45 0 -86 41l-145 145l-146 -145q-41 -41 -86 -41h-110q-12 0 -21.5 7t-9.5 20zM143 41v1393q0 41 41 41h205 q41 0 41 -41v-1389q0 -45 -41 -45h-205q-41 0 -41 41z" />
<glyph unicode="&#xcf;" horiz-adv-x="573" d="M-53 1759q0 69 40 103t105 34t105.5 -34t40.5 -103q0 -67 -40.5 -101t-105.5 -34t-105 34t-40 101zM143 41v1393q0 41 41 41h205q41 0 41 -41v-1389q0 -45 -41 -45h-205q-41 0 -41 41zM340 1759q0 69 40 103t105 34t105.5 -34t40.5 -103q0 -67 -40.5 -101t-105.5 -34 t-105 34t-40 101z" />
<glyph unicode="&#xd0;" horiz-adv-x="1495" d="M0 723v92q0 19 11 30t28 11h125v571q0 43 43 46q132 12 405 12q80 0 144 -3.5t148 -18t149 -39t130 -70.5t109 -109q121 -173 121 -500q0 -577 -371 -706q-148 -51 -409 -51q-328 0 -430 12q-22 3 -30.5 14.5t-8.5 36.5v631h-123q-41 0 -41 41zM449 233q88 -8 221 -8 q153 0 252 45q101 46 149.5 158.5t48.5 306.5q0 248 -73 361q-38 60 -106 94t-141.5 44.5t-176.5 10.5q-76 0 -174 -8v-381h204q39 0 39 -41v-92q0 -41 -41 -41h-202v-449z" />
<glyph unicode="&#xd1;" horiz-adv-x="1581" d="M164 49v1172q0 125 63.5 193.5t184.5 68.5q99 0 156.5 -52.5t121.5 -183.5l318 -672l145 -327l-12 475l-4 704q0 27 10 37.5t35 10.5h188q26 0 36.5 -9.5t10.5 -38.5v-1191q0 -112 -64 -178t-177 -66q-99 0 -165.5 56t-117.5 163l-326 688l-141 348l14 -481l4 -717 q0 -28 -10 -38.5t-37 -10.5h-190q-26 0 -34.5 12t-8.5 37zM377 1665q0 106 60.5 171t160.5 65q67 0 131 -19.5t113 -39t78 -19.5q25 0 39 10t24 41q8 27 41 27h109q18 0 26 -10.5t8 -22.5q0 -118 -62 -180t-173 -62q-70 0 -133 19t-107 38t-67 19q-27 0 -41.5 -10.5 t-20.5 -34.5q-3 -9 -6 -14.5t-14.5 -11t-30.5 -5.5h-94q-41 0 -41 39z" />
<glyph unicode="&#xd2;" horiz-adv-x="1484" d="M82 743q0 170 38 303.5t100 216.5t149.5 137t178 75.5t193.5 21.5t194.5 -21.5t179 -75.5t150 -137.5t100.5 -216t38 -301.5q0 -175 -38 -310.5t-100 -220.5t-149.5 -139.5t-179 -76t-195.5 -21.5q-103 0 -193.5 21t-178 75.5t-149.5 138.5t-100 220t-38 311zM369 1954 q0 31 37 31h176q40 0 61 -37l172 -271q6 -9 6 -22q0 -11 -9 -20t-19 -9h-111q-27 0 -43.5 9t-36.5 32l-223 258q-10 13 -10 29zM375 741q0 -107 21 -199t63.5 -166.5t114.5 -117.5t167 -43q93 0 164.5 39.5t115.5 111.5t66.5 167.5t22.5 211.5q0 114 -20 205t-62 162 t-114.5 109.5t-170.5 38.5q-97 0 -168.5 -38t-114.5 -108.5t-64 -163t-21 -209.5z" />
<glyph unicode="&#xd3;" horiz-adv-x="1484" d="M82 743q0 170 38 303.5t100 216.5t149.5 137t178 75.5t193.5 21.5t194.5 -21.5t179 -75.5t150 -137.5t100.5 -216t38 -301.5q0 -175 -38 -310.5t-100 -220.5t-149.5 -139.5t-179 -76t-195.5 -21.5q-103 0 -193.5 21t-178 75.5t-149.5 138.5t-100 220t-38 311zM375 741 q0 -107 21 -199t63.5 -166.5t114.5 -117.5t167 -43q93 0 164.5 39.5t115.5 111.5t66.5 167.5t22.5 211.5q0 114 -20 205t-62 162t-114.5 109.5t-170.5 38.5q-97 0 -168.5 -38t-114.5 -108.5t-64 -163t-21 -209.5zM649 1655q0 13 6 22l172 271q21 37 62 37h176q37 0 37 -31 q0 -16 -10 -29l-224 -258q-20 -23 -36.5 -32t-43.5 -9h-110q-10 0 -19.5 9t-9.5 20z" />
<glyph unicode="&#xd4;" horiz-adv-x="1484" d="M82 743q0 170 38 303.5t100 216.5t149.5 137t178 75.5t193.5 21.5t194.5 -21.5t179 -75.5t150 -137.5t100.5 -216t38 -301.5q0 -175 -38 -310.5t-100 -220.5t-149.5 -139.5t-179 -76t-195.5 -21.5q-103 0 -193.5 21t-178 75.5t-149.5 138.5t-100 220t-38 311zM375 741 q0 -107 21 -199t63.5 -166.5t114.5 -117.5t167 -43q93 0 164.5 39.5t115.5 111.5t66.5 167.5t22.5 211.5q0 114 -20 205t-62 162t-114.5 109.5t-170.5 38.5q-97 0 -168.5 -38t-114.5 -108.5t-64 -163t-21 -209.5zM377 1653q0 12 8 24l205 267q14 19 31.5 28.5t28 11 t28.5 1.5h143q18 0 28.5 -1.5t28 -11t31.5 -28.5l205 -267q8 -12 8 -22q0 -13 -9.5 -21t-20.5 -8h-111q-45 0 -86 41l-145 145l-146 -145q-41 -41 -86 -41h-110q-12 0 -21.5 7t-9.5 20z" />
<glyph unicode="&#xd5;" horiz-adv-x="1484" d="M82 743q0 170 38 303.5t100 216.5t149.5 137t178 75.5t193.5 21.5t194.5 -21.5t179 -75.5t150 -137.5t100.5 -216t38 -301.5q0 -175 -38 -310.5t-100 -220.5t-149.5 -139.5t-179 -76t-195.5 -21.5q-103 0 -193.5 21t-178 75.5t-149.5 138.5t-100 220t-38 311zM350 1665 q0 106 60.5 171t160.5 65q67 0 131 -19.5t113 -39t78 -19.5q25 0 39 10t24 41q8 27 41 27h109q18 0 26.5 -10.5t8.5 -22.5q0 -118 -62.5 -180t-173.5 -62q-70 0 -133 19t-106.5 38t-67.5 19q-27 0 -41 -10.5t-20 -34.5q-9 -31 -52 -31h-94q-41 0 -41 39zM375 741 q0 -107 21 -199t63.5 -166.5t114.5 -117.5t167 -43q93 0 164.5 39.5t115.5 111.5t66.5 167.5t22.5 211.5q0 114 -20 205t-62 162t-114.5 109.5t-170.5 38.5q-97 0 -168.5 -38t-114.5 -108.5t-64 -163t-21 -209.5z" />
<glyph unicode="&#xd6;" horiz-adv-x="1484" d="M82 743q0 170 38 303.5t100 216.5t149.5 137t178 75.5t193.5 21.5t194.5 -21.5t179 -75.5t150 -137.5t100.5 -216t38 -301.5q0 -175 -38 -310.5t-100 -220.5t-149.5 -139.5t-179 -76t-195.5 -21.5q-103 0 -193.5 21t-178 75.5t-149.5 138.5t-100 220t-38 311zM375 741 q0 -107 21 -199t63.5 -166.5t114.5 -117.5t167 -43q93 0 164.5 39.5t115.5 111.5t66.5 167.5t22.5 211.5q0 114 -20 205t-62 162t-114.5 109.5t-170.5 38.5q-97 0 -168.5 -38t-114.5 -108.5t-64 -163t-21 -209.5zM408 1761q0 69 40 103t105 34t105 -34t40 -103 q0 -67 -40 -101t-105 -34t-105 34t-40 101zM801 1761q0 69 40 103t105 34t105.5 -34t40.5 -103q0 -67 -40.5 -101t-105.5 -34t-105 34t-40 101z" />
<glyph unicode="&#xd7;" horiz-adv-x="987" d="M102 305q0 14 15 29l243 246l-243 245q-15 15 -15 29t15 29l76 75q19 15 28 15q14 0 29 -15l244 -245l243 245q15 15 29 15q10 0 29 -15l75 -75q15 -15 15 -29t-15 -29l-243 -245l243 -246q15 -15 15 -29q0 -17 -15 -29l-71 -73q-17 -17 -33 -17q-14 0 -29 15l-243 243 l-244 -243q-15 -15 -29 -15q-16 0 -33 17l-71 73q-15 12 -15 29z" />
<glyph unicode="&#xd8;" horiz-adv-x="1484" d="M82 743q0 170 38 303.5t100 216.5t149.5 137t178 75.5t193.5 21.5q196 0 342 -80l60 86q15 26 30 35.5t41 9.5h127q31 0 31 -26q0 -12 -10 -29l-131 -190q172 -193 172 -558q0 -175 -38 -310.5t-100 -220.5t-149.5 -139.5t-179 -76t-195.5 -21.5q-211 0 -356 86l-61 -90 q-15 -26 -30.5 -35.5t-41.5 -9.5h-127q-31 0 -31 27q0 12 10 29l138 200q-160 198 -160 559zM375 741q0 -170 47 -292l518 757q-79 54 -197 54q-97 0 -168.5 -38t-114.5 -108.5t-64 -163t-21 -209.5zM537 285q82 -70 204 -70q93 0 164.5 39.5t115.5 111.5t66.5 167.5 t22.5 211.5q0 184 -51 306z" />
<glyph unicode="&#xd9;" horiz-adv-x="1476" d="M143 586v848q0 41 41 41h203q41 0 41 -41v-859q0 -184 78 -264t233 -80q153 0 231.5 81.5t78.5 262.5v859q0 41 41 41h202q41 0 41 -41v-848q0 -141 -31 -249t-99 -190.5t-185.5 -126t-280.5 -43.5q-129 0 -229.5 28t-169 79.5t-112.5 128t-63.5 168.5t-19.5 205z M375 1952q0 30 37 30h176q41 0 61 -36l172 -271q6 -9 6 -22q0 -11 -9 -20t-19 -9h-111q-27 0 -43.5 9t-36.5 32l-223 258q-10 13 -10 29z" />
<glyph unicode="&#xda;" horiz-adv-x="1476" d="M143 586v848q0 41 41 41h203q41 0 41 -41v-859q0 -184 78 -264t233 -80q153 0 231.5 81.5t78.5 262.5v859q0 41 41 41h202q41 0 41 -41v-848q0 -141 -31 -249t-99 -190.5t-185.5 -126t-280.5 -43.5q-129 0 -229.5 28t-169 79.5t-112.5 128t-63.5 168.5t-19.5 205z M621 1653q0 13 6 22l172 271q20 36 61 36h176q37 0 37 -30q0 -16 -10 -29l-223 -258q-20 -23 -36.5 -32t-43.5 -9h-111q-10 0 -19 9t-9 20z" />
<glyph unicode="&#xdb;" horiz-adv-x="1476" d="M143 586v848q0 41 41 41h203q41 0 41 -41v-859q0 -184 78 -264t233 -80q153 0 231.5 81.5t78.5 262.5v859q0 41 41 41h202q41 0 41 -41v-848q0 -141 -31 -249t-99 -190.5t-185.5 -126t-280.5 -43.5q-129 0 -229.5 28t-169 79.5t-112.5 128t-63.5 168.5t-19.5 205z M365 1651q0 12 8 24l205 267q14 19 31.5 28.5t27.5 10.5t29 1h143q19 0 29 -1t27.5 -10.5t31.5 -28.5l205 -267q8 -12 8 -22q0 -13 -10 -21t-21 -8h-110q-45 0 -86 41l-146 145l-145 -145q-41 -41 -86 -41h-111q-12 0 -21 7t-9 20z" />
<glyph unicode="&#xdc;" horiz-adv-x="1476" d="M143 586v848q0 41 41 41h203q41 0 41 -41v-859q0 -184 78 -264t233 -80q153 0 231.5 81.5t78.5 262.5v859q0 41 41 41h202q41 0 41 -41v-848q0 -141 -31 -249t-99 -190.5t-185.5 -126t-280.5 -43.5q-129 0 -229.5 28t-169 79.5t-112.5 128t-63.5 168.5t-19.5 205z M395 1761q0 69 40.5 103t105.5 34t105 -34t40 -103q0 -67 -40 -101t-105 -34t-105.5 34t-40.5 101zM788 1761q0 69 40.5 103t105.5 34t105 -34t40 -103q0 -67 -40 -101t-105 -34t-105.5 34t-40.5 101z" />
<glyph unicode="&#xdd;" horiz-adv-x="1196" d="M20 1444q0 11 8 21t21 10h217q14 0 21.5 -1t19 -9.5t19.5 -24.5l184 -373l88 -186l94 190l180 369q8 16 19.5 24.5t19 9.5t21.5 1h215q13 0 21 -10t8 -21q0 -12 -7 -23l-434 -794v-586q0 -41 -35 -41h-204q-35 0 -35 41v573l-434 807q-7 11 -7 23zM522 1655q0 13 6 22 l172 271q21 37 62 37h176q37 0 37 -31q0 -16 -10 -29l-224 -258q-20 -23 -36 -32t-43 -9h-111q-11 0 -20 9t-9 20z" />
<glyph unicode="&#xde;" horiz-adv-x="1196" d="M164 41v1393q0 41 41 41h205q41 0 41 -41v-220q71 3 120 3q294 0 437 -91q168 -110 168 -370q0 -93 -22 -170t-58 -129.5t-88.5 -92t-106 -62.5t-117.5 -37t-117 -18.5t-110 -4.5h-106v-197q0 -45 -41 -45h-205q-41 0 -41 41zM451 483q57 -2 114 -2q91 0 154.5 20 t98.5 57.5t50 84.5t15 109q0 125 -77.5 175t-242.5 50q-50 0 -112 -4v-490z" />
<glyph unicode="&#xdf;" horiz-adv-x="1320" d="M20 909v150q0 37 37 37h129v18q0 130 40.5 225t115.5 150.5t171 81.5t218 26q184 0 305 -99.5t121 -262.5q0 -60 -26 -117t-63.5 -100.5t-75 -83t-63.5 -79.5t-26 -75q0 -44 29.5 -72.5t124.5 -78.5q136 -71 195 -145t59 -175q0 -68 -24 -126.5t-72 -105t-129.5 -73.5 t-188.5 -27q-77 0 -166.5 19.5t-150.5 50.5q-33 17 -33 45q0 1 6 25l31 123q7 30 32 30q3 0 35 -8q39 -14 115 -32.5t137 -18.5q144 0 144 96q0 14 -2.5 24t-11 20t-16.5 17t-27 18.5t-35 20t-47.5 25t-57.5 31.5q-113 64 -160 130.5t-47 156.5q0 69 23 130t56.5 105 t66.5 83.5t56 81.5t23 83q0 55 -53 84t-117 29q-121 0 -181 -69t-60 -196v-1034q0 -47 -37 -47h-197q-20 0 -28.5 9t-8.5 32v833h-129q-37 0 -37 35z" />
<glyph unicode="&#xe0;" d="M61 539q0 121 28 223t84 182.5t149.5 126t216.5 45.5q192 0 278 -137l23 82q8 35 49 35h143q24 0 33.5 -11t9.5 -34v-801q0 -34 12 -50t50 -16q39 0 39 -43v-88q0 -45 -28.5 -56t-117.5 -11q-33 0 -58 2.5t-53 11.5t-48.5 24t-37 41.5t-24.5 63.5q-95 -152 -324 -152 q-144 0 -240.5 71.5t-140 195t-43.5 295.5zM221 1567q0 30 37 30h176q42 0 62 -36l172 -271q6 -9 6 -22q0 -10 -9 -19.5t-20 -9.5h-110q-27 0 -43.5 9t-36.5 32l-224 258q-10 13 -10 29zM340 543q0 -355 225 -355q79 0 142.5 31.5t97.5 97.5v461q-51 127 -221 127 q-57 0 -101 -23t-70.5 -59t-43.5 -85.5t-23 -96.5t-6 -98z" />
<glyph unicode="&#xe1;" d="M61 539q0 121 28 223t84 182.5t149.5 126t216.5 45.5q192 0 278 -137l23 82q8 35 49 35h143q24 0 33.5 -11t9.5 -34v-801q0 -34 12 -50t50 -16q39 0 39 -43v-88q0 -45 -28.5 -56t-117.5 -11q-33 0 -58 2.5t-53 11.5t-48.5 24t-37 41.5t-24.5 63.5q-95 -152 -324 -152 q-144 0 -240.5 71.5t-140 195t-43.5 295.5zM340 543q0 -355 225 -355q79 0 142.5 31.5t97.5 97.5v461q-51 127 -221 127q-57 0 -101 -23t-70.5 -59t-43.5 -85.5t-23 -96.5t-6 -98zM487 1268q0 12 7 22l172 271q20 36 61 36h176q37 0 37 -30q0 -16 -10 -29l-223 -258 q-20 -23 -36.5 -32t-43.5 -9h-111q-10 0 -19.5 9.5t-9.5 19.5z" />
<glyph unicode="&#xe2;" d="M61 539q0 121 28 223t84 182.5t149.5 126t216.5 45.5q192 0 278 -137l23 82q8 35 49 35h143q24 0 33.5 -11t9.5 -34v-801q0 -34 12 -50t50 -16q39 0 39 -43v-88q0 -45 -28.5 -56t-117.5 -11q-33 0 -58 2.5t-53 11.5t-48.5 24t-37 41.5t-24.5 63.5q-95 -152 -324 -152 q-144 0 -240.5 71.5t-140 195t-43.5 295.5zM213 1266q0 12 8 24l205 266q14 19 31.5 28.5t28 11t28.5 1.5h143q18 0 28.5 -1.5t28 -11t31.5 -28.5l205 -266q8 -12 8 -22q0 -13 -9.5 -21t-20.5 -8h-111q-45 0 -86 41l-145 145l-146 -145q-41 -41 -86 -41h-110q-12 0 -21.5 7 t-9.5 20zM340 543q0 -355 225 -355q79 0 142.5 31.5t97.5 97.5v461q-51 127 -221 127q-57 0 -101 -23t-70.5 -59t-43.5 -85.5t-23 -96.5t-6 -98z" />
<glyph unicode="&#xe3;" d="M61 539q0 121 28 223t84 182.5t149.5 126t216.5 45.5q192 0 278 -137l23 82q8 35 49 35h143q24 0 33.5 -11t9.5 -34v-801q0 -34 12 -50t50 -16q39 0 39 -43v-88q0 -45 -28.5 -56t-117.5 -11q-33 0 -58 2.5t-53 11.5t-48.5 24t-37 41.5t-24.5 63.5q-95 -152 -324 -152 q-144 0 -240.5 71.5t-140 195t-43.5 295.5zM213 1278q0 106 60.5 170.5t160.5 64.5q67 0 131 -19.5t113 -38.5t78 -19q25 0 39 10t24 41q7 26 41 26h109q18 0 26.5 -10t8.5 -22q0 -118 -62.5 -180t-173.5 -62q-70 0 -133 19t-106.5 38t-67.5 19q-27 0 -41.5 -10.5 t-20.5 -34.5q-3 -9 -6 -14.5t-14.5 -11t-30.5 -5.5h-94q-41 0 -41 39zM340 543q0 -355 225 -355q79 0 142.5 31.5t97.5 97.5v461q-51 127 -221 127q-57 0 -101 -23t-70.5 -59t-43.5 -85.5t-23 -96.5t-6 -98z" />
<glyph unicode="&#xe4;" d="M61 539q0 121 28 223t84 182.5t149.5 126t216.5 45.5q192 0 278 -137l23 82q8 35 49 35h143q24 0 33.5 -11t9.5 -34v-801q0 -34 12 -50t50 -16q39 0 39 -43v-88q0 -45 -28.5 -56t-117.5 -11q-33 0 -58 2.5t-53 11.5t-48.5 24t-37 41.5t-24.5 63.5q-95 -152 -324 -152 q-144 0 -240.5 71.5t-140 195t-43.5 295.5zM246 1374q0 69 40 103t105 34t105.5 -34t40.5 -103q0 -67 -40.5 -101t-105.5 -34t-105 34t-40 101zM340 543q0 -355 225 -355q79 0 142.5 31.5t97.5 97.5v461q-51 127 -221 127q-57 0 -101 -23t-70.5 -59t-43.5 -85.5t-23 -96.5 t-6 -98zM639 1374q0 69 40 103t105 34t105.5 -34t40.5 -103q0 -67 -40.5 -101t-105.5 -34t-105 34t-40 101z" />
<glyph unicode="&#xe5;" d="M61 539q0 121 28 223t84 182.5t149.5 126t216.5 45.5q192 0 278 -137l23 82q8 35 49 35h143q24 0 33.5 -11t9.5 -34v-801q0 -34 12 -50t50 -16q39 0 39 -43v-88q0 -45 -28.5 -56t-117.5 -11q-33 0 -58 2.5t-53 11.5t-48.5 24t-37 41.5t-24.5 63.5q-95 -152 -324 -152 q-144 0 -240.5 71.5t-140 195t-43.5 295.5zM340 543q0 -355 225 -355q79 0 142.5 31.5t97.5 97.5v461q-51 127 -221 127q-57 0 -101 -23t-70.5 -59t-43.5 -85.5t-23 -96.5t-6 -98zM340 1466q0 96 66 163t161 67t162.5 -67.5t67.5 -162.5t-67 -161t-163 -66q-95 0 -161 66 t-66 161zM492 1468q0 -32 21.5 -53.5t53.5 -21.5q33 0 55.5 21.5t22.5 53.5t-23 55t-55 23t-53.5 -22.5t-21.5 -55.5z" />
<glyph unicode="&#xe6;" horiz-adv-x="1794" d="M61 295q0 168 101 256q118 102 387 102h199v39q0 90 -42.5 135t-142.5 45q-158 0 -338 -55q-12 -4 -24 -4q-26 0 -31 21l-39 133q-4 16 -4 20q0 27 31 43q49 28 168 57t245 29q109 0 194.5 -25t145.5 -94q128 119 361 119q108 0 190 -32t133 -85t82.5 -130.5t43.5 -159.5 t12 -181q0 -27 -11 -42t-43 -15h-657q24 -252 283 -252q118 0 284 49q12 4 27 4q25 0 31 -24l32 -142q2 -12 2 -20q0 -17 -7.5 -26t-26.5 -17q-154 -66 -387 -66q-245 0 -375 150q-84 -71 -202.5 -110.5t-223.5 -39.5q-92 0 -163.5 21t-114.5 53.5t-71 76t-38.5 84.5 t-10.5 83zM319 311q0 -64 44 -96.5t118 -32.5q183 0 267 94v195h-152q-140 0 -208.5 -38t-68.5 -122zM1024 653h432q0 47 -8 86.5t-27.5 78t-60 61t-98.5 22.5q-108 0 -168 -69.5t-70 -178.5z" />
<glyph unicode="&#xe7;" horiz-adv-x="1032" d="M61 551q0 130 29.5 231.5t91 177.5t163 116t239.5 40q160 0 259.5 -61.5t143.5 -192.5q4 -12 4 -20q0 -27 -30 -37l-123 -45q-15 -6 -37 -6q-19 0 -33 24q-30 51 -69.5 78t-114.5 27q-119 0 -182.5 -78.5t-63.5 -253.5q0 -158 67 -244t205 -86q117 0 273 47q21 6 35 6 q24 0 30 -26l31 -131q4 -20 4 -31q0 -28 -25 -39q-120 -52 -292 -65l-4 -66q99 -10 153.5 -65.5t54.5 -133.5q0 -59 -21 -102.5t-58.5 -68t-82.5 -35.5t-100 -11q-88 0 -174 27q-31 10 -31 37q0 5 3 14l22 68q10 28 39 28q8 0 52 -10t87 -10q27 0 48.5 13t21.5 42 q0 14 -4 24.5t-14 17.5t-18.5 11.5t-25.5 7.5t-26.5 4.5t-30.5 3.5t-29 3q-33 5 -48 17.5t-15 39.5q0 38 16 148q-200 27 -310 169.5t-110 395.5z" />
<glyph unicode="&#xe8;" horiz-adv-x="1110" d="M61 537q0 284 132 431.5t395 147.5q108 0 190 -32t133 -85t82.5 -130.5t43.5 -159.5t12 -181q0 -27 -11 -42t-43 -15h-657q24 -252 283 -252q118 0 284 49q12 4 27 4q25 0 31 -24l32 -142q2 -12 2 -20q0 -17 -7.5 -26t-26.5 -17q-154 -66 -388 -66q-133 0 -233.5 44 t-161 122t-90 177t-29.5 217zM190 1567q0 30 37 30h176q42 0 62 -36l172 -271q6 -9 6 -22q0 -10 -9.5 -19.5t-19.5 -9.5h-110q-27 0 -43.5 9t-36.5 32l-223 258q-11 15 -11 29zM340 653h432q0 47 -8 86.5t-27.5 78t-60 61t-98.5 22.5q-108 0 -168 -69.5t-70 -178.5z" />
<glyph unicode="&#xe9;" horiz-adv-x="1110" d="M61 537q0 284 132 431.5t395 147.5q108 0 190 -32t133 -85t82.5 -130.5t43.5 -159.5t12 -181q0 -27 -11 -42t-43 -15h-657q24 -252 283 -252q118 0 284 49q12 4 27 4q25 0 31 -24l32 -142q2 -12 2 -20q0 -17 -7.5 -26t-26.5 -17q-154 -66 -388 -66q-133 0 -233.5 44 t-161 122t-90 177t-29.5 217zM340 653h432q0 47 -8 86.5t-27.5 78t-60 61t-98.5 22.5q-108 0 -168 -69.5t-70 -178.5zM485 1268q0 12 7 22l172 271q20 36 61 36h176q37 0 37 -30q0 -16 -10 -29l-223 -258q-20 -23 -36.5 -32t-43.5 -9h-111q-10 0 -19.5 9.5t-9.5 19.5z" />
<glyph unicode="&#xea;" horiz-adv-x="1110" d="M61 537q0 284 132 431.5t395 147.5q108 0 190 -32t133 -85t82.5 -130.5t43.5 -159.5t12 -181q0 -27 -11 -42t-43 -15h-657q24 -252 283 -252q118 0 284 49q12 4 27 4q25 0 31 -24l32 -142q2 -12 2 -20q0 -17 -7.5 -26t-26.5 -17q-154 -66 -388 -66q-133 0 -233.5 44 t-161 122t-90 177t-29.5 217zM197 1266q0 12 8 24l205 266q14 19 31.5 28.5t28 11t28.5 1.5h143q18 0 28.5 -1.5t28 -11t31.5 -28.5l205 -266q8 -12 8 -22q0 -13 -10 -21t-21 -8h-110q-45 0 -86 41l-146 145l-145 -145q-41 -41 -86 -41h-111q-12 0 -21 7t-9 20zM340 653h432 q0 47 -8 86.5t-27.5 78t-60 61t-98.5 22.5q-108 0 -168 -69.5t-70 -178.5z" />
<glyph unicode="&#xeb;" horiz-adv-x="1110" d="M61 537q0 284 132 431.5t395 147.5q108 0 190 -32t133 -85t82.5 -130.5t43.5 -159.5t12 -181q0 -27 -11 -42t-43 -15h-657q24 -252 283 -252q118 0 284 49q12 4 27 4q25 0 31 -24l32 -142q2 -12 2 -20q0 -17 -7.5 -26t-26.5 -17q-154 -66 -388 -66q-133 0 -233.5 44 t-161 122t-90 177t-29.5 217zM225 1374q0 69 40.5 103t105.5 34t105 -34t40 -103q0 -67 -40 -101t-105 -34t-105.5 34t-40.5 101zM340 653h432q0 47 -8 86.5t-27.5 78t-60 61t-98.5 22.5q-108 0 -168 -69.5t-70 -178.5zM618 1374q0 69 40.5 103t105.5 34t105 -34t40 -103 q0 -67 -40 -101t-105 -34t-105.5 34t-40.5 101z" />
<glyph unicode="&#xec;" horiz-adv-x="557" d="M-88 1567q0 30 37 30h176q41 0 61 -36l172 -271q7 -10 7 -22q0 -10 -9.5 -19.5t-19.5 -9.5h-111q-27 0 -43.5 9t-36.5 32l-223 258q-10 13 -10 29zM143 41v1014q0 41 41 41h189q41 0 41 -41v-1010q0 -45 -41 -45h-189q-41 0 -41 41z" />
<glyph unicode="&#xed;" horiz-adv-x="557" d="M143 41v1014q0 41 41 41h189q41 0 41 -41v-1010q0 -45 -41 -45h-189q-41 0 -41 41zM184 1268q0 13 6 22l172 271q20 36 62 36h176q37 0 37 -30q0 -16 -10 -29l-224 -258q-20 -23 -36 -32t-43 -9h-111q-11 0 -20 9.5t-9 19.5z" />
<glyph unicode="&#xee;" horiz-adv-x="557" d="M-94 1266q0 12 8 24l205 266q14 19 31.5 28.5t28 11t28.5 1.5h143q18 0 28.5 -1.5t28 -11t31.5 -28.5l205 -266q8 -12 8 -22q0 -13 -9.5 -21t-20.5 -8h-111q-45 0 -86 41l-145 145l-146 -145q-41 -41 -86 -41h-110q-12 0 -21.5 7t-9.5 20zM143 41v1014q0 41 41 41h189 q41 0 41 -41v-1010q0 -45 -41 -45h-189q-41 0 -41 41z" />
<glyph unicode="&#xef;" horiz-adv-x="557" d="M-66 1374q0 69 40.5 103t105.5 34t105 -34t40 -103q0 -67 -40 -101t-105 -34t-105.5 34t-40.5 101zM143 41v1014q0 41 41 41h189q41 0 41 -41v-1010q0 -45 -41 -45h-189q-41 0 -41 41zM328 1374q0 69 40 103t105 34t105 -34t40 -103q0 -67 -40 -101t-105 -34t-105 34 t-40 101z" />
<glyph unicode="&#xf0;" horiz-adv-x="1124" d="M61 471q0 238 120 366t337 128q159 0 250 -91q-2 6 -6 17t-22 45.5t-41.5 70.5t-66 88t-93.5 101l-263 -82q-12 -4 -30 -4q-25 0 -35 18l-23 46q-6 12 -6 20q0 26 23 33l219 67q-62 50 -180 121q-19 13 -19 35q0 8 6 16.5t17 8.5h223q66 0 111 -25q83 -55 106 -74l189 60 q12 4 30 4q24 0 35 -19l23 -45q6 -12 6 -20q0 -26 -23 -33l-149 -47q52 -54 95.5 -115.5t83 -142t62 -180.5t23.5 -209q0 -188 -60 -333.5t-182.5 -232t-290.5 -86.5q-208 0 -338.5 129t-130.5 365zM322 471q0 -49 11 -94t34 -85.5t65 -64.5t98 -24q115 0 185.5 111 t70.5 284q0 30 -4 66q-3 3 -9 8.5t-27.5 18.5t-45 23t-61 18.5t-76.5 8.5q-241 0 -241 -270z" />
<glyph unicode="&#xf1;" horiz-adv-x="1263" d="M143 41v1014q0 41 41 41h138q15 0 24.5 -3t15 -10.5t8 -13.5t5.5 -18l31 -101q104 166 337 166q377 0 377 -446v-625q0 -45 -41 -45h-188q-41 0 -41 41v612q0 140 -47.5 196t-145.5 56q-25 0 -53 -6t-63.5 -21.5t-69.5 -49.5t-57 -83v-700q0 -45 -41 -45h-189 q-41 0 -41 41zM246 1278q0 106 60.5 170.5t160.5 64.5q67 0 131 -19.5t112.5 -38.5t77.5 -19q25 0 39.5 10t24.5 41q7 26 41 26h108q18 0 26.5 -10t8.5 -22q0 -118 -62 -180t-173 -62q-70 0 -133 19t-106.5 38t-67.5 19q-27 0 -41.5 -10.5t-20.5 -34.5q-3 -9 -6 -14.5 t-14.5 -11t-30.5 -5.5h-94q-41 0 -41 39z" />
<glyph unicode="&#xf2;" horiz-adv-x="1169" d="M61 547q0 283 143 426t388 143q243 0 379.5 -150.5t136.5 -418.5q0 -144 -39.5 -254.5t-110 -178.5t-163.5 -102.5t-205 -34.5q-244 0 -386.5 144.5t-142.5 425.5zM213 1567q0 30 37 30h176q41 0 61 -36l172 -271q7 -10 7 -22q0 -10 -9 -19.5t-20 -9.5h-111 q-27 0 -43.5 9t-36.5 32l-223 258q-10 13 -10 29zM338 547q0 -361 252 -361q121 0 181 94.5t60 266.5q0 178 -61 269t-180 91q-252 0 -252 -360z" />
<glyph unicode="&#xf3;" horiz-adv-x="1169" d="M61 547q0 283 143 426t388 143q243 0 379.5 -150.5t136.5 -418.5q0 -144 -39.5 -254.5t-110 -178.5t-163.5 -102.5t-205 -34.5q-244 0 -386.5 144.5t-142.5 425.5zM338 547q0 -361 252 -361q121 0 181 94.5t60 266.5q0 178 -61 269t-180 91q-252 0 -252 -360zM494 1268 q0 13 6 22l172 271q20 36 61 36h176q37 0 37 -30q0 -16 -10 -29l-223 -258q-20 -23 -36.5 -32t-43.5 -9h-111q-10 0 -19 9t-9 20z" />
<glyph unicode="&#xf4;" horiz-adv-x="1169" d="M61 547q0 283 143 426t388 143q243 0 379.5 -150.5t136.5 -418.5q0 -144 -39.5 -254.5t-110 -178.5t-163.5 -102.5t-205 -34.5q-244 0 -386.5 144.5t-142.5 425.5zM221 1266q0 12 8 24l205 266q14 19 31.5 28.5t28 11t28.5 1.5h144q18 0 28.5 -1.5t28 -11t31.5 -28.5 l204 -266q9 -14 9 -22q0 -13 -10 -21t-21 -8h-111q-45 0 -86 41l-145 145l-145 -145q-41 -41 -87 -41h-110q-12 0 -21.5 7t-9.5 20zM338 547q0 -361 252 -361q121 0 181 94.5t60 266.5q0 178 -61 269t-180 91q-252 0 -252 -360z" />
<glyph unicode="&#xf5;" horiz-adv-x="1169" d="M61 547q0 283 143 426t388 143q243 0 379.5 -150.5t136.5 -418.5q0 -144 -39.5 -254.5t-110 -178.5t-163.5 -102.5t-205 -34.5q-244 0 -386.5 144.5t-142.5 425.5zM201 1278q0 106 60.5 170.5t160.5 64.5q67 0 131 -19.5t112.5 -38.5t77.5 -19q25 0 39.5 10t24.5 41 q7 26 41 26h108q18 0 26.5 -10t8.5 -22q0 -118 -62 -180t-173 -62q-70 0 -133 19t-107 38t-67 19q-27 0 -41.5 -10.5t-20.5 -34.5q-3 -9 -6 -14.5t-14.5 -11t-30.5 -5.5h-94q-41 0 -41 39zM338 547q0 -361 252 -361q121 0 181 94.5t60 266.5q0 178 -61 269t-180 91 q-252 0 -252 -360z" />
<glyph unicode="&#xf6;" horiz-adv-x="1169" d="M61 547q0 283 143 426t388 143q243 0 379.5 -150.5t136.5 -418.5q0 -144 -39.5 -254.5t-110 -178.5t-163.5 -102.5t-205 -34.5q-244 0 -386.5 144.5t-142.5 425.5zM246 1374q0 69 40 103t105 34t105.5 -34t40.5 -103q0 -67 -40.5 -101t-105.5 -34t-105 34t-40 101z M338 547q0 -361 252 -361q121 0 181 94.5t60 266.5q0 178 -61 269t-180 91q-252 0 -252 -360zM639 1374q0 69 40 103t105 34t105.5 -34t40.5 -103q0 -67 -40.5 -101t-105.5 -34t-105 34t-40 101z" />
<glyph unicode="&#xf7;" horiz-adv-x="1071" d="M102 524v107q0 41 41 41h785q41 0 41 -41v-103q0 -45 -41 -45h-785q-41 0 -41 41zM393 250q0 59 40.5 100t98.5 41q59 0 100.5 -41.5t41.5 -99.5t-41.5 -98.5t-100.5 -40.5q-58 0 -98.5 40.5t-40.5 98.5zM393 920q0 60 40.5 101.5t98.5 41.5q59 0 100.5 -41.5 t41.5 -101.5q0 -57 -41.5 -97.5t-100.5 -40.5q-58 0 -98.5 40.5t-40.5 97.5z" />
<glyph unicode="&#xf8;" horiz-adv-x="1169" d="M61 547q0 283 143 426t388 143q144 0 250 -53l47 67q15 26 30.5 36t41.5 10h122q31 0 31 -27q0 -12 -10 -29l-119 -172q123 -148 123 -401q0 -144 -39.5 -254.5t-110 -178.5t-163.5 -102.5t-205 -34.5q-134 0 -238 43l-33 -47q-15 -26 -30 -35.5t-41 -9.5h-123 q-31 0 -31 27q0 12 10 29l97 139q-140 150 -140 424zM338 547q0 -117 24 -191l353 516q-53 35 -125 35q-252 0 -252 -360zM477 209q47 -23 113 -23q121 0 181 94.5t60 266.5q0 86 -16 158z" />
<glyph unicode="&#xf9;" horiz-adv-x="1243" d="M123 430v621q0 45 41 45h188q41 0 41 -41v-613q0 -140 47.5 -196t145.5 -56q26 0 53 5.5t63 20t70 48t57 82.5v705q0 45 41 45h189q41 0 41 -41v-1014q0 -41 -41 -41h-141q-26 0 -37.5 11t-18.5 34l-28 88q-36 -51 -85.5 -85t-99.5 -48t-83.5 -18.5t-65.5 -4.5 q-377 0 -377 453zM236 1567q0 30 36 30h177q41 0 61 -36l172 -271q6 -9 6 -22q0 -10 -9 -19.5t-20 -9.5h-110q-27 0 -43.5 9t-36.5 32l-223 258q-10 13 -10 29z" />
<glyph unicode="&#xfa;" horiz-adv-x="1243" d="M123 430v621q0 45 41 45h188q41 0 41 -41v-613q0 -140 47.5 -196t145.5 -56q26 0 53 5.5t63 20t70 48t57 82.5v705q0 45 41 45h189q41 0 41 -41v-1014q0 -41 -41 -41h-141q-26 0 -37.5 11t-18.5 34l-28 88q-36 -51 -85.5 -85t-99.5 -48t-83.5 -18.5t-65.5 -4.5 q-377 0 -377 453zM516 1268q0 13 6 22l172 271q20 36 62 36h176q37 0 37 -30q0 -14 -11 -29l-223 -258q-20 -23 -36.5 -32t-43.5 -9h-110q-11 0 -20 9.5t-9 19.5z" />
<glyph unicode="&#xfb;" horiz-adv-x="1243" d="M123 430v621q0 45 41 45h188q41 0 41 -41v-613q0 -140 47.5 -196t145.5 -56q26 0 53 5.5t63 20t70 48t57 82.5v705q0 45 41 45h189q41 0 41 -41v-1014q0 -41 -41 -41h-141q-26 0 -37.5 11t-18.5 34l-28 88q-36 -51 -85.5 -85t-99.5 -48t-83.5 -18.5t-65.5 -4.5 q-377 0 -377 453zM236 1266q0 12 8 24l205 266q14 19 31.5 28.5t28 11t28.5 1.5h143q18 0 28.5 -1.5t28 -11t31.5 -28.5l205 -266q8 -12 8 -22q0 -13 -10 -21t-21 -8h-110q-45 0 -86 41l-146 145l-145 -145q-41 -41 -86 -41h-111q-12 0 -21 7t-9 20z" />
<glyph unicode="&#xfc;" horiz-adv-x="1243" d="M123 430v621q0 45 41 45h188q41 0 41 -41v-613q0 -140 47.5 -196t145.5 -56q26 0 53 5.5t63 20t70 48t57 82.5v705q0 45 41 45h189q41 0 41 -41v-1014q0 -41 -41 -41h-141q-26 0 -37.5 11t-18.5 34l-28 88q-36 -51 -85.5 -85t-99.5 -48t-83.5 -18.5t-65.5 -4.5 q-377 0 -377 453zM270 1374q0 69 40.5 103t105.5 34t105 -34t40 -103q0 -67 -40 -101t-105 -34t-105.5 34t-40.5 101zM664 1374q0 69 40 103t105 34t105 -34t40 -103q0 -67 -40 -101t-105 -34t-105 34t-40 101z" />
<glyph unicode="&#xfd;" horiz-adv-x="1032" d="M0 1063q0 15 10 24t25 9h188q45 0 58 -45l178 -631l59 -221l55 219l160 635q12 43 51 43h193q35 0 35 -35q0 -11 -4 -27l-322 -1134q-47 -166 -146 -238t-245 -72q-147 0 -264 50q-27 12 -27 41q0 8 4 28l35 115q9 31 37 31q10 0 73 -17.5t117 -17.5q63 0 103 24.5 t59 83.5l25 74q-136 20 -178 156l-277 886q-2 8 -2 19zM406 1268q0 13 6 22l172 271q20 36 61 36h176q37 0 37 -30q0 -16 -10 -29l-223 -258q-20 -23 -36.5 -32t-43.5 -9h-111q-10 0 -19 9t-9 20z" />
<glyph unicode="&#xfe;" horiz-adv-x="1216" d="M143 -410v1868q0 42 31 47l170 35q20 4 35 4q13 0 24 -9.5t11 -27.5v-544q60 88 141.5 120.5t181.5 32.5q109 0 191 -42.5t130.5 -119t72.5 -173.5t24 -214q0 -127 -25.5 -229t-69 -168.5t-103.5 -110.5t-126 -63t-141 -19q-188 0 -276 115v-498q0 -45 -41 -45h-191 q-39 0 -39 41zM414 309q55 -121 213 -121q67 0 117 29t78 81t41.5 116t13.5 141q0 350 -226 350q-74 0 -139 -40.5t-98 -112.5v-443z" />
<glyph unicode="&#xff;" horiz-adv-x="1032" d="M0 1063q0 15 10 24t25 9h188q45 0 58 -45l178 -631l59 -221l55 219l160 635q12 43 51 43h193q35 0 35 -35q0 -11 -4 -27l-322 -1134q-47 -166 -146 -238t-245 -72q-147 0 -264 50q-27 12 -27 41q0 8 4 28l35 115q9 31 37 31q10 0 73 -17.5t117 -17.5q63 0 103 24.5 t59 83.5l25 74q-136 20 -178 156l-277 886q-2 8 -2 19zM166 1374q0 69 40 103t105 34t105.5 -34t40.5 -103q0 -67 -40.5 -101t-105.5 -34t-105 34t-40 101zM559 1374q0 69 40.5 103t105.5 34t105 -34t40 -103q0 -67 -40 -101t-105 -34t-105.5 34t-40.5 101z" />
<glyph unicode="&#x152;" horiz-adv-x="1916" d="M82 743q0 164 35 292t94 209.5t142 134.5t171.5 74.5t190.5 21.5h1087q41 0 41 -41v-156q0 -45 -41 -45h-542v-320h458q41 0 41 -41v-153q0 -45 -41 -45h-458v-432h575q41 0 41 -41v-156q0 -45 -41 -45h-1122q-103 0 -190.5 20.5t-171 73t-141.5 134.5t-93 213.5 t-35 301.5zM375 741q0 -101 17.5 -186t55 -159t106.5 -116t163 -42h256v997h-252q-96 0 -165 -39t-107.5 -109.5t-56 -155.5t-17.5 -190z" />
<glyph unicode="&#x153;" horiz-adv-x="1824" d="M61 547q0 278 135.5 423.5t376.5 145.5q225 0 355 -139q71 65 156 102t219 37q108 0 190 -32t132.5 -85t82 -130.5t43.5 -159.5t12 -181q0 -28 -10.5 -42.5t-42.5 -14.5h-657q24 -252 282 -252q119 0 285 49q12 4 27 4q24 0 30 -24l33 -142q2 -12 2 -20q0 -17 -8 -26 t-27 -17q-58 -25 -163 -45.5t-224 -20.5q-239 0 -368 136q-130 -136 -361 -136q-237 0 -368.5 149.5t-131.5 420.5zM338 547q0 -157 59 -248.5t166 -91.5q108 0 166.5 85.5t58.5 244.5q0 350 -219 350q-112 0 -171.5 -90.5t-59.5 -249.5zM1055 653h432q0 47 -8 86.5t-28 78 t-60.5 61t-98.5 22.5q-108 0 -167.5 -69.5t-69.5 -178.5z" />
<glyph unicode="&#x178;" horiz-adv-x="1196" d="M20 1444q0 11 8 21t21 10h217q14 0 21.5 -1t19 -9.5t19.5 -24.5l184 -373l88 -186l94 190l180 369q8 16 19.5 24.5t19 9.5t21.5 1h215q13 0 21 -10t8 -21q0 -12 -7 -23l-434 -794v-586q0 -41 -35 -41h-204q-35 0 -35 41v573l-434 807q-7 11 -7 23zM254 1759q0 69 40 103 t105 34t105.5 -34t40.5 -103q0 -67 -40.5 -101t-105.5 -34t-105 34t-40 101zM647 1759q0 69 40.5 103t105.5 34t105 -34t40 -103q0 -67 -40 -101t-105 -34t-105.5 34t-40.5 101z" />
<glyph unicode="&#x2c6;" horiz-adv-x="991" d="M123 1266q0 12 8 24l205 266q14 19 31.5 28.5t28 11t28.5 1.5h143q18 0 28.5 -1.5t28 -11t31.5 -28.5l205 -266q8 -12 8 -22q0 -13 -9.5 -21t-20.5 -8h-111q-45 0 -86 41l-145 145l-146 -145q-41 -41 -86 -41h-110q-12 0 -21.5 7t-9.5 20z" />
<glyph unicode="&#x2dc;" horiz-adv-x="1036" d="M123 1278q0 106 60.5 170.5t160.5 64.5q67 0 131 -19.5t113 -38.5t78 -19q25 0 39 10t24 41q7 26 41 26h109q18 0 26 -10t8 -22q0 -118 -62 -180t-173 -62q-70 0 -133 19t-107 38t-67 19q-27 0 -41.5 -10.5t-20.5 -34.5q-3 -9 -6 -14.5t-14.5 -11t-30.5 -5.5h-94 q-41 0 -41 39z" />
<glyph unicode="&#x2000;" horiz-adv-x="1041" />
<glyph unicode="&#x2001;" horiz-adv-x="2083" />
<glyph unicode="&#x2002;" horiz-adv-x="1041" />
<glyph unicode="&#x2003;" horiz-adv-x="2083" />
<glyph unicode="&#x2004;" horiz-adv-x="694" />
<glyph unicode="&#x2005;" horiz-adv-x="520" />
<glyph unicode="&#x2006;" horiz-adv-x="347" />
<glyph unicode="&#x2007;" horiz-adv-x="347" />
<glyph unicode="&#x2008;" horiz-adv-x="260" />
<glyph unicode="&#x2009;" horiz-adv-x="416" />
<glyph unicode="&#x200a;" horiz-adv-x="115" />
<glyph unicode="&#x2010;" horiz-adv-x="819" d="M102 506v162q0 19 11 30t28 11h537q39 0 39 -41v-162q0 -41 -41 -41h-533q-41 0 -41 41z" />
<glyph unicode="&#x2011;" horiz-adv-x="819" d="M102 506v162q0 19 11 30t28 11h537q39 0 39 -41v-162q0 -41 -41 -41h-533q-41 0 -41 41z" />
<glyph unicode="&#x2012;" horiz-adv-x="819" d="M102 506v162q0 19 11 30t28 11h537q39 0 39 -41v-162q0 -41 -41 -41h-533q-41 0 -41 41z" />
<glyph unicode="&#x2013;" horiz-adv-x="1323" d="M102 506v162q0 19 11 30t28 11h1041q39 0 39 -41v-162q0 -41 -41 -41h-1037q-41 0 -41 41z" />
<glyph unicode="&#x2014;" horiz-adv-x="2211" d="M102 506v162q0 19 11 30t28 11h1930q38 0 38 -41v-162q0 -41 -41 -41h-1925q-41 0 -41 41z" />
<glyph unicode="&#x2018;" horiz-adv-x="448" d="M41 1167q0 21 8 37l176 367q21 47 82 47h78q20 0 31.5 -10t11.5 -25q0 -8 -2 -16l-109 -383q-11 -51 -55 -51h-180q-41 0 -41 34z" />
<glyph unicode="&#x2019;" horiz-adv-x="448" d="M41 1167q0 9 2 17l109 383q11 51 55 51h180q18 0 29.5 -9t11.5 -26q0 -21 -8 -37l-176 -366q-21 -47 -82 -47h-78q-20 0 -31.5 9.5t-11.5 24.5z" />
<glyph unicode="&#x201a;" horiz-adv-x="468" d="M20 -176q0 4 3 16l108 383q11 51 55 51h181q41 0 41 -34q0 -19 -9 -37l-176 -367q-21 -47 -82 -47h-78q-20 0 -31.5 10t-11.5 25z" />
<glyph unicode="&#x201c;" horiz-adv-x="858" d="M41 1167q0 21 8 37l176 367q21 47 82 47h78q20 0 31.5 -10t11.5 -25q0 -8 -2 -16l-109 -383q-11 -51 -55 -51h-180q-41 0 -41 34zM451 1167q0 21 8 37l176 367q21 47 82 47h78q20 0 31.5 -10t11.5 -25q0 -8 -2 -16l-109 -383q-11 -51 -55 -51h-180q-41 0 -41 34z" />
<glyph unicode="&#x201d;" horiz-adv-x="858" d="M41 1167q0 9 2 17l109 383q11 51 55 51h180q18 0 29.5 -9t11.5 -26q0 -21 -8 -37l-176 -366q-21 -47 -82 -47h-78q-20 0 -31.5 9.5t-11.5 24.5zM451 1167q0 9 2 17l108 383q11 51 55 51h181q18 0 29.5 -9t11.5 -26q0 -19 -9 -37l-176 -366q-21 -47 -82 -47h-77 q-20 0 -31.5 9.5t-11.5 24.5z" />
<glyph unicode="&#x201e;" horiz-adv-x="878" d="M20 -176q0 4 3 16l108 383q11 51 55 51h181q41 0 41 -34q0 -19 -9 -37l-176 -367q-21 -47 -82 -47h-78q-20 0 -31.5 10t-11.5 25zM430 -176q0 8 2 16l109 383q11 51 55 51h180q41 0 41 -34q0 -21 -8 -37l-176 -367q-21 -47 -82 -47h-78q-20 0 -31.5 10t-11.5 25z" />
<glyph unicode="&#x2022;" horiz-adv-x="755" d="M102 594q0 114 80 195t195 81q114 0 195 -81t81 -195q0 -115 -81 -195t-195 -80q-115 0 -195 79.5t-80 195.5z" />
<glyph unicode="&#x2026;" horiz-adv-x="1665" d="M102 125q0 66 46 113t110 47q66 0 113 -47t47 -113q0 -64 -47 -110t-113 -46q-64 0 -110 45.5t-46 110.5zM678 125q0 66 46 113t110 47q66 0 112.5 -47t46.5 -113q0 -65 -46.5 -110.5t-112.5 -45.5q-64 0 -110 45.5t-46 110.5zM1247 125q0 66 46 113t110 47q66 0 113 -47 t47 -113q0 -64 -47 -110t-113 -46q-65 0 -110.5 45.5t-45.5 110.5z" />
<glyph unicode="&#x202f;" horiz-adv-x="416" />
<glyph unicode="&#x2039;" horiz-adv-x="706" d="M102 508q0 24 23 53l215 275q22 27 38 37t44 10h158q10 0 17 -7t7 -18q0 -5 -2.5 -12t-5.5 -11l-2 -4l-193 -321l193 -326q10 -14 10 -26q0 -11 -7 -18t-17 -7h-158q-28 0 -44 10t-38 37l-215 275q-23 24 -23 53z" />
<glyph unicode="&#x203a;" horiz-adv-x="706" d="M102 158q0 5 3 11.5t5 10.5l3 4l192 326l-192 321q-11 15 -11 27q0 11 7.5 18t17.5 7h158q28 0 44 -10t38 -37l215 -275q22 -28 22 -53q0 -13 -5.5 -26t-10.5 -20l-6 -7l-215 -275q-22 -27 -38 -37t-44 -10h-158q-10 0 -17.5 7t-7.5 18z" />
<glyph unicode="&#x205f;" horiz-adv-x="520" />
<glyph unicode="&#x20ac;" horiz-adv-x="1366" d="M20 524v101q0 43 39 43h103q-2 27 -2 82v53h-99q-41 0 -41 28v101q0 43 39 43h121q21 111 65 201t118 164.5t189.5 115.5t264.5 41q104 0 189.5 -22.5t144.5 -62t98.5 -86.5t63.5 -103q10 -23 10 -39q0 -23 -39 -39l-115 -45q-23 -10 -43 -10q-21 0 -43 28 q-56 73 -118 102t-152 29q-133 0 -214.5 -73.5t-117.5 -200.5h510q41 0 41 -37q0 -12 -4 -20l-24 -76q-10 -39 -58 -39h-491q-2 -18 -2 -58q0 -52 2 -77h454q41 0 41 -37q0 -13 -4 -21l-24 -75q-10 -39 -58 -39h-377q84 -258 357 -258q184 0 358 69q12 6 29 6q25 0 33 -22 l57 -156q4 -12 4 -22q0 -25 -31 -41q-79 -38 -203 -66.5t-272 -28.5q-143 0 -255 38t-188 108.5t-123 163t-71 209.5h-121q-41 0 -41 28z" />
<glyph unicode="&#x2122;" horiz-adv-x="1425" d="M0 1348v96q0 31 31 31h446q31 0 31 -31v-96q0 -31 -31 -31h-133v-402q0 -30 -31 -30h-116q-31 0 -31 30v402h-135q-31 0 -31 31zM553 915l22 433q1 36 12.5 61.5t26.5 39t38.5 21.5t41.5 9.5t43 1.5q37 0 63.5 -11.5t42 -33t22.5 -39t14 -43.5l59 -256l10 -49l10 49 l60 256q13 62 48 94.5t108 32.5q142 0 147 -127l22 -439q0 -30 -28 -30h-105q-28 0 -28 26l-13 367l-4 72l-14 -68l-70 -258q-6 -22 -10.5 -33.5t-18 -30t-40 -27.5t-64.5 -9t-65 10.5t-41 30t-20 33t-11 34.5l-61 236l-19 86l-6 -90l-10 -353q0 -10 -7 -18t-22 -8h-104 q-29 0 -29 30z" />
<glyph unicode="&#x25fc;" horiz-adv-x="1095" d="M0 0v1096h1096v-1096h-1096z" />
</font>
</defs>
</svg>
