<?xml version="1.0" standalone="no"?>
<!DOCTYPE svg PUBLIC "-//W3C//DTD SVG 1.1//EN" "http://www.w3.org/Graphics/SVG/1.1/DTD/svg11.dtd" >
<svg xmlns="http://www.w3.org/2000/svg">
<metadata></metadata>
<defs>
<font id="comex_ultra_condensedultraCn" horiz-adv-x="815" >
<font-face units-per-em="2048" ascent="1536" descent="-512" />
<missing-glyph horiz-adv-x="317" />
<glyph unicode="&#xfb01;" horiz-adv-x="835" d="M25 971v65q0 39 26 39h84v123q0 344 230 344q78 0 133 -35q20 -13 20 -30q0 -13 -10 -33l-25 -49q-11 -21 -28 -21q-4 0 -31.5 11.5t-48.5 11.5q-30 0 -46.5 -12t-28 -56t-11.5 -127v-127h125q24 0 24 -37v-69q0 -35 -24 -35h-125v-895q0 -39 -27 -39h-102q-25 0 -25 39 v895h-84q-26 0 -26 37zM555 1292q0 45 26.5 73t65.5 28q40 0 66 -28t26 -73q0 -43 -26 -70.5t-66 -27.5q-39 0 -65.5 28t-26.5 70zM571 39v997q0 39 25 39h102q27 0 27 -39v-997q0 -39 -27 -39h-102q-25 0 -25 39z" />
<glyph unicode="&#xfb02;" horiz-adv-x="835" d="M25 971v65q0 39 26 39h84v123q0 344 230 344q78 0 133 -35q20 -13 20 -30q0 -13 -10 -33l-25 -49q-11 -21 -28 -21q-4 0 -31.5 11.5t-48.5 11.5q-30 0 -46.5 -12t-28 -56t-11.5 -127v-127h125q24 0 24 -37v-69q0 -35 -24 -35h-125v-895q0 -39 -27 -39h-102q-25 0 -25 39 v895h-84q-26 0 -26 37zM571 31v1456q0 11 6 21.5t15 11.5l76 16q24 6 34 6q8 0 15.5 -9t7.5 -20v-1482q0 -11 -6.5 -21t-18.5 -10h-104q-11 0 -18 10.5t-7 20.5z" />
<glyph horiz-adv-x="0" />
<glyph horiz-adv-x="682" />
<glyph unicode=" "  horiz-adv-x="317" />
<glyph unicode="&#x09;" horiz-adv-x="317" />
<glyph unicode="&#xa0;" horiz-adv-x="317" />
<glyph unicode="!" horiz-adv-x="430" d="M84 94q0 51 30.5 83t75.5 32q44 0 73.5 -31t29.5 -84q0 -54 -29.5 -86.5t-73.5 -32.5q-45 0 -75.5 33t-30.5 86zM96 1481q0 21 5.5 30t21.5 9h131q27 0 27 -41l-27 -1104q0 -39 -27 -39h-73q-29 0 -29 39z" />
<glyph unicode="&#x22;" horiz-adv-x="405" d="M29 1526q0 35 26 35h90q27 0 27 -35l-18 -318q0 -38 -27 -41h-53q-14 0 -21 7.5t-8 27.5zM233 1526q0 35 27 35h90q27 0 27 -35l-19 -318q0 -38 -26 -41h-53q-14 0 -21 7.5t-8 27.5z" />
<glyph unicode="#" horiz-adv-x="999" d="M55 506q0 6 8 14l7 43q3 23 8.5 32t19.5 9h172l31 318h-174q-8 0 -15.5 6t-7.5 18q0 2 4 7.5t5 11.5l6 39q3 24 8.5 32t19.5 8h172l46 437q4 29 10.5 37t23.5 8h62q20 0 20 -25q0 -14 -2 -26l-45 -435h197l45 441q4 29 10.5 37t24.5 8h63q8 0 13.5 -7.5t5.5 -17.5 q0 -14 -2 -26l-46 -431h177q24 0 24 -24q0 -6 -2 -16l-12 -50q-7 -32 -29 -32h-174l-31 -318h176q23 0 23 -24q0 -7 -2 -17l-14 -49q-2 -18 -7.5 -25.5t-19.5 -7.5h-174l-45 -436q-3 -28 -10 -36.5t-25 -8.5h-61q-8 0 -14.5 7.5t-6.5 17.5q0 14 2 26l45 432h-196l-45 -444 q-1 -23 -9 -31t-26 -8h-62q-8 0 -14 8.5t-6 18.5t2 22l45 432h-176q-8 0 -15.5 6t-7.5 19zM387 602h195l30 320h-194z" />
<glyph unicode="$" horiz-adv-x="763" d="M68 98q0 15 12 43l24 52q10 20 31 20q11 0 23 -8q64 -42 109.5 -59t97.5 -17q167 0 167 227q0 139 -131 242l-106 84q-102 79 -155.5 176.5t-53.5 228.5q0 153 60 244t176 113v151q0 41 26 41h72q24 0 24 -41v-149q80 -14 133 -65.5t87 -149.5q8 -24 8 -41q0 -21 -29 -31 l-49 -20q-28 -11 -35 -11q-23 0 -31 25q-28 82 -62 114.5t-85 32.5q-133 0 -133 -210q0 -79 32.5 -133.5t100.5 -110.5l106 -88q102 -85 154.5 -176t52.5 -213q0 -168 -65 -264.5t-185 -118.5v-160q0 -41 -26 -41h-72q-24 0 -24 41v154q-137 9 -230 81q-24 17 -24 37z" />
<glyph unicode="%" horiz-adv-x="1046" d="M25 1112q0 160 53.5 250t159.5 90q217 0 217 -340t-217 -340q-213 0 -213 340zM160 27q0 3 1 6.5t3 11t4 14.5l551 1354q11 27 21 36t30 9h61q19 0 19 -24q0 -11 -8 -35l-549 -1354q-11 -27 -21.5 -36t-31.5 -9h-62q-18 0 -18 27zM160 1112q0 -73 19 -149t59 -76 q79 0 79 225q0 97 -19.5 161t-59.5 64q-22 0 -38.5 -27t-24.5 -67t-11.5 -73.5t-3.5 -57.5zM547 317q0 160 53.5 249t159.5 89q217 0 217 -338q0 -340 -217 -340q-213 0 -213 340zM682 317q0 -73 19 -149t59 -76q80 0 80 225q0 96 -20 160t-60 64q-22 0 -38.5 -27 t-24.5 -66.5t-11.5 -73t-3.5 -57.5z" />
<glyph unicode="&#x26;" horiz-adv-x="909" d="M55 354q0 271 197 471l-19 35q-69 138 -69 266q0 145 66.5 221t183.5 76q103 0 168 -69t65 -205q0 -184 -106 -297q-17 -21 -33 -21q-8 0 -25 17l-37 49q-10 13 -8 29t13 30q33 41 44 84t11 103q0 69 -25.5 107t-64.5 38q-46 0 -74.5 -39t-28.5 -119q0 -95 43 -180 l273 -557q1 5 7 29.5t8 34.5t8 35.5t8.5 41t7 42.5t7 49t5.5 50t4 56q3 45 29 45h78q16 0 22 -8.5t6 -28.5q-3 -123 -32 -261t-72 -242l35 -68q13 -29 43 -29q6 0 25.5 4t25.5 4q12 0 18 -24l12 -51q7 -32 7 -37q0 -15 -21 -23q-52 -18 -96 -18q-76 0 -123 72l-23 32 q-103 -118 -258 -118q-136 0 -220.5 96.5t-84.5 277.5zM207 365q0 -115 44 -182.5t116 -67.5q120 0 184 118l-232 469q-56 -76 -84 -152t-28 -185z" />
<glyph unicode="'" horiz-adv-x="200" d="M29 1526q0 35 26 35h90q27 0 27 -35l-18 -318q0 -38 -27 -41h-53q-14 0 -21 7.5t-8 27.5z" />
<glyph unicode="(" horiz-adv-x="499" d="M88 633q0 39 1.5 83.5t9 121.5t19.5 148t36.5 154.5t56.5 150.5t82.5 125.5t112.5 90.5q26 9 38 -22l27 -62q8 -23 -14 -41q-211 -169 -211 -745q0 -593 211 -764q16 -13 16 -27q0 -8 -2 -14l-29 -65q-10 -21 -24 -21q-8 0 -12 2q-64 34 -116 95.5t-84.5 129t-56 154.5 t-35 155.5t-18 149.5t-7.5 119.5t-1 81.5z" />
<glyph unicode=")" horiz-adv-x="499" d="M68 -154q0 14 16 27q211 171 211 764q0 576 -211 745q-22 18 -14 41l26 62q12 31 39 22q62 -32 112.5 -90.5t82.5 -125.5t56.5 -150.5t36.5 -154.5t19.5 -148t9 -121.5t1.5 -83.5q0 -43 -1 -81.5t-7.5 -119.5t-18 -149.5t-35 -155.5t-56 -154.5t-84.5 -129t-116 -95.5 q-4 -2 -12 -2q-15 0 -25 21l-28 65q-2 6 -2 14z" />
<glyph unicode="*" horiz-adv-x="671" d="M51 1313l2 12l23 80q6 22 22 22t29 -8l182 -98l-39 217q-2 12 -2 16q0 29 31 29h82q31 0 31 -29l-2 -16l-37 -215l178 96q20 8 29 8q16 0 22 -22l23 -80q2 -8 2 -12q0 -19 -19 -25l-16 -4l-197 -18l148 -154q14 -14 14 -31q0 -13 -16 -24l-66 -41q-10 -6 -22 -6 q-17 0 -27 24l-88 203l-86 -203q-10 -24 -27 -24q-12 0 -22 6l-66 41q-16 11 -16 24q0 17 14 31l148 154l-197 18q-12 2 -16 4q-19 6 -19 25z" />
<glyph unicode="+" horiz-adv-x="743" d="M84 553v53q0 21 6.5 30t28.5 9h190v340q0 41 35 41h57q35 0 35 -41v-340h191q22 0 28.5 -9t6.5 -30v-53q0 -19 -7.5 -27t-29.5 -8h-189v-342q0 -41 -35 -41h-57q-35 0 -35 41v342h-188q-22 0 -29.5 8t-7.5 27z" />
<glyph unicode="," horiz-adv-x="313" d="M27 -172q0 13 4 25l69 299q6 36 45 36h93q10 0 17 -7t7 -17q0 -11 -4 -23l-108 -293q-15 -41 -54 -41h-45q-9 0 -16.5 6t-7.5 15z" />
<glyph unicode="-" horiz-adv-x="575" d="M84 557v57q0 35 33 35h342q33 0 33 -35v-57q0 -35 -35 -35h-338q-35 0 -35 35z" />
<glyph unicode="." horiz-adv-x="337" d="M74 84q0 52 27 82.5t69 30.5q43 0 68.5 -30.5t25.5 -82.5q0 -51 -26 -83t-68 -32t-69 32t-27 83z" />
<glyph unicode="/" horiz-adv-x="526" d="M96 6q0 9 2 19l289 1486q5 23 12.5 32t24.5 9h70q22 0 22 -26q0 -9 -2 -19l-289 -1487q-5 -22 -12.5 -31t-24.5 -9h-69q-23 0 -23 26z" />
<glyph unicode="0" horiz-adv-x="827" d="M70 709q0 101 9.5 196t34 192.5t62.5 169.5t99 117.5t139 45.5q76 0 136 -38.5t98.5 -104.5t63.5 -160.5t35.5 -199.5t10.5 -229q0 -101 -9.5 -196t-33.5 -192.5t-61.5 -169.5t-98.5 -117.5t-139 -45.5q-95 0 -164 57.5t-107.5 161t-56.5 230.5t-18 283zM227 709 q0 -66 2.5 -128.5t14 -150t30 -151t55 -109t85.5 -45.5q41 0 73.5 32t51.5 87t32 114.5t19 130t8 117.5t2 92q0 54 -2 104.5t-8 122.5t-19 130.5t-32 112t-51.5 84t-73.5 30.5q-49 0 -85.5 -47.5t-55 -112.5t-30 -152.5t-14 -146t-2.5 -114.5z" />
<glyph unicode="1" horiz-adv-x="653" d="M106 35v80q0 39 29 39h133v1097h-133q-26 0 -26 35v82q0 39 26 39h187q65 0 85.5 -25.5t20.5 -103.5v-1124h121q18 0 23.5 -9t5.5 -30v-80q0 -18 -6 -26.5t-23 -8.5h-414q-17 0 -23 8.5t-6 26.5z" />
<glyph unicode="2" horiz-adv-x="759" d="M72 102q0 64 43 134l243 378q150 235 150 449q0 47 -5 83t-18 70t-40 52t-66 18q-51 0 -86.5 -38t-65.5 -132q-8 -29 -32 -29q-8 0 -17 3l-55 20q-12 3 -20.5 12.5t-8.5 18.5q0 14 4 28q71 261 285 261q62 0 110.5 -19.5t80 -52.5t52 -80t29.5 -99t9 -112 q0 -70 -14.5 -141.5t-34 -126.5t-54 -123t-58 -107.5t-63.5 -103.5l-116 -182l-88 -129h413q29 0 29 -39v-80q0 -35 -29 -35h-475q-46 0 -74 31.5t-28 70.5z" />
<glyph unicode="3" horiz-adv-x="739" d="M68 100q0 11 6 23l26 63q8 23 31 23q7 0 19 -8q107 -74 196 -74q76 0 122 69t46 203q0 150 -49.5 208.5t-157.5 58.5h-112q-17 0 -23 8t-6 26v78q0 41 27 41h120q77 0 119.5 67t42.5 179q0 217 -129 217q-55 -3 -87 -46.5t-56 -127.5q-7 -23 -23 -23q-12 0 -24 5l-66 20 q-16 6 -16 27q0 18 4 30q36 140 107 201.5t161 61.5q134 0 209.5 -88t75.5 -269q0 -119 -43.5 -199t-114.5 -120q91 -22 144 -108t53 -245q0 -205 -88 -314.5t-234 -109.5q-66 0 -135 24t-125 65q-20 17 -20 34z" />
<glyph unicode="4" horiz-adv-x="778" d="M14 475q0 43 37 119l402 782q15 31 51 31h102q10 0 16.5 -7.5t6.5 -17.5t-13 -36l-346 -639l-98 -185h307v361q0 39 25 39h96q27 0 27 -39v-357h86q28 0 28 -34v-78q0 -37 -28 -37h-86v-338q0 -39 -27 -39h-96q-25 0 -25 39v338h-364q-50 0 -75.5 27.5t-25.5 70.5z" />
<glyph unicode="5" horiz-adv-x="743" d="M66 96q0 16 14 41l26 49q10 21 23 21q15 0 33 -14q50 -35 88.5 -50.5t91.5 -15.5q85 0 130.5 75t45.5 210q0 74 -14.5 126t-37 81t-61.5 45t-74.5 20t-90.5 4h-101q-33 0 -33 35v549q0 61 10.5 90t30 37t62.5 8h381q26 0 26 -39v-82q0 -35 -26 -35h-332v-409h27 q211 0 299 -102.5t90 -331.5q0 -213 -88 -322t-246 -109q-128 0 -252 86q-22 15 -22 33z" />
<glyph unicode="6" horiz-adv-x="790" d="M70 700q0 109 9.5 206.5t34 196t63.5 169t103 114.5t146 44q196 0 260 -222q10 -30 10 -41q0 -19 -20 -26l-76 -25q-12 -4 -22 -4q-16 0 -27 33q-45 135 -133 135q-50 0 -87.5 -48.5t-59 -129t-33 -167t-13.5 -179.5q41 67 97 102t114 35q124 0 204.5 -114.5t80.5 -323.5 q0 -221 -84.5 -349.5t-230.5 -128.5q-171 0 -253.5 189.5t-82.5 533.5zM227 582q11 -216 56.5 -337.5t124.5 -121.5q75 0 118 85.5t43 233.5t-36 223.5t-117 75.5q-50 0 -104 -45.5t-85 -113.5z" />
<glyph unicode="7" horiz-adv-x="659" d="M14 1292v80q0 35 29 35h502q106 0 106 -84q0 -42 -30 -137l-377 -1145q-7 -24 -19 -32.5t-35 -8.5h-86q-30 0 -30 23q0 17 10 47l330 946l84 241h-451q-33 0 -33 35z" />
<glyph unicode="8" horiz-adv-x="808" d="M70 399q0 138 62 234.5t132 116.5q-25 13 -43 25t-42 37.5t-39 56.5t-25.5 80.5t-10.5 111.5q0 176 81 272.5t221 96.5q143 0 221 -100.5t78 -260.5q0 -78 -14.5 -137t-41 -94t-50.5 -54t-56 -34q76 -23 136 -114t60 -228q0 -431 -333 -431q-336 3 -336 422zM227 401 q0 -276 179 -276q176 0 176 270q0 128 -43.5 202.5t-132.5 74.5q-86 0 -132.5 -72t-46.5 -199zM262 1061q0 -116 36.5 -180t109.5 -64q48 0 80 35t45.5 89t13.5 124q0 103 -34.5 162t-106.5 59q-144 0 -144 -225z" />
<glyph unicode="9" horiz-adv-x="790" d="M70 952q0 221 84.5 349.5t230.5 128.5q171 0 253.5 -189.5t82.5 -533.5q0 -109 -9.5 -206.5t-34 -196t-63.5 -169t-103 -114.5t-146 -44q-185 0 -261 216q-8 24 -8 36t8 23t17 14l72 25q6 2 16 2q19 0 33 -35q47 -131 135 -131q50 0 87 48t57.5 129.5t31 166.5t12.5 180 q-43 -68 -98 -102.5t-113 -34.5q-124 0 -204 114.5t-80 323.5zM221 965q0 -147 36.5 -223t117.5 -76q50 0 103.5 44.5t82.5 112.5q-9 215 -54.5 338t-123.5 123q-75 0 -118.5 -85.5t-43.5 -233.5z" />
<glyph unicode=":" horiz-adv-x="356" d="M84 84q0 52 27 82.5t69 30.5q43 0 68.5 -30.5t25.5 -82.5q0 -51 -26 -83t-68 -32t-69 32t-27 83zM84 874q0 52 27 82.5t69 30.5q43 0 68.5 -30.5t25.5 -82.5q0 -51 -25.5 -82.5t-68.5 -31.5q-42 0 -69 31.5t-27 82.5z" />
<glyph unicode=";" horiz-adv-x="362" d="M27 -172q0 13 4 25l69 299q6 36 45 36h93q10 0 17 -7t7 -17q0 -11 -4 -23l-108 -293q-15 -41 -54 -41h-45q-9 0 -16.5 6t-7.5 15zM94 872q0 47 28 82t66 35q40 0 68.5 -35t28.5 -82q0 -49 -28.5 -81.5t-68.5 -32.5q-39 0 -66.5 32.5t-27.5 81.5z" />
<glyph unicode="&#x3c;" horiz-adv-x="643" d="M84 741v33q0 39 31 68l401 381q9 6 21 6q11 0 16.5 -8t5.5 -17v-51q0 -29 -6.5 -44.5t-26.5 -37.5l-272 -313l272 -314q20 -22 26.5 -37.5t6.5 -44.5v-51q0 -24 -22 -24q-12 0 -21 6l-401 381q-31 29 -31 67z" />
<glyph unicode="=" horiz-adv-x="636" d="M78 387v55q0 39 24 39h410q25 0 25 -39v-55q0 -19 -5.5 -27t-21.5 -8h-406q-26 0 -26 35zM78 725v57q0 39 24 39h410q25 0 25 -39v-57q0 -19 -5.5 -27t-21.5 -8h-406q-26 0 -26 35z" />
<glyph unicode="&#x3e;" horiz-adv-x="643" d="M84 311v51q0 29 6.5 44.5t26.5 37.5l272 314l-272 313q-20 22 -26.5 37.5t-6.5 44.5v51q0 9 5.5 17t16.5 8q12 0 21 -6l401 -381q31 -29 31 -68v-33q0 -38 -31 -67l-401 -381q-9 -6 -21 -6q-22 0 -22 24z" />
<glyph unicode="?" horiz-adv-x="630" d="M27 1235q0 11 4 27q51 260 280 260q61 0 111 -18.5t91.5 -59t65 -112t23.5 -169.5q0 -77 -13 -145t-40 -131t-48 -101.5t-59 -99.5q-42 -69 -58.5 -119t-16.5 -112v-78q0 -39 -27 -39h-109q-28 0 -28 39v67q0 76 25 150.5t89 183.5q64 110 93.5 192.5t29.5 190.5 q0 111 -36 164t-97 53q-53 0 -86 -35.5t-61 -136.5q-7 -22 -27 -22h-8l-78 18q-20 4 -20 33zM182 94q0 51 31 83t76 32q44 0 73 -31t29 -84q0 -54 -29 -86.5t-73 -32.5q-45 0 -76 33t-31 86z" />
<glyph unicode="@" horiz-adv-x="1103" d="M27 762q0 408 132 601t402 193q133 0 227 -35t160 -116t97.5 -214.5t31.5 -328.5q0 -512 -264 -512q-52 0 -97 28.5t-57 90.5q-23 -51 -69.5 -84t-95.5 -33q-230 0 -230 424q0 215 71 319.5t173 104.5q99 0 151 -104l13 61q7 27 26 27h70q10 0 15 -8t5 -17v-624 q0 -26 11 -46t37 -20q57 0 89.5 97.5t32.5 285.5q0 114 -9 198.5t-34 163.5t-68.5 129t-114.5 79.5t-169 29.5t-172.5 -36t-130.5 -115t-85.5 -214.5t-29.5 -324.5t31.5 -322.5t92 -209t138 -109t179.5 -33.5q180 0 346 137q13 13 26 13q11 0 19 -13l29 -43q8 -12 8 -20 q0 -14 -13 -27q-77 -74 -190 -116t-225 -42q-105 0 -188 23.5t-153.5 79.5t-117.5 145t-73.5 224.5t-26.5 312.5zM403 774q0 -70 4 -119.5t16 -96.5t37 -71t62 -24q44 0 77.5 40t53.5 107v344q-28 133 -121 133q-129 0 -129 -313z" />
<glyph unicode="A" horiz-adv-x="929" d="M25 29q0 15 6 39l286 1298q11 56 44 85.5t98 29.5h12q116 0 141 -111l289 -1311q4 -24 4 -34q0 -25 -22 -25h-101q-19 0 -28 9.5t-15 35.5l-75 361h-400l-74 -361q-6 -26 -15 -35.5t-28 -9.5h-100q-9 0 -15.5 9t-6.5 20zM295 553h338l-127 612l-41 199l-41 -201z" />
<glyph unicode="B" horiz-adv-x="858" d="M125 49v1372q0 29 6 39.5t21 12.5q82 8 235 8q62 -1 110 -8t101 -30t87.5 -62.5t57.5 -109.5t23 -165q0 -228 -154 -318q98 -40 142.5 -129.5t44.5 -232.5q0 -95 -13 -167t-40 -119t-60 -77t-83 -45.5t-97.5 -21t-114.5 -6.5q-174 0 -239 8q-27 4 -27 51zM285 145 q58 -6 125 -6q42 0 71.5 5t60 22.5t48.5 49t29.5 86t11.5 130.5q0 77 -12.5 131t-30.5 83t-48.5 44.5t-55 19t-62.5 3.5h-137v-568zM285 856h135q38 0 67.5 10.5t56.5 35.5t41.5 75.5t14.5 122.5q0 74 -15.5 122t-47 71t-64.5 30.5t-82 7.5q-53 0 -106 -6v-469z" />
<glyph unicode="C" horiz-adv-x="864" d="M70 741q0 174 23.5 309.5t73.5 236.5t132 154.5t193 53.5q124 0 202.5 -64.5t120.5 -197.5q6 -18 6 -35q0 -24 -28 -33l-56 -20q-21 -6 -32 -6q-19 0 -27 24q-38 97 -82 137.5t-109 40.5q-68 0 -118 -47.5t-78.5 -132.5t-41.5 -188t-13 -228q0 -124 13.5 -227t44 -192.5 t87 -140t135.5 -50.5q58 0 107.5 16t115.5 56q13 8 23 8q17 0 26 -20l27 -60q10 -23 10 -35q0 -22 -22 -37q-49 -34 -131 -60t-164 -26q-99 0 -176.5 44t-126 116t-79.5 173t-43.5 206t-12.5 225z" />
<glyph unicode="D" horiz-adv-x="995" d="M125 47v1376q0 46 27 50q102 8 247 8q60 0 103.5 -4t99.5 -19.5t97.5 -43t82.5 -79.5t70 -125q74 -187 74 -471q0 -275 -61.5 -442t-166.5 -238q-61 -41 -129.5 -55t-162.5 -14q-213 0 -256 8q-14 3 -19.5 12.5t-5.5 36.5zM285 145q62 -6 139 -6q63 0 109 11t88 43 q137 104 137 536q0 279 -47 408q-20 53 -47 90.5t-52.5 57t-64 30t-65.5 13t-72 3.5q-80 0 -125 -6v-1180z" />
<glyph unicode="E" horiz-adv-x="735" d="M115 156v1165q0 91 23 121.5t85 30.5h426q27 0 27 -39v-82q0 -35 -27 -35h-373v-451h318q27 0 27 -39v-75q0 -39 -27 -39h-318v-557h396q26 0 26 -35v-82q0 -39 -26 -39h-451q-43 0 -64 10t-31.5 43.5t-10.5 102.5z" />
<glyph unicode="F" horiz-adv-x="708" d="M125 41v1268q0 103 22 133.5t84 30.5h426q27 0 27 -39v-82q0 -35 -27 -35h-372v-451h329q27 0 27 -39v-75q0 -39 -27 -39h-329v-672q0 -41 -25 -41h-110q-25 0 -25 41z" />
<glyph unicode="G" horiz-adv-x="921" d="M70 741q0 172 26 309t77.5 237.5t134.5 154t192 53.5q126 0 202.5 -60.5t120.5 -201.5q6 -18 6 -37q0 -7 -7 -17t-19 -14l-60 -20q-21 -6 -32 -6q-18 0 -25 22q-36 97 -80.5 138.5t-109.5 41.5q-68 0 -119.5 -48t-81.5 -132t-44.5 -188.5t-14.5 -227.5q0 -103 6.5 -186.5 t24.5 -166.5t48 -138.5t80.5 -90t118.5 -34.5q100 0 170 51v422h-147q-29 0 -29 35v84q0 39 29 39h213q49 0 68.5 -19t19.5 -82v-493q0 -56 -14 -83t-52 -46q-120 -60 -274 -60q-428 0 -428 764z" />
<glyph unicode="H" horiz-adv-x="1024" d="M125 41v1391q0 41 25 41h108q27 0 27 -41v-564h454v564q0 41 25 41h110q25 0 25 -41v-1391q0 -41 -25 -41h-110q-25 0 -25 41v674h-454v-674q0 -41 -27 -41h-108q-25 0 -25 41z" />
<glyph unicode="I" horiz-adv-x="409" d="M125 41v1391q0 41 25 41h110q25 0 25 -41v-1391q0 -41 -25 -41h-110q-25 0 -25 41z" />
<glyph unicode="J" horiz-adv-x="600" d="M20 63q0 11 9 33l26 60q12 28 31 28q5 0 25 -10q66 -41 112 -41q45 0 68.5 39t23.5 131v1014h-143q-27 0 -27 35v82q0 39 27 39h268q20 0 27.5 -9.5t7.5 -31.5v-1131q0 -162 -54.5 -243t-187.5 -81q-99 0 -192 58q-21 14 -21 28z" />
<glyph unicode="K" horiz-adv-x="897" d="M125 41v1391q0 41 25 41h108q27 0 27 -41v-564h127l256 578q12 27 43 27h110q25 0 25 -25q0 -8 -17 -47l-290 -617l329 -731q11 -22 11 -33q0 -8 -7 -14t-18 -6h-104q-38 0 -50 27l-294 688h-121v-674q0 -41 -27 -41h-108q-25 0 -25 41z" />
<glyph unicode="L" horiz-adv-x="714" d="M125 166v1266q0 41 25 41h110q27 0 27 -41v-1276h379q26 0 26 -35v-82q0 -39 -26 -39h-435q-64 0 -85 30.5t-21 135.5z" />
<glyph unicode="M" horiz-adv-x="1224" d="M98 37l41 1270q7 174 146 174q67 0 101 -33t46 -107l150 -942l30 -190l31 188l150 944q12 77 48.5 108.5t104.5 31.5q70 0 103 -48t36 -143l41 -1253q0 -37 -22 -37h-107q-24 0 -24 37l-27 1057l-8 274l-45 -276l-143 -859q-11 -64 -42.5 -96.5t-91.5 -32.5h-10 q-111 0 -131 129l-143 861l-45 274l-6 -276l-27 -1055q0 -37 -27 -37h-106q-23 0 -23 37z" />
<glyph unicode="N" horiz-adv-x="1040" d="M121 41v1249q0 90 33.5 140.5t117.5 50.5q68 0 102 -35t54 -111l250 -903l88 -319l-4 383l-8 936q0 41 28 41h103q26 0 26 -41v-1260q0 -90 -37 -135t-120 -45q-58 0 -90 31t-50 94l-268 954l-78 277l2 -353l9 -954q0 -41 -29 -41h-103q-16 0 -21 9t-5 32z" />
<glyph unicode="O" horiz-adv-x="989" d="M70 743q0 166 23.5 297t63.5 215t95.5 139t115 78t126.5 23q68 0 128 -22.5t115.5 -77.5t95.5 -139t63.5 -214.5t23.5 -296.5q0 -125 -12.5 -230.5t-34 -183.5t-53 -139t-67.5 -101t-79.5 -66t-87.5 -37t-92 -11q-68 0 -127 22.5t-114.5 78t-95 140.5t-63.5 219.5 t-24 305.5zM236 741q0 -316 63 -463t195 -147q87 0 143 57t86.5 194.5t30.5 362.5q0 301 -63 449.5t-197 148.5q-258 0 -258 -602z" />
<glyph unicode="P" horiz-adv-x="794" d="M125 41v1384q0 42 20 45q74 11 215 11q233 0 322 -105q44 -50 66 -143t22 -203q0 -95 -14.5 -170.5t-37 -125.5t-58 -86.5t-68.5 -55.5t-77 -30.5t-76.5 -14t-73.5 -2.5q-4 0 -40 1t-40 1v-506q0 -41 -25 -41h-110q-25 0 -25 41zM285 696q39 -2 86 -2q130 0 181.5 79.5 t51.5 268.5q0 156 -55.5 222.5t-175.5 66.5q-28 0 -88 -6v-629z" />
<glyph unicode="Q" horiz-adv-x="989" d="M70 743q0 166 23.5 297t63.5 215t95.5 139t115 78t126.5 23q68 0 128 -22.5t115.5 -77.5t95.5 -139t63.5 -214.5t23.5 -296.5q0 -604 -277 -737l123 -184q12 -16 12 -29q0 -20 -22 -20h-107q-26 0 -38.5 7.5t-30.5 35.5l-91 159q-67 1 -125.5 23.5t-113.5 78t-94 140.5 t-62.5 219t-23.5 305zM236 741q0 -316 63 -463t195 -147q87 0 143 57t86.5 194.5t30.5 362.5q0 301 -63 449.5t-197 148.5q-258 0 -258 -602z" />
<glyph unicode="R" horiz-adv-x="860" d="M125 41v1382q0 44 25 47q64 11 215 11q80 0 137 -8.5t110.5 -33.5t86 -68.5t52 -116t19.5 -173.5q0 -330 -178 -395l237 -625q13 -35 13 -43q0 -18 -21 -18h-121q-18 0 -27 6.5t-18 30.5l-215 608q-23 0 -84.5 1t-70.5 1v-606q0 -41 -23 -41h-117q-20 0 -20 41zM285 795 q49 -4 106 -4t94.5 11.5t66 42t41.5 87.5t13 145q0 69 -12 117.5t-30.5 75t-50.5 40.5t-60.5 17.5t-73.5 3.5q-58 0 -94 -6v-530z" />
<glyph unicode="S" horiz-adv-x="763" d="M66 96q0 10 14 43l24 56q8 22 27 22q9 0 21 -8q111 -76 215 -76q168 0 168 256q0 157 -134 260l-106 82q-209 162 -209 391q0 173 77 273t222 100q202 0 277 -221q10 -30 10 -41q0 -21 -29 -31l-53 -20q-28 -11 -33 -11q-19 0 -31 31q-31 76 -63 106.5t-82 30.5 q-59 0 -97 -49t-38 -149q0 -84 32 -140.5t101 -115.5l113 -94q98 -81 150 -177t52 -219q0 -196 -78.5 -307t-242.5 -111q-168 0 -285 86q-22 16 -22 33z" />
<glyph unicode="T" horiz-adv-x="763" d="M10 1352v82q0 39 27 39h692q25 0 25 -39v-82q0 -19 -5.5 -27t-21.5 -8h-264v-1276q0 -41 -25 -41h-110q-27 0 -27 41v1276h-264q-27 0 -27 35z" />
<glyph unicode="U" horiz-adv-x="980" d="M111 516v916q0 41 24 41h111q24 0 24 -41v-904q0 -156 26.5 -245t72.5 -121.5t123 -32.5q74 0 120 32t72.5 117t26.5 230v924q0 41 26 41h107q26 0 26 -41v-940q0 -91 -11 -165t-38.5 -140.5t-70 -112t-109 -71.5t-152.5 -26q-201 0 -289.5 134t-88.5 405z" />
<glyph unicode="V" horiz-adv-x="899" d="M27 1444q0 12 5.5 20.5t14.5 8.5h105q18 0 26 -7t12 -30l213 -1086l46 -231l47 231l215 1080q4 26 12.5 34.5t28.5 8.5h98q9 0 15.5 -8.5t6.5 -20.5q0 -13 -4 -33l-272 -1302q-10 -50 -45 -81.5t-94 -31.5h-15q-63 0 -95.5 29.5t-43.5 83.5l-272 1304q-4 20 -4 31z" />
<glyph unicode="W" horiz-adv-x="1200" d="M35 1444q0 29 26 29h103q18 0 24 -7.5t7 -31.5l90 -1158l14 -176l29 183l139 934q13 60 45 84t82 24h8q114 0 131 -111l141 -944l27 -176l14 178l91 1162q1 25 7 32t23 7h101q28 0 28 -29q0 -13 -4 -37l-121 -1288q-11 -125 -129 -125h-14q-117 0 -135 117l-137 936 l-25 172l-25 -164l-137 -944q-8 -60 -44.5 -88.5t-86.5 -28.5h-14q-122 0 -133 125l-123 1288q0 6 -1 18.5t-1 18.5z" />
<glyph unicode="X" horiz-adv-x="841" d="M8 25q0 9 6 24l295 725l-256 649q-4 16 -4 23q0 12 6 19.5t15 7.5h112q17 0 26.5 -6.5t16.5 -28.5l156 -461l39 -115l43 123l153 453q7 22 15.5 28.5t25.5 6.5h113q9 0 16 -6.5t7 -16.5q0 -12 -9 -33l-252 -643l293 -725q6 -15 6 -24q0 -11 -6 -18t-14 -7h-111 q-19 0 -29.5 6.5t-17.5 28.5l-176 495l-57 162l-47 -135l-185 -522q-7 -21 -17 -28t-30 -7h-110q-9 0 -16 7t-7 18z" />
<glyph unicode="Y" horiz-adv-x="786" d="M23 1448q0 25 20 25h107q17 0 25 -6t15 -29l168 -469l37 -119l37 119l162 469q11 35 39 35h106q25 0 25 -23q0 -7 -8 -31l-285 -719v-659q0 -41 -22 -41h-111q-23 0 -23 41v659l-286 723q-6 15 -6 25z" />
<glyph unicode="Z" horiz-adv-x="804" d="M39 90q0 55 33 119l377 831l131 281l-199 -2h-272q-27 0 -27 35v80q0 39 27 39h553q45 0 67.5 -25.5t22.5 -63.5t-27 -104l-397 -879l-115 -249l199 2h329q27 0 27 -35v-80q0 -39 -27 -39h-612q-39 0 -64.5 25.5t-25.5 64.5z" />
<glyph unicode="[" horiz-adv-x="434" d="M102 -125v1509q0 76 22 102.5t83 26.5h172q27 0 27 -32v-62q0 -17 -6 -22.5t-21 -5.5h-127v-1524h127q14 0 20.5 -6t6.5 -23v-61q0 -33 -27 -33h-174q-60 0 -81.5 27.5t-21.5 103.5z" />
<glyph unicode="\" horiz-adv-x="524" d="M18 1526q0 26 23 26h68q17 0 24 -9t12 -32l289 -1486q2 -10 2 -19q0 -26 -22 -26h-68q-17 0 -24.5 9t-12.5 31l-289 1487q-2 10 -2 19z" />
<glyph unicode="]" horiz-adv-x="434" d="M29 -162q0 17 6 23t20 6h127v1524h-127q-15 0 -20.5 5.5t-5.5 22.5v62q0 32 26 32h172q61 0 83 -26.5t22 -102.5v-1509q0 -76 -21.5 -103.5t-81.5 -27.5h-174q-15 0 -20.5 7.5t-5.5 25.5v61z" />
<glyph unicode="^" horiz-adv-x="833" d="M82 885q0 8 8 28l248 580q14 35 59 35h37q46 0 60 -35l247 -580q9 -22 9 -28q0 -11 -6 -17t-13 -6h-53q-20 0 -32.5 8.5t-24.5 32.5l-205 453l-205 -453q-12 -24 -24.5 -32.5t-32.5 -8.5h-54q-7 0 -12.5 6t-5.5 17z" />
<glyph unicode="_" horiz-adv-x="911" d="M84 -219q0 35 25 35h694q10 0 17 -10t7 -25v-55q0 -35 -26 -35h-692q-25 0 -25 35v55z" />
<glyph unicode="`" horiz-adv-x="464" d="M92 1571q0 24 23 24h98q29 0 39 -28l117 -287q4 -12 4 -20q0 -23 -19 -23h-57q-18 0 -29 9t-22 32l-148 268q-6 12 -6 25z" />
<glyph unicode="a" d="M55 539q0 559 303 559q71 0 124 -38.5t75 -101.5l12 82q7 35 33 35h78q12 0 18.5 -10t6.5 -21v-847q0 -52 8 -67t35 -15q7 0 11.5 -1.5t8.5 -9t4 -22.5v-45q0 -51 -84 -51q-52 0 -88.5 36.5t-46.5 106.5q-30 -68 -84 -110t-127 -42q-144 0 -215.5 145t-71.5 417zM213 537 q0 -94 6 -162t23 -130.5t52 -95t87 -32.5q56 0 100.5 58t69.5 149v452q-7 27 -19.5 55.5t-32 58.5t-49 49t-63.5 19q-174 0 -174 -421z" />
<glyph unicode="b" d="M111 31v1452q0 7 5.5 19t12.5 18l94 20q3 0 9.5 1t9.5 1q8 0 15 -9.5t7 -19.5v-563q72 148 213 148q96 0 160.5 -71t93.5 -189t29 -277q0 -288 -78 -436t-229 -148q-136 0 -197 140l-10 -82q-4 -21 -13 -28t-24 -7h-74q-11 0 -17.5 10t-6.5 21zM264 291q20 -75 66 -124.5 t96 -49.5q87 0 130.5 113.5t43.5 322.5q0 70 -3.5 124t-14.5 107t-29 87.5t-48.5 55.5t-72.5 21q-50 0 -96.5 -51.5t-71.5 -144.5v-461z" />
<glyph unicode="c" horiz-adv-x="692" d="M55 530q0 175 34 299t110.5 196.5t191.5 72.5q193 0 254 -193q12 -37 12 -61q0 -28 -22 -33l-49 -14q-27 -6 -29 -6q-27 0 -33 24q-26 81 -53.5 112t-83.5 31q-81 0 -127.5 -107.5t-46.5 -315.5q0 -219 50.5 -316.5t150.5 -97.5q78 0 164 45q16 8 24 8q18 0 27 -29 l16 -51q4 -16 4 -24q0 -21 -18 -33q-89 -60 -232 -60q-163 0 -253.5 142t-90.5 411z" />
<glyph unicode="d" horiz-adv-x="823" d="M55 539q0 559 305 559q66 0 116.5 -35.5t74.5 -87.5v508q0 11 5.5 22.5t12.5 14.5l93 18q12 4 20 4t15.5 -9.5t7.5 -19.5v-1482q0 -11 -6.5 -21t-18.5 -10h-76q-28 0 -35 35l-16 88q-33 -65 -87.5 -105.5t-123.5 -40.5q-144 0 -215.5 145t-71.5 417zM213 537 q0 -94 6 -162t23 -130.5t52 -95t87 -32.5q56 0 100.5 58t69.5 149v456q-13 64 -60 121t-100 57q-178 0 -178 -421z" />
<glyph unicode="e" horiz-adv-x="749" d="M55 530q0 275 86 421.5t254 146.5q59 0 106 -21t79 -60t54.5 -89.5t34.5 -115t17.5 -130t5.5 -141.5q0 -34 -6 -41.5t-27 -7.5h-446q7 -181 55.5 -276t161.5 -95q64 0 156 45q16 8 24 8q17 0 25 -22l22 -72q2 -4 2 -12q0 -16 -18 -29q-87 -62 -238 -62q-348 0 -348 553z M215 627h322q-4 331 -148 331q-80 0 -124 -88.5t-50 -242.5z" />
<glyph unicode="f" horiz-adv-x="481" d="M25 971v65q0 39 26 39h84v123q0 344 230 344q78 0 133 -35q20 -13 20 -30q0 -13 -10 -33l-25 -49q-11 -21 -28 -21q-4 0 -31.5 11.5t-48.5 11.5q-30 0 -46.5 -12t-28 -56t-11.5 -127v-127h125q24 0 24 -37v-69q0 -35 -24 -35h-125v-895q0 -39 -27 -39h-102q-25 0 -25 39 v895h-84q-26 0 -26 37z" />
<glyph unicode="g" d="M55 539q0 559 307 559q69 0 119 -37.5t76 -99.5l12 79q5 35 33 35h78q25 0 25 -31v-1042q0 -214 -88 -313t-242 -99q-147 0 -254 66q-25 14 -25 33q0 8 8 28l25 58q8 22 27 22q8 0 20 -6q58 -32 101.5 -45.5t95.5 -13.5q178 0 178 276v115q-30 -64 -83.5 -105t-125.5 -41 q-144 0 -215.5 145t-71.5 417zM213 537q0 -94 6 -162t23 -130.5t52 -95t87 -32.5q56 0 100.5 58t69.5 149v452q-14 66 -60 124t-104 58q-174 0 -174 -421z" />
<glyph unicode="h" horiz-adv-x="841" d="M111 39v1448q0 11 5.5 21.5t14.5 11.5l76 16q24 6 35 6q8 0 15 -8.5t7 -20.5v-573q22 60 79 109t132 49q140 0 198 -99.5t58 -298.5v-661q0 -39 -24 -39h-105q-24 0 -24 39v676q0 239 -127 239q-63 0 -114.5 -56.5t-72.5 -143.5v-715q0 -39 -26 -39h-103q-24 0 -24 39z " />
<glyph unicode="i" horiz-adv-x="374" d="M94 1292q0 45 26.5 73t65.5 28q40 0 66.5 -28t26.5 -73q0 -43 -26.5 -70.5t-66.5 -27.5q-39 0 -65.5 28t-26.5 70zM111 39v997q0 39 24 39h103q26 0 26 -39v-997q0 -39 -26 -39h-103q-24 0 -24 39z" />
<glyph unicode="j" horiz-adv-x="374" d="M-84 -358q0 13 8 34l23 60q6 18 26 18q4 0 29.5 -9t46.5 -9q35 0 48.5 28t13.5 84v1186q0 39 24 39h105q24 0 24 -39v-1186q0 -258 -205 -258q-79 0 -120 25q-1 1 -4 2q-18 16 -19 25zM94 1292q0 43 26 71t64 28q42 0 68.5 -27.5t26.5 -71.5t-27 -72t-68 -28 q-37 0 -63.5 28.5t-26.5 71.5z" />
<glyph unicode="k" horiz-adv-x="749" d="M111 31v1456q0 11 5.5 21.5t14.5 11.5l76 16q24 6 35 6q8 0 15 -8.5t7 -20.5v-817h96l177 353q13 26 43 26h102q20 0 20 -26q0 -13 -10 -33l-217 -404l240 -546q12 -28 12 -41q0 -25 -25 -25h-100q-28 0 -39 27l-223 530h-76v-526q0 -11 -6 -21t-18 -10h-105 q-11 0 -17.5 10t-6.5 21z" />
<glyph unicode="l" horiz-adv-x="374" d="M111 31v1456q0 11 5.5 21.5t14.5 11.5l76 16q24 6 35 6q8 0 15 -8.5t7 -20.5v-1482q0 -11 -6 -21t-18 -10h-105q-11 0 -17.5 10t-6.5 21z" />
<glyph unicode="m" horiz-adv-x="1273" d="M111 39v1001q0 35 24 35h76q15 0 22.5 -7.5t10.5 -29.5l14 -100q67 160 221 160q160 0 203 -191q36 89 101.5 140t138.5 51q57 0 100 -20.5t75.5 -66t49 -124t16.5 -189.5v-659q0 -39 -24 -39h-105q-24 0 -24 39v670q0 243 -117 243q-133 0 -174 -227v-686q0 -39 -27 -39 h-102q-25 0 -25 39v676q0 127 -28 183t-91 56q-57 0 -110 -56t-72 -148v-711q0 -39 -26 -39h-103q-24 0 -24 39z" />
<glyph unicode="n" horiz-adv-x="841" d="M111 39v1001q0 35 24 35h74q19 0 25.5 -7t9.5 -30l14 -102q25 66 82 114t137 48q140 0 197 -99t57 -299v-661q0 -39 -24 -39h-105q-24 0 -24 39v676q0 239 -129 239q-63 0 -113.5 -58t-71.5 -146v-711q0 -39 -26 -39h-103q-24 0 -24 39z" />
<glyph unicode="o" horiz-adv-x="780" d="M55 543q0 261 92 408t246 147q156 0 243 -149.5t87 -407.5q0 -273 -91 -418.5t-241 -145.5q-154 0 -245 147t-91 419zM213 543q0 -203 46.5 -314.5t131.5 -111.5q176 0 176 426q0 201 -44 308t-132 107q-86 0 -132 -110.5t-46 -304.5z" />
<glyph unicode="p" d="M111 -381v1425q0 11 6 21t18 10h74q28 0 35 -35l14 -98q76 156 219 156q96 0 160.5 -71t93.5 -189t29 -277q0 -288 -78 -436t-229 -148q-131 0 -189 121v-479q0 -31 -24 -31h-105q-24 0 -24 31zM264 291q20 -75 66 -124.5t96 -49.5q87 0 130.5 113.5t43.5 322.5 q0 70 -3.5 124t-14.5 107t-29 87.5t-48.5 55.5t-72.5 21q-50 0 -96.5 -51.5t-71.5 -144.5v-461z" />
<glyph unicode="q" horiz-adv-x="813" d="M55 539q0 285 76.5 422t230.5 137q71 0 120.5 -38.5t74.5 -101.5l12 82q5 35 39 35h74q11 0 17 -10t6 -21v-1425q0 -31 -23 -31h-111q-10 0 -16 9t-6 20v502q-33 -65 -85.5 -103.5t-121.5 -38.5q-144 0 -215.5 145t-71.5 417zM213 537q0 -94 6 -162t23 -130.5t52 -95 t87 -32.5q56 0 100.5 58t69.5 149v452q-11 68 -58 125t-102 57q-178 0 -178 -421z" />
<glyph unicode="r" horiz-adv-x="548" d="M111 39v997q0 39 26 39h72q29 0 35 -43l16 -102q32 68 81.5 108.5t109.5 40.5q44 0 71 -18q17 -11 17 -27q0 -10 -11 -43l-16 -53q-9 -27 -25 -27q-5 0 -30 5.5t-43 5.5q-43 0 -85.5 -41t-64.5 -140v-712q0 -17 -5 -22t-19 -7h-105q-24 0 -24 39z" />
<glyph unicode="s" horiz-adv-x="624" d="M59 63q0 3 7 31l18 56q8 24 27 24q4 0 28 -12q76 -43 146 -43q68 0 100.5 47t32.5 121q0 60 -26.5 99t-86.5 81l-69 45q-34 24 -58 47t-49 58.5t-38 84.5t-13 111q0 131 66 208t182 77q78 0 133 -36t88 -124q12 -36 12 -49q0 -16 -29 -29l-47 -14q-12 -6 -22 -6 q-19 0 -29 26q-22 49 -46.5 72t-63.5 23q-99 0 -99 -146q0 -61 25 -99.5t71 -70.5l95 -70q78 -56 113.5 -126.5t35.5 -165.5q0 -134 -72.5 -220t-209.5 -86q-113 0 -201 58q-21 13 -21 28z" />
<glyph unicode="t" horiz-adv-x="501" d="M25 969v69q0 37 26 37h76v191q0 11 5.5 21t14.5 11l76 17q20 4 35 4q8 0 15.5 -9t7.5 -20v-215h151q27 0 27 -37v-69q0 -35 -27 -35h-151v-705q0 -53 14 -76.5t47 -23.5q21 0 61 16q17 7 25 7q17 0 23 -23l12 -51q6 -21 6 -31q0 -26 -18 -35q-58 -32 -134 -32 q-90 0 -140 62t-50 185v707h-76q-26 0 -26 35z" />
<glyph unicode="u" horiz-adv-x="827" d="M96 350v686q0 39 25 39h104q25 0 25 -39v-680q0 -132 31.5 -185.5t97.5 -53.5q63 0 113 58.5t71 146.5v714q0 39 27 39h102q25 0 25 -39v-1001q0 -35 -25 -35h-74q-19 0 -25 7t-9 30l-17 106q-23 -62 -80 -114t-135 -52q-256 0 -256 373z" />
<glyph unicode="v" horiz-adv-x="716" d="M10 1051q0 24 25 24h98q15 0 23 -8.5t12 -32.5l123 -626l61 -306l60 306l123 626q4 25 11 33t23 8h95q28 0 28 -26q0 -11 -6 -35l-201 -918q-11 -53 -47.5 -79.5t-79.5 -26.5h-16q-43 0 -78.5 27t-46.5 79l-199 910q-8 32 -8 45z" />
<glyph unicode="w" horiz-adv-x="1052" d="M25 1051q0 16 6 20t20 4h92q18 0 25 -8t10 -33l76 -624l37 -318l45 316l59 423q7 51 44 73t87 22q55 0 87.5 -20t39.5 -70l62 -424l43 -314l37 314l75 622q3 25 11 33t26 8h90q27 0 27 -20q0 -12 -131 -965q-7 -52 -45.5 -76t-91.5 -24q-59 0 -89.5 21t-37.5 73l-72 496 l-33 219l-32 -219l-72 -496q-8 -52 -37 -73t-94 -21q-121 0 -133 94q-131 959 -131 967z" />
<glyph unicode="x" horiz-adv-x="704" d="M27 25q0 12 8 32l209 506l-189 457q-10 25 -10 35q0 20 21 20h108q19 0 26 -4t13 -20l84 -252l53 -154l58 164l81 242q4 15 13 19.5t28 4.5h107q9 0 14.5 -6t5.5 -14q0 -16 -10 -39l-186 -453l209 -506q8 -20 8 -30q0 -11 -6 -19t-15 -8h-112q-30 0 -39 29l-113 336 l-41 116l-43 -127l-112 -325q-10 -29 -37 -29h-113q-20 0 -20 25z" />
<glyph unicode="y" horiz-adv-x="686" d="M14 -344q0 11 6 29l19 53q8 26 27 26q5 0 43 -13t75 -13q82 0 113 162l18 94q-81 3 -106 102l-189 922q-4 20 -4 26q0 31 25 31h96q21 0 29 -7.5t12 -33.5l125 -690l43 -231l39 233l117 696q5 33 33 33h104q9 0 14.5 -7.5t5.5 -18.5q0 -5 -6 -35l-211 -1123 q-56 -301 -243 -301q-110 0 -166 37q-19 13 -19 29z" />
<glyph unicode="z" horiz-adv-x="684" d="M43 90q0 52 35 117l315 586l78 143h-373q-24 0 -24 33v73q0 33 24 33h426q46 0 76.5 -23.5t30.5 -72.5q0 -58 -41 -129l-303 -555l-84 -156h413q27 0 27 -35v-69q0 -35 -25 -35h-477q-46 0 -72 24.5t-26 65.5z" />
<glyph unicode="{" horiz-adv-x="524" d="M90 594v61q0 43 31 43q40 0 56 27.5t16 81.5v414q0 87 17 146.5t49.5 90t70.5 43t90 12.5h45q31 0 31 -30v-56q0 -19 -5.5 -27.5t-23.5 -8.5h-33q-63 0 -78.5 -45t-15.5 -177v-362q0 -70 -33.5 -117.5t-93.5 -64.5q63 -17 95 -64.5t32 -118.5v-354q0 -128 18 -174.5 t82 -46.5h27q17 0 23 -9t6 -28v-51q0 -35 -31 -35h-45q-51 0 -89.5 12.5t-71 43.5t-49.5 90.5t-17 146.5v405q0 54 -16 81.5t-56 27.5q-31 0 -31 43z" />
<glyph unicode="|" horiz-adv-x="333" d="M109 0v1536q0 22 7.5 31.5t26.5 9.5h45q35 0 35 -41v-1536q0 -41 -35 -41h-45q-19 0 -26.5 9.5t-7.5 31.5z" />
<glyph unicode="}" horiz-adv-x="524" d="M29 -170q0 20 5.5 28.5t22.5 8.5h27q64 0 82 46.5t18 174.5v354q0 71 32 118.5t95 64.5q-60 17 -93.5 64.5t-33.5 117.5v362q0 132 -15.5 177t-78.5 45h-33q-17 0 -22.5 8.5t-5.5 27.5v56q0 30 30 30h45q52 0 90 -12.5t71 -43t50 -90t17 -146.5v-414q0 -54 15.5 -81.5 t55.5 -27.5q31 0 31 -43v-61q0 -43 -31 -43q-40 0 -55.5 -27.5t-15.5 -81.5v-405q0 -87 -17 -146.5t-50 -90.5t-71.5 -43.5t-89.5 -12.5h-45q-30 0 -30 35v51z" />
<glyph unicode="~" horiz-adv-x="720" d="M84 555q1 97 44 152t112 55q43 0 89.5 -23.5t83 -47t56.5 -23.5q24 0 34 14t17 59q2 14 7.5 21.5t10 8.5t11.5 1h63q11 0 18 -10.5t7 -20.5q0 -93 -45 -149.5t-107 -56.5q-49 0 -129 46t-106 46q-41 0 -51 -74q-4 -29 -29 -29h-64q-10 0 -16 9.5t-6 21.5z" />
<glyph unicode="&#xa1;" horiz-adv-x="430" d="M111 985q0 54 29 86.5t73 32.5q45 0 75.5 -33t30.5 -86q0 -51 -30.5 -83t-75.5 -32q-44 0 -73 31t-29 84zM123 -399l27 1104q0 38 26 38h74q29 0 29 -38l28 -1106q0 -21 -5 -30t-21 -9h-131q-27 0 -27 41z" />
<glyph unicode="&#xa2;" horiz-adv-x="710" d="M55 530q0 159 28.5 277t92 194t158.5 93v153q0 41 26 41h66q27 0 27 -41v-153q135 -25 192 -185q12 -37 12 -63q0 -27 -24 -33l-49 -14q-27 -6 -29 -6q-23 0 -31 24q-26 80 -53 113t-82 33q-81 0 -128.5 -110t-47.5 -318q0 -219 50.5 -316.5t150.5 -97.5q76 0 170 49 q39 19 49 -25l12 -51q4 -16 4 -24q0 -21 -18 -33q-70 -47 -178 -57v-154q0 -41 -27 -41h-66q-26 0 -26 41v160q-134 27 -206.5 165.5t-72.5 378.5z" />
<glyph unicode="&#xa3;" horiz-adv-x="761" d="M84 37v65q0 42 25 64q88 82 88 313v49h-58q-11 0 -18.5 9t-7.5 26v49q0 39 24 39h60v140h-58q-26 0 -26 34v49q0 39 24 39h60v185q0 110 14 189.5t47.5 141t93.5 92.5t148 31q102 0 184 -57q16 -11 16 -31q0 -14 -10 -34l-22 -44q-11 -22 -27 -22q-14 0 -23 6 q-66 33 -118 33q-83 0 -115.5 -71t-32.5 -238v-181h219q25 0 25 -39v-49q0 -34 -27 -34h-217v-140h219q25 0 25 -39v-49q0 -35 -27 -35h-217v-94q0 -176 -110 -278h465q26 0 26 -35v-82q0 -39 -26 -39h-596q-14 0 -20.5 11.5t-6.5 25.5z" />
<glyph unicode="&#xa5;" horiz-adv-x="786" d="M25 1444q0 29 22 29h113q9 0 14 -1t12 -9.5t13 -24.5l149 -455l47 -154l45 152l146 457q7 16 14.5 24.5t12.5 9.5t14 1h116q19 0 19 -27q0 -7 -4 -23l-236 -628h113q24 0 24 -39v-49q0 -35 -26 -35h-162v-140h164q24 0 24 -38v-50q0 -34 -26 -34h-162v-369q0 -41 -22 -41 h-111q-23 0 -23 41v369h-155q-11 0 -19 9t-8 25v50q0 38 25 38h157v140h-155q-11 0 -19 9.5t-8 25.5v49q0 39 25 39h110l-239 628q-4 12 -4 21z" />
<glyph unicode="&#xa6;" horiz-adv-x="333" d="M109 0v510q0 22 7.5 31.5t26.5 9.5h45q35 0 35 -41v-510q0 -41 -35 -41h-45q-19 0 -26.5 9.5t-7.5 31.5zM109 1024v510q0 22 7.5 31.5t26.5 9.5h45q35 0 35 -41v-510q0 -41 -35 -41h-45q-19 0 -26.5 9.5t-7.5 31.5z" />
<glyph unicode="&#xa7;" horiz-adv-x="632" d="M61 63q0 10 5 25l20 62q6 22 25 22q6 0 18 -6q98 -45 160 -45q117 0 117 153q0 70 -22.5 112t-84.5 81l-61 39q-86 54 -128 118t-42 148q0 86 29 142t77 102q-104 89 -104 235q0 136 64.5 217.5t180.5 81.5q33 0 64.5 -8t64 -27.5t58.5 -58.5t39 -94v-8q0 -14 -17 -27 l-57 -31q-12 -6 -21 -6t-15 6t-13 23q-41 96 -107 96q-43 0 -67.5 -39t-24.5 -116q0 -59 26.5 -94.5t71.5 -63.5l60 -37q67 -41 105 -76.5t63.5 -92.5t25.5 -134q0 -78 -32 -134.5t-78 -88.5q100 -83 100 -240q0 -155 -67.5 -238.5t-202.5 -83.5q-122 0 -213 60 q-17 10 -17 26zM223 811q1 -68 19 -103.5t59 -68.5q28 -23 57 -37q58 41 58 143q0 68 -20 102.5t-77 70.5l-47 30q-19 -19 -34 -56.5t-15 -80.5z" />
<glyph unicode="&#xa8;" horiz-adv-x="604" d="M92 1331q0 40 25 66t61 26q37 0 61.5 -25.5t24.5 -66.5t-24.5 -67.5t-61.5 -26.5q-36 0 -61 26.5t-25 67.5zM340 1331q0 41 24.5 66.5t61.5 25.5t61.5 -25.5t24.5 -66.5t-24.5 -67.5t-61.5 -26.5t-61.5 26.5t-24.5 67.5z" />
<glyph unicode="&#xa9;" horiz-adv-x="1089" d="M29 772q0 155 19.5 279t56 208t83 143t107 91.5t120.5 46.5t130 14q85 0 156.5 -21.5t138.5 -76.5t113 -141.5t74 -224t28 -316.5q0 -187 -27.5 -328.5t-73 -229.5t-112 -142.5t-137 -75.5t-156.5 -21q-87 0 -158 19.5t-140.5 73t-116.5 140t-76 229.5t-29 333zM145 770 q0 -192 28.5 -328.5t83.5 -213.5t126 -111.5t164 -34.5q92 0 161.5 35t123 113.5t81 215t27.5 328.5q0 676 -397 676q-398 0 -398 -680zM270 770q0 479 273 479q90 0 142.5 -40t80.5 -144q8 -33 -14 -41l-58 -18q-28 -10 -37 14q-26 69 -47.5 89.5t-66.5 20.5 q-137 0 -137 -362q0 -44 2.5 -84.5t12 -95t26 -94t47.5 -67.5t73 -28q60 0 138 41q10 6 21 3t15 -13l25 -53q9 -25 -10 -39q-77 -55 -195 -55q-142 0 -216.5 123.5t-74.5 363.5z" />
<glyph unicode="&#xaa;" horiz-adv-x="505" d="M39 1210q0 188 47 269.5t141 81.5q80 0 115 -80l8 45q5 22 19 22h57q14 0 14 -20v-516q0 -30 6 -40.5t21 -10.5q5 0 7.5 -1t4.5 -5t2 -13v-27q0 -30 -49 -30q-32 0 -59 22t-33 62q-22 -38 -56.5 -64t-72.5 -26q-85 0 -128.5 85t-43.5 246zM145 1219q0 -244 93 -244 q30 0 59 34.5t41 82.5v270q-15 35 -40.5 68.5t-51.5 33.5q-37 0 -60.5 -37t-32 -89t-8.5 -119z" />
<glyph unicode="&#xab;" horiz-adv-x="755" d="M84 508q0 21 12 45l146 293q11 21 21 29t28 8h53q9 0 16 -6t7 -17l-5 -20l-122 -332l122 -332q5 -8 5 -20q0 -18 -21 -23h-57q-18 0 -28 9t-21 32l-144 289q-12 24 -12 45zM387 508q0 21 12 45l146 293q11 21 21 29t28 8h53q9 0 16 -6t7 -17l-4 -20l-123 -332l123 -332 q4 -8 4 -20q0 -18 -21 -23h-57q-18 0 -28 9t-21 32l-144 289q-12 24 -12 45z" />
<glyph unicode="&#xac;" horiz-adv-x="782" d="M84 821v58q0 20 4 29.5t18 9.5h461q34 0 55.5 -5.5t40.5 -22t28 -50.5t9 -88v-265q0 -41 -24 -41h-82q-25 0 -25 41v299h-460q-25 0 -25 35z" />
<glyph unicode="&#xad;" horiz-adv-x="575" d="M84 557v57q0 35 33 35h342q33 0 33 -35v-57q0 -35 -35 -35h-338q-35 0 -35 35z" />
<glyph unicode="&#xae;" horiz-adv-x="1089" d="M29 772q0 155 19.5 279t56 208t83 143t107 91.5t120.5 46.5t130 14q85 0 156.5 -21.5t138.5 -76.5t113 -141.5t74 -224t28 -316.5q0 -187 -27.5 -328.5t-73 -229.5t-112 -142.5t-137 -75.5t-156.5 -21q-87 0 -158 19.5t-140.5 73t-116.5 140t-76 229.5t-29 333zM145 770 q0 -192 28.5 -328.5t83.5 -213.5t126 -111.5t164 -34.5q92 0 161.5 35t123 113.5t81 215t27.5 328.5q0 676 -397 676q-398 0 -398 -680zM326 319v885q0 12 6.5 20.5t13.5 10.5q60 14 168 14q54 0 95 -10.5t79.5 -38t59 -83.5t20.5 -138q0 -206 -123 -258l162 -393 q2 -9 2 -19q0 -16 -14 -16h-88q-24 0 -33 22l-144 385h-81v-381q0 -26 -19 -26h-84q-20 0 -20 26zM449 813q30 -6 65 -6q73 0 104 38.5t31 135.5q0 94 -36.5 127t-100.5 33l-63 -4v-324z" />
<glyph unicode="&#xaf;" horiz-adv-x="606" d="M92 1284v55q0 26 7 35.5t32 9.5h342q26 0 33.5 -9t7.5 -36v-55q0 -28 -7.5 -37.5t-33.5 -9.5h-342q-24 0 -31.5 9.5t-7.5 37.5z" />
<glyph unicode="&#xb0;" horiz-adv-x="487" d="M92 1346q0 86 44.5 147t107.5 61t107 -61t44 -147t-44 -146.5t-107 -60.5t-107.5 60.5t-44.5 146.5zM184 1346q0 -41 17.5 -70t42.5 -29t42 29t17 70q0 40 -17 68t-42 28t-42.5 -28t-17.5 -68z" />
<glyph unicode="&#xb1;" horiz-adv-x="765" d="M84 76v53q0 39 25 39h526q27 0 27 -39v-53q0 -35 -27 -35h-526q-25 0 -25 35zM84 737v54q0 21 6.5 29.5t28.5 8.5h190v340q0 41 35 41h57q35 0 35 -41v-340h191q22 0 28.5 -8.5t6.5 -29.5v-54q0 -19 -7.5 -27t-29.5 -8h-189v-342q0 -41 -35 -41h-57q-35 0 -35 41v342 h-188q-22 0 -29.5 8t-7.5 27z" />
<glyph unicode="&#xb4;" horiz-adv-x="464" d="M92 1260q0 20 4 20l117 287q10 28 39 28h98q23 0 23 -24q0 -25 -6 -25l-148 -268q-11 -23 -22 -32t-29 -9h-57q-19 5 -19 23z" />
<glyph unicode="&#xb6;" horiz-adv-x="780" d="M-57 1165q0 148 71 248t193 100h319q33 0 49 -3t30.5 -15.5t19 -38.5t4.5 -72v-1615q0 -41 -25 -41h-94q-23 0 -23 41v1603h-135v-1603q0 -41 -22 -41h-97q-22 0 -22 41v1048q-125 1 -196.5 99.5t-71.5 248.5z" />
<glyph unicode="&#xb7;" horiz-adv-x="382" d="M94 647q0 52 27 82.5t69 30.5q43 0 69 -30.5t26 -82.5q0 -51 -26 -83t-69 -32q-42 0 -69 32t-27 83z" />
<glyph unicode="&#xb8;" horiz-adv-x="479" d="M92 -420q0 8 2 12l12 39q8 15 21 15q2 0 29 -9.5t57 -9.5q57 0 59 70q0 71 -96 88q-23 4 -32 17.5t-9 41.5l12 156h107l-8 -117q68 -20 104.5 -61t36.5 -127q0 -75 -47.5 -120.5t-120.5 -45.5q-65 0 -106 20q-21 12 -21 31z" />
<glyph unicode="&#xba;" horiz-adv-x="485" d="M39 1223q0 166 56.5 252t150.5 86q93 0 145.5 -90.5t54.5 -251.5q-1 -160 -56.5 -250t-145.5 -90q-95 0 -150 86t-55 258zM145 1223q0 -114 26 -184t75 -70q26 0 45.5 22.5t29.5 60.5t14.5 80.5t4.5 90.5q0 106 -22 176.5t-72 70.5q-51 0 -76 -68t-25 -179z" />
<glyph unicode="&#xbb;" horiz-adv-x="755" d="M84 156l4 20l123 332l-123 332q-4 10 -4 20q0 11 6.5 17t15.5 6h54q18 0 28 -8t21 -29l145 -293q13 -26 13 -45t-13 -45l-143 -289q-11 -23 -21 -32t-28 -9h-58q-20 5 -20 23zM387 156l4 20l123 332l-123 332q-4 10 -4 20q0 11 7 17t16 6h53q18 0 28 -8t21 -29l145 -293 q13 -26 13 -45t-13 -45l-143 -289q-11 -23 -21 -32t-28 -9h-57q-21 5 -21 23z" />
<glyph unicode="&#xbf;" horiz-adv-x="620" d="M33 -84q0 77 13 145t40 131t48 101.5t59 99.5q42 68 58.5 119t16.5 113v77q0 39 27 39h108q29 0 29 -39v-67q0 -76 -25.5 -150.5t-89.5 -183.5t-93 -192t-29 -191q0 -111 36 -164t97 -53q53 0 86 35.5t61 136.5q8 23 27 23h8l78 -19q20 -4 20 -33q0 -10 -4 -26 q-51 -260 -280 -260q-61 0 -111 18.5t-91.5 58.5t-65 111.5t-23.5 169.5zM244 985q0 54 29 86.5t73 32.5q45 0 76 -33t31 -86q0 -51 -31 -83t-76 -32q-44 0 -73 31t-29 84z" />
<glyph unicode="&#xc0;" horiz-adv-x="929" d="M25 29q0 15 6 39l286 1298q11 56 44 85.5t98 29.5h12q116 0 141 -111l289 -1311q4 -24 4 -34q0 -25 -22 -25h-101q-19 0 -28 9.5t-15 35.5l-75 361h-400l-74 -361q-6 -26 -15 -35.5t-28 -9.5h-100q-9 0 -15.5 9t-6.5 20zM207 1968q0 25 22 25h99q29 0 39 -29l116 -287 q4 -12 4 -20q0 -23 -18 -23h-57q-18 0 -29.5 9.5t-22.5 31.5l-147 269q-6 12 -6 24zM295 553h338l-127 612l-41 199l-41 -201z" />
<glyph unicode="&#xc1;" horiz-adv-x="929" d="M25 29q0 15 6 39l286 1298q11 56 44 85.5t98 29.5h12q116 0 141 -111l289 -1311q4 -24 4 -34q0 -25 -22 -25h-101q-19 0 -28 9.5t-15 35.5l-75 361h-400l-74 -361q-6 -26 -15 -35.5t-28 -9.5h-100q-9 0 -15.5 9t-6.5 20zM295 553h338l-127 612l-41 199l-41 -201z M428 1657q0 20 4 20l117 287q10 29 39 29h98q23 0 23 -25q0 -24 -7 -24l-147 -269q-11 -23 -22 -32t-29 -9h-58q-18 4 -18 23z" />
<glyph unicode="&#xc2;" horiz-adv-x="929" d="M25 29q0 15 6 39l286 1298q11 56 44 85.5t98 29.5h12q116 0 141 -111l289 -1311q4 -24 4 -34q0 -25 -22 -25h-101q-19 0 -28 9.5t-15 35.5l-75 361h-400l-74 -361q-6 -26 -15 -35.5t-28 -9.5h-100q-9 0 -15.5 9t-6.5 20zM223 1657q0 20 4 20l146 289q18 27 51 27h74 q33 0 51 -27l145 -289q4 0 4 -20q0 -19 -18 -23h-57q-33 0 -58 41l-104 176l-107 -176q-23 -41 -55 -41h-57q-19 5 -19 23zM295 553h338l-127 612l-41 199l-41 -201z" />
<glyph unicode="&#xc3;" horiz-adv-x="929" d="M25 29q0 15 6 39l286 1298q11 56 44 85.5t98 29.5h12q116 0 141 -111l289 -1311q4 -24 4 -34q0 -25 -22 -25h-101q-19 0 -28 9.5t-15 35.5l-75 361h-400l-74 -361q-6 -26 -15 -35.5t-28 -9.5h-100q-9 0 -15.5 9t-6.5 20zM193 1665q1 100 39.5 154.5t101.5 54.5 q41 0 82 -23t73 -46t52 -23q35 0 45 71q3 20 9 25.5t15 5.5h64q10 0 15 -10t5 -21q0 -96 -40 -152t-107 -56q-42 0 -82 23t-70.5 46t-48.5 23q-20 0 -30.5 -16t-14.5 -58q-5 -29 -29 -29h-57q-6 0 -14 11t-8 20zM295 553h338l-127 612l-41 199l-41 -201z" />
<glyph unicode="&#xc4;" horiz-adv-x="929" d="M25 29q0 15 6 39l286 1298q11 56 44 85.5t98 29.5h12q116 0 141 -111l289 -1311q4 -24 4 -34q0 -25 -22 -25h-101q-19 0 -28 9.5t-15 35.5l-75 361h-400l-74 -361q-6 -26 -15 -35.5t-28 -9.5h-100q-9 0 -15.5 9t-6.5 20zM248 1729q0 40 25 66t61 26q37 0 61.5 -25.5 t24.5 -66.5t-24.5 -68t-61.5 -27q-36 0 -61 27t-25 68zM295 553h338l-127 612l-41 199l-41 -201zM496 1729q0 41 24.5 66.5t61.5 25.5t61.5 -25.5t24.5 -66.5t-24.5 -68t-61.5 -27t-61.5 27t-24.5 68z" />
<glyph unicode="&#xc5;" horiz-adv-x="929" d="M25 29q0 15 6 39l286 1298q11 56 44 85.5t98 29.5h12q116 0 141 -111l289 -1311q4 -24 4 -34q0 -25 -22 -25h-101q-19 0 -28 9.5t-15 35.5l-75 361h-400l-74 -361q-6 -26 -15 -35.5t-28 -9.5h-100q-9 0 -15.5 9t-6.5 20zM295 553h338l-127 612l-41 199l-41 -201z M313 1825q0 78 42 135t102 57t101.5 -56.5t41.5 -135.5q0 -76 -42 -133.5t-101 -57.5t-101.5 57.5t-42.5 133.5zM401 1821q0 -38 16.5 -64t39.5 -26t39 26t16 64q0 40 -16 67t-39 27t-39.5 -27t-16.5 -67z" />
<glyph unicode="&#xc6;" horiz-adv-x="1265" d="M20 23q0 7 7 28l483 1297q48 125 160 125h510q26 0 26 -39v-82q0 -35 -26 -35h-373v-451h317q27 0 27 -39v-75q0 -39 -27 -39h-317v-557h395q27 0 27 -35v-82q0 -39 -27 -39h-450q-35 0 -52 3.5t-31.5 18.5t-19 45t-4.5 85v254h-319l-129 -361q-16 -45 -54 -45h-98 q-25 0 -25 23zM379 553h266v520l2 230l-67 -189z" />
<glyph unicode="&#xc7;" horiz-adv-x="864" d="M70 741q0 174 23.5 309.5t73.5 236.5t132 154.5t193 53.5q126 0 202.5 -60.5t120.5 -201.5q6 -18 6 -35q0 -25 -30 -35l-54 -18q-21 -6 -32 -6q-20 0 -27 22q-36 97 -81 138.5t-110 41.5q-68 0 -118 -47.5t-78.5 -132.5t-41.5 -188t-13 -228q0 -124 13.5 -227t44 -192.5 t87 -140t135.5 -50.5q58 0 107.5 16t115.5 56q13 8 23 8q17 0 26 -20l25 -58q10 -23 10 -35q0 -26 -22 -41q-42 -30 -111 -52.5t-143 -28.5l-6 -97q141 -28 141 -188q0 -83 -46 -124.5t-122 -41.5q-65 0 -106 20q-21 12 -21 31q0 8 2 12l12 39q9 19 21 19q3 0 33 -11.5 t55 -11.5q55 0 57 70q0 38 -26.5 60.5t-69.5 27.5q-41 3 -41 59q0 1 10 140q-103 17 -178 87.5t-115.5 179t-58.5 229.5t-18 261z" />
<glyph unicode="&#xc8;" horiz-adv-x="735" d="M115 156v1165q0 91 23 121.5t85 30.5h426q27 0 27 -39v-82q0 -35 -27 -35h-373v-451h318q27 0 27 -39v-75q0 -39 -27 -39h-318v-557h396q26 0 26 -35v-82q0 -39 -26 -39h-451q-43 0 -64 10t-31.5 43.5t-10.5 102.5zM166 1968q0 25 22 25h99q29 0 39 -29l116 -287 q4 -12 4 -20q0 -23 -18 -23h-57q-18 0 -29.5 9.5t-22.5 31.5l-147 269q-6 12 -6 24z" />
<glyph unicode="&#xc9;" horiz-adv-x="735" d="M115 156v1165q0 91 23 121.5t85 30.5h426q27 0 27 -39v-82q0 -35 -27 -35h-373v-451h318q27 0 27 -39v-75q0 -39 -27 -39h-318v-557h396q26 0 26 -35v-82q0 -39 -26 -39h-451q-43 0 -64 10t-31.5 43.5t-10.5 102.5zM350 1657q0 20 4 20l117 287q10 29 39 29h98 q23 0 23 -25q0 -24 -6 -24l-148 -269q-11 -23 -22 -32t-29 -9h-57q-19 5 -19 23z" />
<glyph unicode="&#xca;" horiz-adv-x="735" d="M115 156v1165q0 91 23 121.5t85 30.5h426q27 0 27 -39v-82q0 -35 -27 -35h-373v-451h318q27 0 27 -39v-75q0 -39 -27 -39h-318v-557h396q26 0 26 -35v-82q0 -39 -26 -39h-451q-43 0 -64 10t-31.5 43.5t-10.5 102.5zM166 1657q0 20 4 20l145 289q18 27 52 27h73 q34 0 52 -27l145 -289q4 0 4 -20q0 -19 -18 -23h-58q-32 0 -57 41l-105 176l-106 -176q-23 -41 -55 -41h-58q-18 4 -18 23z" />
<glyph unicode="&#xcb;" horiz-adv-x="735" d="M115 156v1165q0 91 23 121.5t85 30.5h426q27 0 27 -39v-82q0 -35 -27 -35h-373v-451h318q27 0 27 -39v-75q0 -39 -27 -39h-318v-557h396q26 0 26 -35v-82q0 -39 -26 -39h-451q-43 0 -64 10t-31.5 43.5t-10.5 102.5zM158 1729q0 40 25 66t61 26q37 0 61.5 -25.5 t24.5 -66.5t-24.5 -68t-61.5 -27q-36 0 -61 27t-25 68zM406 1729q0 41 24.5 66.5t61.5 25.5t61.5 -25.5t24.5 -66.5t-24.5 -68t-61.5 -27t-61.5 27t-24.5 68z" />
<glyph unicode="&#xcc;" horiz-adv-x="409" d="M-23 1968q0 25 23 25h98q29 0 39 -29l117 -287q4 -12 4 -20q0 -23 -18 -23h-58q-18 0 -29 9t-22 32l-147 269q-7 14 -7 24zM125 41v1391q0 41 25 41h110q25 0 25 -41v-1391q0 -41 -25 -41h-110q-25 0 -25 41z" />
<glyph unicode="&#xcd;" horiz-adv-x="409" d="M125 41v1391q0 41 25 41h110q25 0 25 -41v-1391q0 -41 -25 -41h-110q-25 0 -25 41zM152 1657q0 20 4 20l116 287q10 29 39 29h99q22 0 22 -25q0 -24 -6 -24l-147 -269q-11 -22 -22.5 -31.5t-29.5 -9.5h-57q-18 4 -18 23z" />
<glyph unicode="&#xce;" horiz-adv-x="409" d="M-20 1657q0 20 4 20l145 289q18 27 51 27h74q33 0 51 -27l146 -289q4 0 4 -20q0 -18 -19 -23h-57q-32 0 -57 41l-105 176l-106 -176q-23 -41 -56 -41h-57q-18 4 -18 23zM125 41v1391q0 41 25 41h110q25 0 25 -41v-1391q0 -41 -25 -41h-110q-25 0 -25 41z" />
<glyph unicode="&#xcf;" horiz-adv-x="409" d="M-4 1729q0 40 25 66t61 26q37 0 61.5 -25.5t24.5 -66.5t-24.5 -68t-61.5 -27q-36 0 -61 27t-25 68zM125 41v1391q0 41 25 41h110q25 0 25 -41v-1391q0 -41 -25 -41h-110q-25 0 -25 41zM244 1729q0 41 24.5 66.5t61.5 25.5t61.5 -25.5t24.5 -66.5t-24.5 -68t-61.5 -27 t-61.5 27t-24.5 68z" />
<glyph unicode="&#xd0;" horiz-adv-x="995" d="M14 727v59q0 15 7 25t18 10h86v602q0 46 27 50q102 8 247 8q60 0 103.5 -4t99.5 -19.5t97.5 -43t82.5 -79.5t70 -125q74 -187 74 -471q0 -275 -61.5 -442t-166.5 -238q-61 -41 -129.5 -55t-162.5 -14q-213 0 -256 8q-14 3 -19.5 12.5t-5.5 36.5v645h-84q-27 0 -27 35z M285 145q62 -6 139 -6q63 0 109 11t88 43q137 104 137 536q0 279 -47 408q-20 53 -47 90.5t-52.5 57t-64 30t-65.5 13t-72 3.5q-80 0 -125 -6v-504h143q11 0 18 -10t7 -25v-59q0 -35 -27 -35h-141v-547z" />
<glyph unicode="&#xd1;" horiz-adv-x="1040" d="M125 41v1249q0 90 33.5 140.5t117.5 50.5q68 0 102 -35t54 -111l250 -903l88 -319l-4 383l-8 936q0 41 28 41h103q26 0 26 -41v-1260q0 -90 -37 -135t-120 -45q-58 0 -90 31t-50 94l-268 954l-78 277l2 -353l9 -954q0 -41 -29 -41h-102q-16 0 -21.5 9t-5.5 32zM279 1663 q1 100 39.5 154.5t101.5 54.5q41 0 82 -23t73 -46t52 -23q35 0 45 71q3 20 9 25.5t15 5.5h64q10 0 15 -10t5 -21q0 -96 -40.5 -152.5t-106.5 -56.5q-33 0 -66 14.5t-54 32t-43.5 32t-37.5 14.5q-20 0 -30.5 -16t-14.5 -58q-5 -29 -29 -29h-57q-6 0 -14 11t-8 20z" />
<glyph unicode="&#xd2;" horiz-adv-x="989" d="M70 743q0 166 23.5 297t63.5 215t95.5 139t115 78t126.5 23q68 0 128 -22.5t115.5 -77.5t95.5 -139t63.5 -214.5t23.5 -296.5q0 -125 -12.5 -230.5t-34 -183.5t-53 -139t-67.5 -101t-79.5 -66t-87.5 -37t-92 -11q-68 0 -127 22.5t-114.5 78t-95 140.5t-63.5 219.5 t-24 305.5zM231 1968q0 25 23 25h98q29 0 39 -29l117 -287q4 -12 4 -20q0 -23 -18 -23h-58q-18 0 -29 9t-22 32l-147 269q-7 14 -7 24zM236 741q0 -316 63 -463t195 -147q87 0 143 57t86.5 194.5t30.5 362.5q0 301 -63 449.5t-197 148.5q-258 0 -258 -602z" />
<glyph unicode="&#xd3;" horiz-adv-x="989" d="M70 743q0 166 23.5 297t63.5 215t95.5 139t115 78t126.5 23q68 0 128 -22.5t115.5 -77.5t95.5 -139t63.5 -214.5t23.5 -296.5q0 -125 -12.5 -230.5t-34 -183.5t-53 -139t-67.5 -101t-79.5 -66t-87.5 -37t-92 -11q-68 0 -127 22.5t-114.5 78t-95 140.5t-63.5 219.5 t-24 305.5zM236 741q0 -316 63 -463t195 -147q87 0 143 57t86.5 194.5t30.5 362.5q0 301 -63 449.5t-197 148.5q-258 0 -258 -602zM436 1657q0 20 4 20l117 287q10 29 39 29h98q23 0 23 -25q0 -24 -6 -24l-148 -269q-11 -23 -22 -32t-29 -9h-57q-19 5 -19 23z" />
<glyph unicode="&#xd4;" horiz-adv-x="989" d="M70 743q0 166 23.5 297t63.5 215t95.5 139t115 78t126.5 23q68 0 128 -22.5t115.5 -77.5t95.5 -139t63.5 -214.5t23.5 -296.5q0 -125 -12.5 -230.5t-34 -183.5t-53 -139t-67.5 -101t-79.5 -66t-87.5 -37t-92 -11q-68 0 -127 22.5t-114.5 78t-95 140.5t-63.5 219.5 t-24 305.5zM236 741q0 -316 63 -463t195 -147q87 0 143 57t86.5 194.5t30.5 362.5q0 301 -63 449.5t-197 148.5q-258 0 -258 -602zM254 1657q0 20 4 20l145 289q18 27 52 27h73q34 0 52 -27l145 -289q4 0 4 -20q0 -19 -18 -23h-58q-32 0 -57 41l-104 176l-107 -176 q-23 -41 -55 -41h-58q-18 4 -18 23z" />
<glyph unicode="&#xd5;" horiz-adv-x="989" d="M70 743q0 166 23.5 297t63.5 215t95.5 139t115 78t126.5 23q68 0 128 -22.5t115.5 -77.5t95.5 -139t63.5 -214.5t23.5 -296.5q0 -125 -12.5 -230.5t-34 -183.5t-53 -139t-67.5 -101t-79.5 -66t-87.5 -37t-92 -11q-68 0 -127 22.5t-114.5 78t-95 140.5t-63.5 219.5 t-24 305.5zM233 1665q1 100 40 154.5t102 54.5q41 0 82 -23t73 -46t52 -23q35 0 45 71q3 20 9 25.5t15 5.5h64q10 0 15 -10t5 -21q0 -96 -40 -152t-107 -56q-42 0 -82 23t-70.5 46t-48.5 23q-20 0 -30.5 -16t-14.5 -58q-5 -29 -29 -29h-57q-6 0 -14.5 11t-8.5 20zM236 741 q0 -316 63 -463t195 -147q87 0 143 57t86.5 194.5t30.5 362.5q0 301 -63 449.5t-197 148.5q-258 0 -258 -602z" />
<glyph unicode="&#xd6;" horiz-adv-x="989" d="M70 743q0 166 23.5 297t63.5 215t95.5 139t115 78t126.5 23q68 0 128 -22.5t115.5 -77.5t95.5 -139t63.5 -214.5t23.5 -296.5q0 -125 -12.5 -230.5t-34 -183.5t-53 -139t-67.5 -101t-79.5 -66t-87.5 -37t-92 -11q-68 0 -127 22.5t-114.5 78t-95 140.5t-63.5 219.5 t-24 305.5zM236 741q0 -316 63 -463t195 -147q87 0 143 57t86.5 194.5t30.5 362.5q0 301 -63 449.5t-197 148.5q-258 0 -258 -602zM285 1729q0 40 25 66t61 26q37 0 61.5 -25.5t24.5 -66.5t-24.5 -68t-61.5 -27q-36 0 -61 27t-25 68zM532 1729q0 41 24.5 66.5t61.5 25.5 t62 -25.5t25 -66.5t-25 -68t-62 -27t-61.5 27t-24.5 68z" />
<glyph unicode="&#xd7;" horiz-adv-x="671" d="M84 319l178 263l-178 262q-17 30 2 45l47 37q25 22 43 -4l21 -31l141 -217l137 217l21 31q18 26 43 4l47 -37q19 -15 2 -45l-180 -262l180 -263q17 -30 -2 -45l-47 -36q-25 -22 -43 4l-160 252l-160 -252q-18 -26 -43 -4l-47 36q-19 15 -2 45z" />
<glyph unicode="&#xd8;" horiz-adv-x="989" d="M70 743q0 166 23.5 297t63.5 215t95.5 139t115 78t126.5 23q130 0 229 -86l41 94q11 26 19.5 34.5t27.5 8.5h66q20 0 20 -20q0 -11 -6 -23l-86 -196q115 -192 115 -562q0 -125 -12.5 -230.5t-34 -183.5t-53 -139t-67.5 -101t-79.5 -66t-87.5 -37t-92 -11q-137 0 -234 91 l-41 -97q-11 -26 -19.5 -34.5t-27.5 -8.5h-66q-7 0 -12.5 5.5t-5.5 13.5q0 9 6 24l86 199q-110 196 -110 573zM236 741q0 -241 32 -372l389 891q-60 81 -163 81q-133 0 -195.5 -143.5t-62.5 -456.5zM328 219q59 -88 166 -88q87 0 142.5 55t86.5 192.5t31 366.5 q0 227 -35 367z" />
<glyph unicode="&#xd9;" horiz-adv-x="980" d="M111 516v916q0 41 24 41h111q24 0 24 -41v-904q0 -156 26.5 -245t72.5 -121.5t123 -32.5q74 0 120 32t72.5 117t26.5 230v924q0 41 26 41h107q26 0 26 -41v-940q0 -91 -11 -165t-38.5 -140.5t-70 -112t-109 -71.5t-152.5 -26q-201 0 -289.5 134t-88.5 405zM272 1968 q0 25 23 25h98q29 0 39 -29l117 -287q4 0 4 -20q0 -19 -18 -23h-58q-18 0 -29 9t-22 32l-147 269q-7 0 -7 24z" />
<glyph unicode="&#xda;" horiz-adv-x="980" d="M111 516v916q0 41 24 41h111q24 0 24 -41v-904q0 -156 26.5 -245t72.5 -121.5t123 -32.5q74 0 120 32t72.5 117t26.5 230v924q0 41 26 41h107q26 0 26 -41v-940q0 -91 -11 -165t-38.5 -140.5t-70 -112t-109 -71.5t-152.5 -26q-201 0 -289.5 134t-88.5 405zM436 1657 q0 20 4 20l117 287q10 29 39 29h98q23 0 23 -25q0 -24 -6 -24l-148 -269q-11 -23 -22 -32t-29 -9h-57q-19 5 -19 23z" />
<glyph unicode="&#xdb;" horiz-adv-x="980" d="M111 516v916q0 41 24 41h111q24 0 24 -41v-904q0 -156 26.5 -245t72.5 -121.5t123 -32.5q74 0 120 32t72.5 117t26.5 230v924q0 41 26 41h107q26 0 26 -41v-940q0 -91 -11 -165t-38.5 -140.5t-70 -112t-109 -71.5t-152.5 -26q-201 0 -289.5 134t-88.5 405zM252 1657 q0 20 4 20l145 289q18 27 52 27h73q34 0 52 -27l145 -289q4 0 4 -20q0 -19 -18 -23h-58q-32 0 -57 41l-105 176l-106 -176q-23 -41 -55 -41h-58q-18 4 -18 23z" />
<glyph unicode="&#xdc;" horiz-adv-x="980" d="M111 516v916q0 41 24 41h111q24 0 24 -41v-904q0 -156 26.5 -245t72.5 -121.5t123 -32.5q74 0 120 32t72.5 117t26.5 230v924q0 41 26 41h107q26 0 26 -41v-940q0 -91 -11 -165t-38.5 -140.5t-70 -112t-109 -71.5t-152.5 -26q-201 0 -289.5 134t-88.5 405zM281 1729 q0 40 25 66t61 26q37 0 61.5 -25.5t24.5 -66.5t-24.5 -68t-61.5 -27q-36 0 -61 27t-25 68zM528 1729q0 41 24.5 66.5t61.5 25.5t61.5 -25.5t24.5 -66.5t-24.5 -68t-61.5 -27t-61.5 27t-24.5 68z" />
<glyph unicode="&#xdd;" horiz-adv-x="786" d="M23 1448q0 25 20 25h107q17 0 25 -6t15 -29l168 -469l37 -119l37 119l162 469q11 35 39 35h106q25 0 25 -23q0 -7 -8 -31l-285 -719v-659q0 -41 -22 -41h-111q-23 0 -23 41v659l-286 723q-6 15 -6 25zM328 1657q0 20 4 20l117 287q10 29 38 29h99q22 0 22 -25 q0 -24 -6 -24l-147 -269q-11 -22 -22.5 -31.5t-29.5 -9.5h-57q-18 4 -18 23z" />
<glyph unicode="&#xde;" horiz-adv-x="794" d="M125 41v1391q0 41 25 41h110q25 0 25 -41v-236q31 2 75 2q120 0 196.5 -24.5t123.5 -79.5q90 -103 90 -340q0 -95 -14 -171t-36.5 -126.5t-56.5 -87.5t-67 -57t-76 -32t-76 -15t-73 -3q-4 0 -43 1t-43 1v-223q0 -41 -25 -41h-110q-25 0 -25 41zM285 414q39 -2 86 -2 q129 0 181 80t52 264q0 161 -55 227t-176 66q-18 0 -88 -7v-628z" />
<glyph unicode="&#xdf;" horiz-adv-x="866" d="M25 969v69q0 37 24 37h86v51q0 130 24 223t69.5 145.5t104.5 76.5t136 24q128 0 203.5 -74t75.5 -218q0 -82 -28.5 -158.5t-62 -126t-62 -115t-28.5 -127.5q0 -66 25 -99.5t108 -94.5q79 -59 114.5 -127t35.5 -162q0 -134 -69 -225t-203 -91q-121 0 -213 58 q-19 11 -19 26q0 9 6 33l17 58q8 24 22 24q11 0 35 -12q81 -41 139 -41q66 0 100.5 43.5t34.5 116.5q0 61 -26 100t-84 80q-106 76 -140 136.5t-34 170.5q0 59 17.5 119.5t42 111.5t49 100t42 102.5t17.5 101.5q0 64 -32 105.5t-87 41.5q-94 0 -135 -77.5t-41 -262.5v-1071 q0 -41 -25 -41h-104q-14 0 -19.5 9t-5.5 32v893h-86q-24 0 -24 35z" />
<glyph unicode="&#xe0;" d="M55 539q0 559 303 559q71 0 124 -38.5t75 -101.5l12 82q7 35 33 35h78q12 0 18.5 -10t6.5 -21v-847q0 -52 8 -67t35 -15q7 0 11.5 -1.5t8.5 -9t4 -22.5v-45q0 -51 -84 -51q-52 0 -88.5 36.5t-46.5 106.5q-30 -68 -84 -110t-127 -42q-144 0 -215.5 145t-71.5 417z M133 1571q0 24 23 24h98q29 0 39 -28l117 -287q4 -12 4 -20q0 -23 -19 -23h-57q-18 0 -29 9t-22 32l-148 268q-6 12 -6 25zM213 537q0 -94 6 -162t23 -130.5t52 -95t87 -32.5q56 0 100.5 58t69.5 149v452q-7 27 -19.5 55.5t-32 58.5t-49 49t-63.5 19q-174 0 -174 -421z" />
<glyph unicode="&#xe1;" d="M55 539q0 559 303 559q71 0 124 -38.5t75 -101.5l12 82q7 35 33 35h78q12 0 18.5 -10t6.5 -21v-847q0 -52 8 -67t35 -15q7 0 11.5 -1.5t8.5 -9t4 -22.5v-45q0 -51 -84 -51q-52 0 -88.5 36.5t-46.5 106.5q-30 -68 -84 -110t-127 -42q-144 0 -215.5 145t-71.5 417zM213 537 q0 -94 6 -162t23 -130.5t52 -95t87 -32.5q56 0 100.5 58t69.5 149v452q-7 27 -19.5 55.5t-32 58.5t-49 49t-63.5 19q-174 0 -174 -421zM348 1260q0 20 4 20l117 287q10 28 39 28h98q23 0 23 -24q0 -25 -6 -25l-148 -268q-11 -23 -22 -32t-29 -9h-57q-19 5 -19 23z" />
<glyph unicode="&#xe2;" d="M55 539q0 559 303 559q71 0 124 -38.5t75 -101.5l12 82q7 35 33 35h78q12 0 18.5 -10t6.5 -21v-847q0 -52 8 -67t35 -15q7 0 11.5 -1.5t8.5 -9t4 -22.5v-45q0 -51 -84 -51q-52 0 -88.5 36.5t-46.5 106.5q-30 -68 -84 -110t-127 -42q-144 0 -215.5 145t-71.5 417z M160 1260q0 20 4 20l145 289q17 26 51 26h74q34 0 51 -26l146 -289q4 0 4 -20q0 -18 -19 -23h-57q-32 0 -57 41l-105 176l-106 -176q-23 -41 -55 -41h-58q-18 5 -18 23zM213 537q0 -94 6 -162t23 -130.5t52 -95t87 -32.5q56 0 100.5 58t69.5 149v452q-7 27 -19.5 55.5 t-32 58.5t-49 49t-63.5 19q-174 0 -174 -421z" />
<glyph unicode="&#xe3;" d="M55 539q0 559 303 559q71 0 124 -38.5t75 -101.5l12 82q7 35 33 35h78q12 0 18.5 -10t6.5 -21v-847q0 -52 8 -67t35 -15q7 0 11.5 -1.5t8.5 -9t4 -22.5v-45q0 -51 -84 -51q-52 0 -88.5 36.5t-46.5 106.5q-30 -68 -84 -110t-127 -42q-144 0 -215.5 145t-71.5 417z M154 1268q1 100 39.5 154.5t101.5 54.5q41 0 82 -23.5t73 -46.5t52 -23q35 0 45 72q3 20 9 25.5t15 5.5h64q10 0 15 -10t5 -21q0 -96 -40.5 -152.5t-106.5 -56.5q-42 0 -82 23t-70.5 46t-48.5 23q-20 0 -30.5 -15.5t-14.5 -57.5q-5 -29 -29 -29h-57q-6 0 -14 11t-8 20z M213 537q0 -94 6 -162t23 -130.5t52 -95t87 -32.5q56 0 100.5 58t69.5 149v452q-7 27 -19.5 55.5t-32 58.5t-49 49t-63.5 19q-174 0 -174 -421z" />
<glyph unicode="&#xe4;" d="M55 539q0 559 303 559q71 0 124 -38.5t75 -101.5l12 82q7 35 33 35h78q12 0 18.5 -10t6.5 -21v-847q0 -52 8 -67t35 -15q7 0 11.5 -1.5t8.5 -9t4 -22.5v-45q0 -51 -84 -51q-52 0 -88.5 36.5t-46.5 106.5q-30 -68 -84 -110t-127 -42q-144 0 -215.5 145t-71.5 417z M184 1331q0 40 25 66t61 26q37 0 61.5 -25.5t24.5 -66.5t-24.5 -67.5t-61.5 -26.5q-36 0 -61 26.5t-25 67.5zM213 537q0 -94 6 -162t23 -130.5t52 -95t87 -32.5q56 0 100.5 58t69.5 149v452q-7 27 -19.5 55.5t-32 58.5t-49 49t-63.5 19q-174 0 -174 -421zM432 1331 q0 41 24.5 66.5t61.5 25.5t61.5 -25.5t24.5 -66.5t-24.5 -67.5t-61.5 -26.5t-61.5 26.5t-24.5 67.5z" />
<glyph unicode="&#xe5;" d="M55 539q0 559 303 559q71 0 124 -38.5t75 -101.5l12 82q7 35 33 35h78q12 0 18.5 -10t6.5 -21v-847q0 -52 8 -67t35 -15q7 0 11.5 -1.5t8.5 -9t4 -22.5v-45q0 -51 -84 -51q-52 0 -88.5 36.5t-46.5 106.5q-30 -68 -84 -110t-127 -42q-144 0 -215.5 145t-71.5 417zM213 537 q0 -94 6 -162t23 -130.5t52 -95t87 -32.5q56 0 100.5 58t69.5 149v452q-7 27 -19.5 55.5t-32 58.5t-49 49t-63.5 19q-174 0 -174 -421zM213 1427q0 79 42 136t101 57q60 0 102 -57t42 -136q0 -76 -42.5 -133t-101.5 -57t-101 57t-42 133zM301 1423q0 -38 16 -64t39 -26 t39.5 26t16.5 64q0 40 -16.5 67.5t-39.5 27.5t-39 -27.5t-16 -67.5z" />
<glyph unicode="&#xe6;" horiz-adv-x="1191" d="M51 293q0 134 66 227q45 61 112.5 82t159.5 21h115v79q0 129 -34 187.5t-108 58.5q-93 0 -194 -49q-40 -21 -51 16l-19 56q-4 16 -4 24q0 19 19 33q43 31 116 50.5t146 19.5q35 0 63.5 -6t59.5 -22.5t57 -50t45 -83.5q32 75 92.5 118.5t145.5 43.5q59 0 106 -21t79 -60 t54.5 -89.5t34.5 -115t17.5 -130t5.5 -141.5q0 -34 -6 -41.5t-27 -7.5h-447q7 -181 55.5 -276t161.5 -95q68 0 156 45q20 8 27 8q17 0 22 -24l21 -62q1 -4 2.5 -9.5t1.5 -8.5q0 -18 -19 -31q-94 -62 -237 -62q-172 0 -262 150q-105 -150 -271 -150q-42 0 -78.5 9.5t-71 33 t-59 58.5t-39 90t-14.5 125zM197 289q0 -89 36 -131.5t91 -42.5q57 0 106 37t72 88v252h-92q-40 0 -63 -2t-55.5 -12.5t-50.5 -31t-31 -60.5t-13 -97zM657 627h322q-4 331 -148 331q-80 0 -124 -88.5t-50 -242.5z" />
<glyph unicode="&#xe7;" horiz-adv-x="692" d="M55 530q0 175 34 299t110.5 196.5t191.5 72.5q193 0 254 -193q12 -37 12 -61q0 -28 -22 -33l-49 -14q-27 -6 -29 -6q-27 0 -33 24q-26 81 -53.5 112t-83.5 31q-81 0 -127.5 -107.5t-46.5 -315.5q0 -219 50.5 -316.5t150.5 -97.5q78 0 164 45q16 8 24 8q18 0 27 -29 l16 -51q4 -16 4 -24q0 -21 -18 -33q-67 -48 -193 -55l-6 -99q68 -20 104.5 -61t36.5 -127q0 -75 -47 -120.5t-120 -45.5q-66 0 -107 20q-20 11 -20 31q0 8 2 12l12 39q7 15 20 15q2 0 29 -9.5t57 -9.5q58 0 60 70q0 70 -97 88q-23 4 -31.5 17.5t-8.5 41.5l10 142 q-277 64 -277 544z" />
<glyph unicode="&#xe8;" horiz-adv-x="749" d="M55 530q0 275 86 421.5t254 146.5q59 0 106 -21t79 -60t54.5 -89.5t34.5 -115t17.5 -130t5.5 -141.5q0 -34 -6 -41.5t-27 -7.5h-446q7 -181 55.5 -276t161.5 -95q64 0 156 45q16 8 24 8q17 0 25 -22l22 -72q2 -4 2 -12q0 -16 -18 -29q-87 -62 -238 -62q-348 0 -348 553z M143 1571q0 24 23 24h98q29 0 39 -28l117 -287q4 -12 4 -20q0 -23 -18 -23h-58q-18 0 -29 9t-22 32l-147 268q-7 14 -7 25zM215 627h322q-4 331 -148 331q-80 0 -124 -88.5t-50 -242.5z" />
<glyph unicode="&#xe9;" horiz-adv-x="749" d="M55 530q0 275 86 421.5t254 146.5q59 0 106 -21t79 -60t54.5 -89.5t34.5 -115t17.5 -130t5.5 -141.5q0 -34 -6 -41.5t-27 -7.5h-446q7 -181 55.5 -276t161.5 -95q64 0 156 45q16 8 24 8q17 0 25 -22l22 -72q2 -4 2 -12q0 -16 -18 -29q-87 -62 -238 -62q-348 0 -348 553z M215 627h322q-4 331 -148 331q-80 0 -124 -88.5t-50 -242.5zM344 1260q0 20 4 20l117 287q10 28 39 28h98q23 0 23 -24q0 -25 -7 -25l-147 -268q-11 -23 -22 -32t-29 -9h-58q-18 5 -18 23z" />
<glyph unicode="&#xea;" horiz-adv-x="749" d="M55 530q0 275 86 421.5t254 146.5q59 0 106 -21t79 -60t54.5 -89.5t34.5 -115t17.5 -130t5.5 -141.5q0 -34 -6 -41.5t-27 -7.5h-446q7 -181 55.5 -276t161.5 -95q64 0 156 45q16 8 24 8q17 0 25 -22l22 -72q2 -4 2 -12q0 -16 -18 -29q-87 -62 -238 -62q-348 0 -348 553z M156 1260q0 20 4 20l145 289q17 26 51 26h74q34 0 51 -26l146 -289q4 0 4 -20q0 -18 -19 -23h-57q-32 0 -57 41l-105 176l-106 -176q-23 -41 -56 -41h-57q-18 5 -18 23zM215 627h322q-4 331 -148 331q-80 0 -124 -88.5t-50 -242.5z" />
<glyph unicode="&#xeb;" horiz-adv-x="749" d="M55 530q0 275 86 421.5t254 146.5q59 0 106 -21t79 -60t54.5 -89.5t34.5 -115t17.5 -130t5.5 -141.5q0 -34 -6 -41.5t-27 -7.5h-446q7 -181 55.5 -276t161.5 -95q64 0 156 45q16 8 24 8q17 0 25 -22l22 -72q2 -4 2 -12q0 -16 -18 -29q-87 -62 -238 -62q-348 0 -348 553z M170 1331q0 40 25 66t61 26q37 0 61.5 -25.5t24.5 -66.5t-24.5 -67.5t-61.5 -26.5q-36 0 -61 26.5t-25 67.5zM215 627h322q-4 331 -148 331q-80 0 -124 -88.5t-50 -242.5zM418 1331q0 41 24.5 66.5t61.5 25.5t61.5 -25.5t24.5 -66.5t-24.5 -67.5t-61.5 -26.5t-61.5 26.5 t-24.5 67.5z" />
<glyph unicode="&#xec;" horiz-adv-x="374" d="M-45 1571q0 24 22 24h99q29 0 39 -28l116 -287q5 -15 5 -20q0 -23 -19 -23h-57q-18 0 -29 9t-22 32l-148 268q-6 12 -6 25zM111 39v997q0 39 24 39h103q26 0 26 -39v-997q0 -39 -26 -39h-103q-24 0 -24 39z" />
<glyph unicode="&#xed;" horiz-adv-x="374" d="M111 39v997q0 39 24 39h103q26 0 26 -39v-997q0 -39 -26 -39h-103q-24 0 -24 39zM133 1260q0 20 4 20l117 287q10 28 39 28h98q23 0 23 -24q0 -25 -6 -25l-148 -268q-11 -23 -22 -32t-29 -9h-57q-19 5 -19 23z" />
<glyph unicode="&#xee;" horiz-adv-x="374" d="M-53 1260q0 20 4 20l145 289q17 26 51 26h74q34 0 51 -26l146 -289q4 0 4 -20q0 -18 -19 -23h-57q-32 0 -57 41l-105 176l-106 -176q-23 -41 -55 -41h-58q-18 5 -18 23zM111 39v997q0 39 24 39h103q26 0 26 -39v-997q0 -39 -26 -39h-103q-24 0 -24 39z" />
<glyph unicode="&#xef;" horiz-adv-x="374" d="M-23 1331q0 40 25 66t61 26q37 0 62 -25.5t25 -66.5t-25 -67.5t-62 -26.5q-36 0 -61 26.5t-25 67.5zM111 39v997q0 39 24 39h103q26 0 26 -39v-997q0 -39 -26 -39h-103q-24 0 -24 39zM225 1331q0 41 24.5 66.5t61.5 25.5t61.5 -25.5t24.5 -66.5t-24.5 -67.5t-61.5 -26.5 t-61.5 26.5t-24.5 67.5z" />
<glyph unicode="&#xf0;" horiz-adv-x="755" d="M55 465q0 140 33 248t100 171.5t160 63.5q130 0 189 -114q-2 57 -44.5 172.5t-111.5 210.5l-174 -72q-8 -4 -21 -4q-15 0 -20 14l-16 39q-5 10 -5 20q0 16 17 23l151 63q-70 79 -110 113q-19 16 -19 33q0 11 6.5 19t16.5 8h96q43 0 70 -27q47 -47 78 -86l127 53 q18 6 20 6q15 0 20 -14l17 -41q4 -12 4 -21q0 -18 -14 -24l-111 -47q184 -282 184 -649q0 -135 -20 -249t-60 -204.5t-107.5 -141.5t-156.5 -51q-136 0 -217.5 129t-81.5 359zM207 467q0 -170 41 -263t117 -93q47 0 82.5 44t56 122t30 172t9.5 206q-1 6 -2.5 17t-12.5 38 t-27.5 48t-50 38t-77.5 17q-83 0 -124.5 -93.5t-41.5 -252.5z" />
<glyph unicode="&#xf1;" horiz-adv-x="841" d="M111 39v1001q0 35 24 35h74q19 0 25.5 -7t9.5 -30l14 -102q25 66 82 114t137 48q140 0 197 -99t57 -299v-661q0 -39 -24 -39h-105q-24 0 -24 39v676q0 239 -129 239q-63 0 -113.5 -58t-71.5 -146v-711q0 -39 -26 -39h-103q-24 0 -24 39zM170 1268q1 100 39.5 154.5 t101.5 54.5q41 0 82 -23.5t73 -46.5t52 -23q35 0 45 72q4 31 25 31h63q10 0 15.5 -10t5.5 -21q0 -96 -40.5 -152.5t-107.5 -56.5q-42 0 -82 23t-70 46t-48 23q-20 0 -30.5 -15.5t-14.5 -57.5q-5 -29 -29 -29h-57q-6 0 -14.5 11t-8.5 20z" />
<glyph unicode="&#xf2;" horiz-adv-x="780" d="M55 543q0 261 92 408t246 147q156 0 243 -149.5t87 -407.5q0 -273 -91 -418.5t-241 -145.5q-154 0 -245 147t-91 419zM137 1571q0 24 23 24h98q29 0 39 -28l117 -287q4 -12 4 -20q0 -23 -19 -23h-57q-18 0 -29 9t-22 32l-148 268q-6 12 -6 25zM213 543 q0 -203 46.5 -314.5t131.5 -111.5q176 0 176 426q0 201 -44 308t-132 107q-86 0 -132 -110.5t-46 -304.5z" />
<glyph unicode="&#xf3;" horiz-adv-x="780" d="M55 543q0 261 92 408t246 147q156 0 243 -149.5t87 -407.5q0 -273 -91 -418.5t-241 -145.5q-154 0 -245 147t-91 419zM213 543q0 -203 46.5 -314.5t131.5 -111.5q176 0 176 426q0 201 -44 308t-132 107q-86 0 -132 -110.5t-46 -304.5zM336 1260q0 20 4 20l117 287 q10 28 39 28h98q22 0 22 -24q0 -25 -6 -25l-147 -268q-11 -23 -22 -32t-29 -9h-58q-18 5 -18 23z" />
<glyph unicode="&#xf4;" horiz-adv-x="780" d="M55 543q0 261 92 408t246 147q156 0 243 -149.5t87 -407.5q0 -273 -91 -418.5t-241 -145.5q-154 0 -245 147t-91 419zM152 1260q0 20 4 20l145 289q17 26 51 26h74q34 0 51 -26l146 -289q4 0 4 -20q0 -18 -19 -23h-57q-32 0 -57 41l-105 176l-106 -176q-23 -41 -56 -41 h-57q-18 5 -18 23zM213 543q0 -203 46.5 -314.5t131.5 -111.5q176 0 176 426q0 201 -44 308t-132 107q-86 0 -132 -110.5t-46 -304.5z" />
<glyph unicode="&#xf5;" horiz-adv-x="780" d="M55 543q0 261 92 408t246 147q156 0 243 -149.5t87 -407.5q0 -273 -91 -418.5t-241 -145.5q-154 0 -245 147t-91 419zM127 1268q1 100 39.5 154.5t101.5 54.5q41 0 82 -23.5t73 -46.5t52 -23q35 0 45 72q4 31 25 31h63q10 0 15.5 -10t5.5 -21q0 -96 -40.5 -152.5 t-107.5 -56.5q-42 0 -82 23t-70 46t-48 23q-20 0 -30.5 -15.5t-14.5 -57.5q-5 -29 -29 -29h-57q-6 0 -14.5 11t-8.5 20zM213 543q0 -203 46.5 -314.5t131.5 -111.5q176 0 176 426q0 201 -44 308t-132 107q-86 0 -132 -110.5t-46 -304.5z" />
<glyph unicode="&#xf6;" horiz-adv-x="780" d="M55 543q0 261 92 408t246 147q156 0 243 -149.5t87 -407.5q0 -273 -91 -418.5t-241 -145.5q-154 0 -245 147t-91 419zM180 1331q0 40 25 66t61 26q37 0 61.5 -25.5t24.5 -66.5t-24.5 -67.5t-61.5 -26.5q-36 0 -61 26.5t-25 67.5zM213 543q0 -203 46.5 -314.5 t131.5 -111.5q176 0 176 426q0 201 -44 308t-132 107q-86 0 -132 -110.5t-46 -304.5zM428 1331q0 41 24.5 66.5t61.5 25.5t61.5 -25.5t24.5 -66.5t-24.5 -67.5t-61.5 -26.5t-61.5 26.5t-24.5 67.5z" />
<glyph unicode="&#xf7;" horiz-adv-x="743" d="M84 553v53q0 21 6.5 30t28.5 9h506q22 0 28 -9t6 -30v-53q0 -19 -7 -27t-29 -8h-502q-22 0 -29.5 8t-7.5 27zM285 276q0 53 24 84t62 31q42 0 65 -32t23 -83q0 -50 -22.5 -81t-65.5 -31q-38 0 -62 29.5t-24 82.5zM285 895q0 53 24 84t62 31q42 0 65 -32t23 -83 q0 -50 -22.5 -81.5t-65.5 -31.5q-38 0 -62 30t-24 83z" />
<glyph unicode="&#xf8;" horiz-adv-x="780" d="M55 543q0 261 92 408t246 147q88 0 158 -51l37 83q12 27 21 35.5t26 8.5h65q21 0 21 -17q0 -7 -8 -27l-78 -180q88 -148 88 -409q0 -273 -91 -418.5t-241 -145.5q-85 0 -158 50l-24 -56q-10 -26 -19.5 -34.5t-27.5 -8.5h-64q-22 0 -22 19q0 8 8 24l63 150 q-92 147 -92 422zM213 543q0 -138 20 -228l256 592q-42 51 -98 51q-86 0 -132 -110.5t-46 -304.5zM293 168q39 -51 98 -51q176 0 176 426q0 125 -18 213z" />
<glyph unicode="&#xf9;" horiz-adv-x="827" d="M96 350v686q0 39 25 39h104q25 0 25 -39v-680q0 -132 31.5 -185.5t97.5 -53.5q63 0 113 58.5t71 146.5v714q0 39 27 39h102q25 0 25 -39v-1001q0 -35 -25 -35h-74q-19 0 -25 7t-9 30l-17 106q-23 -62 -80 -114t-135 -52q-256 0 -256 373zM170 1571q0 24 23 24h98 q29 0 39 -28l116 -287q5 -15 5 -20q0 -23 -19 -23h-57q-18 0 -29 9t-22 32l-148 268q-6 12 -6 25z" />
<glyph unicode="&#xfa;" horiz-adv-x="827" d="M96 350v686q0 39 25 39h104q25 0 25 -39v-680q0 -132 31.5 -185.5t97.5 -53.5q63 0 113 58.5t71 146.5v714q0 39 27 39h102q25 0 25 -39v-1001q0 -35 -25 -35h-74q-19 0 -25 7t-9 30l-17 106q-23 -62 -80 -114t-135 -52q-256 0 -256 373zM354 1260q0 20 4 20l117 287 q10 28 39 28h98q23 0 23 -24q0 -25 -6 -25l-148 -268q-11 -23 -22 -32t-29 -9h-57q-19 5 -19 23z" />
<glyph unicode="&#xfb;" horiz-adv-x="827" d="M96 350v686q0 39 25 39h104q25 0 25 -39v-680q0 -132 31.5 -185.5t97.5 -53.5q63 0 113 58.5t71 146.5v714q0 39 27 39h102q25 0 25 -39v-1001q0 -35 -25 -35h-74q-19 0 -25 7t-9 30l-17 106q-23 -62 -80 -114t-135 -52q-256 0 -256 373zM170 1260q0 20 4 20l145 289 q17 26 52 26h73q35 0 52 -26l145 -289q4 0 4 -20q0 -18 -18 -23h-58q-32 0 -57 41l-104 176l-107 -176q-23 -41 -55 -41h-58q-18 5 -18 23z" />
<glyph unicode="&#xfc;" horiz-adv-x="827" d="M96 350v686q0 39 25 39h104q25 0 25 -39v-680q0 -132 31.5 -185.5t97.5 -53.5q63 0 113 58.5t71 146.5v714q0 39 27 39h102q25 0 25 -39v-1001q0 -35 -25 -35h-74q-19 0 -25 7t-9 30l-17 106q-23 -62 -80 -114t-135 -52q-256 0 -256 373zM182 1331q0 40 25 66t61 26 q37 0 61.5 -25.5t24.5 -66.5t-24.5 -67.5t-61.5 -26.5q-36 0 -61 26.5t-25 67.5zM430 1331q0 41 24.5 66.5t61.5 25.5t61.5 -25.5t24.5 -66.5t-24.5 -67.5t-61.5 -26.5t-61.5 26.5t-24.5 67.5z" />
<glyph unicode="&#xfd;" horiz-adv-x="686" d="M14 -344q0 11 6 29l19 53q8 26 27 26q5 0 43 -13t75 -13q82 0 113 162l18 94q-81 3 -106 102l-189 922q-4 20 -4 26q0 31 25 31h96q21 0 29 -7.5t12 -33.5l125 -690l43 -231l39 233l117 696q5 33 33 33h104q9 0 14.5 -7.5t5.5 -18.5q0 -5 -6 -35l-211 -1123 q-56 -301 -243 -301q-110 0 -166 37q-19 13 -19 29zM285 1260q0 20 4 20l117 287q10 28 38 28h99q22 0 22 -24q0 -25 -6 -25l-147 -268q-11 -22 -22.5 -31.5t-29.5 -9.5h-57q-18 5 -18 23z" />
<glyph unicode="&#xfe;" horiz-adv-x="813" d="M111 -381v1868q0 11 5.5 21.5t14.5 11.5l76 16q24 6 35 6q8 0 15 -8.5t7 -20.5v-559q78 144 213 144q96 0 160.5 -71t93.5 -189t29 -277q0 -288 -78 -436t-229 -148q-131 0 -189 121v-479q0 -31 -24 -31h-105q-24 0 -24 31zM264 291q20 -75 66 -124.5t96 -49.5 q87 0 130.5 113.5t43.5 322.5q0 70 -3.5 124t-14.5 107t-29 87.5t-48.5 55.5t-72.5 21q-50 0 -96.5 -51.5t-71.5 -144.5v-461z" />
<glyph unicode="&#xff;" horiz-adv-x="686" d="M14 -344q0 11 6 29l19 53q8 26 27 26q5 0 43 -13t75 -13q82 0 113 162l18 94q-81 3 -106 102l-189 922q-4 20 -4 26q0 31 25 31h96q21 0 29 -7.5t12 -33.5l125 -690l43 -231l39 233l117 696q5 33 33 33h104q9 0 14.5 -7.5t5.5 -18.5q0 -5 -6 -35l-211 -1123 q-56 -301 -243 -301q-110 0 -166 37q-19 13 -19 29zM121 1331q0 40 25 66t61 26q37 0 61.5 -25.5t24.5 -66.5t-24.5 -67.5t-61.5 -26.5q-36 0 -61 26.5t-25 67.5zM369 1331q0 41 24.5 66.5t61.5 25.5t61.5 -25.5t24.5 -66.5t-24.5 -67.5t-61.5 -26.5t-61.5 26.5t-24.5 67.5z " />
<glyph unicode="&#x152;" horiz-adv-x="1280" d="M70 741q0 168 21.5 296.5t58.5 210t91.5 133t114.5 72t133 20.5h703q27 0 27 -39v-82q0 -35 -27 -35h-373v-451h318q26 0 26 -39v-75q0 -20 -5 -29.5t-21 -9.5h-318v-557h395q27 0 27 -35v-82q0 -39 -24 -39h-728q-74 0 -131.5 17t-113.5 65.5t-92.5 129t-59 214.5 t-22.5 315zM236 741q0 -319 61 -452t195 -133h165v1161h-165q-132 0 -194 -135.5t-62 -440.5z" />
<glyph unicode="&#x153;" horiz-adv-x="1234" d="M35 543q0 261 92 408t246 147q89 0 150.5 -42t101.5 -151q39 107 103 150t161 43q59 0 106 -21t79 -60t54.5 -89.5t34.5 -115t17.5 -130t5.5 -141.5q0 -34 -6 -41.5t-27 -7.5h-446q7 -181 55.5 -276t161.5 -95q63 0 155 45q16 8 25 8q16 0 24 -22l23 -72q2 -4 2 -12 q0 -16 -18 -29q-87 -62 -238 -62q-103 0 -169.5 41.5t-106.5 143.5q-83 -185 -250 -185q-154 0 -245 147t-91 419zM193 543q0 -203 46.5 -314.5t131.5 -111.5q176 0 176 426q0 201 -44 308t-132 107q-86 0 -132 -110.5t-46 -304.5zM709 627h321q-4 331 -147 331 q-80 0 -124 -88.5t-50 -242.5z" />
<glyph unicode="&#x178;" horiz-adv-x="786" d="M23 1448q0 25 20 25h107q17 0 25 -6t15 -29l168 -469l37 -119l37 119l162 469q11 35 39 35h106q25 0 25 -23q0 -7 -8 -31l-285 -719v-659q0 -41 -22 -41h-111q-23 0 -23 41v659l-286 723q-6 15 -6 25zM182 1729q0 40 25 66t61 26q37 0 61.5 -25.5t24.5 -66.5t-24.5 -68 t-61.5 -27q-36 0 -61 27t-25 68zM430 1729q0 41 24.5 66.5t61.5 25.5t61.5 -25.5t24.5 -66.5t-24.5 -68t-61.5 -27t-61.5 27t-24.5 68z" />
<glyph unicode="&#x2c6;" horiz-adv-x="659" d="M92 1260q0 20 4 20l146 289q17 26 51 26h74q34 0 51 -26l145 -289q4 0 4 -20q0 -18 -18 -23h-57q-33 0 -58 41l-104 176l-107 -176q-23 -41 -55 -41h-57q-19 5 -19 23z" />
<glyph unicode="&#x2dc;" horiz-adv-x="686" d="M92 1268q1 100 39.5 154.5t101.5 54.5q41 0 82 -23.5t73 -46.5t52 -23q35 0 45 72q4 31 25 31h63q10 0 15.5 -10t5.5 -21q0 -96 -40.5 -152.5t-107.5 -56.5q-42 0 -82 23t-70 46t-48 23q-20 0 -30.5 -15.5t-14.5 -57.5q-5 -29 -29 -29h-57q-6 0 -14.5 11t-8.5 20z" />
<glyph unicode="&#x2000;" horiz-adv-x="1008" />
<glyph unicode="&#x2001;" horiz-adv-x="2017" />
<glyph unicode="&#x2002;" horiz-adv-x="1008" />
<glyph unicode="&#x2003;" horiz-adv-x="2017" />
<glyph unicode="&#x2004;" horiz-adv-x="672" />
<glyph unicode="&#x2005;" horiz-adv-x="504" />
<glyph unicode="&#x2006;" horiz-adv-x="336" />
<glyph unicode="&#x2007;" horiz-adv-x="336" />
<glyph unicode="&#x2008;" horiz-adv-x="252" />
<glyph unicode="&#x2009;" horiz-adv-x="403" />
<glyph unicode="&#x200a;" horiz-adv-x="112" />
<glyph unicode="&#x2010;" horiz-adv-x="575" d="M84 557v57q0 35 33 35h342q33 0 33 -35v-57q0 -35 -35 -35h-338q-35 0 -35 35z" />
<glyph unicode="&#x2011;" horiz-adv-x="575" d="M84 557v57q0 35 33 35h342q33 0 33 -35v-57q0 -35 -35 -35h-338q-35 0 -35 35z" />
<glyph unicode="&#x2012;" horiz-adv-x="575" d="M84 557v57q0 35 33 35h342q33 0 33 -35v-57q0 -35 -35 -35h-338q-35 0 -35 35z" />
<glyph unicode="&#x2013;" horiz-adv-x="911" d="M84 555v61q0 35 25 35h694q10 0 17 -10t7 -25v-61q0 -35 -26 -35h-692q-25 0 -25 35z" />
<glyph unicode="&#x2014;" horiz-adv-x="1501" d="M84 555v61q0 35 25 35h1286q10 0 17 -10t7 -25v-61q0 -35 -26 -35h-1284q-25 0 -25 35z" />
<glyph unicode="&#x2018;" horiz-adv-x="299" d="M41 1155q0 11 4 23l109 292q9 24 21 32.5t32 8.5h45q9 0 16.5 -5.5t7.5 -14.5q0 -13 -4 -25l-69 -299q-6 -37 -45 -37h-92q-10 0 -17.5 7t-7.5 18z" />
<glyph unicode="&#x2019;" horiz-adv-x="299" d="M41 1151q0 13 4 25l70 299q6 36 45 36h92q10 0 17 -6.5t7 -17.5t-4 -23l-108 -293q-9 -24 -21 -32.5t-32 -8.5h-45q-9 0 -17 6t-8 15z" />
<glyph unicode="&#x201a;" horiz-adv-x="313" d="M27 -172q0 13 4 25l69 299q6 36 45 36h93q10 0 17 -7t7 -17q0 -11 -4 -23l-108 -293q-15 -41 -54 -41h-45q-9 0 -16.5 6t-7.5 15z" />
<glyph unicode="&#x201c;" horiz-adv-x="559" d="M41 1155q0 11 4 23l109 292q9 24 21 32.5t32 8.5h45q9 0 16.5 -5.5t7.5 -14.5q0 -13 -4 -25l-69 -299q-6 -37 -45 -37h-92q-10 0 -17.5 7t-7.5 18zM291 1155q0 11 4 23l108 292q15 41 54 41h45q9 0 16.5 -5.5t7.5 -14.5q0 -13 -4 -25l-69 -299q-6 -37 -45 -37h-93 q-10 0 -17 7t-7 18z" />
<glyph unicode="&#x201d;" horiz-adv-x="559" d="M41 1151q0 13 4 25l70 299q6 36 45 36h92q10 0 17 -6.5t7 -17.5t-4 -23l-108 -293q-9 -24 -21 -32.5t-32 -8.5h-45q-9 0 -17 6t-8 15zM291 1151q0 13 4 25l70 299q6 36 45 36h92q10 0 17 -6.5t7 -17.5t-4 -23l-108 -293q-15 -41 -54 -41h-45q-9 0 -16.5 6t-7.5 15z" />
<glyph unicode="&#x201e;" horiz-adv-x="565" d="M27 -172q0 13 4 25l69 299q6 36 45 36h93q10 0 17 -7t7 -17q0 -11 -4 -23l-108 -293q-15 -41 -54 -41h-45q-9 0 -16.5 6t-7.5 15zM264 -172q0 13 4 25l70 299q6 36 45 36h92q11 0 18 -7t7 -17q0 -11 -4 -23l-109 -293q-9 -24 -21 -32.5t-32 -8.5h-45q-9 0 -17 6t-8 15z " />
<glyph unicode="&#x2022;" horiz-adv-x="647" d="M96 600q0 97 68.5 166.5t167.5 69.5q97 0 166 -69.5t69 -166.5q0 -99 -69 -167t-166 -68q-100 0 -168 67.5t-68 167.5z" />
<glyph unicode="&#x2026;" horiz-adv-x="1097" d="M74 84q0 52 27 82.5t69 30.5q43 0 68.5 -30.5t25.5 -82.5q0 -51 -26 -83t-68 -32t-69 32t-27 83zM457 84q0 52 27 82.5t69 30.5q43 0 68.5 -30.5t25.5 -82.5q0 -51 -26 -83t-68 -32t-69 32t-27 83zM834 84q0 52 27 82.5t69 30.5q43 0 68.5 -30.5t25.5 -82.5 q0 -51 -26 -83t-68 -32t-69 32t-27 83z" />
<glyph unicode="&#x202f;" horiz-adv-x="403" />
<glyph unicode="&#x2039;" horiz-adv-x="466" d="M84 508q0 21 12 45l146 293q11 21 21 29t28 8h53q9 0 16 -6t7 -17l-5 -20l-122 -332l122 -332q5 -8 5 -20q0 -18 -21 -23h-57q-18 0 -28 9t-21 32l-144 289q-12 24 -12 45z" />
<glyph unicode="&#x203a;" horiz-adv-x="466" d="M84 156l4 20l123 332l-123 332q-4 10 -4 20q0 11 6.5 17t15.5 6h54q18 0 28 -8t21 -29l145 -293q13 -26 13 -45t-13 -45l-143 -289q-11 -23 -21 -32t-28 -9h-58q-20 5 -20 23z" />
<glyph unicode="&#x205f;" horiz-adv-x="504" />
<glyph unicode="&#x20ac;" horiz-adv-x="925" d="M29 563v49q0 39 24 39h80q-2 29 -2 90v50h-76q-26 0 -26 34v49q0 39 24 39h84q48 582 416 582q124 0 202 -63t122 -199q6 -18 6 -37q0 -22 -27 -31l-59 -20q-21 -6 -33 -6q-18 0 -25 22q-36 97 -80.5 138.5t-109.5 41.5q-57 0 -101 -32.5t-73 -91.5t-46.5 -134.5 t-25.5 -169.5h375q27 0 27 -20q0 -2 -2 -7t-3 -9l-14 -58q-6 -28 -35 -28h-354v-46q0 -63 2 -94h330q24 0 24 -20q0 -9 -2 -17l-14 -57q-6 -29 -33 -29h-295q48 -393 269 -393q108 0 223 72q12 8 20 8q20 0 29 -20l27 -60q10 -23 10 -33q0 -25 -27 -41q-138 -84 -291 -84 q-101 0 -179 43.5t-127.5 122t-78.5 173t-43 212.5h-86q-26 0 -26 35z" />
<glyph unicode="&#x2122;" horiz-adv-x="933" d="M35 1407v45q0 21 18 21h291q16 0 16 -21v-45q0 -23 -18 -23h-94v-477q0 -24 -19 -24h-63q-10 0 -13 5t-3 19v477h-97q-18 0 -18 23zM393 903l17 467q2 30 8 50.5t25 38.5t51 18q38 0 58.5 -17.5t27.5 -60.5l41 -295l12 -98l14 98l41 295q7 43 27.5 60.5t58.5 17.5 q32 0 51 -18t25 -38.5t8 -50.5l16 -467q0 -20 -16 -20h-55q-10 0 -13.5 4.5t-5.5 15.5l-6 348l-8 158l-22 -158l-41 -245q-10 -74 -72 -74q-64 0 -74 74l-41 245l-22 158l-9 -158l-6 -348q-2 -12 -5 -16t-13 -4h-55q-17 0 -17 20z" />
<glyph unicode="&#x25fc;" horiz-adv-x="1075" d="M0 0v1075h1075v-1075h-1075z" />
</font>
</defs>
</svg>
