<?xml version="1.0" standalone="no"?>
<!DOCTYPE svg PUBLIC "-//W3C//DTD SVG 1.1//EN" "http://www.w3.org/Graphics/SVG/1.1/DTD/svg11.dtd" >
<svg xmlns="http://www.w3.org/2000/svg">
<metadata></metadata>
<defs>
<font id="comex_lightlight" horiz-adv-x="1144" >
<font-face units-per-em="2048" ascent="1536" descent="-512" />
<missing-glyph horiz-adv-x="409" />
<glyph unicode="&#xfb01;" horiz-adv-x="1101" d="M20 975v61q0 39 37 39h129v125q0 170 73.5 257t232.5 87q108 0 167 -35q21 -13 21 -30q0 -14 -10 -37l-17 -39q-10 -25 -28 -25q-6 0 -51.5 12.5t-86.5 12.5q-68 0 -106.5 -42.5t-38.5 -156.5v-129h190q37 0 37 -37v-65q0 -35 -37 -35h-190v-899q0 -39 -35 -39h-86 q-35 0 -35 39v899h-129q-37 0 -37 37zM756 1292q0 42 30 69.5t72 27.5q49 0 78 -27t29 -70q0 -42 -29 -69t-78 -27q-42 0 -72 27.5t-30 68.5zM782 39v997q0 39 33 39h88q35 0 35 -39v-997q0 -39 -35 -39h-88q-33 0 -33 39z" />
<glyph unicode="&#xfb02;" horiz-adv-x="1101" d="M20 975v61q0 39 37 39h129v125q0 170 73.5 257t232.5 87q108 0 167 -35q21 -13 21 -30q0 -14 -10 -37l-17 -39q-10 -25 -28 -25q-6 0 -51.5 12.5t-86.5 12.5q-68 0 -106.5 -42.5t-38.5 -156.5v-129h190q37 0 37 -37v-65q0 -35 -37 -35h-190v-899q0 -39 -35 -39h-86 q-35 0 -35 39v899h-129q-37 0 -37 37zM782 31v1456q0 26 27 35l88 20q6 2 12 2q13 0 21 -8.5t8 -19.5v-1485q0 -10 -8.5 -20.5t-20.5 -10.5h-98q-12 0 -20.5 10.5t-8.5 20.5z" />
<glyph horiz-adv-x="0" />
<glyph horiz-adv-x="682" />
<glyph unicode=" "  horiz-adv-x="409" />
<glyph unicode="&#x09;" horiz-adv-x="409" />
<glyph unicode="&#xa0;" horiz-adv-x="409" />
<glyph unicode="!" horiz-adv-x="561" d="M164 92q0 47 35 81t84 34q47 0 80.5 -34t33.5 -81q0 -49 -33.5 -84t-80.5 -35q-49 0 -84 34.5t-35 84.5zM182 1481q0 37 31 37h123q37 0 37 -41l-23 -1106q0 -20 -8.5 -28.5t-28.5 -8.5h-73q-35 0 -35 37z" />
<glyph unicode="&#x22;" horiz-adv-x="501" d="M41 1528q0 35 41 35h65q41 0 41 -35l-16 -318q-3 -38 -41 -41h-31q-40 0 -43 41zM313 1528q0 35 41 35h66q41 0 41 -35l-17 -318q-3 -38 -41 -41h-30q-40 0 -43 41z" />
<glyph unicode="#" horiz-adv-x="1404" d="M61 508v10l11 45q5 22 13 31.5t28 9.5h278l55 320h-280q-12 0 -22.5 6t-10.5 18q0 7 2 17l8 39q6 25 14.5 32.5t30.5 7.5h277l72 439q7 29 17 37t36 8h49q12 0 20.5 -7.5t8.5 -17.5q0 -14 -2 -26l-70 -437h297l72 443q7 29 17 37t36 8h49q12 0 20.5 -7.5t8.5 -17.5 q0 -14 -2 -26l-70 -433h285q34 0 34 -24q0 -6 -2 -16l-10 -48q-2 -11 -5.5 -17t-12 -10.5t-23.5 -4.5h-284l-56 -320h291q11 0 21 -6t10 -18q0 -7 -2 -17l-10 -47q-3 -18 -12.5 -25.5t-30.5 -7.5h-285l-72 -438q-7 -29 -17 -37t-36 -8h-49q-12 0 -20.5 7.5t-8.5 17.5 q0 14 2 26l70 434h-297l-72 -446q-3 -23 -14.5 -31t-38.5 -8h-47q-12 0 -21.5 8.5t-9.5 18.5t2 22l70 434h-279q-33 0 -33 25zM522 602h297l55 322h-296z" />
<glyph unicode="$" horiz-adv-x="1091" d="M102 100l4 23l27 67q9 23 29 23q12 0 24 -6q171 -78 326 -78q64 0 116 11t97 36.5t70.5 73.5t25.5 115q0 38 -6 65t-25 58.5t-60 60.5t-105 57q-32 14 -97.5 39t-99.5 39q-164 69 -234.5 158t-70.5 215q0 172 99.5 269.5t256.5 117.5v153q0 41 35 41h57q35 0 35 -41v-151 q115 -6 203.5 -63t130.5 -169q4 -12 4 -22q0 -20 -37 -35l-37 -16q-21 -8 -36 -8q-20 0 -35 26q-43 76 -99 108.5t-149 32.5q-53 0 -98 -12.5t-82.5 -38.5t-58.5 -73t-21 -111q0 -66 39.5 -118t146.5 -99q29 -12 107 -44t121 -52q53 -24 91.5 -47t77 -56t62.5 -70.5 t38.5 -89.5t14.5 -114q0 -179 -102 -276t-287 -115v-158q0 -41 -35 -41h-57q-35 0 -35 41v151q-209 6 -342 86q-29 16 -29 37z" />
<glyph unicode="%" horiz-adv-x="1374" d="M20 1114q0 157 76.5 247.5t212.5 90.5q141 0 215 -87.5t74 -250.5q0 -168 -77.5 -254t-211.5 -86q-131 0 -209.5 87t-79.5 253zM156 1114q0 -34 4.5 -65t18 -72.5t47 -66.5t83.5 -25q74 0 114 57t40 172q0 47 -7.5 85.5t-24.5 71.5t-48 51.5t-74 18.5q-36 0 -63.5 -13 t-43 -36t-26 -46t-14.5 -52.5t-5 -45.5t-1 -34zM158 27q0 14 10 32l829 1356q18 28 31.5 36.5t42.5 8.5h49q29 0 29 -24q0 -17 -10 -35l-830 -1356q-19 -29 -31.5 -37t-46.5 -8h-45q-28 0 -28 27zM694 317q0 157 76.5 247.5t212.5 90.5q141 0 215 -87.5t74 -250.5 q0 -168 -77.5 -254t-211.5 -86q-131 0 -209.5 87t-79.5 253zM829 317q0 -26 2 -50t11 -58.5t24.5 -59.5t45.5 -43t71 -18q74 0 114 57t40 172q0 47 -7.5 85.5t-24.5 72t-48 52t-74 18.5q-36 0 -63.5 -13t-43.5 -36t-26.5 -46.5t-14.5 -53t-5 -45.5t-1 -34z" />
<glyph unicode="&#x26;" horiz-adv-x="1292" d="M82 354q0 141 73.5 254t227.5 219l-29 39q-102 130 -102 252q0 65 18 117.5t49 87t72.5 58t87.5 34t96 10.5q68 0 125 -15.5t103.5 -47.5t73 -88t26.5 -131q0 -161 -158 -291q-20 -16 -34 -16q-17 0 -31 14l-33 41q-12 15 -12 29q0 15 18 30q103 84 103 189 q0 77 -46.5 116t-129.5 39q-79 0 -129 -43t-50 -127q0 -82 66 -166l453 -591q78 130 104 366q3 25 12 34t25 9h72q30 0 30 -35q-18 -280 -149 -487l73 -90q29 -29 60 -29q18 0 36.5 4t28.5 4q22 0 27 -24l8 -47q4 -24 4 -27q0 -23 -22 -33q-45 -18 -101 -18q-51 0 -91.5 26 t-82.5 76l-34 41q-160 -157 -414 -157q-113 0 -207 40t-155.5 127t-61.5 207zM233 365q0 -117 78 -185.5t203 -68.5q28 0 48 1t58 8.5t69 20.5t71 40t74 65l-369 473q-98 -61 -165 -153.5t-67 -200.5z" />
<glyph unicode="'" horiz-adv-x="229" d="M41 1528q0 35 41 35h65q41 0 41 -35l-16 -318q-3 -38 -41 -41h-31q-40 0 -43 41z" />
<glyph unicode="(" horiz-adv-x="641" d="M123 633q0 33 0.5 61.5t5 86t12 107t22.5 116t36 122.5t54 118t74.5 110t99.5 90t126 67h8q21 0 31 -24l26 -60q3 -8 3 -10q0 -13 -25 -26q-64 -35 -115.5 -88.5t-83.5 -109t-56 -126t-35.5 -126t-18 -123t-7.5 -102t-1 -77.5q0 -615 317 -776q25 -13 25 -27l-3 -10 l-26 -59q-8 -25 -31 -25h-8q-69 27 -127.5 71t-100 93.5t-75 113.5t-54 120.5t-35.5 125.5t-22 117.5t-11 107.5t-4.5 84t-0.5 58z" />
<glyph unicode=")" horiz-adv-x="641" d="M20 -164q0 14 25 27q317 161 317 776q0 43 -1 77.5t-7.5 102t-18 123t-35.5 126t-56 126t-83.5 109t-115.5 88.5q-25 13 -25 26l3 10l26 60q10 24 31 24h8q68 -25 126 -67t99.5 -90t74.5 -110t54 -118t36 -122.5t22.5 -116t12 -107t5 -86t0.5 -61.5t-0.5 -58t-4.5 -84 t-11 -107.5t-22 -117.5t-35.5 -125.5t-54 -120.5t-75 -113.5t-100 -93.5t-127.5 -71h-8q-23 0 -31 25l-26 59q-3 8 -3 10z" />
<glyph unicode="*" horiz-adv-x="657" d="M41 1313l2 12l23 80q6 22 22 22t29 -8l182 -98l-39 217q-2 12 -2 16q0 29 31 29h82q30 0 30 -29l-2 -16l-37 -215l179 96q20 8 28 8q17 0 23 -22l22 -80q2 -8 2 -12q0 -19 -18 -25l-16 -4l-197 -18l147 -154q15 -15 15 -31q0 -13 -17 -24l-65 -41q-10 -6 -23 -6 q-16 0 -26 24l-88 203l-86 -203q-10 -24 -27 -24q-12 0 -22 6l-66 41q-16 11 -16 24q0 17 14 31l147 154l-196 18q-13 2 -17 4q-18 6 -18 25z" />
<glyph unicode="+" horiz-adv-x="1114" d="M123 553v53q0 21 6.5 30t28.5 9h338v340q0 22 7.5 31.5t26.5 9.5h58q35 0 35 -41v-340h333q22 0 28.5 -9t6.5 -30v-53q0 -19 -7.5 -27t-29.5 -8h-331v-342q0 -41 -35 -41h-58q-19 0 -26.5 9.5t-7.5 31.5v342h-336q-22 0 -29.5 8t-7.5 27z" />
<glyph unicode="," horiz-adv-x="385" d="M41 -170l4 23l96 299q5 17 17 26t21 10h9h105q31 0 31 -24q0 -6 -2 -12.5t-4 -9.5l-1 -3l-137 -291q-10 -23 -27 -32t-47 -9h-40q-25 5 -25 23z" />
<glyph unicode="-" horiz-adv-x="860" d="M123 557v57q0 35 33 35h549q32 0 32 -35v-57q0 -35 -35 -35h-544q-35 0 -35 35z" />
<glyph unicode="." horiz-adv-x="391" d="M82 82q0 47 33 81t80 34t80.5 -34t33.5 -81t-33.5 -80t-80.5 -33t-80 33t-33 80z" />
<glyph unicode="/" horiz-adv-x="741" d="M143 4q0 13 2 19l433 1486q7 29 17 37t36 8h51q12 0 20.5 -7t8.5 -17q0 -13 -2 -19l-433 -1486q-7 -29 -17 -37t-36 -8h-51q-12 0 -20.5 7t-8.5 17z" />
<glyph unicode="0" horiz-adv-x="1159" d="M102 709q0 103 11.5 196.5t44.5 192.5t84.5 170.5t138 117.5t199.5 46q81 0 149 -23.5t116.5 -64t86 -97.5t61 -119.5t38.5 -136t20.5 -141t5.5 -139.5q0 -118 -14 -220.5t-48 -199t-87 -164.5t-137 -109t-191 -41q-467 0 -478 732zM262 709q0 -588 318 -588 q317 0 317 590q0 577 -317 577q-318 0 -318 -579z" />
<glyph unicode="1" horiz-adv-x="909" d="M164 1292v78q0 39 37 39h229q30 0 48 -3t40 -14t32.5 -38.5t10.5 -71.5v-1132h191q22 0 28 -9t6 -30v-76q0 -19 -7 -27t-29 -8h-529q-22 0 -29.5 8t-7.5 27v76q0 21 6.5 30t28.5 9h189v1107h-205q-39 0 -39 35z" />
<glyph unicode="2" horiz-adv-x="1091" d="M102 88q0 40 16 69.5t46 61.5l393 408q117 121 173 218.5t56 211.5q0 105 -64 168t-175 63q-89 0 -157.5 -39.5t-119.5 -134.5q-14 -27 -34 -27q-8 0 -31 9l-41 14q-31 10 -31 31q0 16 6 28q53 131 160.5 197t255.5 66q182 0 287.5 -101.5t105.5 -275.5 q0 -78 -18.5 -147.5t-57.5 -133.5t-80.5 -115.5t-105.5 -117.5l-262 -267l-133 -127h153l490 5q22 0 28.5 -9t6.5 -30v-78q0 -19 -7.5 -27t-29.5 -8h-725q-54 0 -79.5 28t-25.5 60z" />
<glyph unicode="3" horiz-adv-x="1069" d="M102 100q0 11 4 23l25 61q10 23 27 23q10 0 24 -6q161 -78 310 -78q136 0 225.5 71t89.5 205q0 66 -19.5 115t-50 78t-77.5 47t-94 24t-107 7h-176q-21 0 -29 8.5t-8 26.5v73q0 20 7 30t28 11h155q158 0 233.5 66t75.5 182q0 105 -66 162t-165 57q-102 0 -167 -45 t-114 -135q-11 -19 -28 -19q-13 0 -29 7l-45 20q-22 11 -22 33q0 6 4 18q32 93 100.5 155t145.5 87t161 25q176 0 281.5 -91t105.5 -266q0 -235 -229 -317q54 -13 100 -36.5t91 -63.5t71.5 -106t26.5 -151q0 -205 -127.5 -314.5t-339.5 -109.5q-196 0 -377 93q-21 13 -21 30 z" />
<glyph unicode="4" horiz-adv-x="1087" d="M20 477q0 56 48 117l577 784q16 20 32 25.5t46 5.5h88q27 0 27 -25q0 -16 -13 -32l-501 -645l-144 -185h273h225v363q0 39 33 39h88q35 0 35 -39v-359h178q20 0 27.5 -8t7.5 -26v-76q0 -35 -33 -35h-180v-342q0 -39 -35 -39h-88q-33 0 -33 39v342h-547q-53 0 -82 27 t-29 69z" />
<glyph unicode="5" horiz-adv-x="1060" d="M102 100q0 10 9 33l20 49q11 23 31 23q10 0 22 -6q165 -76 312 -76q143 0 223 75t80 214q0 54 -13.5 96.5t-36 72t-59.5 50t-75 32.5t-92.5 18.5t-101.5 8.5t-112 2h-121q-3 0 -7.5 1t-12.5 9t-8 23v551q0 44 9.5 72.5t29 40.5t37.5 16t45 4h557q36 0 36 -39v-78 q0 -35 -38 -35h-523v-415h49q306 0 450.5 -100.5t145.5 -325.5q0 -214 -129 -326.5t-344 -112.5q-97 0 -196 26t-170 69q-17 10 -17 28z" />
<glyph unicode="6" horiz-adv-x="1130" d="M102 702q0 71 4.5 135t18.5 140t36 138.5t60.5 123t89 102t124 66.5t163.5 25q65 0 120.5 -13t92 -34t66 -46t46.5 -50t28 -46t15 -34l3 -13q4 -12 4 -20q0 -20 -27 -35q-29 -14 -41 -19q-15 -6 -28 -6q-22 0 -39 33q-42 77 -103.5 107t-140.5 30q-81 0 -141.5 -35 t-95 -87.5t-56.5 -129.5t-29.5 -144.5t-9.5 -148.5q65 75 153 113.5t185 38.5q198 0 313 -113.5t115 -324.5q0 -220 -125 -349t-328 -129q-232 0 -352.5 192t-120.5 533zM264 588q2 -57 10 -112.5t30.5 -122.5t56 -116.5t91.5 -83.5t132 -34q130 0 208 86.5t78 236.5 q0 149 -68.5 226t-215.5 77q-95 0 -185 -43t-137 -114z" />
<glyph unicode="7" horiz-adv-x="923" d="M20 1298v76q0 35 33 35h760q54 0 82.5 -23.5t28.5 -64.5q0 -55 -39 -129l-586 -1151q-12 -25 -24.5 -33t-38.5 -8h-93q-28 0 -28 23q0 18 16 47l506 950l133 246l-332 -2h-383q-20 0 -27.5 8t-7.5 26z" />
<glyph unicode="8" horiz-adv-x="1103" d="M102 389q0 76 23 139t53 99.5t72 65.5t67.5 40t51.5 19q0 -2 -22 7.5t-53.5 32.5t-62.5 56.5t-53 90.5t-22 124q0 175 109.5 272t293.5 97q171 0 280 -97.5t109 -263.5q0 -72 -22 -131t-53 -92.5t-62.5 -56.5t-53.5 -31l-22 -8q24 -7 49.5 -17.5t67 -38.5t72.5 -64.5 t54 -98t23 -136.5q0 -90 -25 -162t-66.5 -119.5t-99 -79.5t-120.5 -45.5t-133 -13.5q-95 1 -174 23.5t-143.5 69t-101 128t-36.5 191.5zM260 389q0 -137 79 -202.5t218 -65.5q130 0 208.5 65.5t78.5 196.5q0 137 -77 212.5t-208 78.5q-135 0 -217 -73.5t-82 -211.5z M313 1063q0 -115 65.5 -180.5t182.5 -65.5q116 9 173 76t57 174q0 93 -59 159t-173 66q-113 0 -179.5 -58.5t-66.5 -170.5z" />
<glyph unicode="9" horiz-adv-x="1130" d="M102 950q0 226 127.5 354t333.5 128q231 0 348 -191t117 -534q0 -71 -4.5 -135t-18 -140t-35 -138.5t-59.5 -123t-88 -101.5t-122.5 -66.5t-161.5 -25.5q-65 0 -121 13t-94 34t-69 46t-49.5 50t-30.5 46t-17 34l-4 13q-2 6 -2 18q0 26 24 39q43 22 53 25q6 2 19 2 q21 0 43 -37q85 -137 248 -137q57 0 104.5 18t80.5 47.5t58.5 73t40.5 89t25 102t14.5 105t5.5 104.5q-68 -68 -155.5 -107t-180.5 -39q-198 0 -314 112t-116 322zM260 956q0 -292 287 -292q95 0 182.5 43t134.5 114q-1 40 -5 78t-13.5 86t-23.5 89t-38 82t-55 69.5 t-75.5 46.5t-98.5 18q-140 0 -217.5 -88.5t-77.5 -245.5z" />
<glyph unicode=":" horiz-adv-x="473" d="M123 82q0 47 33 81t80 34t80.5 -34t33.5 -81t-33.5 -80t-80.5 -33t-80 33t-33 80zM123 872q0 47 33 81t80 34t80.5 -34t33.5 -81t-33.5 -79.5t-80.5 -32.5t-80 32.5t-33 79.5z" />
<glyph unicode=";" horiz-adv-x="460" d="M41 -170l4 23l96 299q5 17 17 26t21 10h9h105q31 0 31 -24q0 -6 -2 -12.5t-4 -9.5l-1 -3l-137 -291q-10 -23 -27 -32t-47 -9h-40q-25 5 -25 23zM131 872q0 47 33 81t80 34t80.5 -34t33.5 -81t-33.5 -79.5t-80.5 -32.5t-80 32.5t-33 79.5z" />
<glyph unicode="&#x3c;" horiz-adv-x="911" d="M123 737v37q0 44 33 66l589 383q9 6 21 6q17 0 22 -25v-49q0 -30 -8 -47.5t-32 -34.5l-455 -313l455 -316q24 -17 32 -34.5t8 -47.5v-49q-5 -24 -22 -24q-5 0 -10.5 1.5t-7.5 3.5l-3 1l-589 383q-33 22 -33 59z" />
<glyph unicode="=" horiz-adv-x="983" d="M98 389v53q0 21 6.5 30t28.5 9h621q22 0 28 -9t6 -30v-53q0 -19 -7 -27t-29 -8h-617q-22 0 -29.5 8t-7.5 27zM98 727v53q0 21 6.5 30t28.5 9h621q22 0 28 -9t6 -30v-53q0 -19 -7 -27t-29 -8h-617q-22 0 -29.5 8t-7.5 27z" />
<glyph unicode="&#x3e;" horiz-adv-x="911" d="M123 313v49q0 30 8.5 47.5t32.5 34.5l454 316l-454 313q-24 17 -32.5 34.5t-8.5 47.5v49q5 25 22 25q5 0 10.5 -1.5t8.5 -3.5l2 -1l590 -383q32 -21 32 -66v-37q0 -38 -32 -59l-590 -383q-9 -6 -21 -6q-17 0 -22 24z" />
<glyph unicode="?" horiz-adv-x="854" d="M41 1235q0 9 4 25q91 262 383 262q185 0 290 -96t105 -267q0 -40 -6.5 -77t-13.5 -65t-26 -62.5t-30.5 -54t-41 -55.5t-42.5 -51t-51 -56t-51 -56q-59 -65 -79.5 -114t-22.5 -115q0 -12 1 -35t1 -43t-8.5 -28.5t-28.5 -8.5h-84q-35 0 -35 37q-2 51 -2 90q0 85 27.5 156 t109.5 153q62 62 93 96t66 83.5t49 98t14 105.5q0 102 -60 161.5t-172 59.5q-96 0 -157.5 -42.5t-100.5 -131.5q-10 -24 -37 -24q-14 0 -29 6l-40 16q-25 16 -25 33zM270 96q0 47 35 81t84 34q47 0 81 -34t34 -81q0 -49 -34 -84t-81 -35q-49 0 -84 34.5t-35 84.5z" />
<glyph unicode="@" horiz-adv-x="1630" d="M82 762q0 794 752 794q369 0 541.5 -171t172.5 -521q0 -251 -95.5 -381.5t-285.5 -130.5q-138 0 -166 117q-29 -46 -93.5 -81.5t-151.5 -35.5q-164 0 -253 106t-89 320q0 111 30.5 195t82.5 132t114 71.5t133 23.5q150 0 223 -104l11 61q5 27 32 27h70q9 0 14.5 -7.5 t5.5 -15.5v-624q0 -35 15 -51.5t55 -16.5q106 0 164.5 95.5t58.5 289.5q0 75 -6 136.5t-23 124.5t-45.5 111.5t-74 92.5t-107 72t-147.5 44.5t-193 16.5q-311 0 -466.5 -167.5t-155.5 -522.5q0 -323 159 -500.5t490 -177.5q308 0 506 147q16 13 26 13q11 0 21 -13l29 -43 q8 -16 8 -22q0 -14 -19 -27q-102 -74 -258.5 -118t-312.5 -44q-772 0 -772 785zM553 776q0 -313 219 -313q83 0 141 40.5t82 108.5v344q-8 18 -19.5 35.5t-35 41.5t-64.5 39t-92 15q-231 0 -231 -311z" />
<glyph unicode="A" horiz-adv-x="1263" d="M20 29q0 7 5 22l462 1321q41 111 140 111h10q102 0 139 -105l463 -1327q4 -12 4 -22q0 -12 -9.5 -20.5t-23.5 -8.5h-73q-30 0 -44.5 9.5t-23.5 35.5l-123 361h-631l-120 -361q-9 -26 -23 -35.5t-43 -9.5h-76q-14 0 -23.5 8.5t-9.5 20.5zM365 549h534l-209 627l-57 180 l-58 -182z" />
<glyph unicode="B" horiz-adv-x="1189" d="M184 47v1378q0 27 10 36.5t31 13.5q59 8 283 8q81 -1 143 -6t129 -18.5t114.5 -40t87 -66.5t59.5 -102t20 -142q0 -116 -62 -201t-172 -119q134 -32 207.5 -127t73.5 -235q0 -82 -18.5 -147.5t-49 -110.5t-78 -78t-95.5 -51.5t-113 -29.5t-120.5 -15t-125.5 -4 q-224 0 -283 8q-14 2 -21.5 5.5t-13.5 14.5t-6 29zM342 141q70 -6 166 -6q63 0 110.5 3.5t100.5 13.5t90 31t68.5 52.5t47 81.5t15.5 115q0 56 -13.5 100.5t-34.5 73.5t-54.5 50.5t-64 32.5t-73 17t-72 7.5t-69.5 1.5h-217v-574zM342 854h211q50 0 94 6t90.5 22.5t80 43.5 t54.5 72t21 104q0 61 -19.5 104.5t-50.5 68.5t-83.5 39t-104.5 18.5t-127 4.5q-96 0 -166 -6v-477z" />
<glyph unicode="C" horiz-adv-x="1226" d="M102 741q0 175 34.5 312t105 237.5t185 153.5t267.5 53q354 0 467 -272q4 -12 4 -21q0 -22 -37 -37l-36 -16q-20 -8 -37 -8q-20 0 -35 24q-62 98 -141 139.5t-195 41.5q-115 0 -198 -48t-129.5 -134t-67.5 -190t-21 -231q0 -85 10.5 -164.5t40.5 -164t76.5 -146 t125 -101.5t179.5 -40q197 0 369 76q19 8 31 8q18 0 26 -18l23 -60q8 -21 8 -33q0 -25 -37 -43q-57 -28 -169 -55t-259 -27q-133 0 -236.5 43.5t-169 115t-108 172.5t-59.5 207t-17 226z" />
<glyph unicode="D" horiz-adv-x="1402" d="M184 47v1378q0 27 10.5 37.5t30.5 12.5q72 8 310 8q50 0 74 -0.5t76.5 -3.5t83.5 -7.5t81 -14t83.5 -22.5t76.5 -34t75 -47t64 -62t57 -80q94 -168 94 -473q0 -277 -79.5 -445.5t-221.5 -236.5q-141 -67 -483 -67q-232 0 -291 8q-14 2 -21.5 5.5t-13.5 14.5t-6 29z M342 141q83 -6 188 -6q271 0 381 53q105 51 163.5 188t58.5 353q0 281 -74 412q-22 39 -53 70.5t-62 51.5t-74 34.5t-75.5 21.5t-81.5 11.5t-76.5 5t-75.5 1.5q-117 0 -219 -6v-1190z" />
<glyph unicode="E" horiz-adv-x="1050" d="M184 164v1147q0 51 13 86t36 51t44.5 21.5t48.5 5.5h614q37 0 37 -39v-78q0 -35 -39 -35h-596v-459h512q23 0 31 -10t8 -29v-71q0 -39 -41 -39h-510v-563h629q39 0 39 -35v-78q0 -39 -37 -39h-647q-27 0 -48.5 5.5t-44.5 21.5t-36 51t-13 86z" />
<glyph unicode="F" horiz-adv-x="991" d="M184 41v1270q0 51 13 86t36 51t44.5 21.5t48.5 5.5h608q37 0 37 -39v-78q0 -35 -39 -35h-590v-459h526q23 0 31 -10t8 -29v-71q0 -39 -41 -39h-524v-674q0 -41 -35 -41h-88q-35 0 -35 41z" />
<glyph unicode="G" horiz-adv-x="1312" d="M102 733q0 178 36 317.5t109 240t188.5 153.5t269.5 53q360 0 473 -272q4 -12 4 -21q0 -22 -37 -37l-37 -16q-20 -8 -37 -8q-20 0 -35 24q-62 97 -143.5 139t-198.5 42q-115 0 -199.5 -47.5t-133 -133.5t-71 -193t-22.5 -239q0 -101 14 -186.5t48.5 -165.5t88 -135.5 t138.5 -89t195 -33.5q163 0 282 51v428h-270q-39 0 -39 35v82q0 39 37 39h342q49 0 67.5 -18.5t18.5 -79.5v-496q0 -54 -20 -83.5t-60 -45.5q-142 -60 -377 -60q-134 0 -241 38t-179 105t-120 162.5t-69.5 207t-21.5 243.5z" />
<glyph unicode="H" horiz-adv-x="1417" d="M184 41v1393q0 41 35 41h88q35 0 35 -41v-568h733v568q0 41 35 41h88q35 0 35 -41v-1393q0 -41 -35 -41h-88q-35 0 -35 41v676h-733v-676q0 -41 -35 -41h-88q-35 0 -35 41z" />
<glyph unicode="I" horiz-adv-x="526" d="M184 41v1393q0 41 35 41h88q35 0 35 -41v-1393q0 -41 -35 -41h-88q-35 0 -35 41z" />
<glyph unicode="J" horiz-adv-x="806" d="M20 70q0 9 7 26l22 60q11 26 31 26q10 0 26 -8q106 -49 201 -49q88 0 124 47.5t36 159.5v991h-219q-39 0 -39 35v78q0 39 37 39h342q35 0 35 -41v-1135q0 -155 -69.5 -238.5t-240.5 -83.5q-153 0 -266 58q-27 13 -27 35z" />
<glyph unicode="K" horiz-adv-x="1216" d="M184 41v1393q0 41 35 41h88q35 0 35 -41v-568h215l410 582q19 27 61 27h90q12 0 20.5 -7.5t8.5 -19.5q0 -15 -12 -33l-459 -631l510 -731q10 -15 10 -26q0 -27 -33 -27h-92q-42 0 -61 27l-473 692h-195v-678q0 -41 -35 -41h-88q-35 0 -35 41z" />
<glyph unicode="L" horiz-adv-x="974" d="M184 164v1270q0 41 35 41h88q35 0 35 -41v-1282h573q39 0 39 -35v-78q0 -39 -36 -39h-592q-27 0 -48.5 5.5t-44.5 21.5t-36 51t-13 86z" />
<glyph unicode="M" horiz-adv-x="1652" d="M143 37l64 1257q5 90 36 139.5t109 49.5q60 0 95.5 -27t58.5 -108l270 -955l51 -188l47 188l273 955q23 80 61 107.5t99 27.5q77 0 105.5 -48.5t33.5 -140.5l63 -1257q-3 -37 -34 -37h-86q-21 0 -29 8.5t-10 28.5l-43 1055l-11 278l-75 -280l-248 -859q-19 -63 -50.5 -95 t-91.5 -32h-8q-60 0 -92 32t-51 95l-248 861l-76 278l-10 -278l-43 -1055q-2 -20 -10 -28.5t-29 -8.5h-86q-32 0 -35 37z" />
<glyph unicode="N" horiz-adv-x="1439" d="M184 41v1255q0 187 140 187q62 0 96.5 -27t75.5 -108l471 -934l137 -295l-4 364v951q0 41 35 41h86q19 0 26.5 -9.5t7.5 -31.5v-1266q0 -176 -141 -176q-60 0 -95.5 29.5t-66.5 91.5l-495 979l-125 274l8 -356v-969q0 -41 -35 -41h-86q-35 0 -35 41z" />
<glyph unicode="O" horiz-adv-x="1398" d="M102 743q0 167 31 297.5t84.5 215t130 140t162 78.5t186.5 23q102 0 188.5 -23t164 -78t131 -139.5t85 -214.5t31.5 -297q0 -768 -600 -768q-102 0 -187 22.5t-162 77.5t-130 141t-84 219.5t-31 305.5zM268 741q0 -614 428 -614q100 0 176 30.5t135.5 99.5t91 192 t31.5 296q0 603 -434 603q-205 0 -316.5 -148t-111.5 -459z" />
<glyph unicode="P" horiz-adv-x="1099" d="M184 41v1386q0 39 31 46q61 10 264 10q157 0 268.5 -19.5t188.5 -74.5q143 -100 143 -347q0 -95 -22 -171t-56.5 -127t-86 -88.5t-102 -58t-115.5 -32.5t-114.5 -15t-109.5 -3q-18 0 -66.5 1t-64.5 1v-508q0 -41 -35 -41h-90q-33 0 -33 41zM342 694q57 -2 156 -2 q204 0 309.5 81t105.5 271q0 166 -94.5 229.5t-331.5 63.5q-34 0 -145 -6v-637z" />
<glyph unicode="Q" horiz-adv-x="1398" d="M102 743q0 167 31 297.5t84.5 215t130 140t162 78.5t186.5 23q102 0 188.5 -23t164 -78t131 -139.5t85 -214.5t31.5 -297q0 -620 -395 -741l213 -186q8 -8 8 -21q0 -22 -26 -22h-105q-36 0 -54 7.5t-46 35.5l-154 159h-41q-102 0 -187 22.5t-162 77.5t-130 141t-84 219.5 t-31 305.5zM268 741q0 -614 428 -614q100 0 176 30.5t135.5 99.5t91 192t31.5 296q0 603 -434 603q-205 0 -316.5 -148t-111.5 -459z" />
<glyph unicode="R" horiz-adv-x="1210" d="M184 41v1384q0 45 31 48q63 10 305 10q69 0 124 -3.5t116 -14.5t107 -29.5t89 -49.5t70.5 -73.5t44 -103t16.5 -136.5q0 -317 -288 -387l383 -637q8 -10 8 -24q0 -25 -29 -25h-94q-27 0 -40 6.5t-26 30.5l-362 612l-297 2v-610q0 -41 -35 -41h-90q-33 0 -33 41zM342 795 q59 -4 201 -4q69 0 120 5.5t102.5 23t83.5 47t52.5 81t20.5 121.5t-21.5 120.5t-54.5 78.5t-88.5 44t-107 20.5t-126.5 4.5l-182 -6v-536z" />
<glyph unicode="S" horiz-adv-x="1091" d="M102 100q0 8 11 35l20 55q9 23 29 23q12 0 24 -6q182 -78 336 -78q56 0 108 15t95.5 45t69.5 80.5t26 115.5q0 166 -196 252l-197 86q-162 71 -233.5 162t-71.5 217q0 124 60 215t155 135.5t211 44.5q139 0 232 -53t151 -168q12 -24 12 -39q0 -10 -8 -16.5t-29 -16.5 l-39 -18q-20 -10 -39 -10q-16 0 -32 28q-87 144 -246 144q-112 0 -186 -61.5t-74 -174.5q0 -146 182 -227l219 -97q297 -130 297 -393q0 -203 -127.5 -310.5t-351.5 -107.5q-121 0 -223.5 28t-155.5 58q-29 16 -29 37z" />
<glyph unicode="T" horiz-adv-x="1054" d="M0 1358v78q0 20 7 29.5t28 9.5h985q21 0 28 -9.5t7 -29.5v-78q0 -18 -8 -26.5t-29 -8.5h-412v-1282q0 -41 -33 -41h-92q-18 0 -25 10t-7 31v1282h-412q-21 0 -29 8.5t-8 26.5z" />
<glyph unicode="U" horiz-adv-x="1376" d="M164 545v889q0 22 7.5 31.5t25.5 9.5h92q35 0 35 -41v-875q0 -90 22 -167t65 -136.5t114 -93t163 -33.5q178 0 271.5 118.5t93.5 311.5v875q0 22 7.5 31.5t26.5 9.5h91q19 0 26.5 -9.5t7.5 -31.5v-893q0 -88 -17.5 -168t-58 -153t-100 -126.5t-149 -85t-199.5 -31.5 q-134 0 -237 45.5t-164.5 125t-92 179.5t-30.5 218z" />
<glyph unicode="V" horiz-adv-x="1220" d="M31 1446q0 12 9.5 20.5t22.5 8.5h80q46 0 58 -37l342 -1090l67 -229l72 229l336 1084q7 26 21 34.5t44 8.5h74q14 0 23.5 -8.5t9.5 -20.5q0 -11 -4 -23l-434 -1314q-15 -47 -49 -78t-85 -31h-14q-50 0 -84.5 29.5t-50.5 79.5l-434 1314q-4 12 -4 23z" />
<glyph unicode="W" horiz-adv-x="1589" d="M31 1446q0 12 9.5 20.5t22.5 8.5h84q41 0 46 -39l159 -1166l21 -161l39 161l243 951q11 40 37.5 65t50.5 32t48 7h12q39 0 77.5 -23.5t53.5 -80.5l244 -949l39 -161l20 163l160 1162q5 39 47 39h82q14 0 23.5 -8.5t9.5 -20.5q0 -7 -5 -37l-198 -1288q-9 -59 -45 -90 t-86 -31h-17q-101 0 -131 113l-248 934l-34 167l-37 -159l-246 -942q-30 -113 -133 -113h-14q-50 0 -86.5 31t-45.5 90l-198 1288q-4 24 -4 37z" />
<glyph unicode="X" horiz-adv-x="1159" d="M0 25q0 11 8 24l461 725l-403 651q-7 14 -7 23q0 12 8.5 19.5t20.5 7.5h88q14 0 21.5 -1t19.5 -9.5t21 -24.5l276 -467l68 -113l69 121l271 459q9 16 21 24.5t19.5 9.5t20.5 1h88q12 0 20.5 -7.5t8.5 -19.5q0 -11 -6 -23l-404 -651l461 -725q8 -13 8 -24t-9 -18t-22 -7 h-86q-24 0 -36 5.5t-29 29.5l-303 500l-94 161l-78 -133l-320 -528q-12 -17 -22 -24.5t-18 -9t-25 -1.5h-86q-13 0 -22 7t-9 18z" />
<glyph unicode="Y" horiz-adv-x="1062" d="M20 1448q0 12 8.5 19.5t20.5 7.5h88q14 0 21.5 -1t19.5 -9.5t21 -24.5l276 -488l57 -106l58 106l274 488q9 16 21 24.5t19.5 9.5t21.5 1h88q12 0 20 -7.5t8 -19.5q0 -11 -6 -23l-426 -720v-664q0 -41 -35 -41h-88q-34 0 -34 41v666l-426 718q-7 14 -7 23z" />
<glyph unicode="Z" horiz-adv-x="1097" d="M41 82q0 41 53 123l557 837l195 283h-346l-353 -2q-38 0 -38 35v78q0 39 36 39h805q38 0 64 -21t26 -61q0 -39 -39 -103l-591 -891l-174 -252l380 3l402 2q39 0 39 -35v-78q0 -39 -37 -39h-883q-39 0 -67.5 22t-28.5 60z" />
<glyph unicode="[" horiz-adv-x="591" d="M164 -129v1515q0 44 10.5 71.5t32.5 38.5t40 14t48 3h219q21 0 29 -7t8 -25v-62q0 -17 -8.5 -22.5t-30.5 -5.5h-195v-1524h195q22 0 30.5 -6t8.5 -23v-61q0 -18 -8 -25.5t-29 -7.5h-219q-30 0 -48 3t-40 14t-32.5 38.5t-10.5 71.5z" />
<glyph unicode="\" horiz-adv-x="735" d="M31 1530q0 10 8 17t20 7h52q26 0 36 -8t17 -37l426 -1486q2 -6 2 -19q0 -10 -8.5 -17t-20.5 -7h-51q-26 0 -36 8t-17 37l-426 1486q-2 6 -2 19z" />
<glyph unicode="]" horiz-adv-x="591" d="M41 -162q0 17 8.5 23t30.5 6h194v1524h-194q-22 0 -30.5 5.5t-8.5 22.5v62q0 18 8 25t29 7h219q30 0 48 -3t40 -14t32.5 -38.5t10.5 -71.5v-1515q0 -44 -10.5 -71.5t-32.5 -38.5t-40 -14t-48 -3h-219q-21 0 -29 7.5t-8 25.5v61z" />
<glyph unicode="^" horiz-adv-x="1185" d="M123 885q0 5 1.5 10t3.5 7l1 3l383 590q22 33 66 33h36q38 0 60 -33l383 -590q6 -8 6 -20q0 -18 -25 -23h-49q-30 0 -47.5 8.5t-34.5 32.5l-315 455l-313 -455q-17 -24 -34.5 -32.5t-47.5 -8.5h-50q-24 5 -24 23z" />
<glyph unicode="_" horiz-adv-x="1363" d="M123 -219q0 35 33 35h1052q33 0 33 -35v-55q0 -35 -35 -35h-1048q-35 0 -35 35v55z" />
<glyph unicode="`" horiz-adv-x="610" d="M123 1573q0 24 31 24h92q37 1 55 -28l180 -287q6 -8 6 -20q0 -18 -24 -23h-43q-27 0 -41 8.5t-33 32.5l-215 268q-8 11 -8 25z" />
<glyph unicode="a" d="M82 539q0 145 37 255t101 175t143.5 97t171.5 32q86 0 164 -34t130 -106l15 82q5 35 43 35h65q14 0 21.5 -10t7.5 -21v-849q0 -51 16.5 -67.5t53.5 -16.5q10 0 16 -1.5t11 -9t5 -22.5v-41q0 -10 -2.5 -17t-10.5 -15.5t-27 -13.5t-48 -5q-153 0 -168 143 q-89 -152 -307 -152q-210 0 -324 147t-114 415zM242 537q0 -92 13.5 -164t45.5 -133t92 -94t146 -33q110 0 182.5 53t103.5 145v473q-7 18 -17 36t-33 45.5t-51.5 47.5t-75 35t-101.5 15q-305 0 -305 -426z" />
<glyph unicode="b" d="M164 31v1456q0 26 26 35l89 20q6 2 12 2q13 0 20.5 -8.5t7.5 -19.5v-582q90 164 322 164q107 0 188.5 -40t132 -113t76 -169.5t25.5 -214.5q0 -270 -115.5 -427t-337.5 -157q-198 0 -293 146l-16 -88q-4 -22 -14.5 -28.5t-32.5 -6.5h-61q-12 0 -20.5 10.5t-8.5 20.5z M319 307q22 -82 96.5 -138t190.5 -56q148 0 222.5 115t74.5 325q0 65 -8 121.5t-28 111t-51.5 92.5t-82.5 61.5t-117 23.5q-108 0 -186 -51.5t-111 -147.5v-457z" />
<glyph unicode="c" horiz-adv-x="962" d="M82 530q0 269 119.5 418.5t351.5 149.5q72 0 132 -16t96.5 -38t65.5 -53.5t41.5 -53.5t22.5 -46q11 -29 11 -41q0 -26 -33 -37l-39 -14q-18 -6 -31 -6q-24 0 -35 24q-65 146 -239 146q-153 0 -228 -112t-75 -316q0 -418 329 -418q147 0 285 53q10 4 21 4q21 0 26 -24 l15 -70q2 -10 2 -14q0 -22 -25 -33q-133 -56 -338 -56q-236 0 -355.5 142.5t-119.5 410.5z" />
<glyph unicode="d" d="M82 528q0 146 36.5 258t100 179t144 100t174.5 33q193 0 288 -146v535q0 30 27 35l78 18q16 4 22 4q13 0 21 -8.5t8 -19.5v-1485q0 -11 -7.5 -21t-21.5 -10h-65q-38 0 -43 35l-17 88q-89 -146 -317 -146q-209 0 -318.5 142.5t-109.5 408.5zM242 528q0 -205 70 -310 t220 -105q112 0 188 54t105 144v455q-20 76 -93 136.5t-183 60.5q-146 0 -226.5 -109t-80.5 -326z" />
<glyph unicode="e" horiz-adv-x="1064" d="M82 530q0 268 123.5 418t357.5 150q100 0 175.5 -31t121.5 -81.5t74 -124.5t38.5 -150t10.5 -168q0 -18 -3 -28.5t-10 -14.5t-13 -5t-19 -1h-694q2 -173 84 -275t245 -102q143 0 289 51q15 6 27 6q21 0 26 -24l13 -58q4 -20 4 -26q0 -23 -21 -31q-150 -58 -348 -58 q-240 0 -360.5 146.5t-120.5 406.5zM246 627h577q-3 52 -9.5 94t-24.5 90t-45.5 79.5t-76 53t-112.5 21.5q-138 0 -218 -91.5t-91 -246.5z" />
<glyph unicode="f" horiz-adv-x="618" d="M20 975v61q0 39 37 39h129v125q0 170 73.5 257t232.5 87q108 0 167 -35q21 -13 21 -30q0 -14 -10 -37l-17 -39q-10 -25 -28 -25q-6 0 -51.5 12.5t-86.5 12.5q-68 0 -106.5 -42.5t-38.5 -156.5v-129h190q37 0 37 -37v-65q0 -35 -37 -35h-190v-899q0 -39 -35 -39h-86 q-35 0 -35 39v899h-129q-37 0 -37 37z" />
<glyph unicode="g" d="M82 528q1 146 38.5 258t102 179t144.5 100t172 33q198 0 288 -152l17 94q5 35 43 35h65q14 0 21.5 -10t7.5 -21v-1042q0 -215 -119.5 -313.5t-343.5 -98.5q-88 0 -184 17.5t-166 48.5q-27 12 -27 35q0 7 6 28l19 58q7 22 31 22q7 0 22 -6q68 -30 151 -47.5t154 -17.5 q160 0 227.5 73.5t69.5 216.5v97q-36 -61 -116.5 -99.5t-196.5 -38.5q-211 0 -318.5 148.5t-107.5 402.5zM242 528q0 -415 284 -415q118 0 193.5 53.5t105.5 150.5v449q-16 73 -88.5 135t-181.5 62q-84 0 -146 -33t-97.5 -93t-52.5 -136.5t-17 -172.5z" />
<glyph unicode="h" horiz-adv-x="1175" d="M164 39v1448q0 28 26 35l89 20q6 2 12 2q13 0 20.5 -8.5t7.5 -19.5v-582q109 164 326 164q183 0 275 -109t92 -317v-633q0 -39 -33 -39h-92q-31 0 -31 39v627q0 49 -4.5 87.5t-20 79.5t-41.5 68t-72 44.5t-108 17.5q-33 0 -70 -9t-80.5 -31t-81.5 -68t-59 -110v-706 q0 -39 -34 -39h-88q-33 0 -33 39z" />
<glyph unicode="i" horiz-adv-x="483" d="M137 1292q0 42 30.5 69.5t72.5 27.5q49 0 77.5 -27t28.5 -70q0 -42 -28.5 -69t-77.5 -27q-42 0 -72.5 27.5t-30.5 68.5zM164 39v997q0 39 33 39h88q34 0 34 -39v-997q0 -39 -34 -39h-88q-33 0 -33 39z" />
<glyph unicode="j" horiz-adv-x="483" d="M-49 -362q0 8 4 24l14 57q6 25 31 25q5 0 34.5 -5t47.5 -5q23 0 38.5 7.5t24 18t13 28t5.5 31.5t1 36v1179q0 39 31 39h90q34 0 34 -39v-1192q0 -122 -60.5 -187t-172.5 -65q-59 0 -106 17q-29 12 -29 31zM137 1290q0 42 29.5 69t71.5 27q49 0 77.5 -26.5t28.5 -69.5 q0 -42 -28.5 -69t-77.5 -27q-42 0 -71.5 27.5t-29.5 68.5z" />
<glyph unicode="k" horiz-adv-x="995" d="M164 31v1456q0 28 26 35l78 18q17 4 23 4q13 0 20.5 -8.5t7.5 -19.5v-822h187l270 355q19 26 62 26h75q33 0 33 -26q0 -14 -8 -25l-322 -412l351 -557q8 -14 8 -24q0 -31 -33 -31h-84q-39 0 -55 27l-324 532h-160v-528q0 -10 -8 -20.5t-20 -10.5h-98q-12 0 -20.5 10.5 t-8.5 20.5z" />
<glyph unicode="l" horiz-adv-x="483" d="M164 31v1456q0 26 26 35l89 20q6 2 12 2q13 0 20.5 -8.5t7.5 -19.5v-1485q0 -10 -8 -20.5t-20 -10.5h-98q-12 0 -20.5 10.5t-8.5 20.5z" />
<glyph unicode="m" horiz-adv-x="1826" d="M164 39v1001q0 35 31 35h61q21 0 31.5 -7.5t13.5 -29.5l16 -106q109 166 322 166q233 0 317 -199q120 199 338 199q369 0 369 -443v-616q0 -39 -33 -39h-92q-31 0 -31 39v635q0 58 -9 104t-32.5 90.5t-72.5 69.5t-121 25q-33 0 -66 -8t-74.5 -29t-79 -67.5t-61.5 -113.5 v-706q0 -39 -33 -39h-92q-30 0 -30 39v635q0 46 -4 81t-18 76.5t-38 68.5t-68 45t-104 18q-33 0 -70.5 -10.5t-79.5 -33.5t-78.5 -68t-56.5 -106v-706q0 -39 -34 -39h-88q-33 0 -33 39z" />
<glyph unicode="n" horiz-adv-x="1175" d="M164 39v1001q0 35 31 35h61q21 0 31.5 -7.5t13.5 -29.5l16 -106q108 166 328 166q183 0 275 -109t92 -317v-633q0 -39 -33 -39h-92q-31 0 -31 39v627q0 49 -4.5 87.5t-20 79.5t-41.5 68t-72 44.5t-108 17.5q-33 0 -70 -9t-80.5 -31t-81.5 -68t-59 -110v-706 q0 -39 -34 -39h-88q-33 0 -33 39z" />
<glyph unicode="o" horiz-adv-x="1085" d="M82 543q0 262 123.5 408.5t337.5 146.5q219 0 340 -149t121 -408q0 -275 -123.5 -419.5t-337.5 -144.5q-216 0 -338.5 146t-122.5 420zM242 543q0 -211 71 -320.5t230 -109.5t230 111t71 319q0 420 -301 420q-160 0 -230.5 -109t-70.5 -311z" />
<glyph unicode="p" d="M164 -381v1425q0 10 8.5 20.5t20.5 10.5h61q22 0 33 -7t14 -28l18 -106q40 78 123 121t191 43q214 0 322 -145t108 -408q0 -121 -24.5 -218t-67 -161.5t-101 -107.5t-123.5 -62t-139 -19q-195 0 -289 144v-502q0 -11 -9 -20t-19 -9h-98q-11 0 -20 9t-9 20zM319 307 q15 -73 91 -133.5t190 -60.5q156 0 229.5 114t73.5 322q0 87 -14.5 158.5t-46.5 130.5t-90 92t-138 33q-113 0 -189 -55t-106 -148v-453z" />
<glyph unicode="q" d="M82 526q0 121 27 222.5t81.5 181t144.5 124t208 44.5q194 0 284 -150l17 92q4 21 14.5 28t30.5 7h63q14 0 21.5 -10t7.5 -21v-1425q0 -11 -8.5 -20t-18.5 -9h-108q-8 0 -16.5 9.5t-8.5 19.5v500q-38 -62 -116.5 -102t-196.5 -40q-212 0 -319 148t-107 401zM242 526 q0 -413 286 -413q113 0 191 53.5t106 146.5v455q-25 81 -96 138t-184 57q-81 0 -141 -34t-94.5 -95t-51 -137.5t-16.5 -170.5z" />
<glyph unicode="r" horiz-adv-x="724" d="M164 39v997q0 39 35 39h59q23 0 31 -10.5t12 -32.5l16 -100q107 147 275 147q60 0 106 -18q27 -11 27 -31q0 -11 -10 -49l-10 -39q-10 -27 -35 -27q-8 0 -50 6.5t-63 6.5q-34 0 -66 -8.5t-66 -27.5t-62 -57t-44 -92v-714q-1 -17 -5.5 -22t-18.5 -7h-98q-33 0 -33 39z" />
<glyph unicode="s" horiz-adv-x="890" d="M92 61q0 9 4 29l13 57q5 25 26 25q7 0 31 -8q136 -47 252 -47q110 0 167.5 45t57.5 131q0 67 -39.5 102.5t-138.5 73.5l-105 39q-46 18 -78.5 34t-67 41t-55.5 53.5t-34.5 69.5t-13.5 91q0 141 95.5 221t248.5 80q115 0 199 -45.5t120 -130.5q4 -11 4 -19q0 -20 -28 -37 l-41 -22q-12 -6 -23 -6q-22 0 -41 28q-37 51 -83 76t-113 25q-93 0 -138 -46.5t-45 -115.5q0 -62 41 -96.5t125 -67.5l111 -43q61 -23 102.5 -46t79 -57.5t56 -83t18.5 -112.5q0 -145 -99 -233.5t-278 -88.5q-70 0 -161 16t-148 42q-21 9 -21 26z" />
<glyph unicode="t" horiz-adv-x="645" d="M20 973v65q0 37 37 37h109v176q0 44 33 52l73 16q14 2 21 2q29 0 29 -35v-211h231q37 0 37 -37v-65q0 -35 -37 -35h-231v-678q0 -72 24 -104.5t80 -32.5q40 0 96 16q33 11 41 11q19 0 25 -25l12 -55q4 -20 4 -27q0 -21 -24 -31q-68 -32 -172 -32q-131 0 -186.5 67.5 t-55.5 198.5v692h-109q-37 0 -37 35z" />
<glyph unicode="u" horiz-adv-x="1155" d="M143 403v633q0 39 33 39h92q31 0 31 -39v-635q0 -60 10.5 -107.5t36 -90.5t76 -66.5t123.5 -23.5q27 0 54.5 3.5t64 16t67.5 33t60 57.5t45 86v727q0 39 34 39h88q33 0 33 -39v-1001q0 -35 -30 -35h-62q-21 0 -31.5 7.5t-13.5 29.5l-16 86q-103 -146 -314 -146 q-182 0 -281.5 114t-99.5 312z" />
<glyph unicode="v" horiz-adv-x="966" d="M0 1044q0 14 9.5 22.5t23.5 8.5h71q30 0 42.5 -7.5t19.5 -33.5l203 -624l98 -308l100 308l205 624q7 26 19.5 33.5t42.5 7.5h69q14 0 23.5 -8.5t9.5 -22.5q0 -4 -4 -20l-328 -938q-35 -96 -131 -96h-12q-94 0 -129 96l-328 938q-4 16 -4 20z" />
<glyph unicode="w" horiz-adv-x="1472" d="M31 1044q0 31 28 31h70q30 0 42.5 -8t18.5 -33l140 -624l65 -312l90 312l129 426q16 53 44.5 71.5t78.5 18.5q52 0 78 -18.5t41 -67.5l131 -430l90 -310l66 310l139 624q6 25 18.5 33t42.5 8h70q29 0 29 -31q0 -6 -4 -26l-228 -932q-23 -96 -141 -96q-51 0 -79.5 22.5 t-43.5 73.5l-153 502l-58 198l-55 -198l-154 -502q-16 -52 -44.5 -74t-90.5 -22q-106 0 -129 96l-227 932q-4 20 -4 26z" />
<glyph unicode="x" horiz-adv-x="958" d="M31 29q0 13 12 28l328 506l-303 457q-9 15 -9 29q0 26 25 26h86q36 0 49 -22l164 -256l96 -154l103 164l157 246q12 22 49 22h86q25 0 25 -26q0 -16 -8 -29l-303 -457l327 -506q13 -22 13 -28q0 -12 -8 -20.5t-19 -8.5h-88q-33 0 -49 29l-213 344l-72 112l-80 -127 l-204 -329q-16 -29 -50 -29h-88q-11 0 -18.5 8.5t-7.5 20.5z" />
<glyph unicode="y" horiz-adv-x="940" d="M20 -346q0 12 5 22l18 60q6 17 12.5 21.5t20.5 4.5q2 0 55 -14t113 -14q68 0 111.5 41.5t70.5 122.5l33 96q-51 0 -77 24.5t-42 75.5l-305 930q-4 16 -4 20q0 15 9 23t23 8h70q30 0 42.5 -7.5t19.5 -33.5l217 -694l71 -231l70 233l197 700q6 20 16 26.5t31 6.5h86 q26 0 26 -26q0 -11 -2 -15l-329 -1143q-46 -160 -129.5 -230.5t-215.5 -70.5q-116 0 -190 35q-23 10 -23 29z" />
<glyph unicode="z" horiz-adv-x="933" d="M61 90q0 57 48 115l473 594l114 143l-213 -2l-348 -2q-33 0 -33 35v69q0 33 33 33h627q108 0 108 -88q0 -35 -14 -63.5t-47 -71.5l-449 -563l-127 -154h209l416 2q35 0 35 -35v-67q0 -35 -33 -35h-686q-54 0 -83.5 24.5t-29.5 65.5z" />
<glyph unicode="{" horiz-adv-x="716" d="M133 596v55q0 41 39 41q66 0 89.5 28t23.5 83v358q0 106 24 178t70 110t100.5 53.5t128.5 15.5h37q31 0 31 -35v-53q0 -18 -7 -26.5t-26 -8.5h-29q-99 0 -141.5 -54.5t-42.5 -177.5v-360q0 -151 -129 -180q129 -29 129 -179v-366q0 -122 42 -173.5t142 -51.5h29 q19 0 26 -8.5t7 -26.5v-54q0 -34 -31 -34h-37q-148 0 -235.5 74t-87.5 241v399q0 56 -22.5 83.5t-88.5 27.5q-41 0 -41 41z" />
<glyph unicode="|" horiz-adv-x="462" d="M164 0v1536q0 41 35 41h65q35 0 35 -41v-1536q0 -41 -35 -41h-65q-35 0 -35 41z" />
<glyph unicode="}" horiz-adv-x="716" d="M41 -182q0 18 7 26.5t26 8.5h28q100 0 142.5 52t42.5 173v366q0 150 129 179q-129 29 -129 180v360q0 122 -43 177t-142 55h-28q-19 0 -26 8.5t-7 26.5v53q0 35 31 35h37q74 0 128.5 -15.5t100.5 -53.5t70 -110t24 -178v-358q0 -55 23.5 -83t89.5 -28q39 0 39 -41v-55 q0 -41 -41 -41q-66 0 -88.5 -27.5t-22.5 -83.5v-399q0 -167 -87.5 -241t-235.5 -74h-37q-31 0 -31 34v54z" />
<glyph unicode="~" horiz-adv-x="1073" d="M123 555q4 97 69.5 152t172.5 55q59 0 128 -23t127.5 -46t92.5 -23q88 0 116 71q12 31 31 31h66q12 0 18 -10t6 -21q-1 -93 -69.5 -149.5t-167.5 -56.5q-64 0 -192.5 46t-164.5 46q-81 0 -112 -74q-12 -29 -29 -29h-68q-12 0 -18 10t-6 21z" />
<glyph unicode="&#xa1;" horiz-adv-x="561" d="M164 985q0 49 34 84t81 35q49 0 83.5 -34.5t34.5 -84.5q0 -47 -34.5 -81t-83.5 -34q-47 0 -81 34t-34 81zM188 -399l23 1106q0 20 8.5 28t28.5 8h74q34 0 34 -36l23 -1110q0 -37 -31 -37h-123q-37 0 -37 41z" />
<glyph unicode="&#xa2;" horiz-adv-x="993" d="M82 526q0 259 105.5 402.5t308.5 165.5v153q0 22 7.5 31.5t26.5 9.5h56q35 0 35 -41v-151q60 0 112.5 -16.5t86 -39t60.5 -53t40 -53t22 -43.5q10 -27 10 -41q0 -26 -32 -37l-37 -14q-18 -6 -29 -6q-24 0 -35 24q-59 146 -262 146q-72 0 -127 -23.5t-90 -62.5t-57.5 -96 t-31.5 -118t-9 -133q0 -68 7.5 -123t29.5 -110.5t59 -92.5t99 -60t145 -23q67 0 152 13.5t153 37.5q10 4 20 4q22 0 27 -24l14 -70q2 -10 2 -14q0 -22 -24 -33q-118 -49 -305 -58v-151q0 -41 -35 -41h-56q-19 0 -26.5 9.5t-7.5 31.5v154q-414 48 -414 546z" />
<glyph unicode="&#xa3;" horiz-adv-x="1095" d="M123 37v63q0 41 39 60q157 85 157 323v47h-114q-22 0 -29.5 8t-7.5 27v47q0 21 6.5 30t28.5 9h116v140h-114q-22 0 -29.5 8t-7.5 26v47q0 21 6.5 30t28.5 9h116v201q0 214 101 328t299 114q94 0 162.5 -18t99.5 -37q20 -13 20 -31q0 -15 -8 -36l-14 -39q-10 -25 -29 -25 q-10 0 -28 6q-82 35 -199 35q-130 0 -189 -73.5t-59 -237.5v-187h344q22 0 28.5 -9t6.5 -30v-47q0 -18 -7.5 -26t-29.5 -8h-342v-140h344q22 0 28.5 -9t6.5 -30v-47q0 -19 -7.5 -27t-29.5 -8h-342v-96q0 -88 -39.5 -161t-111.5 -121h692q39 0 39 -35v-78q0 -39 -37 -39h-856 q-39 0 -39 37z" />
<glyph unicode="&#xa5;" horiz-adv-x="1062" d="M20 1448q0 12 8.5 19.5t20.5 7.5h88q14 0 21.5 -1t19.5 -9.5t21 -24.5l276 -488l57 -106l58 106l274 488q9 16 21 24.5t19.5 9.5t21.5 1h88q12 0 20 -7.5t8 -19.5q0 -11 -6 -23l-372 -630h194q22 0 28.5 -9t6.5 -30v-47q0 -19 -7.5 -27t-29.5 -8h-246v-139h248 q22 0 28.5 -9t6.5 -30v-47q0 -19 -7.5 -27t-29.5 -8h-246v-373q0 -41 -35 -41h-88q-34 0 -34 41v373h-236q-22 0 -29.5 8t-7.5 27v47q0 21 6.5 30t28.5 9h238v139h-236q-22 0 -29.5 8t-7.5 27v47q0 21 6.5 30t28.5 9h184l-372 630q-7 14 -7 23z" />
<glyph unicode="&#xa6;" horiz-adv-x="462" d="M164 0v510q0 41 35 41h65q35 0 35 -41v-510q0 -41 -35 -41h-65q-35 0 -35 41zM164 1026v510q0 41 35 41h65q35 0 35 -41v-510q0 -41 -35 -41h-65q-35 0 -35 41z" />
<glyph unicode="&#xa7;" horiz-adv-x="876" d="M82 63q0 11 4 27l12 57q5 25 27 25q8 0 20 -4q134 -51 246 -51q117 0 172 43.5t55 132.5q0 67 -40 103.5t-138 72.5l-108 39q-117 42 -180.5 105.5t-63.5 174.5q0 146 133 228q-62 38 -94.5 91.5t-32.5 135.5q0 146 92.5 226.5t245.5 80.5q115 0 198.5 -45.5 t119.5 -130.5q4 -10 4 -18q0 -20 -29 -37l-41 -23q-12 -6 -22 -6q-23 0 -41 29q-66 98 -195 98q-91 0 -133.5 -45t-42.5 -115q0 -62 40 -97.5t122 -65.5l100 -37q62 -22 105 -44t84 -56t62 -83t21 -112q0 -153 -147 -219q137 -82 137 -244q0 -154 -99 -238t-296 -84 q-60 0 -140.5 15t-136.5 43q-20 9 -20 28zM244 805q0 -62 39 -97t120 -67l99 -37q68 18 97.5 59.5t29.5 81.5q0 68 -40 105.5t-138 71.5l-101 32q-106 -30 -106 -149z" />
<glyph unicode="&#xa8;" horiz-adv-x="774" d="M123 1331q0 39 28.5 64.5t67.5 25.5q47 0 75 -25t28 -65t-28 -66t-75 -26q-39 0 -67.5 26.5t-28.5 65.5zM453 1331q0 39 28.5 64.5t69.5 25.5q45 0 72.5 -25t27.5 -65t-27.5 -66t-72.5 -26q-40 0 -69 26.5t-29 65.5z" />
<glyph unicode="&#xa9;" horiz-adv-x="1634" d="M82 772q0 173 39 309t105 224t161 145.5t200 81.5t228 24q127 0 233 -23.5t201 -80.5t161 -145t104 -223.5t38 -309.5q0 -181 -38.5 -320.5t-103.5 -228.5t-160.5 -145.5t-201 -79.5t-233.5 -23q-126 0 -231 23.5t-200 80.5t-160 146t-103.5 227.5t-38.5 317.5zM205 770 q0 -186 43 -321t125 -214.5t190.5 -116t249.5 -36.5q112 0 202.5 20.5t169.5 70t132 127.5t83 198t30 276q0 353 -155.5 515.5t-461.5 162.5q-142 0 -251.5 -38.5t-190.5 -118.5t-123.5 -212.5t-42.5 -312.5zM432 780q0 228 95 354t288 126q231 0 297 -183l2 -14 q0 -16 -24 -27l-31 -12q-15 -6 -25 -6q-12 0 -22 16q-33 67 -83 92t-122 25q-59 0 -104 -22t-72.5 -57.5t-45 -85.5t-24 -100.5t-6.5 -107.5q0 -71 12 -132t40.5 -118.5t84.5 -91t135 -33.5q107 0 220 46q8 4 18 4q13 0 18 -11l23 -59q2 -6 2 -10q0 -16 -23 -29 q-117 -53 -270 -53q-85 0 -151.5 27t-109.5 72t-71 108.5t-39.5 132.5t-11.5 149z" />
<glyph unicode="&#xaa;" horiz-adv-x="694" d="M51 1212q0 183 78 267t199 84q118 0 180 -80l8 45q5 22 27 22h53q7 0 11.5 -6.5t4.5 -13.5v-518q0 -31 10 -41t33 -10q19 0 19 -19v-27q0 -28 -53 -28q-48 0 -79 21.5t-34 62.5q-59 -90 -197 -90q-123 0 -191.5 85.5t-68.5 245.5zM162 1221q0 -50 8.5 -91.5t27 -77.5 t53 -56.5t81.5 -20.5q61 0 109 34t67 85v270q-7 15 -17.5 30t-30 33t-51.5 29.5t-71 11.5q-49 0 -84.5 -21t-54.5 -57t-28 -78t-9 -91z" />
<glyph unicode="&#xab;" horiz-adv-x="987" d="M123 508q0 9 2 16.5t4.5 11.5t6.5 9.5t5 7.5l209 289q3 4 9.5 12.5t9 11l7.5 7.5t9.5 6t11.5 2.5t17 1.5h43q24 -5 24 -23q0 -5 -1.5 -10t-3.5 -8l-1 -2l-196 -332l196 -332q6 -8 6 -20q0 -18 -24 -23h-43q-10 0 -17 1.5t-11.5 2.5t-9.5 6l-7.5 7.5t-9 11t-9.5 12.5 l-209 289q-18 24 -18 45zM506 508q0 9 2 16.5t4.5 11.5t6.5 9.5t5 7.5l209 289q3 4 9.5 12.5t9 11l7.5 7.5t9.5 6t11.5 2.5t17 1.5h43q24 -5 24 -23q0 -5 -1.5 -10t-2.5 -8l-2 -2l-196 -332l196 -332q6 -8 6 -20q0 -18 -24 -23h-43q-10 0 -17 1.5t-11.5 2.5t-9.5 6l-7.5 7.5 t-9 11t-9.5 12.5l-209 289q-18 24 -18 45z" />
<glyph unicode="&#xac;" horiz-adv-x="1134" d="M123 821v58q0 39 37 39h710q27 0 48.5 -5.5t44.5 -21.5t36 -51t13 -86v-267q0 -41 -35 -41h-62q-19 0 -26.5 9.5t-7.5 31.5v299h-719q-39 0 -39 35z" />
<glyph unicode="&#xad;" horiz-adv-x="860" d="M123 557v57q0 35 33 35h549q32 0 32 -35v-57q0 -35 -35 -35h-544q-35 0 -35 35z" />
<glyph unicode="&#xae;" horiz-adv-x="1634" d="M82 772q0 173 39 309t105 224t161 145.5t200 81.5t228 24q127 0 233 -23.5t201 -80.5t161 -145t104 -223.5t38 -309.5q0 -181 -38.5 -320.5t-103.5 -228.5t-160.5 -145.5t-201 -79.5t-233.5 -23q-126 0 -231 23.5t-200 80.5t-160 146t-103.5 227.5t-38.5 317.5zM205 770 q0 -186 43 -321t125 -214.5t190.5 -116t249.5 -36.5q112 0 202.5 20.5t169.5 70t132 127.5t83 198t30 276q0 353 -155.5 515.5t-461.5 162.5q-142 0 -251.5 -38.5t-190.5 -118.5t-123.5 -212.5t-42.5 -312.5zM526 324v893q0 27 21 30q43 8 198 8q62 0 111.5 -5.5t101 -23 t85.5 -46.5t55.5 -78.5t21.5 -116.5q0 -208 -192 -254l252 -399q6 -9 6 -19q0 -16 -19 -16h-75q-18 0 -26 4t-17 18l-238 390h-170v-385q0 -27 -23 -27h-71q-21 0 -21 27zM641 817q39 -4 119 -4q45 0 76.5 3t64 13.5t51.5 29t31 50.5t12 78q0 50 -18 83.5t-53.5 50 t-76.5 22.5t-99 6l-107 -4v-328z" />
<glyph unicode="&#xaf;" horiz-adv-x="854" d="M123 1286v49q0 26 10.5 35.5t46.5 9.5h488q39 0 51 -9t12 -36v-49q0 -28 -12 -37.5t-51 -9.5h-488q-35 0 -46 9.5t-11 37.5z" />
<glyph unicode="&#xb0;" horiz-adv-x="659" d="M123 1348q0 85 61 145.5t146 60.5t146 -60.5t61 -145.5q0 -86 -61 -146.5t-146 -60.5t-146 60.5t-61 146.5zM229 1348q0 -40 31.5 -70.5t69.5 -30.5q40 0 69 30t29 71q0 40 -29 68t-69 28q-38 0 -69.5 -28.5t-31.5 -67.5z" />
<glyph unicode="&#xb1;" horiz-adv-x="1114" d="M123 76v53q0 21 6.5 30t28.5 9h798q22 0 28.5 -9t6.5 -30v-53q0 -19 -7.5 -27t-29.5 -8h-794q-22 0 -29.5 8t-7.5 27zM123 737v54q0 21 6.5 29.5t28.5 8.5h338v340q0 22 7.5 31.5t26.5 9.5h58q35 0 35 -41v-340h333q22 0 28.5 -8.5t6.5 -29.5v-54q0 -19 -7.5 -27 t-29.5 -8h-331v-342q0 -41 -35 -41h-58q-19 0 -26.5 9.5t-7.5 31.5v342h-336q-22 0 -29.5 8t-7.5 27z" />
<glyph unicode="&#xb4;" horiz-adv-x="610" d="M123 1262q0 5 1.5 10t3.5 8l1 2l180 287q8 13 22 20t24 7l10 1h92q30 0 30 -24q0 -6 -2 -12.5t-4 -9.5l-2 -3l-215 -268q-19 -24 -33 -32.5t-41 -8.5h-43q-24 5 -24 23z" />
<glyph unicode="&#xb6;" horiz-adv-x="999" d="M-61 1167q0 145 101 247t247 102h356q30 0 48 -3t40 -14t32.5 -38.5t10.5 -71.5v-1620q0 -41 -35 -41h-80q-19 0 -26.5 9.5t-7.5 31.5v1609h-179v-1609q0 -22 -7.5 -31.5t-26.5 -9.5h-78q-35 0 -35 41v1052q-153 1 -256.5 101t-103.5 245z" />
<glyph unicode="&#xb7;" horiz-adv-x="514" d="M143 645q0 47 33 81t80 34t81 -34t34 -81t-34 -80t-81 -33t-80 33t-33 80z" />
<glyph unicode="&#xb8;" horiz-adv-x="641" d="M123 -420q0 8 2 12l12 37q9 19 21 19q1 0 44 -11.5t72 -11.5q110 0 115 72q0 42 -27.5 63t-107.5 25q-64 3 -64 59q0 20 15 156h114l-8 -106q207 -19 207 -187q0 -79 -60 -128.5t-171 -49.5q-65 0 -131 20q-33 11 -33 31z" />
<glyph unicode="&#xba;" horiz-adv-x="675" d="M51 1225q0 166 79 252t212 86q134 0 207.5 -90.5t75.5 -251.5q-1 -161 -78 -250.5t-207 -89.5q-133 0 -211 86t-78 258zM162 1225q0 -117 43.5 -187.5t136.5 -70.5q40 0 70.5 15.5t49.5 40.5t31 59.5t16.5 69t4.5 73.5q0 49 -8.5 91.5t-27.5 79.5t-53.5 58t-82.5 21 q-95 0 -137.5 -68t-42.5 -182z" />
<glyph unicode="&#xbb;" horiz-adv-x="987" d="M123 156q0 5 1.5 10t3.5 8l1 2l197 332l-197 332q-6 8 -6 20q0 18 24 23h43q10 0 17 -1.5t11.5 -2.5t9.5 -6l7.5 -7.5t9 -11t9.5 -12.5l209 -289q1 -2 5 -7.5t6.5 -9.5t4.5 -11.5t2 -16.5q0 -21 -18 -45l-209 -289q-3 -4 -9.5 -12.5t-9 -11l-7.5 -7.5t-9.5 -6t-11.5 -2.5 t-17 -1.5h-43q-24 5 -24 23zM506 156q0 5 1.5 10t2.5 8l2 2l197 332l-197 332q-6 8 -6 20q0 18 24 23h43q10 0 17 -1.5t11.5 -2.5t9.5 -6l7.5 -7.5t9 -11t9.5 -12.5l209 -289q1 -2 5 -7.5t6.5 -9.5t4.5 -11.5t2 -16.5q0 -21 -18 -45l-209 -289q-3 -4 -9.5 -12.5t-9 -11 l-7.5 -7.5t-9.5 -6t-11.5 -2.5t-17 -1.5h-43q-24 5 -24 23z" />
<glyph unicode="&#xbf;" horiz-adv-x="833" d="M41 -80q0 40 6.5 77t13.5 65t26 62.5t30.5 54t41 55.5t42.5 51t51 56t51 56q59 65 80 114.5t23 115.5q0 12 -1.5 35t-1.5 43t8.5 28t28.5 8h84q35 0 35 -36q2 -52 2 -91q0 -85 -27.5 -156t-109.5 -153q-61 -61 -92.5 -96t-66 -84t-48.5 -97.5t-14 -105.5 q0 -102 59.5 -161.5t171.5 -59.5q96 0 157.5 42.5t100.5 131.5q10 25 37 25q14 0 29 -6l41 -17q24 -15 24 -33q0 -16 -4 -24q-93 -262 -383 -262q-185 0 -290 95.5t-105 266.5zM360 983q0 49 34 84t81 35q49 0 84 -35t35 -84q0 -47 -35 -81t-84 -34q-47 0 -81 34t-34 81z " />
<glyph unicode="&#xc0;" horiz-adv-x="1263" d="M20 29q0 7 5 22l462 1321q41 111 140 111h10q102 0 139 -105l463 -1327q4 -12 4 -22q0 -12 -9.5 -20.5t-23.5 -8.5h-73q-30 0 -44.5 9.5t-23.5 35.5l-123 361h-631l-120 -361q-9 -26 -23 -35.5t-43 -9.5h-76q-14 0 -23.5 8.5t-9.5 20.5zM303 1972q0 25 31 25h92 q37 0 55 -29l181 -287q6 -8 6 -20q0 -18 -25 -23h-43q-27 0 -41 8.5t-33 32.5l-215 269q-8 10 -8 24zM365 549h534l-209 627l-57 180l-58 -182z" />
<glyph unicode="&#xc1;" horiz-adv-x="1263" d="M20 29q0 7 5 22l462 1321q41 111 140 111h10q102 0 139 -105l463 -1327q4 -12 4 -22q0 -12 -9.5 -20.5t-23.5 -8.5h-73q-30 0 -44.5 9.5t-23.5 35.5l-123 361h-631l-120 -361q-9 -26 -23 -35.5t-43 -9.5h-76q-14 0 -23.5 8.5t-9.5 20.5zM365 549h534l-209 627l-57 180 l-58 -182zM580 1661q0 5 1.5 10t2.5 7l2 3l180 287q8 13 22 20t24 8l9 1h92q31 0 31 -25q0 -6 -2 -12t-4 -9l-2 -3l-215 -269q-19 -24 -33 -32.5t-41 -8.5h-43q-24 5 -24 23z" />
<glyph unicode="&#xc2;" horiz-adv-x="1263" d="M20 29q0 7 5 22l462 1321q41 111 140 111h10q102 0 139 -105l463 -1327q4 -12 4 -22q0 -12 -9.5 -20.5t-23.5 -8.5h-73q-30 0 -44.5 9.5t-23.5 35.5l-123 361h-631l-120 -361q-9 -26 -23 -35.5t-43 -9.5h-76q-14 0 -23.5 8.5t-9.5 20.5zM303 1661q0 5 1.5 10t3.5 7l1 3 l242 289q23 27 57 27h51q29 0 52 -27l241 -289q6 -8 6 -20q0 -18 -24 -23h-39q-27 0 -42.5 8.5t-39.5 32.5l-184 179l-183 -179q-24 -24 -39 -32.5t-42 -8.5h-37q-25 5 -25 23zM365 549h534l-209 627l-57 180l-58 -182z" />
<glyph unicode="&#xc3;" horiz-adv-x="1263" d="M20 29q0 7 5 22l462 1321q41 111 140 111h10q102 0 139 -105l463 -1327q4 -12 4 -22q0 -12 -9.5 -20.5t-23.5 -8.5h-73q-30 0 -44.5 9.5t-23.5 35.5l-123 361h-631l-120 -361q-9 -26 -23 -35.5t-43 -9.5h-76q-14 0 -23.5 8.5t-9.5 20.5zM289 1669q4 97 60 152t136 55 q51 0 106 -23t103 -46t82 -23q61 0 76 71q6 31 31 31h65q12 0 18.5 -10t6.5 -21q-1 -93 -57 -149.5t-140 -56.5q-51 0 -104.5 23t-100 46t-79.5 23t-53.5 -16t-28.5 -58q-2 -10 -10 -19.5t-19 -9.5h-68q-12 0 -18 10t-6 21zM365 549h534l-209 627l-57 180l-58 -182z" />
<glyph unicode="&#xc4;" horiz-adv-x="1263" d="M20 29q0 7 5 22l462 1321q41 111 140 111h10q102 0 139 -105l463 -1327q4 -12 4 -22q0 -12 -9.5 -20.5t-23.5 -8.5h-73q-30 0 -44.5 9.5t-23.5 35.5l-123 361h-631l-120 -361q-9 -26 -23 -35.5t-43 -9.5h-76q-14 0 -23.5 8.5t-9.5 20.5zM365 549h534l-209 627l-57 180 l-58 -182zM367 1731q0 39 28.5 64.5t67.5 25.5q47 0 74.5 -25t27.5 -65q0 -41 -28 -67t-74 -26q-39 0 -67.5 27t-28.5 66zM696 1731q0 39 29 64.5t70 25.5q45 0 72.5 -25t27.5 -65t-27.5 -66.5t-72.5 -26.5q-40 0 -69.5 27t-29.5 66z" />
<glyph unicode="&#xc5;" horiz-adv-x="1263" d="M20 29q0 7 5 22l462 1321q41 111 140 111h10q102 0 139 -105l463 -1327q4 -12 4 -22q0 -12 -9.5 -20.5t-23.5 -8.5h-73q-30 0 -44.5 9.5t-23.5 35.5l-123 361h-631l-120 -361q-9 -26 -23 -35.5t-43 -9.5h-76q-14 0 -23.5 8.5t-9.5 20.5zM365 549h534l-209 627l-57 180 l-58 -182zM440 1827q0 76 58 133t135 57q79 0 135.5 -56.5t56.5 -133.5q0 -76 -56.5 -132.5t-135.5 -56.5q-77 0 -135 57t-58 132zM539 1823q0 -39 27.5 -65.5t66.5 -26.5q40 0 67 26t27 66t-27 67t-67 27q-39 0 -66.5 -27.5t-27.5 -66.5z" />
<glyph unicode="&#xc6;" horiz-adv-x="1787" d="M20 29q0 7 5 22l780 1303q35 60 71.5 90.5t90.5 30.5h710q37 0 37 -39v-78q0 -35 -39 -35h-596v-459h512q23 0 31 -10t8 -29v-71q0 -39 -41 -39h-510v-563h629q39 0 39 -35v-78q0 -39 -37 -39h-647q-27 0 -48.5 5.5t-44 21.5t-35.5 50.5t-13 86.5v242h-504l-209 -361 q-13 -25 -31 -35t-47 -10h-78q-14 0 -23.5 8.5t-9.5 20.5zM498 549h428v528l2 232l-101 -189z" />
<glyph unicode="&#xc7;" horiz-adv-x="1226" d="M102 741q0 175 34.5 312t105 237.5t185 153.5t267.5 53q354 0 467 -272q4 -12 4 -21q0 -22 -37 -37l-36 -16q-20 -8 -37 -8q-20 0 -35 24q-62 98 -141 139.5t-195 41.5q-115 0 -198 -48t-129.5 -134t-67.5 -190t-21 -231q0 -85 10.5 -164.5t40.5 -164t76.5 -146 t125 -101.5t179.5 -40q197 0 369 76q19 8 31 8q18 0 26 -18l23 -60q8 -21 8 -33q0 -25 -37 -43q-158 -70 -379 -79l-6 -86q207 -19 207 -187q0 -79 -60 -128.5t-171 -49.5q-65 0 -131 20q-33 11 -33 31q0 8 2 12l12 37q9 19 21 19q1 0 44 -11.5t72 -11.5q110 0 115 72 q0 42 -27.5 63t-107.5 25q-64 3 -64 59q0 20 13 138q-118 10 -210 57.5t-150.5 119t-96.5 169t-53 198.5t-15 215z" />
<glyph unicode="&#xc8;" horiz-adv-x="1050" d="M184 164v1147q0 51 13 86t36 51t44.5 21.5t48.5 5.5h614q37 0 37 -39v-78q0 -35 -39 -35h-596v-459h512q23 0 31 -10t8 -29v-71q0 -39 -41 -39h-510v-563h629q39 0 39 -35v-78q0 -39 -37 -39h-647q-27 0 -48.5 5.5t-44.5 21.5t-36 51t-13 86zM299 1972q0 25 31 25h92 q37 0 55 -29l180 -287q7 -8 7 -20q0 -18 -25 -23h-43q-27 0 -41 8.5t-33 32.5l-215 269q-8 10 -8 24z" />
<glyph unicode="&#xc9;" horiz-adv-x="1050" d="M184 164v1147q0 51 13 86t36 51t44.5 21.5t48.5 5.5h614q37 0 37 -39v-78q0 -35 -39 -35h-596v-459h512q23 0 31 -10t8 -29v-71q0 -39 -41 -39h-510v-563h629q39 0 39 -35v-78q0 -39 -37 -39h-647q-27 0 -48.5 5.5t-44.5 21.5t-36 51t-13 86zM524 1661q0 5 1.5 10t2.5 7 l2 3l181 287q8 13 21.5 20t23.5 8l10 1h92q31 0 31 -25q0 -6 -2 -12t-4 -9l-2 -3l-215 -269q-19 -24 -33 -32.5t-41 -8.5h-43q-25 5 -25 23z" />
<glyph unicode="&#xca;" horiz-adv-x="1050" d="M184 164v1147q0 51 13 86t36 51t44.5 21.5t48.5 5.5h614q37 0 37 -39v-78q0 -35 -39 -35h-596v-459h512q23 0 31 -10t8 -29v-71q0 -39 -41 -39h-510v-563h629q39 0 39 -35v-78q0 -39 -37 -39h-647q-27 0 -48.5 5.5t-44.5 21.5t-36 51t-13 86zM270 1661q0 5 1.5 10t2.5 7 l2 3l242 289q23 27 57 27h52q28 0 51 -27l242 -289q6 -8 6 -20q0 -18 -25 -23h-39q-27 0 -42.5 8.5t-39.5 32.5l-184 179l-182 -179q-24 -24 -39.5 -32.5t-42.5 -8.5h-37q-25 5 -25 23z" />
<glyph unicode="&#xcb;" horiz-adv-x="1050" d="M184 164v1147q0 51 13 86t36 51t44.5 21.5t48.5 5.5h614q37 0 37 -39v-78q0 -35 -39 -35h-596v-459h512q23 0 31 -10t8 -29v-71q0 -39 -41 -39h-510v-563h629q39 0 39 -35v-78q0 -39 -37 -39h-647q-27 0 -48.5 5.5t-44.5 21.5t-36 51t-13 86zM326 1731q0 39 28.5 64.5 t67.5 25.5q47 0 74.5 -25t27.5 -65q0 -41 -28 -67t-74 -26q-39 0 -67.5 27t-28.5 66zM655 1731q0 39 29 64.5t70 25.5q45 0 72.5 -25t27.5 -65t-27.5 -66.5t-72.5 -26.5q-40 0 -69.5 27t-29.5 66z" />
<glyph unicode="&#xcc;" horiz-adv-x="526" d="M-49 1972q0 25 31 25h92q37 0 55 -29l180 -287q6 -8 6 -20q0 -18 -24 -23h-43q-27 0 -41 8.5t-33 32.5l-215 269q-8 10 -8 24zM184 41v1393q0 41 35 41h88q35 0 35 -41v-1393q0 -41 -35 -41h-88q-35 0 -35 41z" />
<glyph unicode="&#xcd;" horiz-adv-x="526" d="M184 41v1393q0 41 35 41h88q35 0 35 -41v-1393q0 -41 -35 -41h-88q-35 0 -35 41zM213 1661q0 5 1.5 10t3.5 7l1 3l180 287q8 13 22 20t24 8l10 1h92q31 0 31 -25q0 -6 -2 -12t-4 -9l-3 -3l-215 -269q-19 -24 -32.5 -32.5t-40.5 -8.5h-43q-25 5 -25 23z" />
<glyph unicode="&#xce;" horiz-adv-x="526" d="M-66 1661q0 5 1.5 10t3.5 7l2 3l241 289q23 27 58 27h51q28 0 51 -27l242 -289q6 -8 6 -20q0 -18 -25 -23h-39q-27 0 -42.5 8.5t-39.5 32.5l-184 179l-182 -179q-24 -24 -39.5 -32.5t-42.5 -8.5h-37q-25 5 -25 23zM184 41v1393q0 41 35 41h88q35 0 35 -41v-1393 q0 -41 -35 -41h-88q-35 0 -35 41z" />
<glyph unicode="&#xcf;" horiz-adv-x="526" d="M-2 1731q0 39 28.5 64.5t67.5 25.5q47 0 75 -25t28 -65t-28.5 -66.5t-74.5 -26.5q-39 0 -67.5 27t-28.5 66zM184 41v1393q0 41 35 41h88q35 0 35 -41v-1393q0 -41 -35 -41h-88q-35 0 -35 41zM328 1731q0 39 28.5 64.5t69.5 25.5q45 0 72.5 -25t27.5 -65t-27.5 -66.5 t-72.5 -26.5q-40 0 -69 27t-29 66z" />
<glyph unicode="&#xd0;" horiz-adv-x="1402" d="M18 729v57q0 35 33 35h133v604q0 27 10.5 37.5t30.5 12.5q72 8 310 8q50 0 74 -0.5t76.5 -3.5t83.5 -7.5t81 -14t83.5 -22.5t76.5 -34t75 -47t64 -62t57 -80q94 -168 94 -473q0 -277 -79.5 -445.5t-221.5 -236.5q-141 -67 -483 -67q-232 0 -291 8q-14 2 -21.5 5.5 t-13.5 14.5t-6 29v647h-131q-35 0 -35 35zM342 141q83 -6 188 -6q271 0 381 53q105 51 163.5 188t58.5 353q0 281 -74 412q-22 39 -53 70.5t-62 51.5t-74 34.5t-75.5 21.5t-81.5 11.5t-76.5 5t-75.5 1.5q-117 0 -219 -6v-510h233q33 0 33 -35v-57q0 -35 -35 -35h-231v-553z " />
<glyph unicode="&#xd1;" horiz-adv-x="1439" d="M184 41v1255q0 187 140 187q62 0 96.5 -27t75.5 -108l471 -934l137 -295l-4 364v951q0 41 35 41h86q19 0 26.5 -9.5t7.5 -31.5v-1266q0 -176 -141 -176q-60 0 -95.5 29.5t-66.5 91.5l-495 979l-125 274l8 -356v-969q0 -41 -35 -41h-86q-35 0 -35 41zM381 1669 q4 97 60.5 152t136.5 55q51 0 106 -23t102.5 -46t81.5 -23q61 0 76 71q6 31 31 31h65q12 0 18.5 -10t6.5 -21q-1 -93 -57 -149.5t-140 -56.5q-51 0 -104.5 23t-100 46t-79.5 23t-53.5 -16t-28.5 -58q-2 -10 -10 -19.5t-19 -9.5h-67q-12 0 -18.5 10t-6.5 21z" />
<glyph unicode="&#xd2;" horiz-adv-x="1398" d="M102 743q0 167 31 297.5t84.5 215t130 140t162 78.5t186.5 23q102 0 188.5 -23t164 -78t131 -139.5t85 -214.5t31.5 -297q0 -768 -600 -768q-102 0 -187 22.5t-162 77.5t-130 141t-84 219.5t-31 305.5zM268 741q0 -614 428 -614q100 0 176 30.5t135.5 99.5t91 192 t31.5 296q0 603 -434 603q-205 0 -316.5 -148t-111.5 -459zM362 1972q0 25 31 25h92q38 0 56 -29l180 -287q6 -8 6 -20q0 -18 -25 -23h-43q-27 0 -40.5 8.5t-32.5 32.5l-215 269q-9 10 -9 24z" />
<glyph unicode="&#xd3;" horiz-adv-x="1398" d="M102 743q0 167 31 297.5t84.5 215t130 140t162 78.5t186.5 23q102 0 188.5 -23t164 -78t131 -139.5t85 -214.5t31.5 -297q0 -768 -600 -768q-102 0 -187 22.5t-162 77.5t-130 141t-84 219.5t-31 305.5zM268 741q0 -614 428 -614q100 0 176 30.5t135.5 99.5t91 192 t31.5 296q0 603 -434 603q-205 0 -316.5 -148t-111.5 -459zM637 1661q0 5 1.5 10t3.5 7l1 3l180 287q8 13 22 20t24 8l10 1h92q30 0 30 -25q0 -6 -2 -12t-4 -9l-2 -3l-215 -269q-19 -24 -32.5 -32.5t-40.5 -8.5h-43q-25 5 -25 23z" />
<glyph unicode="&#xd4;" horiz-adv-x="1398" d="M102 743q0 167 31 297.5t84.5 215t130 140t162 78.5t186.5 23q102 0 188.5 -23t164 -78t131 -139.5t85 -214.5t31.5 -297q0 -768 -600 -768q-102 0 -187 22.5t-162 77.5t-130 141t-84 219.5t-31 305.5zM268 741q0 -614 428 -614q100 0 176 30.5t135.5 99.5t91 192 t31.5 296q0 603 -434 603q-205 0 -316.5 -148t-111.5 -459zM367 1661q0 5 1.5 10t3.5 7l1 3l241 289q23 27 58 27h51q28 0 51 -27l242 -289q6 -8 6 -20q0 -18 -25 -23h-39q-27 0 -42 8.5t-39 32.5l-185 179l-182 -179q-24 -24 -39.5 -32.5t-42.5 -8.5h-37q-24 5 -24 23z" />
<glyph unicode="&#xd5;" horiz-adv-x="1398" d="M102 743q0 167 31 297.5t84.5 215t130 140t162 78.5t186.5 23q102 0 188.5 -23t164 -78t131 -139.5t85 -214.5t31.5 -297q0 -768 -600 -768q-102 0 -187 22.5t-162 77.5t-130 141t-84 219.5t-31 305.5zM268 741q0 -614 428 -614q100 0 176 30.5t135.5 99.5t91 192 t31.5 296q0 603 -434 603q-205 0 -316.5 -148t-111.5 -459zM358 1669q4 97 60.5 152t136.5 55q51 0 106 -23t103 -46t82 -23q61 0 76 71q6 31 30 31h66q12 0 18 -10t6 -21q-1 -93 -56.5 -149.5t-139.5 -56.5q-51 0 -104.5 23t-100.5 46t-80 23t-53.5 -16t-28.5 -58 q-2 -11 -9.5 -20t-18.5 -9h-68q-12 0 -18.5 10t-6.5 21z" />
<glyph unicode="&#xd6;" horiz-adv-x="1398" d="M102 743q0 167 31 297.5t84.5 215t130 140t162 78.5t186.5 23q102 0 188.5 -23t164 -78t131 -139.5t85 -214.5t31.5 -297q0 -768 -600 -768q-102 0 -187 22.5t-162 77.5t-130 141t-84 219.5t-31 305.5zM268 741q0 -614 428 -614q100 0 176 30.5t135.5 99.5t91 192 t31.5 296q0 603 -434 603q-205 0 -316.5 -148t-111.5 -459zM436 1731q0 39 28.5 64.5t67.5 25.5q47 0 75 -25t28 -65t-28.5 -66.5t-74.5 -26.5q-39 0 -67.5 27t-28.5 66zM766 1731q0 39 28.5 64.5t69.5 25.5q45 0 73 -25t28 -65t-28 -66.5t-73 -26.5q-40 0 -69 27t-29 66z " />
<glyph unicode="&#xd7;" horiz-adv-x="962" d="M123 860q0 11 14 25l39 39q16 16 27 16q12 0 24 -12l254 -258l252 252q16 16 29 16q12 0 24 -12l41 -41q13 -13 13 -25t-17 -29l-252 -251l254 -254q15 -12 15 -25q0 -10 -17 -27l-39 -36q-15 -15 -24 -15q-10 0 -25 15l-252 258l-250 -256q-17 -17 -30 -17q-12 0 -25 13 l-39 40q-12 12 -12 23q0 15 16 31l248 252l-252 252q-16 16 -16 26z" />
<glyph unicode="&#xd8;" horiz-adv-x="1398" d="M102 743q0 167 31 297.5t84.5 215t130 140t162 78.5t186.5 23q211 0 351 -98l65 106q15 26 28.5 34.5t39.5 8.5h47q26 0 26 -22q0 -9 -6 -21l-114 -184q163 -194 163 -576q0 -768 -600 -768q-203 0 -338 93l-61 -99q-15 -26 -28.5 -34.5t-39.5 -8.5h-43q-11 0 -18.5 6.5 t-7.5 16.5q0 8 6 20l106 174q-170 191 -170 598zM268 741q0 -290 97 -446l596 967q-106 86 -265 86q-205 0 -316.5 -148t-111.5 -459zM442 207q99 -80 254 -80q100 0 176 30.5t135.5 99.5t91 192t31.5 296q0 274 -92 424z" />
<glyph unicode="&#xd9;" horiz-adv-x="1376" d="M164 545v889q0 22 7.5 31.5t25.5 9.5h92q35 0 35 -41v-875q0 -90 22 -167t65 -136.5t114 -93t163 -33.5q178 0 271.5 118.5t93.5 311.5v875q0 22 7.5 31.5t26.5 9.5h91q19 0 26.5 -9.5t7.5 -31.5v-893q0 -88 -17.5 -168t-58 -153t-100 -126.5t-149 -85t-199.5 -31.5 q-134 0 -237 45.5t-164.5 125t-92 179.5t-30.5 218zM389 1972q0 25 31 25h92q37 0 55 -29l181 -287q6 -8 6 -20q0 -18 -25 -23h-43q-27 0 -41 8.5t-33 32.5l-215 269q-8 10 -8 24z" />
<glyph unicode="&#xda;" horiz-adv-x="1376" d="M164 545v889q0 22 7.5 31.5t25.5 9.5h92q35 0 35 -41v-875q0 -90 22 -167t65 -136.5t114 -93t163 -33.5q178 0 271.5 118.5t93.5 311.5v875q0 22 7.5 31.5t26.5 9.5h91q19 0 26.5 -9.5t7.5 -31.5v-893q0 -88 -17.5 -168t-58 -153t-100 -126.5t-149 -85t-199.5 -31.5 q-134 0 -237 45.5t-164.5 125t-92 179.5t-30.5 218zM623 1661q0 5 1.5 10t3.5 7l1 3l180 287q8 13 21.5 20t23.5 8l10 1h92q31 0 31 -25q0 -6 -2 -12t-4 -9l-2 -3l-215 -269q-19 -24 -33 -32.5t-41 -8.5h-43q-24 5 -24 23z" />
<glyph unicode="&#xdb;" horiz-adv-x="1376" d="M164 545v889q0 22 7.5 31.5t25.5 9.5h92q35 0 35 -41v-875q0 -90 22 -167t65 -136.5t114 -93t163 -33.5q178 0 271.5 118.5t93.5 311.5v875q0 22 7.5 31.5t26.5 9.5h91q19 0 26.5 -9.5t7.5 -31.5v-893q0 -88 -17.5 -168t-58 -153t-100 -126.5t-149 -85t-199.5 -31.5 q-134 0 -237 45.5t-164.5 125t-92 179.5t-30.5 218zM367 1661q0 5 1.5 10t3.5 7l1 3l241 289q23 27 58 27h51q28 0 51 -27l242 -289q6 -8 6 -20q0 -18 -25 -23h-39q-27 0 -42 8.5t-39 32.5l-185 179l-182 -179q-24 -24 -39.5 -32.5t-42.5 -8.5h-37q-24 5 -24 23z" />
<glyph unicode="&#xdc;" horiz-adv-x="1376" d="M164 545v889q0 22 7.5 31.5t25.5 9.5h92q35 0 35 -41v-875q0 -90 22 -167t65 -136.5t114 -93t163 -33.5q178 0 271.5 118.5t93.5 311.5v875q0 22 7.5 31.5t26.5 9.5h91q19 0 26.5 -9.5t7.5 -31.5v-893q0 -88 -17.5 -168t-58 -153t-100 -126.5t-149 -85t-199.5 -31.5 q-134 0 -237 45.5t-164.5 125t-92 179.5t-30.5 218zM416 1731q0 39 28.5 64.5t67.5 25.5q47 0 74.5 -25t27.5 -65q0 -41 -28 -67t-74 -26q-39 0 -67.5 27t-28.5 66zM745 1731q0 39 29 64.5t70 25.5q45 0 72.5 -25t27.5 -65t-27.5 -66.5t-72.5 -26.5q-40 0 -69.5 27t-29.5 66 z" />
<glyph unicode="&#xdd;" horiz-adv-x="1062" d="M20 1448q0 12 8.5 19.5t20.5 7.5h88q14 0 21.5 -1t19.5 -9.5t21 -24.5l276 -488l57 -106l58 106l274 488q9 16 21 24.5t19.5 9.5t21.5 1h88q12 0 20 -7.5t8 -19.5q0 -11 -6 -23l-426 -720v-664q0 -41 -35 -41h-88q-34 0 -34 41v666l-426 718q-7 14 -7 23zM494 1661 q0 5 1.5 10t2.5 7l2 3l180 287q8 13 22 20t24 8l9 1h92q31 0 31 -25q0 -6 -2 -12t-4 -9l-2 -3l-215 -269q-19 -24 -33 -32.5t-41 -8.5h-43q-24 5 -24 23z" />
<glyph unicode="&#xde;" horiz-adv-x="1099" d="M184 41v1393q0 41 35 41h88q35 0 35 -41v-246q43 2 137 2q339 0 463 -94q137 -107 137 -355q0 -95 -22.5 -170.5t-56 -124.5t-87 -85t-102.5 -54.5t-116 -29t-114 -13t-110 -2.5l-129 2v-223q0 -41 -35 -41h-90q-33 0 -33 41zM342 410q57 -2 154 -2q102 0 175 15.5 t129.5 52.5t84.5 103.5t28 163.5q0 65 -10 112.5t-34 81t-55.5 54.5t-82.5 33t-107 16t-137 4l-145 -6v-628z" />
<glyph unicode="&#xdf;" horiz-adv-x="1175" d="M20 969v69q0 37 37 37h129v53q0 125 32 217.5t90.5 146.5t133.5 79.5t168 25.5q184 0 293 -71.5t109 -225.5q0 -67 -31 -128.5t-75 -107.5t-87.5 -89.5t-74.5 -94.5t-31 -104q0 -18 5 -33.5t10.5 -27t20.5 -24t23.5 -20t31.5 -19t33.5 -16.5t40 -18t40.5 -18 q85 -39 135.5 -76t81 -93t30.5 -132q0 -145 -99 -233.5t-278 -88.5q-70 0 -161 16t-148 42q-20 9 -20 26q0 9 4 29l12 57q5 25 27 25q6 0 30 -8q136 -47 252 -47q110 0 168 45t58 131q0 36 -12 63t-40.5 48.5t-57.5 35.5t-81 35q-51 20 -83.5 35.5t-70 41t-58.5 54.5 t-35.5 71.5t-14.5 96.5q0 65 30 127t72.5 110.5t85.5 94t73 96t30 98.5q0 68 -61.5 114t-176.5 46q-137 0 -202.5 -80t-65.5 -266v-1073q0 -23 -9 -32t-28 -9h-82q-20 0 -28.5 9t-8.5 32v893h-129q-37 0 -37 35z" />
<glyph unicode="&#xe0;" d="M82 539q0 145 37 255t101 175t143.5 97t171.5 32q86 0 164 -34t130 -106l15 82q5 35 43 35h65q14 0 21.5 -10t7.5 -21v-849q0 -51 16.5 -67.5t53.5 -16.5q10 0 16 -1.5t11 -9t5 -22.5v-41q0 -10 -2.5 -17t-10.5 -15.5t-27 -13.5t-48 -5q-153 0 -168 143 q-89 -152 -307 -152q-210 0 -324 147t-114 415zM221 1573q0 24 31 24h92q37 1 55 -28l181 -287q6 -8 6 -20q0 -18 -25 -23h-43q-27 0 -41 8.5t-33 32.5l-215 268q-8 11 -8 25zM242 537q0 -92 13.5 -164t45.5 -133t92 -94t146 -33q110 0 182.5 53t103.5 145v473q-7 18 -17 36 t-33 45.5t-51.5 47.5t-75 35t-101.5 15q-305 0 -305 -426z" />
<glyph unicode="&#xe1;" d="M82 539q0 145 37 255t101 175t143.5 97t171.5 32q86 0 164 -34t130 -106l15 82q5 35 43 35h65q14 0 21.5 -10t7.5 -21v-849q0 -51 16.5 -67.5t53.5 -16.5q10 0 16 -1.5t11 -9t5 -22.5v-41q0 -10 -2.5 -17t-10.5 -15.5t-27 -13.5t-48 -5q-153 0 -168 143 q-89 -152 -307 -152q-210 0 -324 147t-114 415zM242 537q0 -92 13.5 -164t45.5 -133t92 -94t146 -33q110 0 182.5 53t103.5 145v473q-7 18 -17 36t-33 45.5t-51.5 47.5t-75 35t-101.5 15q-305 0 -305 -426zM506 1262q0 5 1.5 10t2.5 8l2 2l180 287q8 13 22 20t24 7l10 1h92 q30 0 30 -24q0 -6 -2 -12.5t-4 -9.5l-2 -3l-215 -268q-19 -24 -33 -32.5t-41 -8.5h-43q-24 5 -24 23z" />
<glyph unicode="&#xe2;" d="M82 539q0 145 37 255t101 175t143.5 97t171.5 32q86 0 164 -34t130 -106l15 82q5 35 43 35h65q14 0 21.5 -10t7.5 -21v-849q0 -51 16.5 -67.5t53.5 -16.5q10 0 16 -1.5t11 -9t5 -22.5v-41q0 -10 -2.5 -17t-10.5 -15.5t-27 -13.5t-48 -5q-153 0 -168 143 q-89 -152 -307 -152q-210 0 -324 147t-114 415zM229 1262q0 5 1.5 10t3.5 8l2 2l241 289q22 26 58 26h51q28 1 51 -26l242 -289q6 -8 6 -20q0 -18 -25 -23h-39q-27 0 -42.5 8.5t-39.5 32.5l-184 178l-182 -178q-24 -24 -39.5 -32.5t-42.5 -8.5h-37q-25 5 -25 23zM242 537 q0 -92 13.5 -164t45.5 -133t92 -94t146 -33q110 0 182.5 53t103.5 145v473q-7 18 -17 36t-33 45.5t-51.5 47.5t-75 35t-101.5 15q-305 0 -305 -426z" />
<glyph unicode="&#xe3;" d="M82 539q0 145 37 255t101 175t143.5 97t171.5 32q86 0 164 -34t130 -106l15 82q5 35 43 35h65q14 0 21.5 -10t7.5 -21v-849q0 -51 16.5 -67.5t53.5 -16.5q10 0 16 -1.5t11 -9t5 -22.5v-41q0 -10 -2.5 -17t-10.5 -15.5t-27 -13.5t-48 -5q-153 0 -168 143 q-89 -152 -307 -152q-210 0 -324 147t-114 415zM213 1270q4 97 60.5 152t136.5 55q51 0 106 -23.5t102.5 -46.5t81.5 -23q60 0 76 72q6 31 31 31h65q12 0 18.5 -10t6.5 -21q-1 -93 -57 -150t-140 -57q-51 0 -104.5 23t-100 46t-79.5 23q-34 0 -54 -15.5t-28 -57.5 q-2 -10 -10 -19.5t-19 -9.5h-67q-12 0 -18.5 10t-6.5 21zM242 537q0 -92 13.5 -164t45.5 -133t92 -94t146 -33q110 0 182.5 53t103.5 145v473q-7 18 -17 36t-33 45.5t-51.5 47.5t-75 35t-101.5 15q-305 0 -305 -426z" />
<glyph unicode="&#xe4;" d="M82 539q0 145 37 255t101 175t143.5 97t171.5 32q86 0 164 -34t130 -106l15 82q5 35 43 35h65q14 0 21.5 -10t7.5 -21v-849q0 -51 16.5 -67.5t53.5 -16.5q10 0 16 -1.5t11 -9t5 -22.5v-41q0 -10 -2.5 -17t-10.5 -15.5t-27 -13.5t-48 -5q-153 0 -168 143 q-89 -152 -307 -152q-210 0 -324 147t-114 415zM242 537q0 -92 13.5 -164t45.5 -133t92 -94t146 -33q110 0 182.5 53t103.5 145v473q-7 18 -17 36t-33 45.5t-51.5 47.5t-75 35t-101.5 15q-305 0 -305 -426zM289 1331q0 39 28.5 64.5t67.5 25.5q47 0 74.5 -25t27.5 -65 t-27.5 -66t-74.5 -26q-39 0 -67.5 26.5t-28.5 65.5zM618 1331q0 39 29 64.5t70 25.5q45 0 72.5 -25t27.5 -65t-27.5 -66t-72.5 -26q-40 0 -69.5 26.5t-29.5 65.5z" />
<glyph unicode="&#xe5;" d="M82 539q0 145 37 255t101 175t143.5 97t171.5 32q86 0 164 -34t130 -106l15 82q5 35 43 35h65q14 0 21.5 -10t7.5 -21v-849q0 -51 16.5 -67.5t53.5 -16.5q10 0 16 -1.5t11 -9t5 -22.5v-41q0 -10 -2.5 -17t-10.5 -15.5t-27 -13.5t-48 -5q-153 0 -168 143 q-89 -152 -307 -152q-210 0 -324 147t-114 415zM242 537q0 -92 13.5 -164t45.5 -133t92 -94t146 -33q110 0 182.5 53t103.5 145v473q-7 18 -17 36t-33 45.5t-51.5 47.5t-75 35t-101.5 15q-305 0 -305 -426zM334 1427q0 76 57.5 133.5t134.5 57.5q79 0 136 -57t57 -134 q0 -76 -57 -132t-136 -56q-77 0 -134.5 56.5t-57.5 131.5zM432 1423q0 -39 27.5 -65.5t66.5 -26.5q40 0 67.5 26.5t27.5 65.5q0 40 -27.5 67.5t-67.5 27.5q-38 0 -66 -28t-28 -67z" />
<glyph unicode="&#xe6;" horiz-adv-x="1693" d="M61 291q0 139 93 229q68 63 161 83t222 20h192v82q0 131 -55 190t-182 59q-150 0 -289 -53q-20 -8 -29 -8q-23 0 -29 29l-12 49q-6 12 -6 30q0 17 20 27q76 34 174.5 52t178.5 18q259 0 336 -164q117 164 356 164q100 0 175.5 -31t121.5 -81.5t74 -124.5t38.5 -150 t10.5 -168q0 -18 -3 -28.5t-10 -14.5t-13 -5t-19 -1h-695q2 -173 84.5 -275t245.5 -102q143 0 289 51q15 6 27 6q21 0 26 -24l12 -58q5 -25 5 -26q0 -23 -21 -31q-150 -58 -348 -58q-259 0 -371 179q-66 -74 -171.5 -126.5t-233.5 -52.5q-68 0 -128 16t-112.5 50.5t-83.5 98 t-31 149.5zM217 287q0 -91 58 -133.5t145 -42.5q178 0 303 133v250h-113q-48 0 -77.5 -0.5t-75.5 -5t-75.5 -12t-64 -23t-54 -37t-33 -54.5t-13.5 -75zM874 627h578q-3 52 -9.5 94t-24.5 90t-45.5 79.5t-76 53t-112.5 21.5q-138 0 -218.5 -91.5t-91.5 -246.5z" />
<glyph unicode="&#xe7;" horiz-adv-x="962" d="M82 530q0 269 119.5 418.5t351.5 149.5q72 0 132 -16t96.5 -38t65.5 -53.5t41.5 -53.5t22.5 -46q11 -29 11 -41q0 -26 -33 -37l-39 -14q-18 -6 -31 -6q-24 0 -35 24q-65 146 -239 146q-153 0 -228 -112t-75 -316q0 -418 329 -418q147 0 285 53q10 4 21 4q21 0 26 -24 l15 -70q2 -10 2 -14q0 -22 -25 -33q-111 -45 -289 -53l-6 -86q207 -19 207 -187q0 -78 -60.5 -128t-171.5 -50q-65 0 -131 20q-32 10 -32 31q0 8 2 12l12 37q10 19 20 19q1 0 44.5 -11.5t72.5 -11.5q110 0 115 72q0 42 -27.5 63t-107.5 25q-64 3 -64 59q0 20 13 138 q-205 19 -307.5 159t-102.5 389z" />
<glyph unicode="&#xe8;" horiz-adv-x="1064" d="M82 530q0 268 123.5 418t357.5 150q100 0 175.5 -31t121.5 -81.5t74 -124.5t38.5 -150t10.5 -168q0 -18 -3 -28.5t-10 -14.5t-13 -5t-19 -1h-694q2 -173 84 -275t245 -102q143 0 289 51q15 6 27 6q21 0 26 -24l13 -58q4 -20 4 -26q0 -23 -21 -31q-150 -58 -348 -58 q-240 0 -360.5 146.5t-120.5 406.5zM227 1573q0 24 31 24h92q38 1 56 -28l180 -287q6 -8 6 -20q0 -18 -25 -23h-43q-27 0 -40.5 8.5t-32.5 32.5l-215 268q-9 11 -9 25zM246 627h577q-3 52 -9.5 94t-24.5 90t-45.5 79.5t-76 53t-112.5 21.5q-138 0 -218 -91.5t-91 -246.5z " />
<glyph unicode="&#xe9;" horiz-adv-x="1064" d="M82 530q0 268 123.5 418t357.5 150q100 0 175.5 -31t121.5 -81.5t74 -124.5t38.5 -150t10.5 -168q0 -18 -3 -28.5t-10 -14.5t-13 -5t-19 -1h-694q2 -173 84 -275t245 -102q143 0 289 51q15 6 27 6q21 0 26 -24l13 -58q4 -20 4 -26q0 -23 -21 -31q-150 -58 -348 -58 q-240 0 -360.5 146.5t-120.5 406.5zM246 627h577q-3 52 -9.5 94t-24.5 90t-45.5 79.5t-76 53t-112.5 21.5q-138 0 -218 -91.5t-91 -246.5zM483 1262q0 5 1.5 10t3.5 8l1 2l181 287q8 13 22 20t24 7l9 1h92q31 0 31 -24q0 -6 -2 -12.5t-4 -9.5l-2 -3l-215 -268 q-19 -24 -33 -32.5t-41 -8.5h-43q-25 5 -25 23z" />
<glyph unicode="&#xea;" horiz-adv-x="1064" d="M82 530q0 268 123.5 418t357.5 150q100 0 175.5 -31t121.5 -81.5t74 -124.5t38.5 -150t10.5 -168q0 -18 -3 -28.5t-10 -14.5t-13 -5t-19 -1h-694q2 -173 84 -275t245 -102q143 0 289 51q15 6 27 6q21 0 26 -24l13 -58q4 -20 4 -26q0 -23 -21 -31q-150 -58 -348 -58 q-240 0 -360.5 146.5t-120.5 406.5zM201 1262q0 5 1.5 10t3.5 8l1 2l242 289q22 26 57 26h51q28 1 51 -26l242 -289q6 -8 6 -20q0 -18 -25 -23h-38q-27 0 -42.5 8.5t-39.5 32.5l-185 178l-182 -178q-24 -24 -39.5 -32.5t-42.5 -8.5h-37q-24 5 -24 23zM246 627h577 q-3 52 -9.5 94t-24.5 90t-45.5 79.5t-76 53t-112.5 21.5q-138 0 -218 -91.5t-91 -246.5z" />
<glyph unicode="&#xeb;" horiz-adv-x="1064" d="M82 530q0 268 123.5 418t357.5 150q100 0 175.5 -31t121.5 -81.5t74 -124.5t38.5 -150t10.5 -168q0 -18 -3 -28.5t-10 -14.5t-13 -5t-19 -1h-694q2 -173 84 -275t245 -102q143 0 289 51q15 6 27 6q21 0 26 -24l13 -58q4 -20 4 -26q0 -23 -21 -31q-150 -58 -348 -58 q-240 0 -360.5 146.5t-120.5 406.5zM246 627h577q-3 52 -9.5 94t-24.5 90t-45.5 79.5t-76 53t-112.5 21.5q-138 0 -218 -91.5t-91 -246.5zM274 1331q0 39 29 64.5t68 25.5q47 0 74.5 -25t27.5 -65t-27.5 -66t-74.5 -26q-39 0 -68 26.5t-29 65.5zM604 1331q0 39 28.5 64.5 t69.5 25.5q45 0 73 -25t28 -65t-28 -66t-73 -26q-40 0 -69 26.5t-29 65.5z" />
<glyph unicode="&#xec;" horiz-adv-x="483" d="M-72 1573q0 24 31 24h92q37 1 55 -28l181 -287q6 -8 6 -20q0 -18 -25 -23h-43q-27 0 -40.5 8.5t-32.5 32.5l-215 268q-9 11 -9 25zM164 39v997q0 39 33 39h88q34 0 34 -39v-997q0 -39 -34 -39h-88q-33 0 -33 39z" />
<glyph unicode="&#xed;" horiz-adv-x="483" d="M164 39v997q0 39 33 39h88q34 0 34 -39v-997q0 -39 -34 -39h-88q-33 0 -33 39zM186 1262q0 5 2 10t4 8l1 2l180 287q8 13 21.5 20t23.5 7l10 1h92q31 0 31 -24q0 -6 -2 -12.5t-4 -9.5l-2 -3l-215 -268q-19 -24 -33 -32.5t-41 -8.5h-43q-25 5 -25 23z" />
<glyph unicode="&#xee;" horiz-adv-x="483" d="M-88 1262q0 5 1.5 10t2.5 8l2 2l242 289q22 26 57 26h51q28 1 51 -26l242 -289q6 -8 6 -20q0 -18 -24 -23h-39q-27 0 -42.5 8.5t-39.5 32.5l-184 178l-183 -178q-24 -24 -39.5 -32.5t-42.5 -8.5h-36q-25 5 -25 23zM164 39v997q0 39 33 39h88q34 0 34 -39v-997 q0 -39 -34 -39h-88q-33 0 -33 39z" />
<glyph unicode="&#xef;" horiz-adv-x="483" d="M-23 1331q0 39 29 64.5t68 25.5q47 0 74.5 -25t27.5 -65t-27.5 -66t-74.5 -26q-39 0 -68 26.5t-29 65.5zM164 39v997q0 39 33 39h88q34 0 34 -39v-997q0 -39 -34 -39h-88q-33 0 -33 39zM307 1331q0 39 29 64.5t70 25.5q45 0 72.5 -25t27.5 -65t-27.5 -66t-72.5 -26 q-40 0 -69.5 26.5t-29.5 65.5z" />
<glyph unicode="&#xf0;" horiz-adv-x="1064" d="M82 465q0 140 47 248t146.5 173.5t238.5 65.5q195 0 295 -131q-85 239 -246 400l-229 -72q-18 -6 -33 -6q-20 0 -27 14l-18 37q-6 12 -6 20q0 18 20 25l201 64q-61 49 -164 122q-20 14 -20 29q0 7 5 14t15 7h99q48 0 90 -25q73 -45 131 -96l186 59q18 6 33 6q19 0 26 -14 l21 -39q6 -12 6 -20q0 -18 -20 -25l-158 -51q262 -299 262 -660q0 -291 -126.5 -462t-344.5 -171q-200 0 -315 132t-115 356zM242 461q0 -167 75.5 -258.5t194.5 -91.5q69 0 124 28.5t90 75.5t58.5 111t33 130.5t9.5 137.5q0 29 -4 65q-47 72 -126 112t-173 40 q-144 0 -213 -94t-69 -256z" />
<glyph unicode="&#xf1;" horiz-adv-x="1175" d="M164 39v1001q0 35 31 35h61q21 0 31.5 -7.5t13.5 -29.5l16 -106q108 166 328 166q183 0 275 -109t92 -317v-633q0 -39 -33 -39h-92q-31 0 -31 39v627q0 49 -4.5 87.5t-20 79.5t-41.5 68t-72 44.5t-108 17.5q-33 0 -70 -9t-80.5 -31t-81.5 -68t-59 -110v-706 q0 -39 -34 -39h-88q-33 0 -33 39zM260 1270q4 97 60.5 152t136.5 55q51 0 106 -23.5t103 -46.5t82 -23q59 0 75 72q6 31 31 31h66q12 0 18 -10t6 -21q-1 -94 -57 -150.5t-139 -56.5q-51 0 -104.5 23t-100.5 46t-80 23q-34 0 -54 -15.5t-28 -57.5q-2 -10 -10 -19.5t-19 -9.5 h-67q-12 0 -18.5 10t-6.5 21z" />
<glyph unicode="&#xf2;" horiz-adv-x="1085" d="M82 543q0 262 123.5 408.5t337.5 146.5q219 0 340 -149t121 -408q0 -275 -123.5 -419.5t-337.5 -144.5q-216 0 -338.5 146t-122.5 420zM223 1573q0 24 31 24h92q37 1 55 -28l181 -287q6 -8 6 -20q0 -18 -25 -23h-43q-27 0 -41 8.5t-33 32.5l-215 268q-8 11 -8 25z M242 543q0 -211 71 -320.5t230 -109.5t230 111t71 319q0 420 -301 420q-160 0 -230.5 -109t-70.5 -311z" />
<glyph unicode="&#xf3;" horiz-adv-x="1085" d="M82 543q0 262 123.5 408.5t337.5 146.5q219 0 340 -149t121 -408q0 -275 -123.5 -419.5t-337.5 -144.5q-216 0 -338.5 146t-122.5 420zM242 543q0 -211 71 -320.5t230 -109.5t230 111t71 319q0 420 -301 420q-160 0 -230.5 -109t-70.5 -311zM485 1262q0 5 1.5 10t3.5 8 l2 2l180 287q8 13 22 20t24 7l9 1h92q31 0 31 -24q0 -6 -2 -12.5t-4 -9.5l-2 -3l-215 -268q-19 -24 -33 -32.5t-41 -8.5h-43q-25 5 -25 23z" />
<glyph unicode="&#xf4;" horiz-adv-x="1085" d="M82 543q0 262 123.5 408.5t337.5 146.5q219 0 340 -149t121 -408q0 -275 -123.5 -419.5t-337.5 -144.5q-216 0 -338.5 146t-122.5 420zM213 1262q0 5 1.5 10t3.5 8l1 2l242 289q22 26 57 26h51q29 1 52 -26l241 -289q6 -8 6 -20q0 -18 -24 -23h-39q-27 0 -42.5 8.5 t-39.5 32.5l-184 178l-183 -178q-24 -24 -39.5 -32.5t-42.5 -8.5h-36q-25 5 -25 23zM242 543q0 -211 71 -320.5t230 -109.5t230 111t71 319q0 420 -301 420q-160 0 -230.5 -109t-70.5 -311z" />
<glyph unicode="&#xf5;" horiz-adv-x="1085" d="M82 543q0 262 123.5 408.5t337.5 146.5q219 0 340 -149t121 -408q0 -275 -123.5 -419.5t-337.5 -144.5q-216 0 -338.5 146t-122.5 420zM203 1270q4 97 60 152t136 55q51 0 106 -23.5t103 -46.5t82 -23q60 0 76 72q6 31 31 31h65q12 0 18.5 -10t6.5 -21q-1 -93 -57 -150 t-140 -57q-51 0 -104.5 23t-100 46t-79.5 23q-34 0 -54 -15.5t-28 -57.5q-2 -10 -10 -19.5t-19 -9.5h-68q-12 0 -18 10t-6 21zM242 543q0 -211 71 -320.5t230 -109.5t230 111t71 319q0 420 -301 420q-160 0 -230.5 -109t-70.5 -311z" />
<glyph unicode="&#xf6;" horiz-adv-x="1085" d="M82 543q0 262 123.5 408.5t337.5 146.5q219 0 340 -149t121 -408q0 -275 -123.5 -419.5t-337.5 -144.5q-216 0 -338.5 146t-122.5 420zM242 543q0 -211 71 -320.5t230 -109.5t230 111t71 319q0 420 -301 420q-160 0 -230.5 -109t-70.5 -311zM276 1331q0 39 29 64.5 t68 25.5q47 0 74.5 -25t27.5 -65t-27.5 -66t-74.5 -26q-39 0 -68 26.5t-29 65.5zM606 1331q0 39 29 64.5t70 25.5q45 0 72.5 -25t27.5 -65t-27.5 -66t-72.5 -26q-40 0 -69.5 26.5t-29.5 65.5z" />
<glyph unicode="&#xf7;" horiz-adv-x="1114" d="M123 553v53q0 21 6.5 30t28.5 9h798q22 0 28.5 -9t6.5 -30v-53q0 -19 -7.5 -27t-29.5 -8h-794q-22 0 -29.5 8t-7.5 27zM444 276q0 47 33 81t80 34t81 -34t34 -81t-33.5 -79.5t-81.5 -32.5q-47 0 -80 32.5t-33 79.5zM444 895q0 47 33 81t80 34t81 -34t34 -81t-34 -80 t-81 -33t-80 33t-33 80z" />
<glyph unicode="&#xf8;" horiz-adv-x="1085" d="M82 543q0 262 123.5 408.5t337.5 146.5q132 0 231 -58l57 93q15 26 28.5 34.5t39.5 8.5h47q11 0 19 -6.5t8 -16.5q0 -8 -6 -20l-103 -166q140 -149 140 -426q0 -275 -123.5 -419.5t-337.5 -144.5q-138 0 -244 64l-43 -70q-15 -26 -28.5 -34.5t-39.5 -8.5h-43 q-11 0 -18.5 6.5t-7.5 16.5q0 8 6 20l86 144q-129 148 -129 428zM242 543q0 -193 53 -291l407 670q-65 41 -159 41q-160 0 -230.5 -109t-70.5 -311zM373 160q65 -47 170 -47q159 0 230 111t71 319q0 189 -60 291z" />
<glyph unicode="&#xf9;" horiz-adv-x="1155" d="M143 403v633q0 39 33 39h92q31 0 31 -39v-635q0 -60 10.5 -107.5t36 -90.5t76 -66.5t123.5 -23.5q27 0 54.5 3.5t64 16t67.5 33t60 57.5t45 86v727q0 39 34 39h88q33 0 33 -39v-1001q0 -35 -30 -35h-62q-21 0 -31.5 7.5t-13.5 29.5l-16 86q-103 -146 -314 -146 q-182 0 -281.5 114t-99.5 312zM252 1573q0 24 31 24h92q37 1 55 -28l180 -287q6 -8 6 -20q0 -18 -24 -23h-43q-27 0 -41 8.5t-33 32.5l-215 268q-8 11 -8 25z" />
<glyph unicode="&#xfa;" horiz-adv-x="1155" d="M143 403v633q0 39 33 39h92q31 0 31 -39v-635q0 -60 10.5 -107.5t36 -90.5t76 -66.5t123.5 -23.5q27 0 54.5 3.5t64 16t67.5 33t60 57.5t45 86v727q0 39 34 39h88q33 0 33 -39v-1001q0 -35 -30 -35h-62q-21 0 -31.5 7.5t-13.5 29.5l-16 86q-103 -146 -314 -146 q-182 0 -281.5 114t-99.5 312zM508 1262q0 5 1.5 10t2.5 8l2 2l180 287q8 13 22 20t24 7l10 1h92q30 0 30 -24q0 -6 -2 -12.5t-4 -9.5l-2 -3l-215 -268q-19 -24 -33 -32.5t-41 -8.5h-43q-24 5 -24 23z" />
<glyph unicode="&#xfb;" horiz-adv-x="1155" d="M143 403v633q0 39 33 39h92q31 0 31 -39v-635q0 -60 10.5 -107.5t36 -90.5t76 -66.5t123.5 -23.5q27 0 54.5 3.5t64 16t67.5 33t60 57.5t45 86v727q0 39 34 39h88q33 0 33 -39v-1001q0 -35 -30 -35h-62q-21 0 -31.5 7.5t-13.5 29.5l-16 86q-103 -146 -314 -146 q-182 0 -281.5 114t-99.5 312zM227 1262q0 5 1.5 10t3.5 8l1 2l242 289q22 26 57 26h52q28 1 51 -26l242 -289q6 -8 6 -20q0 -18 -25 -23h-39q-27 0 -42.5 8.5t-39.5 32.5l-184 178l-182 -178q-24 -24 -39.5 -32.5t-42.5 -8.5h-37q-25 5 -25 23z" />
<glyph unicode="&#xfc;" horiz-adv-x="1155" d="M143 403v633q0 39 33 39h92q31 0 31 -39v-635q0 -60 10.5 -107.5t36 -90.5t76 -66.5t123.5 -23.5q27 0 54.5 3.5t64 16t67.5 33t60 57.5t45 86v727q0 39 34 39h88q33 0 33 -39v-1001q0 -35 -30 -35h-62q-21 0 -31.5 7.5t-13.5 29.5l-16 86q-103 -146 -314 -146 q-182 0 -281.5 114t-99.5 312zM295 1331q0 39 28.5 64.5t67.5 25.5q47 0 75 -25t28 -65t-28 -66t-75 -26q-39 0 -67.5 26.5t-28.5 65.5zM625 1331q0 39 28.5 64.5t69.5 25.5q45 0 72.5 -25t27.5 -65t-27.5 -66t-72.5 -26q-40 0 -69 26.5t-29 65.5z" />
<glyph unicode="&#xfd;" horiz-adv-x="940" d="M20 -346q0 12 5 22l18 60q6 17 12.5 21.5t20.5 4.5q2 0 55 -14t113 -14q68 0 111.5 41.5t70.5 122.5l33 96q-51 0 -77 24.5t-42 75.5l-305 930q-4 16 -4 20q0 15 9 23t23 8h70q30 0 42.5 -7.5t19.5 -33.5l217 -694l71 -231l70 233l197 700q6 20 16 26.5t31 6.5h86 q26 0 26 -26q0 -11 -2 -15l-329 -1143q-46 -160 -129.5 -230.5t-215.5 -70.5q-116 0 -190 35q-23 10 -23 29zM412 1262q0 5 1.5 10t2.5 8l2 2l180 287q8 13 22 20t24 7l9 1h92q31 0 31 -24q0 -6 -2 -12.5t-4 -9.5l-2 -3l-215 -268q-19 -24 -33 -32.5t-41 -8.5h-43 q-24 5 -24 23z" />
<glyph unicode="&#xfe;" d="M164 -381v1868q0 26 26 35l89 20q6 2 12 2q13 0 20.5 -8.5t7.5 -19.5v-582q40 78 123 121t191 43q214 0 322 -145t108 -408q0 -121 -24.5 -218t-67 -161.5t-101 -107.5t-123.5 -62t-139 -19q-195 0 -289 144v-502q0 -11 -9 -20t-19 -9h-98q-11 0 -20 9t-9 20zM319 307 q15 -73 91 -133.5t190 -60.5q156 0 229.5 114t73.5 322q0 87 -14.5 158.5t-46.5 130.5t-90 92t-138 33q-113 0 -189 -55t-106 -148v-453z" />
<glyph unicode="&#xff;" horiz-adv-x="940" d="M20 -346q0 12 5 22l18 60q6 17 12.5 21.5t20.5 4.5q2 0 55 -14t113 -14q68 0 111.5 41.5t70.5 122.5l33 96q-51 0 -77 24.5t-42 75.5l-305 930q-4 16 -4 20q0 15 9 23t23 8h70q30 0 42.5 -7.5t19.5 -33.5l217 -694l71 -231l70 233l197 700q6 20 16 26.5t31 6.5h86 q26 0 26 -26q0 -11 -2 -15l-329 -1143q-46 -160 -129.5 -230.5t-215.5 -70.5q-116 0 -190 35q-23 10 -23 29zM211 1331q0 39 28.5 64.5t67.5 25.5q47 0 75 -25t28 -65t-28 -66t-75 -26q-39 0 -67.5 26.5t-28.5 65.5zM541 1331q0 39 28.5 64.5t69.5 25.5q45 0 72.5 -25 t27.5 -65t-27.5 -66t-72.5 -26q-40 0 -69 26.5t-29 65.5z" />
<glyph unicode="&#x152;" horiz-adv-x="1843" d="M102 741q0 166 35 295t93 210.5t140.5 134t170.5 73.5t190 21h1002q36 0 36 -39v-78q0 -35 -38 -35h-596v-459h512q23 0 31 -10t8 -29v-71q0 -39 -41 -39h-510v-563h628q39 0 39 -35v-78q0 -39 -37 -39h-1030q-103 0 -190.5 20t-171.5 71.5t-142 133t-93.5 213.5 t-35.5 303zM268 741q0 -161 35.5 -278t100.5 -183.5t146.5 -97t184.5 -30.5h242v1171h-246q-102 0 -184 -32.5t-146 -100t-98.5 -182t-34.5 -267.5z" />
<glyph unicode="&#x153;" horiz-adv-x="1824" d="M82 543q0 262 123.5 408.5t337.5 146.5q276 0 383 -242q107 242 397 242q100 0 175.5 -31t121.5 -81.5t74 -124.5t38.5 -150t10.5 -168q0 -18 -3 -28.5t-10 -14.5t-13 -5t-19 -1h-694q2 -173 84 -275t245 -102q143 0 289 51q15 6 27 6q21 0 26 -24l13 -58q4 -20 4 -26 q0 -23 -21 -31q-150 -58 -348 -58q-295 0 -399 236q-108 -236 -381 -236q-216 0 -338.5 146t-122.5 420zM242 543q0 -211 71 -320.5t230 -109.5t230 111t71 319q0 420 -301 420q-160 0 -230.5 -109t-70.5 -311zM1006 627h577q-3 52 -9.5 94t-24.5 90t-45.5 79.5t-76 53 t-112.5 21.5q-138 0 -218 -91.5t-91 -246.5z" />
<glyph unicode="&#x178;" horiz-adv-x="1062" d="M20 1448q0 12 8.5 19.5t20.5 7.5h88q14 0 21.5 -1t19.5 -9.5t21 -24.5l276 -488l57 -106l58 106l274 488q9 16 21 24.5t19.5 9.5t21.5 1h88q12 0 20 -7.5t8 -19.5q0 -11 -6 -23l-426 -720v-664q0 -41 -35 -41h-88q-34 0 -34 41v666l-426 718q-7 14 -7 23zM270 1731 q0 39 29 64.5t68 25.5q47 0 74.5 -25t27.5 -65q0 -41 -28 -67t-74 -26q-39 0 -68 27t-29 66zM600 1731q0 39 28.5 64.5t69.5 25.5q45 0 73 -25t28 -65t-28 -66.5t-73 -26.5q-40 0 -69 27t-29 66z" />
<glyph unicode="&#x2c6;" horiz-adv-x="901" d="M123 1262q0 5 1.5 10t3.5 8l1 2l242 289q22 26 57 26h51q28 1 51 -26l242 -289q6 -8 6 -20q0 -18 -24 -23h-39q-27 0 -42.5 8.5t-39.5 32.5l-184 178l-183 -178q-24 -24 -39.5 -32.5t-42.5 -8.5h-37q-24 5 -24 23z" />
<glyph unicode="&#x2dc;" horiz-adv-x="929" d="M123 1270q4 97 60 152t136 55q51 0 106 -23.5t103 -46.5t82 -23q60 0 76 72q6 31 31 31h65q12 0 18.5 -10t6.5 -21q-1 -93 -57 -150t-140 -57q-51 0 -104.5 23t-100 46t-79.5 23q-34 0 -54 -15.5t-28 -57.5q-2 -10 -10 -19.5t-19 -9.5h-68q-12 0 -18 10t-6 21z" />
<glyph unicode="&#x2000;" horiz-adv-x="1008" />
<glyph unicode="&#x2001;" horiz-adv-x="2017" />
<glyph unicode="&#x2002;" horiz-adv-x="1008" />
<glyph unicode="&#x2003;" horiz-adv-x="2017" />
<glyph unicode="&#x2004;" horiz-adv-x="672" />
<glyph unicode="&#x2005;" horiz-adv-x="504" />
<glyph unicode="&#x2006;" horiz-adv-x="336" />
<glyph unicode="&#x2007;" horiz-adv-x="336" />
<glyph unicode="&#x2008;" horiz-adv-x="252" />
<glyph unicode="&#x2009;" horiz-adv-x="403" />
<glyph unicode="&#x200a;" horiz-adv-x="112" />
<glyph unicode="&#x2010;" horiz-adv-x="860" d="M123 557v57q0 35 33 35h549q32 0 32 -35v-57q0 -35 -35 -35h-544q-35 0 -35 35z" />
<glyph unicode="&#x2011;" horiz-adv-x="860" d="M123 557v57q0 35 33 35h549q32 0 32 -35v-57q0 -35 -35 -35h-544q-35 0 -35 35z" />
<glyph unicode="&#x2012;" horiz-adv-x="860" d="M123 557v57q0 35 33 35h549q32 0 32 -35v-57q0 -35 -35 -35h-544q-35 0 -35 35z" />
<glyph unicode="&#x2013;" horiz-adv-x="1363" d="M123 557v57q0 35 33 35h1052q33 0 33 -35v-57q0 -35 -35 -35h-1048q-35 0 -35 35z" />
<glyph unicode="&#x2014;" horiz-adv-x="2252" d="M123 555v61q0 20 7 26.5t28 6.5h1925q31 0 39 -6.5t8 -30.5v-45q0 -28 -8 -36.5t-33 -8.5h-1921q-28 0 -36.5 6.5t-8.5 26.5z" />
<glyph unicode="&#x2018;" horiz-adv-x="364" d="M61 1157q0 6 1.5 12.5t3.5 9.5l2 3l137 291q10 23 27 31.5t47 8.5h40q25 -5 25 -22l-4 -23l-96 -299q-5 -17 -17 -26t-21 -9l-9 -1h-105q-31 0 -31 24z" />
<glyph unicode="&#x2019;" horiz-adv-x="364" d="M61 1153l5 23l96 299q5 17 17 26t21 9l9 1h104q31 0 31 -24l-6 -25l-137 -291q-10 -23 -27 -32t-47 -9h-41q-25 5 -25 23z" />
<glyph unicode="&#x201a;" horiz-adv-x="385" d="M41 -170l4 23l96 299q5 17 17 26t21 10h9h105q31 0 31 -24q0 -6 -2 -12.5t-4 -9.5l-1 -3l-137 -291q-10 -23 -27 -32t-47 -9h-40q-25 5 -25 23z" />
<glyph unicode="&#x201c;" horiz-adv-x="712" d="M61 1157q0 6 1.5 12.5t3.5 9.5l2 3l137 291q10 23 27 31.5t47 8.5h40q25 -5 25 -22l-4 -23l-96 -299q-5 -17 -17 -26t-21 -9l-9 -1h-105q-31 0 -31 24zM410 1157l6 25l137 291q10 23 27 31.5t47 8.5h41q24 -5 24 -22l-4 -23l-96 -299q-5 -17 -17 -26t-21 -9l-9 -1h-105 q-30 0 -30 24z" />
<glyph unicode="&#x201d;" horiz-adv-x="712" d="M61 1153l5 23l96 299q5 17 17 26t21 9l9 1h104q31 0 31 -24l-6 -25l-137 -291q-10 -23 -27 -32t-47 -9h-41q-25 5 -25 23zM410 1153l4 23l96 299q5 17 17 26t21 9l9 1h105q30 0 30 -24l-6 -25l-137 -291q-10 -23 -27 -32t-47 -9h-41q-24 5 -24 23z" />
<glyph unicode="&#x201e;" horiz-adv-x="702" d="M41 -170l4 23l96 299q5 17 17 26t21 10h9h105q31 0 31 -24q0 -6 -2 -12.5t-4 -9.5l-1 -3l-137 -291q-10 -23 -27 -32t-47 -9h-40q-25 5 -25 23zM358 -170l4 23l97 299q5 17 17 26t21 10h9h104q31 0 31 -24l-6 -25l-137 -291q-10 -23 -27 -32t-47 -9h-41q-25 5 -25 23z " />
<glyph unicode="&#x2022;" horiz-adv-x="716" d="M123 600q0 98 68 167t167 69q97 0 166.5 -69.5t69.5 -166.5q0 -99 -69 -167t-167 -68q-100 0 -167.5 67.5t-67.5 167.5z" />
<glyph unicode="&#x2026;" horiz-adv-x="1529" d="M82 82q0 47 33 81t80 34t80.5 -34t33.5 -81t-33.5 -80t-80.5 -33t-80 33t-33 80zM655 82q0 47 33 81t80 34t81 -34t34 -81t-34 -80t-81 -33t-80 33t-33 80zM1221 82q0 48 32.5 81.5t79.5 33.5t81 -34t34 -81t-34 -80t-81 -33t-79.5 33t-32.5 80z" />
<glyph unicode="&#x202f;" horiz-adv-x="403" />
<glyph unicode="&#x2039;" horiz-adv-x="604" d="M123 508q0 9 2 16.5t4.5 11.5t6.5 9.5t5 7.5l209 289q3 4 9.5 12.5t9 11l7.5 7.5t9.5 6t11.5 2.5t17 1.5h43q24 -5 24 -23q0 -5 -1.5 -10t-3.5 -8l-1 -2l-196 -332l196 -332q6 -8 6 -20q0 -18 -24 -23h-43q-10 0 -17 1.5t-11.5 2.5t-9.5 6l-7.5 7.5t-9 11t-9.5 12.5 l-209 289q-18 24 -18 45z" />
<glyph unicode="&#x203a;" horiz-adv-x="604" d="M123 156q0 5 1.5 10t3.5 8l1 2l197 332l-197 332q-6 8 -6 20q0 18 24 23h43q10 0 17 -1.5t11.5 -2.5t9.5 -6l7.5 -7.5t9 -11t9.5 -12.5l209 -289q1 -2 5 -7.5t6.5 -9.5t4.5 -11.5t2 -16.5q0 -21 -18 -45l-209 -289q-3 -4 -9.5 -12.5t-9 -11l-7.5 -7.5t-9.5 -6t-11.5 -2.5 t-17 -1.5h-43q-24 5 -24 23z" />
<glyph unicode="&#x205f;" horiz-adv-x="504" />
<glyph unicode="&#x20ac;" horiz-adv-x="1349" d="M41 565v47q0 21 6.5 30t28.5 9h151q-2 27 -2 90v50h-147q-22 0 -29.5 8t-7.5 26v47q0 21 6.5 30t28.5 9h157q32 280 176 433t408 153q367 0 467 -272q4 -12 4 -21q0 -22 -37 -37l-37 -16q-21 -8 -36 -8q-20 0 -35 24q-57 102 -137.5 141.5t-198.5 39.5q-95 0 -169 -33 t-122 -93.5t-77 -138t-40 -172.5h621q31 0 31 -20q0 -7 -2 -17l-15 -55q-3 -15 -10 -21.5t-27 -6.5h-606v-46q0 -63 2 -94h574q30 0 30 -20q0 -7 -2 -17l-14 -55q-2 -11 -5 -16t-10.5 -9t-21.5 -4h-532q11 -67 28 -121.5t48.5 -108.5t75 -90t110 -58.5t149.5 -22.5 q197 0 369 76q19 8 31 8q18 0 26 -18l29 -76q2 -6 2 -15q0 -27 -37 -45q-57 -28 -169 -55t-259 -27q-109 0 -198.5 29t-152 79t-109 121.5t-73.5 150.5t-42 173h-162q-22 0 -29.5 8t-7.5 27z" />
<glyph unicode="&#x2122;" horiz-adv-x="1269" d="M20 1411v43q0 21 19 21h416q16 0 16 -21v-43q0 -20 -20 -20h-162v-484q0 -22 -19 -22h-51q-18 0 -18 22v484h-160q-21 0 -21 20zM532 903l29 469q3 51 21.5 79t62.5 28q32 0 51.5 -16t30.5 -60l76 -297l26 -109l27 109l76 297q13 45 31.5 60.5t50.5 15.5q44 0 61.5 -27.5 t20.5 -79.5l30 -469q0 -18 -16 -18h-47q-12 0 -16.5 3.5t-6.5 14.5l-18 348l-10 160l-37 -162l-70 -243q-10 -37 -26.5 -54.5t-53.5 -17.5q-33 0 -48 17.5t-25 54.5l-70 245l-39 162l-8 -162l-17 -348q-2 -11 -6 -14.5t-16 -3.5h-47q-17 0 -17 18z" />
<glyph unicode="&#x25fc;" horiz-adv-x="1075" d="M0 0v1075h1075v-1075h-1075z" />
</font>
</defs>
</svg>
