<?xml version="1.0" standalone="no"?>
<!DOCTYPE svg PUBLIC "-//W3C//DTD SVG 1.1//EN" "http://www.w3.org/Graphics/SVG/1.1/DTD/svg11.dtd" >
<svg xmlns="http://www.w3.org/2000/svg">
<metadata></metadata>
<defs>
<font id="comex_bold_condensedBdCn" horiz-adv-x="987" >
<font-face units-per-em="2048" ascent="1536" descent="-512" />
<missing-glyph horiz-adv-x="430" />
<glyph unicode="&#xfb01;" horiz-adv-x="1077" d="M8 915v140q0 41 33 41h94v82q0 366 303 366q133 0 209 -47q25 -16 25 -37q0 -14 -6 -26l-45 -105q-14 -35 -37 -35q-13 0 -46.5 8.5t-56.5 8.5q-41 0 -58 -29.5t-17 -97.5v-88h145q33 0 33 -41v-133q0 -48 -33 -48h-145v-829q0 -22 -6.5 -33.5t-26.5 -11.5h-203 q-35 0 -35 41v833h-94q-33 0 -33 41zM682 1341q0 74 43 111t113 37t113.5 -37t43.5 -111q0 -73 -43.5 -109t-113.5 -36t-113 36t-43 109zM705 41v1014q0 41 40 41h191q39 0 39 -41v-1010q0 -45 -39 -45h-191q-40 0 -40 41z" />
<glyph unicode="&#xfb02;" horiz-adv-x="1089" d="M8 915v140q0 41 33 41h94v82q0 366 303 366q133 0 209 -47q25 -16 25 -37q0 -14 -6 -26l-45 -105q-14 -35 -37 -35q-13 0 -46.5 8.5t-56.5 8.5q-41 0 -58 -29.5t-17 -97.5v-88h145q33 0 33 -41v-133q0 -48 -33 -48h-145v-829q0 -22 -6.5 -33.5t-26.5 -11.5h-203 q-35 0 -35 41v833h-94q-33 0 -33 41zM711 41v1417q0 41 30 47l170 35q24 4 37 4q11 0 22 -9.5t11 -27.5v-1462q0 -45 -39 -45h-190q-41 0 -41 41z" />
<glyph horiz-adv-x="0" />
<glyph horiz-adv-x="682" />
<glyph unicode=" "  horiz-adv-x="430" />
<glyph unicode="&#x09;" horiz-adv-x="430" />
<glyph unicode="&#xa0;" horiz-adv-x="430" />
<glyph unicode="!" horiz-adv-x="542" d="M102 143q0 84 47.5 132.5t124.5 48.5q71 0 118.5 -50.5t47.5 -123.5q0 -87 -46 -135t-120 -48q-78 0 -125 47t-47 129zM117 1561q0 41 39 41h229q44 0 41 -50l-47 -1085q-2 -49 -41 -49h-123q-15 0 -24 8t-11.5 17t-3.5 24z" />
<glyph unicode="&#x22;" horiz-adv-x="587" d="M23 1526q-3 39 28 39h189q30 0 30 -39l-30 -314q-3 -24 -12 -32.5t-25 -8.5h-115q-33 0 -35 41zM317 1526q0 39 31 39h189q30 0 30 -39l-32 -314q-2 -41 -35 -41h-115q-16 0 -25 8.5t-12 32.5z" />
<glyph unicode="#" horiz-adv-x="1202" d="M51 475q0 4 1 12.5t1 12.5l17 90q5 26 11 34.5t23 8.5h183l30 262h-176q-24 0 -24 25q0 10 4 30l14 86q3 25 10.5 33t26.5 8h170l51 408q4 29 12.5 37t30.5 8h127q21 0 21 -29q0 -4 -1 -11.5t-1 -10.5l-50 -402h224l49 408q3 28 11.5 36.5t31.5 8.5h127q20 0 20 -25 q0 -4 -1 -13t-1 -13l-49 -402h180q27 0 27 -28l-21 -121q-3 -12 -4.5 -17.5t-8 -10.5t-17.5 -5h-182l-29 -262h170q11 0 19.5 -6.5t8.5 -20.5q0 -11 -22 -123q-2 -11 -4.5 -16.5t-10 -10.5t-20.5 -5h-166l-49 -412q-3 -23 -12.5 -31t-30.5 -8h-123q-26 0 -26 35q0 2 1 7t1 7 l47 402h-221l-50 -412q-3 -23 -11.5 -31t-29.5 -8h-124q-23 0 -23 29v20l47 402h-186q-23 0 -23 24zM477 633h221l33 262h-225z" />
<glyph unicode="$" horiz-adv-x="923" d="M53 113q0 13 6 28l54 135q10 31 34 31q12 0 21 -6q145 -84 262 -84q89 0 128.5 35.5t39.5 109.5q0 27 -4 49t-16.5 41.5t-21 32t-31 30t-32.5 24.5t-40.5 26t-40.5 25l-62 39q-46 28 -81 53.5t-72.5 64t-62 79t-40.5 96t-16 118.5q0 166 70.5 268.5t205.5 133.5v151 q0 47 33 47h127q35 0 35 -47v-145q103 -14 171.5 -71t108.5 -163q1 -4 4 -13.5t3 -14.5q0 -25 -21 -33l-151 -53q-6 -4 -19 -4q-24 0 -35 22q-28 49 -57.5 74t-73.5 25q-61 0 -94 -42t-33 -120q0 -24 6 -45.5t19.5 -41t25.5 -34.5t34.5 -32.5t35 -26.5t39 -26.5t35.5 -23.5 l71 -49q152 -104 203 -189.5t51 -209.5q0 -334 -319 -387v-154q0 -49 -37 -49h-125q-35 0 -35 49v146q-75 6 -150.5 30.5t-129.5 63.5q-23 17 -23 37z" />
<glyph unicode="%" horiz-adv-x="1390" d="M10 1116q0 53 8.5 101.5t29.5 95t52.5 80.5t81.5 54.5t113 20.5q78 0 137.5 -30.5t93.5 -81.5t51 -111t17 -127q0 -70 -16.5 -132t-50.5 -113t-93 -81t-137 -30q-65 0 -115.5 21t-82 55t-52.5 81t-29 95.5t-8 101.5zM240 1118q0 -170 57 -170q65 0 65 168q0 166 -65 166 q-57 0 -57 -164zM254 29q0 17 8 37l645 1355q10 24 23.5 32.5t38.5 8.5h114q13 0 21 -7.5t8 -18.5q0 -17 -8 -37l-645 -1356q-10 -24 -23.5 -32.5t-38.5 -8.5h-114q-13 0 -21 8t-8 19zM756 332q0 53 8.5 101.5t29.5 95t53 80.5t81.5 54.5t111.5 20.5q79 0 138.5 -30 t93.5 -81.5t50.5 -111.5t16.5 -127q0 -56 -10 -106.5t-33 -97t-56.5 -80t-84 -53.5t-113.5 -20q-79 0 -137 31t-89.5 84t-45.5 112.5t-14 127.5zM985 334q0 -170 59 -170q64 0 64 168q0 166 -66 166q-6 0 -11.5 -2t-14.5 -12t-15.5 -26.5t-11 -48.5t-4.5 -75z" />
<glyph unicode="&#x26;" horiz-adv-x="1110" d="M41 381q0 77 23 149t60.5 125.5t73 90.5t70.5 61l-12 22q-50 87 -66 144t-16 125q0 58 18 112.5t55.5 104t107 80t161.5 30.5q61 0 112.5 -16.5t95 -51.5t68.5 -96t25 -143q0 -84 -39.5 -160.5t-85.5 -115.5q-21 -21 -43 -21q-17 0 -26 15l-64 102q-14 24 -14 37 q0 15 12 39q25 42 25 98q0 36 -19 62t-53 26q-15 0 -26 -2.5t-25.5 -11t-22.5 -30.5t-8 -56q0 -59 45 -142l270 -477q45 115 60 248q6 45 37 45h147q29 0 37 -9.5t8 -39.5q0 -97 -39.5 -239.5t-89.5 -231.5l19 -29q19 -22 53 -22q14 0 31 5t28 5q24 0 31 -33l29 -114 q4 -16 4 -27q0 -25 -21 -37q-50 -29 -133 -29q-110 0 -164 64l-39 41q-64 -54 -124.5 -77.5t-163.5 -23.5q-60 0 -117.5 14t-111.5 45.5t-94.5 77t-64.5 114.5t-24 153zM309 385q0 -96 46 -145.5t112 -49.5q93 0 145 74l-211 354q-45 -45 -68.5 -96t-23.5 -137z" />
<glyph unicode="'" horiz-adv-x="290" d="M23 1526q-3 39 28 39h189q30 0 30 -39l-30 -314q-3 -24 -12 -32.5t-25 -8.5h-115q-33 0 -35 41z" />
<glyph unicode="(" horiz-adv-x="661" d="M102 641q0 97 10 190t38.5 202t74 197t123.5 163.5t180 113.5q12 6 29 6q23 0 33 -24l53 -125q8 -19 8 -35q0 -22 -24 -43q-246 -200 -246 -653q0 -39 1.5 -71.5t8 -100t23 -127.5t42 -128.5t71 -131t104.5 -109.5q20 -17 20 -39q0 -12 -6 -30l-53 -125q-12 -29 -31 -29 q-21 0 -33 6q-80 30 -145 82.5t-108 113.5t-76 137.5t-51 146.5t-29 150.5t-14 140t-3 122.5z" />
<glyph unicode=")" horiz-adv-x="661" d="M10 -74q0 21 21 39q59 47 104.5 109.5t71 131t42 128.5t23 127.5t8 100t1.5 71.5q0 453 -246 653q-25 22 -25 43q0 16 8 35l54 125q10 24 32 24q17 0 29 -6q102 -38 180 -113.5t123.5 -163.5t74 -197t38.5 -202t10 -190q0 -63 -3 -122.5t-14 -140t-29 -150.5t-51 -146.5 t-76 -137.5t-108 -113.5t-145 -82.5q-12 -6 -33 -6q-18 0 -30 29l-54 125q-6 18 -6 30z" />
<glyph unicode="*" horiz-adv-x="667" d="M23 1290q0 9 4 21l45 129q9 26 34 26q5 0 11 -2t11 -4.5l7 -3.5l148 -110q-44 168 -52 200q-2 2 -2 17q3 39 39 39h131q36 0 39 -39q0 -15 -2 -17l-51 -200l147 110l7 3.5t11 4.5t11 2q26 0 35 -26l45 -129q4 -12 4 -21q0 -35 -45 -35l-162 -14l140 -117q16 -16 16 -34 q0 -22 -25 -35l-110 -72q-13 -8 -31 -8q-23 0 -35 39l-61 192l-58 -192q-12 -39 -34 -39q-18 0 -31 8l-111 72q-24 12 -24 35q0 18 16 34l139 117l-161 14q-45 0 -45 35z" />
<glyph unicode="+" horiz-adv-x="821" d="M72 524v105q0 41 41 41h209v331q0 41 38 41h111q39 0 39 -41v-331h199q41 0 41 -41v-101q0 -45 -41 -45h-199v-319q0 -45 -39 -45h-111q-38 0 -38 41v323h-211q-39 0 -39 41z" />
<glyph unicode="," horiz-adv-x="399" d="M2 -180q0 7 4 30l84 381q7 31 21 40.5t39 9.5h176q14 0 23 -8t9 -21q0 -14 -8 -35l-160 -383q-20 -47 -67 -47h-82q-19 0 -29 10t-10 23z" />
<glyph unicode="-" horiz-adv-x="618" d="M72 504v168q0 20 10 31.5t24 11.5h408q33 0 33 -43v-168q0 -43 -35 -43h-406q-15 0 -24.5 11.5t-9.5 31.5z" />
<glyph unicode="." horiz-adv-x="456" d="M82 129q0 68 40 115t103 47q67 0 108.5 -47t41.5 -115q0 -69 -41.5 -114.5t-108.5 -45.5q-61 0 -102 46t-41 114z" />
<glyph unicode="/" horiz-adv-x="612" d="M82 12q0 15 2 21l338 1476q6 27 17 37t32 10h104q37 0 37 -32q0 -15 -2 -21l-338 -1476q-6 -27 -17 -37t-32 -10h-104q-37 0 -37 32z" />
<glyph unicode="0" horiz-adv-x="1003" d="M53 713q0 119 14.5 222.5t48.5 196.5t85 159t128 104.5t173 38.5t172.5 -37.5t128 -102.5t85.5 -157t49 -197t15 -227q0 -118 -14 -222.5t-47 -200t-83.5 -164t-127.5 -109t-174 -40.5q-100 0 -178.5 40t-129 107.5t-84 163t-47.5 200t-14 225.5zM330 711q0 -254 42 -376 t140 -122q164 0 164 498q0 64 -3.5 122.5t-14.5 128t-28.5 119.5t-50 83.5t-75.5 33.5q-174 0 -174 -487z" />
<glyph unicode="1" horiz-adv-x="815" d="M82 45v148q0 45 43 45h178v933h-147q-35 0 -35 43v154q0 41 35 41h264q42 0 71.5 -12t44 -28t23 -40.5t10 -41.5t2.5 -39v-7v-1003h150q43 0 43 -48v-145q0 -45 -45 -45h-592q-24 0 -34.5 10.5t-10.5 34.5z" />
<glyph unicode="2" horiz-adv-x="890" d="M51 152q0 69 60 153l258 340q111 146 155.5 238.5t44.5 171.5q0 151 -120 151q-48 0 -88 -27.5t-74 -103.5q-11 -22 -33 -22q-6 0 -18 4l-121 49q-27 15 -27 37q0 18 10 41q38 113 133 180.5t230 67.5q80 0 143 -21t102.5 -56t65.5 -83t36.5 -98.5t10.5 -106.5 q0 -103 -33 -192.5t-133 -243.5l-207 -295l-79 -103l110 3l299 4q41 0 41 -43v-158q0 -39 -43 -39h-563q-68 0 -114 36.5t-46 115.5z" />
<glyph unicode="3" horiz-adv-x="854" d="M53 117q0 16 6 28l54 121q11 29 37 29q13 0 22 -6q113 -72 221 -72q71 0 110.5 44t39.5 153q0 94 -46.5 147t-158.5 53h-117q-41 0 -41 41v148q0 47 39 47h107q72 0 121 47.5t49 134.5q0 156 -113 156q-43 0 -75 -26.5t-64 -90.5q-8 -20 -31 -20q-13 0 -29 8l-110 53 q-21 17 -21 35q0 8 15 53q44 114 133 174t194 60q173 0 269 -100t96 -261q0 -118 -54.5 -201.5t-138.5 -132.5q246 -70 246 -340q0 -138 -57 -235t-149 -142t-210 -45q-84 0 -180.5 30t-144.5 75q-19 14 -19 35z" />
<glyph unicode="4" horiz-adv-x="944" d="M0 467q0 85 53 160l477 739q17 27 29 34t29 7h229q29 0 29 -33q0 -19 -12 -33l-564 -796l133 4l183 2v332q0 41 39 41h172q34 0 34 -41v-332h50q43 0 43 -49v-133q0 -23 -10 -33t-37 -10h-46v-281q0 -45 -34 -45h-172q-39 0 -39 41v285h-416q-85 0 -127.5 38.5 t-42.5 102.5z" />
<glyph unicode="5" horiz-adv-x="874" d="M55 106q0 15 8 31l60 135q3 10 12.5 17.5t18.5 7.5q14 0 28 -8q1 -1 14.5 -9t26 -15.5t34 -17.5t42.5 -17t48.5 -12t53.5 -5q162 0 162 205q0 46 -9 82t-21.5 59t-37 39.5t-44 24.5t-55 12.5t-57.5 5t-63 0.5h-122q-62 0 -62 57v521q0 80 12 113q31 79 150 79h461 q15 0 24 -11t9 -30v-149q0 -22 -6 -32.5t-25 -10.5h-355v-310h39q103 -3 180 -27.5t124.5 -63.5t77 -96t40.5 -116.5t11 -132.5q0 -241 -110.5 -348t-315.5 -107q-177 0 -324 89q-29 17 -29 40z" />
<glyph unicode="6" horiz-adv-x="927" d="M51 698q0 122 14.5 224.5t39.5 177t60 133t74 96t85 61.5t89 34t89 10q112 0 193.5 -58.5t125.5 -156.5q13 -26 13 -45t-23 -33l-121 -60q-13 -8 -31 -8q-16 0 -30 23q-30 51 -58.5 69.5t-70.5 18.5q-158 0 -170 -377q89 117 223 117q63 0 118.5 -24t103 -74t75 -140 t27.5 -209q0 -141 -43 -252.5t-132.5 -179.5t-212.5 -68q-93 0 -167.5 37t-124.5 101t-83.5 156t-48 197.5t-14.5 229.5zM332 594q0 -40 8 -97t24 -123t49 -111.5t76 -45.5q127 0 127 260q0 213 -120 213q-47 0 -86.5 -20.5t-77.5 -75.5z" />
<glyph unicode="7" horiz-adv-x="808" d="M0 1212v148q0 49 39 49h586q87 0 130.5 -40.5t43.5 -111.5q0 -73 -35 -165l-389 -1043q-10 -25 -26 -37t-48 -12h-197q-14 0 -25 11t-11 26t8 31l327 786l127 317l-182 -2l-295 -2q-17 0 -26.5 2t-18 12.5t-8.5 30.5z" />
<glyph unicode="8" horiz-adv-x="1011" d="M51 395q0 131 56 229.5t169 127.5q-94 43 -139 115t-45 182q0 97 33 172.5t90.5 121t130.5 68.5t158 23q112 0 196.5 -34.5t130.5 -91t67.5 -118.5t21.5 -127q0 -116 -37.5 -186.5t-147.5 -124.5q118 -33 172 -128t54 -225q0 -34 -4 -68t-16.5 -77t-32.5 -80.5 t-55.5 -74.5t-81.5 -63t-114.5 -42.5t-150.5 -16.5q-99 0 -177 22.5t-129.5 61t-85.5 92.5t-48.5 113.5t-14.5 128.5zM334 414q0 -38 8.5 -73t26.5 -67t52.5 -51.5t80.5 -19.5q84 0 130 49t46 170q0 26 -2.5 50t-13.5 55.5t-29 54.5t-51.5 39t-79.5 16q-39 0 -70 -15 t-49 -38t-29.5 -54t-15.5 -59t-4 -57zM367 1032q0 -25 6.5 -53t20.5 -57t43 -47.5t67 -18.5q72 0 106.5 53t34.5 125q0 187 -141 187q-43 0 -72 -19.5t-42 -51.5t-18 -60t-5 -58z" />
<glyph unicode="9" horiz-adv-x="927" d="M51 924q0 140 44.5 254.5t135 185t213.5 70.5q116 0 201.5 -55.5t135 -156t73 -227t23.5 -282.5q0 -736 -451 -736q-112 0 -194 59t-126 157q-12 24 -12 45q0 18 23 32l121 60q13 8 30 8t31 -23q30 -51 58.5 -69.5t70.5 -18.5q160 0 172 377q-88 -115 -225 -115 q-64 0 -119 22t-102.5 70t-75 136t-27.5 207zM311 934q0 -213 121 -213q47 0 86.5 20.5t77.5 75.5q0 31 -3.5 73t-14 97t-26.5 100t-43.5 76t-62.5 31q-63 0 -99 -64t-36 -196z" />
<glyph unicode=":" horiz-adv-x="456" d="M82 129q0 67 41 114.5t104 47.5q67 0 107.5 -47t40.5 -115t-41.5 -114t-106.5 -46q-61 0 -103 46t-42 114zM82 874q0 67 41 114.5t104 47.5q67 0 107.5 -47t40.5 -115t-41.5 -113.5t-106.5 -45.5q-62 0 -103.5 46t-41.5 113z" />
<glyph unicode=";" horiz-adv-x="483" d="M20 -180q0 1 5 30l84 381q7 31 20.5 40.5t38.5 9.5h176q14 0 23.5 -8t9.5 -21q0 -14 -8 -35l-160 -383q-20 -47 -68 -47h-82q-19 0 -29 10t-10 23zM109 874q0 67 40.5 114.5t102.5 47.5q67 0 108 -47t41 -115q0 -69 -41 -114t-108 -45q-61 0 -102 45.5t-41 113.5z" />
<glyph unicode="&#x3c;" horiz-adv-x="761" d="M72 723v68q0 63 59 108l485 365q20 14 39 14q35 0 35 -35v-86q0 -30 -9.5 -48t-39.5 -42l-373 -309l373 -309q29 -22 39 -41.5t10 -47.5v-88q0 -34 -33 -34q-18 0 -43 18l-475 354q-36 28 -51.5 51.5t-15.5 61.5z" />
<glyph unicode="=" horiz-adv-x="677" d="M72 354v107q0 41 39 41h454q41 0 41 -41v-103q0 -45 -41 -45h-454q-39 0 -39 41zM72 713v106q0 41 39 41h454q41 0 41 -41v-102q0 -45 -41 -45h-454q-39 0 -39 41z" />
<glyph unicode="&#x3e;" horiz-adv-x="761" d="M72 272v88q0 28 10 47.5t39 41.5l373 309l-373 309q-30 24 -39.5 42t-9.5 48v86q0 35 34 35q19 0 39 -14l486 -365q59 -45 59 -108v-68q0 -38 -15.5 -61.5t-51.5 -51.5l-476 -354q-25 -18 -43 -18q-32 0 -32 34z" />
<glyph unicode="?" horiz-adv-x="784" d="M2 1278q0 7 4 27q34 133 138.5 216t242.5 83q56 0 108.5 -12t104 -42.5t89.5 -76t61.5 -118t23.5 -163.5q0 -68 -14.5 -130t-44.5 -119t-47.5 -84.5t-51.5 -74.5q-11 -17 -41 -57t-43.5 -60.5t-26.5 -52.5t-13 -59v-88q0 -21 -9 -34t-24 -13h-219q-41 0 -41 45v94 q0 44 7.5 79.5t27.5 73t35 60.5t52.5 72.5t57.5 77.5q55 73 80.5 134t25.5 142q0 50 -28.5 96.5t-77.5 46.5q-51 0 -84.5 -31t-63.5 -102q-10 -24 -28 -24q-9 0 -21 4l-157 59q-23 8 -23 31zM180 152q0 74 50 124t124 50q69 0 117.5 -50.5t48.5 -123.5q0 -83 -47.5 -133 t-118.5 -50q-74 0 -124 52.5t-50 130.5z" />
<glyph unicode="@" horiz-adv-x="1302" d="M41 772q0 385 159 586t472 201q161 0 274 -44.5t183 -136.5t101.5 -224.5t31.5 -317.5q0 -265 -85 -396t-233 -131q-39 0 -67.5 4.5t-56 16.5t-46 36.5t-29.5 61.5q-19 -39 -45 -66t-53.5 -38.5t-48 -16t-39.5 -4.5q-291 0 -291 459q0 104 18.5 186.5t48.5 134.5t71 86 t82 48t85 14q62 0 103 -24.5t76 -84.5l14 49q5 23 16.5 32t20.5 9h137q37 0 37 -47v-641q0 -25 6 -32t21 -7q122 0 122 351q0 172 -27 288t-85.5 185.5t-141.5 99t-204 29.5q-502 0 -502 -668q0 -180 37 -311.5t105 -207.5t153.5 -111.5t191.5 -35.5q101 0 217 34t205 104 q18 12 31 12q17 0 27 -16l26 -50q8 -13 8 -26q0 -19 -18 -33q-204 -152 -496 -152q-142 0 -252.5 45t-192 138.5t-124.5 248t-43 363.5zM514 758q0 -61 4.5 -105.5t16 -82t33.5 -57t55 -19.5q71 0 112 81v381q-28 91 -98 91q-14 0 -25 -2.5t-31 -18t-33 -44t-23.5 -86.5 t-10.5 -138z" />
<glyph unicode="A" horiz-adv-x="1177" d="M12 31l2 22l312 1207q8 30 16 54t28 57.5t44.5 56t66.5 39t94 16.5h27q196 0 250 -223l311 -1209q2 -4 2 -16q0 -15 -8 -25t-22 -10h-207q-24 0 -34.5 9t-16.5 36l-86 354h-404l-84 -354q-7 -26 -18 -35.5t-33 -9.5h-207q-15 0 -24 8.5t-9 22.5zM442 627h293l-86 393 l-59 278l-62 -280z" />
<glyph unicode="B" horiz-adv-x="1064" d="M123 47v1374q0 48 39 52q75 10 311 10q59 0 107 -3t103.5 -13t97.5 -26.5t82.5 -45.5t67 -68.5t42.5 -97t16 -129.5q0 -218 -205 -299q108 -32 174 -117t66 -229q0 -234 -121 -350.5t-391 -116.5q-287 0 -348 12q-41 8 -41 47zM410 233q49 -6 129 -6q89 0 140.5 59 t51.5 177q0 227 -203 227q-34 0 -74.5 -1t-43.5 -1v-455zM410 907q5 0 46 -1t66 -1q90 0 132 41t42 137q0 43 -13 74t-31.5 48t-47.5 26t-51.5 11.5t-52.5 2.5q-33 0 -90 -6v-332z" />
<glyph unicode="C" horiz-adv-x="1042" d="M61 739q0 139 14.5 248.5t52 207.5t98 162.5t155.5 102t221 37.5q303 0 402 -272q8 -24 8 -39q0 -27 -25 -37l-139 -49q-18 -6 -33 -6q-26 0 -43 28q-42 73 -83.5 100t-94.5 27q-132 0 -186 -124.5t-54 -381.5q0 -78 7 -146t26.5 -136t49.5 -115.5t79.5 -77.5t114.5 -30 q38 0 72 3.5t67 13t48 14t47.5 17.5t33.5 13q13 8 29 8q21 0 28 -20l60 -164q4 -16 4 -21q0 -23 -23 -36q-63 -36 -166 -62.5t-221 -26.5q-142 0 -248.5 53.5t-171.5 155t-97 239.5t-32 314z" />
<glyph unicode="D" horiz-adv-x="1222" d="M123 49v1381q0 44 33 47q88 8 381 8q215 0 348 -62q144 -77 210 -247t66 -431q0 -229 -37 -379t-125 -239q-157 -139 -501 -139q-275 0 -340 10q-35 5 -35 51zM410 227q53 -6 163 -6q137 0 207 96q52 70 69 176t17 244q0 144 -20 253.5t-80 178.5q-70 82 -221 82 q-89 0 -135 -6v-1018z" />
<glyph unicode="E" horiz-adv-x="886" d="M125 160v1128q0 41 2.5 65.5t11.5 51t26.5 40t49 22t78.5 8.5h514q15 0 24 -11t9 -30v-154q0 -47 -33 -47h-395v-320h331q15 0 24 -11t9 -30v-151q0 -47 -31 -47h-333v-432h419q35 0 35 -43v-154q0 -22 -7 -33.5t-28 -11.5h-561q-145 0 -145 160z" />
<glyph unicode="F" horiz-adv-x="847" d="M123 41v1270q0 55 9 88t31.5 49.5t49.5 21.5t74 5h516q35 0 35 -41v-154q0 -47 -35 -47h-393v-320h344q34 0 34 -41v-151q0 -47 -32 -47h-346v-629q0 -45 -37 -45h-213q-37 0 -37 41z" />
<glyph unicode="G" horiz-adv-x="1118" d="M61 743q0 129 14.5 235t52.5 205t97.5 166.5t155.5 107.5t221 40q309 0 406 -274q8 -28 8 -39q0 -22 -27 -35l-129 -47q-20 -10 -37 -10q-30 0 -43 26q-42 70 -85 100.5t-105 30.5q-65 0 -112.5 -39.5t-73.5 -111t-38 -158.5t-12 -195q0 -101 8.5 -179.5t28.5 -143.5 t52 -107t80.5 -65t113.5 -23q73 0 127 23v307h-109q-39 0 -39 43v152q0 45 37 45h221q87 0 124.5 -37t37.5 -133v-445q0 -40 -3 -58t-21 -39t-58 -40q-76 -34 -171.5 -51t-164.5 -17q-557 0 -557 766z" />
<glyph unicode="H" horiz-adv-x="1292" d="M123 41v1393q0 41 39 41h205q41 0 41 -41v-521h475v521q0 41 41 41h206q39 0 39 -41v-1389q0 -45 -39 -45h-206q-41 0 -41 41v633h-475v-629q0 -45 -41 -45h-205q-39 0 -39 41z" />
<glyph unicode="I" horiz-adv-x="532" d="M123 41v1393q0 41 39 41h207q41 0 41 -41v-1389q0 -45 -41 -45h-207q-39 0 -39 41z" />
<glyph unicode="J" horiz-adv-x="755" d="M12 82q0 7 3 17t5 17l3 7l49 131q9 27 37 27q11 0 28 -7q78 -32 123 -32q14 0 24.5 2t24 9t21.5 24.5t8 44.5v913h-162q-20 0 -26.5 11.5t-6.5 33.5v154q0 41 35 41h389q37 0 51.5 -13t14.5 -43v-1069q0 -70 -9.5 -125t-32.5 -102.5t-60 -79t-94.5 -49t-133.5 -17.5 q-153 0 -268 64q-23 11 -23 41z" />
<glyph unicode="K" horiz-adv-x="1142" d="M123 41v1393q0 41 33 41h219q35 0 35 -41v-527h116l258 531q18 37 56 37h231q29 0 29 -29q0 -17 -10 -37l-322 -612l362 -731q11 -22 11 -39q0 -27 -31 -27h-223q-14 0 -21 0.5t-16.5 4t-16.5 12t-14 22.5l-291 633h-118v-627q0 -45 -35 -45h-219q-33 0 -33 41z" />
<glyph unicode="L" horiz-adv-x="899" d="M125 168v1257q0 50 35 50h223q35 0 35 -41v-1196h438q15 0 24 -12t9 -31v-150q0 -45 -37 -45h-576q-49 0 -80.5 12.5t-46 38t-19.5 52t-5 65.5z" />
<glyph unicode="M" horiz-adv-x="1609" d="M94 45l56 1180q12 258 249 258q67 0 113.5 -18t74 -53.5t41.5 -74.5t25 -96l115 -756l37 -231l37 231l114 752q20 127 76.5 186.5t184.5 59.5q234 0 243 -262l56 -1176q1 -20 -8 -32.5t-23 -12.5h-199q-35 0 -37 45l-32 965l-11 311l-47 -307l-119 -717q-5 -30 -12 -53.5 t-24 -52.5t-40.5 -48t-64 -32t-92.5 -13h-19q-189 0 -219 203l-116 705l-50 313l-10 -313l-35 -963q0 -43 -32 -43h-199q-14 0 -24 10.5t-9 34.5z" />
<glyph unicode="N" horiz-adv-x="1312" d="M123 49v1161q0 135 66 204t186 69q110 0 172 -54t98 -190l184 -651l97 -381l-6 403l-5 817q0 27 12 37.5t36 10.5h180q25 0 36 -9.5t11 -38.5v-1191q0 -112 -68 -179t-178 -67q-106 0 -171.5 52.5t-98.5 170.5l-215 762l-72 293l4 -322l6 -895q0 -29 -9.5 -40t-35.5 -11 h-190q-24 0 -31.5 12t-7.5 37z" />
<glyph unicode="O" horiz-adv-x="1216" d="M61 743q0 137 17.5 248.5t46.5 188.5t72.5 135t89 92t103 55t108.5 28t110 7t110 -7t108.5 -27.5t103 -54.5t89 -91.5t72.5 -134.5t46.5 -188.5t17.5 -248.5q0 -142 -17.5 -256.5t-46 -193.5t-72 -137.5t-89 -92.5t-103.5 -54.5t-108.5 -27t-110.5 -6.5t-110.5 7 t-108 27.5t-103 54.5t-89 93t-72.5 137.5t-46.5 192.5t-17.5 254zM356 741q0 -106 12 -194t39 -166t78 -122t123 -44q68 0 117.5 39t78.5 112t42.5 167t13.5 212q0 99 -12 184.5t-38.5 163t-77 122.5t-120.5 45q-74 0 -126 -44t-79.5 -121.5t-39 -163.5t-11.5 -190z" />
<glyph unicode="P" horiz-adv-x="991" d="M123 41v1393q0 39 29 43q61 6 319 6q127 0 217 -23.5t155 -78t96.5 -148t31.5 -229.5q0 -111 -26.5 -199.5t-81 -155.5t-142.5 -103t-205 -36h-100v-465q0 -45 -37 -45h-219q-37 0 -37 41zM416 748q62 -5 71 -5q61 0 100.5 19t58 56.5t24.5 75.5t6 95q0 47 -3.5 82 t-14.5 70t-30 57t-50.5 35.5t-75.5 13.5q-57 0 -86 -4v-495z" />
<glyph unicode="Q" horiz-adv-x="1216" d="M61 743q0 137 17.5 248.5t46.5 188.5t72.5 135t89 92t103 55t108.5 28t110 7t110 -7t108.5 -27.5t103 -54.5t89 -91.5t72.5 -134.5t46.5 -188.5t17.5 -248.5q0 -608 -321 -733l133 -178q12 -12 12 -29q0 -30 -35 -30h-196q-35 0 -50.5 6.5t-33.5 34.5l-99 164h-6 q-56 3 -103.5 13t-99.5 33.5t-94 60t-80.5 95.5t-64 136t-41 185t-15.5 240zM356 741q0 -106 12 -194t39 -166t78 -122t123 -44q68 0 117.5 39t78.5 112t42.5 167t13.5 212q0 99 -12 184.5t-38.5 163t-77 122.5t-120.5 45q-74 0 -126 -44t-79.5 -121.5t-39 -163.5 t-11.5 -190z" />
<glyph unicode="R" horiz-adv-x="1017" d="M123 41v1384q0 44 22 50q44 12 299 12q259 0 377.5 -103.5t118.5 -343.5q0 -82 -18 -147.5t-51.5 -111t-69.5 -75.5t-84 -55l295 -598q6 -9 6 -26q0 -11 -10 -19t-21 -8h-233q-38 0 -56 37l-233 545q-12 -2 -76 -2v-539q0 -41 -27 -41h-217q-22 0 -22 41zM389 821 q30 -6 62 -6q64 0 106.5 16t64 47.5t29.5 68t8 87.5q0 120 -49 164.5t-147 44.5q-47 0 -74 -4v-418z" />
<glyph unicode="S" horiz-adv-x="921" d="M53 113q0 13 6 28l54 135q10 31 34 31q12 0 21 -6q149 -86 262 -86q168 0 168 166q0 27 -4.5 49t-16 42t-20.5 33.5t-30.5 31.5t-33 26.5t-40.5 28.5t-41 29l-62 38q-58 35 -101 70t-84.5 85t-64 115.5t-22.5 143.5q0 201 102 312.5t293 111.5q137 0 223.5 -58 t132.5 -182q1 -4 4 -13.5t3 -14.5q0 -25 -21 -33l-151 -53q-6 -4 -19 -4q-24 0 -35 22q-28 49 -57.5 74t-73.5 25q-61 0 -94 -43t-33 -121q0 -30 10.5 -58.5t21 -46t38.5 -42.5t38 -32.5t47 -32t40 -26.5l71 -49q149 -101 201.5 -195t52.5 -221q0 -93 -26 -165.5t-69 -119 t-103 -76.5t-123 -42.5t-135 -12.5q-83 0 -179 25.5t-161 73.5q-23 17 -23 37z" />
<glyph unicode="T" horiz-adv-x="944" d="M0 1280v154q0 41 35 41h874q15 0 25 -11.5t10 -29.5v-154q0 -47 -35 -47h-291v-1188q0 -45 -36 -45h-220q-36 0 -36 41v1192h-291q-35 0 -35 47z" />
<glyph unicode="U" horiz-adv-x="1220" d="M113 553v881q0 41 32 41h220q32 0 32 -41v-893q0 -81 10 -138.5t27 -92.5t45.5 -55t59 -27t73.5 -7q53 0 89 13t65 47t43 99t14 165v889q0 41 35 41h217q33 0 33 -41v-859q0 -144 -24.5 -250t-81 -186.5t-154.5 -121t-238 -40.5q-111 0 -197 28t-142 78t-92 123.5 t-51 158t-15 188.5z" />
<glyph unicode="V" horiz-adv-x="1146" d="M10 1438q0 12 8 24.5t21 12.5h203q25 0 35.5 -13.5t15.5 -42.5l209 -936l71 -329l70 325l209 940q6 31 17 43.5t34 12.5h197q35 0 35 -37q0 -9 -5 -29l-290 -1194q-54 -223 -254 -223h-25q-54 0 -97 16t-69 38t-45.5 55t-28.5 58.5t-16 57.5l-291 1194q-4 16 -4 27z" />
<glyph unicode="W" horiz-adv-x="1562" d="M20 1438q0 5 2 12.5t10.5 16t22.5 8.5h199q10 0 17 -3t11 -6.5t7 -10.5t3.5 -10.5t1.5 -11t1 -8.5l72 -970l26 -287l47 287l115 680q19 101 67 152.5t144 51.5h33q96 0 141 -50.5t64 -151.5l110 -635l55 -332l25 317l72 928q0 60 45 60h190q19 0 28.5 -8t11 -16t1.5 -24 q0 -10 -4 -34l-123 -1160q-13 -120 -64.5 -182.5t-158.5 -62.5h-25q-187 0 -223 202l-131 738l-31 207l-32 -207l-127 -723q-10 -68 -34.5 -113.5t-59 -66.5t-67 -29t-73.5 -8h-22q-195 0 -222 252l-122 1153q-1 12 -1.5 22.5t-1 14.5t-0.5 8z" />
<glyph unicode="X" horiz-adv-x="1050" d="M0 33q0 10 8 30l320 717l-271 633q-8 20 -8 33q0 10 8 19.5t17 9.5h217q40 0 53 -33l125 -371l53 -158l56 156l127 371q13 35 51 35h217q10 0 18 -9.5t8 -21.5q0 -18 -6 -27l-270 -637l317 -717q9 -21 9 -32q0 -14 -10.5 -22.5t-26.5 -8.5h-205q-47 0 -59 37l-160 405 l-64 168l-67 -182l-156 -393q-7 -21 -21.5 -28t-39.5 -7h-207q-15 0 -24 9.5t-9 23.5z" />
<glyph unicode="Y" horiz-adv-x="991" d="M12 1444q0 31 23 31h223q11 0 17 -1t14.5 -9.5t15.5 -24.5l113 -330l78 -227l77 227l115 330q6 16 14.5 24.5t14.5 9.5t18 1h219q11 0 18 -10t7 -23q0 -9 -4 -21l-342 -800v-580q0 -41 -27 -41h-221q-27 0 -27 41v577l-342 803q-4 12 -4 23z" />
<glyph unicode="Z" horiz-adv-x="1034" d="M41 139q0 85 41 148l457 760l114 190l-178 -4h-350q-33 0 -33 47v154q0 19 9 30t24 11h717q153 0 153 -160q0 -58 -45 -135l-454 -754l-113 -190l182 4l408 2q31 0 31 -43v-154q0 -22 -7 -33.5t-28 -11.5h-772q-59 0 -107.5 37.5t-48.5 101.5z" />
<glyph unicode="[" horiz-adv-x="565" d="M125 -78v1415q0 25 1.5 43t10 46t23.5 45.5t45.5 31t73.5 13.5h253q33 0 33 -43v-144q0 -43 -33 -43h-145v-1313h145q33 0 33 -43v-143q0 -43 -33 -43h-253q-44 0 -75 13.5t-46 30.5t-23 46t-9 45t-1 43z" />
<glyph unicode="\" horiz-adv-x="622" d="M0 1524q0 32 37 32h104q21 0 32 -10t17 -37l338 -1476q2 -6 2 -21q0 -32 -36 -32h-105q-21 0 -32 10t-17 37l-338 1476q-2 6 -2 21z" />
<glyph unicode="]" horiz-adv-x="567" d="M0 -70q0 43 35 43h145v1313h-145q-35 0 -35 43v144q0 43 35 43h252q43 0 74 -13.5t46.5 -31t23.5 -46t9.5 -46t1.5 -42.5v-1415q0 -26 -1 -42.5t-9.5 -45.5t-23.5 -46t-46 -30.5t-75 -13.5h-252q-35 0 -35 43v143z" />
<glyph unicode="^" horiz-adv-x="1001" d="M72 899q0 15 14 43l281 576q30 61 98 61h70q39 0 62.5 -16t41.5 -52l276 -569q15 -30 15 -45q0 -35 -29 -35h-90q-51 0 -78 56l-233 440l-230 -440q-27 -56 -73 -56h-99q-9 0 -17.5 9t-8.5 28z" />
<glyph unicode="_" horiz-adv-x="1009" d="M72 -170q0 18 10 29.5t24 11.5h799q14 0 23.5 -11t9.5 -30v-149q0 -41 -35 -41h-797q-34 0 -34 41v149z" />
<glyph unicode="`" horiz-adv-x="606" d="M102 1567q0 30 33 30h180q36 0 54 -38l129 -265q6 -18 6 -28q0 -9 -8.5 -18t-18.5 -9h-123q-19 0 -33 9t-32 32l-176 254q-11 19 -11 33z" />
<glyph unicode="a" d="M41 539q0 275 95 426t276 151q66 0 125.5 -33t87.5 -102l24 80q5 16 12.5 24.5t13 9.5t15.5 1h162q33 0 33 -47v-793q0 -41 13 -56.5t44 -15.5q29 0 29 -45v-84q0 -17 -5 -29.5t-18 -19.5t-23.5 -11.5t-34 -6t-36 -2t-41.5 -0.5q-170 0 -197 143q-22 -46 -53 -78.5 t-65.5 -47t-62.5 -20.5t-56 -6q-74 0 -133.5 30t-106.5 94t-72.5 175.5t-25.5 262.5zM319 543q0 -66 4.5 -116.5t18 -111t45.5 -94t80 -33.5q104 0 147 129v461q-23 72 -60.5 99.5t-72.5 27.5q-162 0 -162 -362z" />
<glyph unicode="b" d="M102 43v1411q0 42 27 49l186 37q20 4 31 4q10 0 18.5 -9.5t8.5 -29.5v-538q23 46 55.5 78t67 46t61.5 19.5t53 5.5q160 0 248 -138.5t88 -416.5q0 -134 -22 -238.5t-57.5 -168.5t-84.5 -105t-97.5 -56.5t-102.5 -15.5q-157 0 -220 136l-22 -74q-6 -22 -15 -30.5t-28 -8.5 h-164q-31 0 -31 43zM373 317q13 -44 33.5 -73t43 -39t34 -12.5t22.5 -2.5q83 0 122.5 91t39.5 278q0 348 -146 348q-19 0 -33 -3t-37 -14t-43.5 -40t-35.5 -74v-459z" />
<glyph unicode="c" horiz-adv-x="837" d="M41 553q0 563 434 563q271 0 334 -258q4 -12 4 -22q0 -25 -22 -33l-152 -47q-12 -4 -18 -4q-23 0 -31 22q-23 54 -48.5 81.5t-72.5 27.5q-154 0 -154 -330q0 -338 185 -338q95 0 209 53q12 6 24 6q19 0 27 -26l43 -137q6 -18 6 -33q0 -16 -23 -29q-54 -33 -135 -52.5 t-170 -19.5q-72 0 -131.5 14t-118.5 53t-99.5 101.5t-65.5 166.5t-25 241z" />
<glyph unicode="d" horiz-adv-x="985" d="M41 528q0 104 12.5 190t34 146t52 106t62.5 73t70.5 44t72.5 23t71 6q134 0 200 -121v459q0 41 23 49l192 37q8 4 27 4q8 0 16.5 -10t8.5 -29v-1458q0 -47 -31 -47h-164q-36 0 -45 39l-25 90q-73 -152 -243 -152q-159 0 -246.5 136.5t-87.5 414.5zM319 543 q0 -74 5.5 -130.5t20.5 -111t46.5 -84t77.5 -29.5q44 0 85 33t62 96v463q-24 67 -60 96t-71 29q-166 0 -166 -362z" />
<glyph unicode="e" horiz-adv-x="901" d="M41 537q0 297 116.5 438t319.5 141q89 0 156 -29t107.5 -73.5t66.5 -111.5t36.5 -129.5t14.5 -139.5q2 -37 2 -107q0 -57 -45 -57h-491q2 -127 41.5 -187.5t132.5 -60.5q110 0 243 49q12 4 23 4q8 0 15.5 -6.5t8.5 -17.5l35 -144q4 -16 4 -26q0 -19 -22 -33 q-33 -22 -129 -46t-195 -24q-207 0 -323.5 135t-116.5 425zM326 653h262q2 16 2 41q0 31 -4.5 61t-16 64t-36 55t-58.5 21q-136 0 -149 -242z" />
<glyph unicode="f" horiz-adv-x="604" d="M8 915v140q0 41 31 41h104v80q0 87 16.5 152.5t43.5 106t68 65.5t85 34.5t99 9.5q60 0 117 -16t81 -35q17 -12 17 -29l-4 -22l-45 -119q-11 -35 -31 -35q-9 0 -43.5 9.5t-57.5 9.5q-42 0 -60.5 -27t-18.5 -98v-86h149q29 0 29 -41v-133q0 -48 -29 -48h-149v-829 q0 -45 -31 -45h-205q-31 0 -31 41v833h-104q-31 0 -31 41z" />
<glyph unicode="g" horiz-adv-x="991" d="M41 541q0 279 98.5 427t272.5 148q65 0 125 -33.5t90 -101.5l22 78q7 37 37 37h164q18 0 25.5 -10.5t7.5 -34.5v-1026q0 -89 -16.5 -159t-40.5 -115.5t-65.5 -77.5t-76 -47.5t-89 -24t-87 -10t-86.5 -1.5q-82 0 -172.5 19.5t-143.5 44.5q-22 11 -22 33l4 24l45 133 q11 31 33 31q12 0 27 -6q132 -51 251 -51q98 0 136 39t38 149v123q-21 -46 -52 -78t-64.5 -47t-61 -21t-53.5 -6q-80 0 -141.5 29.5t-108.5 94.5t-71.5 175.5t-24.5 264.5zM319 545q0 -72 4.5 -125t19 -111.5t47 -89.5t81.5 -31q43 0 81.5 32.5t63.5 96.5v463 q-42 125 -135 125q-162 0 -162 -360z" />
<glyph unicode="h" horiz-adv-x="1015" d="M102 41v1413q0 38 21 49l188 37q20 4 31 4q10 0 18.5 -9.5t8.5 -29.5v-538q95 149 262 149q282 0 282 -428v-643q0 -15 -1.5 -23.5t-8.5 -15t-20 -6.5h-205q-31 0 -31 41v664q0 111 -29.5 155.5t-82.5 44.5q-116 0 -166 -160v-700q0 -45 -31 -45h-207q-29 0 -29 41z" />
<glyph unicode="i" horiz-adv-x="460" d="M80 1341q0 72 45 110t104 38t104.5 -38t45.5 -110q0 -71 -45.5 -108t-104.5 -37t-104 37t-45 108zM98 41v1014q0 41 29 41h205q30 0 30 -41v-1010q0 -45 -30 -45h-205q-29 0 -29 41z" />
<glyph unicode="j" horiz-adv-x="403" d="M-205 -342q0 5 4 25l37 135q6 24 29 24q6 0 38 -9t64 -9q42 0 58 27t16 104v1100q0 41 31 41h200q31 0 31 -41v-1082q0 -206 -68.5 -294.5t-248.5 -88.5q-101 0 -170 37q-21 12 -21 31zM23 1341q0 73 43 110.5t102 37.5t105 -38t46 -110q0 -71 -46 -108t-105 -37t-102 37 t-43 108z" />
<glyph unicode="k" horiz-adv-x="915" d="M102 41v1413q0 38 21 49l190 37q20 4 29 4q10 0 18.5 -9.5t8.5 -29.5v-768h73l162 332q12 27 45 27h221q9 0 16 -7.5t7 -19.5q0 -13 -8 -29l-240 -430l266 -561q4 -14 4 -24q0 -8 -6 -16.5t-18 -8.5h-217q-29 0 -43 31l-217 487h-45v-473q0 -45 -33 -45h-203 q-31 0 -31 41z" />
<glyph unicode="l" horiz-adv-x="483" d="M109 43v1411q0 42 22 49l188 37q20 4 29 4q10 0 18.5 -9.5t8.5 -29.5v-1458q0 -23 -6 -35t-25 -12h-203q-32 0 -32 43z" />
<glyph unicode="m" horiz-adv-x="1519" d="M102 41v1014q0 41 31 41h166q30 0 37 -39l24 -107q95 166 271 166q89 0 146 -41t87 -137q100 178 277 178q47 0 83.5 -9.5t73.5 -38t61 -75.5t39 -127.5t15 -189.5v-631q0 -45 -31 -45h-202q-33 0 -33 41v655q0 117 -25.5 163t-81.5 46q-88 0 -139 -117v-743 q0 -45 -33 -45h-202q-31 0 -31 41v657q0 115 -25 161t-88 46q-38 0 -82 -36t-71 -124v-700q0 -45 -31 -45h-207q-29 0 -29 41z" />
<glyph unicode="n" horiz-adv-x="1015" d="M102 41v1014q0 41 31 41h162q15 0 24.5 -7t11.5 -13.5t5 -20.5q-1 -3 24 -103q89 164 277 164q61 0 107.5 -18.5t86 -64t61 -132.5t21.5 -213v-643q0 -15 -1.5 -23.5t-8.5 -15t-20 -6.5h-205q-31 0 -31 41v653q0 124 -29 167.5t-79 43.5q-60 0 -104 -42.5t-66 -117.5 v-700q0 -45 -31 -45h-207q-29 0 -29 41z" />
<glyph unicode="o" horiz-adv-x="956" d="M41 547q0 151 34.5 263.5t96.5 178t140.5 96.5t174.5 31q106 0 188.5 -42.5t134.5 -119t78.5 -179.5t26.5 -228q0 -129 -25.5 -230t-66.5 -164t-98.5 -103.5t-116.5 -56.5t-125 -16q-208 0 -325 142.5t-117 427.5zM319 547q0 -93 9 -160t23.5 -105t36.5 -60.5t43.5 -29 t49.5 -6.5q80 0 118 80.5t38 280.5q0 189 -38 274.5t-114 85.5q-37 0 -64 -13.5t-51.5 -50t-37.5 -111t-13 -185.5z" />
<glyph unicode="p" horiz-adv-x="985" d="M102 -408v1457q0 23 6 35t25 12h164q30 0 39 -39l24 -109q25 53 57 89t67 52t63.5 21.5t62.5 5.5q158 0 246 -135t88 -412q0 -144 -24 -253.5t-60.5 -172.5t-88.5 -101.5t-99 -51.5t-101 -13q-62 0 -116.5 29t-85.5 92v-501q0 -48 -33 -48h-203q-31 0 -31 43zM369 313 q24 -68 63.5 -96.5t77.5 -28.5q75 0 115.5 92t40.5 275q0 350 -150 350q-45 0 -84.5 -32t-62.5 -99v-461z" />
<glyph unicode="q" d="M41 535q0 135 22 239.5t57.5 167.5t85 103.5t98 55.5t102.5 15q34 0 61 -4.5t57 -18t55.5 -41.5t45.5 -71l24 82q6 21 13.5 28t23.5 7h166q33 0 33 -41v-1460q0 -48 -33 -48h-205q-33 0 -33 43v533q-23 -46 -57 -78t-70 -46t-63 -19t-51 -5q-157 0 -244.5 144.5 t-87.5 413.5zM319 537q0 -349 150 -349q36 0 77 28t68 101v459q-31 118 -129 129q-83 0 -124.5 -86t-41.5 -282z" />
<glyph unicode="r" horiz-adv-x="663" d="M102 41v1014q0 41 29 41h164q32 0 41 -35l26 -131q33 81 87 127.5t120 46.5q51 0 76 -14q17 -11 17 -27q0 -4 -3 -19l-38 -182q-6 -26 -27 -26q-5 0 -29.5 5t-46.5 5t-47 -9t-55.5 -38t-46.5 -74v-678q0 -47 -33 -47h-205q-29 0 -29 41z" />
<glyph unicode="s" horiz-adv-x="741" d="M41 86q0 11 4 23l45 131q7 26 31 26q11 0 20 -6q103 -55 183 -55q108 0 108 92q0 13 -3 24.5t-6.5 20t-13.5 18t-15.5 15t-21 15t-22.5 13.5t-28 15t-29 16l-49 27q-109 59 -153 140t-44 185q0 154 95 242t237 88q114 0 187 -52.5t106 -141.5q6 -18 6 -33q0 -21 -21 -31 l-120 -55q-16 -8 -27 -8q-15 0 -29 22q-19 36 -39.5 55t-56.5 19q-33 0 -59.5 -21t-26.5 -73q0 -48 27.5 -79t83.5 -63l49 -26q123 -70 182 -142t59 -184q0 -164 -104.5 -245t-269.5 -81q-56 0 -132.5 19t-127.5 53q-25 17 -25 37z" />
<glyph unicode="t" horiz-adv-x="626" d="M10 915v140q0 41 29 41h86v149q0 17 5 27.5t9 13t6 2.5l191 37q16 4 29 4q10 0 18 -10.5t8 -30.5v-192h164q31 0 31 -41v-133q0 -48 -31 -48h-164v-587q0 -64 53 -64q15 0 60 15q15 6 24 6q21 0 27 -25l35 -127q1 -4 2.5 -12t2.5 -13.5t1 -9.5q0 -21 -23 -34 q-23 -15 -83 -30.5t-117 -15.5q-38 0 -70.5 6.5t-66 25t-57.5 48.5t-39 80.5t-15 116.5v620h-86q-29 0 -29 41z" />
<glyph unicode="u" horiz-adv-x="1005" d="M92 385v666q0 45 31 45h203q32 0 32 -41v-643q0 -72 8 -118t26 -68t37 -29t50 -7q39 0 87.5 36t70.5 124v701q0 45 31 45h206q29 0 29 -41v-1014q0 -41 -31 -41h-161q-5 0 -9.5 0.5t-8 2.5t-6 3.5t-5 5t-3.5 5t-3 7t-2.5 7t-3 8.5t-2.5 8l-23 94q-29 -53 -69 -89 t-80 -50.5t-65 -19.5t-44 -5q-47 0 -85.5 8.5t-79 34.5t-68 69.5t-45 119t-17.5 176.5z" />
<glyph unicode="v" horiz-adv-x="860" d="M0 1063q0 14 7.5 23.5t17.5 9.5h198q22 0 31 -35l125 -651l51 -254l51 250l125 655q9 35 31 35h199q9 0 16.5 -9.5t7.5 -23.5q0 -11 -4 -31l-201 -895q-18 -80 -71.5 -114.5t-141.5 -34.5h-24q-98 0 -146.5 36t-68.5 123l-199 885q-4 20 -4 31z" />
<glyph unicode="w" horiz-adv-x="1263" d="M2 1047v8q0 18 8 29.5t21 11.5h180q15 0 22.5 -9t10.5 -34l65 -647l29 -248l31 243l49 369q23 180 209 180q88 0 143.5 -43t65.5 -125l51 -405l26 -223l25 223l72 676q3 25 10.5 34t21.5 9h181q28 0 28 -41v-8l-108 -885q-21 -174 -228 -174q-89 0 -139 39t-63 127 l-54 350l-32 282l-37 -282l-47 -340q-5 -30 -9.5 -49.5t-19 -46t-36.5 -42t-62 -27t-94 -11.5q-85 0 -143.5 42.5t-69.5 135.5z" />
<glyph unicode="x" horiz-adv-x="827" d="M10 23q0 17 10 40l207 517l-180 448q-12 28 -12 43q0 10 6.5 17.5t19.5 7.5h185q16 0 26.5 -7.5t13.5 -15t7 -22.5l67 -197l54 -170l55 174l68 201q7 20 16.5 28.5t32.5 8.5h180q27 0 27 -27q0 -15 -9 -33l-186 -456l211 -519q8 -28 8 -36q0 -11 -7 -18t-19 -7h-189 q-34 0 -47 33l-102 293l-39 125l-41 -134l-101 -284q-11 -33 -45 -33h-186q-31 0 -31 23z" />
<glyph unicode="y" horiz-adv-x="843" d="M-20 1063q0 33 26 33h197q30 0 37 -45l116 -586l58 -309l59 309l107 594q8 37 38 37h185q31 0 31 -33q0 -11 -5 -31l-227 -1130q-33 -171 -113.5 -241.5t-230.5 -70.5q-72 0 -145.5 15.5t-106.5 36.5q-20 11 -20 36q0 9 4 29l35 111q4 15 13.5 23.5t18.5 8.5q11 0 68 -17 t111 -17q48 0 78 20.5t44 81.5l15 70q-89 12 -129.5 48t-61.5 130l-200 878q-2 8 -2 19z" />
<glyph unicode="z" horiz-adv-x="802" d="M31 147q0 53 37 123l272 445l84 141l-131 -2h-203q-31 0 -31 43v158q0 41 31 41h526q58 0 99 -32t41 -103q0 -70 -39 -136l-262 -432l-93 -147l148 2l229 2q14 0 23.5 -11.5t9.5 -29.5v-162q0 -47 -37 -47h-563q-15 0 -32 3.5t-37 13.5t-35.5 25.5t-26 43t-10.5 61.5z " />
<glyph unicode="{" horiz-adv-x="643" d="M82 561v137q0 28 8.5 41t34.5 13q40 0 55 25t15 83v311q0 69 9 122.5t22.5 89.5t37 61.5t45.5 39t56 21t61 9.5t66 2h96q26 0 35.5 -12t9.5 -42v-129q0 -15 -1.5 -23.5t-11 -16t-26.5 -7.5h-66q-77 0 -77 -86v-346q0 -99 -38.5 -152.5t-152.5 -72.5q110 -19 150.5 -73.5 t40.5 -149.5v-347q0 -49 19 -67q19 -19 58 -19h66q25 0 32 -12.5t7 -34.5v-129q0 -30 -9.5 -41.5t-35.5 -11.5h-96q-40 0 -66 1.5t-60.5 9t-56.5 21.5t-45.5 39t-37 61t-22.5 89.5t-9 122.5v311q0 58 -15 83.5t-55 25.5q-26 0 -34.5 12.5t-8.5 40.5z" />
<glyph unicode="|" horiz-adv-x="419" d="M123 0v1538q0 41 35 41h104q35 0 35 -41v-1534q0 -45 -35 -45h-104q-35 0 -35 41z" />
<glyph unicode="}" horiz-adv-x="645" d="M10 -74q0 47 41 47h66q76 0 76 86v347q0 95 40 149.5t150 73.5q-113 19 -151.5 73t-38.5 152v346q0 86 -76 86h-66q-41 0 -41 47v129q0 29 10 41.5t35 12.5h97q40 0 66.5 -2t60.5 -9.5t56.5 -21t46.5 -39t37.5 -61.5t22.5 -89.5t9 -122.5v-311q0 -58 14.5 -83t54.5 -25 q25 0 34 -13.5t9 -40.5v-137q0 -28 -8.5 -40.5t-34.5 -12.5q-40 0 -54.5 -25.5t-14.5 -83.5v-311q0 -69 -9 -122.5t-22.5 -89.5t-37.5 -61t-46.5 -39t-56.5 -21.5t-60.5 -9t-66.5 -1.5h-97q-25 0 -35 12t-10 41v129z" />
<glyph unicode="~" horiz-adv-x="798" d="M72 565q1 128 48 178t130 50q54 0 112.5 -22t103 -44t64.5 -22q23 0 31 14t10 49q0 12 7 22.5t24 10.5h92q33 0 33 -31q0 -77 -16 -128.5t-44.5 -73.5t-53 -29t-56.5 -7q-59 0 -121.5 22t-106 44.5t-57.5 22.5q-43 0 -43 -66l-1 -7q-2 -6 -3 -7.5t-4.5 -6t-8 -6t-13 -3 t-19.5 -1.5h-74h-4.5t-8 2t-10.5 6t-7.5 12.5t-3.5 20.5z" />
<glyph unicode="&#xa1;" horiz-adv-x="542" d="M102 1010q0 87 46 134.5t120 47.5q78 0 125 -47t47 -129q0 -84 -47 -132t-125 -48q-71 0 -118.5 50.5t-47.5 123.5zM117 -393l47 1085q2 49 41 49h123q15 0 24 -8t11.5 -17t3.5 -24l59 -1093q0 -41 -39 -41h-229q-23 0 -32.5 11t-8.5 38z" />
<glyph unicode="&#xa2;" horiz-adv-x="835" d="M41 553q0 492 328 553v156q0 47 37 47h126q37 0 37 -47v-156q186 -36 240 -248q4 -12 4 -22q0 -25 -22 -33l-152 -47q-12 -4 -18 -4q-23 0 -31 22q-23 54 -48.5 81.5t-72.5 27.5q-154 0 -154 -330q0 -338 185 -338q95 0 209 53q12 6 24 6q19 0 27 -26l43 -137 q6 -18 6 -33q0 -16 -23 -29q-79 -49 -217 -65v-152q0 -47 -37 -47h-126q-37 0 -37 47v158q-328 64 -328 563z" />
<glyph unicode="&#xa3;" horiz-adv-x="862" d="M41 47v158q0 32 20 47q3 3 18 13t22.5 18.5t18.5 26.5t16 47.5t5 70.5v68h-47q-13 0 -25 12t-12 31v90q0 20 10.5 31.5t26.5 11.5h45v133h-45q-13 0 -25 12t-12 31v90q0 20 10.5 31.5t26.5 11.5h45v57q0 61 2 103.5t10 101.5t23 99t44 83.5t69 70t101 43.5t138 17 q150 0 258 -65q25 -14 25 -37q0 -15 -4 -27l-66 -151q-8 -21 -32 -21q-5 0 -23 9q-74 36 -135 36q-27 0 -48 -5.5t-35 -14t-23.5 -26t-15 -33.5t-8 -45t-3 -52t-0.5 -63v-80h237q14 0 23.5 -11t9.5 -32v-90q0 -43 -35 -43h-235v-133h237q14 0 23.5 -11t9.5 -32v-90 q0 -43 -35 -43h-239v-56q0 -45 -22.5 -84t-46 -60t-60.5 -46h534q35 0 35 -43v-162q0 -45 -35 -45h-743q-13 0 -23 14t-10 33z" />
<glyph unicode="&#xa5;" horiz-adv-x="991" d="M12 1444q0 31 23 31h223q11 0 17 -1t14.5 -9.5t15.5 -24.5l113 -330l78 -227l77 227l115 330q6 16 14.5 24.5t14.5 9.5t18 1h219q11 0 18 -10t7 -23q0 -9 -4 -21l-258 -590h100q31 0 31 -38v-103q0 -33 -33 -33h-182v-137h184q11 0 21 -7t10 -21v-119q0 -29 -33 -29h-182 v-303q0 -41 -29 -41h-219q-29 0 -29 41v303h-180q-5 0 -11 1.5t-14 8.5t-8 19v119q0 14 10 21t21 7h182v137h-180q-5 0 -11 1.5t-14 9.5t-8 22v103q0 38 31 38h98l-256 590q-4 12 -4 23z" />
<glyph unicode="&#xa6;" horiz-adv-x="419" d="M123 0v512q0 41 35 41h106q15 0 24 -11t9 -30v-508q0 -45 -33 -45h-106q-35 0 -35 41zM123 1026v512q0 41 35 41h106q15 0 24 -11t9 -30v-510q0 -22 -6.5 -32.5t-26.5 -10.5h-106q-20 0 -27.5 10t-7.5 31z" />
<glyph unicode="&#xa7;" horiz-adv-x="823" d="M61 84q0 10 7 31l41 121q6 26 32 26q3 0 15 -4q110 -59 211 -59q70 0 98.5 29t28.5 67q0 43 -24 71.5t-99 63.5l-82 37q-127 58 -175 133t-48 170q0 143 112 227q-106 87 -106 244q0 145 89 236.5t261 91.5q219 0 305 -193q6 -12 6 -28q0 -23 -24 -37l-101 -51 q-26 -13 -39 -13q-25 0 -37 25q-39 80 -114 80q-35 0 -61.5 -22t-26.5 -68q0 -80 106 -127l70 -37q140 -77 198 -147t58 -173q0 -74 -34.5 -133.5t-90.5 -91.5q65 -50 92 -105.5t27 -140.5q0 -145 -102 -237.5t-285 -92.5q-106 0 -180.5 21.5t-112.5 50.5q-15 10 -15 35z M309 799q0 -46 20.5 -69.5t71.5 -49.5q29 -17 50 -25q29 16 45 45.5t16 57.5q0 37 -23 62.5t-75 56.5l-45 26q-22 -10 -41 -40.5t-19 -63.5z" />
<glyph unicode="&#xa8;" horiz-adv-x="819" d="M102 1378q0 71 38.5 106.5t101.5 35.5q61 0 99 -36t38 -106q0 -69 -38 -103t-99 -34q-63 0 -101.5 34t-38.5 103zM444 1378q0 71 37.5 106.5t100.5 35.5q59 0 97 -36t38 -106q0 -68 -38 -102.5t-97 -34.5q-63 0 -100.5 34t-37.5 103z" />
<glyph unicode="&#xa9;" horiz-adv-x="1310" d="M41 772q0 175 30 310.5t83 224.5t130.5 146t167.5 81.5t199 24.5q114 0 206 -24.5t170 -81.5t131 -146.5t82.5 -224t29.5 -308.5q0 -182 -30 -320t-83 -228t-132 -146.5t-170 -79.5t-204 -23q-111 0 -200.5 24t-167.5 81.5t-130.5 147.5t-82 227t-29.5 315zM182 774 q0 -355 114.5 -511.5t354.5 -156.5q96 0 169 20.5t132.5 67.5t97.5 124.5t58 192t20 267.5q0 338 -112 495t-365 157q-241 0 -355 -155t-114 -501zM303 774q0 76 7 137.5t29 127t59 109.5t101.5 72.5t151.5 28.5q231 0 293 -211q4 -12 4 -22q0 -21 -24 -31l-129 -47 q-12 -4 -19 -4q-16 0 -22 14q-38 90 -97 90q-63 0 -86.5 -65t-23.5 -207q0 -260 143 -260q81 0 166 49q9 6 21 6q18 0 24 -16l49 -129q4 -16 4 -19q0 -10 -16 -26q-35 -27 -106 -51.5t-146 -24.5q-191 0 -287 111t-96 368z" />
<glyph unicode="&#xaa;" horiz-adv-x="624" d="M20 1217q0 73 11.5 133.5t37 110t70 77t105.5 27.5q91 0 127 -78l14 45q7 20 27 20h102q25 0 25 -26v-479q0 -15 0.5 -21t5.5 -12t16 -6q23 0 23 -27v-53q0 -29 -18 -36t-68 -7q-111 0 -131 84q-38 -88 -142 -88q-98 0 -151.5 90t-53.5 246zM201 1221q0 -37 2 -64.5 t9.5 -62t25 -53.5t45.5 -19q53 0 75 70v262q-7 28 -25.5 48.5t-45.5 20.5q-86 0 -86 -202z" />
<glyph unicode="&#xab;" horiz-adv-x="1009" d="M72 504q0 39 20 59l172 275q24 45 70 45h172q9 0 15.5 -6.5t6.5 -16.5q0 -9 -10 -29l-156 -321l156 -326q10 -20 10 -28q0 -10 -6.5 -16.5t-15.5 -6.5h-172q-23 0 -38 9t-32 36l-172 273l-4 6q-4 6 -7 12t-6 16t-3 19zM483 504q0 40 19 59l172 275q14 26 30 35.5t41 9.5 h170q9 0 16 -6.5t7 -16.5q0 -9 -10 -29l-156 -321l156 -326q10 -20 10 -28q0 -10 -7 -16.5t-16 -6.5h-170q-24 0 -39 9t-32 36l-172 275q-19 19 -19 51z" />
<glyph unicode="&#xac;" horiz-adv-x="909" d="M72 819v115q0 21 5.5 30t22.5 9h512q114 0 170 -54.5t56 -168.5v-299q0 -39 -31 -39h-127q-31 0 -31 39v325h-547q-20 0 -25 10.5t-5 32.5z" />
<glyph unicode="&#xad;" horiz-adv-x="618" d="M72 504v168q0 20 10 31.5t24 11.5h408q33 0 33 -43v-168q0 -43 -35 -43h-406q-15 0 -24.5 11.5t-9.5 31.5z" />
<glyph unicode="&#xae;" horiz-adv-x="1310" d="M41 772q0 175 30 310.5t83 224.5t130.5 146t167.5 81.5t199 24.5q114 0 206 -24.5t170 -81.5t131 -146.5t82.5 -224t29.5 -308.5q0 -182 -30 -320t-83 -228t-132 -146.5t-170 -79.5t-204 -23q-111 0 -200.5 24t-167.5 81.5t-130.5 147.5t-82 227t-29.5 315zM182 774 q0 -355 114.5 -511.5t354.5 -156.5q96 0 169 20.5t132.5 67.5t97.5 124.5t58 192t20 267.5q0 338 -112 495t-365 157q-241 0 -355 -155t-114 -501zM358 330v866q0 34 35 41q102 12 244 12q172 0 245.5 -76t73.5 -223q0 -63 -7 -105t-25 -72.5t-33.5 -46t-48.5 -42.5 l159 -354q3 -6 3 -15q0 -18 -23 -18h-168q-43 0 -53 27l-121 315h-59v-311q0 -12 -7.5 -21.5t-21.5 -9.5h-160q-33 0 -33 33zM580 809q31 -2 59 -2q62 0 84 35t22 98q0 77 -24 107t-80 30q-22 0 -37 -1.5t-20 -3.5l-4 -1v-262z" />
<glyph unicode="&#xaf;" horiz-adv-x="731" d="M102 1286v152q0 26 10.5 35.5t45.5 9.5h409q38 0 50 -9t12 -36v-152q0 -28 -12 -37.5t-50 -9.5h-409q-34 0 -45 9.5t-11 37.5z" />
<glyph unicode="&#xb0;" horiz-adv-x="610" d="M102 1348q0 118 57 180.5t146 62.5t146 -63t57 -180q0 -101 -59 -172.5t-144 -71.5t-144 71.5t-59 172.5zM248 1350q0 -36 16 -63t39 -27q26 0 42.5 25t16.5 61q0 100 -59 100q-24 0 -39.5 -25.5t-15.5 -70.5z" />
<glyph unicode="&#xb1;" horiz-adv-x="819" d="M72 725v104q0 41 39 41h211v330q0 41 38 41h109q41 0 41 -41v-330h199q39 0 39 -41v-100q0 -45 -39 -45h-199v-317q0 -45 -41 -45h-109q-38 0 -38 40v322h-211q-39 0 -39 41zM74 41v106q0 41 41 41h594q39 0 39 -41v-102q0 -45 -39 -45h-596q-39 0 -39 41z" />
<glyph unicode="&#xb4;" horiz-adv-x="606" d="M102 1266q0 14 7 28l129 265q15 38 53 38h178q35 0 35 -30q0 -15 -10 -33l-179 -254q-28 -41 -65 -41h-123q-9 0 -17 9t-8 18z" />
<glyph unicode="&#xb6;" horiz-adv-x="1105" d="M-123 1143q0 73 24 138.5t70.5 119t124 85.5t176.5 32h535q54 0 85.5 -10t47 -37.5t19.5 -58.5t4 -89v-1552q0 -41 -33 -41h-182q-17 0 -24 9.5t-7 31.5v1523h-199v-1523q0 -21 -6 -31t-23 -10h-188q-31 0 -31 41v999q-98 0 -175.5 31.5t-123.5 85t-70 118.5t-24 138z " />
<glyph unicode="&#xb7;" horiz-adv-x="497" d="M102 643q0 67 43 115.5t103 48.5t103.5 -48.5t43.5 -115.5q0 -66 -43.5 -112t-103.5 -46t-103 46t-43 112z" />
<glyph unicode="&#xb8;" horiz-adv-x="606" d="M102 -446q0 14 2 22l23 66q5 13 11.5 20t10.5 7.5t13 0.5q6 0 39.5 -7t62.5 -7q53 0 53 51q0 16 -7 28t-15.5 19t-24.5 12.5t-25.5 7.5t-27 4t-20.5 3q-26 5 -36.5 17t-10.5 40l18 162h178l-6 -84q91 -26 127.5 -78.5t36.5 -134.5q0 -105 -66 -155t-162 -50 q-92 0 -149 25q-25 13 -25 31z" />
<glyph unicode="&#xba;" horiz-adv-x="561" d="M20 1225q0 340 263 340q256 0 256 -340q0 -344 -256 -344q-263 0 -263 344zM201 1225q0 -203 82 -203q75 0 75 203q0 92 -19 145t-56 53q-82 0 -82 -198z" />
<glyph unicode="&#xbb;" horiz-adv-x="1009" d="M72 156q0 8 10 28l156 326l-156 321q-10 20 -10 29q0 10 6.5 16.5t15.5 6.5h170q25 0 41.5 -9.5t30.5 -35.5l172 -275q18 -18 18 -59q0 -33 -18 -51l-172 -275q-17 -27 -32.5 -36t-39.5 -9h-170q-9 0 -15.5 6.5t-6.5 16.5zM481 156q0 6 11 28l155 326l-155 321 q-11 22 -11 29q0 10 7 16.5t16 6.5h172q45 0 69 -45l173 -275q20 -20 20 -59q0 -9 -3 -19t-6 -16t-7 -12l-4 -6l-173 -273q-17 -27 -31.5 -36t-37.5 -9h-172q-9 0 -16 6.5t-7 16.5z" />
<glyph unicode="&#xbf;" horiz-adv-x="763" d="M10 -25q0 207 158 410q6 8 31.5 40.5t35.5 47t26.5 41t23 48.5t6.5 44v88q0 20 9.5 33.5t23.5 13.5h221q41 0 41 -45v-96q0 -43 -7.5 -78.5t-27.5 -72.5t-35.5 -60t-52 -71.5t-57.5 -77.5q-59 -82 -83 -135t-24 -132q0 -67 30 -110t85 -43q49 0 80.5 31t58.5 102 q7 24 29 24q14 0 22 -4l156 -59q9 -3 15.5 -13t6.5 -22q0 -6 -4 -26q-34 -137 -130 -216t-234 -79q-56 0 -110 12.5t-108 44t-94.5 77.5t-66 119t-25.5 164zM262 1010q0 82 48 132t118 50q75 0 124.5 -52t49.5 -130q0 -74 -49.5 -124t-124.5 -50q-68 0 -117 50.5t-49 123.5z " />
<glyph unicode="&#xc0;" horiz-adv-x="1177" d="M12 31l2 22l312 1207q8 30 16 54t28 57.5t44.5 56t66.5 39t94 16.5h27q196 0 250 -223l311 -1209q2 -4 2 -16q0 -15 -8 -25t-22 -10h-207q-24 0 -34.5 9t-16.5 36l-86 354h-404l-84 -354q-7 -26 -18 -35.5t-33 -9.5h-207q-15 0 -24 8.5t-9 22.5zM274 1958q0 31 33 31h180 q35 0 54 -39l129 -264q6 -18 6 -29q0 -9 -8.5 -18t-18.5 -9h-123q-19 0 -33 9t-32 32l-176 254q-11 19 -11 33zM442 627h293l-86 393l-59 278l-62 -280z" />
<glyph unicode="&#xc1;" horiz-adv-x="1177" d="M12 31l2 22l312 1207q8 30 16 54t28 57.5t44.5 56t66.5 39t94 16.5h27q196 0 250 -223l311 -1209q2 -4 2 -16q0 -15 -8 -25t-22 -10h-207q-24 0 -34.5 9t-16.5 36l-86 354h-404l-84 -354q-7 -26 -18 -35.5t-33 -9.5h-207q-15 0 -24 8.5t-9 22.5zM442 627h293l-86 393 l-59 278l-62 -280zM500 1657q0 17 6 29l129 264q16 39 53 39h178q35 0 35 -31q0 -16 -10 -33l-178 -254q-28 -41 -66 -41h-123q-9 0 -16.5 9t-7.5 18z" />
<glyph unicode="&#xc2;" horiz-adv-x="1177" d="M12 31l2 22l312 1207q8 30 16 54t28 57.5t44.5 56t66.5 39t94 16.5h27q196 0 250 -223l311 -1209q2 -4 2 -16q0 -15 -8 -25t-22 -10h-207q-24 0 -34.5 9t-16.5 36l-86 354h-404l-84 -354q-7 -26 -18 -35.5t-33 -9.5h-207q-15 0 -24 8.5t-9 22.5zM274 1657q0 10 7 24 l139 265q16 27 31 35t38 8h185q31 0 47.5 -7t32.5 -34l141 -267q6 -12 6 -24t-9 -19.5t-20 -7.5h-120q-43 0 -64 31l-100 162l-103 -162q-13 -19 -26 -25t-35 -6h-123q-10 0 -18.5 7t-8.5 20zM442 627h293l-86 393l-59 278l-62 -280z" />
<glyph unicode="&#xc3;" horiz-adv-x="1177" d="M12 31l2 22l312 1207q8 30 16 54t28 57.5t44.5 56t66.5 39t94 16.5h27q196 0 250 -223l311 -1209q2 -4 2 -16q0 -15 -8 -25t-22 -10h-207q-24 0 -34.5 9t-16.5 36l-86 354h-404l-84 -354q-7 -26 -18 -35.5t-33 -9.5h-207q-15 0 -24 8.5t-9 22.5zM254 1669q0 106 48.5 171 t135.5 65q60 0 115 -19t93 -38t59 -19q15 0 24 10.5t16 40.5q8 25 37 25h109q17 0 25 -11.5t8 -23.5q0 -115 -54.5 -178.5t-152.5 -63.5q-64 0 -116.5 18.5t-84 37t-43.5 18.5q-19 0 -27.5 -9.5t-13.5 -31.5q-3 -11 -5 -15t-13.5 -10t-32.5 -6h-88q-5 0 -11.5 1t-17 11 t-10.5 27zM442 627h293l-86 393l-59 278l-62 -280z" />
<glyph unicode="&#xc4;" horiz-adv-x="1177" d="M12 31l2 22l312 1207q8 30 16 54t28 57.5t44.5 56t66.5 39t94 16.5h27q196 0 250 -223l311 -1209q2 -4 2 -16q0 -15 -8 -25t-22 -10h-207q-24 0 -34.5 9t-16.5 36l-86 354h-404l-84 -354q-7 -26 -18 -35.5t-33 -9.5h-207q-15 0 -24 8.5t-9 22.5zM281 1767q0 71 38 106.5 t101 35.5q61 0 99 -36t38 -106q0 -69 -38 -103t-99 -34q-63 0 -101 34t-38 103zM442 627h293l-86 393l-59 278l-62 -280zM623 1767q0 71 37 106.5t100 35.5q59 0 97 -36t38 -106q0 -68 -38 -102.5t-97 -34.5q-63 0 -100 34t-37 103z" />
<glyph unicode="&#xc5;" horiz-adv-x="1177" d="M12 31l2 22l312 1207q8 30 16 54t28 57.5t44.5 56t66.5 39t94 16.5h27q196 0 250 -223l311 -1209q2 -4 2 -16q0 -15 -8 -25t-22 -10h-207q-24 0 -34.5 9t-16.5 36l-86 354h-404l-84 -354q-7 -26 -18 -35.5t-33 -9.5h-207q-15 0 -24 8.5t-9 22.5zM391 1860 q0 112 55.5 171.5t141.5 59.5t141 -60t55 -171q0 -110 -55 -170t-141 -60t-141.5 59.5t-55.5 170.5zM442 627h293l-86 393l-59 278l-62 -280zM535 1862q0 -86 53 -86q55 0 55 84q0 86 -55 86q-53 0 -53 -84z" />
<glyph unicode="&#xc6;" horiz-adv-x="1538" d="M12 33q0 8 4 20l496 1217q88 205 287 205h659q35 0 35 -41v-154q0 -47 -33 -47h-397v-320h332q14 0 22 -11t8 -30v-151q0 -47 -30 -47h-332v-432h420q35 0 35 -43v-154q0 -45 -35 -45h-561q-146 0 -146 160v239h-325l-144 -354q-16 -45 -65 -45h-201q-14 0 -21.5 10 t-7.5 23zM553 625h223v628l-86 -252z" />
<glyph unicode="&#xc7;" horiz-adv-x="1042" d="M61 739q0 139 14.5 248.5t52 207.5t98 162.5t155.5 102t221 37.5q303 0 402 -272q8 -24 8 -39q0 -27 -25 -37l-139 -49q-18 -6 -33 -6q-26 0 -43 28q-42 73 -83.5 100t-94.5 27q-132 0 -186 -124.5t-54 -381.5q0 -78 7 -146t26.5 -136t49.5 -115.5t79.5 -77.5t114.5 -30 q38 0 72 3.5t67 13t48 14t47.5 17.5t33.5 13q13 8 29 8q21 0 28 -20l60 -164q4 -16 4 -21q0 -23 -23 -36q-114 -67 -301 -84l-6 -66q91 -26 127.5 -78.5t36.5 -134.5q0 -105 -65.5 -155t-161.5 -50q-93 0 -150 25q-24 12 -24 31q0 14 2 22l22 66q5 13 11.5 20t10.5 7.5 t13 0.5q6 0 39.5 -7t62.5 -7q54 0 54 51q0 16 -7 28t-16 19t-25 12.5t-25.5 7.5t-27 4t-20.5 3q-26 5 -36.5 17t-10.5 40l16 148q-154 23 -257 123t-150.5 258t-47.5 372z" />
<glyph unicode="&#xc8;" horiz-adv-x="886" d="M125 160v1128q0 41 2.5 65.5t11.5 51t26.5 40t49 22t78.5 8.5h514q15 0 24 -11t9 -30v-154q0 -47 -33 -47h-395v-320h331q15 0 24 -11t9 -30v-151q0 -47 -31 -47h-333v-432h419q35 0 35 -43v-154q0 -22 -7 -33.5t-28 -11.5h-561q-145 0 -145 160zM184 1958q0 31 33 31 h180q35 0 54 -39l129 -264q6 -18 6 -29q0 -9 -8.5 -18t-18.5 -9h-123q-19 0 -33 9t-32 32l-176 254q-11 19 -11 33z" />
<glyph unicode="&#xc9;" horiz-adv-x="886" d="M125 160v1128q0 41 2.5 65.5t11.5 51t26.5 40t49 22t78.5 8.5h514q15 0 24 -11t9 -30v-154q0 -47 -33 -47h-395v-320h331q15 0 24 -11t9 -30v-151q0 -47 -31 -47h-333v-432h419q35 0 35 -43v-154q0 -22 -7 -33.5t-28 -11.5h-561q-145 0 -145 160zM412 1657q0 17 6 29 l129 264q16 39 53 39h178q35 0 35 -31q0 -16 -10 -33l-178 -254q-28 -41 -66 -41h-123q-9 0 -16.5 9t-7.5 18z" />
<glyph unicode="&#xca;" horiz-adv-x="886" d="M125 160v1128q0 41 2.5 65.5t11.5 51t26.5 40t49 22t78.5 8.5h514q15 0 24 -11t9 -30v-154q0 -47 -33 -47h-395v-320h331q15 0 24 -11t9 -30v-151q0 -47 -31 -47h-333v-432h419q35 0 35 -43v-154q0 -22 -7 -33.5t-28 -11.5h-561q-145 0 -145 160zM184 1657q0 12 6 24 l140 265q16 27 31 35t38 8h185q31 0 47.5 -7t32.5 -34l141 -267q6 -12 6 -24t-9 -19.5t-20 -7.5h-120q-43 0 -64 31l-100 162l-103 -162q-13 -19 -26 -25t-35 -6h-123q-10 0 -18.5 7t-8.5 20z" />
<glyph unicode="&#xcb;" horiz-adv-x="886" d="M125 160v1128q0 41 2.5 65.5t11.5 51t26.5 40t49 22t78.5 8.5h514q15 0 24 -11t9 -30v-154q0 -47 -33 -47h-395v-320h331q15 0 24 -11t9 -30v-151q0 -47 -31 -47h-333v-432h419q35 0 35 -43v-154q0 -22 -7 -33.5t-28 -11.5h-561q-145 0 -145 160zM182 1767 q0 71 38.5 106.5t101.5 35.5q61 0 99 -36t38 -106q0 -69 -38 -103t-99 -34q-63 0 -101.5 34t-38.5 103zM524 1767q0 71 37.5 106.5t100.5 35.5q59 0 97 -36t38 -106q0 -68 -38 -102.5t-97 -34.5q-63 0 -100.5 34t-37.5 103z" />
<glyph unicode="&#xcc;" horiz-adv-x="512" d="M-66 1958q0 31 33 31h180q35 0 54 -39l129 -264q6 -18 6 -29q0 -9 -8.5 -18t-18.5 -9h-123q-19 0 -33 9t-32 32l-176 254q-11 19 -11 33zM102 41v1393q0 41 39 41h207q41 0 41 -41v-1389q0 -45 -41 -45h-207q-39 0 -39 41z" />
<glyph unicode="&#xcd;" horiz-adv-x="514" d="M123 41v1393q0 41 39 41h207q41 0 41 -41v-1389q0 -45 -41 -45h-207q-39 0 -39 41zM180 1655q0 16 6 28l129 265q16 39 54 39h178q35 0 35 -31q0 -14 -11 -33l-178 -254q-28 -41 -65 -41h-123q-9 0 -17 9t-8 18z" />
<glyph unicode="&#xce;" horiz-adv-x="485" d="M-70 1657q0 10 7 24l139 265q16 27 31 35t38 8h185q31 0 47.5 -7t32.5 -34l141 -267q6 -12 6 -24t-9 -19.5t-20 -7.5h-120q-43 0 -64 31l-100 162l-103 -162q-13 -19 -26 -25t-35 -6h-123q-10 0 -18.5 7t-8.5 20zM98 41v1393q0 41 39 41h207q41 0 41 -41v-1389 q0 -45 -41 -45h-207q-39 0 -39 41z" />
<glyph unicode="&#xcf;" horiz-adv-x="505" d="M-53 1767q0 71 38 106.5t101 35.5q61 0 99 -36t38 -106q0 -69 -38 -103t-99 -34q-63 0 -101 34t-38 103zM106 41v1393q0 41 39 41h207q41 0 41 -41v-1389q0 -45 -41 -45h-207q-39 0 -39 41zM289 1767q0 71 37 106.5t100 35.5q59 0 97 -36t38 -106q0 -68 -38 -102.5 t-97 -34.5q-63 0 -100 34t-37 103z" />
<glyph unicode="&#xd0;" horiz-adv-x="1206" d="M-20 682v170q0 41 40 41h86v537q0 44 33 47q88 8 381 8q215 0 348 -62q277 -149 277 -678q0 -229 -37 -379t-125 -239q-157 -139 -502 -139q-275 0 -340 10q-35 5 -35 51v592h-86q-40 0 -40 41zM393 227q53 -6 164 -6q137 0 207 96q52 70 69 176t17 244q0 144 -20 253.5 t-80 178.5q-70 82 -222 82q-88 0 -135 -6v-352h139q39 0 39 -41v-166q0 -45 -39 -45h-139v-414z" />
<glyph unicode="&#xd1;" horiz-adv-x="1312" d="M123 49v1161q0 135 66 204t186 69q110 0 172 -54t98 -190l184 -651l97 -381l-6 403l-5 817q0 27 12 37.5t36 10.5h180q25 0 36 -9.5t11 -38.5v-1191q0 -112 -68 -179t-178 -67q-106 0 -171.5 52.5t-98.5 170.5l-215 762l-72 293l4 -322l6 -895q0 -29 -9.5 -40t-35.5 -11 h-190q-24 0 -31.5 12t-7.5 37zM319 1671q0 105 49 170.5t136 65.5q60 0 114.5 -19t92.5 -38t59 -19q15 0 24.5 10.5t16.5 40.5q8 25 37 25h108q17 0 25 -11.5t8 -23.5q0 -115 -54.5 -178.5t-152.5 -63.5q-50 0 -94.5 11.5t-69 25.5t-46.5 25.5t-33 11.5q-19 0 -27.5 -9.5 t-13.5 -31.5q-3 -10 -5.5 -15t-14 -10.5t-32.5 -5.5h-88q-5 0 -11.5 1t-17 11t-10.5 27z" />
<glyph unicode="&#xd2;" horiz-adv-x="1216" d="M61 743q0 137 17.5 248.5t46.5 188.5t72.5 135t89 92t103 55t108.5 28t110 7t110 -7t108.5 -27.5t103 -54.5t89 -91.5t72.5 -134.5t46.5 -188.5t17.5 -248.5q0 -142 -17.5 -256.5t-46 -193.5t-72 -137.5t-89 -92.5t-103.5 -54.5t-108.5 -27t-110.5 -6.5t-110.5 7 t-108 27.5t-103 54.5t-89 93t-72.5 137.5t-46.5 192.5t-17.5 254zM356 741q0 -106 12 -194t39 -166t78 -122t123 -44q68 0 117.5 39t78.5 112t42.5 167t13.5 212q0 99 -12 184.5t-38.5 163t-77 122.5t-120.5 45q-74 0 -126 -44t-79.5 -121.5t-39 -163.5t-11.5 -190z M408 1976q0 31 32 31h181q34 0 53 -39l129 -264q6 -18 6 -29q0 -9 -8.5 -17.5t-18.5 -8.5h-123q-19 0 -33 9t-32 32l-176 254q-10 18 -10 32z" />
<glyph unicode="&#xd3;" horiz-adv-x="1216" d="M61 743q0 137 17.5 248.5t46.5 188.5t72.5 135t89 92t103 55t108.5 28t110 7t110 -7t108.5 -27.5t103 -54.5t89 -91.5t72.5 -134.5t46.5 -188.5t17.5 -248.5q0 -142 -17.5 -256.5t-46 -193.5t-72 -137.5t-89 -92.5t-103.5 -54.5t-108.5 -27t-110.5 -6.5t-110.5 7 t-108 27.5t-103 54.5t-89 93t-72.5 137.5t-46.5 192.5t-17.5 254zM356 741q0 -106 12 -194t39 -166t78 -122t123 -44q68 0 117.5 39t78.5 112t42.5 167t13.5 212q0 99 -12 184.5t-38.5 163t-77 122.5t-120.5 45q-74 0 -126 -44t-79.5 -121.5t-39 -163.5t-11.5 -190z M516 1657q0 17 6 29l129 264q16 39 54 39h178q35 0 35 -31q0 -14 -11 -33l-178 -254q-28 -41 -65 -41h-123q-9 0 -17 9t-8 18z" />
<glyph unicode="&#xd4;" horiz-adv-x="1216" d="M61 743q0 137 17.5 248.5t46.5 188.5t72.5 135t89 92t103 55t108.5 28t110 7t110 -7t108.5 -27.5t103 -54.5t89 -91.5t72.5 -134.5t46.5 -188.5t17.5 -248.5q0 -142 -17.5 -256.5t-46 -193.5t-72 -137.5t-89 -92.5t-103.5 -54.5t-108.5 -27t-110.5 -6.5t-110.5 7 t-108 27.5t-103 54.5t-89 93t-72.5 137.5t-46.5 192.5t-17.5 254zM295 1655q0 12 6 24l139 265q16 27 31.5 35t38.5 8h184q31 0 47.5 -7t32.5 -34l141 -267q7 -14 7 -24q0 -12 -9 -19.5t-20 -7.5h-121q-22 0 -36 6t-27 25l-101 162l-102 -162q-13 -19 -26.5 -25t-35.5 -6 h-122q-10 0 -18.5 7t-8.5 20zM356 741q0 -106 12 -194t39 -166t78 -122t123 -44q68 0 117.5 39t78.5 112t42.5 167t13.5 212q0 99 -12 184.5t-38.5 163t-77 122.5t-120.5 45q-74 0 -126 -44t-79.5 -121.5t-39 -163.5t-11.5 -190z" />
<glyph unicode="&#xd5;" horiz-adv-x="1216" d="M61 743q0 137 17.5 248.5t46.5 188.5t72.5 135t89 92t103 55t108.5 28t110 7t110 -7t108.5 -27.5t103 -54.5t89 -91.5t72.5 -134.5t46.5 -188.5t17.5 -248.5q0 -142 -17.5 -256.5t-46 -193.5t-72 -137.5t-89 -92.5t-103.5 -54.5t-108.5 -27t-110.5 -6.5t-110.5 7 t-108 27.5t-103 54.5t-89 93t-72.5 137.5t-46.5 192.5t-17.5 254zM297 1669q0 106 48.5 171t135.5 65q60 0 115 -19t93 -38t59 -19q15 0 24 10.5t16 40.5q8 25 37 25h109q17 0 25 -11.5t8 -23.5q0 -115 -54.5 -178.5t-152.5 -63.5q-64 0 -116.5 18.5t-84 37t-43.5 18.5 q-19 0 -27.5 -9.5t-13.5 -31.5q-3 -11 -5 -15t-13.5 -10t-32.5 -6h-88q-5 0 -11.5 1t-17 11t-10.5 27zM356 741q0 -106 12 -194t39 -166t78 -122t123 -44q68 0 117.5 39t78.5 112t42.5 167t13.5 212q0 99 -12 184.5t-38.5 163t-77 122.5t-120.5 45q-74 0 -126 -44 t-79.5 -121.5t-39 -163.5t-11.5 -190z" />
<glyph unicode="&#xd6;" horiz-adv-x="1216" d="M61 743q0 137 17.5 248.5t46.5 188.5t72.5 135t89 92t103 55t108.5 28t110 7t110 -7t108.5 -27.5t103 -54.5t89 -91.5t72.5 -134.5t46.5 -188.5t17.5 -248.5q0 -142 -17.5 -256.5t-46 -193.5t-72 -137.5t-89 -92.5t-103.5 -54.5t-108.5 -27t-110.5 -6.5t-110.5 7 t-108 27.5t-103 54.5t-89 93t-72.5 137.5t-46.5 192.5t-17.5 254zM301 1767q0 71 38 106.5t101 35.5q61 0 99.5 -36t38.5 -106q0 -68 -38.5 -102.5t-99.5 -34.5q-63 0 -101 34t-38 103zM356 741q0 -106 12 -194t39 -166t78 -122t123 -44q68 0 117.5 39t78.5 112t42.5 167 t13.5 212q0 99 -12 184.5t-38.5 163t-77 122.5t-120.5 45q-74 0 -126 -44t-79.5 -121.5t-39 -163.5t-11.5 -190zM643 1767q0 71 37 106.5t100 35.5q59 0 97 -36t38 -106q0 -68 -38 -102.5t-97 -34.5q-63 0 -100 34t-37 103z" />
<glyph unicode="&#xd7;" horiz-adv-x="811" d="M75.5 288q-3.5 15 6.5 34l205 260l-205 260q-10 19 -6.5 33.5t14.5 23.5l76 59q37 26 63 -6l177 -231l176 231q26 32 63 6l76 -59q11 -9 14.5 -23.5t-6.5 -33.5l-207 -260l207 -260q10 -19 6.5 -34t-14.5 -24l-76 -59q-37 -26 -63 6l-176 233l-177 -233q-26 -32 -63 -6 l-76 59q-11 9 -14.5 24z" />
<glyph unicode="&#xd8;" horiz-adv-x="1228" d="M61 -47q0 17 15 39l114 196q-116 185 -116 555q0 137 17.5 248.5t46.5 188.5t72.5 135t89 92t103 55t108.5 28t110 7q161 0 270 -57l37 67q12 25 24 34t33 9h133q37 0 37 -28q0 -14 -12 -37l-107 -182q131 -190 131 -558q0 -140 -17.5 -253.5t-46 -192t-71.5 -137.5 t-89 -94t-103 -56t-108 -28t-111 -7q-175 0 -291 70l-41 -74q-22 -45 -64 -45h-139q-25 0 -25 25zM369 741q0 -133 16 -229l375 686q-52 62 -137 62q-59 0 -104.5 -30t-73.5 -79t-45.5 -118.5t-24 -139.5t-6.5 -152zM471 289q61 -74 150 -74q251 0 251 530q0 118 -18 226z " />
<glyph unicode="&#xd9;" horiz-adv-x="1220" d="M113 553v881q0 41 32 41h220q32 0 32 -41v-893q0 -81 10 -138.5t27 -92.5t45.5 -55t59 -27t73.5 -7q53 0 89 13t65 47t43 99t14 165v889q0 41 35 41h217q33 0 33 -41v-859q0 -144 -24.5 -250t-81 -186.5t-154.5 -121t-238 -40.5q-111 0 -197 28t-142 78t-92 123.5 t-51 158t-15 188.5zM299 1958q0 31 33 31h180q34 0 53 -39l129 -264q6 -18 6 -29q0 -9 -8 -18t-18 -9h-123q-20 0 -34 9t-32 32l-176 254q-10 17 -10 33z" />
<glyph unicode="&#xda;" horiz-adv-x="1220" d="M113 553v881q0 41 32 41h220q32 0 32 -41v-893q0 -81 10 -138.5t27 -92.5t45.5 -55t59 -27t73.5 -7q53 0 89 13t65 47t43 99t14 165v889q0 41 35 41h217q33 0 33 -41v-859q0 -144 -24.5 -250t-81 -186.5t-154.5 -121t-238 -40.5q-111 0 -197 28t-142 78t-92 123.5 t-51 158t-15 188.5zM524 1657q0 17 6 29l129 264q16 39 54 39h178q35 0 35 -31q0 -14 -11 -33l-178 -254q-28 -41 -65 -41h-123q-9 0 -17 9t-8 18z" />
<glyph unicode="&#xdb;" horiz-adv-x="1220" d="M113 553v881q0 41 32 41h220q32 0 32 -41v-893q0 -81 10 -138.5t27 -92.5t45.5 -55t59 -27t73.5 -7q53 0 89 13t65 47t43 99t14 165v889q0 41 35 41h217q33 0 33 -41v-859q0 -144 -24.5 -250t-81 -186.5t-154.5 -121t-238 -40.5q-111 0 -197 28t-142 78t-92 123.5 t-51 158t-15 188.5zM291 1657q0 12 6 24l139 265q16 27 31.5 35t38.5 8h184q31 0 47.5 -7t32.5 -34l141 -267q7 -14 7 -24q0 -12 -9 -19.5t-20 -7.5h-121q-22 0 -36 6t-27 25l-101 162l-102 -162q-13 -19 -26.5 -25t-35.5 -6h-123q-10 0 -18 7t-8 20z" />
<glyph unicode="&#xdc;" horiz-adv-x="1220" d="M113 553v881q0 41 32 41h220q32 0 32 -41v-893q0 -81 10 -138.5t27 -92.5t45.5 -55t59 -27t73.5 -7q53 0 89 13t65 47t43 99t14 165v889q0 41 35 41h217q33 0 33 -41v-859q0 -144 -24.5 -250t-81 -186.5t-154.5 -121t-238 -40.5q-111 0 -197 28t-142 78t-92 123.5 t-51 158t-15 188.5zM303 1767q0 71 38 106.5t101 35.5q61 0 99.5 -36t38.5 -106q0 -68 -38.5 -102.5t-99.5 -34.5q-63 0 -101 34t-38 103zM645 1767q0 71 37 106.5t100 35.5q59 0 97.5 -36t38.5 -106q0 -68 -38 -102.5t-98 -34.5q-63 0 -100 34t-37 103z" />
<glyph unicode="&#xdd;" horiz-adv-x="991" d="M12 1444q0 31 23 31h223q11 0 17 -1t14.5 -9.5t15.5 -24.5l113 -330l78 -227l77 227l115 330q6 16 14.5 24.5t14.5 9.5t18 1h219q11 0 18 -10t7 -23q0 -9 -4 -21l-342 -800v-580q0 -41 -27 -41h-221q-27 0 -27 41v577l-342 803q-4 12 -4 23zM397 1657q0 17 6 29l129 264 q16 39 54 39h178q35 0 35 -31q0 -14 -11 -33l-178 -254q-28 -41 -65 -41h-123q-9 0 -17 9t-8 18z" />
<glyph unicode="&#xde;" horiz-adv-x="983" d="M123 41v1393q0 41 39 41h213q41 0 41 -41v-220h55q127 0 217 -23.5t155 -78t96.5 -148t31.5 -229.5q0 -111 -26.5 -199.5t-81 -155t-142.5 -102.5t-205 -36h-100v-197q0 -45 -37 -45h-219q-37 0 -37 41zM416 479q50 -4 71 -4q61 0 100.5 19t58 56.5t24.5 75.5t6 95 q0 47 -3.5 82t-14.5 70t-30 57t-50.5 35.5t-75.5 13.5q-57 0 -86 -4v-496z" />
<glyph unicode="&#xdf;" horiz-adv-x="1093" d="M0 913v146q0 37 27 37h100v16q0 245 117 366t334 121q171 0 270.5 -88.5t99.5 -238.5q0 -70 -17.5 -134t-43 -110.5t-51 -87.5t-43 -82t-17.5 -78q0 -80 101 -149q117 -81 161.5 -154t44.5 -174q0 -46 -8 -87.5t-31 -86.5t-60 -77.5t-100.5 -53.5t-146.5 -21 q-56 0 -126 14.5t-126 43.5q-32 17 -32 39q0 12 4 28l37 127q8 29 32 29q13 0 29 -8q94 -39 172 -39q40 0 69 22t29 64t-24 67t-127 97q-160 108 -160 309q0 69 16.5 128.5t39.5 100t46 76.5t39.5 75.5t16.5 80.5q0 67 -34 94t-81 27q-90 0 -125 -64t-35 -209v-1032 q0 -47 -26 -47h-215q-15 0 -22 9t-7 32v838h-100q-27 0 -27 34z" />
<glyph unicode="&#xe0;" d="M41 539q0 275 95 426t276 151q66 0 125.5 -33t87.5 -102l24 80q5 16 12.5 24.5t13 9.5t15.5 1h162q33 0 33 -47v-793q0 -41 13 -56.5t44 -15.5q29 0 29 -45v-84q0 -17 -5 -29.5t-18 -19.5t-23.5 -11.5t-34 -6t-36 -2t-41.5 -0.5q-170 0 -197 143q-22 -46 -53 -78.5 t-65.5 -47t-62.5 -20.5t-56 -6q-74 0 -133.5 30t-106.5 94t-72.5 175.5t-25.5 262.5zM166 1567q0 30 33 30h180q35 0 53 -38l129 -265q6 -18 6 -28q0 -9 -8 -18t-18 -9h-123q-20 0 -34 9t-32 32l-176 254q-10 17 -10 33zM319 543q0 -66 4.5 -116.5t18 -111t45.5 -94 t80 -33.5q104 0 147 129v461q-23 72 -60.5 99.5t-72.5 27.5q-162 0 -162 -362z" />
<glyph unicode="&#xe1;" d="M41 539q0 275 95 426t276 151q66 0 125.5 -33t87.5 -102l24 80q5 16 12.5 24.5t13 9.5t15.5 1h162q33 0 33 -47v-793q0 -41 13 -56.5t44 -15.5q29 0 29 -45v-84q0 -17 -5 -29.5t-18 -19.5t-23.5 -11.5t-34 -6t-36 -2t-41.5 -0.5q-170 0 -197 143q-22 -46 -53 -78.5 t-65.5 -47t-62.5 -20.5t-56 -6q-74 0 -133.5 30t-106.5 94t-72.5 175.5t-25.5 262.5zM319 543q0 -66 4.5 -116.5t18 -111t45.5 -94t80 -33.5q104 0 147 129v461q-23 72 -60.5 99.5t-72.5 27.5q-162 0 -162 -362zM403 1268q0 14 7 28l129 265q15 38 53 38h178q35 0 35 -30 q0 -15 -10 -33l-179 -254q-28 -41 -65 -41h-123q-9 0 -17 9t-8 18z" />
<glyph unicode="&#xe2;" d="M41 539q0 275 95 426t276 151q66 0 125.5 -33t87.5 -102l24 80q5 16 12.5 24.5t13 9.5t15.5 1h162q33 0 33 -47v-793q0 -41 13 -56.5t44 -15.5q29 0 29 -45v-84q0 -17 -5 -29.5t-18 -19.5t-23.5 -11.5t-34 -6t-36 -2t-41.5 -0.5q-170 0 -197 143q-22 -46 -53 -78.5 t-65.5 -47t-62.5 -20.5t-56 -6q-74 0 -133.5 30t-106.5 94t-72.5 175.5t-25.5 262.5zM180 1268q0 12 6 24l140 264q16 27 31 35t38 8h185q31 0 47 -6.5t32 -33.5l142 -267q6 -12 6 -24t-9 -19.5t-20 -7.5h-121q-22 0 -36 6t-27 25l-100 162l-103 -162q-13 -19 -26 -25 t-35 -6h-123q-10 0 -18.5 7t-8.5 20zM319 543q0 -66 4.5 -116.5t18 -111t45.5 -94t80 -33.5q104 0 147 129v461q-23 72 -60.5 99.5t-72.5 27.5q-162 0 -162 -362z" />
<glyph unicode="&#xe3;" d="M41 539q0 275 95 426t276 151q66 0 125.5 -33t87.5 -102l24 80q5 16 12.5 24.5t13 9.5t15.5 1h162q33 0 33 -47v-793q0 -41 13 -56.5t44 -15.5q29 0 29 -45v-84q0 -17 -5 -29.5t-18 -19.5t-23.5 -11.5t-34 -6t-36 -2t-41.5 -0.5q-170 0 -197 143q-22 -46 -53 -78.5 t-65.5 -47t-62.5 -20.5t-56 -6q-74 0 -133.5 30t-106.5 94t-72.5 175.5t-25.5 262.5zM176 1280q0 106 48.5 171t135.5 65q60 0 115 -19t93 -38t59 -19q15 0 24.5 10.5t16.5 40.5q8 25 37 25h108q17 0 25 -11.5t8 -23.5q0 -115 -54.5 -178.5t-152.5 -63.5q-64 0 -116.5 18.5 t-84 37t-43.5 18.5q-19 0 -27.5 -9.5t-13.5 -31.5q-3 -11 -5 -15t-13.5 -10t-32.5 -6h-88q-5 0 -11.5 1t-17 11t-10.5 27zM319 543q0 -66 4.5 -116.5t18 -111t45.5 -94t80 -33.5q104 0 147 129v461q-23 72 -60.5 99.5t-72.5 27.5q-162 0 -162 -362z" />
<glyph unicode="&#xe4;" d="M41 539q0 275 95 426t276 151q66 0 125.5 -33t87.5 -102l24 80q5 16 12.5 24.5t13 9.5t15.5 1h162q33 0 33 -47v-793q0 -41 13 -56.5t44 -15.5q29 0 29 -45v-84q0 -17 -5 -29.5t-18 -19.5t-23.5 -11.5t-34 -6t-36 -2t-41.5 -0.5q-170 0 -197 143q-22 -46 -53 -78.5 t-65.5 -47t-62.5 -20.5t-56 -6q-74 0 -133.5 30t-106.5 94t-72.5 175.5t-25.5 262.5zM190 1378q0 71 38.5 106.5t101.5 35.5q61 0 99 -36t38 -106q0 -69 -38 -103t-99 -34q-63 0 -101.5 34t-38.5 103zM319 543q0 -66 4.5 -116.5t18 -111t45.5 -94t80 -33.5q104 0 147 129 v461q-23 72 -60.5 99.5t-72.5 27.5q-162 0 -162 -362zM532 1378q0 71 37.5 106.5t100.5 35.5q59 0 97 -36t38 -106q0 -68 -38 -102.5t-97 -34.5q-63 0 -100.5 34t-37.5 103z" />
<glyph unicode="&#xe5;" d="M41 539q0 275 95 426t276 151q66 0 125.5 -33t87.5 -102l24 80q5 16 12.5 24.5t13 9.5t15.5 1h162q33 0 33 -47v-793q0 -41 13 -56.5t44 -15.5q29 0 29 -45v-84q0 -17 -5 -29.5t-18 -19.5t-23.5 -11.5t-34 -6t-36 -2t-41.5 -0.5q-170 0 -197 143q-22 -46 -53 -78.5 t-65.5 -47t-62.5 -20.5t-56 -6q-74 0 -133.5 30t-106.5 94t-72.5 175.5t-25.5 262.5zM268 1470q0 112 55.5 172t141.5 60t141.5 -60.5t55.5 -171.5q0 -110 -55.5 -169.5t-141.5 -59.5t-141.5 59t-55.5 170zM319 543q0 -66 4.5 -116.5t18 -111t45.5 -94t80 -33.5 q104 0 147 129v461q-23 72 -60.5 99.5t-72.5 27.5q-162 0 -162 -362zM412 1473q0 -87 53 -87q55 0 55 84q0 86 -55 86q-53 0 -53 -83z" />
<glyph unicode="&#xe6;" horiz-adv-x="1447" d="M41 295q0 360 405 360h144v37q0 84 -34 129t-114 45q-44 0 -85.5 -6.5t-64 -13.5t-52.5 -18t-37 -13q-18 -6 -33 -6q-8 0 -18 8t-13 19l-47 137q-2 4 -2 12q0 27 23 43q163 88 348 88q190 0 270 -110q110 110 293 110q91 0 160 -31t109 -79t65.5 -119t34.5 -136t12 -145 q0 -14 1 -40t1 -40q0 -57 -45 -57h-492q2 -127 41.5 -187.5t132.5 -60.5q111 0 244 49q12 4 23 4q8 0 15.5 -6.5t8.5 -17.5l35 -144q4 -16 4 -26q0 -19 -22 -33q-33 -22 -129 -46t-195 -24q-210 0 -323 136q-115 -136 -314 -136q-67 0 -122.5 14.5t-91 37t-62 54t-40 60.5 t-22 61.5t-10.5 52.5t-2 38zM293 317q0 -63 33 -97t86 -34q110 0 176 93v192h-146q-70 0 -109.5 -40.5t-39.5 -113.5zM870 653h267q2 16 2 41q0 30 -5 61t-16.5 64.5t-36 54.5t-59.5 21q-139 0 -152 -242z" />
<glyph unicode="&#xe7;" horiz-adv-x="837" d="M41 553q0 563 434 563q271 0 334 -258q4 -12 4 -22q0 -25 -22 -33l-152 -47q-12 -4 -18 -4q-23 0 -31 22q-23 54 -48.5 81.5t-72.5 27.5q-154 0 -154 -330q0 -338 185 -338q95 0 209 53q12 6 24 6q19 0 27 -26l43 -137q6 -18 6 -33q0 -16 -23 -29q-90 -56 -249 -69 l-5 -64q91 -26 127.5 -78.5t36.5 -134.5q0 -105 -65.5 -155t-161.5 -50q-93 0 -150 25q-24 12 -24 31q0 14 2 22l22 66q5 13 11.5 20t10.5 7.5t13 0.5q6 0 40 -7t63 -7q53 0 53 51q0 16 -7 28t-16 19t-25 12.5t-25.5 7.5t-27 4t-20.5 3q-26 5 -36.5 17t-10.5 40l16 152 q-317 72 -317 563z" />
<glyph unicode="&#xe8;" horiz-adv-x="901" d="M41 537q0 297 116.5 438t319.5 141q89 0 156 -29t107.5 -73.5t66.5 -111.5t36.5 -129.5t14.5 -139.5q2 -37 2 -107q0 -57 -45 -57h-491q2 -127 41.5 -187.5t132.5 -60.5q110 0 243 49q12 4 23 4q8 0 15.5 -6.5t8.5 -17.5l35 -144q4 -16 4 -26q0 -19 -22 -33 q-33 -22 -129 -46t-195 -24q-207 0 -323.5 135t-116.5 425zM143 1569q0 30 33 30h180q36 0 54 -38l129 -265q6 -18 6 -28q0 -9 -8.5 -18t-18.5 -9h-123q-19 0 -33 9t-32 32l-176 254q-11 19 -11 33zM326 653h262q2 16 2 41q0 31 -4.5 61t-16 64t-36 55t-58.5 21 q-136 0 -149 -242z" />
<glyph unicode="&#xe9;" horiz-adv-x="901" d="M41 537q0 297 116.5 438t319.5 141q89 0 156 -29t107.5 -73.5t66.5 -111.5t36.5 -129.5t14.5 -139.5q2 -37 2 -107q0 -57 -45 -57h-491q2 -127 41.5 -187.5t132.5 -60.5q110 0 243 49q12 4 23 4q8 0 15.5 -6.5t8.5 -17.5l35 -144q4 -16 4 -26q0 -19 -22 -33 q-33 -22 -129 -46t-195 -24q-207 0 -323.5 135t-116.5 425zM326 653h262q2 16 2 41q0 31 -4.5 61t-16 64t-36 55t-58.5 21q-136 0 -149 -242zM369 1268q0 16 6 28l129 265q15 38 53 38h178q35 0 35 -30q0 -15 -10 -33l-178 -254q-28 -41 -66 -41h-123q-9 0 -16.5 9t-7.5 18z " />
<glyph unicode="&#xea;" horiz-adv-x="901" d="M41 537q0 297 116.5 438t319.5 141q89 0 156 -29t107.5 -73.5t66.5 -111.5t36.5 -129.5t14.5 -139.5q2 -37 2 -107q0 -57 -45 -57h-491q2 -127 41.5 -187.5t132.5 -60.5q110 0 243 49q12 4 23 4q8 0 15.5 -6.5t8.5 -17.5l35 -144q4 -16 4 -26q0 -19 -22 -33 q-33 -22 -129 -46t-195 -24q-207 0 -323.5 135t-116.5 425zM156 1268q0 12 6 24l139 264q16 27 31.5 35t38.5 8h184q31 0 47.5 -6.5t32.5 -33.5l141 -267q6 -12 6 -24t-8.5 -19.5t-19.5 -7.5h-121q-43 0 -64 31l-100 162l-102 -162q-13 -19 -26.5 -25t-35.5 -6h-123 q-10 0 -18 7t-8 20zM326 653h262q2 16 2 41q0 31 -4.5 61t-16 64t-36 55t-58.5 21q-136 0 -149 -242z" />
<glyph unicode="&#xeb;" horiz-adv-x="901" d="M41 537q0 297 116.5 438t319.5 141q89 0 156 -29t107.5 -73.5t66.5 -111.5t36.5 -129.5t14.5 -139.5q2 -37 2 -107q0 -57 -45 -57h-491q2 -127 41.5 -187.5t132.5 -60.5q110 0 243 49q12 4 23 4q8 0 15.5 -6.5t8.5 -17.5l35 -144q4 -16 4 -26q0 -19 -22 -33 q-33 -22 -129 -46t-195 -24q-207 0 -323.5 135t-116.5 425zM147 1378q0 71 38.5 106.5t101.5 35.5q61 0 99 -36t38 -106q0 -69 -38 -103t-99 -34q-63 0 -101.5 34t-38.5 103zM326 653h262q2 16 2 41q0 31 -4.5 61t-16 64t-36 55t-58.5 21q-136 0 -149 -242zM489 1378 q0 71 37.5 106.5t100.5 35.5q59 0 97 -36t38 -106q0 -68 -38 -102.5t-97 -34.5q-63 0 -100.5 34t-37.5 103z" />
<glyph unicode="&#xec;" horiz-adv-x="446" d="M-96 1569q0 30 33 30h180q35 0 53 -38l129 -265q6 -18 6 -28q0 -9 -8 -18t-18 -9h-123q-20 0 -34 9t-32 32l-176 254q-10 18 -10 33zM80 41v1014q0 41 29 41h204q31 0 31 -41v-1010q0 -45 -31 -45h-204q-29 0 -29 41z" />
<glyph unicode="&#xed;" horiz-adv-x="452" d="M102 41v1014q0 41 29 41h205q31 0 31 -41v-1010q0 -45 -31 -45h-205q-29 0 -29 41zM147 1268q0 14 7 28l129 265q15 38 53 38h178q35 0 35 -30q0 -15 -10 -33l-179 -254q-28 -41 -65 -41h-123q-9 0 -17 9t-8 18z" />
<glyph unicode="&#xee;" horiz-adv-x="425" d="M-100 1268q0 12 6 24l139 264q16 27 31.5 35t38.5 8h184q31 0 47.5 -6.5t32.5 -33.5l141 -267q6 -12 6 -24t-8.5 -19.5t-19.5 -7.5h-121q-43 0 -64 31l-100 162l-102 -162q-13 -19 -26.5 -25t-35.5 -6h-123q-10 0 -18 7t-8 20zM88 41v1014q0 41 29 41h205q30 0 30 -41 v-1010q0 -45 -30 -45h-205q-29 0 -29 41z" />
<glyph unicode="&#xef;" horiz-adv-x="446" d="M-84 1378q0 71 38 106.5t101 35.5q61 0 99.5 -36t38.5 -106q0 -68 -38.5 -102.5t-99.5 -34.5q-63 0 -101 34t-38 103zM92 41v1014q0 41 29 41h205q30 0 30 -41v-1010q0 -45 -30 -45h-205q-29 0 -29 41zM258 1378q0 71 37 106.5t100 35.5q59 0 97 -36t38 -106 q0 -68 -38 -102.5t-97 -34.5q-63 0 -100 34t-37 103z" />
<glyph unicode="&#xf0;" horiz-adv-x="907" d="M41 471q0 226 92.5 361t257.5 135q127 0 187 -84q-45 162 -172 307l-213 -76q-24 -8 -31 -8q-21 0 -29 18l-20 50q-4 14 -4 22q0 25 18 31l180 63q-81 77 -127 117q-22 19 -22 39q0 12 7.5 20.5t16.5 8.5h211q36 0 55.5 -7.5t49.5 -29.5l65 -56l148 54q24 8 30 8 q21 0 29 -19l21 -49q4 -14 4 -22q0 -25 -19 -31l-119 -43q209 -262 209 -678q0 -95 -16 -184.5t-50.5 -170t-84.5 -140.5t-122.5 -95t-160.5 -35q-79 0 -149.5 32t-124.5 92.5t-85.5 156t-31.5 213.5zM297 473q0 -262 143 -262q40 0 70 28.5t47.5 79.5t26 116t8.5 145 q0 58 -4 98q0 4 -10.5 16.5t-41.5 27.5t-73 15q-166 0 -166 -264z" />
<glyph unicode="&#xf1;" horiz-adv-x="1015" d="M102 41v1014q0 41 31 41h162q15 0 24.5 -7t11.5 -13.5t5 -20.5q-1 -3 24 -103q89 164 277 164q61 0 107.5 -18.5t86 -64t61 -132.5t21.5 -213v-643q0 -15 -1.5 -23.5t-8.5 -15t-20 -6.5h-205q-31 0 -31 41v653q0 124 -29 167.5t-79 43.5q-60 0 -104 -42.5t-66 -117.5 v-700q0 -45 -31 -45h-207q-29 0 -29 41zM178 1280q0 106 48.5 171t135.5 65q60 0 115 -19t93 -38t59 -19q15 0 24.5 10.5t16.5 40.5q8 25 37 25h108q17 0 25 -11.5t8 -23.5q0 -115 -54.5 -178.5t-152.5 -63.5q-64 0 -116.5 18.5t-84 37t-43.5 18.5q-19 0 -27.5 -9.5 t-13.5 -31.5q-3 -11 -5 -15t-13.5 -10t-32.5 -6h-88q-5 0 -11.5 1t-17 11t-10.5 27z" />
<glyph unicode="&#xf2;" horiz-adv-x="956" d="M41 547q0 151 34.5 263.5t96.5 178t140.5 96.5t174.5 31q106 0 188.5 -42.5t134.5 -119t78.5 -179.5t26.5 -228q0 -129 -25.5 -230t-66.5 -164t-98.5 -103.5t-116.5 -56.5t-125 -16q-208 0 -325 142.5t-117 427.5zM162 1567q0 30 33 30h180q35 0 53 -38l129 -265 q6 -18 6 -28q0 -9 -8 -18t-18 -9h-123q-20 0 -34 9t-32 32l-176 254q-10 17 -10 33zM319 547q0 -93 9 -160t23.5 -105t36.5 -60.5t43.5 -29t49.5 -6.5q80 0 118 80.5t38 280.5q0 189 -38 274.5t-114 85.5q-37 0 -64 -13.5t-51.5 -50t-37.5 -111t-13 -185.5z" />
<glyph unicode="&#xf3;" horiz-adv-x="956" d="M41 547q0 151 34.5 263.5t96.5 178t140.5 96.5t174.5 31q106 0 188.5 -42.5t134.5 -119t78.5 -179.5t26.5 -228q0 -129 -25.5 -230t-66.5 -164t-98.5 -103.5t-116.5 -56.5t-125 -16q-208 0 -325 142.5t-117 427.5zM319 547q0 -93 9 -160t23.5 -105t36.5 -60.5t43.5 -29 t49.5 -6.5q80 0 118 80.5t38 280.5q0 189 -38 274.5t-114 85.5q-37 0 -64 -13.5t-51.5 -50t-37.5 -111t-13 -185.5zM393 1268q0 16 6 28l129 265q15 38 54 38h178q35 0 35 -30q0 -14 -11 -33l-178 -254q-28 -41 -65 -41h-123q-9 0 -17 9t-8 18z" />
<glyph unicode="&#xf4;" horiz-adv-x="956" d="M41 547q0 151 34.5 263.5t96.5 178t140.5 96.5t174.5 31q106 0 188.5 -42.5t134.5 -119t78.5 -179.5t26.5 -228q0 -129 -25.5 -230t-66.5 -164t-98.5 -103.5t-116.5 -56.5t-125 -16q-208 0 -325 142.5t-117 427.5zM170 1268q0 12 6 24l139 264q16 27 31.5 35t38.5 8h184 q31 0 47.5 -6.5t32.5 -33.5l142 -267q6 -12 6 -24t-9 -19.5t-20 -7.5h-121q-22 0 -36 6t-27 25l-101 162l-102 -162q-13 -19 -26.5 -25t-35.5 -6h-122q-10 0 -18.5 7t-8.5 20zM319 547q0 -93 9 -160t23.5 -105t36.5 -60.5t43.5 -29t49.5 -6.5q80 0 118 80.5t38 280.5 q0 189 -38 274.5t-114 85.5q-37 0 -64 -13.5t-51.5 -50t-37.5 -111t-13 -185.5z" />
<glyph unicode="&#xf5;" horiz-adv-x="956" d="M41 547q0 151 34.5 263.5t96.5 178t140.5 96.5t174.5 31q106 0 188.5 -42.5t134.5 -119t78.5 -179.5t26.5 -228q0 -129 -25.5 -230t-66.5 -164t-98.5 -103.5t-116.5 -56.5t-125 -16q-208 0 -325 142.5t-117 427.5zM143 1282q0 105 49 170.5t136 65.5q60 0 114.5 -19 t92.5 -38t59 -19q15 0 24.5 10.5t16.5 40.5q8 25 37 25h108q17 0 25 -11.5t8 -23.5q0 -115 -54.5 -178.5t-152.5 -63.5q-64 0 -116.5 18.5t-84 37t-43.5 18.5q-19 0 -27 -9.5t-13 -31.5q-3 -10 -5.5 -15t-14 -10.5t-32.5 -5.5h-88q-5 0 -11.5 1t-17 11t-10.5 27zM319 547 q0 -93 9 -160t23.5 -105t36.5 -60.5t43.5 -29t49.5 -6.5q80 0 118 80.5t38 280.5q0 189 -38 274.5t-114 85.5q-37 0 -64 -13.5t-51.5 -50t-37.5 -111t-13 -185.5z" />
<glyph unicode="&#xf6;" horiz-adv-x="956" d="M41 547q0 151 34.5 263.5t96.5 178t140.5 96.5t174.5 31q106 0 188.5 -42.5t134.5 -119t78.5 -179.5t26.5 -228q0 -129 -25.5 -230t-66.5 -164t-98.5 -103.5t-116.5 -56.5t-125 -16q-208 0 -325 142.5t-117 427.5zM172 1378q0 71 38 106.5t101 35.5q61 0 99.5 -36 t38.5 -106q0 -68 -38.5 -102.5t-99.5 -34.5q-63 0 -101 34t-38 103zM319 547q0 -93 9 -160t23.5 -105t36.5 -60.5t43.5 -29t49.5 -6.5q80 0 118 80.5t38 280.5q0 189 -38 274.5t-114 85.5q-37 0 -64 -13.5t-51.5 -50t-37.5 -111t-13 -185.5zM514 1378q0 71 37 106.5 t100 35.5q59 0 97 -36t38 -106q0 -68 -38 -102.5t-97 -34.5q-63 0 -100 34t-37 103z" />
<glyph unicode="&#xf7;" horiz-adv-x="815" d="M72 524v107q0 41 41 41h592q38 0 38 -41v-103q0 -45 -38 -45h-594q-39 0 -39 41zM276 250q0 58 35.5 99.5t91.5 41.5q58 0 93.5 -41t35.5 -100q0 -61 -35.5 -101t-93.5 -40q-54 0 -90.5 40.5t-36.5 100.5zM276 926q0 58 35.5 99.5t91.5 41.5q58 0 93.5 -41t35.5 -100 q0 -61 -35.5 -101.5t-93.5 -40.5q-54 0 -90.5 41t-36.5 101z" />
<glyph unicode="&#xf8;" horiz-adv-x="952" d="M37 547q0 276 119 422.5t321 146.5q124 0 201 -47l35 64q14 26 25.5 35.5t31.5 9.5h129q14 0 22.5 -10t8.5 -23q0 -9 -8 -25l-103 -180q92 -147 92 -393q0 -124 -23 -222.5t-62.5 -162.5t-95.5 -106.5t-118.5 -60.5t-134.5 -18q-75 0 -180 37l-23 -41q-17 -27 -27 -36 t-30 -9h-129q-14 0 -22.5 10t-8.5 23t6 25l80 143q-106 136 -106 418zM309 547q0 -14 6 -119l258 432q-38 47 -88 47q-27 0 -48.5 -6t-46.5 -28t-42 -59t-28 -105.5t-11 -161.5zM397 217q29 -29 90 -29q152 0 152 363q0 27 -4 67z" />
<glyph unicode="&#xf9;" horiz-adv-x="1005" d="M92 385v666q0 45 31 45h203q32 0 32 -41v-643q0 -72 8 -118t26 -68t37 -29t50 -7q39 0 87.5 36t70.5 124v701q0 45 31 45h206q29 0 29 -41v-1014q0 -41 -31 -41h-161q-5 0 -9.5 0.5t-8 2.5t-6 3.5t-5 5t-3.5 5t-3 7t-2.5 7t-3 8.5t-2.5 8l-23 94q-29 -53 -69 -89 t-80 -50.5t-65 -19.5t-44 -5q-47 0 -85.5 8.5t-79 34.5t-68 69.5t-45 119t-17.5 176.5zM180 1569q0 30 33 30h180q35 0 53 -38l129 -265q7 -21 7 -28q0 -9 -8.5 -18t-18.5 -9h-123q-19 0 -33 9t-32 32l-177 254q-10 18 -10 33z" />
<glyph unicode="&#xfa;" horiz-adv-x="1005" d="M92 385v666q0 45 31 45h203q32 0 32 -41v-643q0 -72 8 -118t26 -68t37 -29t50 -7q39 0 87.5 36t70.5 124v701q0 45 31 45h206q29 0 29 -41v-1014q0 -41 -31 -41h-161q-5 0 -9.5 0.5t-8 2.5t-6 3.5t-5 5t-3.5 5t-3 7t-2.5 7t-3 8.5t-2.5 8l-23 94q-29 -53 -69 -89 t-80 -50.5t-65 -19.5t-44 -5q-47 0 -85.5 8.5t-79 34.5t-68 69.5t-45 119t-17.5 176.5zM406 1268q0 16 6 28l129 265q15 38 53 38h178q35 0 35 -30q0 -15 -10 -33l-179 -254q-28 -41 -65 -41h-123q-9 0 -16.5 9t-7.5 18z" />
<glyph unicode="&#xfb;" horiz-adv-x="1005" d="M92 385v666q0 45 31 45h203q32 0 32 -41v-643q0 -72 8 -118t26 -68t37 -29t50 -7q39 0 87.5 36t70.5 124v701q0 45 31 45h206q29 0 29 -41v-1014q0 -41 -31 -41h-161q-5 0 -9.5 0.5t-8 2.5t-6 3.5t-5 5t-3.5 5t-3 7t-2.5 7t-3 8.5t-2.5 8l-23 94q-29 -53 -69 -89 t-80 -50.5t-65 -19.5t-44 -5q-47 0 -85.5 8.5t-79 34.5t-68 69.5t-45 119t-17.5 176.5zM188 1268q0 10 7 24l139 264q16 27 31 35t38 8h185q31 0 47.5 -6.5t32.5 -33.5l141 -267q6 -12 6 -24t-9 -19.5t-20 -7.5h-120q-43 0 -64 31l-100 162l-103 -162q-13 -19 -26 -25 t-35 -6h-123q-10 0 -18.5 7t-8.5 20z" />
<glyph unicode="&#xfc;" horiz-adv-x="1005" d="M92 385v666q0 45 31 45h203q32 0 32 -41v-643q0 -72 8 -118t26 -68t37 -29t50 -7q39 0 87.5 36t70.5 124v701q0 45 31 45h206q29 0 29 -41v-1014q0 -41 -31 -41h-161q-5 0 -9.5 0.5t-8 2.5t-6 3.5t-5 5t-3.5 5t-3 7t-2.5 7t-3 8.5t-2.5 8l-23 94q-29 -53 -69 -89 t-80 -50.5t-65 -19.5t-44 -5q-47 0 -85.5 8.5t-79 34.5t-68 69.5t-45 119t-17.5 176.5zM188 1378q0 71 38.5 106.5t101.5 35.5q61 0 99 -36t38 -106q0 -69 -38 -103t-99 -34q-63 0 -101.5 34t-38.5 103zM530 1378q0 71 37.5 106.5t100.5 35.5q59 0 97 -36t38 -106 q0 -68 -38 -102.5t-97 -34.5q-63 0 -100.5 34t-37.5 103z" />
<glyph unicode="&#xfd;" horiz-adv-x="843" d="M-20 1063q0 33 26 33h197q30 0 37 -45l116 -586l58 -309l59 309l107 594q8 37 38 37h185q31 0 31 -33q0 -11 -5 -31l-227 -1130q-33 -171 -113.5 -241.5t-230.5 -70.5q-72 0 -145.5 15.5t-106.5 36.5q-20 11 -20 36q0 9 4 29l35 111q4 15 13.5 23.5t18.5 8.5q11 0 68 -17 t111 -17q48 0 78 20.5t44 81.5l15 70q-89 12 -129.5 48t-61.5 130l-200 878q-2 8 -2 19zM319 1268q0 14 7 28l129 265q15 38 53 38h178q35 0 35 -30q0 -15 -10 -33l-179 -254q-28 -41 -65 -41h-123q-9 0 -17 9t-8 18z" />
<glyph unicode="&#xfe;" horiz-adv-x="985" d="M102 -408v1862q0 41 23 49l188 37q20 4 29 4q10 0 18.5 -9.5t8.5 -29.5v-540q79 151 241 151q158 0 246 -135t88 -412q0 -144 -24 -253.5t-60.5 -172.5t-88.5 -101.5t-99 -51.5t-101 -13q-62 0 -116.5 29t-85.5 92v-501q0 -48 -33 -48h-203q-31 0 -31 43zM369 313 q24 -68 63.5 -96.5t77.5 -28.5q75 0 115.5 92t40.5 275q0 350 -150 350q-45 0 -84.5 -32t-62.5 -99v-461z" />
<glyph unicode="&#xff;" horiz-adv-x="843" d="M-20 1063q0 33 26 33h197q30 0 37 -45l116 -586l58 -309l59 309l107 594q8 37 38 37h185q31 0 31 -33q0 -11 -5 -31l-227 -1130q-33 -171 -113.5 -241.5t-230.5 -70.5q-72 0 -145.5 15.5t-106.5 36.5q-20 11 -20 36q0 9 4 29l35 111q4 15 13.5 23.5t18.5 8.5q11 0 68 -17 t111 -17q48 0 78 20.5t44 81.5l15 70q-89 12 -129.5 48t-61.5 130l-200 878q-2 8 -2 19zM90 1378q0 71 38 106.5t101 35.5q61 0 99.5 -36t38.5 -106q0 -68 -38.5 -102.5t-99.5 -34.5q-63 0 -101 34t-38 103zM432 1378q0 71 37 106.5t100 35.5q59 0 97.5 -36t38.5 -106 q0 -68 -38 -102.5t-98 -34.5q-63 0 -100 34t-37 103z" />
<glyph unicode="&#x152;" horiz-adv-x="1523" d="M61 731q0 171 33 304.5t86 214.5t126 133.5t145.5 72t152.5 19.5h840q15 0 24 -11t9 -30v-154q0 -47 -33 -47h-395v-320h331q15 0 24 -11t9 -30v-151q0 -47 -31 -47h-333v-432h419q35 0 35 -43v-154q0 -45 -35 -45h-862q-45 0 -84.5 3.5t-85 14.5t-83.5 28t-77 46.5 t-70 68t-59 94t-46.5 124t-29 158t-10.5 194.5zM356 739q0 -251 63 -379.5t210 -128.5h133v1012h-117q-79 0 -136.5 -39.5t-90 -110.5t-47.5 -158.5t-15 -195.5z" />
<glyph unicode="&#x153;" horiz-adv-x="1439" d="M41 547q0 151 34.5 263.5t96.5 178t140.5 96.5t174.5 31q98 0 168.5 -31.5t120.5 -109.5q103 141 303 141q91 0 160 -31t109 -79t65.5 -119t34.5 -136t12 -145q0 -14 1 -40t1 -40q0 -57 -45 -57h-491q2 -127 41.5 -187.5t132.5 -60.5q110 0 243 49q12 4 23 4q8 0 16 -6.5 t9 -17.5l34 -144q5 -20 5 -26q0 -19 -23 -33q-33 -22 -129 -46t-195 -24q-204 0 -307 138q-107 -138 -293 -138q-208 0 -325 142.5t-117 427.5zM319 547q0 -93 9 -160t23.5 -105t36.5 -60.5t43.5 -29t49.5 -6.5q80 0 118 80.5t38 280.5q0 189 -38 274.5t-114 85.5 q-37 0 -64 -13.5t-51.5 -50t-37.5 -111t-13 -185.5zM928 653h262q2 16 2 41q0 31 -4.5 61t-16 64t-36 55t-58.5 21q-136 0 -149 -242z" />
<glyph unicode="&#x178;" horiz-adv-x="991" d="M12 1444q0 31 23 31h223q11 0 17 -1t14.5 -9.5t15.5 -24.5l113 -330l78 -227l77 227l115 330q6 16 14.5 24.5t14.5 9.5t18 1h219q11 0 18 -10t7 -23q0 -9 -4 -21l-342 -800v-580q0 -41 -27 -41h-221q-27 0 -27 41v577l-342 803q-4 12 -4 23zM188 1767q0 71 38.5 106.5 t101.5 35.5q61 0 99 -36t38 -106q0 -69 -38 -103t-99 -34q-63 0 -101.5 34t-38.5 103zM530 1767q0 71 37.5 106.5t100.5 35.5q59 0 97 -36t38 -106q0 -68 -38 -102.5t-97 -34.5q-63 0 -100.5 34t-37.5 103z" />
<glyph unicode="&#x2c6;" horiz-adv-x="831" d="M102 1266q0 10 7 24l139 264q16 27 31 35t38 8h185q31 0 47.5 -7t32.5 -34l141 -266q6 -12 6 -24t-9 -19.5t-20 -7.5h-120q-43 0 -64 31l-100 162l-103 -162q-13 -19 -26 -25t-35 -6h-123q-10 0 -18.5 7t-8.5 20z" />
<glyph unicode="&#x2dc;" horiz-adv-x="876" d="M104 1278q0 105 49 170t136 65q60 0 114.5 -18.5t92.5 -37.5t59 -19q15 0 24.5 10.5t16.5 40.5q8 24 37 24h108q17 0 25 -11t8 -23q0 -115 -54.5 -178.5t-152.5 -63.5q-50 0 -94.5 11.5t-69 25.5t-46.5 25.5t-33 11.5q-19 0 -27.5 -9.5t-13.5 -31.5q-3 -10 -5.5 -15 t-14 -10.5t-32.5 -5.5h-88q-5 0 -11.5 1t-17 11t-10.5 27z" />
<glyph unicode="&#x2000;" horiz-adv-x="1045" />
<glyph unicode="&#x2001;" horiz-adv-x="2091" />
<glyph unicode="&#x2002;" horiz-adv-x="1045" />
<glyph unicode="&#x2003;" horiz-adv-x="2091" />
<glyph unicode="&#x2004;" horiz-adv-x="697" />
<glyph unicode="&#x2005;" horiz-adv-x="522" />
<glyph unicode="&#x2006;" horiz-adv-x="348" />
<glyph unicode="&#x2007;" horiz-adv-x="348" />
<glyph unicode="&#x2008;" horiz-adv-x="261" />
<glyph unicode="&#x2009;" horiz-adv-x="418" />
<glyph unicode="&#x200a;" horiz-adv-x="116" />
<glyph unicode="&#x2010;" horiz-adv-x="618" d="M72 504v168q0 20 10 31.5t24 11.5h408q33 0 33 -43v-168q0 -43 -35 -43h-406q-15 0 -24.5 11.5t-9.5 31.5z" />
<glyph unicode="&#x2011;" horiz-adv-x="618" d="M72 504v168q0 20 10 31.5t24 11.5h408q33 0 33 -43v-168q0 -43 -35 -43h-406q-15 0 -24.5 11.5t-9.5 31.5z" />
<glyph unicode="&#x2012;" horiz-adv-x="618" d="M72 504v168q0 20 10 31.5t24 11.5h408q33 0 33 -43v-168q0 -43 -35 -43h-406q-15 0 -24.5 11.5t-9.5 31.5z" />
<glyph unicode="&#x2013;" horiz-adv-x="1009" d="M72 504v168q0 20 10 31.5t24 11.5h799q14 0 23.5 -11t9.5 -32v-168q0 -43 -35 -43h-797q-15 0 -24.5 11.5t-9.5 31.5z" />
<glyph unicode="&#x2014;" horiz-adv-x="1699" d="M72 504v168q0 18 10.5 30.5t21.5 12.5h1498q6 0 16 -12.5t10 -30.5v-170q0 -19 -9 -30t-22 -11h-1497q-10 0 -19 12t-9 31z" />
<glyph unicode="&#x2018;" horiz-adv-x="387" d="M20 1163q0 11 9 35l159 383q20 47 68 47h82q19 0 29 -10t10 -23q0 -7 -4 -30l-84 -381q-7 -31 -21 -40t-39 -9h-176q-14 0 -23.5 7.5t-9.5 20.5z" />
<glyph unicode="&#x2019;" horiz-adv-x="387" d="M20 1167q0 2 5 31l84 381q7 31 20.5 40t38.5 9h176q14 0 23.5 -8t9.5 -21t-8 -34l-160 -383q-20 -47 -68 -47h-82q-19 0 -29 9.5t-10 22.5z" />
<glyph unicode="&#x201a;" horiz-adv-x="397" d="M0 -180q0 7 4 30l84 381q7 31 20.5 40.5t38.5 9.5h177q14 0 23 -8t9 -21q0 -14 -8 -35l-160 -383q-20 -47 -67 -47h-82q-19 0 -29 10t-10 23z" />
<glyph unicode="&#x201c;" horiz-adv-x="743" d="M20 1163q0 11 9 35l159 383q20 47 68 47h82q19 0 29 -10t10 -23q0 -7 -4 -30l-84 -381q-7 -31 -21 -40t-39 -9h-176q-14 0 -23.5 7.5t-9.5 20.5zM377 1163q0 14 8 35l160 383q20 47 67 47h82q19 0 29 -10t10 -23q0 -7 -4 -30l-84 -381q-7 -31 -20.5 -40t-38.5 -9h-176 q-14 0 -23.5 7.5t-9.5 20.5z" />
<glyph unicode="&#x201d;" horiz-adv-x="743" d="M20 1167q0 2 5 31l84 381q7 31 20.5 40t38.5 9h176q14 0 23.5 -8t9.5 -21t-8 -34l-160 -383q-20 -47 -68 -47h-82q-19 0 -29 9.5t-10 22.5zM377 1167q0 8 4 31l84 381q7 31 20.5 40t38.5 9h176q14 0 23.5 -8t9.5 -21t-8 -34l-160 -383q-20 -47 -67 -47h-82q-19 0 -29 9.5 t-10 22.5z" />
<glyph unicode="&#x201e;" horiz-adv-x="757" d="M0 -180q0 7 4 30l84 381q7 31 20.5 40.5t38.5 9.5h177q14 0 23 -8t9 -21q0 -14 -8 -35l-160 -383q-20 -47 -67 -47h-82q-19 0 -29 10t-10 23zM360 -180q0 1 5 30l84 381q7 31 20.5 40.5t38.5 9.5h176q14 0 23.5 -8t9.5 -21q0 -14 -8 -35l-160 -383q-20 -47 -68 -47h-82 q-19 0 -29 10t-10 23z" />
<glyph unicode="&#x2022;" horiz-adv-x="681" d="M72 594q0 114 78 195t190 81q111 0 190.5 -81t79.5 -195q0 -115 -79.5 -195t-190.5 -80q-113 0 -190.5 80t-77.5 195z" />
<glyph unicode="&#x2026;" horiz-adv-x="1345" d="M82 129q0 68 40 115t103 47q67 0 108.5 -47t41.5 -115q0 -69 -41.5 -114.5t-108.5 -45.5q-61 0 -102 46t-41 114zM528 129q0 67 41 114.5t103 47.5q67 0 108 -47t41 -115q0 -69 -41.5 -114.5t-107.5 -45.5q-61 0 -102.5 46t-41.5 114zM971 129q0 67 40.5 114.5 t102.5 47.5q67 0 108.5 -47t41.5 -115q0 -69 -41.5 -114.5t-108.5 -45.5q-61 0 -102 46t-41 114z" />
<glyph unicode="&#x202f;" horiz-adv-x="418" />
<glyph unicode="&#x2039;" horiz-adv-x="589" d="M72 504q0 39 20 59l172 275q24 45 70 45h172q9 0 15.5 -6.5t6.5 -16.5q0 -9 -10 -29l-156 -321l156 -326q10 -20 10 -28q0 -10 -6.5 -16.5t-15.5 -6.5h-172q-23 0 -38 9t-32 36l-172 273l-4 6q-4 6 -7 12t-6 16t-3 19z" />
<glyph unicode="&#x203a;" horiz-adv-x="589" d="M72 156q0 8 10 28l156 326l-156 321q-10 20 -10 29q0 10 6.5 16.5t15.5 6.5h172q46 0 70 -45l172 -275q20 -20 20 -59q0 -9 -3 -19t-6 -16t-7 -12l-4 -6l-172 -273q-17 -27 -32 -36t-38 -9h-172q-9 0 -15.5 6.5t-6.5 16.5z" />
<glyph unicode="&#x205f;" horiz-adv-x="522" />
<glyph unicode="&#x20ac;" horiz-adv-x="1083" d="M20 528v103q0 18 9.5 28.5t23.5 10.5h49v135h-47q-35 0 -35 35v102q0 18 9.5 28.5t23.5 10.5h64q16 121 51.5 212t96.5 161t156 106.5t222 36.5q302 0 401 -272q9 -27 9 -39q0 -27 -25 -37l-139 -49q-18 -6 -33 -6q-26 0 -43 28q-42 73 -83.5 100t-94.5 27 q-97 0 -150.5 -67t-74.5 -201h360q37 0 37 -35q0 -16 -4 -20l-25 -82q-10 -39 -57 -39h-326v-62q0 -48 2 -73h293q37 0 37 -35q0 -17 -4 -21l-25 -82q-10 -38 -57 -38h-221q58 -256 252 -256q38 0 72 3.5t67 13t48 14t47.5 17.5t33.5 13q13 8 29 8q21 0 28 -20l60 -164 q4 -16 4 -21q0 -23 -23 -36q-63 -36 -166 -62.5t-221 -26.5q-228 0 -359 135t-171 382h-66q-35 0 -35 34z" />
<glyph unicode="&#x2122;" horiz-adv-x="1241" d="M0 1348v96q0 27 23 31h376q27 0 27 -31v-96q0 -31 -27 -31h-102v-402q0 -30 -23 -30h-120q-27 0 -27 30v402h-104q-23 0 -23 31zM451 915l20 435q6 131 150 131q40 0 66 -9.5t39.5 -30t19 -37.5t10.5 -46l51 -283l8 -63q8 62 8 63l51 283q4 31 11 50.5t22 37.5t43.5 26.5 t71.5 8.5q53 0 93.5 -30.5t43.5 -100.5l21 -435q0 -30 -21 -30h-106q-10 0 -16.5 7t-6.5 15l-12 342l-6 150l-17 -115l-43 -246q-10 -57 -39.5 -85.5t-95.5 -28.5t-97 25.5t-40 80.5l-45 252l-21 115l-2 -119l-10 -367q0 -9 -5.5 -17.5t-16.5 -8.5h-109q-20 0 -20 30z" />
<glyph unicode="&#x25fc;" horiz-adv-x="1095" d="M0 0v1096h1096v-1096h-1096z" />
</font>
</defs>
</svg>
