<?xml version="1.0" standalone="no"?>
<!DOCTYPE svg PUBLIC "-//W3C//DTD SVG 1.1//EN" "http://www.w3.org/Graphics/SVG/1.1/DTD/svg11.dtd" >
<svg xmlns="http://www.w3.org/2000/svg">
<metadata></metadata>
<defs>
<font id="comexmedium_condensed_italic" horiz-adv-x="1189" >
<font-face units-per-em="2048" ascent="1536" descent="-512" />
<missing-glyph horiz-adv-x="430" />
<glyph unicode="&#xfb01;" horiz-adv-x="980" d="M-180 -342q0 14 10 31l35 78q9 22 31 22q6 0 44 -12.5t66 -12.5q45 0 68.5 40.5t44.5 164.5l170 946h-86q-33 0 -33 31l20 98q9 39 41 39h86l21 111q33 186 111 267t206 83q38 0 85 -11t69 -28q12 -9 12 -22q0 -11 -6 -23l-37 -78q-11 -22 -33 -22q-4 0 -24 4 q-30 10 -53 10q-53 0 -84 -39t-52 -151l-18 -101h125q14 0 22.5 -8.5t8.5 -23.5l-19 -99q-5 -37 -45 -37h-123l-178 -1005q-31 -176 -100 -247t-195 -73q-43 0 -95.5 11.5t-82.5 31.5q-12 9 -12 25zM631 23q-3 8 0 24l178 995q7 41 51 41h117q13 0 22 -9t9 -23q0 -2 -1 -8.5 t-1 -8.5l-179 -997q-8 -37 -47 -37h-116q-30 0 -33 23zM831 1305q0 53 35 85.5t92 32.5t89 -29.5t32 -76.5q0 -55 -35 -88t-96 -33q-53 0 -85 31.5t-32 77.5z" />
<glyph unicode="&#xfb02;" horiz-adv-x="976" d="M-180 -342q0 14 10 31l35 78q9 22 31 22q6 0 44 -12.5t66 -12.5q45 0 68.5 40.5t44.5 164.5l170 946h-86q-33 0 -33 31l20 98q9 39 41 39h86l21 111q33 186 111 267t206 83q38 0 85 -11t69 -28q12 -9 12 -22q0 -11 -6 -23l-37 -78q-11 -22 -33 -22q-4 0 -24 4 q-30 10 -53 10q-53 0 -84 -39t-52 -151l-18 -101h125q14 0 22.5 -8.5t8.5 -23.5l-19 -99q-5 -37 -45 -37h-123l-178 -1005q-31 -176 -100 -247t-195 -73q-43 0 -95.5 11.5t-82.5 31.5q-12 9 -12 25zM627 33l2 14l254 1417q8 46 49 52l108 26q2 0 9 1t8 1q33 0 30 -33 l-262 -1472q-8 -39 -47 -39h-116q-15 0 -25 9t-10 24z" />
<glyph horiz-adv-x="0" />
<glyph horiz-adv-x="682" />
<glyph unicode=" "  horiz-adv-x="430" />
<glyph unicode="&#x09;" horiz-adv-x="430" />
<glyph unicode="&#xa0;" horiz-adv-x="430" />
<glyph unicode="!" horiz-adv-x="567" d="M180 100q0 60 38 104t101 44q53 0 84 -34.5t31 -92.5q0 -65 -39.5 -107.5t-99.5 -42.5q-54 0 -84.5 34.5t-30.5 94.5zM270 395q0 9 2 19l156 1091q7 41 45 41h154q28 0 28 -24q0 -19 -2 -25l-223 -1094q-8 -41 -45 -41h-84q-14 0 -22.5 9.5t-8.5 23.5z" />
<glyph unicode="&#x22;" horiz-adv-x="559" d="M248 1206l35 322q6 35 39 35h110q34 0 31 -35l-78 -318q-11 -41 -43 -41h-63q-34 0 -31 37zM506 1206l35 322q6 35 39 35h110q34 0 31 -35l-78 -318q-11 -41 -43 -41h-63q-34 0 -31 37z" />
<glyph unicode="#" horiz-adv-x="1249" d="M168 492q0 8 4 20l25 61q8 22 17.5 31.5t27.5 9.5h204l101 299h-205q-25 0 -25 19q0 5 3 15.5t4 13.5l20 55q9 25 18 33t29 8h201l139 426q10 30 20.5 37.5t36.5 7.5h78q23 0 23 -21q0 -14 -8 -30l-138 -424h232l139 430q9 29 20 37t37 8h76q23 0 23 -21q0 -15 -6 -30 l-138 -420h207q29 0 29 -23q0 -6 -4 -18l-27 -70q-11 -33 -43 -33h-209l-98 -299h209q24 0 24 -20q0 -13 -2 -19l-28 -71q-10 -33 -45 -33h-203l-141 -428q-9 -27 -20 -35t-36 -8h-73q-25 0 -25 23q0 16 6 28l135 422h-229l-141 -434q-7 -23 -18.5 -31t-35.5 -8h-75 q-23 0 -23 23q0 6 4 26l135 422h-204q-27 0 -27 21zM598 612h231l101 301h-232z" />
<glyph unicode="$" horiz-adv-x="964" d="M113 111q6 23 10 30l41 86q12 25 33 25q14 0 26 -8q129 -82 256 -82q240 0 240 231q0 120 -125 213l-109 84q-190 146 -190 350q0 195 109 304.5t307 109.5q131 0 213.5 -65t107.5 -164q6 -18 6 -33q-4 -22 -30 -33l-86 -33q-8 -4 -25 -4q-23 0 -35 27q-21 54 -63 89.5 t-101 35.5q-91 0 -140.5 -54.5t-49.5 -158.5q0 -67 34.5 -114t94.5 -95l108 -90q185 -147 185 -354q0 -215 -118 -323t-347 -108q-97 0 -191 31t-143 68q-18 12 -18 35zM371 -186q0 8 2 14l30 182l150 -2l-31 -180q-9 -43 -45 -43h-76q-30 0 -30 29zM657 1432l31 163 q3 23 13 33t30 10h76q17 0 24 -6.5t7 -23.5v-13l-31 -172z" />
<glyph unicode="%" horiz-adv-x="1273" d="M211 1016q0 59 11 118.5t37 118.5t63 104t93.5 73t125.5 28q105 0 158 -72t53 -184q0 -72 -20 -145t-58 -138.5t-104.5 -107t-149.5 -41.5q-101 0 -155 67.5t-54 178.5zM215 20q0 19 14 41l889 1356q15 26 29 34.5t39 8.5h84q22 0 22 -18q0 -20 -16 -41l-889 -1356 q-15 -27 -28 -36t-37 -9h-84q-23 0 -23 20zM379 1028q0 -121 63 -121q37 0 65.5 33t44 81.5t23 94.5t7.5 82q0 123 -66 123q-36 0 -64 -33t-43 -82t-22.5 -95.5t-7.5 -82.5zM727 225q0 75 19 149t56 141t103 109t150 42q105 0 158 -71t53 -183q0 -57 -11.5 -115.5 t-37.5 -116.5t-63.5 -102.5t-94.5 -72.5t-125 -28q-101 0 -154 68t-53 180zM895 238q0 -123 63 -123q37 0 65.5 33t43 82t22 94.5t7.5 81.5q0 122 -66 122q-36 0 -64 -32.5t-42.5 -81t-21.5 -94t-7 -82.5z" />
<glyph unicode="&#x26;" horiz-adv-x="1132" d="M125 301q0 86 23.5 161t70.5 139t104 117t136 109l-15 35q-51 111 -51 221q0 155 94 247.5t250 92.5q112 0 187 -68t75 -192q-1 -93 -47 -176t-125 -141q-29 -21 -45 -21q-12 0 -26 17l-45 63q-6 12 -6 25q0 20 20 35q92 78 92 180q0 59 -25 88t-63 29q-65 0 -106.5 -45 t-42.5 -125q0 -74 32 -146l232 -516q65 126 104 299q10 45 39 45h123q27 0 27 -29q-2 -4 -2 -14q-22 -113 -78 -248t-121 -231l29 -59q16 -31 41 -31q12 0 29.5 5t27.5 5q19 0 22 -27l9 -82q7 -37 -25 -53q-52 -22 -111 -22q-100 0 -151 84l-23 41q-160 -133 -356 -133 q-124 0 -213.5 87t-89.5 234zM319 326q0 -92 41 -138.5t113 -46.5q65 0 130 30.5t114 96.5l-187 414q-211 -165 -211 -356z" />
<glyph unicode="'" horiz-adv-x="301" d="M248 1206l35 322q6 35 39 35h110q34 0 31 -35l-78 -318q-11 -41 -43 -41h-63q-34 0 -31 37z" />
<glyph unicode="(" horiz-adv-x="661" d="M211 354q0 106 15 224.5t55.5 259.5t101 264t161 233.5t226.5 173.5q18 7 29 7q16 0 26 -17l35 -88q4 -12 4 -16q0 -9 -4.5 -16.5t-9 -11t-16.5 -11.5q-108 -68 -192 -187.5t-132 -259.5t-72 -282.5t-24 -278.5q0 -322 155 -454q17 -14 17 -33q0 -12 -11 -27l-51 -76 q-14 -18 -30 -18q-15 0 -27 8q-71 36 -123.5 106t-80 156t-40 171.5t-12.5 172.5z" />
<glyph unicode=")" horiz-adv-x="663" d="M14 -139q0 20 29 39q108 67 192.5 186.5t133.5 260t73.5 283t24.5 277.5q0 330 -154 457q-18 13 -18 33q0 10 12 26l47 74q15 19 33 19q9 0 27 -9q71 -38 123 -107.5t79.5 -155t40.5 -171t13 -172.5q0 -106 -15 -224t-55.5 -259t-101 -264.5t-161 -234t-226.5 -173.5 q-15 -6 -29 -6q-17 0 -27 16l-37 88q-4 8 -4 17z" />
<glyph unicode="*" horiz-adv-x="634" d="M260 1307q0 2 2 7t2 7l47 96q13 23 33 23q11 0 23 -8l143 -103q-2 14 -3.5 108.5t-2.5 102.5q0 10 2 16q4 33 37 33h98q33 0 29 -33q-1 -3 -3 -8t-3 -8l-78 -209l174 101q25 10 28 10q20 0 23 -25l12 -96q2 -6 2 -14q-6 -29 -41 -33l-178 -17l113 -141q10 -20 6 -33 q-4 -18 -23 -26l-88 -53q-14 -7 -24 -7q-22 0 -25 29l-39 201l-106 -201q-13 -29 -33 -29q-8 0 -22 7l-72 53q-18 11 -14 26q7 19 20 33l162 141l-170 17q-37 4 -31 33z" />
<glyph unicode="+" horiz-adv-x="901" d="M213 543v71q0 20 8 29.5t29 9.5h235v338q0 41 33 41h76q35 0 35 -41v-338h231q21 0 28 -9.5t7 -29.5v-69q0 -20 -7.5 -29.5t-29.5 -9.5h-229v-334q0 -43 -35 -43h-76q-33 0 -33 41v336h-235q-37 0 -37 37z" />
<glyph unicode="," horiz-adv-x="346" d="M-10 -172q0 9 4 25l117 327q15 41 55 41h121q28 0 28 -26q0 -14 -8 -33l-172 -320q-21 -43 -65 -43h-52q-28 0 -28 29z" />
<glyph unicode="-" horiz-adv-x="686" d="M199 528v17l16 88q7 37 41 37h412q28 0 28 -27l-2 -20l-14 -84q-6 -37 -43 -37h-408q-30 0 -30 26z" />
<glyph unicode="." horiz-adv-x="413" d="M104 92q0 58 36.5 96.5t92.5 38.5q52 0 80.5 -34t28.5 -93q0 -58 -37 -94.5t-90 -36.5q-50 0 -79.5 34t-31.5 89z" />
<glyph unicode="/" horiz-adv-x="450" d="M131 4q0 15 4 23l432 1482q7 28 16.5 36.5t30.5 8.5h80q27 0 27 -24q0 -15 -4 -21l-430 -1484q-7 -27 -17.5 -36t-31.5 -9h-80q-12 0 -19.5 6.5t-7.5 17.5z" />
<glyph unicode="0" horiz-adv-x="1009" d="M205 475q0 135 19.5 268.5t62.5 258.5t104.5 220t152 152.5t197.5 57.5t178 -62t101.5 -165.5t30.5 -246.5q0 -146 -20.5 -286t-63.5 -266.5t-104.5 -221.5t-150.5 -151t-194 -56q-159 0 -236 129t-77 369zM403 457q0 -64 4.5 -110.5t16.5 -93.5t39.5 -72t68.5 -25 q75 0 138 77t102 198.5t60.5 262t21.5 275.5q0 64 -5.5 112.5t-19.5 89t-40 61.5t-64 21q-69 0 -126.5 -60t-92.5 -150t-59.5 -201.5t-34 -208.5t-9.5 -176z" />
<glyph unicode="1" horiz-adv-x="833" d="M162 27q0 2 1 5t1 5l18 102q3 21 13.5 31t33.5 10h140l184 1047h-145q-33 0 -33 26v13l18 104q7 39 45 39h195q64 0 94.5 -18t30.5 -74q0 -25 -6 -55l-191 -1082h141q35 0 35 -26q0 -2 -1 -7.5t-1 -7.5l-18 -102q-3 -19 -14 -28t-35 -9h-469q-37 0 -37 27z" />
<glyph unicode="2" horiz-adv-x="917" d="M113 115q9 68 69 131q359 387 365 395q5 6 36 41t38 43t34 40t35 44t29.5 42t28.5 47t20.5 45.5t18.5 50.5t9.5 50t4.5 56q0 153 -123 153q-61 0 -106 -38.5t-89 -114.5q-14 -25 -34 -25q-13 0 -25 6l-88 31q-19 10 -19 35q0 12 9 33q115 252 376 252q77 0 135.5 -25.5 t93 -70.5t51.5 -101t17 -123q0 -68 -16.5 -133.5t-40 -116t-67.5 -113t-78.5 -104t-94.5 -108.5l-206 -228l-131 -131l149 4h307q31 0 31 -26q0 -11 -2 -15l-21 -104q-6 -37 -41 -37h-571q-46 0 -78 31t-26 84z" />
<glyph unicode="3" horiz-adv-x="901" d="M127 102q0 16 6 31l41 82q12 25 35 25q7 0 18 -7q123 -73 238 -73q105 0 167 67.5t62 188.5q0 111 -68 171t-169 62h-74q-35 0 -35 37l14 100q6 43 39 43h97q118 0 191 73t73 200q0 67 -30.5 109t-88.5 42q-64 0 -109.5 -39t-87.5 -116q-10 -21 -30 -21q-21 0 -27 4 l-82 31q-18 9 -18 33q0 19 8 35q110 252 365 252q134 0 217.5 -79t83.5 -239q0 -289 -293 -383q92 -27 158.5 -108t66.5 -209q0 -201 -121 -319t-323 -118q-73 0 -163 25.5t-147 71.5q-14 10 -14 28z" />
<glyph unicode="4" horiz-adv-x="931" d="M74 463q0 61 65 147l615 766q24 33 73 33h131q10 0 17.5 -7t7.5 -16q0 -19 -14 -38l-494 -598l-184 -224l180 2h176l64 357q6 39 41 39h114q31 0 31 -29q0 -12 -2 -14l-59 -346h98q33 0 33 -27v-10l-19 -101q-10 -37 -45 -37h-96l-55 -319q-6 -41 -39 -41h-121 q-13 0 -21 8.5t-8 22.5v12l55 317h-438q-51 0 -78.5 29.5t-27.5 73.5z" />
<glyph unicode="5" horiz-adv-x="909" d="M133 102q0 15 12 39l35 74q10 25 33 25q11 0 23 -9q121 -73 233 -73t172.5 74.5t60.5 201.5q0 73 -19 121.5t-58 73.5t-86.5 35t-116.5 10h-113q-30 0 -30 28q0 9 2 15l96 549q9 48 26 79t42 43.5t46 16.5t52 4h413q25 0 25 -27v-12l-18 -104q-3 -19 -12 -29t-29 -10 h-359l-65 -375h28q196 -3 286.5 -110.5t90.5 -290.5q0 -210 -122.5 -342t-338.5 -132q-62 0 -148.5 25t-146.5 72q-14 10 -14 28z" />
<glyph unicode="6" horiz-adv-x="1005" d="M203 485q0 132 20.5 262.5t65.5 255t109 219t160 152.5t210 58q109 0 186 -62t99 -166q4 -16 4 -20q0 -17 -25 -35q-5 -3 -40.5 -21.5t-39.5 -19.5q-12 -6 -28 -6q-23 0 -31 28q-22 67 -56.5 95t-84.5 28q-48 0 -92.5 -29.5t-77.5 -76.5t-61.5 -111t-47.5 -128.5 t-33 -133.5q117 129 269 129q128 0 204 -92t76 -266q0 -110 -30 -211t-86 -181t-145.5 -128t-199.5 -48q-147 0 -236 137.5t-89 370.5zM408 475q0 -50 6 -99.5t20.5 -102.5t45 -86t73.5 -33q76 0 130 59t77.5 141t23.5 172q0 52 -11 94.5t-44 74.5t-84 32q-134 0 -229 -141 q-8 -32 -8 -111z" />
<glyph unicode="7" horiz-adv-x="788" d="M100 25q0 12 15 38l520 916l147 254l-276 -2h-236q-32 0 -32 26v15l18 98q7 39 43 39h600q50 0 77.5 -25t27.5 -65q0 -16 -3 -32t-10.5 -35t-12 -29.5t-16.5 -34.5t-16 -31l-608 -1116q-13 -23 -28 -32t-40 -9h-139q-13 0 -22 7t-9 18z" />
<glyph unicode="8" horiz-adv-x="942" d="M162 326q0 161 83 278t236 156q-20 5 -44.5 22t-52.5 46.5t-46.5 80t-18.5 111.5q0 182 120 297t298 115q137 0 221 -87t84 -231q0 -279 -258 -366q29 -10 58.5 -30t59 -52.5t47.5 -85t18 -115.5q-4 -228 -130 -358t-331 -130q-149 2 -246.5 95.5t-97.5 253.5zM367 354 q0 -91 40 -147.5t113 -56.5q116 0 180.5 80t67.5 233q0 86 -39.5 141t-118.5 55q-110 0 -175.5 -89t-67.5 -216zM518 1006q0 -77 33.5 -126t93.5 -49q89 0 143 78t56 178q0 81 -30.5 131t-92.5 50q-67 0 -114.5 -41t-68 -98.5t-20.5 -122.5z" />
<glyph unicode="9" horiz-adv-x="989" d="M193 225q0 20 24 35q2 2 80 41q12 6 29 6q22 0 30 -28q41 -123 142 -123q49 0 93 29.5t77 76.5t60.5 111.5t46 128t32.5 133.5q-117 -129 -264 -129q-129 0 -207 92.5t-78 265.5q0 88 17.5 170t55 154.5t90 126.5t127.5 85.5t163 31.5q156 0 244.5 -136t88.5 -372 q0 -132 -19.5 -262.5t-63.5 -255.5t-107.5 -220t-158.5 -153t-210 -58q-109 0 -189.5 65t-100.5 171q-2 4 -2 14zM463 883q0 -53 10 -94.5t42 -73.5t83 -33q138 0 233 141q9 36 9 111q0 57 -7 109t-23 102t-47 80t-73 30q-58 0 -103.5 -33.5t-71.5 -89t-39 -119t-13 -130.5z " />
<glyph unicode=":" horiz-adv-x="376" d="M104 92q0 58 36.5 96.5t92.5 38.5q52 0 80.5 -34t28.5 -93q0 -58 -37 -94.5t-90 -36.5q-50 0 -79.5 34t-31.5 89zM186 868q0 59 37 97.5t92 38.5q52 0 80.5 -34t28.5 -93q0 -58 -37 -95t-90 -37q-50 0 -79.5 34t-31.5 89z" />
<glyph unicode=";" horiz-adv-x="372" d="M-10 -172q0 13 6 25l115 327q15 41 55 41h121q28 0 28 -26q0 -14 -8 -33l-172 -320q-21 -43 -65 -43h-52q-28 0 -28 29zM166 868q-2 59 35 97.5t94 38.5q51 0 79.5 -34t28.5 -93q0 -57 -37.5 -94.5t-91.5 -37.5q-50 0 -79 34t-29 89z" />
<glyph unicode="&#x3c;" horiz-adv-x="858" d="M242 733v47q0 50 41 80l471 377q13 10 26 10q27 0 27 -28v-64q0 -30 -8.5 -48t-32.5 -38l-356 -309l356 -314q24 -18 32.5 -36.5t8.5 -47.5v-63q0 -29 -27 -29q-11 0 -26 11l-467 372q-25 19 -35 36.5t-10 43.5z" />
<glyph unicode="=" horiz-adv-x="823" d="M244 377v72q0 40 32 40h476q34 0 34 -40v-70q0 -20 -7.5 -29.5t-26.5 -9.5h-473q-35 0 -35 37zM244 723v72q0 39 32 39h476q34 0 34 -39v-72q0 -39 -34 -39h-473q-35 0 -35 39z" />
<glyph unicode="&#x3e;" horiz-adv-x="858" d="M317 299v63q0 29 8.5 47.5t32.5 36.5l357 314l-357 309q-24 20 -32.5 38t-8.5 48v64q0 28 27 28q14 0 27 -10l471 -377q41 -30 41 -80v-47q0 -26 -10 -43.5t-35 -36.5l-465 -372q-18 -11 -27 -11q-29 0 -29 29z" />
<glyph unicode="?" horiz-adv-x="768" d="M207 102q0 60 38 104t101 44q53 0 84 -35t33 -94q0 -63 -40.5 -105.5t-100.5 -42.5q-54 0 -84.5 34.5t-30.5 94.5zM211 1253q0 17 8 35q112 262 385 262q136 0 221.5 -75t85.5 -220q0 -77 -21.5 -150t-65.5 -143t-86 -122.5t-107 -122.5q-47 -54 -68.5 -81.5t-42 -65.5 t-28.5 -76l-17 -86q-6 -41 -39 -41h-133q-31 0 -31 30v13q13 63 17 90q14 84 57.5 154t138.5 173q47 51 76.5 86.5t65 89t53.5 108.5t18 112q0 141 -123 141q-63 0 -111 -37t-89 -119q-17 -28 -39 -28q-9 0 -17 4l-90 41q-18 6 -18 28z" />
<glyph unicode="@" horiz-adv-x="1433" d="M223 766q0 412 165 601t489 189q602 0 602 -708q0 -249 -86.5 -379.5t-231.5 -130.5q-31 0 -55 3.5t-52 14t-47 35t-26 62.5q-29 -53 -83.5 -85t-111.5 -32q-137 0 -211.5 108t-74.5 328q0 117 27 205t72 137t96.5 72.5t107.5 23.5q61 0 103.5 -23.5t76.5 -80.5l14 55 q5 33 33 33h92q13 0 20 -9.5t7 -21.5v-633q0 -31 11.5 -44t37.5 -13q76 0 115 98t39 277q0 298 -112.5 449t-369.5 151q-65 0 -120.5 -8.5t-110 -30.5t-98 -56t-81 -87.5t-63 -124t-39.5 -166t-14 -211.5q0 -346 140.5 -509t396.5 -163q110 0 224 38.5t208 107.5 q15 12 28 12q12 0 21 -14l29 -46q8 -11 8 -22q0 -17 -15 -29q-96 -78 -230 -120t-275 -42q-320 0 -488 196.5t-168 592.5zM678 770q0 -90 10.5 -151t44 -103.5t90.5 -42.5q50 0 91 34.5t63 92.5v356q-17 46 -52.5 81.5t-88.5 35.5q-74 0 -116 -77t-42 -226z" />
<glyph unicode="A" horiz-adv-x="1085" d="M20 29q4 16 7 22l548 1282q14 33 26 54.5t34 46.5t54.5 38t74.5 13h16q80 0 119 -45t45 -103l131 -1286q1 -4 1 -7t-0.5 -5.5t-0.5 -3.5q-1 -17 -10.5 -26t-22.5 -9h-124q-24 0 -33.5 9.5t-10.5 35.5l-32 358h-455l-147 -360q-12 -26 -24 -34.5t-34 -8.5h-137 q-12 0 -20 8q-6 6 -6 15q0 3 1 6zM459 575h364l-45 545l-12 209l-80 -211z" />
<glyph unicode="B" horiz-adv-x="1060" d="M168 33q0 2 1 6t1 6l242 1378q6 47 43 52q82 10 280 10q67 0 121.5 -7.5t109.5 -29.5t92 -57.5t60 -95t23 -138.5q-3 -134 -73.5 -228.5t-197.5 -135.5q90 -26 141.5 -106t51.5 -191q0 -257 -149.5 -380t-440.5 -126h-121q-114 0 -155 8q-29 7 -29 35zM395 172 q43 -4 133 -4q154 0 238 93t84 253q0 193 -219 193q-12 0 -76.5 -1t-65.5 -1zM520 874l63 -1q63 -1 72 -1q120 2 195.5 74t75.5 199q0 48 -16.5 81t-47.5 49.5t-66 23t-81 6.5q-71 0 -123 -7z" />
<glyph unicode="C" horiz-adv-x="1034" d="M193 526q0 104 15 211t46 217.5t83.5 207t122 172t168 119.5t214.5 44q142 0 231 -70.5t115 -201.5q0 -3 1 -10.5t1 -10.5q0 -30 -33 -41l-84 -26q-25 -7 -35 -7q-18 0 -30 29q-28 88 -75 120t-108 32q-86 0 -159 -56.5t-119.5 -143t-79.5 -193.5t-47 -204.5t-14 -178.5 q0 -61 7 -112.5t24.5 -99t44 -81t68 -53t95.5 -19.5q145 0 281 72q10 6 28 6q23 0 27 -25l31 -102q4 -16 4 -21q0 -26 -31 -41q-160 -82 -369 -82q-215 0 -319 147t-104 402z" />
<glyph unicode="D" horiz-adv-x="1187" d="M164 31q0 10 2 16l244 1380q7 43 53 48q61 8 262 8q265 -2 397.5 -132t132.5 -415q0 -604 -294 -827q-86 -63 -198.5 -91t-270.5 -28q-259 0 -302 8q-26 6 -26 33zM389 172q47 -4 137 -4q190 0 301 94q115 98 166 279.5t51 392.5q0 179 -75 274.5t-248 98.5 q-69 0 -133 -7z" />
<glyph unicode="E" horiz-adv-x="901" d="M180 119q0 15 8 61l199 1123q18 100 61 136t121 36h471q35 0 35 -33v-10l-18 -103q-6 -37 -45 -37h-424l-72 -411h338q35 0 35 -27v-12l-21 -101q-7 -41 -47 -41h-338l-92 -518h455q35 0 35 -26q0 -7 -2 -19l-17 -96q-7 -41 -45 -41h-495q-142 0 -142 119z" />
<glyph unicode="F" horiz-adv-x="835" d="M164 27q0 10 2 14l221 1262q18 99 62.5 135.5t119.5 36.5h459q35 0 35 -35l-2 -17l-17 -94q-5 -19 -15 -28t-32 -9h-407l-72 -411h344q35 0 35 -27q0 -2 -1 -6.5t-1 -5.5l-18 -101q-7 -41 -48 -41h-344l-116 -657q-6 -43 -45 -43h-129q-31 0 -31 27z" />
<glyph unicode="G" horiz-adv-x="1112" d="M193 526q0 90 11 183t35.5 189t61 182.5t90.5 163t120 132.5t153.5 88.5t187.5 32.5q143 0 234.5 -71t117.5 -201q0 -3 1 -10.5t1 -10.5q0 -30 -32 -41l-84 -26q-25 -7 -35 -7q-19 0 -31 29q-28 88 -74.5 120t-107.5 32q-89 0 -164.5 -56t-123.5 -142t-81.5 -193 t-48 -205.5t-14.5 -182.5q0 -79 12.5 -143.5t39.5 -117.5t75.5 -83t115.5 -30q111 0 199 35l70 395h-164q-29 0 -29 26v11l19 106q6 41 38 41h248q50 0 73 -16t23 -60q0 -11 -4 -47l-79 -481q-7 -48 -26 -77.5t-69 -53.5q-69 -29 -149 -43q-90 -17 -187 -17 q-109 0 -191.5 40.5t-132.5 115.5t-74.5 173t-24.5 220z" />
<glyph unicode="H" horiz-adv-x="1232" d="M164 31v14l246 1391q4 24 16 31.5t33 7.5h123q30 0 30 -33v-15l-96 -542h510l96 551q7 39 52 39h120q33 0 33 -33q-2 -13 -2 -15l-244 -1388q-8 -39 -49 -39h-121q-34 0 -34 31q0 8 2 14l114 657h-510l-116 -663q-8 -39 -50 -39h-118q-35 0 -35 31z" />
<glyph unicode="I" horiz-adv-x="522" d="M164 31q0 8 2 14l244 1391q4 24 17 31.5t34 7.5h121q32 0 32 -33v-15l-245 -1388q-8 -39 -50 -39h-120q-15 0 -25 8t-10 23z" />
<glyph unicode="J" horiz-adv-x="729" d="M47 76q0 17 12 37l43 80q14 22 33 22q13 0 25 -6q60 -27 87.5 -36t55.5 -9q51 0 76.5 34.5t40.5 118.5l170 975h-146q-34 0 -34 27q0 10 2 12l18 105q7 39 43 39h311q37 0 37 -35q0 -13 -2 -17l-192 -1104q-9 -50 -16 -82.5t-19.5 -72t-27.5 -64.5t-38 -50.5t-52 -40 t-69.5 -23.5t-91.5 -9q-62 0 -130.5 18.5t-116.5 51.5q-19 13 -19 29z" />
<glyph unicode="K" horiz-adv-x="1050" d="M164 27q0 10 2 14l246 1393q8 41 43 41h131q30 0 30 -29q0 -10 -2 -12l-96 -549h127l389 559q20 31 62 31h143q11 0 18 -7.5t7 -17.5q0 -17 -17 -37l-446 -631l252 -725q4 -14 4 -30q-7 -27 -35 -27h-127q-22 0 -34 5.5t-17 25.5l-221 674h-138l-114 -664 q-5 -22 -13.5 -31.5t-29.5 -9.5h-135q-29 0 -29 27z" />
<glyph unicode="L" horiz-adv-x="866" d="M180 117q0 25 6 59l222 1258q9 41 45 41h129q36 0 30 -41l-221 -1252h443q34 0 34 -26q0 -9 -2 -17l-18 -98q-7 -41 -45 -41h-481q-142 0 -142 117z" />
<glyph unicode="M" horiz-adv-x="1507" d="M139 29q0 8 2 10l252 1231q22 107 68.5 160t138.5 53q85 0 124 -41t42 -131l25 -873l2 -207l73 205l312 875q34 97 80.5 134.5t132.5 37.5q77 0 115 -42t38 -118q0 -15 -4 -47l-151 -1237q-6 -39 -39 -39h-123q-33 0 -33 31v8l135 991l41 318l-104 -295l-291 -799 q-26 -74 -65 -113t-119 -39h-13q-146 0 -149 154l-31 799l-4 293l-59 -293l-199 -1016q-6 -39 -41 -39h-127q-12 0 -20.5 7.5t-8.5 21.5z" />
<glyph unicode="N" horiz-adv-x="1286" d="M164 43l215 1223q19 104 65 160.5t136 56.5q84 0 129.5 -38.5t58.5 -135.5l145 -836l50 -334l59 387l158 906q8 43 45 43h123q20 1 27 -9q4 -6 4 -18q0 -7 -1 -16l-217 -1239q-30 -201 -205 -201q-151 0 -178 155l-157 904l-41 276l-54 -340l-166 -942q-5 -25 -14 -35 t-29 -10h-122q-33 0 -33 29q0 6 2 14z" />
<glyph unicode="O" d="M193 522q0 136 19 266.5t67 261t119.5 228t185.5 158.5t256 61q86 0 158 -28.5t132 -89t93.5 -167.5t33.5 -251q0 -99 -9.5 -194t-31.5 -194t-55.5 -185t-86 -162.5t-118 -131t-155.5 -86t-195 -31.5q-192 0 -302.5 137.5t-110.5 407.5zM406 516q0 -76 12 -138.5t37 -113 t69.5 -78.5t104.5 -28q102 0 184 69t132 184t76 257t26 297q0 167 -57 259.5t-171 92.5q-93 0 -167.5 -57.5t-119 -145t-74.5 -199t-41 -210.5t-11 -189z" />
<glyph unicode="P" horiz-adv-x="978" d="M164 29q0 1 1 6.5t1 7.5l244 1387q3 37 39 45q71 10 247 10q207 0 318.5 -93.5t111.5 -289.5q0 -263 -146.5 -416.5t-420.5 -153.5q-15 0 -57.5 1.5t-46.5 1.5l-86 -492q-6 -43 -41 -43h-133q-14 0 -22.5 8t-8.5 21zM485 713q37 -2 103 -2q159 0 243 105.5t84 277.5 q0 108 -54 159.5t-167 51.5q-53 0 -104 -7z" />
<glyph unicode="Q" d="M193 522q0 86 10 176t32.5 186.5t57 184t87 166.5t117.5 136.5t153.5 91.5t191.5 34q86 0 158 -28.5t131 -89t92.5 -166.5t33.5 -250q0 -107 -14 -216.5t-48 -228t-85 -216.5t-133 -177.5t-184 -116.5l120 -180q9 -12 9 -29q-3 -24 -31 -24h-133q-30 0 -45 7.5t-33 35.5 l-90 159q-186 6 -291.5 142.5t-105.5 402.5zM403 512q0 -159 54.5 -256.5t171.5 -97.5q101 0 183 69.5t132 186t76.5 259t26.5 296.5q0 166 -57 257t-171 91q-68 0 -126.5 -30.5t-100.5 -81t-75.5 -119.5t-54 -142t-34.5 -152.5t-19.5 -148t-5.5 -131.5z" />
<glyph unicode="R" horiz-adv-x="1036" d="M162 27v12l244 1384q6 41 40 50q52 12 267 12q193 0 300 -92t107 -265q0 -339 -299 -456l187 -625q4 -12 4 -22q-6 -25 -31 -25h-143q-20 0 -31.5 8t-18.5 31l-161 590q-5 0 -77.5 -1t-82.5 -1l-102 -586q-3 -19 -14 -30t-25 -11h-140q-24 0 -24 27zM498 805q39 -4 90 -4 q150 0 238.5 80t88.5 229q0 101 -58.5 149t-162.5 48q-20 0 -62 -3.5t-46 -3.5z" />
<glyph unicode="S" horiz-adv-x="966" d="M115 111q6 23 10 30l41 86q12 25 33 25q14 0 26 -8q129 -82 256 -82q125 0 183.5 68.5t58.5 181.5q0 124 -125 219l-109 84q-190 146 -190 356q0 199 108.5 312.5t305.5 113.5q132 0 214 -65t109 -164q4 -24 4 -33q0 -24 -30 -33l-84 -33q-15 -6 -27 -6q-23 0 -33 27 q-22 56 -64 91.5t-102 35.5q-90 0 -140 -57.5t-50 -161.5q0 -116 131 -221l109 -91q184 -149 184 -356q0 -219 -120 -336t-347 -117q-97 0 -191 31t-143 68q-18 12 -18 35z" />
<glyph unicode="T" horiz-adv-x="890" d="M236 1331l20 105q6 39 41 39h817q30 0 30 -28q0 -5 -1 -11l-19 -105q-6 -39 -43 -39h-305l-219 -1249q-5 -22 -14.5 -32.5t-28.5 -10.5h-137q-33 0 -27 41l221 1251h-305q-20 0 -26 9q-4 7 -4 20v10z" />
<glyph unicode="U" horiz-adv-x="1220" d="M236 369q0 68 14 151l160 914q9 41 39 41h139q26 0 26 -27q0 -2 -1 -7.5t-1 -8.5l-157 -906q-17 -108 -17 -143q0 -113 53.5 -168t151.5 -55q129 0 204.5 79t110.5 281l160 914q6 41 41 41h135q27 0 27 -27q0 -12 -2 -18l-162 -936q-17 -99 -42.5 -175.5t-67 -142 t-98 -108.5t-136 -67t-180.5 -24q-196 0 -296.5 107.5t-100.5 284.5z" />
<glyph unicode="V" horiz-adv-x="1052" d="M268 1430v10q0 35 33 35h129q22 0 31 -9t10 -34l57 -1041l13 -268l108 266l424 1038q10 27 24 37.5t38 10.5h127q12 0 20 -8t8 -21q0 -12 -8 -31l-543 -1265q-67 -152 -198 -152h-19q-81 0 -119 42t-43 107q-13 186 -36 507t-40 548z" />
<glyph unicode="W" horiz-adv-x="1531" d="M274 150v16l74 1247q0 7 4.5 22t12.5 19q0 8 38.5 14.5t55.5 6.5q10 0 41.5 -4t31.5 -7q25 -7 23 -32l-94 -1047l-23 -262l92 258l291 809q30 76 68.5 107.5t107.5 31.5h21q139 0 145 -137l6 -840l-2 -223l60 219l293 1079q11 48 55 48h119q35 0 35 -29q0 -16 -9 -43 l-362 -1243q-52 -164 -189 -164h-18q-67 0 -108.5 33.5t-41.5 109.5l-10 867l8 186l-73 -205l-303 -846q-28 -79 -75 -112t-116 -33h-16q-69 0 -105.5 40t-36.5 114z" />
<glyph unicode="X" horiz-adv-x="983" d="M4 27q0 14 8 26l469 731l-178 643q0 3 -1 8.5t-1 8.5q8 31 33 31h131q11 0 17.5 -1t15 -9.5t12.5 -24.5l104 -432l25 -134l74 138l250 428q20 35 65 35h133q10 0 17.5 -8t7.5 -17q0 -12 -10 -27l-406 -647l211 -719q4 -14 4 -30q0 -11 -10 -19t-23 -8h-127 q-23 0 -34.5 6.5t-18.5 32.5l-121 459l-41 172l-86 -160l-291 -475q-11 -22 -27.5 -28.5t-43.5 -6.5h-131q-13 0 -20 8t-7 19z" />
<glyph unicode="Y" horiz-adv-x="915" d="M266 1444q2 14 11 22.5t22 8.5h129q11 0 17.5 -1t14.5 -10t11 -26l98 -432l29 -142l76 146l260 430q20 35 63 35h133q25 0 25 -27q0 -11 -8 -27l-475 -751l-111 -629q-6 -41 -33 -41h-143q-23 0 -23 25q0 2 1.5 8t1.5 8l112 627l-207 755q-4 8 -4 21z" />
<glyph unicode="Z" horiz-adv-x="1001" d="M72 90q0 25 10.5 52t22 44.5t32.5 46.5l588 811l184 250l-235 -2h-303q-33 0 -33 29q0 9 6 33l14 82q7 39 39 39h676q46 0 71 -22.5t25 -63.5q0 -37 -13 -67t-42 -71l-610 -841l-170 -232l239 4h365q35 0 35 -26q0 -5 -4 -21l-19 -94q-7 -41 -41 -41h-739 q-39 0 -68.5 24.5t-29.5 65.5z" />
<glyph unicode="[" horiz-adv-x="591" d="M174 -164q0 11 4 43l273 1510q7 36 19.5 60.5t25 36.5t33.5 18.5t34.5 7.5t38.5 1h197q32 0 32 -24v-14l-16 -91q-3 -17 -13.5 -22.5t-33.5 -5.5h-135l-260 -1456h137q33 0 33 -25q0 -12 -2 -16l-13 -82q-6 -33 -45 -33h-196q-24 0 -41.5 3t-35 11.5t-27 28t-9.5 49.5z " />
<glyph unicode="\" horiz-adv-x="866" d="M268 1530q0 24 23 24h82q21 0 29 -8t14 -37l340 -1486q2 -6 2 -19q0 -24 -25 -24h-82q-22 0 -29.5 8t-13.5 37l-338 1486q-2 6 -2 19z" />
<glyph unicode="]" horiz-adv-x="591" d="M-18 -231q0 10 2 14l16 88q3 17 13 23t32 6h135l260 1456h-135q-33 0 -33 26v17l15 82q3 18 12.5 25t30.5 7h196q24 0 41.5 -3t35 -11.5t27 -28t9.5 -49.5q0 -11 -4 -43l-270 -1509q-7 -36 -19.5 -60.5t-25.5 -37t-34 -19t-35 -7.5t-38 -1h-197q-34 0 -34 25z" />
<glyph unicode="^" horiz-adv-x="989" d="M252 891q0 12 10 35l291 577q23 43 76 43h47q49 0 74 -45l290 -579q9 -15 9 -31q0 -13 -6.5 -21t-14.5 -8h-65q-48 0 -72 45l-240 451l-239 -451q-14 -27 -29.5 -36t-40.5 -9h-68q-9 0 -15.5 8t-6.5 21z" />
<glyph unicode="_" horiz-adv-x="1085" d="M51 -301q0 8 2 16l15 84q7 37 41 37h806q29 0 29 -26l-2 -21l-12 -80q-6 -37 -43 -37h-803q-33 0 -33 27z" />
<glyph unicode="`" horiz-adv-x="526" d="M373 1571q0 24 26 24h109q31 0 43 -30l98 -285q4 -12 4 -18q0 -9 -7.5 -16t-16.5 -7h-56q-20 0 -32.5 10t-24.5 35l-139 266q-4 8 -4 21z" />
<glyph unicode="a" horiz-adv-x="993" d="M168 383q0 145 29 275t83 230t137 159t185 59q81 0 136.5 -37t82.5 -104l33 77q14 41 47 41h94q9 0 18 -7t9 -19v-8l-148 -820q-6 -18 -6 -51q0 -41 33 -41h8q32 0 29 -33l-12 -65q-7 -53 -105 -53q-60 2 -102.5 36.5t-46.5 104.5q-87 -150 -240 -150q-264 0 -264 406z M367 399q0 -260 127 -260q50 0 104.5 41t95.5 131l90 492q-13 68 -52 104.5t-91 36.5q-63 0 -113 -41.5t-79 -102.5t-48.5 -138.5t-26.5 -142t-7 -120.5z" />
<glyph unicode="b" horiz-adv-x="997" d="M162 31q0 10 2 18l252 1415q8 46 49 52l102 24q20 4 23 4q34 0 31 -33l-97 -540q84 135 242 135q125 0 189.5 -105t64.5 -303q0 -200 -52 -362.5t-153 -260.5t-233 -98q-154 0 -220 140l-32 -80q-16 -37 -51 -37h-84q-33 0 -33 31zM399 279q14 -71 55 -105.5t93 -34.5 q61 0 110.5 40t79 100.5t49.5 139t27.5 149.5t7.5 137q0 47 -6 87t-20 75t-40 55t-63 20q-55 0 -110 -42.5t-95 -131.5z" />
<glyph unicode="c" horiz-adv-x="856" d="M168 408q0 114 19.5 217.5t59.5 191t97.5 152t137.5 101t175 36.5q48 0 90 -11t82.5 -36.5t70.5 -73t44 -113.5v-14q0 -20 -22 -31l-84 -34q-2 -2 -23 -2q-20 0 -27 20q-24 69 -57.5 96t-87.5 27q-55 0 -101.5 -32.5t-78 -85t-54 -121t-32.5 -139.5t-10 -140 q0 -126 44 -193t144 -67q97 0 199 41q12 8 26 8q20 0 27 -27l27 -92q0 -5 1 -12l1 -6q0 -20 -27 -35q-109 -56 -279 -56q-59 0 -109 11.5t-98 41.5t-81 77.5t-53.5 124t-20.5 176.5z" />
<glyph unicode="d" horiz-adv-x="1003" d="M166 383q0 196 50 358t151 263.5t237 101.5q72 0 128 -33.5t85 -95.5l86 487q11 46 49 52l111 26q1 0 7 1t7 1q36 0 33 -33l-231 -1282q-7 -42 -7 -51q0 -41 33 -41h8q29 0 29 -33l-10 -65q-7 -53 -105 -53q-63 2 -106 36.5t-47 104.5q-83 -150 -244 -150 q-61 0 -107.5 23t-75.5 60.5t-48 91.5t-26 110t-7 121zM365 399q0 -260 131 -260q50 0 105 41.5t95 132.5l90 492q-13 67 -52.5 103t-90.5 36q-63 0 -113.5 -40.5t-80.5 -101t-49.5 -137t-27 -142.5t-7.5 -124z" />
<glyph unicode="e" horiz-adv-x="915" d="M166 406q0 109 18 209.5t56.5 190.5t95 156.5t138.5 105t181 38.5q135 0 219 -82t84 -248q0 -109 -32 -241q-8 -31 -18 -40.5t-38 -9.5h-503v-110q3 -104 48.5 -161.5t125.5 -57.5q128 0 227 43q12 6 20 6q18 0 25 -21l27 -96q4 -16 4 -22q-3 -20 -25 -31 q-40 -24 -128.5 -41t-172.5 -17q-72 0 -133.5 24t-111.5 73.5t-78.5 134.5t-28.5 197zM387 637h371q18 63 18 139q0 72 -32 116t-103 44q-180 0 -254 -299z" />
<glyph unicode="f" horiz-adv-x="475" d="M-180 -342q0 14 10 31l35 78q9 22 31 22q6 0 44 -12.5t66 -12.5q45 0 68.5 40.5t44.5 164.5l170 946h-86q-33 0 -33 31l20 98q9 39 41 39h86l21 111q33 186 111 267t206 83q38 0 85 -11t69 -28q12 -9 12 -22q0 -11 -6 -23l-37 -78q-11 -22 -33 -22q-4 0 -24 4 q-30 10 -53 10q-53 0 -84 -39t-52 -151l-18 -101h125q14 0 22.5 -8.5t8.5 -23.5l-19 -99q-5 -37 -45 -37h-123l-178 -1005q-31 -176 -100 -247t-195 -73q-43 0 -95.5 11.5t-82.5 31.5q-12 9 -12 25z" />
<glyph unicode="g" horiz-adv-x="987" d="M86 -311q0 12 6 24l37 84q10 23 33 23q4 0 20 -4q2 -1 18.5 -9t21 -10t21 -8.5t24.5 -9t24.5 -7.5t29.5 -7t30 -3.5t34 -1.5q109 0 167.5 66t90.5 229l12 56q-41 -67 -103 -100.5t-132 -33.5q-262 0 -262 402q0 198 51.5 361.5t153.5 264.5t237 101q156 0 215 -141l33 77 q14 41 47 41h92q9 0 18 -7t9 -19v-8l-180 -1004q-25 -131 -67 -221t-101.5 -140.5t-128.5 -72t-160 -21.5q-64 0 -141.5 18t-129.5 50q-20 11 -20 31zM356 399q0 -260 129 -260q52 0 107 41.5t96 132.5l90 490q-13 70 -52.5 105.5t-92.5 35.5q-63 0 -113.5 -42t-80 -104 t-49.5 -139.5t-27 -141.5t-7 -118z" />
<glyph unicode="h" horiz-adv-x="1058" d="M162 33l2 12l254 1419q8 46 49 52l111 26q1 0 8 1t8 1q32 0 29 -33l-99 -546q100 141 264 141q110 0 173 -78.5t63 -234.5q0 -77 -12 -136l-111 -620q-8 -37 -47 -37h-117q-32 0 -32 33q0 12 2 22l110 609q14 69 14 116q0 164 -116 164q-134 0 -223 -170l-132 -737 q-10 -37 -47 -37h-116q-15 0 -25 8.5t-10 24.5z" />
<glyph unicode="i" horiz-adv-x="514" d="M164 23q-2 4 -2 10t2 14l178 995q7 41 51 41h117q13 0 22 -9t9 -23q0 -2 -1 -8.5t-1 -8.5l-179 -997q-8 -37 -47 -37h-116q-30 0 -33 23zM365 1305q0 53 35 85.5t92 32.5t88.5 -29.5t31.5 -76.5q0 -55 -35 -88t-96 -33q-52 0 -84 31.5t-32 77.5z" />
<glyph unicode="j" horiz-adv-x="446" d="M-197 -342q0 9 9 27l32 77q10 25 33 25q8 0 37.5 -11.5t58.5 -11.5q42 0 65.5 39.5t37.5 126.5l200 1114q3 20 17 29.5t31 9.5h118q31 0 31 -34v-13l-201 -1124q-29 -164 -96.5 -243t-200.5 -79q-78 0 -145 33q-27 15 -27 35zM293 1305q0 53 35 85.5t92 32.5t89 -29.5 t32 -76.5q0 -54 -36 -87.5t-97 -33.5q-51 0 -83 31.5t-32 77.5z" />
<glyph unicode="k" horiz-adv-x="917" d="M164 33l2 14l252 1417q11 46 49 52l111 26q1 0 7 1t7 1q36 0 33 -33l-146 -802h109l241 338q22 36 58 36h143q10 0 17.5 -6.5t7.5 -17.5q0 -17 -8 -33l-310 -418l166 -559q2 -6 2 -20q0 -11 -9.5 -20t-23.5 -9h-131q-34 0 -43 31l-141 512h-106l-91 -504q-8 -39 -47 -39 h-114q-35 0 -35 33z" />
<glyph unicode="l" horiz-adv-x="514" d="M164 33l2 14l254 1417q8 46 49 52l109 26q2 0 8.5 1t7.5 1q31 0 31 -28v-5l-263 -1472q-8 -39 -47 -39h-116q-15 0 -25 9t-10 24z" />
<glyph unicode="m" horiz-adv-x="1556" d="M162 31q0 6 2 14l178 999q3 18 15 28.5t28 10.5h88q33 0 33 -47l6 -86q101 156 270 156q78 0 133 -46t80 -132q113 178 289 178q121 0 180.5 -82.5t59.5 -224.5q0 -50 -15 -142l-110 -620q-8 -37 -47 -37h-117q-33 0 -33 33q0 12 2 22l111 609q14 86 14 120 q0 78 -29.5 119t-80.5 41q-122 0 -209 -147v-29q0 -51 -13 -111l-110 -620q-8 -37 -47 -37h-117q-15 0 -24 9t-9 24q0 12 2 22l111 609q14 69 14 120q0 160 -110 160q-133 0 -218 -174l-129 -733q-7 -37 -43 -37h-124q-11 0 -21 7.5t-10 23.5z" />
<glyph unicode="n" horiz-adv-x="1058" d="M162 31q0 6 2 14l178 999q6 39 43 39h88q33 0 33 -47l4 -86q101 156 276 156q110 0 175 -77t65 -230q0 -56 -14 -142l-111 -620q-8 -37 -47 -37h-117q-32 0 -32 33q0 12 2 22l110 609q14 86 14 118q0 162 -118 162q-63 0 -122 -42.5t-102 -131.5l-131 -733 q-7 -37 -43 -37h-122q-11 0 -21 7.5t-10 23.5z" />
<glyph unicode="o" horiz-adv-x="942" d="M162 377q0 347 133.5 538t363.5 191q145 0 227.5 -104.5t82.5 -299.5q0 -352 -135 -538.5t-365 -186.5q-135 0 -221 102t-86 298zM360 401q0 -40 1.5 -69t9.5 -68.5t21.5 -65t40 -43.5t63.5 -18q71 0 126 53.5t86 138t46.5 175.5t15.5 180q0 61 -5.5 105t-20 80.5 t-42.5 55.5t-69 19q-74 0 -130 -57.5t-85.5 -146.5t-43.5 -175.5t-14 -163.5z" />
<glyph unicode="p" horiz-adv-x="997" d="M90 -367l254 1411q7 39 41 39h86q16 0 24.5 -11t8.5 -25l10 -99q53 89 116 123.5t138 34.5q40 0 74 -10.5t68 -39t58 -73t39 -118.5t15 -171q0 -165 -35.5 -302.5t-95.5 -227t-137.5 -138.5t-163.5 -49q-77 0 -130 31t-87 101l-86 -482q-3 -16 -16 -26.5t-27 -10.5h-121 q-33 0 -33 29v14zM401 279q36 -140 146 -140q68 0 122.5 49t87 130t49.5 176t17 194q0 254 -125 254q-129 0 -206 -176z" />
<glyph unicode="q" horiz-adv-x="995" d="M166 381q0 202 52.5 366t153.5 261.5t234 97.5q70 0 121.5 -29t91.5 -108l31 73q18 41 55 41h86q14 0 23.5 -8.5t9.5 -21.5t-4 -21l-252 -1405q-6 -37 -45 -37h-123q-11 0 -21 9t-10 22q0 2 1 6.5t1 7.5l88 476q-85 -134 -237 -134q-124 0 -190 105t-66 299zM365 397 q0 -258 127 -258q55 0 109.5 42.5t94.5 131.5l90 492q-16 70 -55.5 104.5t-89.5 34.5q-62 0 -111.5 -40t-79.5 -100.5t-50 -137t-27.5 -143t-7.5 -126.5z" />
<glyph unicode="r" horiz-adv-x="671" d="M162 29q0 1 2 12q18 99 63 360l117 643q3 19 15.5 29t27.5 10h80q39 0 39 -51l8 -104q49 77 103.5 119t125.5 43q45 0 84 -17q25 -13 25 -35q0 -11 -6 -26l-41 -99q-12 -26 -39 -26q-5 0 -29.5 6t-48.5 6q-128 0 -203 -151l-125 -711q-3 -16 -14 -26.5t-27 -10.5h-126 q-11 0 -21 8.5t-10 20.5z" />
<glyph unicode="s" horiz-adv-x="819" d="M117 84q0 10 6 22l35 89q9 22 30 22q11 0 23 -6q128 -64 207 -64q70 0 116 37.5t46 120.5q0 43 -22.5 75.5t-72.5 65.5q-86 60 -92 64q-160 111 -160 266q0 85 27.5 150.5t76 103.5t108 57t128.5 19q98 0 173 -50t100 -145q4 -16 4 -22q0 -18 -27 -33l-67 -35 q-16 -8 -31 -8q-19 0 -31 27q-48 98 -127 98q-55 0 -96 -34.5t-41 -108.5q0 -46 20 -75.5t64 -62.5q7 -5 46 -34.5t46 -36.5q80 -59 122 -124t42 -153q0 -87 -29.5 -152.5t-81 -104t-114 -57t-135.5 -18.5q-68 0 -149 24t-122 52q-22 12 -22 31z" />
<glyph unicode="t" horiz-adv-x="622" d="M182 211q0 50 8 94l111 610h-78q-33 0 -33 31l21 101q6 36 43 36h76l30 170q6 27 15.5 37.5t34.5 18.5l106 28q8 4 21 4q28 0 28 -30q-27 -156 -39 -228h158q33 0 33 -32l-19 -97q-5 -39 -45 -39h-157l-105 -598q-8 -62 -8 -77q0 -78 59 -78q42 0 101 24q21 7 24 7 q21 0 27 -25l24 -86q3 -9 3 -21q0 -27 -33 -41q-85 -43 -197 -43q-98 0 -153.5 63.5t-55.5 170.5z" />
<glyph unicode="u" horiz-adv-x="1030" d="M195 283q0 46 8 108l119 653q7 39 47 39h116q33 0 33 -39l-115 -641q-12 -55 -12 -118q0 -144 109 -144q144 0 225 166l133 737q7 39 45 39h123q29 0 29 -28v-11l-181 -1007q-7 -37 -45 -37h-77q-33 0 -37 37l-8 96q-35 -62 -104.5 -109t-162.5 -47q-128 0 -186.5 81.5 t-58.5 224.5z" />
<glyph unicode="v" horiz-adv-x="782" d="M184 1044q3 39 31 39h127q33 0 33 -43l12 -653v-256l113 244l110 235q69 144 97 224t28 151q0 12 -1 33.5t-1 28.5q0 19 9 27.5t18 8.5h123q14 0 24 -10.5t13 -28.5q4 -24 4 -61q0 -85 -27.5 -172.5t-89.5 -208.5l-236 -479q-36 -67 -84 -97t-114 -30h-11q-35 0 -65 11 t-53.5 44.5t-24.5 85.5z" />
<glyph unicode="w" horiz-adv-x="1226" d="M199 1047q3 36 28 36h125q31 0 31 -41l4 -651l-2 -254l113 248l184 356l-8 306q0 36 26 36h129q31 0 31 -41l4 -651l2 -258l99 252l108 252q57 122 77.5 193t20.5 147q0 15 -2 39t-2 31q0 36 29 36h117q33 0 39 -39q4 -28 4 -67q0 -88 -23 -170.5t-82 -204.5l-219 -487 q-60 -117 -176 -117h-12q-128 0 -137 143l-7 303l-55 -118l-100 -217q-57 -111 -170 -111h-13q-23 0 -45 5.5t-45.5 19t-38.5 43t-16 71.5z" />
<glyph unicode="x" horiz-adv-x="837" d="M78 78q0 83 39.5 165t124.5 179l155 174l-145 432q-6 9 -6 25q0 13 9.5 21.5t20.5 8.5h123q36 0 52 -43l77 -237l39 -129l88 131q62 92 62 174q0 13 -2 38.5t-2 31.5q0 15 8.5 24.5t21.5 9.5h127q28 0 33 -32q6 -21 6 -62q0 -81 -27 -140.5t-96 -154.5l-155 -202 l149 -443q4 -16 4 -22q0 -13 -9.5 -20t-22.5 -7h-119q-37 0 -49 31l-88 272l-35 115l-84 -99q-111 -131 -111 -231q0 -7 2 -27t2 -26q0 -35 -30 -35h-117q-36 0 -41 33q-4 20 -4 45z" />
<glyph unicode="y" horiz-adv-x="714" d="M-113 -344q0 12 7 29l32 75q13 29 37 29q3 0 44.5 -13.5t76.5 -13.5q104 0 180 162l33 76q-45 2 -80 34.5t-41 96.5l-78 913q0 39 27 39h133q14 0 22 -7.5t11 -28.5l45 -656l12 -254l96 248l84 217q57 147 80.5 225t24.5 150q0 13 -1 36t-1 31q0 39 31 39h118 q30 0 37 -39q6 -42 6 -61q-1 -87 -19 -149.5t-89 -249.5l-256 -666q-67 -177 -162.5 -252.5t-218.5 -75.5q-43 0 -94 9.5t-78 25.5q-19 13 -19 31z" />
<glyph unicode="z" horiz-adv-x="796" d="M84 96q0 67 51 133l424 574l84 110l-113 -2h-256q-11 0 -19.5 8t-8.5 21v6l16 103q3 15 14 24.5t23 9.5h481q42 0 70.5 -23t28.5 -67q0 -38 -16 -69.5t-54 -83.5l-399 -545l-91 -125l117 2h287q25 0 25 -25q0 -2 -1.5 -7.5t-1.5 -8.5l-14 -96q-2 -14 -10.5 -24.5 t-20.5 -10.5h-514q-43 0 -72.5 26.5t-29.5 69.5z" />
<glyph unicode="{" horiz-adv-x="595" d="M184 569v9l19 94q6 39 49 39q28 0 45.5 6.5t27 24.5t13 33t8.5 48l55 324q20 117 49.5 190.5t74 112.5t94.5 52.5t126 13.5h58q14 0 21 -7.5t7 -17.5q0 -2 -1 -5t-1 -5l-14 -88q-6 -35 -43 -35h-24q-35 0 -60 -9.5t-41 -23.5t-28 -44t-18 -56t-15 -74l-58 -340 q-16 -88 -59 -135.5t-133 -61.5q129 -23 129 -145q0 -26 -6 -53l-58 -330q-12 -62 -12 -100q0 -22 3 -36t12.5 -29t30.5 -22.5t54 -7.5h27q29 0 29 -26v-10l-17 -86q-7 -35 -39 -35h-47q-241 0 -241 235q0 49 16 123l59 336q7 42 7 43q0 37 -11.5 52.5t-50.5 15.5 q-37 0 -37 30z" />
<glyph unicode="|" horiz-adv-x="645" d="M362 0v1536q0 41 33 41h74q33 0 33 -41v-1534q0 -22 -7 -32.5t-26 -10.5h-74q-33 0 -33 41z" />
<glyph unicode="}" horiz-adv-x="598" d="M-20 -242q0 2 1 5.5t1 5.5l16 88q6 34 41 34h27q29 0 51 5t38 19.5t26 27.5t18.5 42t13 50t12.5 63l60 340q14 87 57.5 135t132.5 62q-127 23 -127 145q0 18 4 54l60 329q12 93 12 101q0 45 -19.5 69.5t-80.5 24.5h-29q-29 0 -29 26v11l17 86q7 35 39 35h47 q241 0 241 -236q0 -39 -14 -121l-61 -338q-5 -30 -5 -43q0 -38 11 -52.5t49 -14.5q39 0 39 -31v-8l-21 -94q-3 -21 -14 -30t-35 -9q-28 0 -45.5 -6.5t-27 -25t-13 -33.5t-8.5 -48l-55 -324q-20 -117 -49.5 -190.5t-73.5 -112t-94 -52t-125 -13.5h-60q-28 0 -28 24z" />
<glyph unicode="~" horiz-adv-x="849" d="M203 555q0 81 55 149t152 68q47 0 101.5 -23.5t99.5 -47t69 -23.5q52 0 70 74q8 30 34 30h68q22 0 22 -28q0 -90 -58.5 -154.5t-143.5 -64.5q-45 0 -102 23.5t-104.5 47t-68.5 23.5q-54 0 -69 -76q-8 -29 -41 -29h-60q-9 0 -16.5 7.5t-7.5 23.5z" />
<glyph unicode="&#xa1;" horiz-adv-x="565" d="M104 -416q0 10 5 25l223 1093q8 41 45 41h84q15 0 23 -9t8 -23q0 -4 -3 -19l-155 -1091q-7 -41 -45 -41h-154q-31 0 -31 24zM326 985q0 64 40.5 107t100.5 43q54 0 84.5 -34.5t30.5 -94.5t-38.5 -104t-101.5 -44q-53 0 -83.5 34.5t-32.5 92.5z" />
<glyph unicode="&#xa2;" horiz-adv-x="856" d="M168 408q0 182 48 332t150 249.5t244 112.5l31 170q6 43 43 43h80q29 0 29 -29v-14l-33 -182q146 -44 184 -218v-14q0 -20 -22 -31l-84 -34q-2 -2 -23 -2q-20 0 -27 20q-24 69 -57 96t-86 27q-68 0 -123 -48.5t-87.5 -126.5t-50 -166.5t-17.5 -176.5q0 -126 44 -193 t144 -67q97 0 199 41q12 8 26 8q20 0 27 -27l27 -92q0 -5 1 -12l1 -6q0 -20 -27 -35q-93 -45 -229 -53l-25 -152q-5 -23 -14.5 -33t-28.5 -10h-80q-31 0 -31 29q0 8 2 14l27 160q-262 53 -262 420z" />
<glyph unicode="&#xa3;" horiz-adv-x="858" d="M55 31q0 8 2 14l17 90q6 36 43 55q123 71 159 275l11 53h-76q-29 0 -29 23q0 1 1 5t1 5l11 65q7 39 38 39h76l23 142h-74q-29 0 -29 20q0 6 2 12l11 64q4 41 37 41h75l29 162q17 107 44.5 185t74 142.5t119.5 97.5t172 33q126 0 204 -63q17 -14 17 -29q0 -6 -10 -26 l-46 -84q-13 -23 -28 -23q-9 0 -29 10q-68 35 -117 35q-87 0 -132.5 -73t-76.5 -236l-26 -131h250q24 0 24 -27v-14l-12 -64q-6 -32 -39 -32h-246l-22 -142h250q24 0 24 -20l-1 -7q-1 -7 -1 -12l-12 -65q-7 -33 -37 -33h-250l-14 -82q-32 -165 -178 -254h542q27 0 27 -26 v-11l-18 -104q-4 -41 -35 -41h-715q-14 0 -22.5 9t-8.5 22z" />
<glyph unicode="&#xa5;" horiz-adv-x="942" d="M266 410q0 2 1 6.5t1 5.5l11 65q7 41 40 41h181l24 140h-182q-29 0 -29 20q0 8 2 10l13 66q3 41 37 41h122l-168 618q-4 8 -4 21q3 31 33 31h127q12 0 18.5 -1t14.5 -10t12 -26l98 -432l27 -142l78 146l260 430q20 35 64 35h133q24 0 24 -27q0 -14 -10 -27l-389 -616h123 q24 0 24 -25q0 -2 -1 -8t-1 -8l-10 -66q-7 -30 -39 -30h-180l-27 -140h189q22 0 22 -26q0 -9 -2 -15l-10 -65q-7 -33 -37 -33h-184l-62 -348q-6 -41 -32 -41h-144q-22 0 -22 25q0 2 1 8t1 8l61 348h-180q-29 0 -29 21z" />
<glyph unicode="&#xa6;" horiz-adv-x="638" d="M340 0v510q0 41 33 41h73q33 0 33 -41v-508q0 -22 -7 -32.5t-26 -10.5h-73q-33 0 -33 41zM340 1026v510q0 41 33 41h73q33 0 33 -41v-510q0 -22 -7 -31.5t-26 -9.5h-73q-33 0 -33 41z" />
<glyph unicode="&#xa7;" horiz-adv-x="780" d="M78 84q0 5 10 35l31 76q7 22 28 22q11 0 19 -4q136 -66 229 -66q178 0 178 164q0 42 -27.5 75.5t-88.5 66.5l-80 41q-174 80 -174 241q0 97 52.5 167.5t147.5 107.5q-110 88 -110 215q0 162 94.5 246.5t263.5 84.5q99 0 176.5 -52.5t102.5 -151.5v-17q-2 -12 -27 -28 l-69 -31q-4 -1 -10.5 -4t-10.5 -4.5t-8 -1.5q-13 0 -20.5 5t-14.5 23q-22 47 -58 74t-79 27q-64 0 -105 -41.5t-41 -108.5q0 -50 27.5 -81.5t73.5 -57.5l74 -45q98 -58 145 -115.5t47 -142.5q0 -91 -50 -152t-142 -104q106 -87 106 -221q0 -158 -97.5 -253.5t-277.5 -95.5 q-84 0 -166.5 21.5t-136.5 60.5q-12 9 -12 25zM395 776q0 -41 23.5 -69t68.5 -52q6 -5 32.5 -18t33.5 -14q47 17 79 58t32 85q0 85 -105 139l-57 31q-47 -19 -77 -63.5t-30 -96.5z" />
<glyph unicode="&#xa8;" horiz-adv-x="782" d="M332 1339q0 50 35 81.5t92 31.5q46 0 75 -27t29 -71q0 -54 -35.5 -85.5t-91.5 -31.5q-48 0 -76 28.5t-28 73.5zM688 1339q0 49 35.5 81t91.5 32q48 0 77.5 -27t29.5 -71q0 -54 -36.5 -85.5t-90.5 -31.5q-49 0 -78 28.5t-29 73.5z" />
<glyph unicode="&#xa9;" horiz-adv-x="1427" d="M223 772q0 174 32 309.5t88 223.5t136.5 145.5t171.5 81.5t199 24q110 0 201.5 -25t170.5 -83t134 -147t86 -222.5t31 -304.5q0 -797 -623 -797q-627 0 -627 795zM350 772q0 -185 33.5 -317t99 -212t156 -116.5t211.5 -36.5q120 0 208.5 35.5t154.5 114t99.5 213 t33.5 323.5q0 341 -121 504.5t-377 163.5q-245 0 -371.5 -160.5t-126.5 -511.5zM514 778q0 477 334 477q102 0 166.5 -43.5t97.5 -140.5l1 -5q1 -6 1 -11q0 -16 -22 -29l-66 -25q-16 -4 -22 -4q-19 0 -25 15q-31 56 -58.5 78t-76.5 22q-162 0 -162 -338q0 -336 192 -336 q72 0 166 47q10 7 19 7q15 0 22 -17l31 -80q2 -6 2 -14q0 -14 -16 -27q-30 -23 -92.5 -42t-141.5 -19q-177 0 -263.5 132.5t-86.5 352.5z" />
<glyph unicode="&#xaa;" horiz-adv-x="593" d="M233 1130q0 79 16.5 154.5t48 138.5t84.5 101.5t118 38.5q44 0 82.5 -21t54.5 -63l20 49q9 20 29 20h68q16 0 16 -16v-6l-88 -498q-4 -8 -4 -24q0 -24 16 -27h8q15 0 15 -21l-6 -36q-4 -33 -56 -33q-99 0 -108 82q-55 -86 -148 -86q-78 0 -122 64.5t-44 182.5zM367 1135 q0 -28 2 -48t9 -44t23 -37t41 -13q73 0 119 99l49 272q-9 43 -31.5 66.5t-52.5 23.5q-44 0 -77 -35t-49.5 -88.5t-24.5 -103.5t-8 -92z" />
<glyph unicode="&#xab;" horiz-adv-x="909" d="M201 502q0 33 28 69l207 269q19 25 33.5 34t36.5 9h98q8 0 13.5 -6t5.5 -15q0 -10 -11 -26l-221 -328l98 -332q5 -15 5 -22q0 -21 -25 -21h-80q-21 0 -30.5 8.5t-20.5 34.5l-129 289q-8 20 -8 37zM557 502q0 32 29 69l207 269q19 25 33 34t36 9h99q8 0 13 -6t5 -15 q0 -11 -10 -26l-221 -328l98 -332q4 -12 4 -22q0 -21 -25 -21h-80q-21 0 -30.5 8.5t-20.5 34.5l-129 289q-8 20 -8 37z" />
<glyph unicode="&#xac;" horiz-adv-x="1015" d="M262 821v76q0 21 5.5 30t21.5 9h542q86 0 125 -39.5t39 -122.5v-299q0 -41 -28 -41h-90q-29 0 -29 41v307h-557q-17 0 -23 9.5t-6 29.5z" />
<glyph unicode="&#xad;" horiz-adv-x="686" d="M199 528v17l16 88q7 37 41 37h412q28 0 28 -27l-2 -20l-14 -84q-6 -37 -43 -37h-408q-30 0 -30 26z" />
<glyph unicode="&#xae;" horiz-adv-x="1427" d="M223 772q0 174 32 309.5t88 223.5t136.5 145.5t171.5 81.5t199 24q110 0 201.5 -25t170.5 -83t134 -147t86 -222.5t31 -304.5q0 -797 -623 -797q-627 0 -627 795zM350 772q0 -185 33.5 -317t99 -212t156 -116.5t211.5 -36.5q120 0 208.5 35.5t154.5 114.5t99.5 213 t33.5 323q0 334 -122 501t-376 167q-245 0 -371.5 -160.5t-126.5 -511.5zM565 326v882q0 30 27 35q64 10 194 10q164 0 248.5 -65.5t91.5 -212.5q3 -59 -7.5 -102.5t-35 -72.5t-51 -47t-67.5 -36l215 -385q6 -6 6 -19q0 -16 -21 -16h-108q-34 0 -45 25l-195 362h-100v-358 q0 -29 -25 -29h-102q-25 0 -25 29zM717 813q19 -2 82 -2q172 0 172 160q0 85 -44 119t-136 34q-21 0 -39.5 -1.5t-26.5 -2.5l-8 -2v-305z" />
<glyph unicode="&#xaf;" horiz-adv-x="665" d="M319 1270q0 2 1.5 7.5t1.5 8.5l14 84q3 26 14.5 35.5t44.5 9.5h369q28 0 38.5 -6t10.5 -23q0 -2 -1 -7.5t-1 -8.5l-14 -84q-4 -27 -19 -37t-49 -10h-360q-27 0 -38.5 7t-11.5 24z" />
<glyph unicode="&#xb0;" horiz-adv-x="575" d="M342 1348q0 103 52 161t130 58q80 0 131.5 -57t51.5 -162q0 -99 -52.5 -159.5t-130.5 -60.5q-77 0 -129.5 60.5t-52.5 159.5zM457 1348q0 -48 19 -73.5t48 -25.5q30 0 49 25.5t19 71.5q0 102 -68 102q-30 0 -48.5 -24.5t-18.5 -75.5z" />
<glyph unicode="&#xb1;" horiz-adv-x="1019" d="M246 63v72q0 41 35 41h614q33 0 33 -41v-69q0 -39 -35 -39h-614q-33 0 -33 36zM246 733v72q0 39 35 39h237v336q0 41 33 41h76q35 0 35 -41v-336h231q35 0 35 -39v-70q0 -20 -8 -29.5t-29 -9.5h-229v-334q0 -43 -35 -43h-76q-33 0 -33 41v336h-235q-37 0 -37 37z" />
<glyph unicode="&#xb4;" horiz-adv-x="516" d="M319 1262q0 4 9 22l176 281q17 30 51 30h115q26 0 26 -24q0 -17 -10 -27l-213 -262q-15 -18 -21.5 -24.5t-19 -12.5t-29.5 -6h-67q-8 0 -13 6.5t-4 16.5z" />
<glyph unicode="&#xb5;" horiz-adv-x="1044" d="M96 -293q0 13 2 17l234 1318q8 41 45 41h121q30 0 30 -28v-11l-114 -634q-13 -76 -13 -125q0 -146 113 -146q144 0 229 178l129 725q8 41 43 41h127q27 0 27 -28v-11l-180 -1005q-8 -39 -41 -39h-88q-17 0 -25 11.5t-8 25.5l-6 96q-47 -69 -123.5 -112.5t-151.5 -43.5 t-104 54l-55 -316q-9 -34 -35 -34h-131q-25 0 -25 26z" />
<glyph unicode="&#xb6;" horiz-adv-x="1017" d="M137 1120q0 81 26.5 151.5t77 125.5t131.5 87t183 32h387q75 0 104 -30.5t13 -121.5l-281 -1595q-8 -41 -43 -41h-114q-35 0 -27 41l278 1581h-170l-278 -1581q-6 -41 -41 -41h-115q-35 0 -26 41l180 1034q-138 0 -211.5 87t-73.5 230z" />
<glyph unicode="&#xb7;" horiz-adv-x="446" d="M217 639q0 59 37 98t92 39q52 0 80.5 -34.5t28.5 -92.5q0 -59 -36.5 -95t-90.5 -36q-50 0 -79.5 33t-31.5 88z" />
<glyph unicode="&#xb8;" horiz-adv-x="550" d="M20 -430q0 12 5 20l22 45q11 21 27 21q3 0 36 -10.5t58 -10.5q36 0 61 18.5t25 59.5q0 58 -98 74q-41 9 -41 41q0 10 4 22l41 150h139l-29 -98q63 -18 99.5 -62t36.5 -110q0 -108 -69.5 -159.5t-180.5 -51.5q-55 0 -115 24q-19 11 -21 27z" />
<glyph unicode="&#xba;" horiz-adv-x="555" d="M233 1137q3 199 84 311.5t215 112.5q99 0 149 -68.5t50 -181.5q-3 -199 -80.5 -315.5t-218.5 -116.5q-94 0 -147 67t-52 191zM369 1139q-4 -152 75 -152q41 0 71 28t46.5 76.5t24.5 102.5t10 117q5 141 -76 141q-71 0 -110 -94t-41 -219z" />
<glyph unicode="&#xbb;" horiz-adv-x="909" d="M125 154q0 6 10 26l223 328l-98 332q-4 12 -4 22q0 21 25 21h77q21 0 32 -9t22 -34l127 -289q8 -20 8 -37q0 -30 -27 -70l-209 -268q-19 -26 -32.5 -34.5t-36.5 -8.5h-97q-8 0 -14 6t-6 15zM481 154q0 4 11 26l223 328l-99 332q-4 12 -4 22q0 21 25 21h78q21 0 31.5 -9 t21.5 -34l127 -289q8 -20 8 -37q0 -31 -26 -70l-209 -268q-19 -25 -33 -34t-37 -9h-96q-8 0 -14.5 6t-6.5 15z" />
<glyph unicode="&#xbf;" horiz-adv-x="724" d="M29 -145q0 77 21.5 150t65 142.5t86.5 123t107 122.5q47 56 67 82t41 64.5t29 76.5l17 86q6 41 39 41h133q33 0 33 -30q0 -1 -1 -6.5t-1 -6.5q-11 -63 -15 -90q-17 -85 -59.5 -155.5t-136.5 -171.5q-48 -52 -76.5 -86.5t-65.5 -88.5t-55 -109t-18 -112q0 -70 29 -105.5 t96 -35.5q62 0 110.5 37.5t89.5 118.5q14 28 37 28q11 0 19 -4l88 -41q20 -7 20 -28q0 -17 -8 -35q-115 -262 -387 -262q-135 0 -220 75.5t-85 219.5zM477 989q0 63 40 105.5t99 42.5q54 0 85.5 -34t31.5 -93q0 -61 -38.5 -105.5t-100.5 -44.5q-55 0 -85 34.5t-32 94.5z" />
<glyph unicode="&#xc0;" horiz-adv-x="1085" d="M20 29q4 16 7 22l548 1282q14 33 26 54.5t34 46.5t54.5 38t74.5 13h16q80 0 119 -45t45 -103l131 -1286q1 -4 1 -7t-0.5 -5.5t-0.5 -3.5q-1 -17 -10.5 -26t-22.5 -9h-124q-24 0 -33.5 9.5t-10.5 35.5l-32 358h-455l-147 -360q-12 -26 -24 -34.5t-34 -8.5h-137 q-12 0 -20 8.5t-5 20.5zM459 575h364l-45 545l-12 209l-80 -211zM528 1962q0 9 6.5 17t20.5 8h109q31 0 43 -31l98 -285q4 -12 4 -18q0 -9 -8 -16t-17 -7h-55q-20 0 -32.5 10t-24.5 35l-140 267q-4 8 -4 20z" />
<glyph unicode="&#xc1;" horiz-adv-x="1126" d="M20 29q4 16 7 22l548 1282q14 33 26 54.5t34 46.5t54.5 38t74.5 13h16q80 0 119 -45t45 -103l131 -1286q1 -4 1 -7t-0.5 -5.5t-0.5 -3.5q-1 -17 -10.5 -26t-22.5 -9h-124q-24 0 -33.5 9.5t-10.5 35.5l-32 358h-455l-147 -360q-12 -26 -24 -34.5t-34 -8.5h-137 q-12 0 -20 8.5t-5 20.5zM459 575h364l-45 545l-12 209l-80 -211zM735 1653q0 6 8 22l177 281q18 31 51 31h114q27 0 27 -25q0 -17 -10 -27l-213 -262q-15 -18 -21.5 -24.5t-19 -12.5t-29.5 -6h-67q-8 0 -13 6.5t-4 16.5z" />
<glyph unicode="&#xc2;" horiz-adv-x="1085" d="M20 29q4 16 7 22l548 1282q14 33 26 54.5t34 46.5t54.5 38t74.5 13h16q80 0 119 -45t45 -103l131 -1286q1 -4 1 -7t-0.5 -5.5t-0.5 -3.5q-1 -17 -10.5 -26t-22.5 -9h-124q-24 0 -33.5 9.5t-10.5 35.5l-32 358h-455l-147 -360q-12 -26 -24 -34.5t-34 -8.5h-137 q-12 0 -20 8.5t-5 20.5zM459 575h364l-45 545l-12 209l-80 -211zM512 1649q0 13 10 26l211 279q25 33 60 33h84q35 0 45 -33l116 -283q2 -6 2 -18q-2 -9 -8.5 -16t-15.5 -7h-43q-35 0 -55 35l-97 174l-164 -174q-18 -21 -33.5 -28t-39.5 -7h-54q-18 0 -18 19z" />
<glyph unicode="&#xc3;" horiz-adv-x="1089" d="M20 29q4 16 7 22l548 1282q14 33 26 54.5t34 46.5t54.5 38t74.5 13h16q80 0 119 -45t45 -103l131 -1286q1 -4 1 -7t-0.5 -5.5t-0.5 -3.5q-1 -17 -10.5 -26t-22.5 -9h-124q-24 0 -33.5 9.5t-10.5 35.5l-32 358h-455l-147 -360q-12 -26 -24 -34.5t-34 -8.5h-137 q-12 0 -20 8.5t-5 20.5zM459 575h364l-45 545l-12 209l-80 -211zM483 1659q2 80 54.5 150.5t142.5 70.5q43 0 82.5 -22.5t71.5 -45t55 -22.5q43 0 67 68q9 30 33 30h64q24 0 24 -28q0 -81 -53.5 -150.5t-132.5 -69.5q-47 0 -90.5 23t-77.5 45.5t-57 22.5q-22 0 -37 -16.5 t-27 -55.5q-14 -29 -37 -29h-57q-10 0 -17.5 8t-7.5 21z" />
<glyph unicode="&#xc4;" horiz-adv-x="1093" d="M20 29q4 16 7 22l548 1282q14 33 26 54.5t34 46.5t54.5 38t74.5 13h16q80 0 119 -45t45 -103l131 -1286q1 -4 1 -7t-0.5 -5.5t-0.5 -3.5q-1 -17 -10.5 -26t-22.5 -9h-124q-24 0 -33.5 9.5t-10.5 35.5l-32 358h-455l-147 -360q-12 -26 -24 -34.5t-34 -8.5h-137 q-12 0 -20 8.5t-5 20.5zM459 575h364l-45 545l-12 209l-80 -211zM496 1731q0 50 35 81t92 31q46 0 75 -27t29 -71q0 -54 -35.5 -85.5t-91.5 -31.5q-48 0 -76 29t-28 74zM852 1731q0 49 35.5 80.5t91.5 31.5q47 0 76.5 -27t29.5 -71q0 -54 -36.5 -85.5t-90.5 -31.5 q-49 0 -77.5 29t-28.5 74z" />
<glyph unicode="&#xc5;" horiz-adv-x="1085" d="M20 29q4 16 7 22l548 1282q14 33 26 54.5t34 46.5t54.5 38t74.5 13h16q80 0 119 -45t45 -103l131 -1286q1 -4 1 -7t-0.5 -5.5t-0.5 -3.5q-1 -17 -10.5 -26t-22.5 -9h-124q-24 0 -33.5 9.5t-10.5 35.5l-32 358h-455l-147 -360q-12 -26 -24 -34.5t-34 -8.5h-137 q-12 0 -20 8.5t-5 20.5zM459 575h364l-45 545l-12 209l-80 -211zM668 1800q2 95 55 165.5t141 70.5q62 0 98.5 -49t36.5 -125q-2 -92 -53.5 -162t-140.5 -70q-62 0 -100 47.5t-37 122.5zM770 1810q0 -30 12.5 -48.5t36.5 -18.5q33 0 54.5 30.5t21.5 75.5q3 74 -47 74 q-35 0 -55.5 -33.5t-22.5 -79.5z" />
<glyph unicode="&#xc6;" horiz-adv-x="1484" d="M18 23q0 8 11 30l780 1295q36 62 78 94.5t102 32.5h637q35 0 35 -33v-10l-19 -103q-6 -37 -45 -37h-423l-72 -411h338q35 0 35 -23v-8l-21 -109q-7 -41 -47 -41h-338l-92 -518h455q34 0 34 -26v-19l-18 -96q-7 -41 -45 -41h-494q-141 0 -141 119q0 15 8 61l39 223h-350 l-211 -360q-14 -26 -29 -34.5t-37 -8.5h-145q-25 0 -25 23zM565 573h281l76 445l49 252l-127 -223z" />
<glyph unicode="&#xc7;" horiz-adv-x="1034" d="M193 526q0 104 15 211t46 217.5t83.5 207t122 172t168 119.5t214.5 44q142 0 231 -70.5t115 -201.5q0 -3 1 -10.5t1 -10.5q0 -30 -33 -41l-84 -26q-25 -7 -35 -7q-18 0 -30 29q-28 88 -75 120t-108 32q-86 0 -159 -56.5t-119.5 -143t-79.5 -193.5t-47 -204.5t-14 -178.5 q0 -61 7 -112.5t24.5 -99t44 -81t68 -53t95.5 -19.5q145 0 281 72q10 6 28 6q20 0 27 -25l31 -102q4 -16 4 -21q0 -26 -31 -41q-133 -71 -317 -79l-21 -78q62 -18 98.5 -62t36.5 -110q0 -108 -69.5 -159.5t-180.5 -51.5q-56 0 -116 24q-19 11 -21 27q0 11 6 20l21 45 q10 21 27 21q4 0 37 -10.5t57 -10.5q35 0 61 18.5t27 59.5q0 58 -101 74q-41 9 -41 41q0 2 2 9t3 13l36 136q-172 27 -254.5 170t-82.5 370z" />
<glyph unicode="&#xc8;" horiz-adv-x="931" d="M193 119q0 15 8 61l198 1123q18 100 61.5 136t121.5 36h471q34 0 34 -33v-10l-18 -103q-6 -37 -45 -37h-424l-72 -411h338q35 0 35 -27v-12l-20 -101q-7 -41 -47 -41h-338l-93 -518h455q35 0 35 -26q0 -7 -2 -19l-17 -96q-7 -41 -45 -41h-495q-141 0 -141 119zM557 1962 q0 9 6.5 17t20.5 8h108q31 0 43 -31l99 -285q4 -12 4 -18q0 -9 -8 -16t-17 -7h-55q-20 0 -33 10t-25 35l-139 267q-4 8 -4 20z" />
<glyph unicode="&#xc9;" horiz-adv-x="940" d="M193 119q0 15 8 61l198 1123q18 100 61.5 136t121.5 36h471q34 0 34 -33v-10l-18 -103q-6 -37 -45 -37h-424l-72 -411h338q35 0 35 -27v-12l-20 -101q-7 -41 -47 -41h-338l-93 -518h455q35 0 35 -26q0 -7 -2 -19l-17 -96q-7 -41 -45 -41h-495q-141 0 -141 119zM727 1653 q0 6 8 22l176 281q18 31 52 31h114q27 0 27 -25q0 -17 -10 -27l-213 -262q-15 -18 -21.5 -24.5t-19 -12.5t-29.5 -6h-68q-8 0 -12.5 6.5t-3.5 16.5z" />
<glyph unicode="&#xca;" horiz-adv-x="931" d="M193 119q0 15 8 61l198 1123q18 100 61.5 136t121.5 36h471q34 0 34 -33v-10l-18 -103q-6 -37 -45 -37h-424l-72 -411h338q35 0 35 -27v-12l-20 -101q-7 -41 -47 -41h-338l-93 -518h455q35 0 35 -26q0 -7 -2 -19l-17 -96q-7 -41 -45 -41h-495q-141 0 -141 119zM520 1649 q0 13 10 26l211 279q25 33 60 33h84q35 0 45 -33l117 -283q2 -6 2 -18q-2 -9 -9 -16t-16 -7h-43q-35 0 -55 35l-97 174l-163 -174q-18 -21 -34 -28t-40 -7h-53q-19 0 -19 19z" />
<glyph unicode="&#xcb;" horiz-adv-x="933" d="M193 119q0 15 8 61l198 1123q18 100 61.5 136t121.5 36h471q34 0 34 -33v-10l-18 -103q-6 -37 -45 -37h-424l-72 -411h338q35 0 35 -27v-12l-20 -101q-7 -41 -47 -41h-338l-93 -518h455q35 0 35 -26q0 -7 -2 -19l-17 -96q-7 -41 -45 -41h-495q-141 0 -141 119zM500 1731 q0 50 35 81t92 31q46 0 75 -27t29 -71q0 -54 -35.5 -85.5t-91.5 -31.5q-48 0 -76 29t-28 74zM856 1731q0 49 35.5 80.5t91.5 31.5q48 0 77.5 -27t29.5 -71q0 -54 -36.5 -85.5t-90.5 -31.5q-49 0 -78 29t-29 74z" />
<glyph unicode="&#xcc;" horiz-adv-x="520" d="M164 31q0 8 2 14l244 1391q4 24 17 31.5t34 7.5h121q32 0 32 -33v-15l-245 -1388q-8 -39 -50 -39h-120q-15 0 -25 8t-10 23zM317 1962q0 9 6.5 17t20.5 8h109q31 0 43 -31l98 -285q4 -12 4 -18q0 -9 -8 -16t-17 -7h-55q-20 0 -32.5 10t-24.5 35l-139 267q-5 10 -5 20z " />
<glyph unicode="&#xcd;" horiz-adv-x="458" d="M164 31q0 8 2 14l244 1391q4 24 17 31.5t34 7.5h121q32 0 32 -33v-15l-245 -1388q-8 -39 -50 -39h-120q-15 0 -25 8t-10 23zM494 1653q0 6 8 22l176 281q18 31 51 31h115q26 0 26 -25q0 -17 -10 -27l-213 -262q-13 -16 -16 -19t-13 -11.5t-18.5 -10.5t-21.5 -2h-68 q-8 0 -12.5 6.5t-3.5 16.5z" />
<glyph unicode="&#xce;" horiz-adv-x="446" d="M164 31q0 8 2 14l244 1391q4 24 17 31.5t34 7.5h121q32 0 32 -33v-15l-245 -1388q-8 -39 -50 -39h-120q-15 0 -25 8t-10 23zM276 1649q0 12 11 26l211 279q25 33 59 33h84q35 0 45 -33l117 -283q2 -6 2 -18q-2 -9 -9 -16t-16 -7h-43q-35 0 -55 35l-96 174l-164 -174 q-18 -21 -34 -28t-40 -7h-53q-19 0 -19 19z" />
<glyph unicode="&#xcf;" horiz-adv-x="516" d="M164 31q0 8 2 14l244 1391q4 24 17 31.5t34 7.5h121q32 0 32 -33v-15l-245 -1388q-8 -39 -50 -39h-120q-15 0 -25 8t-10 23zM258 1731q0 50 35 81t92 31q46 0 75 -27t29 -71q0 -54 -35.5 -85.5t-91.5 -31.5q-48 0 -76 29t-28 74zM614 1731q0 49 35.5 80.5t91.5 31.5 q48 0 77.5 -27t29.5 -71q0 -54 -36.5 -85.5t-90.5 -31.5q-49 0 -78 29t-29 74z" />
<glyph unicode="&#xd0;" horiz-adv-x="1144" d="M119 31q0 10 2 16l112 643h-81q-33 0 -33 27q0 8 2 12l10 68q5 37 43 37h84l107 593q7 43 55 48q59 8 262 8q263 -2 395.5 -132t132.5 -415q0 -127 -15 -241.5t-50.5 -233.5t-105 -217t-167.5 -160q-81 -51 -182.5 -72.5t-243.5 -21.5q-258 0 -301 8q-26 3 -26 33z M344 172q49 -4 137 -4q163 0 256 65q72 46 125 124t82 174.5t42 195.5t13 207q0 179 -75 274.5t-246 98.5q-68 0 -135 -7l-82 -466h155q29 0 29 -25q0 -1 -1 -10t-1 -13l-10 -59q-6 -37 -43 -37h-154z" />
<glyph unicode="&#xd1;" horiz-adv-x="1288" d="M166 43l215 1223q19 104 65 160.5t136 56.5q84 0 129.5 -38.5t58.5 -135.5l145 -836l50 -334l59 387l158 906q8 43 45 43h123q20 0 27 -9.5t3 -33.5l-217 -1239q-30 -201 -205 -201q-151 0 -178 155l-157 904l-41 276l-54 -340l-166 -942q-5 -25 -14 -35t-29 -10h-122 q-40 0 -31 43zM662 1659q2 80 54 150.5t142 70.5q43 0 82.5 -22.5t71.5 -45t55 -22.5q44 0 68 68q9 30 32 30h64q24 0 24 -28q0 -81 -53.5 -150.5t-132.5 -69.5q-47 0 -90.5 23t-77.5 45.5t-57 22.5q-22 0 -37 -16.5t-27 -55.5q-14 -29 -37 -29h-57q-10 0 -17 8t-7 21z" />
<glyph unicode="&#xd2;" d="M193 522q0 136 19 266.5t67 261t119.5 228t185.5 158.5t256 61q86 0 158 -28.5t132 -89t93.5 -167.5t33.5 -251q0 -99 -9.5 -194t-31.5 -194t-55.5 -185t-86 -162.5t-118 -131t-155.5 -86t-195 -31.5q-192 0 -302.5 137.5t-110.5 407.5zM406 516q0 -76 12 -138.5t37 -113 t69.5 -78.5t104.5 -28q102 0 184 69t132 184t76 257t26 297q0 167 -57 259.5t-171 92.5q-93 0 -167.5 -57.5t-119 -145t-74.5 -199t-41 -210.5t-11 -189zM592 1962q0 9 6 17t20 8h109q31 0 43 -31l98 -285q4 -12 4 -18q0 -9 -7.5 -16t-16.5 -7h-55q-20 0 -33 10t-25 35 l-139 267q-4 8 -4 20z" />
<glyph unicode="&#xd3;" d="M193 522q0 136 19 266.5t67 261t119.5 228t185.5 158.5t256 61q86 0 158 -28.5t132 -89t93.5 -167.5t33.5 -251q0 -99 -9.5 -194t-31.5 -194t-55.5 -185t-86 -162.5t-118 -131t-155.5 -86t-195 -31.5q-192 0 -302.5 137.5t-110.5 407.5zM406 516q0 -76 12 -138.5t37 -113 t69.5 -78.5t104.5 -28q102 0 184 69t132 184t76 257t26 297q0 167 -57 259.5t-171 92.5q-93 0 -167.5 -57.5t-119 -145t-74.5 -199t-41 -210.5t-11 -189zM819 1653q0 6 8 22l177 281q18 31 51 31h114q27 0 27 -25q0 -17 -10 -27l-213 -262q-15 -18 -21.5 -24.5t-19 -12.5 t-29.5 -6h-67q-8 0 -13 6.5t-4 16.5z" />
<glyph unicode="&#xd4;" d="M193 522q0 136 19 266.5t67 261t119.5 228t185.5 158.5t256 61q86 0 158 -28.5t132 -89t93.5 -167.5t33.5 -251q0 -99 -9.5 -194t-31.5 -194t-55.5 -185t-86 -162.5t-118 -131t-155.5 -86t-195 -31.5q-192 0 -302.5 137.5t-110.5 407.5zM406 516q0 -76 12 -138.5t37 -113 t69.5 -78.5t104.5 -28q102 0 184 69t132 184t76 257t26 297q0 167 -57 259.5t-171 92.5q-93 0 -167.5 -57.5t-119 -145t-74.5 -199t-41 -210.5t-11 -189zM618 1649q0 12 11 26l211 279q25 33 59 33h84q35 0 45 -33l117 -283q2 -6 2 -18q-2 -9 -9 -16t-16 -7h-43 q-35 0 -55 35l-96 174l-164 -174q-18 -21 -34 -28t-40 -7h-53q-19 0 -19 19z" />
<glyph unicode="&#xd5;" d="M193 522q0 136 19 266.5t67 261t119.5 228t185.5 158.5t256 61q86 0 158 -28.5t132 -89t93.5 -167.5t33.5 -251q0 -99 -9.5 -194t-31.5 -194t-55.5 -185t-86 -162.5t-118 -131t-155.5 -86t-195 -31.5q-192 0 -302.5 137.5t-110.5 407.5zM406 516q0 -76 12 -138.5t37 -113 t69.5 -78.5t104.5 -28q102 0 184 69t132 184t76 257t26 297q0 167 -57 259.5t-171 92.5q-93 0 -167.5 -57.5t-119 -145t-74.5 -199t-41 -210.5t-11 -189zM569 1659q2 80 54.5 150.5t142.5 70.5q43 0 82.5 -22.5t71.5 -45t55 -22.5q43 0 67 68q9 30 33 30h64q24 0 24 -28 q0 -81 -53.5 -150.5t-132.5 -69.5q-47 0 -90.5 23t-77.5 45.5t-57 22.5q-22 0 -37 -16.5t-27 -55.5q-14 -29 -37 -29h-57q-10 0 -17.5 8t-7.5 21z" />
<glyph unicode="&#xd6;" d="M193 522q0 136 19 266.5t67 261t119.5 228t185.5 158.5t256 61q86 0 158 -28.5t132 -89t93.5 -167.5t33.5 -251q0 -99 -9.5 -194t-31.5 -194t-55.5 -185t-86 -162.5t-118 -131t-155.5 -86t-195 -31.5q-192 0 -302.5 137.5t-110.5 407.5zM406 516q0 -76 12 -138.5t37 -113 t69.5 -78.5t104.5 -28q102 0 184 69t132 184t76 257t26 297q0 167 -57 259.5t-171 92.5q-93 0 -167.5 -57.5t-119 -145t-74.5 -199t-41 -210.5t-11 -189zM555 1731q0 50 35 81t92 31q46 0 75 -27t29 -71q0 -54 -35.5 -85.5t-91.5 -31.5q-48 0 -76 29t-28 74zM911 1731 q0 49 35.5 80.5t91.5 31.5q48 0 77.5 -27t29.5 -71q0 -54 -36.5 -85.5t-90.5 -31.5q-49 0 -78 29t-29 74z" />
<glyph unicode="&#xd7;" horiz-adv-x="925" d="M256.5 291q-0.5 14 9.5 28l207 261l-209 262q-22 31 4 53l54 43q28 23 55 -8l186 -242l191 242q27 31 55 8l53 -43q26 -23 2 -53l-209 -262l207 -261q10 -14 10 -28t-10 -23l-53 -43q-33 -26 -57 6l-189 242l-184 -242q-27 -30 -57 -6l-54 43q-11 9 -11.5 23z" />
<glyph unicode="&#xd8;" horiz-adv-x="1200" d="M193 -47q0 12 6 24l96 162q-92 140 -92 383q0 87 9.5 176.5t32.5 186t57 184t86.5 166.5t117 136.5t153 91.5t191.5 34q118 0 211 -55l37 67q13 21 24 30t29 9h88q9 0 15 -7t6 -17q0 -12 -9 -25l-88 -149q105 -143 105 -387q0 -88 -9.5 -178.5t-32 -188.5t-56.5 -186 t-86.5 -168t-118 -138.5t-156 -92.5t-195.5 -34q-127 0 -219 62l-41 -72q-15 -22 -25.5 -30.5t-29.5 -8.5h-86q-20 0 -20 25zM414 512q0 -86 18 -147l529 907q-51 45 -132 45q-68 0 -126.5 -30.5t-100 -81t-75 -119.5t-54.5 -142t-34.5 -152.5t-19 -148t-5.5 -131.5z M498 213q52 -55 143 -55q101 0 182.5 69.5t131.5 186t76 259t26 296.5q0 87 -21 166z" />
<glyph unicode="&#xd9;" horiz-adv-x="1220" d="M236 369q0 68 14 151l160 914q9 41 39 41h139q26 0 26 -27q0 -2 -1 -7.5t-1 -8.5l-157 -906q-17 -108 -17 -143q0 -113 53.5 -168t151.5 -55q129 0 204.5 79t110.5 281l160 914q6 41 41 41h135q27 0 27 -27q0 -12 -2 -18l-162 -936q-17 -99 -42.5 -175.5t-67 -142 t-98 -108.5t-136 -67t-180.5 -24q-196 0 -296.5 107.5t-100.5 284.5zM670 1962q0 9 6 17t20 8h109q31 0 43 -31l98 -285q4 -12 4 -18q0 -9 -7.5 -16t-16.5 -7h-56q-20 0 -32.5 10t-24.5 35l-139 267q-4 8 -4 20z" />
<glyph unicode="&#xda;" horiz-adv-x="1220" d="M236 369q0 68 14 151l160 914q9 41 39 41h139q26 0 26 -27q0 -2 -1 -7.5t-1 -8.5l-157 -906q-17 -108 -17 -143q0 -113 53.5 -168t151.5 -55q129 0 204.5 79t110.5 281l160 914q6 41 41 41h135q27 0 27 -27q0 -12 -2 -18l-162 -936q-17 -99 -42.5 -175.5t-67 -142 t-98 -108.5t-136 -67t-180.5 -24q-196 0 -296.5 107.5t-100.5 284.5zM813 1653q0 6 8 22l176 281q18 31 52 31h114q27 0 27 -25q0 -17 -10 -27l-213 -262q-15 -18 -21.5 -24.5t-19 -12.5t-29.5 -6h-68q-8 0 -12.5 6.5t-3.5 16.5z" />
<glyph unicode="&#xdb;" horiz-adv-x="1220" d="M236 369q0 68 14 151l160 914q9 41 39 41h139q26 0 26 -27q0 -2 -1 -7.5t-1 -8.5l-157 -906q-17 -108 -17 -143q0 -113 53.5 -168t151.5 -55q129 0 204.5 79t110.5 281l160 914q6 41 41 41h135q27 0 27 -27q0 -12 -2 -18l-162 -936q-17 -99 -42.5 -175.5t-67 -142 t-98 -108.5t-136 -67t-180.5 -24q-196 0 -296.5 107.5t-100.5 284.5zM618 1649q0 12 11 26l211 279q25 33 59 33h84q35 0 45 -33l117 -283q2 -6 2 -18q-2 -9 -9 -16t-16 -7h-43q-35 0 -55 35l-96 174l-164 -174q-18 -21 -34 -28t-40 -7h-53q-19 0 -19 19z" />
<glyph unicode="&#xdc;" horiz-adv-x="1220" d="M236 369q0 68 14 151l160 914q9 41 39 41h139q26 0 26 -27q0 -2 -1 -7.5t-1 -8.5l-157 -906q-17 -108 -17 -143q0 -113 53.5 -168t151.5 -55q129 0 204.5 79t110.5 281l160 914q6 41 41 41h135q27 0 27 -27q0 -12 -2 -18l-162 -936q-17 -99 -42.5 -175.5t-67 -142 t-98 -108.5t-136 -67t-180.5 -24q-196 0 -296.5 107.5t-100.5 284.5zM608 1731q0 50 35 81t92 31q46 0 75.5 -27t29.5 -71q0 -54 -35.5 -85.5t-91.5 -31.5q-48 0 -76.5 29t-28.5 74zM965 1731q0 49 35.5 80.5t91.5 31.5q47 0 76.5 -27t29.5 -71q0 -54 -36.5 -85.5 t-90.5 -31.5q-49 0 -77.5 29t-28.5 74z" />
<glyph unicode="&#xdd;" horiz-adv-x="915" d="M266 1444q2 14 11 22.5t22 8.5h129q11 0 17.5 -1t14.5 -10t11 -26l98 -432l29 -142l76 146l260 430q20 35 63 35h133q25 0 25 -27q0 -11 -8 -27l-475 -751l-111 -629q-6 -41 -33 -41h-143q-23 0 -23 25q0 2 1.5 8t1.5 8l112 627l-207 755q-4 8 -4 21zM662 1653q0 6 8 22 l176 281q18 31 51 31h115q26 0 26 -25q0 -17 -10 -27l-213 -262q-15 -18 -21.5 -24.5t-19 -12.5t-29.5 -6h-67q-8 0 -12.5 6.5t-3.5 16.5z" />
<glyph unicode="&#xde;" horiz-adv-x="983" d="M164 29q0 1 1 5.5t1 6.5l242 1395q4 24 16 31.5t33 7.5h123q30 0 30 -33v-15l-41 -225h74q430 0 430 -368q0 -272 -146 -428t-421 -156q-15 0 -55.5 1t-47.5 1l-34 -209q-6 -43 -39 -43h-140q-26 0 -26 29zM434 428h86q90 0 157 30t106.5 84t58 123.5t18.5 155.5 q0 107 -53.5 154t-167.5 47q-15 0 -102 -6z" />
<glyph unicode="&#xdf;" horiz-adv-x="1024" d="M121 25q0 10 2 16l141 872h-100q-25 0 -25 27q0 1 1 4t1 4l17 96q6 37 35 37h100l4 39q34 244 159 360.5t312 116.5q139 0 221 -64.5t82 -184.5q0 -72 -22.5 -139.5t-56 -117t-73 -99.5t-73 -88t-56 -81t-22.5 -80q0 -40 24 -69.5t85 -75.5q157 -121 157 -270 q0 -168 -103 -259.5t-280 -91.5q-54 0 -122 17.5t-117 44.5q-19 13 -19 27q1 5 8 26l39 88q11 25 31 25q13 0 29 -8q88 -45 174 -45q82 0 125 39.5t43 117.5q0 43 -27 75.5t-94 80.5q-76 52 -114 106t-38 131q0 74 30.5 142.5t73.5 122.5t86.5 106t74 113.5t30.5 124.5 q0 110 -123 110q-103 0 -163 -76t-89 -249l-172 -1053q-6 -43 -32 -43h-140q-24 0 -24 25z" />
<glyph unicode="&#xe0;" horiz-adv-x="993" d="M168 383q0 145 29 275t83 230t137 159t185 59q81 0 136.5 -37t82.5 -104l33 77q14 41 47 41h94q9 0 18 -7t9 -19v-8l-148 -820q-6 -18 -6 -51q0 -41 33 -41h8q32 0 29 -33l-12 -65q-7 -53 -105 -53q-60 2 -102.5 36.5t-46.5 104.5q-87 -150 -240 -150q-264 0 -264 406z M367 399q0 -260 127 -260q50 0 104.5 41t95.5 131l90 492q-13 68 -52 104.5t-91 36.5q-63 0 -113 -41.5t-79 -102.5t-48.5 -138.5t-26.5 -142t-7 -120.5zM451 1571q0 24 26 24h109q31 0 43 -30l98 -285q4 -12 4 -18q0 -9 -7.5 -16t-16.5 -7h-56q-20 0 -32.5 10t-24.5 35 l-139 266q-4 8 -4 21z" />
<glyph unicode="&#xe1;" horiz-adv-x="1003" d="M168 383q0 145 29 275t83 230t137 159t185 59q81 0 136.5 -37t82.5 -104l33 77q14 41 47 41h94q9 0 18 -7t9 -19v-8l-148 -820q-6 -18 -6 -51q0 -41 33 -41h8q32 0 29 -33l-12 -65q-7 -53 -105 -53q-60 2 -102.5 36.5t-46.5 104.5q-87 -150 -240 -150q-264 0 -264 406z M367 399q0 -260 127 -260q50 0 104.5 41t95.5 131l90 492q-13 68 -52 104.5t-91 36.5q-63 0 -113 -41.5t-79 -102.5t-48.5 -138.5t-26.5 -142t-7 -120.5zM655 1262q0 4 9 22l176 281q17 30 51 30h115q26 0 26 -24q0 -17 -10 -27l-213 -262q-15 -18 -21.5 -24.5t-19 -12.5 t-29.5 -6h-67q-8 0 -13 6.5t-4 16.5z" />
<glyph unicode="&#xe2;" horiz-adv-x="993" d="M168 383q0 145 29 275t83 230t137 159t185 59q81 0 136.5 -37t82.5 -104l33 77q14 41 47 41h94q9 0 18 -7t9 -19v-8l-148 -820q-6 -18 -6 -51q0 -41 33 -41h8q32 0 29 -33l-12 -65q-7 -53 -105 -53q-60 2 -102.5 36.5t-46.5 104.5q-87 -150 -240 -150q-264 0 -264 406z M367 399q0 -260 127 -260q50 0 104.5 41t95.5 131l90 492q-13 68 -52 104.5t-91 36.5q-63 0 -113 -41.5t-79 -102.5t-48.5 -138.5t-26.5 -142t-7 -120.5zM422 1257q0 15 10 27l211 279q24 32 59 32h84q35 0 45 -32l117 -283q2 -6 2 -18q-2 -9 -8.5 -16t-15.5 -7h-43 q-36 0 -56 35l-96 174l-164 -174q-18 -21 -33.5 -28t-39.5 -7h-54q-18 0 -18 18z" />
<glyph unicode="&#xe3;" horiz-adv-x="993" d="M168 383q0 145 29 275t83 230t137 159t185 59q81 0 136.5 -37t82.5 -104l33 77q14 41 47 41h94q9 0 18 -7t9 -19v-8l-148 -820q-6 -18 -6 -51q0 -41 33 -41h8q32 0 29 -33l-12 -65q-7 -53 -105 -53q-60 2 -102.5 36.5t-46.5 104.5q-87 -150 -240 -150q-264 0 -264 406z M367 399q0 -260 127 -260q50 0 104.5 41t95.5 131l90 492q-13 68 -52 104.5t-91 36.5q-63 0 -113 -41.5t-79 -102.5t-48.5 -138.5t-26.5 -142t-7 -120.5zM410 1268q2 80 54 150.5t142 70.5q43 0 82.5 -22.5t71.5 -45t55 -22.5q44 0 68 67q9 31 32 31h64q12 0 18.5 -9 t6.5 -20q0 -80 -54 -149.5t-133 -69.5q-47 0 -90.5 22.5t-77.5 45t-57 22.5q-22 0 -37 -16t-27 -55q-14 -29 -36 -29h-58q-10 0 -17 8t-7 21z" />
<glyph unicode="&#xe4;" horiz-adv-x="993" d="M168 383q0 145 29 275t83 230t137 159t185 59q81 0 136.5 -37t82.5 -104l33 77q14 41 47 41h94q9 0 18 -7t9 -19v-8l-148 -820q-6 -18 -6 -51q0 -41 33 -41h8q32 0 29 -33l-12 -65q-7 -53 -105 -53q-60 2 -102.5 36.5t-46.5 104.5q-87 -150 -240 -150q-264 0 -264 406z M367 399q0 -260 127 -260q50 0 104.5 41t95.5 131l90 492q-13 68 -52 104.5t-91 36.5q-63 0 -113 -41.5t-79 -102.5t-48.5 -138.5t-26.5 -142t-7 -120.5zM412 1339q0 50 35 81.5t92 31.5q46 0 75 -27t29 -71q0 -54 -35.5 -85.5t-91.5 -31.5q-48 0 -76 28.5t-28 73.5z M768 1339q0 49 35.5 81t91.5 32q47 0 76.5 -27t29.5 -71q0 -54 -36.5 -85.5t-90.5 -31.5q-49 0 -77.5 28.5t-28.5 73.5z" />
<glyph unicode="&#xe5;" horiz-adv-x="993" d="M168 383q0 145 29 275t83 230t137 159t185 59q81 0 136.5 -37t82.5 -104l33 77q14 41 47 41h94q9 0 18 -7t9 -19v-8l-148 -820q-6 -18 -6 -51q0 -41 33 -41h8q32 0 29 -33l-12 -65q-7 -53 -105 -53q-60 2 -102.5 36.5t-46.5 104.5q-87 -150 -240 -150q-264 0 -264 406z M367 399q0 -260 127 -260q50 0 104.5 41t95.5 131l90 492q-13 68 -52 104.5t-91 36.5q-63 0 -113 -41.5t-79 -102.5t-48.5 -138.5t-26.5 -142t-7 -120.5zM541 1409q2 95 55 165.5t141 70.5q62 0 98.5 -49t36.5 -126q-2 -91 -53.5 -161t-140.5 -70q-62 0 -100 47.5t-37 122.5 zM643 1419q0 -30 12.5 -48.5t36.5 -18.5q33 0 54.5 30.5t21.5 75.5q3 74 -47 74q-35 0 -55.5 -33.5t-22.5 -79.5z" />
<glyph unicode="&#xe6;" horiz-adv-x="1429" d="M102 258q0 101 35 174.5t99 116.5t146 63.5t185 20.5h135l9 67q8 62 8 76q0 148 -141 148q-113 0 -242 -52q-15 -6 -29 -6q-17 0 -20 19q0 1 -5.5 21t-11 42.5t-6.5 28.5q-2 8 -2 18q0 21 25 35q60 32 150.5 53t174.5 21q36 0 70 -6t70 -19.5t65.5 -41t46.5 -66.5 q122 135 305 135q134 0 219 -82t85 -248q0 -105 -33 -241q-8 -31 -18.5 -40.5t-39.5 -9.5h-503v-100q2 -108 48.5 -168.5t129.5 -60.5q123 0 225 43q9 6 21 6q17 0 24 -21l27 -96q4 -16 4 -22q-3 -20 -25 -31q-40 -24 -127.5 -41t-171.5 -17q-212 0 -293 183 q-67 -94 -168 -138.5t-190 -44.5q-134 0 -207.5 81.5t-73.5 199.5zM291 268q0 -66 35.5 -97.5t89.5 -31.5q130 0 227 117l35 229h-107q-46 0 -84 -5t-76 -19.5t-63 -38t-41 -63t-16 -91.5zM901 637h371q18 63 18 139q0 72 -32 116t-103 44q-94 0 -157.5 -80.5t-96.5 -218.5z " />
<glyph unicode="&#xe7;" horiz-adv-x="856" d="M168 408q0 114 19.5 217.5t59.5 191t97.5 152t137.5 101t175 36.5q48 0 90 -11t82.5 -36.5t70.5 -73t44 -113.5v-14q0 -20 -22 -31l-84 -34q-2 -2 -23 -2q-20 0 -27 20q-24 69 -57.5 96t-87.5 27q-55 0 -101.5 -32.5t-78 -85t-54 -121t-32.5 -139.5t-10 -140 q0 -126 44 -193t144 -67q97 0 199 41q12 8 26 8q20 0 27 -27l27 -92q0 -5 1 -12l1 -6q0 -20 -27 -35q-87 -45 -229 -53l-23 -78q63 -18 99 -62t36 -110q0 -108 -69.5 -159.5t-180.5 -51.5q-54 0 -114 24q-19 11 -21 27q0 14 4 20l23 45q10 21 26 21q3 0 36.5 -10.5 t58.5 -10.5q36 0 61 18.5t25 59.5q0 58 -99 74q-41 9 -41 41q0 7 5 22l34 136q-123 21 -197.5 120.5t-74.5 301.5z" />
<glyph unicode="&#xe8;" horiz-adv-x="915" d="M166 406q0 109 18 209.5t56.5 190.5t95 156.5t138.5 105t181 38.5q135 0 219 -82t84 -248q0 -109 -32 -241q-8 -31 -18 -40.5t-38 -9.5h-503v-110q3 -104 48.5 -161.5t125.5 -57.5q128 0 227 43q12 6 20 6q18 0 25 -21l27 -96q4 -16 4 -22q-3 -20 -25 -31 q-40 -24 -128.5 -41t-172.5 -17q-72 0 -133.5 24t-111.5 73.5t-78.5 134.5t-28.5 197zM387 637h371q18 63 18 139q0 72 -32 116t-103 44q-180 0 -254 -299zM416 1571q0 24 26 24h109q31 0 43 -30l98 -285q4 -12 4 -18q0 -9 -7.5 -16t-16.5 -7h-56q-20 0 -32.5 10t-24.5 35 l-139 266q-4 8 -4 21z" />
<glyph unicode="&#xe9;" horiz-adv-x="903" d="M166 406q0 109 18 209.5t56.5 190.5t95 156.5t138.5 105t181 38.5q135 0 219 -82t84 -248q0 -109 -32 -241q-8 -31 -18 -40.5t-38 -9.5h-503v-110q3 -104 48.5 -161.5t125.5 -57.5q128 0 227 43q12 6 20 6q18 0 25 -21l27 -96q4 -16 4 -22q-3 -20 -25 -31 q-40 -24 -128.5 -41t-172.5 -17q-72 0 -133.5 24t-111.5 73.5t-78.5 134.5t-28.5 197zM387 637h371q18 63 18 139q0 72 -32 116t-103 44q-180 0 -254 -299zM631 1262q0 6 8 22l176 281q17 30 51 30h115q27 0 27 -24q0 -16 -11 -27l-213 -262q-13 -16 -16 -19t-13 -11.5 t-18.5 -10.5t-21.5 -2h-68q-8 0 -12.5 6.5t-3.5 16.5z" />
<glyph unicode="&#xea;" horiz-adv-x="929" d="M166 406q0 109 18 209.5t56.5 190.5t95 156.5t138.5 105t181 38.5q135 0 219 -82t84 -248q0 -109 -32 -241q-8 -31 -18 -40.5t-38 -9.5h-503v-110q3 -104 48.5 -161.5t125.5 -57.5q128 0 227 43q12 6 20 6q18 0 25 -21l27 -96q4 -16 4 -22q-3 -20 -25 -31 q-40 -24 -128.5 -41t-172.5 -17q-72 0 -133.5 24t-111.5 73.5t-78.5 134.5t-28.5 197zM387 637h371q18 63 18 139q0 72 -32 116t-103 44q-180 0 -254 -299zM399 1257q0 13 11 27l211 279q24 32 59 32h84q35 0 45 -32l117 -283q2 -6 2 -18q-2 -9 -9 -16t-16 -7h-43 q-35 0 -55 35l-96 174l-164 -174q-18 -21 -34 -28t-40 -7h-53q-19 0 -19 18z" />
<glyph unicode="&#xeb;" horiz-adv-x="940" d="M166 406q0 109 18 209.5t56.5 190.5t95 156.5t138.5 105t181 38.5q135 0 219 -82t84 -248q0 -109 -32 -241q-8 -31 -18 -40.5t-38 -9.5h-503v-110q3 -104 48.5 -161.5t125.5 -57.5q128 0 227 43q12 6 20 6q18 0 25 -21l27 -96q4 -16 4 -22q-3 -20 -25 -31 q-40 -24 -128.5 -41t-172.5 -17q-72 0 -133.5 24t-111.5 73.5t-78.5 134.5t-28.5 197zM387 637h371q18 63 18 139q0 72 -32 116t-103 44q-180 0 -254 -299zM393 1339q0 50 35 81.5t92 31.5q46 0 75.5 -27t29.5 -71q0 -54 -35.5 -85.5t-91.5 -31.5q-49 0 -77 28.5t-28 73.5z M750 1339q0 49 35.5 81t91.5 32q47 0 76.5 -27t29.5 -71q0 -54 -36.5 -85.5t-90.5 -31.5q-49 0 -77.5 28.5t-28.5 73.5z" />
<glyph unicode="&#xec;" horiz-adv-x="475" d="M125 23q-3 8 0 24l178 995q7 41 51 41h117q13 0 22 -9t9 -23q0 -2 -1 -8.5t-1 -8.5l-178 -997q-8 -37 -48 -37h-116q-30 0 -33 23zM190 1571q0 9 6.5 16.5t20.5 7.5h109q31 0 43 -30l98 -285q4 -12 4 -18q0 -9 -8 -16t-17 -7h-55q-20 0 -32.5 10t-24.5 35l-139 266 q-5 10 -5 21z" />
<glyph unicode="&#xed;" horiz-adv-x="438" d="M166 23q-3 8 0 24l178 995q7 41 51 41h117q13 0 22 -9t9 -23q0 -2 -1 -8.5t-1 -8.5l-179 -997q-8 -37 -47 -37h-116q-30 0 -33 23zM406 1262q0 6 8 22l176 281q17 30 51 30h115q26 0 26 -24q0 -17 -10 -27l-213 -262q-15 -18 -21.5 -24.5t-19 -12.5t-29.5 -6h-67 q-8 0 -12.5 6.5t-3.5 16.5z" />
<glyph unicode="&#xee;" horiz-adv-x="397" d="M152 23q-3 8 0 24l178 995q7 41 51 41h117q13 0 21.5 -9t8.5 -23q0 -2 -1 -8.5t-1 -8.5l-178 -997q-8 -37 -47 -37h-117q-29 0 -32 23zM190 1257q0 13 11 27l211 279q24 32 59 32h84q35 0 45 -32l117 -283q2 -6 2 -18q-2 -9 -9 -16t-16 -7h-43q-35 0 -55 35l-96 174 l-164 -174q-18 -21 -34 -28t-40 -7h-53q-19 0 -19 18z" />
<glyph unicode="&#xef;" horiz-adv-x="501" d="M166 23q-3 8 0 24l178 995q7 41 51 41h117q13 0 22 -9t9 -23q0 -2 -1 -8.5t-1 -8.5l-179 -997q-8 -37 -47 -37h-116q-30 0 -33 23zM193 1339q0 50 34.5 81.5t91.5 31.5q46 0 75.5 -27t29.5 -71q0 -54 -35.5 -85.5t-91.5 -31.5q-48 0 -76 28.5t-28 73.5zM549 1339 q0 49 35.5 81t91.5 32q47 0 76.5 -27t29.5 -71q0 -54 -36.5 -85.5t-90.5 -31.5q-49 0 -77.5 28.5t-28.5 73.5z" />
<glyph unicode="&#xf0;" horiz-adv-x="942" d="M154 375q0 77 14.5 155.5t48 156t81.5 136.5t121 96t161 37q158 0 204 -112q-10 179 -129 364l-202 -71q-11 -7 -29 -7q-22 0 -27 19l-12 41q-2 4 -2 16q0 22 20 29l183 61q-7 10 -39.5 46.5t-44.5 48.5q-37 34 -37 55q0 11 7.5 20t16.5 9h136q51 0 84 -29 q1 -1 12.5 -13.5t29 -32t29.5 -34.5l154 55q9 6 27 6q19 0 24 -14l14 -43q5 -8 5 -20q0 -20 -21 -29l-141 -47q60 -96 95.5 -224t35.5 -264q0 -79 -12 -165.5t-36.5 -178.5t-66.5 -174t-97 -148t-134 -104.5t-172 -38.5q-138 0 -219.5 102.5t-81.5 295.5zM344 379 q0 -108 36.5 -171t100.5 -63q63 0 117.5 58.5t88 145t53 168t24.5 145.5q0 2 -5 13.5t-17.5 30t-30.5 36t-48 30t-65 12.5q-71 0 -123 -38.5t-79 -102t-39.5 -129.5t-12.5 -135z" />
<glyph unicode="&#xf1;" horiz-adv-x="1030" d="M162 31q0 6 2 14l178 999q6 39 43 39h88q33 0 33 -47l4 -86q101 156 276 156q110 0 175 -77t65 -230q0 -56 -14 -142l-111 -620q-8 -37 -47 -37h-117q-32 0 -32 33q0 12 2 22l110 609q14 86 14 118q0 162 -118 162q-63 0 -122 -42.5t-102 -131.5l-131 -733 q-7 -37 -43 -37h-122q-11 0 -21 7.5t-10 23.5zM465 1268q2 80 54.5 150.5t142.5 70.5q34 0 66.5 -14t53 -31t45 -31t43.5 -14q44 0 68 67q9 31 33 31h63q12 0 18.5 -9t6.5 -20q0 -80 -54 -149.5t-133 -69.5q-47 0 -90.5 22.5t-77.5 45t-57 22.5q-22 0 -36.5 -16t-26.5 -55 q-14 -29 -37 -29h-58q-10 0 -17 8t-7 21z" />
<glyph unicode="&#xf2;" horiz-adv-x="942" d="M162 377q0 347 133.5 538t363.5 191q145 0 227.5 -104.5t82.5 -299.5q0 -352 -135 -538.5t-365 -186.5q-135 0 -221 102t-86 298zM360 401q0 -40 1.5 -69t9.5 -68.5t21.5 -65t40 -43.5t63.5 -18q71 0 126 53.5t86 138t46.5 175.5t15.5 180q0 61 -5.5 105t-20 80.5 t-42.5 55.5t-69 19q-74 0 -130 -57.5t-85.5 -146.5t-43.5 -175.5t-14 -163.5zM430 1571q0 9 6.5 16.5t20.5 7.5h108q31 0 43 -30l99 -285q4 -12 4 -18q0 -9 -8 -16t-17 -7h-55q-20 0 -33 10t-25 35l-139 266q-4 8 -4 21z" />
<glyph unicode="&#xf3;" horiz-adv-x="948" d="M162 377q0 347 133.5 538t363.5 191q145 0 227.5 -104.5t82.5 -299.5q0 -352 -135 -538.5t-365 -186.5q-135 0 -221 102t-86 298zM360 401q0 -40 1.5 -69t9.5 -68.5t21.5 -65t40 -43.5t63.5 -18q71 0 126 53.5t86 138t46.5 175.5t15.5 180q0 61 -5.5 105t-20 80.5 t-42.5 55.5t-69 19q-74 0 -130 -57.5t-85.5 -146.5t-43.5 -175.5t-14 -163.5zM598 1262q0 6 8 22l176 281q17 30 52 30h114q27 0 27 -24q0 -17 -10 -27l-213 -262q-15 -18 -21.5 -24.5t-19 -12.5t-29.5 -6h-68q-8 0 -12.5 6.5t-3.5 16.5z" />
<glyph unicode="&#xf4;" horiz-adv-x="942" d="M162 377q0 347 133.5 538t363.5 191q145 0 227.5 -104.5t82.5 -299.5q0 -352 -135 -538.5t-365 -186.5q-135 0 -221 102t-86 298zM360 401q0 -40 1.5 -69t9.5 -68.5t21.5 -65t40 -43.5t63.5 -18q71 0 126 53.5t86 138t46.5 175.5t15.5 180q0 61 -5.5 105t-20 80.5 t-42.5 55.5t-69 19q-74 0 -130 -57.5t-85.5 -146.5t-43.5 -175.5t-14 -163.5zM395 1257q0 13 11 27l210 279q24 32 60 32h84q35 0 45 -32l117 -283q2 -6 2 -18q-2 -9 -9 -16t-16 -7h-43q-35 0 -55 35l-96 174l-164 -174q-18 -21 -34 -28t-40 -7h-53q-19 0 -19 18z" />
<glyph unicode="&#xf5;" horiz-adv-x="962" d="M162 377q0 347 133.5 538t363.5 191q145 0 227.5 -104.5t82.5 -299.5q0 -352 -135 -538.5t-365 -186.5q-135 0 -221 102t-86 298zM360 401q0 -40 1.5 -69t9.5 -68.5t21.5 -65t40 -43.5t63.5 -18q71 0 126 53.5t86 138t46.5 175.5t15.5 180q0 61 -5.5 105t-20 80.5 t-42.5 55.5t-69 19q-74 0 -130 -57.5t-85.5 -146.5t-43.5 -175.5t-14 -163.5zM360 1268q2 80 54.5 150.5t142.5 70.5q43 0 82.5 -22.5t71.5 -45t55 -22.5q44 0 68 67q9 31 32 31h64q24 0 24 -29q0 -80 -53.5 -149.5t-132.5 -69.5q-47 0 -90.5 22.5t-77.5 45t-57 22.5 q-22 0 -37 -16t-27 -55q-15 -29 -37 -29h-57q-10 0 -17.5 8t-7.5 21z" />
<glyph unicode="&#xf6;" horiz-adv-x="942" d="M162 377q0 347 133.5 538t363.5 191q145 0 227.5 -104.5t82.5 -299.5q0 -352 -135 -538.5t-365 -186.5q-135 0 -221 102t-86 298zM360 401q0 -40 1.5 -69t9.5 -68.5t21.5 -65t40 -43.5t63.5 -18q71 0 126 53.5t86 138t46.5 175.5t15.5 180q0 61 -5.5 105t-20 80.5 t-42.5 55.5t-69 19q-74 0 -130 -57.5t-85.5 -146.5t-43.5 -175.5t-14 -163.5zM375 1339q0 50 35 81.5t92 31.5q46 0 75 -27t29 -71q0 -54 -35.5 -85.5t-91.5 -31.5q-48 0 -76 28.5t-28 73.5zM731 1339q0 49 35.5 81t91.5 32q48 0 77.5 -27t29.5 -71q0 -54 -36.5 -85.5 t-90.5 -31.5q-49 0 -78 28.5t-29 73.5z" />
<glyph unicode="&#xf7;" horiz-adv-x="899" d="M213 543v71q0 41 37 41h606q37 0 37 -41v-69q0 -20 -7.5 -29.5t-29.5 -9.5h-606q-37 0 -37 37zM442 266q0 53 31 89t78 36q49 0 80 -36t31 -89q0 -52 -31 -86.5t-80 -34.5q-46 0 -77.5 35t-31.5 86zM442 905q0 52 31 88.5t78 36.5q49 0 80 -36.5t31 -88.5q0 -53 -31 -88 t-80 -35q-46 0 -77.5 35.5t-31.5 87.5z" />
<glyph unicode="&#xf8;" horiz-adv-x="958" d="M162 -43q0 8 6 20l74 132q-62 105 -62 268q0 347 133.5 538t362.5 191q58 0 119 -23l30 54q12 22 23 30.5t31 8.5h82q9 0 16.5 -7.5t7.5 -19.5q0 -11 -8 -23l-72 -127q80 -107 80 -297q0 -352 -134.5 -538.5t-363.5 -186.5q-79 0 -141 35l-24 -45q-13 -21 -25 -30t-31 -9 h-80q-10 0 -17 9t-7 20zM373 422q0 -59 2 -88l338 596q-28 14 -60 14q-73 0 -129 -53t-87 -136t-46.5 -168t-17.5 -165zM432 164q30 -27 80 -27q73 0 130 53t89 137.5t48 175.5t16 179q0 64 -9 111z" />
<glyph unicode="&#xf9;" horiz-adv-x="1030" d="M195 283q0 46 8 108l119 653q7 39 47 39h116q33 0 33 -39l-115 -641q-12 -55 -12 -118q0 -144 109 -144q144 0 225 166l133 737q7 39 45 39h123q29 0 29 -28v-11l-181 -1007q-7 -37 -45 -37h-77q-33 0 -37 37l-8 96q-35 -62 -104.5 -109t-162.5 -47q-128 0 -186.5 81.5 t-58.5 224.5zM483 1571q0 9 6.5 16.5t20.5 7.5h108q32 0 44 -30l98 -285q4 -12 4 -18q0 -9 -8 -16t-17 -7h-55q-20 0 -32.5 10t-24.5 35l-140 266q-4 8 -4 21z" />
<glyph unicode="&#xfa;" horiz-adv-x="1030" d="M195 283q0 46 8 108l119 653q7 39 47 39h116q33 0 33 -39l-115 -641q-12 -55 -12 -118q0 -144 109 -144q144 0 225 166l133 737q7 39 45 39h123q29 0 29 -28v-11l-181 -1007q-7 -37 -45 -37h-77q-33 0 -37 37l-8 96q-35 -62 -104.5 -109t-162.5 -47q-128 0 -186.5 81.5 t-58.5 224.5zM651 1262q0 6 8 22l177 281q17 30 51 30h114q27 0 27 -24q0 -17 -10 -27l-213 -262q-15 -18 -21.5 -24.5t-19 -12.5t-29.5 -6h-67q-8 0 -13 6.5t-4 16.5z" />
<glyph unicode="&#xfb;" horiz-adv-x="1030" d="M195 283q0 46 8 108l119 653q7 39 47 39h116q33 0 33 -39l-115 -641q-12 -55 -12 -118q0 -144 109 -144q144 0 225 166l133 737q7 39 45 39h123q29 0 29 -28v-11l-181 -1007q-7 -37 -45 -37h-77q-33 0 -37 37l-8 96q-35 -62 -104.5 -109t-162.5 -47q-128 0 -186.5 81.5 t-58.5 224.5zM451 1257q0 15 10 27l211 279q24 32 59 32h84q35 0 45 -32l117 -283q2 -6 2 -18q-2 -9 -9 -16t-16 -7h-43q-35 0 -55 35l-96 174l-164 -174q-18 -21 -34 -28t-40 -7h-53q-18 0 -18 18z" />
<glyph unicode="&#xfc;" horiz-adv-x="1030" d="M195 283q0 46 8 108l119 653q7 39 47 39h116q33 0 33 -39l-115 -641q-12 -55 -12 -118q0 -144 109 -144q144 0 225 166l133 737q7 39 45 39h123q29 0 29 -28v-11l-181 -1007q-7 -37 -45 -37h-77q-33 0 -37 37l-8 96q-35 -62 -104.5 -109t-162.5 -47q-128 0 -186.5 81.5 t-58.5 224.5zM428 1339q0 50 35 81.5t92 31.5q46 0 75 -27t29 -71q0 -54 -35.5 -85.5t-91.5 -31.5q-48 0 -76 28.5t-28 73.5zM784 1339q0 49 35.5 81t91.5 32q48 0 77.5 -27t29.5 -71q0 -54 -36.5 -85.5t-90.5 -31.5q-49 0 -78 28.5t-29 73.5z" />
<glyph unicode="&#xfd;" horiz-adv-x="714" d="M-113 -344q0 12 7 29l32 75q13 29 37 29q3 0 44.5 -13.5t76.5 -13.5q104 0 180 162l33 76q-45 2 -80 34.5t-41 96.5l-78 913q0 39 27 39h133q14 0 22 -7.5t11 -28.5l45 -656l12 -254l96 248l84 217q57 147 80.5 225t24.5 150q0 13 -1 36t-1 31q0 39 31 39h118 q30 0 37 -39q6 -42 6 -61q-1 -87 -19 -149.5t-89 -249.5l-256 -666q-67 -177 -162.5 -252.5t-218.5 -75.5q-43 0 -94 9.5t-78 25.5q-19 13 -19 31zM440 1262q0 4 9 22l176 281q17 30 51 30h115q26 0 26 -24q0 -17 -10 -27l-213 -262q-15 -18 -21.5 -24.5t-19 -12.5t-29.5 -6 h-67q-8 0 -13 6.5t-4 16.5z" />
<glyph unicode="&#xfe;" horiz-adv-x="997" d="M88 -367l328 1831q8 46 49 52l108 26q2 0 9 1t8 1q34 0 31 -33l-99 -542q54 79 114 108t130 29q50 0 92 -19t80.5 -63.5t60 -129.5t21.5 -204q0 -165 -35.5 -301.5t-95.5 -225.5t-137.5 -137.5t-163.5 -48.5q-77 0 -130 31t-87 101l-86 -482q-3 -16 -16 -26.5t-27 -10.5 h-121q-33 0 -33 29v14zM399 276q35 -137 146 -137q68 0 122.5 48.5t87 129t49.5 176t17 197.5q0 252 -125 252q-127 0 -207 -174z" />
<glyph unicode="&#xff;" horiz-adv-x="714" d="M-113 -344q0 12 7 29l32 75q13 29 37 29q3 0 44.5 -13.5t76.5 -13.5q104 0 180 162l33 76q-45 2 -80 34.5t-41 96.5l-78 913q0 39 27 39h133q14 0 22 -7.5t11 -28.5l45 -656l12 -254l96 248l84 217q57 147 80.5 225t24.5 150q0 13 -1 36t-1 31q0 39 31 39h118 q30 0 37 -39q6 -42 6 -61q-1 -87 -19 -149.5t-89 -249.5l-256 -666q-67 -177 -162.5 -252.5t-218.5 -75.5q-43 0 -94 9.5t-78 25.5q-19 13 -19 31zM176 1339q0 50 35 81.5t92 31.5q46 0 75.5 -27t29.5 -71q0 -54 -35.5 -85.5t-91.5 -31.5q-49 0 -77 28.5t-28 73.5zM532 1339 q0 49 35.5 81t91.5 32q48 0 77.5 -27t29.5 -71q0 -54 -36.5 -85.5t-90.5 -31.5q-49 0 -78 28.5t-29 73.5z" />
<glyph unicode="&#x152;" horiz-adv-x="1523" d="M190 545q0 158 28.5 299t84.5 256.5t135.5 199t185.5 129.5t230 46h811q35 0 35 -33v-10l-19 -103q-6 -37 -47 -37h-422l-71 -411h338q34 0 34 -27l-2 -18l-18 -95q-7 -41 -47 -41h-338l-92 -518h454q35 0 35 -26q0 -9 -2 -19l-18 -96q-7 -41 -43 -41h-834 q-62 0 -118.5 15.5t-112.5 55t-96.5 99.5t-65.5 156.5t-25 218.5zM401 547q0 -365 238 -365h174q0 2 18.5 107.5t68.5 396.5t104 606h-154q-106 0 -192.5 -62.5t-141.5 -167.5t-85 -237.5t-30 -277.5z" />
<glyph unicode="&#x153;" horiz-adv-x="1501" d="M162 377q0 347 133.5 538t363.5 191q186 0 252 -180q116 180 328 180q135 0 220 -82t85 -248q0 -105 -33 -241q-8 -31 -18 -40.5t-39 -9.5h-504q0 -90 4 -123q4 -99 49.5 -152.5t122.5 -53.5q126 0 228 43q9 6 20 6q18 0 25 -21l26 -96q2 -8 2 -22q0 -20 -22 -31 q-40 -23 -129 -40.5t-172 -17.5q-100 0 -175 47t-112 142q-122 -189 -348 -189q-135 0 -221 102t-86 298zM360 401q0 -40 1.5 -69t9.5 -68.5t21.5 -65t40 -43.5t63.5 -18q71 0 126 53.5t86 138t46.5 175.5t15.5 180q0 61 -5.5 105t-20 80.5t-42.5 55.5t-69 19 q-74 0 -130 -57.5t-85.5 -146.5t-43.5 -175.5t-14 -163.5zM973 637h370q17 59 17 139q0 160 -133 160q-94 0 -157.5 -80.5t-96.5 -218.5z" />
<glyph unicode="&#x178;" horiz-adv-x="915" d="M266 1444q2 14 11 22.5t22 8.5h129q11 0 17.5 -1t14.5 -10t11 -26l98 -432l29 -142l76 146l260 430q20 35 63 35h133q25 0 25 -27q0 -11 -8 -27l-475 -751l-111 -629q-6 -41 -33 -41h-143q-23 0 -23 25q0 2 1.5 8t1.5 8l112 627l-207 755q-4 8 -4 21zM442 1731 q0 50 35 81t92 31q46 0 75.5 -27t29.5 -71q0 -54 -35.5 -85.5t-91.5 -31.5q-48 0 -76.5 29t-28.5 74zM799 1731q0 49 35.5 80.5t91.5 31.5q47 0 76.5 -27t29.5 -71q0 -54 -36.5 -85.5t-90.5 -31.5q-49 0 -77.5 29t-28.5 74z" />
<glyph unicode="&#x2c6;" horiz-adv-x="720" d="M319 1257q0 13 11 27l211 279q24 32 59 32h84q35 0 45 -32l117 -283q2 -6 2 -18q-2 -9 -9 -16t-16 -7h-43q-35 0 -55 35l-96 174l-164 -174q-18 -21 -34 -28t-40 -7h-53q-19 0 -19 18z" />
<glyph unicode="&#x2dc;" horiz-adv-x="753" d="M319 1268q2 80 54.5 150.5t142.5 70.5q43 0 82.5 -22.5t71.5 -45t55 -22.5q44 0 68 67q9 31 32 31h64q24 0 24 -29q0 -80 -53.5 -149.5t-132.5 -69.5q-47 0 -90.5 22.5t-77.5 45t-57 22.5q-22 0 -37 -16t-27 -55q-14 -29 -37 -29h-57q-10 0 -17.5 8t-7.5 21z" />
<glyph unicode="&#x2000;" horiz-adv-x="1018" />
<glyph unicode="&#x2001;" horiz-adv-x="2036" />
<glyph unicode="&#x2002;" horiz-adv-x="1018" />
<glyph unicode="&#x2003;" horiz-adv-x="2036" />
<glyph unicode="&#x2004;" horiz-adv-x="678" />
<glyph unicode="&#x2005;" horiz-adv-x="509" />
<glyph unicode="&#x2006;" horiz-adv-x="339" />
<glyph unicode="&#x2007;" horiz-adv-x="339" />
<glyph unicode="&#x2008;" horiz-adv-x="254" />
<glyph unicode="&#x2009;" horiz-adv-x="407" />
<glyph unicode="&#x200a;" horiz-adv-x="113" />
<glyph unicode="&#x2010;" horiz-adv-x="686" d="M199 528v17l16 88q7 37 41 37h412q28 0 28 -27l-2 -20l-14 -84q-6 -37 -43 -37h-408q-30 0 -30 26z" />
<glyph unicode="&#x2011;" horiz-adv-x="686" d="M199 528v17l16 88q7 37 41 37h412q28 0 28 -27l-2 -20l-14 -84q-6 -37 -43 -37h-408q-30 0 -30 26z" />
<glyph unicode="&#x2012;" horiz-adv-x="686" d="M199 528v17l16 88q7 37 41 37h412q28 0 28 -27l-2 -20l-14 -84q-6 -37 -43 -37h-408q-30 0 -30 26z" />
<glyph unicode="&#x2013;" horiz-adv-x="1079" d="M199 528v17l16 88q7 37 41 37h807q27 0 27 -27v-20l-15 -84q-6 -37 -43 -37h-803q-30 0 -30 26z" />
<glyph unicode="&#x2014;" horiz-adv-x="1777" d="M199 528v17l16 88q7 37 41 37h1505q27 0 27 -27v-20l-14 -84q-6 -37 -43 -37h-1502q-30 0 -30 26z" />
<glyph unicode="&#x2018;" horiz-adv-x="374" d="M225 1161q3 13 13 31l188 319q23 43 70 43h53q29 0 26 -28q0 -9 -8 -25l-137 -327q-7 -18 -17.5 -27.5t-18.5 -11.5t-21 -2h-121q-16 0 -23 8.5t-4 19.5z" />
<glyph unicode="&#x2019;" horiz-adv-x="372" d="M227 1161q0 7 9 25l137 325q17 43 57 43h123q14 0 20.5 -8t4.5 -20q0 -8 -13 -31l-188 -319q-23 -43 -70 -43h-53q-13 0 -21 8t-6 20z" />
<glyph unicode="&#x201a;" horiz-adv-x="350" d="M-8 -170q0 11 4 23l115 327q17 41 57 41h121q32 0 28 -28q0 -12 -8 -31l-172 -320q-23 -43 -67 -43h-52q-30 0 -26 31z" />
<glyph unicode="&#x201c;" horiz-adv-x="659" d="M225 1161q2 10 11 31l170 319q21 43 67 43h51q29 0 29 -28q0 -7 -6 -25l-117 -327q-6 -18 -16 -27.5t-18 -11.5t-21 -2h-121q-14 0 -22.5 8.5t-6.5 19.5zM537 1161q0 13 10 31l170 319q21 43 67 43h52q28 0 28 -28q0 -7 -6 -25l-117 -327q-6 -18 -16 -27.5t-18 -11.5 t-21 -2h-121q-32 0 -28 28z" />
<glyph unicode="&#x201d;" horiz-adv-x="657" d="M225 1161q0 13 6 25l115 325q7 19 17.5 29t18.5 12t21 2h121q14 0 22.5 -8.5t6.5 -19.5q-4 -21 -10 -31l-170 -319q-23 -43 -68 -43h-51q-29 0 -29 28zM537 1161q0 13 4 25l116 325q7 19 17.5 29t19 12t21.5 2h119q30 0 30 -28q-4 -21 -10 -31l-170 -319q-23 -43 -68 -43 h-51q-28 0 -28 28z" />
<glyph unicode="&#x201e;" horiz-adv-x="651" d="M-8 -170q0 11 4 23l115 327q17 41 57 41h121q32 0 28 -28q0 -12 -8 -31l-172 -320q-23 -43 -67 -43h-52q-30 0 -26 31zM293 -170q0 11 4 23l117 327q15 41 55 41h121q32 0 28 -28q0 -17 -8 -31l-172 -320q-21 -43 -65 -43h-51q-33 0 -29 31z" />
<glyph unicode="&#x2022;" horiz-adv-x="661" d="M180 596q0 104 71.5 178t174.5 74q102 0 175 -74t73 -178q0 -102 -73 -174t-175 -72q-103 0 -174.5 71.5t-71.5 174.5z" />
<glyph unicode="&#x2026;" horiz-adv-x="1282" d="M104 92q0 58 36.5 96.5t92.5 38.5q52 0 80.5 -34t28.5 -93q0 -58 -37 -94.5t-90 -36.5q-50 0 -79.5 34t-31.5 89zM541 92q-1 58 35.5 96.5t93.5 38.5q51 0 79.5 -34t28.5 -93q0 -57 -37.5 -94t-91.5 -37q-50 0 -79 34t-29 89zM973 92q-1 58 35.5 96.5t93.5 38.5 q51 0 79.5 -34t28.5 -93q0 -57 -37.5 -94t-91.5 -37q-50 0 -78 34t-30 89z" />
<glyph unicode="&#x202f;" horiz-adv-x="407" />
<glyph unicode="&#x2039;" horiz-adv-x="692" d="M201 502q0 33 28 69l207 269q19 25 33.5 34t36.5 9h98q8 0 13.5 -6t5.5 -15q0 -10 -11 -26l-221 -328l98 -332q5 -15 5 -22q0 -21 -25 -21h-80q-21 0 -30.5 8.5t-20.5 34.5l-129 289q-8 20 -8 37z" />
<glyph unicode="&#x203a;" horiz-adv-x="561" d="M133 154q0 6 10 26l224 328l-99 332q-4 12 -4 22q0 21 25 21h78q21 0 31.5 -9t21.5 -34l127 -289q8 -20 8 -37q0 -30 -27 -70l-209 -268q-19 -26 -32.5 -34.5t-36.5 -8.5h-96q-8 0 -14.5 6t-6.5 15z" />
<glyph unicode="&#x205f;" horiz-adv-x="509" />
<glyph unicode="&#x20ac;" horiz-adv-x="1069" d="M117 543q0 2 1 6t1 6l14 61q3 21 12 31t29 10h74q8 92 16 140h-65q-33 0 -33 24q0 2 1 6.5t1 6.5l12 59q3 21 12 31t29 10h74q31 117 78.5 213.5t117 177.5t168.5 126.5t218 45.5q142 0 231 -70.5t115 -201.5q2 -6 2 -21q0 -30 -31 -41l-86 -26q-24 -7 -35 -7 q-19 0 -31 29q-28 88 -74.5 120t-107.5 32q-64 0 -119.5 -30.5t-97 -84.5t-72 -119t-53.5 -143h436q11 0 20 -6t9 -17q0 -6 -4 -18l-31 -64q-7 -17 -17 -24.5t-32 -7.5h-416q-13 -63 -20 -140h381q28 0 28 -22q0 -11 -4 -19l-30 -65q-13 -33 -52 -33h-329q1 -75 11.5 -133.5 t34.5 -109t69.5 -78t109.5 -27.5q142 0 281 72q10 6 26 6q22 0 29 -25l31 -102q2 -8 2 -21q0 -26 -31 -41q-160 -82 -367 -82q-402 0 -409 531v10h-92q-35 0 -35 25z" />
<glyph unicode="&#x2122;" horiz-adv-x="1126" d="M184 1380v9l11 61q4 25 22 25h348q19 0 19 -19v-6l-9 -61q-4 -25 -26 -25h-115l-80 -455q-3 -24 -26 -24h-72q-20 0 -20 18v6l81 455h-112q-21 0 -21 16zM543 903q0 1 1 2.5t1 3.5l100 455q16 66 47 90.5t74 24.5q47 0 65.5 -22.5t20.5 -72.5l16 -378l136 380 q20 53 46.5 73t71.5 20q40 0 63 -20.5t23 -61.5q0 -7 -1 -19.5t-1 -13.5l-55 -453q-3 -26 -23 -26h-67q-17 0 -17 18v6l64 496l-145 -395q-16 -41 -41 -60.5t-70 -19.5q-78 0 -78 84l-18 391l-101 -500q-3 -20 -26 -20h-68q-18 0 -18 18z" />
<glyph unicode="&#x25fc;" horiz-adv-x="1085" d="M0 0v1085h1085v-1085h-1085z" />
</font>
</defs>
</svg>
