<?xml version="1.0" standalone="no"?>
<!DOCTYPE svg PUBLIC "-//W3C//DTD SVG 1.1//EN" "http://www.w3.org/Graphics/SVG/1.1/DTD/svg11.dtd" >
<svg xmlns="http://www.w3.org/2000/svg">
<metadata></metadata>
<defs>
<font id="comexmedium_italic" horiz-adv-x="1409" >
<font-face units-per-em="2048" ascent="1536" descent="-512" />
<missing-glyph horiz-adv-x="430" />
<glyph unicode="&#xfb01;" horiz-adv-x="1134" d="M-180 -340q0 15 10 35l35 67q14 25 35 25l44 -13q44 -12 85 -12q65 0 102 43t59 162l168 948h-127q-34 0 -34 31l22 101q7 34 41 34h129l21 105q33 182 121 269.5t249 88.5q119 0 168 -35q15 -10 15 -26t-9 -31l-30 -66q-11 -26 -37 -26q-11 0 -31 4q-60 10 -82 10 q-68 0 -108.5 -43t-61.5 -157l-18 -93h184q33 0 33 -30l-19 -97q-5 -39 -45 -39h-182l-176 -983q-32 -180 -117 -260t-241 -82q-54 0 -105 11t-78 26q-20 11 -20 33zM784 47l181 997q6 39 51 39h114q31 0 31 -32q0 -1 -1 -7t-1 -8l-178 -999q-8 -37 -47 -37h-115 q-30 0 -33 23q-4 12 -2 24zM987 1305q0 53 34.5 85.5t92.5 32.5q57 0 88 -29.5t31 -76.5q0 -55 -35 -88t-96 -33q-51 0 -83 31.5t-32 77.5z" />
<glyph unicode="&#xfb02;" horiz-adv-x="1134" d="M-180 -340q0 15 10 35l35 67q14 25 35 25l44 -13q44 -12 85 -12q65 0 102 43t59 162l168 948h-127q-34 0 -34 31l22 101q7 34 41 34h129l21 105q33 182 121 269.5t249 88.5q119 0 168 -35q15 -10 15 -26t-9 -31l-30 -66q-11 -26 -37 -26q-11 0 -31 4q-60 10 -82 10 q-68 0 -108.5 -43t-61.5 -157l-18 -93h184q33 0 33 -30l-19 -97q-5 -39 -45 -39h-182l-176 -983q-32 -180 -117 -260t-241 -82q-54 0 -105 11t-78 26q-20 11 -20 33zM784 33l2 14l254 1417q8 46 50 52l108 26q12 2 16 2q34 0 31 -33l-262 -1472q-8 -39 -47 -39h-117 q-15 0 -25 9t-10 24z" />
<glyph horiz-adv-x="0" />
<glyph horiz-adv-x="682" />
<glyph unicode=" "  horiz-adv-x="430" />
<glyph unicode="&#x09;" horiz-adv-x="430" />
<glyph unicode="&#xa0;" horiz-adv-x="430" />
<glyph unicode="!" horiz-adv-x="577" d="M180 111q0 55 41 95t98 40t97.5 -40t40.5 -97q0 -58 -40.5 -99t-97.5 -41t-98 42t-41 100zM270 391q0 2 1 8t1 9l160 1097q7 43 43 43h158q33 0 33 -28q0 -19 -2 -25l-224 -1092q-11 -41 -47 -41h-88q-35 0 -35 29z" />
<glyph unicode="&#x22;" horiz-adv-x="591" d="M246 1202v10l33 314q3 37 43 37h106q37 0 37 -25q0 -8 -2 -16l-78 -310q-9 -43 -49 -43h-57q-33 0 -33 33zM537 1202v10l34 314q3 37 43 37h105q37 0 37 -25q0 -8 -2 -16l-76 -310q-12 -43 -49 -43h-58q-19 0 -26.5 7.5t-7.5 25.5z" />
<glyph unicode="#" horiz-adv-x="1464" d="M170 496l12 34l17 43q10 22 20.5 31.5t30.5 9.5h266l105 299h-271q-11 0 -20 6.5t-8 18.5q0 4 14 39l14 39q11 25 20.5 33t30.5 8h267l145 426q14 29 24.5 37t36.5 8h72q12 0 19 -7t6 -18q-1 -2 -2.5 -10.5t-3.5 -15.5l-144 -424h295l146 430q14 29 24.5 37t36.5 8h74 q12 0 19 -7t5 -18q-1 -2 -2.5 -10.5t-3.5 -15.5l-143 -420h272q14 0 24 -6.5t7 -18.5q0 -6 -4 -16l-27 -70q-7 -17 -16.5 -25t-30.5 -8h-272l-103 -299h277q11 0 19 -6t7 -18q0 -2 -6 -17l-26 -69q-13 -33 -50 -33h-270l-145 -428q-10 -27 -21.5 -35t-38.5 -8h-71 q-12 0 -20 7.5t-7 17.5q0 8 6 26l142 422h-295l-146 -434q-7 -23 -19.5 -31t-39.5 -8h-70q-12 0 -20 8t-6 19q0 4 6 22l141 422h-270q-12 0 -22 6.5t-7 18.5zM670 612h295l104 301h-293z" />
<glyph unicode="$" horiz-adv-x="1087" d="M113 109q0 8 8 24l43 90q10 23 33 23q12 0 24 -6q173 -82 350 -82q136 0 218.5 58.5t82.5 189.5q0 132 -176 215l-145 71q-252 114 -252 324q0 199 116.5 310.5t311.5 123.5l27 145q6 43 45 43h75q17 0 24 -6.5t7 -23.5v-13l-28 -151q105 -18 179.5 -77t102.5 -157 q2 -8 2 -20q0 -19 -28 -33l-80 -37q-12 -6 -27 -6q-22 0 -35 23q-35 67 -87.5 101t-139.5 34q-111 0 -183.5 -55.5t-72.5 -174.5q0 -29 11 -55t23.5 -42t41 -36t42 -27.5t48.5 -25.5l143 -76q260 -136 260 -356q0 -210 -118 -322.5t-351 -121.5l-26 -152q-9 -43 -45 -43h-76 q-33 0 -33 29q0 8 2 14l29 154q-106 11 -197 39t-133 57q-16 11 -16 31z" />
<glyph unicode="%" horiz-adv-x="1460" d="M211 1042q0 82 26.5 157t74 132t119 91t155.5 34q254 0 254 -270q0 -176 -101 -296t-270 -120q-128 0 -193 76t-65 196zM215 25q0 15 18 41l1063 1347q23 28 39 37.5t45 9.5h68q31 0 31 -24q0 -14 -19 -41l-1063 -1348q-23 -28 -39 -37.5t-45 -9.5h-69q-29 0 -29 25z M385 1042q0 -135 102 -135q73 0 127 76.5t54 196.5q0 64 -26.5 101.5t-80.5 37.5q-81 0 -128.5 -84t-47.5 -193zM831 250q0 171 103 293.5t270 122.5q133 0 194.5 -72.5t61.5 -200.5q0 -176 -101.5 -296t-271.5 -120q-128 0 -192 76t-64 197zM1004 250q0 -135 104 -135 q72 0 125 76t53 196q0 65 -25.5 103t-78.5 38q-81 0 -129.5 -85t-48.5 -193z" />
<glyph unicode="&#x26;" horiz-adv-x="1308" d="M125 315q0 53 12 102t29.5 87t50.5 78t59.5 67t73.5 62t77 55t83 55l-18 31q-29 47 -46.5 106t-17.5 109q0 172 111 265t286 93q129 0 215 -66t86 -196q0 -67 -27.5 -126t-68 -100t-104.5 -89q-29 -19 -52 -19q-14 0 -30 19l-41 67q-6 10 -6 25q0 17 18 31q39 29 61.5 49 t43 56t20.5 75q0 54 -36.5 83.5t-98.5 29.5q-81 0 -135 -47.5t-54 -133.5q0 -73 39 -147l326 -537q94 128 158 340q10 37 45 37h98q31 0 31 -28v-11q-26 -119 -92.5 -254.5t-145.5 -230.5l43 -62q17 -28 58 -28q15 0 41.5 4.5t37.5 5.5q22 0 27 -27l8 -86v-16 q-6 -24 -30 -33q-55 -22 -127 -22q-93 0 -160 84q-7 7 -37 49q-183 -141 -428 -141q-79 0 -147 20.5t-121.5 60.5t-84 105.5t-30.5 148.5zM319 326q0 -87 59.5 -137t151.5 -50q71 0 159.5 28.5t164.5 96.5l-266 422q-44 -27 -76 -49.5t-71 -58t-63.5 -70.5t-41.5 -82.5 t-17 -99.5z" />
<glyph unicode="'" horiz-adv-x="301" d="M246 1202v10l33 314q3 37 43 37h106q37 0 37 -25q0 -8 -2 -16l-78 -310q-9 -43 -49 -43h-57q-33 0 -33 33z" />
<glyph unicode="(" horiz-adv-x="692" d="M211 391q0 136 21.5 269.5t69.5 265t117.5 242t172 199.5t227.5 138q12 4 21 4q17 0 26 -20l25 -78q4 -14 4 -20q0 -15 -25 -27q-151 -86 -258.5 -237t-158 -326.5t-50.5 -362.5q0 -89 7.5 -157t28.5 -145t66 -141.5t113 -115.5q21 -11 21 -29q0 -10 -6 -22l-39 -68 q-17 -20 -33 -20q-4 0 -20 4q-90 40 -156.5 114.5t-103 166t-53.5 182.5t-17 184z" />
<glyph unicode=")" horiz-adv-x="692" d="M14 -154q0 14 25 27q151 86 258.5 237t158 326.5t50.5 362.5q0 89 -7.5 157t-28.5 145t-66 141.5t-113 115.5q-21 10 -21 28q0 11 6 23l39 68q17 20 33 20q5 0 21 -4q72 -33 130 -89t94.5 -121t60.5 -142t34 -149.5t10 -145.5q0 -136 -21.5 -269.5t-69.5 -265 t-117.5 -242t-172 -199.5t-227.5 -138q-12 -4 -20 -4q-18 0 -27 20l-25 78q-4 14 -4 20z" />
<glyph unicode="*" horiz-adv-x="669" d="M258 1303q0 4 4 16l49 98q16 25 35 25q15 0 25 -10l153 -103l-4 211q-3 49 39 49h103q28 0 28 -24q0 -10 -6 -25l-82 -209l191 101q20 10 28 10q9 0 16 -7t7 -18l14 -98v-8q-3 -34 -43 -37l-190 -17l125 -149q12 -12 12 -29q0 -14 -23 -24l-100 -51q-21 -7 -27 -7 q-16 0 -24 27l-43 201l-117 -201q-14 -29 -33 -29q-7 0 -22 9l-76 53q-14 8 -14 22q0 15 22 37l170 141l-184 17q-33 3 -33 29z" />
<glyph unicode="+" horiz-adv-x="1087" d="M213 543v71q0 20 8 29.5t29 9.5h325v336q0 41 37 41h76q20 0 28.5 -9.5t8.5 -31.5v-336h319q22 0 29.5 -9.5t7.5 -29.5v-69q0 -20 -8 -29.5t-31 -9.5h-317v-334q0 -41 -37 -41h-76q-37 0 -37 41v334h-323q-22 0 -30.5 9t-8.5 28z" />
<glyph unicode="," horiz-adv-x="403" d="M-10 -176q0 6 6 24l158 328q21 43 57 43h131q31 0 31 -22q0 -11 -13 -37l-206 -316q-17 -24 -35.5 -33.5t-48.5 -9.5h-54q-26 0 -26 23z" />
<glyph unicode="-" horiz-adv-x="817" d="M199 528q0 9 2 17l14 88q7 37 43 37h541q28 0 28 -27l-2 -20l-12 -84q-6 -37 -43 -37h-539q-32 0 -32 26z" />
<glyph unicode="." horiz-adv-x="432" d="M104 100q0 53 37.5 90t91.5 37t90.5 -37t36.5 -90q0 -55 -36.5 -92t-90.5 -37t-91.5 37t-37.5 92z" />
<glyph unicode="/" horiz-adv-x="727" d="M133 -6q-5 14 4 31l692 1484q12 27 25.5 36t40.5 9h74q21 0 25.5 -14t-5.5 -31l-692 -1484q-12 -27 -25.5 -36t-40.5 -9h-73q-20 0 -25 14z" />
<glyph unicode="0" horiz-adv-x="1208" d="M205 471q0 87 8.5 174.5t30 183.5t54 181.5t83.5 163.5t115.5 134.5t153.5 90t194 33.5q90 0 161 -27.5t116 -73t74.5 -109.5t41.5 -132.5t12 -145.5q0 -152 -22.5 -290.5t-72 -263t-123 -215.5t-182 -144.5t-241.5 -53.5q-106 0 -184.5 37t-125.5 105t-70 156t-23 196z M401 483q0 -69 13 -126.5t40 -104.5t74 -73.5t109 -26.5q85 0 156.5 51.5t118 134t79 187.5t46.5 209t14 202q0 52 -7 97.5t-24 87t-43 71.5t-66.5 47.5t-91.5 17.5q-91 0 -165.5 -54.5t-120 -138.5t-76.5 -190.5t-43.5 -204t-12.5 -186.5z" />
<glyph unicode="1" horiz-adv-x="919" d="M162 27q0 2 1 5t1 5l18 102q3 21 13.5 31t33.5 10h197l182 1047h-200q-33 0 -33 26v13l18 104q7 39 45 39h252q64 0 94.5 -18t30.5 -74q0 -25 -6 -55l-191 -1082h191q35 0 35 -26q0 -2 -1 -7.5t-1 -7.5l-19 -102q-3 -20 -13 -28.5t-34 -8.5h-577q-37 0 -37 27z" />
<glyph unicode="2" horiz-adv-x="1077" d="M111 100q0 41 23.5 75.5t74.5 78.5l444 385q71 62 107 95t82.5 82t68 85t37 82t15.5 94q0 89 -52.5 136t-142.5 47q-178 0 -268 -158q-14 -27 -41 -27q-11 0 -31 8l-66 27q-24 11 -24 37q0 13 12 37q60 121 170.5 184.5t261.5 63.5q181 0 279 -97t98 -248q0 -78 -21 -146 t-66.5 -131.5t-97 -116.5t-132.5 -122l-326 -280l-135 -113l147 2l449 2q33 0 33 -26q0 -11 -2 -17l-19 -102q-3 -20 -13 -28.5t-34 -8.5h-725q-52 0 -79 28t-27 72z" />
<glyph unicode="3" horiz-adv-x="1062" d="M127 104q0 14 6 29l37 80q9 27 33 27q7 0 24 -7q154 -79 322 -79q136 0 221.5 61.5t85.5 196.5q0 237 -297 237h-145q-37 0 -37 27v12l12 98q6 43 47 43h178q142 0 225 68t85 184q0 84 -56.5 130t-142.5 46q-96 0 -157.5 -39t-108.5 -118q-18 -25 -37 -25q-15 0 -31 8 l-69 31q-17 11 -17 33q0 13 8 33q127 252 428 252q175 0 279 -90t104 -250q0 -123 -77 -222t-220 -137q105 -36 166.5 -119.5t61.5 -201.5q0 -201 -130 -318t-374 -117q-252 0 -408 97q-16 13 -16 30z" />
<glyph unicode="4" horiz-adv-x="1093" d="M74 455q0 45 19.5 79.5t58.5 75.5l714 766q21 21 38.5 27t45.5 6h123q12 0 20.5 -8.5t8.5 -20.5q0 -14 -17 -34l-610 -637l-176 -179h180h287l61 355q6 39 43 39h117q31 0 31 -31q0 -2 -1 -6t-1 -6l-62 -346h156q35 0 35 -27q0 -2 -1 -6t-1 -6l-19 -99q-10 -37 -45 -37 h-151l-58 -321q-6 -39 -43 -39h-116q-31 0 -31 29q0 5 57 331h-551q-55 0 -83.5 27.5t-28.5 67.5z" />
<glyph unicode="5" horiz-adv-x="1075" d="M133 106q0 8 10 33l37 78q10 23 33 23q7 0 29 -9l22 -9q21 -10 36.5 -16t47 -16.5t60 -17t67.5 -11.5t76 -5q148 0 234.5 80t86.5 215q0 115 -94.5 169t-285.5 54h-168q-37 0 -37 31q0 1 1 4t1 4l94 544q16 90 54 121t112 31h561q19 0 28 -8.5t9 -30.5l-19 -104 q-7 -39 -45 -39h-510l-67 -377h41q246 0 385 -95t139 -288q0 -229 -139.5 -359.5t-392.5 -130.5q-96 0 -204.5 26t-182.5 73q-19 13 -19 30z" />
<glyph unicode="6" horiz-adv-x="1165" d="M203 479q0 140 23 273.5t74 257.5t124.5 217t183.5 149t242 56q79 0 144 -21.5t107 -57t68.5 -73.5t40.5 -80q9 -22 4 -35.5t-28 -25.5q-4 -1 -36 -16.5t-36 -16.5q-15 -6 -29 -6q-18 0 -34 28q-40 71 -91.5 98t-134.5 27q-76 0 -143.5 -39.5t-116.5 -108t-84 -154 t-55 -183.5q70 71 165 103t193 32q175 0 272 -98t97 -260q0 -253 -146 -410.5t-393 -157.5q-108 0 -188 36.5t-128.5 105t-71.5 158t-23 202.5zM399 477q0 -150 61.5 -237.5t182.5 -87.5q95 0 168.5 53.5t109 134t35.5 170.5q0 100 -55.5 158.5t-167.5 58.5q-81 0 -170 -38 t-160 -109q-4 -35 -4 -103z" />
<glyph unicode="7" horiz-adv-x="952" d="M100 29q0 13 15 39l696 974l145 195l-247 -4l-443 -2q-39 0 -39 31q0 2 1 6t1 6l19 98q7 37 43 37h756q57 0 88.5 -26.5t31.5 -69.5q0 -36 -15.5 -69.5t-51.5 -86.5l-760 -1116q-17 -24 -33.5 -32.5t-46.5 -8.5h-131q-14 0 -21.5 8.5t-7.5 20.5z" />
<glyph unicode="8" horiz-adv-x="1099" d="M162 334q0 142 85.5 258t244.5 164q-76 28 -119 93t-43 155q0 180 137.5 304t357.5 124q185 0 280 -90t95 -230q0 -128 -74 -226.5t-200 -131.5q95 -26 154 -103t59 -190q-1 -99 -39 -186.5t-107.5 -154t-176 -105t-236.5 -38.5q-207 0 -312.5 100t-105.5 257zM362 367 q0 -104 63 -158.5t179 -54.5q151 0 242.5 76t91.5 210q0 94 -65 160t-185 66q-140 0 -233 -83t-93 -216zM528 1016q0 -78 51 -134.5t146 -56.5q116 0 196 78t80 180q0 86 -49.5 134.5t-148.5 48.5q-119 0 -197 -69t-78 -181z" />
<glyph unicode="9" horiz-adv-x="1153" d="M193 227q0 28 34 45q4 1 35 14.5t35 14.5q20 8 29 8q18 0 34 -28q39 -73 94.5 -99t131.5 -26t143.5 39.5t117 107t85 153.5t53.5 183q-71 -67 -166.5 -100t-189.5 -33q-176 0 -273.5 99.5t-97.5 262.5q0 251 145.5 407.5t391.5 156.5q210 0 311.5 -133.5t101.5 -368.5 q0 -140 -22 -273t-72 -257.5t-122.5 -217.5t-181.5 -149t-241 -56q-80 0 -147.5 21.5t-111.5 57t-72.5 74t-42.5 79.5q-2 4 -2 18zM455 903q0 -102 52 -161.5t163 -59.5q82 0 175 38.5t163 108.5q4 70 4 103q0 150 -62 237.5t-182 87.5q-95 0 -168 -52.5t-109 -132 t-36 -169.5z" />
<glyph unicode=":" horiz-adv-x="448" d="M104 100q0 52 38 89.5t91 37.5q54 0 91.5 -37t37.5 -90q0 -55 -37.5 -92t-91.5 -37q-53 0 -91 37t-38 92zM240 872q0 54 37.5 91.5t91.5 37.5t90.5 -37.5t36.5 -91.5t-36.5 -90.5t-90.5 -36.5t-91.5 36.5t-37.5 90.5z" />
<glyph unicode=";" horiz-adv-x="485" d="M-10 -176q0 6 6 24l158 328q21 43 57 43h131q31 0 31 -22q0 -11 -13 -37l-206 -316q-17 -24 -35.5 -33.5t-48.5 -9.5h-54q-26 0 -26 23zM258 872q0 54 38 91.5t91 37.5q54 0 91.5 -37.5t37.5 -91.5t-37.5 -90.5t-91.5 -36.5q-53 0 -91 37t-38 90z" />
<glyph unicode="&#x3c;" horiz-adv-x="983" d="M242 733v47q0 53 41 78l596 379q16 8 26 8q27 0 27 -26v-64q0 -31 -9 -49.5t-36 -36.5l-459 -309l459 -311q27 -18 36 -37t9 -50v-63q0 -27 -27 -27q-8 0 -26 9l-594 376q-43 30 -43 76z" />
<glyph unicode="=" horiz-adv-x="970" d="M244 377v72q0 20 8 29t29 9h616q22 0 29.5 -9t7.5 -29v-70q0 -20 -8 -29.5t-31 -9.5h-612q-22 0 -30.5 9t-8.5 28zM244 723v72q0 20 8 29.5t29 9.5h616q22 0 29.5 -9.5t7.5 -29.5v-72q0 -19 -8 -29t-31 -10h-612q-22 0 -30.5 9.5t-8.5 29.5z" />
<glyph unicode="&#x3e;" horiz-adv-x="985" d="M317 299v63q0 31 9 50t36 37l461 311l-461 309q-27 18 -36 36.5t-9 49.5v64q0 26 27 26q11 0 27 -8l596 -379q43 -26 43 -78v-47q0 -45 -45 -76l-594 -376q-18 -9 -27 -9q-27 0 -27 27z" />
<glyph unicode="?" horiz-adv-x="882" d="M207 1223q0 16 10 39q55 127 168 194.5t266 67.5q173 0 274 -96.5t101 -239.5q0 -184 -166 -361q-34 -37 -117.5 -113.5t-125 -129t-56.5 -111.5q-5 -23 -12 -94q-3 -39 -43 -39h-121q-37 0 -37 37q4 61 12 108q11 52 32 97.5t56 88t66 74t83.5 82.5t86.5 86 q36 37 54.5 58.5t41 55.5t32 71t9.5 82q0 76 -54.5 118.5t-133.5 42.5q-90 0 -155.5 -40t-112.5 -127q-17 -29 -39 -29q-13 0 -25 6l-74 41q-20 10 -20 31zM281 86q0 57 41 97t102 40q57 0 96 -40t39 -97q0 -59 -40.5 -99t-98.5 -40q-61 0 -100 39.5t-39 99.5z" />
<glyph unicode="@" horiz-adv-x="1656" d="M223 764q0 398 194 595t568 197q369 0 543 -174.5t174 -529.5q0 -256 -117.5 -391t-333.5 -135q-37 0 -66 4t-60 16t-51 37t-27 63q-40 -50 -103 -81t-129 -31q-122 0 -196 79t-74 246q0 246 113.5 398.5t299.5 152.5q141 0 207 -108l23 59q5 12 8 17t10.5 10.5t18.5 5.5 h96q20 0 20 -27l-112 -628q-4 -20 -4 -29q0 -27 14.5 -39t54.5 -12q135 0 205 103.5t70 283.5q0 147 -28.5 252.5t-94.5 185t-182.5 119t-284.5 39.5q-116 0 -210.5 -22.5t-173 -72.5t-131.5 -128t-82.5 -193t-29.5 -262q0 -331 162 -501.5t477 -170.5q144 0 278.5 36 t235.5 105q16 13 29 13q15 0 25 -13l28 -45q8 -13 8 -24q0 -17 -18 -29q-108 -75 -265 -116.5t-321 -41.5q-768 0 -768 787zM719 670q0 -207 135 -207q55 0 114 31t99 100l66 377q-46 112 -164 112q-64 0 -114.5 -40t-78.5 -103.5t-42.5 -132.5t-14.5 -137z" />
<glyph unicode="A" horiz-adv-x="1300" d="M18 27q0 12 9 24l682 1295q38 72 79 104.5t115 32.5h10q42 0 71.5 -12t45 -35.5t22.5 -43.5t13 -51l225 -1290q2 -8 2 -18q0 -33 -39 -33h-114q-27 0 -38 10t-16 33l-57 360h-602l-184 -360q-14 -26 -27.5 -34.5t-42.5 -8.5h-121q-14 0 -23.5 7.5t-9.5 19.5zM514 578h487 l-73 479l-39 274l-133 -276z" />
<glyph unicode="B" horiz-adv-x="1202" d="M168 51q0 1 41 237.5t100.5 576.5t98.5 558q7 49 51 52q95 10 282 10q283 0 410 -78q131 -82 131 -258q0 -131 -77.5 -229t-213.5 -134q101 -34 162 -109t61 -188q0 -304 -253 -426q-88 -44 -199 -58.5t-281 -14.5q-210 0 -274 10q-34 7 -37 31q-2 6 -2 20zM393 172 q39 -4 137 -4q119 0 195 11.5t137 47.5q142 80 142 254q0 113 -78.5 171.5t-231.5 58.5h-209zM514 879h217q153 0 248.5 66t95.5 181q0 92 -61 131q-73 48 -260 48q-95 0 -166 -7z" />
<glyph unicode="C" horiz-adv-x="1241" d="M193 545q0 141 27 274.5t87 257.5t146.5 216.5t215.5 148t285 55.5q365 0 441 -274q2 -10 2 -21q0 -29 -35 -39l-84 -26q-20 -4 -29 -4q-21 0 -32 24q-38 87 -107 121.5t-182 34.5q-88 0 -165 -33.5t-133 -91.5t-99.5 -133t-70.5 -160t-40.5 -170t-13.5 -166 q0 -88 16.5 -155.5t53.5 -122.5t104.5 -84t162.5 -29q174 0 361 74q12 6 29 6q19 0 28 -25l29 -96q4 -12 4 -21q0 -27 -39 -43q-202 -86 -440 -86q-256 0 -389 151t-133 417z" />
<glyph unicode="D" horiz-adv-x="1402" d="M164 35q0 16 4 24l242 1371q8 41 57 45q91 8 287 8q201 0 327 -27.5t213 -95.5q176 -132 176 -449q0 -138 -22.5 -260t-70 -230.5t-127 -194t-187.5 -138.5q-98 -54 -228.5 -76t-338.5 -22q-219 0 -295 10q-37 3 -37 35zM389 172q80 -6 166 -6q284 0 426 94 q144 89 212.5 252t68.5 375q0 124 -25.5 202.5t-85.5 124.5q-59 46 -152.5 68.5t-246.5 22.5q-68 0 -164 -7z" />
<glyph unicode="E" horiz-adv-x="1054" d="M180 119q0 15 8 61l197 1123q18 100 61.5 136t120.5 36h627q35 0 35 -33v-10l-19 -103q-6 -37 -45 -37h-577l-72 -411h492q34 0 34 -27v-12l-20 -101q-7 -41 -47 -41h-492l-92 -518h608q35 0 35 -26v-19l-18 -96q-7 -41 -45 -41h-649q-142 0 -142 119z" />
<glyph unicode="F" horiz-adv-x="999" d="M164 27q0 10 2 14l221 1262q18 99 62 135.5t120 36.5h623q35 0 35 -35l-2 -17l-17 -94q-6 -37 -47 -37h-573l-72 -411h510q35 0 35 -27q0 -2 -1 -6.5t-1 -5.5l-19 -101q-7 -41 -47 -41h-508l-116 -657q-6 -43 -45 -43h-129q-31 0 -31 27z" />
<glyph unicode="G" horiz-adv-x="1308" d="M193 563q0 140 28 272.5t88.5 253.5t148 211t215.5 143.5t281 53.5q77 0 144 -13.5t129.5 -43.5t107.5 -85t66 -130q2 -10 2 -27q0 -28 -41 -37l-72 -22q-18 -6 -37 -6q-18 0 -30 24q-38 90 -110.5 123t-186.5 33q-106 0 -195 -47t-148 -122.5t-101 -173t-60.5 -195 t-18.5 -191.5q0 -100 17 -173.5t57.5 -131t113 -86.5t177.5 -29q67 0 147 14t140 41l63 369h-239q-37 0 -37 28v13l18 102q9 41 49 41h314q54 0 80 -18.5t26 -67.5q0 -23 -4 -41l-80 -461q-10 -57 -36.5 -85t-86.5 -52q-178 -70 -401 -70q-260 0 -394 153.5t-134 432.5z" />
<glyph unicode="H" horiz-adv-x="1427" d="M164 31v14l246 1391q4 24 16 31.5t33 7.5h123q30 0 30 -33v-15l-96 -542h705l96 551q4 24 17 31.5t34 7.5h121q33 0 33 -33q-2 -13 -2 -15l-244 -1388q-8 -39 -49 -39h-121q-15 0 -25 8t-10 23q0 8 2 14l115 657h-705l-116 -663q-8 -39 -50 -39h-118q-35 0 -35 31z" />
<glyph unicode="I" horiz-adv-x="520" d="M164 31v14l246 1391q4 24 16 31.5t33 7.5h123q30 0 30 -33v-15l-245 -1388q-8 -39 -50 -39h-118q-35 0 -35 31z" />
<glyph unicode="J" horiz-adv-x="821" d="M47 76q0 13 10 33l47 86q13 22 33 22q11 0 23 -6q110 -47 194 -47q69 0 108.5 40.5t57.5 139.5l166 948h-217q-39 0 -33 39l21 105q7 39 43 39h372q41 0 41 -35q0 -9 -2 -13l-192 -1101q-12 -66 -26 -113.5t-41 -94.5t-64.5 -76t-96.5 -47t-137 -18q-70 0 -151 18.5 t-135 51.5q-21 12 -21 29z" />
<glyph unicode="K" horiz-adv-x="1206" d="M164 27q0 8 2 14l244 1393q9 41 45 41h127q30 0 30 -29v-12l-96 -549h189l473 561q17 18 30.5 23.5t36.5 5.5h144q28 0 28 -23v-6q0 -13 -16 -35l-543 -633l346 -727q7 -14 4 -22q0 -26 -34 -29h-125q-16 0 -24.5 1t-18.5 8t-17 22l-313 674h-193l-116 -662 q-6 -43 -43 -43h-129q-31 0 -31 27z" />
<glyph unicode="L" horiz-adv-x="993" d="M180 117q0 25 6 59l222 1258q9 41 45 41h129q19 0 25 -10t3 -31l-219 -1252h572q32 0 32 -26q0 -9 -2 -17l-16 -98q-7 -41 -45 -41h-610q-66 0 -104 25.5t-38 91.5z" />
<glyph unicode="M" horiz-adv-x="1738" d="M141 37l277 1239q24 106 69.5 156.5t143.5 50.5q80 0 119.5 -41t48.5 -133l86 -820l20 -237l105 235l387 830q46 97 92 131.5t129 34.5q158 0 158 -158q0 -23 -4 -55l-166 -1231q-6 -39 -41 -39h-127q-33 0 -33 31v14l158 1053l36 250l-106 -244l-401 -858 q-33 -71 -78.5 -107.5t-124.5 -36.5h-10q-130 0 -146 148l-94 844l-21 254l-51 -261l-223 -1046q-6 -41 -43 -41h-131q-30 0 -30 27q0 5 1 10z" />
<glyph unicode="N" horiz-adv-x="1447" d="M162 29q0 8 2 16l217 1225q20 110 63.5 161.5t135.5 51.5q81 0 118.5 -36.5t69.5 -135.5l279 -875l77 -276l56 332l157 940q8 43 47 43h123q21 1 29 -9q4 -5 5 -16q0 -8 -3 -18l-215 -1235q-38 -205 -197 -205q-73 0 -117 41.5t-69 118.5l-297 946l-61 227l-41 -278 l-174 -1002q-4 -26 -15 -35.5t-33 -9.5h-126q-31 0 -31 29z" />
<glyph unicode="O" d="M193 537q0 158 30 300t93 263t153.5 209t218 138t279.5 50q84 0 157.5 -18t139 -59t112.5 -103.5t74 -157t27 -213.5q0 -152 -28 -291.5t-89.5 -264t-150.5 -215.5t-220.5 -144.5t-290.5 -53.5q-79 0 -148 15.5t-136 55.5t-115 101.5t-77 160.5t-29 227zM401 549 q0 -198 82.5 -295.5t237.5 -97.5q129 0 234 62t172.5 169t104 248t36.5 303q0 176 -79.5 278.5t-246.5 102.5q-124 0 -226.5 -60.5t-171 -165t-106 -244.5t-37.5 -300z" />
<glyph unicode="P" horiz-adv-x="1136" d="M164 27q0 10 2 14l244 1389q4 23 15 31.5t36 11.5q68 10 264 10q167 0 264 -20.5t166 -69.5q129 -94 129 -297q0 -159 -64.5 -280.5t-185.5 -192.5q-84 -49 -188 -70t-262 -21q-34 0 -79 2.5t-50 2.5l-86 -494q-6 -43 -45 -43h-131q-29 0 -29 27zM485 715q82 -4 115 -4 q117 0 186.5 15t128.5 50q77 46 119.5 125t42.5 178q0 122 -71 170q-44 30 -113.5 43t-185.5 13q-40 0 -119 -9z" />
<glyph unicode="Q" d="M193 537q0 158 30 300t93 263t153.5 209t218 138t279.5 50q84 0 157.5 -18t139 -59t112.5 -103.5t74 -157t27 -213.5q0 -152 -28 -291.5t-89.5 -264t-150.5 -215.5t-220.5 -144.5t-290.5 -53.5q-79 0 -148 15.5t-136 55.5t-115 101.5t-77 160.5t-29 227zM401 549 q0 -198 82.5 -295.5t237.5 -97.5q129 0 234 62t172.5 169t104 248t36.5 303q0 176 -79.5 278.5t-246.5 102.5q-124 0 -226.5 -60.5t-171 -165t-106 -244.5t-37.5 -300zM729 -12l203 30l223 -198q10 -10 10 -25q-3 -20 -30 -20h-148q-40 0 -59.5 6.5t-42.5 32.5z" />
<glyph unicode="R" horiz-adv-x="1198" d="M162 25q0 1 1 10.5t1 13.5l242 1374q7 45 51 50q108 12 297 12q76 0 138 -6t124 -20.5t108.5 -42t83 -67t55.5 -99t19 -134.5q0 -182 -96 -296t-273 -156l269 -619q4 -8 4 -18q0 -27 -33 -27h-131q-26 0 -39 7.5t-22 31.5l-240 586q-246 0 -258 2l-103 -586 q-6 -41 -43 -41h-127q-28 0 -28 25zM494 801q106 -4 196 -4q190 0 288.5 77t98.5 228q0 112 -74.5 157.5t-257.5 45.5q-57 0 -165 -7z" />
<glyph unicode="S" horiz-adv-x="1087" d="M115 106q0 15 8 31l41 86q12 23 33 23q12 0 24 -6q160 -78 350 -78q133 0 217 65.5t84 198.5q0 127 -172 213l-149 74q-114 51 -183 135.5t-69 198.5q0 212 133 331t344 119q143 0 245.5 -60.5t137.5 -181.5q2 -8 2 -20q0 -19 -28 -33l-80 -37q-12 -6 -27 -6 q-22 0 -35 23q-35 67 -87.5 101t-139.5 34q-107 0 -181.5 -65.5t-74.5 -186.5q0 -36 13 -65t42 -52.5t49.5 -35.5t61.5 -33l143 -76q260 -136 260 -359t-130.5 -345t-383.5 -122q-131 0 -253 32t-179 69q-16 11 -16 28z" />
<glyph unicode="T" horiz-adv-x="1089" d="M236 1331l18 103q3 21 12.5 31t30.5 10h1012q33 0 33 -29q0 -5 -1 -12l-18 -105q-6 -37 -45 -37h-406l-219 -1249q-5 -22 -14.5 -32.5t-28.5 -10.5h-131q-37 0 -28 41l219 1251h-402q-34 0 -34 26q0 6 2 13z" />
<glyph unicode="U" horiz-adv-x="1402" d="M236 412q0 61 14 157l151 865q9 41 45 41h129q31 0 31 -31q0 -1 -1 -5.5t-1 -6.5l-151 -877q-13 -70 -13 -131q0 -131 70 -196.5t217 -65.5q173 0 279.5 101t140.5 298l153 871q6 43 43 43h130q30 0 30 -31q0 -1 -1 -5.5t-1 -6.5l-151 -879q-18 -105 -48.5 -189.5 t-81.5 -158t-120 -123t-167 -77.5t-220 -28q-231 0 -354 116.5t-123 318.5z" />
<glyph unicode="V" horiz-adv-x="1249" d="M268 1442q3 33 37 33h115q30 0 40 -7.5t13 -33.5l135 -1016l35 -283l135 285l492 1014q13 26 26 33.5t43 7.5h117q31 0 31 -29q0 -11 -8 -27l-641 -1286q-74 -141 -197 -141h-20q-69 0 -107 43.5t-47 103.5l-197 1282q-2 8 -2 21z" />
<glyph unicode="W" horiz-adv-x="1726" d="M276 154l29 1269q0 28 11 40t36 12h113q41 0 41 -45l-41 -947l-16 -342l139 346l305 705q32 78 77 107.5t109 29.5h19q58 0 98.5 -31.5t46.5 -103.5l66 -801l16 -256l78 254l317 1039q13 45 58 45h114q31 0 31 -31q0 -6 -8 -37l-412 -1264q-28 -78 -72.5 -114.5 t-113.5 -36.5h-19q-60 0 -98.5 40.5t-44.5 104.5l-72 854l-10 193l-78 -195l-368 -852q-65 -145 -191 -145h-18q-66 0 -105 46q-37 44 -37 109v7z" />
<glyph unicode="X" horiz-adv-x="1191" d="M4 25q0 16 10 28l500 613l96 110l-86 197l-198 450q-4 8 -4 21q0 14 11 22.5t25 8.5h117q27 0 39 -8t21 -33l149 -381l68 -172l129 178l278 377q19 25 35.5 32t44.5 7h127q13 0 21 -7t8 -18q0 -15 -9 -27l-409 -522l-105 -127l62 -145l256 -580q6 -12 6 -20 q0 -29 -39 -29h-108q-30 0 -44 7.5t-24 31.5l-180 450l-74 187l-123 -168l-358 -469q-19 -25 -36.5 -32t-49.5 -7h-127q-12 0 -20.5 7.5t-8.5 17.5z" />
<glyph unicode="Y" horiz-adv-x="1095" d="M266 1438q0 37 35 37h115q25 0 35.5 -7t19.5 -32l137 -398l64 -188l139 188l291 398q17 26 33.5 32.5t46.5 6.5h125q12 0 20 -6.5t8 -16.5q0 -16 -14 -33l-571 -741l-99 -637q-6 -41 -45 -41h-123q-30 0 -30 29q0 16 2 20l100 633l-285 737q-4 12 -4 19z" />
<glyph unicode="Z" horiz-adv-x="1171" d="M72 90q0 58 55 119l760 872l188 213h-244l-434 -2q-35 0 -35 29q0 1 3 16l18 99q6 39 43 39h811q49 0 75.5 -26.5t26.5 -66.5q0 -57 -51 -116l-735 -842l-219 -248l250 4l522 2q35 0 35 -26v-15l-21 -100q-7 -41 -45 -41h-899q-42 0 -73 23.5t-31 66.5z" />
<glyph unicode="[" horiz-adv-x="653" d="M174 -164q0 11 4 43l273 1510q7 35 19.5 60t25 37t33 18.5t34 7.5t37.5 1h260q33 0 33 -22q0 -2 -1 -7t-1 -7l-17 -93q-3 -17 -12.5 -22.5t-32.5 -5.5h-196l-260 -1456h196q19 0 26 -4.5t7 -16.5v-18l-14 -84q-3 -18 -12.5 -25.5t-30.5 -7.5h-258q-24 0 -41.5 3t-35 11.5 t-27 28t-9.5 49.5z" />
<glyph unicode="\" horiz-adv-x="694" d="M268 1509v7q0 38 33 38h70q26 0 35 -8.5t12 -36.5l168 -1486v-11q0 -32 -35 -32h-68q-27 0 -36.5 8t-12.5 37z" />
<glyph unicode="]" horiz-adv-x="649" d="M-18 -233q0 2 1 7t1 7l18 92q3 17 13 23t32 6h195l256 1456h-197q-19 0 -26 4t-7 16q0 13 2 19l15 86q3 18 12.5 25.5t30.5 7.5h256q51 0 81.5 -19t30.5 -74q0 -13 -4 -45l-266 -1509q-8 -44 -23.5 -71t-40 -38t-42 -13.5t-48.5 -2.5h-258q-32 0 -32 23z" />
<glyph unicode="^" horiz-adv-x="1165" d="M252 889q0 5 8 29l379 583q25 43 78 43h49q48 0 74 -45l377 -581q8 -24 8 -29q0 -23 -27 -27h-63q-30 0 -49 9.5t-35 35.5l-314 451l-309 -451q-18 -27 -36.5 -36t-49.5 -9h-63q-27 4 -27 27z" />
<glyph unicode="_" horiz-adv-x="1316" d="M51 -283l15 82q4 21 17 29t23 8h1041q29 0 29 -26v-21l-15 -76q-6 -37 -43 -37h-1036q-31 0 -31 25v16z" />
<glyph unicode="`" horiz-adv-x="675" d="M373 1571q0 26 30 26h140q37 1 55 -28l199 -287q6 -9 6 -18q0 -10 -7 -17.5t-18 -7.5h-57q-26 0 -40 7.5t-38 33.5l-262 268q-8 8 -8 23z" />
<glyph unicode="a" horiz-adv-x="1126" d="M168 422q0 315 137.5 498.5t370.5 183.5q192 0 278 -141l33 79q9 22 18 31.5t29 9.5h92q12 0 20.5 -6.5t8.5 -17.5v-8l-147 -824q-7 -42 -7 -49q0 -41 39 -41h25q31 0 31 -31q0 -1 -2.5 -12.5t-5.5 -29t-5 -29.5q-6 -30 -34.5 -39.5t-81.5 -9.5q-70 2 -113.5 36 t-50.5 103q-51 -70 -128.5 -109t-162.5 -39q-157 0 -250.5 114.5t-93.5 330.5zM367 430q0 -291 190 -291q32 0 65.5 8.5t70.5 27t72.5 54t61.5 84.5l88 494q-27 68 -80.5 102.5t-125.5 34.5q-87 0 -154.5 -44t-107 -118.5t-60 -163.5t-20.5 -188z" />
<glyph unicode="b" horiz-adv-x="1144" d="M162 33l4 16l254 1417q4 24 15.5 35.5t33.5 14.5l104 24q5 1 10.5 2t8.5 1.5t4 0.5q31 0 31 -31l-101 -548q117 139 299 139q62 0 119 -22.5t109 -70.5t83 -136t31 -205q0 -144 -29.5 -262t-79 -197t-117 -132.5t-141.5 -77.5t-155 -24q-190 0 -280 136l-27 -76 q-16 -37 -51 -37h-90q-13 0 -24 8t-11 25zM403 274q57 -137 213 -137q158 0 256.5 145t98.5 386q0 117 -48.5 196.5t-148.5 79.5q-181 0 -282 -176z" />
<glyph unicode="c" horiz-adv-x="980" d="M168 436q0 140 34 259.5t100.5 211.5t174 144.5t244.5 52.5q279 0 346 -225q2 -6 2 -21q0 -24 -33 -35l-75 -28q-8 -4 -25 -4q-23 0 -33 22q-32 66 -78.5 94.5t-117.5 28.5q-145 0 -243.5 -136t-98.5 -356q0 -288 266 -288q135 0 243 43q15 6 29 6q21 0 27 -25l26 -94 q2 -10 2 -18q0 -26 -28 -37q-132 -54 -326 -54q-205 0 -320.5 117t-115.5 342z" />
<glyph unicode="d" horiz-adv-x="1144" d="M166 414q0 323 143 506.5t379 183.5q185 0 270 -127l89 481q6 31 17 42t34 16l102 24q16 4 25 4q28 0 28 -31l-231 -1286q-6 -36 -6 -49q0 -41 39 -41h28q11 0 20 -7.5t9 -18.5l-12 -76q-6 -30 -35 -39.5t-82 -9.5q-149 3 -166 141q-124 -150 -307 -150 q-152 0 -248 113.5t-96 323.5zM362 428q0 -136 49 -213.5t152 -77.5q46 0 92.5 15t98.5 57t88 106l88 490q-54 139 -219 139q-88 0 -157 -46.5t-109.5 -122.5t-61.5 -164.5t-21 -182.5z" />
<glyph unicode="e" horiz-adv-x="1040" d="M166 440q0 98 18.5 191t61 179.5t104.5 151t155.5 103.5t207.5 39q181 0 275.5 -93.5t94.5 -267.5q0 -116 -28 -208q-11 -31 -24.5 -40.5t-49.5 -9.5h-616q-3 -27 -3 -51q0 -280 246 -280q143 0 289 57q12 4 21 4q20 0 26 -25l25 -86q4 -20 4 -26q0 -22 -31 -37 q-59 -26 -155 -45t-203 -19q-203 0 -310.5 118t-107.5 345zM385 637h492q14 52 14 119q0 192 -184 192q-128 0 -206.5 -84.5t-115.5 -226.5z" />
<glyph unicode="f" horiz-adv-x="616" d="M-180 -340q0 15 10 35l35 67q14 25 35 25l44 -13q44 -12 85 -12q65 0 102 43t59 162l168 948h-127q-34 0 -34 31l22 101q7 34 41 34h129l21 105q33 182 121 269.5t249 88.5q119 0 168 -35q15 -10 15 -26t-9 -31l-30 -66q-11 -26 -37 -26q-11 0 -31 4q-60 10 -82 10 q-68 0 -108.5 -43t-61.5 -157l-18 -93h184q33 0 33 -30l-19 -97q-5 -39 -45 -39h-182l-176 -983q-32 -180 -117 -260t-241 -82q-54 0 -105 11t-78 26q-20 11 -20 33z" />
<glyph unicode="g" horiz-adv-x="1136" d="M86 -311q0 8 4 20l41 90q14 23 33 23q6 0 24 -6q132 -54 271 -54q153 0 223 61.5t102 225.5l13 64q-53 -61 -126.5 -97t-150.5 -36q-74 0 -137.5 25.5t-114.5 76t-80.5 136t-29.5 196.5q0 329 146 509.5t384 180.5q193 0 277 -141l30 81q8 21 18 30t31 9h93q26 0 26 -30 l-180 -1008q-25 -135 -64.5 -222t-104.5 -139.5t-149 -73t-208 -20.5q-206 0 -342 64q-29 12 -29 35zM356 418q0 -44 6 -83t20 -76t36.5 -63.5t58 -42.5t80.5 -16q69 0 145.5 41t128.5 131l91 494q-59 141 -213 141q-91 0 -161.5 -46.5t-111 -123.5t-60.5 -167.5t-20 -188.5 z" />
<glyph unicode="h" horiz-adv-x="1185" d="M162 29q0 8 2 16l254 1417q5 24 15.5 37t33.5 17l102 24q16 4 25 4q26 0 29 -20v-17l-99 -538q115 135 305 135q156 0 239 -89t83 -239q0 -73 -10 -129l-109 -610q-11 -37 -47 -37h-117q-34 0 -34 33q0 10 4 26l108 603q10 58 10 98q0 85 -46.5 132.5t-131.5 47.5 q-86 0 -156 -37t-130 -127l-132 -737q-9 -39 -47 -39h-120q-12 0 -21.5 8.5t-9.5 20.5z" />
<glyph unicode="i" horiz-adv-x="514" d="M164 47l180 997q6 39 51 39h115q31 0 31 -32q0 -1 -1 -7t-1 -8l-179 -999q-8 -37 -47 -37h-114q-30 0 -33 23q-3 8 -3 16q0 4 1 8zM367 1305q0 53 34.5 85.5t92.5 32.5q57 0 87.5 -29.5t30.5 -76.5q0 -55 -35 -88t-96 -33q-51 0 -82.5 31.5t-31.5 77.5z" />
<glyph unicode="j" horiz-adv-x="514" d="M-197 -344q0 5 3.5 14t3.5 11l36 81q13 23 33 23q7 0 46.5 -10.5t72.5 -10.5q60 0 94.5 35.5t52.5 130.5l201 1117q5 36 47 36h117q16 0 24.5 -9.5t8.5 -22.5q0 -2 -1 -7t-1 -6l-203 -1134q-28 -158 -108 -236t-222 -78q-100 0 -176 33q-29 15 -29 33zM360 1305 q0 53 35.5 85.5t93.5 32.5q56 0 87.5 -29.5t31.5 -76.5q0 -55 -35 -88t-96 -33q-51 0 -84 32t-33 77z" />
<glyph unicode="k" horiz-adv-x="1046" d="M164 33l2 14l254 1417q8 46 49 52l109 26q12 2 16 2q34 0 31 -33l-144 -802h144l313 340q30 34 74 34h145q27 0 27 -22q0 -18 -15 -33l-401 -420l264 -561q4 -12 4 -18q-4 -29 -39 -29h-123q-41 0 -53 27l-227 516h-141l-91 -504q-8 -39 -47 -39h-116q-15 0 -25 9t-10 24 z" />
<glyph unicode="l" horiz-adv-x="514" d="M164 33l2 14l254 1417q8 46 49 52l109 26q12 2 16 2q31 0 31 -28v-5l-263 -1472q-8 -39 -47 -39h-116q-15 0 -25 9t-10 24z" />
<glyph unicode="m" horiz-adv-x="1789" d="M162 31q0 6 2 14l178 999q6 39 45 39h78q34 0 41 -47l6 -88q125 156 317 156q104 0 177.5 -52t99.5 -143q40 58 89 99t97 60.5t87 27.5t77 8q146 0 223.5 -84t77.5 -238q0 -63 -10 -125l-111 -618q-9 -39 -45 -39h-121q-15 0 -23.5 8.5t-8.5 22.5q0 2 4 22l110 613 q11 60 11 96q0 178 -152 178q-77 0 -151 -47.5t-130 -142.5l-124 -713q-7 -37 -48 -37h-118q-15 0 -24 8.5t-9 22.5q0 6 4 22l111 609q8 66 8 98q0 86 -42 133t-120 47q-173 0 -279 -166l-129 -735q-8 -39 -43 -39h-120q-35 0 -35 31z" />
<glyph unicode="n" horiz-adv-x="1183" d="M162 31q0 6 2 14l178 999q6 39 45 39h78q37 0 41 -45l6 -90q48 62 113.5 99t114.5 47t98 10q145 0 229 -83t84 -243q0 -66 -10 -121l-111 -618q-9 -39 -47 -39h-119q-15 0 -24 8.5t-9 22.5q0 2 5 22l110 611q10 55 10 102q0 83 -45.5 129.5t-128.5 46.5t-160 -41 t-133 -133l-129 -731q-7 -37 -47 -37h-118q-33 0 -33 31z" />
<glyph unicode="o" horiz-adv-x="1079" d="M162 406q0 320 153 509t408 189q189 0 286 -114.5t97 -309.5q0 -112 -20.5 -213.5t-65.5 -191.5t-110.5 -156t-160.5 -104t-210 -38q-181 0 -279 117t-98 312zM360 420q0 -154 52 -218.5t155 -64.5q107 0 186.5 77t117.5 195.5t38 258.5q0 138 -48 207t-161 69 q-147 0 -243.5 -141.5t-96.5 -382.5z" />
<glyph unicode="p" horiz-adv-x="1142" d="M90 -381q0 6 2 14l254 1414q7 36 43 36h82q17 0 26 -10t9 -24l10 -101q117 156 315 156q44 0 88 -12t89.5 -43.5t80 -78t56.5 -123t22 -171.5q0 -149 -29.5 -269t-79.5 -199t-117.5 -132t-140.5 -76t-153 -23q-183 0 -272 132l-86 -482q-3 -16 -16 -26.5t-27 -10.5h-121 q-17 0 -26 8t-9 21zM403 274q59 -137 215 -137q114 0 195.5 74.5t119.5 193t38 265.5q0 126 -49.5 200t-151.5 74q-175 0 -278 -178z" />
<glyph unicode="q" horiz-adv-x="1142" d="M166 412q0 325 144.5 508.5t381.5 183.5q98 0 169.5 -38t109.5 -105l30 77q17 43 54 43h86q13 0 21.5 -7.5t8.5 -20.5q0 -1 -1 -6.5t-1 -6.5l-254 -1413q-3 -17 -15.5 -27t-29.5 -10h-120q-14 0 -23 11t-6 28l88 492q-56 -69 -134 -106.5t-157 -37.5q-73 0 -135.5 25 t-111.5 76t-77 136.5t-28 197.5zM362 432q0 -136 47.5 -214.5t149.5 -78.5q80 0 156 40.5t127 133.5l88 496q-56 135 -213 135q-92 0 -163.5 -47.5t-111.5 -124.5t-60 -163.5t-20 -176.5z" />
<glyph unicode="r" horiz-adv-x="745" d="M162 29q0 6 2 14l178 1001q5 39 45 39h78q37 0 41 -49l6 -106q48 70 126 114.5t167 44.5q61 0 98 -16q23 -11 23 -33q0 -16 -6 -30l-41 -95q-12 -26 -39 -26q-1 0 -34.5 6t-68.5 6q-167 0 -252 -151l-125 -711q-3 -16 -14 -26.5t-27 -10.5h-126q-12 0 -21.5 8.5 t-9.5 20.5z" />
<glyph unicode="s" horiz-adv-x="927" d="M117 86q0 9 4 25l35 84q10 26 34 26q5 0 25 -8q143 -66 272 -66q90 0 144.5 37.5t54.5 120.5q0 48 -29.5 78.5t-101.5 62.5q-113 54 -117 56q-45 20 -77.5 41t-65 52.5t-49.5 76t-17 98.5q0 158 102 246t273 88q124 0 217.5 -48t132.5 -147q4 -12 4 -18q0 -25 -28 -37 l-66 -33q-20 -8 -30 -8q-22 0 -39 29q-66 100 -187 100q-76 0 -128 -37.5t-52 -116.5q0 -40 23.5 -66t76.5 -52q9 -6 73.5 -37t80.5 -37q207 -98 207 -272q0 -171 -110 -259t-308 -88q-86 0 -176 22t-150 50q-28 14 -28 37z" />
<glyph unicode="t" horiz-adv-x="714" d="M182 948l23 101q7 34 41 34h112l31 170q4 27 14 37.5t35 18.5l107 28q12 4 20 4q29 0 29 -30q-27 -154 -41 -228h221q35 0 35 -30l-18 -97q-5 -38 -48 -38h-219l-104 -601q-6 -44 -6 -75q0 -80 86 -80q51 0 123 22q18 6 28 6q24 0 29 -24l27 -88q4 -12 4 -21 q0 -27 -33 -41q-82 -39 -205 -39q-121 0 -191.5 60.5t-70.5 175.5q0 45 8 92l109 613h-111q-35 0 -35 30z" />
<glyph unicode="u" horiz-adv-x="1146" d="M195 291q0 57 8 98l116 658q7 36 48 36h118q33 0 33 -36l-117 -644q-10 -62 -10 -98q0 -73 42 -118.5t122 -45.5q189 0 287 170l133 736q6 36 45 36h123q28 0 28 -36l-180 -1010q-7 -37 -45 -37h-78q-33 0 -37 37l-8 96q-112 -156 -321 -156q-138 0 -222.5 84t-84.5 230z " />
<glyph unicode="v" horiz-adv-x="915" d="M184 1047q0 36 35 36h115q24 0 32.5 -9.5t10.5 -31.5l61 -651l19 -260l133 248l129 231q90 160 119.5 232t29.5 147q0 8 -1 28.5t-1 29.5q0 36 29 36h117q20 0 29 -8.5t12 -27.5q4 -28 4 -64q0 -86 -30 -169.5t-107 -211.5l-281 -485q-44 -70 -85.5 -97.5t-109.5 -27.5 h-16q-58 0 -96 33.5t-45 99.5z" />
<glyph unicode="w" horiz-adv-x="1376" d="M199 1047q0 36 32 36h115q19 0 28.5 -8t10.5 -28l31 -728l6 -188l100 193l236 442l-19 278q0 39 33 39h111q19 0 28.5 -8t10.5 -28l32 -730l4 -194l103 217l164 340q57 109 78.5 173t21.5 134q0 8 -1 29.5t-1 30.5q0 36 29 36h108q35 0 41 -36q4 -28 4 -64 q-2 -90 -24.5 -164.5t-98.5 -216.5l-266 -496q-34 -64 -76 -89t-104 -25h-10q-23 0 -41 4.5t-37.5 17t-31.5 40t-15 69.5l-17 242l-8 127l-49 -103l-149 -289q-32 -59 -76 -83.5t-105 -24.5h-14q-56 0 -89 33.5t-36 95.5z" />
<glyph unicode="x" horiz-adv-x="937" d="M78 82q0 84 45.5 161t134.5 169l178 186l-225 430q-6 15 -6 25q0 13 9.5 21.5t21.5 8.5h114q17 0 29 -6.5t16 -13t11 -19.5l194 -378l123 137q42 44 64.5 81t27 56t4.5 41q0 11 -2 37t-2 31q0 34 33 34h119q15 0 22.5 -6t11.5 -24q9 -36 9 -62q0 -82 -35 -145t-119 -148 l-166 -178l246 -473q6 -12 6 -20q0 -13 -10 -20t-25 -7h-114q-41 0 -60 37l-209 412l-131 -140q-69 -72 -99 -123.5t-30 -101.5q0 -7 2 -25t2 -24q0 -35 -30 -35h-115q-34 0 -41 31q-4 28 -4 51z" />
<glyph unicode="y" horiz-adv-x="933" d="M-113 -344q0 6 7 27q1 3 15 36.5t21 47.5q10 22 33 22q3 0 59 -13.5t99 -13.5q52 0 95.5 17t80.5 52t66 74t63 97q-82 9 -94 107l-133 938q0 36 34 36h121q18 0 26 -7.5t13 -28.5l82 -680l21 -244l114 244l105 215q76 156 107.5 243.5t31.5 157.5q0 5 -1 26.5t-1 34.5 q0 39 33 39h114q33 0 39 -34q4 -20 4 -56q0 -98 -26.5 -176t-118.5 -266l-283 -582q-99 -200 -216.5 -289.5t-276.5 -89.5q-130 0 -207 35q-27 12 -27 31z" />
<glyph unicode="z" horiz-adv-x="956" d="M84 92q0 34 18 67t33 48l527 584l114 127l-194 -5h-334q-14 0 -23.5 8.5t-9.5 22.5l18 105q7 34 43 34h662q46 0 73 -17t27 -62q0 -57 -51 -113l-518 -584l-123 -135h549q31 0 31 -27v-8l-15 -100q-3 -15 -14 -26t-27 -11h-688q-45 0 -71.5 25t-26.5 67z" />
<glyph unicode="{" horiz-adv-x="675" d="M184 571v13l19 86q6 41 49 41q64 0 91.5 27.5t35.5 84.5l55 324q16 92 45 159t64 107t83 63.5t95 31.5t108 8h56q26 0 26 -25v-8l-16 -90q-6 -35 -41 -35h-35q-96 0 -140.5 -49.5t-64.5 -157.5l-59 -340q-14 -87 -57.5 -135t-132.5 -62q127 -23 127 -145q0 -8 -5 -53 l-59 -330q-8 -62 -8 -82q0 -61 32 -87t109 -26h37q31 0 31 -22q0 -2 -1 -5t-1 -5l-17 -90q-7 -35 -39 -35h-51q-282 0 -282 256q0 47 12 100l59 338q4 24 4 37q0 38 -20.5 56t-73.5 18q-35 0 -35 32z" />
<glyph unicode="|" horiz-adv-x="659" d="M362 0v1536q0 41 37 41h80q37 0 37 -41v-1534q0 -43 -37 -43h-80q-37 0 -37 41z" />
<glyph unicode="}" horiz-adv-x="675" d="M-20 -233l16 90q6 34 41 34h35q96 0 140 49.5t64 157.5l60 340q14 87 57.5 135t132.5 62q-127 23 -127 145q0 18 4 54l60 325q8 62 8 82q0 61 -32 87t-109 26h-37q-31 0 -31 22q0 2 1 5t1 5l17 95q3 17 11 26t27 9h52q282 0 282 -256q0 -48 -12 -101l-59 -338 q-4 -24 -4 -37q0 -37 20.5 -55t73.5 -18q35 0 35 -33v-12l-19 -86q-6 -41 -49 -41q-64 0 -91.5 -28t-35.5 -85l-55 -324q-16 -92 -45 -159t-64 -107t-83.5 -63t-95.5 -31t-108 -8h-55q-26 0 -26 24v9z" />
<glyph unicode="~" horiz-adv-x="1007" d="M203 557q3 101 67.5 158t169.5 57q62 0 133 -23t129.5 -46t90.5 -23q77 0 100 72q12 30 35 30h76q28 0 28 -32q0 -99 -67.5 -157t-163.5 -58q-58 0 -132 23t-136.5 46t-92.5 23q-74 0 -98 -74q-12 -29 -37 -29h-72q-12 0 -21 9t-9 24z" />
<glyph unicode="&#xa1;" horiz-adv-x="575" d="M104 -414q0 13 5 23l223 1091q4 23 14.5 32t30.5 9h90q33 0 33 -26q0 -11 -2 -19l-158 -1097q-7 -41 -43 -41h-158q-35 0 -35 28zM315 995q0 58 40.5 99t97.5 41t98 -41.5t41 -98.5t-41 -97t-98 -40t-97.5 40t-40.5 97z" />
<glyph unicode="&#xa2;" horiz-adv-x="997" d="M168 436q0 132 31 246.5t90.5 205t155.5 147t219 67.5l30 170q5 23 15 33t30 10h78q31 0 31 -29q0 -2 -1 -6.5t-1 -7.5l-31 -174q211 -31 266 -217q4 -12 4 -21q0 -27 -30 -37l-78 -28q-4 -4 -25 -4q-20 0 -32 26q-57 119 -209 119q-147 0 -246.5 -133t-99.5 -359 q0 -288 270 -288q148 0 256 43q24 6 27 6q22 0 28 -25l27 -94q2 -10 2 -18q0 -25 -31 -37q-118 -50 -313 -54l-25 -149q-8 -43 -45 -43h-78q-17 0 -23.5 7t-6.5 22q0 8 2 14l26 164q-149 31 -231 144t-82 300z" />
<glyph unicode="&#xa3;" horiz-adv-x="1024" d="M55 31v8l17 96q7 38 47 55q157 74 192 275l11 53h-103q-37 0 -31 33l11 65q7 41 45 41h102l23 138h-101q-21 0 -28 7t-4 25l12 66q7 41 43 41h104l27 153q15 88 39 157t63.5 128.5t92.5 98.5t127 61t167 22q88 0 152.5 -18.5t97.5 -42.5q19 -16 19 -29q0 -7 -17 -41 l-37 -67q-15 -27 -30 -27q-5 0 -35 10q-3 1 -15 5.5t-15.5 6t-14.5 5.5t-17 5t-16.5 4t-19.5 4t-21 2.5t-25 2t-28 0.5q-124 0 -184 -68.5t-89 -226.5l-26 -145h338q28 0 28 -27v-14l-12 -66q-6 -32 -45 -32h-334l-24 -138h338q30 0 30 -24q0 -11 -2 -17l-10 -65 q-7 -33 -45 -33h-336l-14 -82q-14 -79 -63 -146t-126 -108h680q33 0 33 -26v-11l-18 -104q-7 -41 -45 -41h-875q-33 0 -33 31z" />
<glyph unicode="&#xa5;" horiz-adv-x="1110" d="M266 414q0 1 1 4.5t1 5.5l13 63q7 41 43 41h241l25 140h-242q-33 0 -33 20v10l13 68q7 41 43 41h172l-236 612q-4 12 -4 19q0 37 35 37h115q25 0 35.5 -7t19.5 -32l137 -398l64 -188l139 188l291 398q17 26 33.5 32.5t46.5 6.5h124q12 0 20.5 -6.5t8.5 -16.5 q0 -16 -14 -33l-473 -612h168q30 0 30 -29v-12l-12 -68q-7 -30 -45 -30h-240l-24 -140h244q30 0 30 -26q0 -2 -1 -7.5t-1 -7.5l-12 -63q-7 -33 -45 -33h-238l-59 -350q-6 -41 -47 -41h-123q-14 0 -22.5 8t-8.5 21q0 2 1 10t1 10l60 342h-242q-33 0 -33 23z" />
<glyph unicode="&#xa6;" horiz-adv-x="653" d="M340 0v510q0 22 8.5 31.5t28.5 9.5h80q20 0 28.5 -9.5t8.5 -31.5v-508q0 -23 -8 -33t-29 -10h-80q-37 0 -37 41zM340 1026v510q0 41 37 41h80q37 0 37 -41v-510q0 -21 -8 -31t-29 -10h-80q-20 0 -28.5 9.5t-8.5 31.5z" />
<glyph unicode="&#xa7;" horiz-adv-x="854" d="M78 78q0 15 8 28l33 82q9 27 31 27q10 0 22 -6q54 -28 123 -45t127 -17q112 0 170.5 40.5t58.5 115.5q0 49 -31.5 79t-109.5 67l-94 45q-108 50 -160.5 104.5t-52.5 151.5q0 93 54.5 159.5t145.5 100.5q-51 37 -81.5 94t-30.5 127q0 153 105 239t272 86q121 0 211 -54.5 t120 -137.5q5 -15 5 -21q0 -21 -29 -36l-60 -31q-16 -8 -30 -8q-19 0 -39 28q-75 99 -182 99q-87 0 -134 -39t-47 -113q0 -20 7 -38t13 -28t26.5 -24.5t27 -18.5t36.5 -19l34 -17l90 -43q52 -25 85.5 -45t65.5 -49t47 -66.5t15 -85.5q0 -92 -61 -161t-158 -107 q65 -45 99 -94.5t34 -129.5q0 -164 -113 -252t-317 -88q-84 0 -174.5 22.5t-143.5 51.5q-18 9 -18 27zM387 778q0 -47 36 -79t103 -60l64 -27q70 14 108.5 59t38.5 101q0 45 -33 73.5t-104 61.5l-72 27q-66 -15 -103.5 -58t-37.5 -98z" />
<glyph unicode="&#xa8;" horiz-adv-x="782" d="M332 1339q0 48 35.5 80.5t91.5 32.5q46 0 75 -27t29 -71q0 -54 -35.5 -85.5t-91.5 -31.5q-48 0 -76 28.5t-28 73.5zM688 1339q0 48 36 80.5t91 32.5q48 0 77.5 -27t29.5 -71q0 -54 -36.5 -85.5t-90.5 -31.5q-49 0 -78 28.5t-29 73.5z" />
<glyph unicode="&#xa9;" horiz-adv-x="1765" d="M223 772q0 225 105 405t285.5 279.5t400.5 99.5q165 0 311.5 -58t253.5 -160.5t169 -249.5t62 -316q0 -177 -62 -326.5t-169.5 -252t-253 -159.5t-311.5 -57q-164 0 -309.5 58t-252 161t-168 252t-61.5 324zM346 770q0 -197 88 -352.5t240.5 -240.5t341.5 -85 q141 0 264 48.5t213.5 135t142.5 214.5t52 280q0 197 -89.5 351.5t-242 237.5t-340.5 83q-189 0 -342 -85t-240.5 -239t-87.5 -348zM621 778q0 223 98 350t303 127q240 0 313 -192q0 -2 1 -9.5t1 -9.5q0 -17 -24 -26l-64 -27q-16 -4 -22 -4q-15 0 -23 14q-33 61 -77 86 t-111 25q-63 0 -109 -26t-71.5 -73.5t-37.5 -106.5t-12 -132q0 -67 12.5 -123.5t39.5 -105.5t78 -77t120 -28q114 0 226 47q3 1 7 2t6.5 2t4.5 1q14 0 20 -15l31 -82l4 -12q0 -16 -20 -29q-125 -61 -285 -61q-206 0 -307.5 131.5t-101.5 353.5z" />
<glyph unicode="&#xaa;" horiz-adv-x="684" d="M233 1143q0 74 16.5 144t52 134t100.5 103t151 39q123 0 168 -88l18 53q12 22 33 22h70q18 0 18 -22l-90 -500q0 -3 -1 -12.5t-1 -11.5q0 -17 8.5 -23t26.5 -6q20 0 20 -21l-8 -36q-3 -31 -74 -31q-100 0 -106 84q-69 -88 -189 -88q-97 0 -155 69.5t-58 190.5zM369 1155 q0 -166 125 -166q50 0 90.5 29.5t66.5 73.5l47 268q-11 37 -45 65.5t-90 28.5q-50 0 -88.5 -27.5t-61 -72.5t-33.5 -96t-11 -103z" />
<glyph unicode="&#xab;" horiz-adv-x="1011" d="M201 500q0 27 30 57l261 283q15 16 19.5 20.5t14.5 12t19.5 9t23.5 1.5h76q10 0 16.5 -7t6.5 -16q0 -10 -9 -22l-256 -336l132 -324q4 -8 4 -16q0 -13 -8.5 -21t-20.5 -8h-64q-19 0 -30.5 5.5t-17 12.5t-15.5 25l-168 283q-14 19 -14 41zM614 500q0 26 31 57l260 283 q18 19 25.5 26t20.5 12t32 5h76q10 0 16 -7t6 -16q0 -11 -8 -22l-256 -336l131 -324q4 -8 4 -16q0 -13 -8 -21t-20 -8h-64q-19 0 -30.5 5.5t-17 12.5t-15.5 25l-168 283q-15 20 -15 41z" />
<glyph unicode="&#xac;" horiz-adv-x="1191" d="M262 819v76q0 20 8 29.5t29 9.5h702q79 0 124.5 -40t45.5 -142v-275q0 -22 -7.5 -31.5t-26.5 -9.5h-82q-35 0 -35 41v307h-719q-39 0 -39 35z" />
<glyph unicode="&#xad;" horiz-adv-x="817" d="M199 528q0 9 2 17l14 88q7 37 43 37h541q28 0 28 -27l-2 -20l-12 -84q-6 -37 -43 -37h-539q-32 0 -32 26z" />
<glyph unicode="&#xae;" horiz-adv-x="1765" d="M223 772q0 225 105 405t285.5 279.5t400.5 99.5q165 0 311.5 -58t253.5 -160.5t169 -249.5t62 -316q0 -177 -62 -326.5t-169.5 -252t-253 -159.5t-311.5 -57q-164 0 -309.5 58t-252 161t-168 252t-61.5 324zM346 770q0 -197 88 -352.5t240.5 -240.5t341.5 -85 q141 0 264 48.5t213.5 135t142.5 214.5t52 280q0 197 -89.5 351.5t-242 237.5t-340.5 83q-189 0 -342 -85t-240.5 -239t-87.5 -348zM709 326v886q0 31 26 35q51 8 226 8q67 0 121 -7.5t103 -27.5t82 -51t52.5 -80t19.5 -114q0 -207 -186 -262l246 -381l2 -6q2 -7 2 -13 q0 -16 -21 -16h-108q-34 0 -47 25l-221 360q-140 0 -146 2v-358q0 -29 -24 -29h-103q-24 0 -24 29zM860 817q35 -2 109 -2q111 0 163 34.5t52 125.5q0 38 -12 66t-31 44t-49 25.5t-60 12.5t-71 3l-101 -4v-305z" />
<glyph unicode="&#xaf;" horiz-adv-x="813" d="M319 1270q0 9 3 18l14 84q5 26 16.5 34.5t48.5 8.5h502q33 0 45.5 -6t12.5 -23q0 -5 -3 -14l-14 -84q-5 -29 -19 -39t-53 -10h-501q-29 0 -40.5 7t-11.5 24z" />
<glyph unicode="&#xb0;" horiz-adv-x="649" d="M342 1337q0 100 64.5 165t166.5 65q91 0 149 -59t58 -146q0 -99 -63 -165.5t-166 -66.5q-91 0 -150 59t-59 148zM467 1341q0 -40 26 -65t64 -25q44 0 71 27.5t27 71.5q0 46 -23.5 70t-64.5 24q-42 0 -71 -28.5t-29 -74.5z" />
<glyph unicode="&#xb1;" horiz-adv-x="1206" d="M246 63v72q0 20 7.5 29.5t29.5 9.5h794q21 0 29 -9.5t8 -29.5v-69q0 -20 -8.5 -29.5t-30.5 -9.5h-790q-22 0 -30.5 9t-8.5 27zM246 733v72q0 20 7.5 29.5t29.5 9.5h325v336q0 22 8.5 31.5t28.5 9.5h74q20 0 28.5 -9.5t8.5 -31.5v-336h319q22 0 29.5 -9.5t7.5 -29.5v-70 q0 -20 -7.5 -29.5t-29.5 -9.5h-319v-334q0 -43 -37 -43h-74q-37 0 -37 41v336h-323q-22 0 -30.5 9t-8.5 28z" />
<glyph unicode="&#xb4;" horiz-adv-x="587" d="M317 1260q0 10 7 24l204 277q11 17 27 26t27 9l10 1h149q27 0 27 -22q0 -15 -12 -27l-262 -266q-22 -24 -39.5 -33.5t-51.5 -9.5h-63q-23 0 -23 21z" />
<glyph unicode="&#xb5;" horiz-adv-x="1169" d="M96 -340q0 1 1 3.5t1 4.5l244 1379q4 16 18 26t29 10h121q14 0 23.5 -8.5t9.5 -21.5v-6l-121 -660q-6 -41 -6 -76q0 -82 45.5 -127t120.5 -45q182 0 284 172l131 736q3 16 17 26t28 10h123q29 0 29 -28v-8l-176 -1010q-3 -15 -15.5 -26t-29.5 -11h-84q-33 0 -37 37l-4 96 q-115 -156 -318 -156q-120 0 -178 58l-65 -369q-9 -35 -39 -35h-123q-14 0 -21.5 8.5t-7.5 20.5z" />
<glyph unicode="&#xb6;" horiz-adv-x="1077" d="M137 1130q0 165 118.5 275.5t322.5 110.5h421q76 0 105.5 -30.5t11.5 -121.5l-280 -1595q-6 -41 -43 -41h-113q-35 0 -27 41l277 1581h-191l-276 -1581q-9 -41 -43 -41h-115q-35 0 -26 41l180 1034q-141 0 -231.5 94.5t-90.5 232.5z" />
<glyph unicode="&#xb7;" horiz-adv-x="464" d="M217 645q0 53 37.5 90t91.5 37t90.5 -37t36.5 -90q0 -55 -36.5 -92t-90.5 -37t-91.5 37t-37.5 92z" />
<glyph unicode="&#xb8;" horiz-adv-x="606" d="M20 -430q0 8 5 20l20 43q11 23 27 23q5 0 52.5 -10.5t80.5 -10.5q42 0 72 18.5t30 59.5q0 33 -31 48t-94 22q-57 9 -57 45q0 11 8 35l39 137h137l-24 -98q82 -13 129 -55.5t47 -114.5q0 -58 -21.5 -101t-59.5 -66.5t-82.5 -34.5t-98.5 -11q-92 0 -154 22q-22 6 -25 29z " />
<glyph unicode="&#xba;" horiz-adv-x="653" d="M231 1145q0 189 90 303.5t257 114.5q126 0 188.5 -68.5t62.5 -187.5q0 -83 -19 -156t-58.5 -135.5t-110 -98.5t-164.5 -36q-123 0 -184.5 71.5t-61.5 192.5zM367 1155q0 -170 129 -170q55 0 95.5 29.5t61.5 78t31 100.5t10 107q0 76 -28.5 117t-100.5 41q-92 0 -145 -85 t-53 -218z" />
<glyph unicode="&#xbb;" horiz-adv-x="1011" d="M125 156q0 11 8 22l256 336l-131 324q-4 8 -4 16q0 13 8.5 21t20.5 8h63q27 0 38.5 -9t25.5 -34l168 -283q14 -19 14 -41q0 -26 -31 -57l-260 -283q-18 -19 -25.5 -26t-20.5 -12t-32 -5h-76q-10 0 -16 7t-6 16zM539 156q0 11 8 22l256 336l-131 324q-4 8 -4 16q0 13 8 21 t20 8h64q19 0 30.5 -5.5t17 -12.5t15.5 -25l168 -283q15 -20 15 -41q0 -26 -31 -57l-260 -283q-18 -19 -25.5 -26t-20.5 -12t-32 -5h-76q-10 0 -16 7t-6 16z" />
<glyph unicode="&#xbf;" horiz-adv-x="839" d="M29 -106q0 183 166 360q34 37 117.5 113.5t125 129t56.5 111.5q5 23 12 94q3 39 43 39h121q37 0 37 -36q-3 -54 -13 -109q-11 -52 -32 -97.5t-56 -88t-65.5 -74t-83.5 -82.5t-86 -86q-37 -38 -55 -58.5t-41 -55t-32.5 -71t-9.5 -81.5q0 -76 55 -119t134 -43 q178 0 268 168q17 29 39 29q11 0 25 -7l73 -41q21 -11 21 -30q0 -16 -10 -39q-55 -127 -168.5 -194.5t-266.5 -67.5q-173 0 -273.5 96.5t-100.5 239.5zM496 995q0 59 40.5 99.5t98.5 40.5q61 0 100 -40t39 -100q0 -57 -41 -97t-102 -40q-57 0 -96 40t-39 97z" />
<glyph unicode="&#xc0;" horiz-adv-x="1300" d="M18 27q0 12 9 24l682 1295q38 72 79 104.5t115 32.5h10q42 0 71.5 -12t45 -35.5t22.5 -43.5t13 -51l225 -1290q2 -8 2 -18q0 -33 -39 -33h-114q-27 0 -38 10t-16 33l-57 360h-602l-184 -360q-14 -26 -27.5 -34.5t-42.5 -8.5h-121q-14 0 -23.5 7.5t-9.5 19.5zM514 578h487 l-73 479l-39 274l-133 -276zM539 1962q0 11 8 19t22 8h140q37 0 55 -29l199 -287q6 -9 6 -18q0 -10 -7 -17.5t-18 -7.5h-57q-26 0 -40 7.5t-38 33.5l-262 268q-8 8 -8 23z" />
<glyph unicode="&#xc1;" horiz-adv-x="1333" d="M18 27q0 12 9 24l682 1295q38 72 79 104.5t115 32.5h10q42 0 71.5 -12t45 -35.5t22.5 -43.5t13 -51l225 -1290q2 -8 2 -18q0 -33 -39 -33h-114q-27 0 -38 10t-16 33l-57 360h-602l-184 -360q-14 -26 -27.5 -34.5t-42.5 -8.5h-121q-14 0 -23.5 7.5t-9.5 19.5zM514 578h487 l-73 479l-39 274l-133 -276zM868 1651q0 12 6 24l205 277q11 17 27 26.5t26 9.5l11 1h149q27 0 27 -23q0 -15 -12 -27l-263 -266q-22 -24 -39 -33.5t-51 -9.5h-63q-23 0 -23 21z" />
<glyph unicode="&#xc2;" horiz-adv-x="1300" d="M18 27q0 12 9 24l682 1295q38 72 79 104.5t115 32.5h10q42 0 71.5 -12t45 -35.5t22.5 -43.5t13 -51l225 -1290q2 -8 2 -18q0 -33 -39 -33h-114q-27 0 -38 10t-16 33l-57 360h-602l-184 -360q-14 -26 -27.5 -34.5t-42.5 -8.5h-121q-14 0 -23.5 7.5t-9.5 19.5zM514 578h487 l-73 479l-39 274l-133 -276zM567 1657q0 10 8 18l279 283q29 31 72 31h80q45 0 63 -31l180 -285q4 -6 4 -18q0 -10 -6.5 -17.5t-19.5 -7.5h-51q-26 0 -43.5 9t-36.5 32l-138 168l-202 -168q-27 -22 -47.5 -31.5t-49.5 -9.5h-67q-10 0 -17.5 8t-7.5 19z" />
<glyph unicode="&#xc3;" horiz-adv-x="1310" d="M18 27q0 12 9 24l682 1295q38 72 79 104.5t115 32.5h10q42 0 71.5 -12t45 -35.5t22.5 -43.5t13 -51l225 -1290q2 -8 2 -18q0 -33 -39 -33h-114q-27 0 -38 10t-16 33l-57 360h-602l-184 -360q-14 -26 -27.5 -34.5t-42.5 -8.5h-121q-14 0 -23.5 7.5t-9.5 19.5zM514 578h487 l-73 479l-39 274l-133 -276zM545 1659q0 33 14.5 69.5t42.5 71.5t76 57.5t108 22.5q58 0 110 -21.5t93.5 -43t73.5 -21.5q39 0 60.5 17t35.5 53q8 24 37 24h78q24 0 24 -26q-2 -84 -65.5 -154t-159.5 -70q-59 0 -116 21t-101.5 42t-73.5 21q-25 0 -42.5 -5.5t-28 -17.5 t-15 -21.5t-10.5 -26.5q-10 -21 -39 -21h-76q-12 0 -19 9t-7 20z" />
<glyph unicode="&#xc4;" horiz-adv-x="1300" d="M18 27q0 12 9 24l682 1295q38 72 79 104.5t115 32.5h10q42 0 71.5 -12t45 -35.5t22.5 -43.5t13 -51l225 -1290q2 -8 2 -18q0 -33 -39 -33h-114q-27 0 -38 10t-16 33l-57 360h-602l-184 -360q-14 -26 -27.5 -34.5t-42.5 -8.5h-121q-14 0 -23.5 7.5t-9.5 19.5zM514 578h487 l-73 479l-39 274l-133 -276zM637 1731q0 48 35.5 80t91.5 32q46 0 75 -27t29 -71q0 -54 -35.5 -85.5t-91.5 -31.5q-48 0 -76 29t-28 74zM993 1731q0 48 36 80t91 32q48 0 77.5 -27t29.5 -71q0 -54 -36.5 -85.5t-90.5 -31.5q-49 0 -78 29t-29 74z" />
<glyph unicode="&#xc5;" horiz-adv-x="1300" d="M18 27q0 12 9 24l682 1295q38 72 79 104.5t115 32.5h10q42 0 71.5 -12t45 -35.5t22.5 -43.5t13 -51l225 -1290q2 -8 2 -18q0 -33 -39 -33h-114q-27 0 -38 10t-16 33l-57 360h-602l-184 -360q-14 -26 -27.5 -34.5t-42.5 -8.5h-121q-14 0 -23.5 7.5t-9.5 19.5zM514 578h487 l-73 479l-39 274l-133 -276zM754 1808q0 92 63.5 160t175.5 68q86 0 132 -50.5t46 -123.5q0 -91 -66 -162.5t-179 -71.5q-82 0 -127 53t-45 127zM874 1819q0 -33 18.5 -55.5t53.5 -22.5q47 0 75 32t28 72q0 80 -72 80q-47 0 -75 -33t-28 -73z" />
<glyph unicode="&#xc6;" horiz-adv-x="1841" d="M18 20q0 18 15 33l991 1295q47 62 96.5 94.5t128.5 32.5h733q35 0 35 -33v-10l-18 -103q-6 -37 -47 -37h-578l-71 -411h493q35 0 35 -27q0 -1 -1 -6t-1 -6l-19 -101q-7 -41 -47 -41h-493l-90 -518h608q35 0 35 -26q0 -7 -2 -19l-19 -96q-7 -41 -43 -41h-649 q-139 0 -139 119q0 15 8 61l39 223h-479l-267 -356q-34 -47 -92 -47h-135q-11 0 -19 5.5t-8 14.5zM668 578h381l77 442l50 248l-158 -221z" />
<glyph unicode="&#xc7;" horiz-adv-x="1241" d="M193 545q0 141 27 274.5t87 257.5t146.5 216.5t215.5 148t285 55.5q365 0 441 -274q2 -10 2 -21q0 -29 -35 -39l-84 -26q-20 -4 -29 -4q-21 0 -32 24q-38 87 -107 121.5t-182 34.5q-88 0 -165 -33.5t-133 -91.5t-99.5 -133t-70.5 -160t-40.5 -170t-13.5 -166 q0 -88 16.5 -155.5t53.5 -122.5t104.5 -84t162.5 -29q174 0 361 74q12 6 29 6q19 0 28 -25l29 -96q4 -12 4 -21q0 -27 -39 -43q-190 -80 -407 -86l-19 -75q82 -13 129 -55.5t47 -114.5q0 -58 -21.5 -101t-59.5 -66.5t-82.5 -34.5t-98.5 -11q-92 0 -154 22q-21 6 -24 29 q0 10 4 20l20 43q11 23 27 23q5 0 52.5 -10.5t80.5 -10.5q43 0 73 18.5t30 59.5q0 33 -31 48t-94 22q-58 9 -58 45q0 8 9 35l34 123q-207 29 -313 175t-106 384z" />
<glyph unicode="&#xc8;" horiz-adv-x="1085" d="M193 119q0 15 8 61l196 1123q18 99 62 135.5t121 36.5h626q35 0 35 -33v-10l-18 -103q-6 -37 -45 -37h-578l-72 -411h492q35 0 35 -27v-12l-21 -101q-7 -41 -47 -41h-491l-93 -518h609q35 0 35 -26v-19l-19 -96q-7 -41 -45 -41h-649q-141 0 -141 119zM526 1962 q0 11 8.5 19t22.5 8h139q38 0 56 -29l198 -287q6 -9 6 -18q0 -10 -6.5 -17.5t-17.5 -7.5h-58q-25 0 -39 7.5t-38 33.5l-262 268q-9 9 -9 23z" />
<glyph unicode="&#xc9;" horiz-adv-x="1085" d="M193 119q0 15 8 61l196 1123q18 99 62 135.5t121 36.5h626q35 0 35 -33v-10l-18 -103q-6 -37 -45 -37h-578l-72 -411h492q35 0 35 -27v-12l-21 -101q-7 -41 -47 -41h-491l-93 -518h609q35 0 35 -26v-19l-19 -96q-7 -41 -45 -41h-649q-141 0 -141 119zM799 1651q0 12 6 24 l205 277q11 17 27 26.5t26 9.5l10 1h150q26 0 26 -23q0 -15 -12 -27l-262 -266q-22 -24 -39 -33.5t-51 -9.5h-64q-22 0 -22 21z" />
<glyph unicode="&#xca;" horiz-adv-x="1085" d="M193 119q0 15 8 61l196 1123q18 99 62 135.5t121 36.5h626q35 0 35 -33v-10l-18 -103q-6 -37 -45 -37h-578l-72 -411h492q35 0 35 -27v-12l-21 -101q-7 -41 -47 -41h-491l-93 -518h609q35 0 35 -26v-19l-19 -96q-7 -41 -45 -41h-649q-141 0 -141 119zM530 1657q0 9 9 18 l278 283q29 31 72 31h80q45 0 63 -31l180 -285q5 -8 5 -18t-7 -17.5t-20 -7.5h-51q-26 0 -43.5 9t-36.5 32l-137 168l-203 -168q-27 -22 -47 -31.5t-49 -9.5h-68q-10 0 -17.5 8t-7.5 19z" />
<glyph unicode="&#xcb;" horiz-adv-x="1085" d="M193 119q0 15 8 61l196 1123q18 99 62 135.5t121 36.5h626q35 0 35 -33v-10l-18 -103q-6 -37 -45 -37h-578l-72 -411h492q35 0 35 -27v-12l-21 -101q-7 -41 -47 -41h-491l-93 -518h609q35 0 35 -26v-19l-19 -96q-7 -41 -45 -41h-649q-141 0 -141 119zM596 1731 q0 48 35.5 80t91.5 32q46 0 75 -27t29 -71q0 -54 -35.5 -85.5t-91.5 -31.5q-48 0 -76 29t-28 74zM952 1731q0 48 36 80t91 32q48 0 77.5 -27t29.5 -71q0 -54 -36.5 -85.5t-90.5 -31.5q-49 0 -78 29t-29 74z" />
<glyph unicode="&#xcc;" horiz-adv-x="518" d="M164 31v14l246 1391q4 24 16 31.5t33 7.5h123q30 0 30 -33v-15l-245 -1388q-8 -39 -50 -39h-118q-35 0 -35 31zM178 1962q0 11 8.5 19t22.5 8h139q37 0 55 -29l199 -287q6 -9 6 -18q0 -10 -6.5 -17.5t-17.5 -7.5h-58q-25 0 -39 7.5t-38 33.5l-263 268q-8 8 -8 23z" />
<glyph unicode="&#xcd;" horiz-adv-x="518" d="M164 31v14l246 1391q4 24 16 31.5t33 7.5h123q30 0 30 -33v-15l-245 -1388q-8 -39 -50 -39h-118q-35 0 -35 31zM479 1651q0 12 6 24l205 277q11 17 27 26.5t27 9.5l10 1h149q27 0 27 -23q0 -15 -12 -27l-263 -266q-22 -24 -39 -33.5t-51 -9.5h-63q-23 0 -23 21z" />
<glyph unicode="&#xce;" horiz-adv-x="518" d="M164 31v14l246 1391q4 24 16 31.5t33 7.5h123q30 0 30 -33v-15l-245 -1388q-8 -39 -50 -39h-118q-35 0 -35 31zM190 1657q0 9 9 18l278 283q29 31 72 31h80q45 0 63 -31l180 -285q5 -7 5 -18q0 -10 -7 -17.5t-20 -7.5h-51q-26 0 -43.5 9t-36.5 32l-137 168l-203 -168 q-27 -22 -47 -31.5t-49 -9.5h-68q-10 0 -17.5 8t-7.5 19z" />
<glyph unicode="&#xcf;" horiz-adv-x="518" d="M164 31v14l246 1391q4 24 16 31.5t33 7.5h123q30 0 30 -33v-15l-245 -1388q-8 -39 -50 -39h-118q-35 0 -35 31zM260 1731q0 48 35.5 80t91.5 32q46 0 75.5 -27t29.5 -71q0 -54 -35.5 -85.5t-91.5 -31.5q-48 0 -76.5 29t-28.5 74zM616 1731q0 48 36 80t91 32 q48 0 77.5 -27t29.5 -71q0 -54 -36.5 -85.5t-90.5 -31.5q-49 0 -78 29t-29 74z" />
<glyph unicode="&#xd0;" horiz-adv-x="1404" d="M119 713q0 3 1 8t1 6l10 68q6 36 43 36h129l107 599q8 41 57 45q91 8 287 8q201 0 327 -27.5t213 -95.5q176 -132 176 -449q0 -138 -22.5 -260t-70 -230.5t-127 -194t-187.5 -138.5q-98 -54 -228.5 -76t-338.5 -22q-219 0 -295 10q-37 3 -37 35q0 16 4 24l111 627h-127 q-33 0 -33 27zM389 172q80 -6 166 -6q284 0 426 94q144 89 212.5 252t68.5 375q0 124 -25.5 202.5t-85.5 124.5q-59 46 -152.5 68.5t-246.5 22.5q-68 0 -164 -7l-82 -467h223q29 0 29 -26l-1 -8q-1 -8 -1 -13l-11 -59q-6 -39 -43 -39h-223z" />
<glyph unicode="&#xd1;" horiz-adv-x="1449" d="M164 29q0 8 2 16l217 1225q20 110 63.5 161.5t135.5 51.5q81 0 118.5 -36.5t69.5 -135.5l279 -875l77 -276l56 332l157 940q8 43 47 43h123q22 0 29.5 -9.5t1.5 -33.5l-215 -1235q-38 -205 -197 -205q-73 0 -117 41.5t-69 118.5l-297 946l-61 227l-41 -278l-174 -1002 q-4 -26 -14.5 -35.5t-32.5 -9.5h-127q-31 0 -31 29zM659 1659q0 33 15 69.5t42.5 71.5t76 57.5t108.5 22.5q58 0 110 -21.5t93.5 -43t73.5 -21.5q39 0 60.5 17t35.5 53q8 24 37 24h78q24 0 24 -26q-2 -84 -65.5 -154t-159.5 -70q-59 0 -116 21t-101.5 42t-73.5 21 q-25 0 -42.5 -5.5t-28 -17.5t-15 -21.5t-10.5 -26.5q-11 -21 -39 -21h-76q-12 0 -19.5 9.5t-7.5 19.5z" />
<glyph unicode="&#xd2;" d="M193 537q0 158 30 300t93 263t153.5 209t218 138t279.5 50q84 0 157.5 -18t139 -59t112.5 -103.5t74 -157t27 -213.5q0 -152 -28 -291.5t-89.5 -264t-150.5 -215.5t-220.5 -144.5t-290.5 -53.5q-79 0 -148 15.5t-136 55.5t-115 101.5t-77 160.5t-29 227zM401 549 q0 -198 82.5 -295.5t237.5 -97.5q129 0 234 62t172.5 169t104 248t36.5 303q0 176 -79.5 278.5t-246.5 102.5q-124 0 -226.5 -60.5t-171 -165t-106 -244.5t-37.5 -300zM629 1962q0 11 8 19t22 8h140q37 0 55 -29l199 -287q6 -9 6 -18q0 -10 -7 -17.5t-18 -7.5h-57 q-26 0 -40 7.5t-38 33.5l-262 268q-8 8 -8 23z" />
<glyph unicode="&#xd3;" d="M193 537q0 158 30 300t93 263t153.5 209t218 138t279.5 50q84 0 157.5 -18t139 -59t112.5 -103.5t74 -157t27 -213.5q0 -152 -28 -291.5t-89.5 -264t-150.5 -215.5t-220.5 -144.5t-290.5 -53.5q-79 0 -148 15.5t-136 55.5t-115 101.5t-77 160.5t-29 227zM401 549 q0 -198 82.5 -295.5t237.5 -97.5q129 0 234 62t172.5 169t104 248t36.5 303q0 176 -79.5 278.5t-246.5 102.5q-124 0 -226.5 -60.5t-171 -165t-106 -244.5t-37.5 -300zM895 1651q0 12 6 24l205 277q11 17 27 26.5t26 9.5l10 1h150q27 0 27 -23q0 -14 -13 -27l-262 -266 q-22 -24 -39 -33.5t-51 -9.5h-63q-23 0 -23 21z" />
<glyph unicode="&#xd4;" d="M193 537q0 158 30 300t93 263t153.5 209t218 138t279.5 50q84 0 157.5 -18t139 -59t112.5 -103.5t74 -157t27 -213.5q0 -152 -28 -291.5t-89.5 -264t-150.5 -215.5t-220.5 -144.5t-290.5 -53.5q-79 0 -148 15.5t-136 55.5t-115 101.5t-77 160.5t-29 227zM401 549 q0 -198 82.5 -295.5t237.5 -97.5q129 0 234 62t172.5 169t104 248t36.5 303q0 176 -79.5 278.5t-246.5 102.5q-124 0 -226.5 -60.5t-171 -165t-106 -244.5t-37.5 -300zM653 1657q0 9 9 18l278 283q29 31 72 31h80q45 0 63 -31l180 -285q4 -6 4 -18q0 -10 -6.5 -17.5 t-19.5 -7.5h-51q-26 0 -43.5 9t-36.5 32l-138 168l-202 -168q-27 -22 -47.5 -31.5t-49.5 -9.5h-67q-10 0 -17.5 8t-7.5 19z" />
<glyph unicode="&#xd5;" d="M193 537q0 158 30 300t93 263t153.5 209t218 138t279.5 50q84 0 157.5 -18t139 -59t112.5 -103.5t74 -157t27 -213.5q0 -152 -28 -291.5t-89.5 -264t-150.5 -215.5t-220.5 -144.5t-290.5 -53.5q-79 0 -148 15.5t-136 55.5t-115 101.5t-77 160.5t-29 227zM401 549 q0 -198 82.5 -295.5t237.5 -97.5q129 0 234 62t172.5 169t104 248t36.5 303q0 176 -79.5 278.5t-246.5 102.5q-124 0 -226.5 -60.5t-171 -165t-106 -244.5t-37.5 -300zM629 1659q0 33 14.5 69.5t42.5 71.5t76 57.5t108 22.5q58 0 110 -21.5t93.5 -43t73.5 -21.5 q39 0 60.5 17t35.5 53q8 24 37 24h78q24 0 24 -26q-2 -84 -65.5 -154t-159.5 -70q-59 0 -116 21t-101.5 42t-73.5 21q-25 0 -42.5 -5.5t-28 -17.5t-15 -21.5t-10.5 -26.5q-10 -21 -39 -21h-76q-12 0 -19 9t-7 20z" />
<glyph unicode="&#xd6;" d="M193 537q0 158 30 300t93 263t153.5 209t218 138t279.5 50q84 0 157.5 -18t139 -59t112.5 -103.5t74 -157t27 -213.5q0 -152 -28 -291.5t-89.5 -264t-150.5 -215.5t-220.5 -144.5t-290.5 -53.5q-79 0 -148 15.5t-136 55.5t-115 101.5t-77 160.5t-29 227zM401 549 q0 -198 82.5 -295.5t237.5 -97.5q129 0 234 62t172.5 169t104 248t36.5 303q0 176 -79.5 278.5t-246.5 102.5q-124 0 -226.5 -60.5t-171 -165t-106 -244.5t-37.5 -300zM723 1731q0 48 35.5 80t91.5 32q46 0 75 -27t29 -71q0 -54 -35.5 -85.5t-91.5 -31.5q-48 0 -76 29 t-28 74zM1079 1731q0 48 36 80t91 32q48 0 77.5 -27t29.5 -71q0 -54 -36.5 -85.5t-90.5 -31.5q-49 0 -78 29t-29 74z" />
<glyph unicode="&#xd7;" horiz-adv-x="1042" d="M254 858q0 13 14 27l51 51q16 16 29 16q14 0 25 -14l252 -254l247 250q16 16 29 16q15 0 27 -12l53 -53q12 -12 12 -27t-14 -29l-250 -249l250 -252q14 -11 14 -25q0 -15 -14 -29l-51 -49q-14 -14 -27 -14t-27 14l-249 252l-248 -252q-14 -14 -29 -14q-14 0 -29 12 l-49 53q-14 11 -14 25q0 15 16 31l246 250l-248 249q-16 16 -16 27z" />
<glyph unicode="&#xd8;" horiz-adv-x="1464" d="M193 -53q0 16 14 30l133 177q-102 139 -102 383q0 158 30 300t93 263t153.5 209t218 138t279.5 50q163 0 286 -72l60 80q17 26 32 34.5t42 8.5h73q27 0 27 -22q0 -10 -10 -25l-123 -160q123 -139 123 -395q0 -152 -28 -291.5t-89.5 -264t-150.5 -215.5t-220.5 -144.5 t-290.5 -53.5q-185 0 -309 84l-69 -90q-17 -25 -32.5 -34t-41.5 -9h-74q-24 0 -24 19zM449 549q0 -130 34 -211l691 928q-73 51 -187 51q-164 0 -288 -103.5t-187 -276.5t-63 -388zM559 223q74 -65 207 -65q129 0 233.5 61.5t171.5 168.5t102.5 247.5t35.5 302.5 q0 134 -52 225z" />
<glyph unicode="&#xd9;" horiz-adv-x="1402" d="M236 412q0 61 14 157l151 865q9 41 45 41h129q31 0 31 -31q0 -1 -1 -5.5t-1 -6.5l-151 -877q-13 -70 -13 -131q0 -131 70 -196.5t217 -65.5q173 0 279.5 101t140.5 298l153 871q6 43 43 43h130q30 0 30 -31q0 -1 -1 -5.5t-1 -6.5l-151 -879q-18 -105 -48.5 -189.5 t-81.5 -158t-120 -123t-167 -77.5t-220 -28q-231 0 -354 116.5t-123 318.5zM641 1962q0 11 8.5 19t22.5 8h139q37 0 55 -29l199 -287q6 -9 6 -18q0 -10 -6.5 -17.5t-17.5 -7.5h-58q-26 0 -40 7.5t-38 33.5l-262 268q-8 8 -8 23z" />
<glyph unicode="&#xda;" horiz-adv-x="1402" d="M236 412q0 61 14 157l151 865q9 41 45 41h129q31 0 31 -31q0 -1 -1 -5.5t-1 -6.5l-151 -877q-13 -70 -13 -131q0 -131 70 -196.5t217 -65.5q173 0 279.5 101t140.5 298l153 871q6 43 43 43h130q30 0 30 -31q0 -1 -1 -5.5t-1 -6.5l-151 -879q-18 -105 -48.5 -189.5 t-81.5 -158t-120 -123t-167 -77.5t-220 -28q-231 0 -354 116.5t-123 318.5zM897 1651q0 12 6 24l205 277q11 17 27 26.5t26 9.5l10 1h150q27 0 27 -23q0 -14 -13 -27l-262 -266q-22 -24 -39 -33.5t-51 -9.5h-63q-23 0 -23 21z" />
<glyph unicode="&#xdb;" horiz-adv-x="1402" d="M236 412q0 61 14 157l151 865q9 41 45 41h129q31 0 31 -31q0 -1 -1 -5.5t-1 -6.5l-151 -877q-13 -70 -13 -131q0 -131 70 -196.5t217 -65.5q173 0 279.5 101t140.5 298l153 871q6 43 43 43h130q30 0 30 -31q0 -1 -1 -5.5t-1 -6.5l-151 -879q-18 -105 -48.5 -189.5 t-81.5 -158t-120 -123t-167 -77.5t-220 -28q-231 0 -354 116.5t-123 318.5zM625 1657q0 10 8 18l278 283q29 31 72 31h80q45 0 63 -31l181 -285q4 -6 4 -18q0 -10 -7 -17.5t-20 -7.5h-51q-26 0 -43.5 9t-36.5 32l-137 168l-203 -168q-27 -22 -47 -31.5t-49 -9.5h-68 q-10 0 -17 8t-7 19z" />
<glyph unicode="&#xdc;" horiz-adv-x="1402" d="M236 412q0 61 14 157l151 865q9 41 45 41h129q31 0 31 -31q0 -1 -1 -5.5t-1 -6.5l-151 -877q-13 -70 -13 -131q0 -131 70 -196.5t217 -65.5q173 0 279.5 101t140.5 298l153 871q6 43 43 43h130q30 0 30 -31q0 -1 -1 -5.5t-1 -6.5l-151 -879q-18 -105 -48.5 -189.5 t-81.5 -158t-120 -123t-167 -77.5t-220 -28q-231 0 -354 116.5t-123 318.5zM698 1731q0 48 35.5 80t91.5 32q46 0 75.5 -27t29.5 -71q0 -54 -35.5 -85.5t-91.5 -31.5q-48 0 -76.5 29t-28.5 74zM1055 1731q0 48 36 80t91 32q47 0 76.5 -27t29.5 -71q0 -54 -36.5 -85.5 t-90.5 -31.5q-49 0 -77.5 29t-28.5 74z" />
<glyph unicode="&#xdd;" horiz-adv-x="1095" d="M266 1438q0 37 35 37h115q25 0 35.5 -7t19.5 -32l137 -398l64 -188l139 188l291 398q17 26 33.5 32.5t46.5 6.5h125q12 0 20 -6.5t8 -16.5q0 -16 -14 -33l-571 -741l-99 -637q-6 -41 -45 -41h-123q-30 0 -30 29q0 16 2 20l100 633l-285 737q-4 12 -4 19zM733 1651 q0 12 6 24l205 277q11 17 27 26.5t27 9.5l10 1h149q27 0 27 -23q0 -14 -13 -27l-262 -266q-22 -24 -39 -33.5t-51 -9.5h-63q-23 0 -23 21z" />
<glyph unicode="&#xde;" horiz-adv-x="1144" d="M164 27v14l244 1395q4 24 17 31.5t34 7.5h121q30 0 30 -33v-15l-39 -225q33 2 105 2q167 0 264 -20.5t166 -69.5q129 -94 129 -297q0 -159 -64.5 -280.5t-185.5 -192.5q-84 -49 -188 -69.5t-262 -20.5q-70 0 -132 4l-36 -215q-6 -43 -45 -43h-129q-29 0 -29 27zM436 436 q82 -4 115 -4q116 0 186 15.5t129 50.5q77 46 119.5 125t42.5 178q0 122 -72 170q-43 30 -113 42.5t-186 12.5q-48 0 -118 -8z" />
<glyph unicode="&#xdf;" horiz-adv-x="1181" d="M121 938v6l16 103q6 36 43 36h131l8 41q86 473 541 473q183 0 276 -75.5t93 -206.5q0 -62 -21 -117t-54.5 -96.5t-74.5 -79t-81.5 -71.5t-74 -67t-54.5 -71.5t-21 -79.5q0 -10 2 -19.5t8 -18t11 -15.5t16 -15t18.5 -13.5t23 -14t24.5 -13.5t29 -15l30 -15 q101 -54 150.5 -117t49.5 -155q0 -73 -23 -133t-71.5 -108.5t-133 -76t-198.5 -27.5q-74 0 -167 21t-150 53q-23 13 -23 31q0 4 9 31l34 82q11 24 29 24q17 0 33 -8q45 -22 118 -41.5t132 -19.5q219 0 219 159q0 17 -4.5 31.5t-18 29t-23.5 23.5t-36.5 24t-40 22t-49.5 26 q-97 50 -144 103t-47 139q0 61 20 116t52.5 96t71.5 79t78.5 72t72 67t52.5 72.5t20 80.5q0 131 -184 131q-272 0 -326 -319l-186 -1059q-8 -43 -45 -43h-123q-31 0 -31 27q0 8 2 14l152 872h-129q-31 0 -31 25z" />
<glyph unicode="&#xe0;" horiz-adv-x="1126" d="M168 422q0 315 137.5 498.5t370.5 183.5q192 0 278 -141l33 79q9 22 18 31.5t29 9.5h92q12 0 20.5 -6.5t8.5 -17.5v-8l-147 -824q-7 -42 -7 -49q0 -41 39 -41h25q31 0 31 -31q0 -1 -2.5 -12.5t-5.5 -29t-5 -29.5q-6 -30 -34.5 -39.5t-81.5 -9.5q-70 2 -113.5 36 t-50.5 103q-51 -70 -128.5 -109t-162.5 -39q-157 0 -250.5 114.5t-93.5 330.5zM367 430q0 -291 190 -291q32 0 65.5 8.5t70.5 27t72.5 54t61.5 84.5l88 494q-27 68 -80.5 102.5t-125.5 34.5q-87 0 -154.5 -44t-107 -118.5t-60 -163.5t-20.5 -188zM379 1571q0 11 8.5 18.5 t22.5 7.5h139q37 1 55 -28l199 -287q6 -9 6 -18q0 -10 -7 -17.5t-18 -7.5h-57q-26 0 -40 7.5t-38 33.5l-262 268q-8 8 -8 23z" />
<glyph unicode="&#xe1;" horiz-adv-x="1126" d="M168 422q0 315 137.5 498.5t370.5 183.5q192 0 278 -141l33 79q9 22 18 31.5t29 9.5h92q12 0 20.5 -6.5t8.5 -17.5v-8l-147 -824q-7 -42 -7 -49q0 -41 39 -41h25q31 0 31 -31q0 -1 -2.5 -12.5t-5.5 -29t-5 -29.5q-6 -30 -34.5 -39.5t-81.5 -9.5q-70 2 -113.5 36 t-50.5 103q-51 -70 -128.5 -109t-162.5 -39q-157 0 -250.5 114.5t-93.5 330.5zM367 430q0 -291 190 -291q32 0 65.5 8.5t70.5 27t72.5 54t61.5 84.5l88 494q-27 68 -80.5 102.5t-125.5 34.5q-87 0 -154.5 -44t-107 -118.5t-60 -163.5t-20.5 -188zM686 1260q0 12 6 24 l205 277q11 17 27 26t26 9l11 1h149q27 0 27 -22q0 -14 -13 -27l-262 -266q-22 -24 -39 -33.5t-51 -9.5h-63q-23 0 -23 21z" />
<glyph unicode="&#xe2;" horiz-adv-x="1126" d="M168 422q0 315 137.5 498.5t370.5 183.5q192 0 278 -141l33 79q9 22 18 31.5t29 9.5h92q12 0 20.5 -6.5t8.5 -17.5v-8l-147 -824q-7 -42 -7 -49q0 -41 39 -41h25q31 0 31 -31q0 -1 -2.5 -12.5t-5.5 -29t-5 -29.5q-6 -30 -34.5 -39.5t-81.5 -9.5q-70 2 -113.5 36 t-50.5 103q-51 -70 -128.5 -109t-162.5 -39q-157 0 -250.5 114.5t-93.5 330.5zM367 430q0 -291 190 -291q32 0 65.5 8.5t70.5 27t72.5 54t61.5 84.5l88 494q-27 68 -80.5 102.5t-125.5 34.5q-87 0 -154.5 -44t-107 -118.5t-60 -163.5t-20.5 -188zM412 1266q0 10 8 18 l278 283q28 30 72 30h80q46 0 63 -30l181 -285q4 -6 4 -18q0 -10 -7 -17.5t-20 -7.5h-51q-26 0 -43.5 9t-36.5 32l-137 168l-203 -168q-27 -22 -47 -31.5t-49 -9.5h-68q-10 0 -17 8t-7 19z" />
<glyph unicode="&#xe3;" horiz-adv-x="1126" d="M168 422q0 315 137.5 498.5t370.5 183.5q192 0 278 -141l33 79q9 22 18 31.5t29 9.5h92q12 0 20.5 -6.5t8.5 -17.5v-8l-147 -824q-7 -42 -7 -49q0 -41 39 -41h25q31 0 31 -31q0 -1 -2.5 -12.5t-5.5 -29t-5 -29.5q-6 -30 -34.5 -39.5t-81.5 -9.5q-70 2 -113.5 36 t-50.5 103q-51 -70 -128.5 -109t-162.5 -39q-157 0 -250.5 114.5t-93.5 330.5zM367 430q0 -291 190 -291q32 0 65.5 8.5t70.5 27t72.5 54t61.5 84.5l88 494q-27 68 -80.5 102.5t-125.5 34.5q-87 0 -154.5 -44t-107 -118.5t-60 -163.5t-20.5 -188zM383 1268q0 33 15 69.5 t42.5 71.5t76 57.5t108.5 22.5q58 0 110 -21.5t93 -43t73 -21.5q39 0 60.5 17t35.5 53q8 24 37 24h78q13 0 19 -9t6 -18q-2 -84 -66 -153.5t-160 -69.5q-59 0 -115.5 21t-101 42t-73.5 21q-33 0 -54 -11.5t-28 -24.5t-15 -35q-10 -21 -39 -21h-75q-12 0 -19.5 9.5t-7.5 19.5 z" />
<glyph unicode="&#xe4;" horiz-adv-x="1126" d="M168 422q0 315 137.5 498.5t370.5 183.5q192 0 278 -141l33 79q9 22 18 31.5t29 9.5h92q12 0 20.5 -6.5t8.5 -17.5v-8l-147 -824q-7 -42 -7 -49q0 -41 39 -41h25q31 0 31 -31q0 -1 -2.5 -12.5t-5.5 -29t-5 -29.5q-6 -30 -34.5 -39.5t-81.5 -9.5q-70 2 -113.5 36 t-50.5 103q-51 -70 -128.5 -109t-162.5 -39q-157 0 -250.5 114.5t-93.5 330.5zM367 430q0 -291 190 -291q32 0 65.5 8.5t70.5 27t72.5 54t61.5 84.5l88 494q-27 68 -80.5 102.5t-125.5 34.5q-87 0 -154.5 -44t-107 -118.5t-60 -163.5t-20.5 -188zM473 1339q0 48 35.5 80.5 t91.5 32.5q46 0 75.5 -27t29.5 -71q0 -54 -35.5 -85.5t-91.5 -31.5q-49 0 -77 28.5t-28 73.5zM829 1339q0 48 36 80.5t91 32.5q48 0 77.5 -27t29.5 -71q0 -54 -36.5 -85.5t-90.5 -31.5q-49 0 -78 28.5t-29 73.5z" />
<glyph unicode="&#xe5;" horiz-adv-x="1126" d="M168 422q0 315 137.5 498.5t370.5 183.5q192 0 278 -141l33 79q9 22 18 31.5t29 9.5h92q12 0 20.5 -6.5t8.5 -17.5v-8l-147 -824q-7 -42 -7 -49q0 -41 39 -41h25q31 0 31 -31q0 -1 -2.5 -12.5t-5.5 -29t-5 -29.5q-6 -30 -34.5 -39.5t-81.5 -9.5q-70 2 -113.5 36 t-50.5 103q-51 -70 -128.5 -109t-162.5 -39q-157 0 -250.5 114.5t-93.5 330.5zM367 430q0 -291 190 -291q32 0 65.5 8.5t70.5 27t72.5 54t61.5 84.5l88 494q-27 68 -80.5 102.5t-125.5 34.5q-87 0 -154.5 -44t-107 -118.5t-60 -163.5t-20.5 -188zM539 1417q0 92 63.5 160 t175.5 68q86 0 132 -51t46 -124q0 -91 -66 -162t-179 -71q-82 0 -127 53t-45 127zM659 1427q0 -33 18.5 -55t53.5 -22q47 0 75 32t28 72q0 80 -72 80q-47 0 -75 -33.5t-28 -73.5z" />
<glyph unicode="&#xe6;" horiz-adv-x="1695" d="M102 250q0 85 29 152t78 110.5t118 72t145 40.5t163 12h209l10 57q8 44 8 78q0 80 -48.5 117t-145.5 37q-87 0 -162.5 -15t-119.5 -30t-54 -15q-22 0 -25 25l-10 78v10q0 35 29 49q73 33 181.5 54.5t203.5 21.5q240 0 307 -131q138 131 350 131q181 0 276 -93.5 t95 -267.5q0 -112 -29 -208q-11 -31 -24.5 -40.5t-49.5 -9.5h-614q-2 -18 -2 -49q0 -282 244 -282q143 0 286 57q16 4 23 4q20 0 26 -25l25 -86q4 -20 4 -26q0 -22 -31 -37q-59 -26 -155 -45t-203 -19q-258 0 -358 189q-192 -189 -455 -189q-153 0 -238.5 70.5t-85.5 202.5z M295 274q0 -67 45 -102t117 -35q213 0 325 152l35 196h-133q-44 0 -70.5 -0.5t-72.5 -4.5t-75 -12t-65 -23.5t-56.5 -37.5t-35 -56t-14.5 -77zM1040 637h492q14 52 14 119q0 87 -44.5 139.5t-143.5 52.5q-237 0 -318 -311z" />
<glyph unicode="&#xe7;" horiz-adv-x="980" d="M168 436q0 140 34 259.5t100.5 211.5t174 144.5t244.5 52.5q279 0 346 -225q2 -6 2 -21q0 -24 -33 -35l-75 -28q-8 -4 -25 -4q-23 0 -33 22q-32 66 -78.5 94.5t-117.5 28.5q-145 0 -243.5 -136t-98.5 -356q0 -288 266 -288q135 0 243 43q15 6 29 6q21 0 27 -25l26 -94 q2 -10 2 -18q0 -26 -28 -37q-100 -40 -258 -51l-19 -78q82 -13 129 -55.5t47 -114.5q0 -58 -21.5 -101t-59.5 -66.5t-82.5 -34.5t-98.5 -11q-91 0 -153 22q-22 6 -25 29q0 10 4 20l21 43q12 23 26 23q5 0 52.5 -10.5t80.5 -10.5q43 0 73 18.5t30 59.5q0 33 -31 48t-94 22 q-57 9 -57 45q0 11 8 35l33 119q-174 18 -270.5 133.5t-96.5 320.5z" />
<glyph unicode="&#xe8;" horiz-adv-x="1040" d="M166 440q0 98 18.5 191t61 179.5t104.5 151t155.5 103.5t207.5 39q181 0 275.5 -93.5t94.5 -267.5q0 -116 -28 -208q-11 -31 -24.5 -40.5t-49.5 -9.5h-616q-3 -27 -3 -51q0 -280 246 -280q143 0 289 57q12 4 21 4q20 0 26 -25l25 -86q4 -20 4 -26q0 -22 -31 -37 q-59 -26 -155 -45t-203 -19q-203 0 -310.5 118t-107.5 345zM360 1571q0 11 8.5 18.5t22.5 7.5h139q38 1 56 -28l198 -287q7 -11 7 -18q0 -10 -7 -17.5t-18 -7.5h-57q-26 0 -40 7.5t-38 33.5l-262 268q-9 9 -9 23zM385 637h492q14 52 14 119q0 192 -184 192 q-128 0 -206.5 -84.5t-115.5 -226.5z" />
<glyph unicode="&#xe9;" horiz-adv-x="1044" d="M166 440q0 98 18.5 191t61 179.5t104.5 151t155.5 103.5t207.5 39q181 0 275.5 -93.5t94.5 -267.5q0 -116 -28 -208q-11 -31 -24.5 -40.5t-49.5 -9.5h-616q-3 -27 -3 -51q0 -280 246 -280q143 0 289 57q12 4 21 4q20 0 26 -25l25 -86q4 -20 4 -26q0 -22 -31 -37 q-59 -26 -155 -45t-203 -19q-203 0 -310.5 118t-107.5 345zM385 637h492q14 52 14 119q0 192 -184 192q-128 0 -206.5 -84.5t-115.5 -226.5zM698 1260q0 10 7 24l204 277q11 17 27 26t26 9l11 1h149q27 0 27 -22q0 -15 -12 -27l-263 -266q-22 -24 -39 -33.5t-51 -9.5h-63 q-23 0 -23 21z" />
<glyph unicode="&#xea;" horiz-adv-x="1054" d="M166 440q0 98 18.5 191t61 179.5t104.5 151t155.5 103.5t207.5 39q181 0 275.5 -93.5t94.5 -267.5q0 -116 -28 -208q-11 -31 -24.5 -40.5t-49.5 -9.5h-616q-3 -27 -3 -51q0 -280 246 -280q143 0 289 57q12 4 21 4q20 0 26 -25l25 -86q4 -20 4 -26q0 -22 -31 -37 q-59 -26 -155 -45t-203 -19q-203 0 -310.5 118t-107.5 345zM385 637h492q14 52 14 119q0 192 -184 192q-128 0 -206.5 -84.5t-115.5 -226.5zM391 1266q0 10 8 18l279 283q28 30 72 30h79q47 0 64 -30l180 -285q4 -6 4 -18q0 -10 -6.5 -17.5t-19.5 -7.5h-52q-26 0 -43 9 t-36 32l-138 168l-202 -168q-27 -22 -47.5 -31.5t-49.5 -9.5h-67q-10 0 -17.5 8t-7.5 19z" />
<glyph unicode="&#xeb;" horiz-adv-x="1040" d="M166 440q0 98 18.5 191t61 179.5t104.5 151t155.5 103.5t207.5 39q181 0 275.5 -93.5t94.5 -267.5q0 -116 -28 -208q-11 -31 -24.5 -40.5t-49.5 -9.5h-616q-3 -27 -3 -51q0 -280 246 -280q143 0 289 57q12 4 21 4q20 0 26 -25l25 -86q4 -20 4 -26q0 -22 -31 -37 q-59 -26 -155 -45t-203 -19q-203 0 -310.5 118t-107.5 345zM385 637h492q14 52 14 119q0 192 -184 192q-128 0 -206.5 -84.5t-115.5 -226.5zM453 1339q0 48 35.5 80.5t91.5 32.5q46 0 75 -27t29 -71q0 -54 -35.5 -85.5t-91.5 -31.5q-48 0 -76 28.5t-28 73.5zM809 1339 q0 48 36 80.5t91 32.5q47 0 76.5 -27t29.5 -71q0 -54 -36.5 -85.5t-90.5 -31.5q-49 0 -77.5 28.5t-28.5 73.5z" />
<glyph unicode="&#xec;" horiz-adv-x="532" d="M123 1571q0 11 8.5 18.5t22.5 7.5h137q37 1 55 -28l201 -287q6 -9 6 -18q0 -10 -7 -17.5t-20 -7.5h-73q-25 0 -37.5 7.5t-36.5 33.5l-248 268q-8 8 -8 23zM182 33v14l180 995q6 39 52 39h114q31 0 31 -32q0 -1 -1 -7t-1 -8l-178 -997q-8 -37 -47 -37h-115q-35 0 -35 33z " />
<glyph unicode="&#xed;" horiz-adv-x="514" d="M164 33v14l180 995q6 39 51 39h115q31 0 31 -32q0 -1 -1 -7t-1 -8l-179 -997q-8 -37 -47 -37h-114q-35 0 -35 33zM408 1260q0 12 6 24l209 283q11 14 26 21.5t24 7.5l9 1h149q27 0 27 -22q0 -15 -12 -27l-262 -266q-22 -24 -39 -33.5t-51 -9.5h-68q-18 0 -18 21z" />
<glyph unicode="&#xee;" horiz-adv-x="514" d="M150 1266q0 10 8 18l278 283q28 30 72 30h80q46 0 63 -30l178 -285q7 -11 7 -18q0 -10 -8 -17.5t-19 -7.5h-61q-26 0 -43.5 9t-36.5 32l-133 168l-203 -168q-21 -17 -30 -23.5t-24.5 -12t-35.5 -5.5h-68q-10 0 -17 8t-7 19zM164 33v14l180 995q6 39 51 39h115 q31 0 31 -32q0 -1 -1 -7t-1 -8l-179 -997q-8 -37 -47 -37h-114q-35 0 -35 33z" />
<glyph unicode="&#xef;" horiz-adv-x="514" d="M164 33v14l180 995q6 39 51 39h115q31 0 31 -32q0 -1 -1 -7t-1 -8l-179 -997q-8 -37 -47 -37h-114q-35 0 -35 33zM205 1339q0 48 36 80.5t91 32.5q47 0 76.5 -27t29.5 -71q0 -54 -36.5 -85.5t-90.5 -31.5q-49 0 -77.5 28.5t-28.5 73.5zM563 1339q0 48 35.5 80.5 t91.5 32.5q47 0 76 -27t29 -71q0 -54 -35.5 -85.5t-89.5 -31.5q-49 0 -78 28.5t-29 73.5z" />
<glyph unicode="&#xf0;" horiz-adv-x="1107" d="M154 373q0 125 34 231t98.5 184.5t165 123t226.5 44.5q89 0 161.5 -30.5t108.5 -87.5q-26 204 -170 374l-252 -73q-28 -11 -37 -11q-23 0 -30 27l-10 31q-3 12 -3 20q0 20 27 29l219 65q-19 17 -41 34.5t-52.5 40.5t-51.5 40q-19 15 -19 33q0 10 7 18.5t18 8.5h141 q13 0 25 -1.5t20.5 -3.5t16.5 -5t12 -5t8.5 -5t5.5 -3q70 -53 109 -92l207 59q15 6 28 6q24 0 31 -20l10 -35q2 -8 2 -20q-6 -23 -26 -29l-174 -51q84 -107 130 -243.5t46 -285.5q0 -110 -23 -217.5t-72 -207t-119 -174.5t-171.5 -120t-220.5 -45q-174 0 -279.5 107.5 t-105.5 288.5zM348 375q0 -112 53.5 -172t149.5 -60q89 0 163 48.5t120.5 126t73.5 165.5t32 176q-24 52 -92 89.5t-164 37.5q-159 0 -247.5 -114.5t-88.5 -296.5z" />
<glyph unicode="&#xf1;" horiz-adv-x="1183" d="M162 31q0 6 2 14l178 999q6 39 45 39h78q37 0 41 -45l6 -90q48 62 113.5 99t114.5 47t98 10q145 0 229 -83t84 -243q0 -66 -10 -121l-111 -618q-9 -39 -47 -39h-119q-15 0 -24 8.5t-9 22.5q0 2 5 22l110 611q10 55 10 102q0 83 -45.5 129.5t-128.5 46.5t-160 -41 t-133 -133l-129 -731q-7 -37 -47 -37h-118q-33 0 -33 31zM459 1268q0 33 14.5 69.5t42.5 71.5t76 57.5t108 22.5q58 0 110 -21.5t93.5 -43t73.5 -21.5q39 0 60.5 17t35.5 53q8 24 37 24h78q24 0 24 -27q-2 -84 -65.5 -153.5t-159.5 -69.5q-59 0 -116 21t-101.5 42t-73.5 21 q-25 0 -42.5 -5.5t-28 -17.5t-15 -21.5t-10.5 -26.5q-10 -21 -39 -21h-76q-12 0 -19 9t-7 20z" />
<glyph unicode="&#xf2;" horiz-adv-x="1079" d="M162 406q0 320 153 509t408 189q189 0 286 -114.5t97 -309.5q0 -112 -20.5 -213.5t-65.5 -191.5t-110.5 -156t-160.5 -104t-210 -38q-181 0 -279 117t-98 312zM360 420q0 -154 52 -218.5t155 -64.5q107 0 186.5 77t117.5 195.5t38 258.5q0 138 -48 207t-161 69 q-147 0 -243.5 -141.5t-96.5 -382.5zM373 1571q0 26 30 26h140q37 1 55 -28l199 -287q6 -9 6 -18q0 -10 -7 -17.5t-18 -7.5h-57q-26 0 -40 7.5t-38 33.5l-262 268q-8 8 -8 23z" />
<glyph unicode="&#xf3;" horiz-adv-x="1087" d="M162 406q0 320 153 509t408 189q189 0 286 -114.5t97 -309.5q0 -112 -20.5 -213.5t-65.5 -191.5t-110.5 -156t-160.5 -104t-210 -38q-181 0 -279 117t-98 312zM360 420q0 -154 52 -218.5t155 -64.5q107 0 186.5 77t117.5 195.5t38 258.5q0 138 -48 207t-161 69 q-147 0 -243.5 -141.5t-96.5 -382.5zM664 1260q0 12 6 24l204 277q11 17 27 26t27 9l10 1h149q27 0 27 -22q0 -15 -12 -27l-262 -266q-22 -24 -39 -33.5t-51 -9.5h-64q-22 0 -22 21z" />
<glyph unicode="&#xf4;" horiz-adv-x="1079" d="M162 406q0 320 153 509t408 189q189 0 286 -114.5t97 -309.5q0 -112 -20.5 -213.5t-65.5 -191.5t-110.5 -156t-160.5 -104t-210 -38q-181 0 -279 117t-98 312zM360 420q0 -154 52 -218.5t155 -64.5q107 0 186.5 77t117.5 195.5t38 258.5q0 138 -48 207t-161 69 q-147 0 -243.5 -141.5t-96.5 -382.5zM412 1266q0 10 8 18l278 283q28 30 72 30h80q46 0 63 -30l181 -285q4 -6 4 -18q0 -10 -7 -17.5t-20 -7.5h-51q-26 0 -43.5 9t-36.5 32l-137 168l-203 -168q-27 -22 -47 -31.5t-49 -9.5h-68q-10 0 -17 8t-7 19z" />
<glyph unicode="&#xf5;" horiz-adv-x="1116" d="M162 406q0 320 153 509t408 189q189 0 286 -114.5t97 -309.5q0 -112 -20.5 -213.5t-65.5 -191.5t-110.5 -156t-160.5 -104t-210 -38q-181 0 -279 117t-98 312zM360 420q0 -154 52 -218.5t155 -64.5q107 0 186.5 77t117.5 195.5t38 258.5q0 138 -48 207t-161 69 q-147 0 -243.5 -141.5t-96.5 -382.5zM369 1268q0 33 14.5 69.5t42.5 71.5t76 57.5t108 22.5q58 0 110 -21.5t93.5 -43t73.5 -21.5q39 0 60.5 17t35.5 53q8 24 37 24h78q24 0 24 -27q-2 -84 -65.5 -153.5t-159.5 -69.5q-59 0 -116 21t-101.5 42t-73.5 21q-25 0 -42.5 -5.5 t-28 -17.5t-15 -21.5t-10.5 -26.5q-10 -21 -39 -21h-76q-12 0 -19 9t-7 20z" />
<glyph unicode="&#xf6;" horiz-adv-x="1079" d="M162 406q0 320 153 509t408 189q189 0 286 -114.5t97 -309.5q0 -112 -20.5 -213.5t-65.5 -191.5t-110.5 -156t-160.5 -104t-210 -38q-181 0 -279 117t-98 312zM360 420q0 -154 52 -218.5t155 -64.5q107 0 186.5 77t117.5 195.5t38 258.5q0 138 -48 207t-161 69 q-147 0 -243.5 -141.5t-96.5 -382.5zM471 1339q0 48 35.5 80.5t91.5 32.5q46 0 75 -27t29 -71q0 -54 -35.5 -85.5t-91.5 -31.5q-48 0 -76 28.5t-28 73.5zM827 1339q0 48 36 80.5t91 32.5q48 0 77.5 -27t29.5 -71q0 -54 -36.5 -85.5t-90.5 -31.5q-49 0 -78 28.5t-29 73.5z " />
<glyph unicode="&#xf7;" horiz-adv-x="1087" d="M213 543v71q0 41 37 41h794q22 0 29.5 -10t7.5 -31v-69q0 -20 -8 -29.5t-31 -9.5h-790q-22 0 -30.5 9t-8.5 28zM524 266q0 53 35.5 89t87.5 36q51 0 87 -36.5t36 -88.5q0 -51 -36 -86t-87 -35q-52 0 -87.5 35t-35.5 86zM524 903q0 53 35.5 89t87.5 36q51 0 87 -36.5 t36 -88.5q0 -51 -36 -86t-87 -35q-52 0 -87.5 35t-35.5 86z" />
<glyph unicode="&#xf8;" horiz-adv-x="1204" d="M162 -51q3 13 10 24l129 168q-63 98 -63 265q0 320 152.5 509t406.5 189q120 0 200 -47l58 76q19 26 34 34.5t41 8.5h74q13 0 20 -7t5 -18q0 -13 -12 -25l-119 -155q82 -106 82 -291q0 -141 -33.5 -264.5t-100.5 -223t-178 -157.5t-254 -58q-138 0 -227 68l-55 -72 q-19 -27 -33.5 -36t-40.5 -9h-72q-24 0 -24 21zM438 426q0 -62 8 -98l443 590q-42 26 -115 26q-146 0 -240.5 -139.5t-95.5 -378.5zM498 190q50 -53 143 -53q107 0 185.5 77t115.5 195.5t37 258.5q0 85 -18 133z" />
<glyph unicode="&#xf9;" horiz-adv-x="1146" d="M195 291q0 57 8 98l116 658q7 36 48 36h118q33 0 33 -36l-117 -644q-10 -62 -10 -98q0 -73 42 -118.5t122 -45.5q189 0 287 170l133 736q6 36 45 36h123q28 0 28 -36l-180 -1010q-7 -37 -45 -37h-78q-33 0 -37 37l-8 96q-112 -156 -321 -156q-138 0 -222.5 84t-84.5 230z M416 1571q0 26 30 26h140q37 1 55 -28l199 -287q6 -9 6 -18q0 -10 -7 -17.5t-18 -7.5h-57q-26 0 -40 7.5t-38 33.5l-262 268q-8 8 -8 23z" />
<glyph unicode="&#xfa;" horiz-adv-x="1146" d="M195 291q0 57 8 98l116 658q7 36 48 36h118q33 0 33 -36l-117 -644q-10 -62 -10 -98q0 -73 42 -118.5t122 -45.5q189 0 287 170l133 736q6 36 45 36h123q28 0 28 -36l-180 -1010q-7 -37 -45 -37h-78q-33 0 -37 37l-8 96q-112 -156 -321 -156q-138 0 -222.5 84t-84.5 230z M702 1260q0 10 7 24l204 277q11 17 27 26t26 9l11 1h149q27 0 27 -22q0 -15 -12 -27l-262 -266q-22 -24 -39.5 -33.5t-51.5 -9.5h-63q-23 0 -23 21z" />
<glyph unicode="&#xfb;" horiz-adv-x="1146" d="M195 291q0 57 8 98l116 658q7 36 48 36h118q33 0 33 -36l-117 -644q-10 -62 -10 -98q0 -73 42 -118.5t122 -45.5q189 0 287 170l133 736q6 36 45 36h123q28 0 28 -36l-180 -1010q-7 -37 -45 -37h-78q-33 0 -37 37l-8 96q-112 -156 -321 -156q-138 0 -222.5 84t-84.5 230z M432 1266q0 10 8 18l279 283q28 30 72 30h79q47 0 64 -30l180 -285q4 -6 4 -18q0 -10 -6.5 -17.5t-19.5 -7.5h-52q-26 0 -43 9t-36 32l-138 168l-202 -168q-27 -22 -47.5 -31.5t-49.5 -9.5h-67q-10 0 -17.5 8t-7.5 19z" />
<glyph unicode="&#xfc;" horiz-adv-x="1146" d="M195 291q0 57 8 98l116 658q7 36 48 36h118q33 0 33 -36l-117 -644q-10 -62 -10 -98q0 -73 42 -118.5t122 -45.5q189 0 287 170l133 736q6 36 45 36h123q28 0 28 -36l-180 -1010q-7 -37 -45 -37h-78q-33 0 -37 37l-8 96q-112 -156 -321 -156q-138 0 -222.5 84t-84.5 230z M504 1339q0 48 35.5 80.5t91.5 32.5q46 0 75 -27t29 -71q0 -54 -35.5 -85.5t-91.5 -31.5q-48 0 -76 28.5t-28 73.5zM860 1339q0 48 36 80.5t91 32.5q48 0 77.5 -27t29.5 -71q0 -54 -36.5 -85.5t-90.5 -31.5q-49 0 -78 28.5t-29 73.5z" />
<glyph unicode="&#xfd;" horiz-adv-x="933" d="M-113 -344q0 6 7 27q1 3 15 36.5t21 47.5q10 22 33 22q3 0 59 -13.5t99 -13.5q52 0 95.5 17t80.5 52t66 74t63 97q-82 9 -94 107l-133 938q0 36 34 36h121q18 0 26 -7.5t13 -28.5l82 -680l21 -244l114 244l105 215q76 156 107.5 243.5t31.5 157.5q0 5 -1 26.5t-1 34.5 q0 39 33 39h114q33 0 39 -34q4 -20 4 -56q0 -98 -26.5 -176t-118.5 -266l-283 -582q-99 -200 -216.5 -289.5t-276.5 -89.5q-130 0 -207 35q-27 12 -27 31zM573 1260q0 10 7 24l204 277q11 17 27 26t27 9l10 1h149q27 0 27 -22q0 -15 -12 -27l-262 -266q-22 -24 -39.5 -33.5 t-51.5 -9.5h-63q-23 0 -23 21z" />
<glyph unicode="&#xfe;" horiz-adv-x="1140" d="M88 -381q0 6 2 14l330 1831q8 46 49 52l109 26q10 2 20 2q14 0 21 -9t6 -24l-109 -559q121 152 313 152q44 0 87.5 -12t89 -43.5t79.5 -78t56 -123t22 -171.5q0 -149 -29.5 -269t-79 -199t-117 -132t-140 -76t-152.5 -23q-183 0 -272 132l-86 -482q-3 -16 -16 -26.5 t-27 -10.5h-121q-17 0 -26 8t-9 21zM401 274q59 -137 215 -137q114 0 195.5 74.5t119.5 193t38 265.5q0 125 -49 197.5t-152 72.5q-178 0 -279 -172z" />
<glyph unicode="&#xff;" horiz-adv-x="933" d="M-113 -344q0 6 7 27q1 3 15 36.5t21 47.5q10 22 33 22q3 0 59 -13.5t99 -13.5q52 0 95.5 17t80.5 52t66 74t63 97q-82 9 -94 107l-133 938q0 36 34 36h121q18 0 26 -7.5t13 -28.5l82 -680l21 -244l114 244l105 215q76 156 107.5 243.5t31.5 157.5q0 5 -1 26.5t-1 34.5 q0 39 33 39h114q33 0 39 -34q4 -20 4 -56q0 -98 -26.5 -176t-118.5 -266l-283 -582q-99 -200 -216.5 -289.5t-276.5 -89.5q-130 0 -207 35q-27 12 -27 31zM348 1339q0 48 35.5 80.5t91.5 32.5q46 0 75.5 -27t29.5 -71q0 -54 -35.5 -85.5t-91.5 -31.5q-49 0 -77 28.5 t-28 73.5zM705 1339q0 48 35.5 80.5t90.5 32.5q48 0 77.5 -27t29.5 -71q0 -54 -36.5 -85.5t-90.5 -31.5q-49 0 -77.5 28.5t-28.5 73.5z" />
<glyph unicode="&#x152;" horiz-adv-x="1855" d="M190 532q0 154 31 293t94.5 258t155 206t219 136.5t279.5 49.5h1030q33 0 33 -29q0 -2 -1 -5t-1 -5l-19 -107q-6 -37 -45 -37h-577l-74 -411h493q35 0 35 -29q0 -2 -1 -5t-1 -5l-20 -101q-7 -41 -47 -41h-492l-92 -518h612q33 0 33 -26v-11l-18 -104q-7 -41 -45 -41 h-1065q-517 0 -517 532zM401 567q0 -184 79 -284.5t259 -100.5h252l197 1110h-240q-105 0 -194 -39t-153.5 -107t-110 -160t-67.5 -198t-22 -221z" />
<glyph unicode="&#x153;" horiz-adv-x="1767" d="M162 406q0 320 152.5 509t406.5 189q234 0 326 -180q142 180 393 180q181 0 275.5 -93.5t94.5 -267.5q0 -116 -28 -208q-11 -31 -24.5 -40.5t-49.5 -9.5h-621q-2 -18 -2 -51q3 -280 250 -280q143 0 289 57q12 4 21 4q20 0 26 -25l25 -86q4 -20 4 -26q0 -22 -31 -37 q-59 -26 -155 -45t-203 -19q-262 0 -359 195q-153 -195 -413 -195q-186 0 -281.5 117.5t-95.5 311.5zM360 420q0 -153 51 -218t154 -65q107 0 187 77t118.5 196t38.5 258q0 138 -49 207t-162 69q-147 0 -242.5 -141.5t-95.5 -382.5zM1110 637h494q14 52 14 119 q0 87 -44 139.5t-142 52.5q-128 0 -206.5 -84.5t-115.5 -226.5z" />
<glyph unicode="&#x178;" horiz-adv-x="1095" d="M266 1438q0 37 35 37h115q25 0 35.5 -7t19.5 -32l137 -398l64 -188l139 188l291 398q17 26 33.5 32.5t46.5 6.5h125q12 0 20 -6.5t8 -16.5q0 -16 -14 -33l-571 -741l-99 -637q-6 -41 -45 -41h-123q-30 0 -30 29q0 16 2 20l100 633l-285 737q-4 12 -4 19zM504 1729 q0 48 35.5 80t91.5 32q46 0 75 -27t29 -71q0 -54 -35.5 -85.5t-91.5 -31.5q-48 0 -76 29t-28 74zM860 1729q0 48 36 80t91 32q48 0 77.5 -27t29.5 -71q0 -54 -36.5 -85.5t-90.5 -31.5q-49 0 -78 29t-29 74z" />
<glyph unicode="&#x2c6;" horiz-adv-x="878" d="M319 1266q0 9 9 18l278 283q28 30 72 30h80q46 0 63 -30l180 -285q5 -8 5 -18t-7 -17.5t-20 -7.5h-51q-26 0 -43.5 9t-36.5 32l-137 168l-203 -168q-27 -22 -47 -31.5t-49 -9.5h-68q-10 0 -17.5 8t-7.5 19z" />
<glyph unicode="&#x2dc;" horiz-adv-x="913" d="M319 1268q0 33 15 69.5t42.5 71.5t76 57.5t108.5 22.5q58 0 110 -21.5t93.5 -43t73.5 -21.5q39 0 60.5 17t35.5 53q8 24 37 24h78q24 0 24 -27q-2 -84 -65.5 -153.5t-159.5 -69.5q-59 0 -116 21t-101.5 42t-73.5 21q-25 0 -42.5 -5.5t-28 -17.5t-15 -21.5t-10.5 -26.5 q-11 -21 -39 -21h-76q-12 0 -19.5 9.5t-7.5 19.5z" />
<glyph unicode="&#x2000;" horiz-adv-x="1018" />
<glyph unicode="&#x2001;" horiz-adv-x="2036" />
<glyph unicode="&#x2002;" horiz-adv-x="1018" />
<glyph unicode="&#x2003;" horiz-adv-x="2036" />
<glyph unicode="&#x2004;" horiz-adv-x="678" />
<glyph unicode="&#x2005;" horiz-adv-x="509" />
<glyph unicode="&#x2006;" horiz-adv-x="339" />
<glyph unicode="&#x2007;" horiz-adv-x="339" />
<glyph unicode="&#x2008;" horiz-adv-x="254" />
<glyph unicode="&#x2009;" horiz-adv-x="407" />
<glyph unicode="&#x200a;" horiz-adv-x="113" />
<glyph unicode="&#x2010;" horiz-adv-x="817" d="M199 528q0 9 2 17l14 88q7 37 43 37h541q28 0 28 -27l-2 -20l-12 -84q-6 -37 -43 -37h-539q-32 0 -32 26z" />
<glyph unicode="&#x2011;" horiz-adv-x="817" d="M199 528q0 9 2 17l14 88q7 37 43 37h541q28 0 28 -27l-2 -20l-12 -84q-6 -37 -43 -37h-539q-32 0 -32 26z" />
<glyph unicode="&#x2012;" horiz-adv-x="817" d="M199 528q0 9 2 17l14 88q7 37 43 37h541q28 0 28 -27l-2 -20l-12 -84q-6 -37 -43 -37h-539q-32 0 -32 26z" />
<glyph unicode="&#x2013;" horiz-adv-x="1312" d="M199 528q0 7 2 17l14 88q7 37 43 37h1036q29 0 29 -27q0 -3 -1 -11t-1 -9l-14 -84q-6 -37 -43 -37h-1033q-32 0 -32 26z" />
<glyph unicode="&#x2014;" horiz-adv-x="2211" d="M199 528q0 7 2 17l14 88q7 37 43 37h1935q29 0 29 -27q0 -3 -1 -11t-1 -9l-14 -84q-6 -37 -43 -37h-1932q-32 0 -32 26z" />
<glyph unicode="&#x2018;" horiz-adv-x="403" d="M223 1155q0 13 13 35l206 317q32 43 84 43h54q26 0 26 -22q0 -13 -6 -25l-158 -329q-21 -41 -57 -41h-131q-31 0 -31 22z" />
<glyph unicode="&#x2019;" horiz-adv-x="403" d="M225 1155q0 7 6 25l160 327q21 43 58 43h131q30 0 30 -22q0 -16 -14 -37l-207 -315q-26 -43 -82 -43h-55q-27 0 -27 22z" />
<glyph unicode="&#x201a;" horiz-adv-x="405" d="M-10 -176q0 6 6 24l160 328q21 43 57 43h131q31 0 31 -22q0 -15 -15 -37l-206 -316q-26 -43 -84 -43h-54q-26 0 -26 23z" />
<glyph unicode="&#x201c;" horiz-adv-x="772" d="M223 1155q0 13 13 35l206 317q32 43 84 43h54q26 0 26 -22q0 -13 -6 -25l-158 -329q-21 -41 -57 -41h-131q-31 0 -31 22zM592 1155q0 17 14 35l207 317q28 43 84 43h53q27 0 27 -22q0 -7 -6 -25l-160 -329q-21 -41 -57 -41h-131q-31 0 -31 22z" />
<glyph unicode="&#x201d;" horiz-adv-x="772" d="M225 1155q0 7 6 25l160 327q21 43 58 43h131q30 0 30 -22q0 -16 -14 -37l-207 -315q-26 -43 -82 -43h-55q-27 0 -27 22zM596 1155q0 13 6 25l160 327q21 43 55 43h131q31 0 31 -22q0 -13 -12 -37l-207 -315q-17 -24 -35.5 -33.5t-48.5 -9.5h-53q-27 0 -27 22z" />
<glyph unicode="&#x201e;" horiz-adv-x="753" d="M-10 -176q0 6 6 24l160 328q21 43 57 43h131q31 0 31 -22q0 -15 -15 -37l-206 -316q-26 -43 -84 -43h-54q-26 0 -26 23zM340 -176q0 12 6 24l160 328q21 43 55 43h131q31 0 31 -22q0 -13 -12 -37l-207 -316q-26 -43 -84 -43h-53q-27 0 -27 23z" />
<glyph unicode="&#x2022;" horiz-adv-x="665" d="M180 594q0 104 72 179t172 75q104 0 179 -75t75 -179q0 -100 -75 -172t-179 -72q-100 0 -172 72t-72 172z" />
<glyph unicode="&#x2026;" horiz-adv-x="1572" d="M104 100q0 53 37.5 90t91.5 37q53 0 90 -37.5t37 -89.5q0 -55 -37 -92t-90 -37q-54 0 -91.5 37t-37.5 92zM674 100q0 53 36.5 90t90.5 37t91.5 -37t37.5 -90q0 -55 -37.5 -92t-91.5 -37t-90.5 37t-36.5 92zM1243 100q0 53 37.5 90t91.5 37t91.5 -37t37.5 -90 q0 -55 -37.5 -92t-91.5 -37t-91.5 37t-37.5 92z" />
<glyph unicode="&#x202f;" horiz-adv-x="407" />
<glyph unicode="&#x2039;" horiz-adv-x="737" d="M201 500q0 27 30 57l261 283q15 16 19.5 20.5t14.5 12t19.5 9t23.5 1.5h76q10 0 16.5 -7t6.5 -16q0 -10 -9 -22l-256 -336l132 -324q4 -8 4 -16q0 -13 -8.5 -21t-20.5 -8h-64q-19 0 -30.5 5.5t-17 12.5t-15.5 25l-168 283q-14 19 -14 41z" />
<glyph unicode="&#x203a;" horiz-adv-x="606" d="M133 156q0 11 8 22l256 336l-131 324q-4 8 -4 16q0 13 8.5 21t20.5 8h63q27 0 38.5 -9t25.5 -34l168 -283q14 -19 14 -41q0 -26 -31 -57l-260 -283q-18 -19 -25.5 -26t-20.5 -12t-32 -5h-75q-10 0 -16.5 7t-6.5 16z" />
<glyph unicode="&#x205f;" horiz-adv-x="509" />
<glyph unicode="&#x20ac;" horiz-adv-x="1347" d="M119 551l12 65q7 41 43 41h127q6 72 18 140h-118q-21 0 -28.5 7.5t-4.5 24.5l12 64q3 21 12 31t31 10h131q37 120 97.5 219t146.5 177.5t204 122.5t257 44q366 0 440 -274q4 -20 4 -21q0 -28 -37 -39l-82 -26q-24 -4 -30 -4q-22 0 -33 24q-38 87 -106.5 121.5 t-182.5 34.5q-82 0 -154.5 -30t-128 -83.5t-97.5 -119.5t-72 -146h583q12 0 21 -7t8 -20q0 -9 -6 -18l-29 -62q-13 -30 -49 -30h-569q-14 -57 -25 -140h537q30 0 30 -24q0 -3 -6 -21l-28 -61q-13 -33 -52 -33h-483q17 -350 336 -350q175 0 362 74q12 6 29 6q21 0 27 -25 l30 -100q2 -6 2 -21q0 -29 -38 -43q-200 -82 -439 -82q-251 0 -384 142.5t-138 398.5h-147q-21 0 -28.5 7.5t-4.5 25.5z" />
<glyph unicode="&#x2122;" horiz-adv-x="1261" d="M184 1380v9l11 61q4 25 26 25h426q19 0 19 -17v-8l-11 -61q-4 -25 -28 -25h-152l-82 -455q-3 -24 -26 -24h-74q-19 0 -19 16v8l82 455h-151q-21 0 -21 16zM625 899v8l106 459q12 54 45.5 83.5t83.5 29.5q44 0 64.5 -23.5t23.5 -69.5l27 -368l155 368q43 93 127 93 q86 0 86 -84q0 -4 -1 -14t-1 -15l-53 -459q-2 -22 -24 -22h-68q-20 0 -20 16v4l59 481l-162 -374q-17 -39 -41 -60.5t-74 -21.5q-43 0 -60 22.5t-21 59.5l-33 379l-105 -486q-7 -20 -28 -20h-68q-18 0 -18 14z" />
<glyph unicode="&#x25fc;" horiz-adv-x="1085" d="M0 0v1085h1085v-1085h-1085z" />
</font>
</defs>
</svg>
